let chopin = {
    "header": {
      "keySignatures": [
        {
          "key": "C",
          "scale": "major",
          "ticks": 0
        }
      ],
      "meta": [
        {
          "text": "Frédéric Chopin",
          "ticks": 0,
          "type": "text"
        }
      ],
      "name": "Valse en la mineur",
      "ppq": 960,
      "tempos": [
        {
          "bpm": 140.00014000014,
          "ticks": 0
        }
      ],
      "timeSignatures": [
        {
          "ticks": 0,
          "timeSignature": [
            3,
            4
          ],
          "measures": 0
        }
      ]
    },
    "tracks": [
      {
        "channel": 0,
        "controlChanges": {
          "7": [
            {
              "number": 7,
              "ticks": 1920,
              "time": 0.8571420000000001,
              "value": 1
            },
            {
              "number": 7,
              "ticks": 1920,
              "time": 0.8571420000000001,
              "value": 1
            }
          ],
          "10": [
            {
              "number": 10,
              "ticks": 1920,
              "time": 0.8571420000000001,
              "value": 0.4015748031496063
            },
            {
              "number": 10,
              "ticks": 1920,
              "time": 0.8571420000000001,
              "value": 0.4015748031496063
            }
          ],
          "64": [
            {
              "number": 64,
              "ticks": 1920,
              "time": 0.8571420000000001,
              "value": 0
            },
            {
              "number": 64,
              "ticks": 1920,
              "time": 0.8571420000000001,
              "value": 0
            }
          ],
          "91": [
            {
              "number": 91,
              "ticks": 1920,
              "time": 0.8571420000000001,
              "value": 0.3779527559055118
            },
            {
              "number": 91,
              "ticks": 1920,
              "time": 0.8571420000000001,
              "value": 0.3779527559055118
            }
          ],
          "121": [
            {
              "number": 121,
              "ticks": 1920,
              "time": 0.8571420000000001,
              "value": 0
            },
            {
              "number": 121,
              "ticks": 1920,
              "time": 0.8571420000000001,
              "value": 0
            }
          ]
        },
        "pitchBends": [],
        "instrument": {
          "family": "piano",
          "name": "acoustic grand piano",
          "number": 0
        },
        "name": "Piano",
        "notes": [
          {
            "duration": 0.43705313437500015,
            "durationTicks": 979,
            "midi": 64,
            "name": "E4",
            "ticks": 1920,
            "time": 0.8571420000000001,
            "velocity": 0.6377952755905512
          },
          {
            "duration": 0.21785692499999998,
            "durationTicks": 488,
            "midi": 69,
            "name": "A4",
            "ticks": 2880,
            "time": 1.285713,
            "velocity": 0.6535433070866141
          },
          {
            "duration": 0.42857100000000004,
            "durationTicks": 960,
            "midi": 33,
            "name": "A1",
            "ticks": 2880,
            "time": 1.285713,
            "velocity": 0.6377952755905512
          },
          {
            "duration": 0.21785692499999998,
            "durationTicks": 488,
            "midi": 71,
            "name": "B4",
            "ticks": 3360,
            "time": 1.4999985000000002,
            "velocity": 0.6299212598425197
          },
          {
            "duration": 0.4066960218750002,
            "durationTicks": 911,
            "midi": 72,
            "name": "C5",
            "ticks": 3840,
            "time": 1.7142840000000001,
            "velocity": 0.6377952755905512
          },
          {
            "duration": 0.4285709999999998,
            "durationTicks": 960,
            "midi": 57,
            "name": "A3",
            "ticks": 3840,
            "time": 1.7142840000000001,
            "velocity": 0.6456692913385826
          },
          {
            "duration": 0.4285709999999998,
            "durationTicks": 960,
            "midi": 60,
            "name": "C4",
            "ticks": 3840,
            "time": 1.7142840000000001,
            "velocity": 0.6456692913385826
          },
          {
            "duration": 0.4285709999999998,
            "durationTicks": 960,
            "midi": 64,
            "name": "E4",
            "ticks": 3840,
            "time": 1.7142840000000001,
            "velocity": 0.6456692913385826
          },
          {
            "duration": 0.42857100000000026,
            "durationTicks": 960,
            "midi": 72,
            "name": "C5",
            "ticks": 4800,
            "time": 2.142855,
            "velocity": 0.6220472440944882
          },
          {
            "duration": 0.42857100000000026,
            "durationTicks": 960,
            "midi": 57,
            "name": "A3",
            "ticks": 4800,
            "time": 2.142855,
            "velocity": 0.6299212598425197
          },
          {
            "duration": 0.42857100000000026,
            "durationTicks": 960,
            "midi": 60,
            "name": "C4",
            "ticks": 4800,
            "time": 2.142855,
            "velocity": 0.6299212598425197
          },
          {
            "duration": 0.42857100000000026,
            "durationTicks": 960,
            "midi": 64,
            "name": "E4",
            "ticks": 4800,
            "time": 2.142855,
            "velocity": 0.6299212598425197
          },
          {
            "duration": 0.21785692499999998,
            "durationTicks": 488,
            "midi": 74,
            "name": "D5",
            "ticks": 5760,
            "time": 2.571426,
            "velocity": 0.6771653543307087
          },
          {
            "duration": 0.42857100000000026,
            "durationTicks": 960,
            "midi": 38,
            "name": "D2",
            "ticks": 5760,
            "time": 2.571426,
            "velocity": 0.5984251968503937
          },
          {
            "duration": 0.21785692500000042,
            "durationTicks": 488,
            "midi": 76,
            "name": "E5",
            "ticks": 6240,
            "time": 2.7857115,
            "velocity": 0.6614173228346457
          },
          {
            "duration": 0.8138384718749996,
            "durationTicks": 1823,
            "midi": 77,
            "name": "F5",
            "ticks": 6720,
            "time": 2.9999970000000005,
            "velocity": 0.6614173228346457
          },
          {
            "duration": 0.4285709999999998,
            "durationTicks": 960,
            "midi": 57,
            "name": "A3",
            "ticks": 6720,
            "time": 2.9999970000000005,
            "velocity": 0.6614173228346457
          },
          {
            "duration": 0.4285709999999998,
            "durationTicks": 960,
            "midi": 62,
            "name": "D4",
            "ticks": 6720,
            "time": 2.9999970000000005,
            "velocity": 0.6614173228346457
          },
          {
            "duration": 0.4285709999999998,
            "durationTicks": 960,
            "midi": 65,
            "name": "F4",
            "ticks": 6720,
            "time": 2.9999970000000005,
            "velocity": 0.6614173228346457
          },
          {
            "duration": 0.4285709999999998,
            "durationTicks": 960,
            "midi": 57,
            "name": "A3",
            "ticks": 7680,
            "time": 3.4285680000000003,
            "velocity": 0.6377952755905512
          },
          {
            "duration": 0.4285709999999998,
            "durationTicks": 960,
            "midi": 62,
            "name": "D4",
            "ticks": 7680,
            "time": 3.4285680000000003,
            "velocity": 0.6377952755905512
          },
          {
            "duration": 0.4285709999999998,
            "durationTicks": 960,
            "midi": 65,
            "name": "F4",
            "ticks": 7680,
            "time": 3.4285680000000003,
            "velocity": 0.6377952755905512
          },
          {
            "duration": 0.21785692500000042,
            "durationTicks": 488,
            "midi": 71,
            "name": "B4",
            "ticks": 8640,
            "time": 3.857139,
            "velocity": 0.5984251968503937
          },
          {
            "duration": 0.4285709999999998,
            "durationTicks": 960,
            "midi": 43,
            "name": "G2",
            "ticks": 8640,
            "time": 3.857139,
            "velocity": 0.5905511811023622
          },
          {
            "duration": 0.21785692500000042,
            "durationTicks": 488,
            "midi": 72,
            "name": "C5",
            "ticks": 9120,
            "time": 4.0714245,
            "velocity": 0.5826771653543307
          },
          {
            "duration": 0.21785692500000042,
            "durationTicks": 488,
            "midi": 74,
            "name": "D5",
            "ticks": 9600,
            "time": 4.28571,
            "velocity": 0.6141732283464567
          },
          {
            "duration": 0.4285710000000007,
            "durationTicks": 960,
            "midi": 55,
            "name": "G3",
            "ticks": 9600,
            "time": 4.28571,
            "velocity": 0.6614173228346457
          },
          {
            "duration": 0.4285710000000007,
            "durationTicks": 960,
            "midi": 59,
            "name": "B3",
            "ticks": 9600,
            "time": 4.28571,
            "velocity": 0.6614173228346457
          },
          {
            "duration": 0.4285710000000007,
            "durationTicks": 960,
            "midi": 65,
            "name": "F4",
            "ticks": 9600,
            "time": 4.28571,
            "velocity": 0.6614173228346457
          },
          {
            "duration": 0.21785692499999953,
            "durationTicks": 488,
            "midi": 81,
            "name": "A5",
            "ticks": 10080,
            "time": 4.499995500000001,
            "velocity": 0.6929133858267716
          },
          {
            "duration": 0.21785692499999953,
            "durationTicks": 488,
            "midi": 79,
            "name": "G5",
            "ticks": 10560,
            "time": 4.714281000000001,
            "velocity": 0.6614173228346457
          },
          {
            "duration": 0.4285709999999998,
            "durationTicks": 960,
            "midi": 55,
            "name": "G3",
            "ticks": 10560,
            "time": 4.714281000000001,
            "velocity": 0.6377952755905512
          },
          {
            "duration": 0.4285709999999998,
            "durationTicks": 960,
            "midi": 59,
            "name": "B3",
            "ticks": 10560,
            "time": 4.714281000000001,
            "velocity": 0.6377952755905512
          },
          {
            "duration": 0.4285709999999998,
            "durationTicks": 960,
            "midi": 65,
            "name": "F4",
            "ticks": 10560,
            "time": 4.714281000000001,
            "velocity": 0.6377952755905512
          },
          {
            "duration": 0.20267836875,
            "durationTicks": 454,
            "midi": 77,
            "name": "F5",
            "ticks": 11040,
            "time": 4.9285665000000005,
            "velocity": 0.6141732283464567
          },
          {
            "duration": 0.053571374999999755,
            "durationTicks": 120,
            "midi": 76,
            "name": "E5",
            "ticks": 11520,
            "time": 5.142852,
            "velocity": 0.6220472440944882
          },
          {
            "duration": 0.4285709999999998,
            "durationTicks": 960,
            "midi": 48,
            "name": "C3",
            "ticks": 11520,
            "time": 5.142852,
            "velocity": 0.5748031496062992
          },
          {
            "duration": 0.05357137500000064,
            "durationTicks": 120,
            "midi": 77,
            "name": "F5",
            "ticks": 11640,
            "time": 5.196423375,
            "velocity": 0.6062992125984252
          },
          {
            "duration": 0.10892846249999977,
            "durationTicks": 244,
            "midi": 76,
            "name": "E5",
            "ticks": 11760,
            "time": 5.249994750000001,
            "velocity": 0.5905511811023622
          },
          {
            "duration": 0.21785692499999953,
            "durationTicks": 488,
            "midi": 75,
            "name": "D#5",
            "ticks": 12000,
            "time": 5.3571375,
            "velocity": 0.5748031496062992
          },
          {
            "duration": 0.813838471875,
            "durationTicks": 1823,
            "midi": 76,
            "name": "E5",
            "ticks": 12480,
            "time": 5.571423,
            "velocity": 0.5984251968503937
          },
          {
            "duration": 0.4285710000000007,
            "durationTicks": 960,
            "midi": 55,
            "name": "G3",
            "ticks": 12480,
            "time": 5.571423,
            "velocity": 0.6535433070866141
          },
          {
            "duration": 0.4285710000000007,
            "durationTicks": 960,
            "midi": 60,
            "name": "C4",
            "ticks": 12480,
            "time": 5.571423,
            "velocity": 0.6535433070866141
          },
          {
            "duration": 0.4285710000000007,
            "durationTicks": 960,
            "midi": 64,
            "name": "E4",
            "ticks": 12480,
            "time": 5.571423,
            "velocity": 0.6535433070866141
          },
          {
            "duration": 0.4285709999999998,
            "durationTicks": 960,
            "midi": 55,
            "name": "G3",
            "ticks": 13440,
            "time": 5.999994000000001,
            "velocity": 0.6377952755905512
          },
          {
            "duration": 0.4285709999999998,
            "durationTicks": 960,
            "midi": 60,
            "name": "C4",
            "ticks": 13440,
            "time": 5.999994000000001,
            "velocity": 0.6377952755905512
          },
          {
            "duration": 0.4285709999999998,
            "durationTicks": 960,
            "midi": 64,
            "name": "E4",
            "ticks": 13440,
            "time": 5.999994000000001,
            "velocity": 0.6377952755905512
          },
          {
            "duration": 0.21785692499999953,
            "durationTicks": 488,
            "midi": 69,
            "name": "A4",
            "ticks": 14400,
            "time": 6.428565000000001,
            "velocity": 0.5669291338582677
          },
          {
            "duration": 0.4285709999999998,
            "durationTicks": 960,
            "midi": 45,
            "name": "A2",
            "ticks": 14400,
            "time": 6.428565000000001,
            "velocity": 0.5748031496062992
          },
          {
            "duration": 0.21785692499999953,
            "durationTicks": 488,
            "midi": 71,
            "name": "B4",
            "ticks": 14880,
            "time": 6.642850500000001,
            "velocity": 0.5748031496062992
          },
          {
            "duration": 0.40669602187499976,
            "durationTicks": 911,
            "midi": 72,
            "name": "C5",
            "ticks": 15360,
            "time": 6.857136000000001,
            "velocity": 0.5984251968503937
          },
          {
            "duration": 0.4285709999999998,
            "durationTicks": 960,
            "midi": 57,
            "name": "A3",
            "ticks": 15360,
            "time": 6.857136000000001,
            "velocity": 0.6614173228346457
          },
          {
            "duration": 0.4285709999999998,
            "durationTicks": 960,
            "midi": 60,
            "name": "C4",
            "ticks": 15360,
            "time": 6.857136000000001,
            "velocity": 0.6614173228346457
          },
          {
            "duration": 0.4285709999999998,
            "durationTicks": 960,
            "midi": 64,
            "name": "E4",
            "ticks": 15360,
            "time": 6.857136000000001,
            "velocity": 0.6614173228346457
          },
          {
            "duration": 0.4285709999999998,
            "durationTicks": 960,
            "midi": 72,
            "name": "C5",
            "ticks": 16320,
            "time": 7.285707,
            "velocity": 0.6062992125984252
          },
          {
            "duration": 0.4285709999999998,
            "durationTicks": 960,
            "midi": 57,
            "name": "A3",
            "ticks": 16320,
            "time": 7.285707,
            "velocity": 0.6377952755905512
          },
          {
            "duration": 0.4285709999999998,
            "durationTicks": 960,
            "midi": 60,
            "name": "C4",
            "ticks": 16320,
            "time": 7.285707,
            "velocity": 0.6377952755905512
          },
          {
            "duration": 0.4285709999999998,
            "durationTicks": 960,
            "midi": 64,
            "name": "E4",
            "ticks": 16320,
            "time": 7.285707,
            "velocity": 0.6377952755905512
          },
          {
            "duration": 0.21785692500000042,
            "durationTicks": 488,
            "midi": 74,
            "name": "D5",
            "ticks": 17280,
            "time": 7.714278,
            "velocity": 0.6692913385826772
          },
          {
            "duration": 0.4285709999999998,
            "durationTicks": 960,
            "midi": 38,
            "name": "D2",
            "ticks": 17280,
            "time": 7.714278,
            "velocity": 0.5748031496062992
          },
          {
            "duration": 0.21785692499999953,
            "durationTicks": 488,
            "midi": 76,
            "name": "E5",
            "ticks": 17760,
            "time": 7.928563500000001,
            "velocity": 0.6535433070866141
          },
          {
            "duration": 0.813838471875,
            "durationTicks": 1823,
            "midi": 77,
            "name": "F5",
            "ticks": 18240,
            "time": 8.142849,
            "velocity": 0.6535433070866141
          },
          {
            "duration": 0.4285709999999998,
            "durationTicks": 960,
            "midi": 57,
            "name": "A3",
            "ticks": 18240,
            "time": 8.142849,
            "velocity": 0.6614173228346457
          },
          {
            "duration": 0.4285709999999998,
            "durationTicks": 960,
            "midi": 62,
            "name": "D4",
            "ticks": 18240,
            "time": 8.142849,
            "velocity": 0.6614173228346457
          },
          {
            "duration": 0.4285709999999998,
            "durationTicks": 960,
            "midi": 65,
            "name": "F4",
            "ticks": 18240,
            "time": 8.142849,
            "velocity": 0.6614173228346457
          },
          {
            "duration": 0.4285710000000016,
            "durationTicks": 960,
            "midi": 57,
            "name": "A3",
            "ticks": 19200,
            "time": 8.57142,
            "velocity": 0.6377952755905512
          },
          {
            "duration": 0.4285710000000016,
            "durationTicks": 960,
            "midi": 62,
            "name": "D4",
            "ticks": 19200,
            "time": 8.57142,
            "velocity": 0.6377952755905512
          },
          {
            "duration": 0.4285710000000016,
            "durationTicks": 960,
            "midi": 65,
            "name": "F4",
            "ticks": 19200,
            "time": 8.57142,
            "velocity": 0.6377952755905512
          },
          {
            "duration": 0.21785692499999953,
            "durationTicks": 488,
            "midi": 71,
            "name": "B4",
            "ticks": 20160,
            "time": 8.999991000000001,
            "velocity": 0.5984251968503937
          },
          {
            "duration": 0.4285709999999998,
            "durationTicks": 960,
            "midi": 43,
            "name": "G2",
            "ticks": 20160,
            "time": 8.999991000000001,
            "velocity": 0.5905511811023622
          },
          {
            "duration": 0.21785692499999953,
            "durationTicks": 488,
            "midi": 72,
            "name": "C5",
            "ticks": 20640,
            "time": 9.2142765,
            "velocity": 0.5826771653543307
          },
          {
            "duration": 0.21785692499999953,
            "durationTicks": 488,
            "midi": 74,
            "name": "D5",
            "ticks": 21120,
            "time": 9.428562000000001,
            "velocity": 0.6141732283464567
          },
          {
            "duration": 0.4285709999999998,
            "durationTicks": 960,
            "midi": 55,
            "name": "G3",
            "ticks": 21120,
            "time": 9.428562000000001,
            "velocity": 0.6614173228346457
          },
          {
            "duration": 0.4285709999999998,
            "durationTicks": 960,
            "midi": 59,
            "name": "B3",
            "ticks": 21120,
            "time": 9.428562000000001,
            "velocity": 0.6614173228346457
          },
          {
            "duration": 0.4285709999999998,
            "durationTicks": 960,
            "midi": 65,
            "name": "F4",
            "ticks": 21120,
            "time": 9.428562000000001,
            "velocity": 0.6614173228346457
          },
          {
            "duration": 0.21785692499999953,
            "durationTicks": 488,
            "midi": 81,
            "name": "A5",
            "ticks": 21600,
            "time": 9.6428475,
            "velocity": 0.6929133858267716
          },
          {
            "duration": 0.21785692499999953,
            "durationTicks": 488,
            "midi": 79,
            "name": "G5",
            "ticks": 22080,
            "time": 9.857133000000001,
            "velocity": 0.6614173228346457
          },
          {
            "duration": 0.4285709999999998,
            "durationTicks": 960,
            "midi": 55,
            "name": "G3",
            "ticks": 22080,
            "time": 9.857133000000001,
            "velocity": 0.6377952755905512
          },
          {
            "duration": 0.4285709999999998,
            "durationTicks": 960,
            "midi": 62,
            "name": "D4",
            "ticks": 22080,
            "time": 9.857133000000001,
            "velocity": 0.6377952755905512
          },
          {
            "duration": 0.4285709999999998,
            "durationTicks": 960,
            "midi": 65,
            "name": "F4",
            "ticks": 22080,
            "time": 9.857133000000001,
            "velocity": 0.6377952755905512
          },
          {
            "duration": 0.2178569250000013,
            "durationTicks": 488,
            "midi": 71,
            "name": "B4",
            "ticks": 22560,
            "time": 10.0714185,
            "velocity": 0.5196850393700787
          },
          {
            "duration": 0.40669602187499976,
            "durationTicks": 911,
            "midi": 72,
            "name": "C5",
            "ticks": 23040,
            "time": 10.285704,
            "velocity": 0.5748031496062992
          },
          {
            "duration": 0.4285709999999998,
            "durationTicks": 960,
            "midi": 48,
            "name": "C3",
            "ticks": 23040,
            "time": 10.285704,
            "velocity": 0.5748031496062992
          },
          {
            "duration": 0.4285709999999998,
            "durationTicks": 960,
            "midi": 55,
            "name": "G3",
            "ticks": 24000,
            "time": 10.714275,
            "velocity": 0.6535433070866141
          },
          {
            "duration": 0.4285709999999998,
            "durationTicks": 960,
            "midi": 60,
            "name": "C4",
            "ticks": 24000,
            "time": 10.714275,
            "velocity": 0.6535433070866141
          },
          {
            "duration": 0.4285709999999998,
            "durationTicks": 960,
            "midi": 64,
            "name": "E4",
            "ticks": 24000,
            "time": 10.714275,
            "velocity": 0.6535433070866141
          },
          {
            "duration": 0.4285709999999998,
            "durationTicks": 960,
            "midi": 64,
            "name": "E4",
            "ticks": 24960,
            "time": 11.142846,
            "velocity": 0.5196850393700787
          },
          {
            "duration": 0.2142855000000008,
            "durationTicks": 480,
            "midi": 69,
            "name": "A4",
            "ticks": 25920,
            "time": 11.571417,
            "velocity": 0.6220472440944882
          },
          {
            "duration": 0.4285710000000016,
            "durationTicks": 960,
            "midi": 33,
            "name": "A1",
            "ticks": 25920,
            "time": 11.571417,
            "velocity": 0.5984251968503937
          },
          {
            "duration": 0.2142855000000008,
            "durationTicks": 480,
            "midi": 71,
            "name": "B4",
            "ticks": 26400,
            "time": 11.785702500000001,
            "velocity": 0.6220472440944882
          },
          {
            "duration": 0.4285709999999998,
            "durationTicks": 960,
            "midi": 72,
            "name": "C5",
            "ticks": 26880,
            "time": 11.999988000000002,
            "velocity": 0.6299212598425197
          },
          {
            "duration": 0.4285709999999998,
            "durationTicks": 960,
            "midi": 57,
            "name": "A3",
            "ticks": 26880,
            "time": 11.999988000000002,
            "velocity": 0.6614173228346457
          },
          {
            "duration": 0.4285709999999998,
            "durationTicks": 960,
            "midi": 60,
            "name": "C4",
            "ticks": 26880,
            "time": 11.999988000000002,
            "velocity": 0.6614173228346457
          },
          {
            "duration": 0.4285709999999998,
            "durationTicks": 960,
            "midi": 64,
            "name": "E4",
            "ticks": 26880,
            "time": 11.999988000000002,
            "velocity": 0.6614173228346457
          },
          {
            "duration": 0.4285709999999998,
            "durationTicks": 960,
            "midi": 72,
            "name": "C5",
            "ticks": 27840,
            "time": 12.428559000000002,
            "velocity": 0.6220472440944882
          },
          {
            "duration": 0.4285709999999998,
            "durationTicks": 960,
            "midi": 57,
            "name": "A3",
            "ticks": 27840,
            "time": 12.428559000000002,
            "velocity": 0.6377952755905512
          },
          {
            "duration": 0.4285709999999998,
            "durationTicks": 960,
            "midi": 60,
            "name": "C4",
            "ticks": 27840,
            "time": 12.428559000000002,
            "velocity": 0.6377952755905512
          },
          {
            "duration": 0.4285709999999998,
            "durationTicks": 960,
            "midi": 64,
            "name": "E4",
            "ticks": 27840,
            "time": 12.428559000000002,
            "velocity": 0.6377952755905512
          },
          {
            "duration": 0.21428549999999902,
            "durationTicks": 480,
            "midi": 74,
            "name": "D5",
            "ticks": 28800,
            "time": 12.857130000000002,
            "velocity": 0.6771653543307087
          },
          {
            "duration": 0.4285709999999998,
            "durationTicks": 960,
            "midi": 38,
            "name": "D2",
            "ticks": 28800,
            "time": 12.857130000000002,
            "velocity": 0.5984251968503937
          },
          {
            "duration": 0.2142855000000008,
            "durationTicks": 480,
            "midi": 76,
            "name": "E5",
            "ticks": 29280,
            "time": 13.0714155,
            "velocity": 0.6614173228346457
          },
          {
            "duration": 0.8571419999999996,
            "durationTicks": 1920,
            "midi": 77,
            "name": "F5",
            "ticks": 29760,
            "time": 13.285701000000001,
            "velocity": 0.6614173228346457
          },
          {
            "duration": 0.4285709999999998,
            "durationTicks": 960,
            "midi": 57,
            "name": "A3",
            "ticks": 29760,
            "time": 13.285701000000001,
            "velocity": 0.6614173228346457
          },
          {
            "duration": 0.4285709999999998,
            "durationTicks": 960,
            "midi": 62,
            "name": "D4",
            "ticks": 29760,
            "time": 13.285701000000001,
            "velocity": 0.6614173228346457
          },
          {
            "duration": 0.4285709999999998,
            "durationTicks": 960,
            "midi": 65,
            "name": "F4",
            "ticks": 29760,
            "time": 13.285701000000001,
            "velocity": 0.6614173228346457
          },
          {
            "duration": 0.4285709999999998,
            "durationTicks": 960,
            "midi": 57,
            "name": "A3",
            "ticks": 30720,
            "time": 13.714272000000001,
            "velocity": 0.6377952755905512
          },
          {
            "duration": 0.4285709999999998,
            "durationTicks": 960,
            "midi": 62,
            "name": "D4",
            "ticks": 30720,
            "time": 13.714272000000001,
            "velocity": 0.6377952755905512
          },
          {
            "duration": 0.4285709999999998,
            "durationTicks": 960,
            "midi": 65,
            "name": "F4",
            "ticks": 30720,
            "time": 13.714272000000001,
            "velocity": 0.6377952755905512
          },
          {
            "duration": 0.2142855000000008,
            "durationTicks": 480,
            "midi": 71,
            "name": "B4",
            "ticks": 31680,
            "time": 14.142843000000001,
            "velocity": 0.5984251968503937
          },
          {
            "duration": 0.4285709999999998,
            "durationTicks": 960,
            "midi": 43,
            "name": "G2",
            "ticks": 31680,
            "time": 14.142843000000001,
            "velocity": 0.5905511811023622
          },
          {
            "duration": 0.21428549999999902,
            "durationTicks": 480,
            "midi": 72,
            "name": "C5",
            "ticks": 32160,
            "time": 14.357128500000002,
            "velocity": 0.5826771653543307
          },
          {
            "duration": 0.2142855000000008,
            "durationTicks": 480,
            "midi": 74,
            "name": "D5",
            "ticks": 32640,
            "time": 14.571414,
            "velocity": 0.6141732283464567
          },
          {
            "duration": 0.4285709999999998,
            "durationTicks": 960,
            "midi": 55,
            "name": "G3",
            "ticks": 32640,
            "time": 14.571414,
            "velocity": 0.6614173228346457
          },
          {
            "duration": 0.4285709999999998,
            "durationTicks": 960,
            "midi": 59,
            "name": "B3",
            "ticks": 32640,
            "time": 14.571414,
            "velocity": 0.6614173228346457
          },
          {
            "duration": 0.4285709999999998,
            "durationTicks": 960,
            "midi": 65,
            "name": "F4",
            "ticks": 32640,
            "time": 14.571414,
            "velocity": 0.6614173228346457
          },
          {
            "duration": 0.21428549999999902,
            "durationTicks": 480,
            "midi": 81,
            "name": "A5",
            "ticks": 33120,
            "time": 14.785699500000002,
            "velocity": 0.6929133858267716
          },
          {
            "duration": 0.2142855000000008,
            "durationTicks": 480,
            "midi": 79,
            "name": "G5",
            "ticks": 33600,
            "time": 14.999985,
            "velocity": 0.6614173228346457
          },
          {
            "duration": 0.4285709999999998,
            "durationTicks": 960,
            "midi": 55,
            "name": "G3",
            "ticks": 33600,
            "time": 14.999985,
            "velocity": 0.6377952755905512
          },
          {
            "duration": 0.4285709999999998,
            "durationTicks": 960,
            "midi": 59,
            "name": "B3",
            "ticks": 33600,
            "time": 14.999985,
            "velocity": 0.6377952755905512
          },
          {
            "duration": 0.4285709999999998,
            "durationTicks": 960,
            "midi": 65,
            "name": "F4",
            "ticks": 33600,
            "time": 14.999985,
            "velocity": 0.6377952755905512
          },
          {
            "duration": 0.21428549999999902,
            "durationTicks": 480,
            "midi": 77,
            "name": "F5",
            "ticks": 34080,
            "time": 15.214270500000001,
            "velocity": 0.6141732283464567
          },
          {
            "duration": 0.05357137500000064,
            "durationTicks": 120,
            "midi": 76,
            "name": "E5",
            "ticks": 34560,
            "time": 15.428556,
            "velocity": 0.6220472440944882
          },
          {
            "duration": 0.4285710000000016,
            "durationTicks": 960,
            "midi": 48,
            "name": "C3",
            "ticks": 34560,
            "time": 15.428556,
            "velocity": 0.5748031496062992
          },
          {
            "duration": 0.05357137500000064,
            "durationTicks": 120,
            "midi": 77,
            "name": "F5",
            "ticks": 34680,
            "time": 15.482127375000001,
            "velocity": 0.6062992125984252
          },
          {
            "duration": 0.10714274999999951,
            "durationTicks": 240,
            "midi": 76,
            "name": "E5",
            "ticks": 34800,
            "time": 15.535698750000002,
            "velocity": 0.5905511811023622
          },
          {
            "duration": 0.2142855000000008,
            "durationTicks": 480,
            "midi": 75,
            "name": "D#5",
            "ticks": 35040,
            "time": 15.642841500000001,
            "velocity": 0.5748031496062992
          },
          {
            "duration": 0.8571419999999996,
            "durationTicks": 1920,
            "midi": 76,
            "name": "E5",
            "ticks": 35520,
            "time": 15.857127000000002,
            "velocity": 0.5984251968503937
          },
          {
            "duration": 0.42857099999999804,
            "durationTicks": 960,
            "midi": 55,
            "name": "G3",
            "ticks": 35520,
            "time": 15.857127000000002,
            "velocity": 0.6535433070866141
          },
          {
            "duration": 0.42857099999999804,
            "durationTicks": 960,
            "midi": 60,
            "name": "C4",
            "ticks": 35520,
            "time": 15.857127000000002,
            "velocity": 0.6535433070866141
          },
          {
            "duration": 0.42857099999999804,
            "durationTicks": 960,
            "midi": 64,
            "name": "E4",
            "ticks": 35520,
            "time": 15.857127000000002,
            "velocity": 0.6535433070866141
          },
          {
            "duration": 0.4285710000000016,
            "durationTicks": 960,
            "midi": 55,
            "name": "G3",
            "ticks": 36480,
            "time": 16.285698,
            "velocity": 0.6377952755905512
          },
          {
            "duration": 0.4285710000000016,
            "durationTicks": 960,
            "midi": 60,
            "name": "C4",
            "ticks": 36480,
            "time": 16.285698,
            "velocity": 0.6377952755905512
          },
          {
            "duration": 0.4285710000000016,
            "durationTicks": 960,
            "midi": 64,
            "name": "E4",
            "ticks": 36480,
            "time": 16.285698,
            "velocity": 0.6377952755905512
          },
          {
            "duration": 0.21428549999999902,
            "durationTicks": 480,
            "midi": 72,
            "name": "C5",
            "ticks": 37440,
            "time": 16.714269,
            "velocity": 0.5905511811023622
          },
          {
            "duration": 0.42857099999999804,
            "durationTicks": 960,
            "midi": 45,
            "name": "A2",
            "ticks": 37440,
            "time": 16.714269,
            "velocity": 0.5748031496062992
          },
          {
            "duration": 0.21428549999999902,
            "durationTicks": 480,
            "midi": 74,
            "name": "D5",
            "ticks": 37920,
            "time": 16.9285545,
            "velocity": 0.5905511811023622
          },
          {
            "duration": 0.4285710000000016,
            "durationTicks": 960,
            "midi": 76,
            "name": "E5",
            "ticks": 38400,
            "time": 17.14284,
            "velocity": 0.6220472440944882
          },
          {
            "duration": 0.4285710000000016,
            "durationTicks": 960,
            "midi": 57,
            "name": "A3",
            "ticks": 38400,
            "time": 17.14284,
            "velocity": 0.6614173228346457
          },
          {
            "duration": 0.4285710000000016,
            "durationTicks": 960,
            "midi": 60,
            "name": "C4",
            "ticks": 38400,
            "time": 17.14284,
            "velocity": 0.6614173228346457
          },
          {
            "duration": 0.4285710000000016,
            "durationTicks": 960,
            "midi": 64,
            "name": "E4",
            "ticks": 38400,
            "time": 17.14284,
            "velocity": 0.6614173228346457
          },
          {
            "duration": 0.4285710000000016,
            "durationTicks": 960,
            "midi": 76,
            "name": "E5",
            "ticks": 39360,
            "time": 17.571411,
            "velocity": 0.6220472440944882
          },
          {
            "duration": 0.4285710000000016,
            "durationTicks": 960,
            "midi": 57,
            "name": "A3",
            "ticks": 39360,
            "time": 17.571411,
            "velocity": 0.6377952755905512
          },
          {
            "duration": 0.4285710000000016,
            "durationTicks": 960,
            "midi": 60,
            "name": "C4",
            "ticks": 39360,
            "time": 17.571411,
            "velocity": 0.6377952755905512
          },
          {
            "duration": 0.4285710000000016,
            "durationTicks": 960,
            "midi": 64,
            "name": "E4",
            "ticks": 39360,
            "time": 17.571411,
            "velocity": 0.6377952755905512
          },
          {
            "duration": 0.21428549999999902,
            "durationTicks": 480,
            "midi": 77,
            "name": "F5",
            "ticks": 40320,
            "time": 17.999982000000003,
            "velocity": 0.6614173228346457
          },
          {
            "duration": 0.42857099999999804,
            "durationTicks": 960,
            "midi": 38,
            "name": "D2",
            "ticks": 40320,
            "time": 17.999982000000003,
            "velocity": 0.5748031496062992
          },
          {
            "duration": 0.21428549999999902,
            "durationTicks": 480,
            "midi": 79,
            "name": "G5",
            "ticks": 40800,
            "time": 18.214267500000002,
            "velocity": 0.6456692913385826
          },
          {
            "duration": 0.8571419999999996,
            "durationTicks": 1920,
            "midi": 81,
            "name": "A5",
            "ticks": 41280,
            "time": 18.428553,
            "velocity": 0.6614173228346457
          },
          {
            "duration": 0.4285710000000016,
            "durationTicks": 960,
            "midi": 57,
            "name": "A3",
            "ticks": 41280,
            "time": 18.428553,
            "velocity": 0.6614173228346457
          },
          {
            "duration": 0.4285710000000016,
            "durationTicks": 960,
            "midi": 62,
            "name": "D4",
            "ticks": 41280,
            "time": 18.428553,
            "velocity": 0.6614173228346457
          },
          {
            "duration": 0.4285710000000016,
            "durationTicks": 960,
            "midi": 65,
            "name": "F4",
            "ticks": 41280,
            "time": 18.428553,
            "velocity": 0.6614173228346457
          },
          {
            "duration": 0.42857099999999804,
            "durationTicks": 960,
            "midi": 57,
            "name": "A3",
            "ticks": 42240,
            "time": 18.857124000000002,
            "velocity": 0.6377952755905512
          },
          {
            "duration": 0.42857099999999804,
            "durationTicks": 960,
            "midi": 62,
            "name": "D4",
            "ticks": 42240,
            "time": 18.857124000000002,
            "velocity": 0.6377952755905512
          },
          {
            "duration": 0.42857099999999804,
            "durationTicks": 960,
            "midi": 65,
            "name": "F4",
            "ticks": 42240,
            "time": 18.857124000000002,
            "velocity": 0.6377952755905512
          },
          {
            "duration": 0.4285710000000016,
            "durationTicks": 960,
            "midi": 79,
            "name": "G5",
            "ticks": 43200,
            "time": 19.285695,
            "velocity": 0.6377952755905512
          },
          {
            "duration": 0.4285710000000016,
            "durationTicks": 960,
            "midi": 43,
            "name": "G2",
            "ticks": 43200,
            "time": 19.285695,
            "velocity": 0.5905511811023622
          },
          {
            "duration": 0.21428549999999902,
            "durationTicks": 480,
            "midi": 78,
            "name": "F#5",
            "ticks": 44160,
            "time": 19.714266000000002,
            "velocity": 0.5905511811023622
          },
          {
            "duration": 0.42857099999999804,
            "durationTicks": 960,
            "midi": 55,
            "name": "G3",
            "ticks": 44160,
            "time": 19.714266000000002,
            "velocity": 0.6614173228346457
          },
          {
            "duration": 0.42857099999999804,
            "durationTicks": 960,
            "midi": 59,
            "name": "B3",
            "ticks": 44160,
            "time": 19.714266000000002,
            "velocity": 0.6614173228346457
          },
          {
            "duration": 0.42857099999999804,
            "durationTicks": 960,
            "midi": 65,
            "name": "F4",
            "ticks": 44160,
            "time": 19.714266000000002,
            "velocity": 0.6614173228346457
          },
          {
            "duration": 0.21428549999999902,
            "durationTicks": 480,
            "midi": 79,
            "name": "G5",
            "ticks": 44640,
            "time": 19.9285515,
            "velocity": 0.6062992125984252
          },
          {
            "duration": 0.21428550000000257,
            "durationTicks": 480,
            "midi": 86,
            "name": "D6",
            "ticks": 45120,
            "time": 20.142837,
            "velocity": 0.6771653543307087
          },
          {
            "duration": 0.4285710000000016,
            "durationTicks": 960,
            "midi": 55,
            "name": "G3",
            "ticks": 45120,
            "time": 20.142837,
            "velocity": 0.6377952755905512
          },
          {
            "duration": 0.4285710000000016,
            "durationTicks": 960,
            "midi": 59,
            "name": "B3",
            "ticks": 45120,
            "time": 20.142837,
            "velocity": 0.6377952755905512
          },
          {
            "duration": 0.4285710000000016,
            "durationTicks": 960,
            "midi": 65,
            "name": "F4",
            "ticks": 45120,
            "time": 20.142837,
            "velocity": 0.6377952755905512
          },
          {
            "duration": 0.21428549999999902,
            "durationTicks": 480,
            "midi": 77,
            "name": "F5",
            "ticks": 45600,
            "time": 20.357122500000003,
            "velocity": 0.5354330708661418
          },
          {
            "duration": 1.2857130000000012,
            "durationTicks": 2880,
            "midi": 76,
            "name": "E5",
            "ticks": 46080,
            "time": 20.571408,
            "velocity": 0.5669291338582677
          },
          {
            "duration": 0.4285710000000016,
            "durationTicks": 960,
            "midi": 48,
            "name": "C3",
            "ticks": 46080,
            "time": 20.571408,
            "velocity": 0.5748031496062992
          },
          {
            "duration": 0.42857099999999804,
            "durationTicks": 960,
            "midi": 55,
            "name": "G3",
            "ticks": 47040,
            "time": 20.999979000000003,
            "velocity": 0.6535433070866141
          },
          {
            "duration": 0.42857099999999804,
            "durationTicks": 960,
            "midi": 60,
            "name": "C4",
            "ticks": 47040,
            "time": 20.999979000000003,
            "velocity": 0.6535433070866141
          },
          {
            "duration": 0.42857099999999804,
            "durationTicks": 960,
            "midi": 64,
            "name": "E4",
            "ticks": 47040,
            "time": 20.999979000000003,
            "velocity": 0.6535433070866141
          },
          {
            "duration": 0.4285710000000016,
            "durationTicks": 960,
            "midi": 55,
            "name": "G3",
            "ticks": 48000,
            "time": 21.42855,
            "velocity": 0.6377952755905512
          },
          {
            "duration": 0.4285710000000016,
            "durationTicks": 960,
            "midi": 60,
            "name": "C4",
            "ticks": 48000,
            "time": 21.42855,
            "velocity": 0.6377952755905512
          },
          {
            "duration": 0.4285710000000016,
            "durationTicks": 960,
            "midi": 64,
            "name": "E4",
            "ticks": 48000,
            "time": 21.42855,
            "velocity": 0.6377952755905512
          },
          {
            "duration": 0.21785692499999953,
            "durationTicks": 488,
            "midi": 76,
            "name": "E5",
            "ticks": 48960,
            "time": 21.857121000000003,
            "velocity": 0.6220472440944882
          },
          {
            "duration": 0.42857099999999804,
            "durationTicks": 960,
            "midi": 40,
            "name": "E2",
            "ticks": 48960,
            "time": 21.857121000000003,
            "velocity": 0.5748031496062992
          },
          {
            "duration": 0.21785692499999953,
            "durationTicks": 488,
            "midi": 78,
            "name": "F#5",
            "ticks": 49440,
            "time": 22.071406500000002,
            "velocity": 0.6062992125984252
          },
          {
            "duration": 0.21785692499999953,
            "durationTicks": 488,
            "midi": 80,
            "name": "G#5",
            "ticks": 49920,
            "time": 22.285692,
            "velocity": 0.6299212598425197
          },
          {
            "duration": 0.4285710000000016,
            "durationTicks": 960,
            "midi": 52,
            "name": "E3",
            "ticks": 49920,
            "time": 22.285692,
            "velocity": 0.6456692913385826
          },
          {
            "duration": 0.4285710000000016,
            "durationTicks": 960,
            "midi": 59,
            "name": "B3",
            "ticks": 49920,
            "time": 22.285692,
            "velocity": 0.6456692913385826
          },
          {
            "duration": 0.4285710000000016,
            "durationTicks": 960,
            "midi": 62,
            "name": "D4",
            "ticks": 49920,
            "time": 22.285692,
            "velocity": 0.6456692913385826
          },
          {
            "duration": 0.21785692499999953,
            "durationTicks": 488,
            "midi": 81,
            "name": "A5",
            "ticks": 50400,
            "time": 22.499977500000004,
            "velocity": 0.6377952755905512
          },
          {
            "duration": 0.21785692499999953,
            "durationTicks": 488,
            "midi": 83,
            "name": "B5",
            "ticks": 50880,
            "time": 22.714263000000003,
            "velocity": 0.6614173228346457
          },
          {
            "duration": 0.42857099999999804,
            "durationTicks": 960,
            "midi": 52,
            "name": "E3",
            "ticks": 50880,
            "time": 22.714263000000003,
            "velocity": 0.6299212598425197
          },
          {
            "duration": 0.42857099999999804,
            "durationTicks": 960,
            "midi": 56,
            "name": "G#3",
            "ticks": 50880,
            "time": 22.714263000000003,
            "velocity": 0.6299212598425197
          },
          {
            "duration": 0.42857099999999804,
            "durationTicks": 960,
            "midi": 62,
            "name": "D4",
            "ticks": 50880,
            "time": 22.714263000000003,
            "velocity": 0.6299212598425197
          },
          {
            "duration": 0.21785692499999953,
            "durationTicks": 488,
            "midi": 84,
            "name": "C6",
            "ticks": 51360,
            "time": 22.9285485,
            "velocity": 0.6614173228346457
          },
          {
            "duration": 0.05357137500000064,
            "durationTicks": 120,
            "midi": 83,
            "name": "B5",
            "ticks": 51840,
            "time": 23.142834,
            "velocity": 0.6692913385826772
          },
          {
            "duration": 0.4285710000000016,
            "durationTicks": 960,
            "midi": 45,
            "name": "A2",
            "ticks": 51840,
            "time": 23.142834,
            "velocity": 0.5826771653543307
          },
          {
            "duration": 0.05357137500000064,
            "durationTicks": 120,
            "midi": 84,
            "name": "C6",
            "ticks": 51960,
            "time": 23.196405375,
            "velocity": 0.6535433070866141
          },
          {
            "duration": 0.10892846249999977,
            "durationTicks": 244,
            "midi": 83,
            "name": "B5",
            "ticks": 52080,
            "time": 23.249976750000002,
            "velocity": 0.6299212598425197
          },
          {
            "duration": 0.21785692499999953,
            "durationTicks": 488,
            "midi": 81,
            "name": "A5",
            "ticks": 52320,
            "time": 23.357119500000003,
            "velocity": 0.5905511811023622
          },
          {
            "duration": 0.21785692499999953,
            "durationTicks": 488,
            "midi": 76,
            "name": "E5",
            "ticks": 52800,
            "time": 23.571405000000002,
            "velocity": 0.5196850393700787
          },
          {
            "duration": 0.4285710000000016,
            "durationTicks": 960,
            "midi": 52,
            "name": "E3",
            "ticks": 52800,
            "time": 23.571405000000002,
            "velocity": 0.6456692913385826
          },
          {
            "duration": 0.4285710000000016,
            "durationTicks": 960,
            "midi": 57,
            "name": "A3",
            "ticks": 52800,
            "time": 23.571405000000002,
            "velocity": 0.6456692913385826
          },
          {
            "duration": 0.4285710000000016,
            "durationTicks": 960,
            "midi": 60,
            "name": "C4",
            "ticks": 52800,
            "time": 23.571405000000002,
            "velocity": 0.6456692913385826
          },
          {
            "duration": 0.20267836875000356,
            "durationTicks": 454,
            "midi": 83,
            "name": "B5",
            "ticks": 53280,
            "time": 23.7856905,
            "velocity": 0.6535433070866141
          },
          {
            "duration": 0.42857099999999804,
            "durationTicks": 960,
            "midi": 81,
            "name": "A5",
            "ticks": 53760,
            "time": 23.999976000000004,
            "velocity": 0.6062992125984252
          },
          {
            "duration": 0.42857099999999804,
            "durationTicks": 960,
            "midi": 52,
            "name": "E3",
            "ticks": 53760,
            "time": 23.999976000000004,
            "velocity": 0.6299212598425197
          },
          {
            "duration": 0.42857099999999804,
            "durationTicks": 960,
            "midi": 57,
            "name": "A3",
            "ticks": 53760,
            "time": 23.999976000000004,
            "velocity": 0.6299212598425197
          },
          {
            "duration": 0.42857099999999804,
            "durationTicks": 960,
            "midi": 60,
            "name": "C4",
            "ticks": 53760,
            "time": 23.999976000000004,
            "velocity": 0.6299212598425197
          },
          {
            "duration": 0.05357137500000064,
            "durationTicks": 120,
            "midi": 81,
            "name": "A5",
            "ticks": 54720,
            "time": 24.428547000000002,
            "velocity": 0.6377952755905512
          },
          {
            "duration": 0.4285710000000016,
            "durationTicks": 960,
            "midi": 40,
            "name": "E2",
            "ticks": 54720,
            "time": 24.428547000000002,
            "velocity": 0.5826771653543307
          },
          {
            "duration": 0.05357137500000064,
            "durationTicks": 120,
            "midi": 83,
            "name": "B5",
            "ticks": 54840,
            "time": 24.482118375000002,
            "velocity": 0.6377952755905512
          },
          {
            "duration": 0.10892846249999977,
            "durationTicks": 244,
            "midi": 81,
            "name": "A5",
            "ticks": 54960,
            "time": 24.535689750000003,
            "velocity": 0.6062992125984252
          },
          {
            "duration": 0.21785692499999953,
            "durationTicks": 488,
            "midi": 80,
            "name": "G#5",
            "ticks": 55200,
            "time": 24.6428325,
            "velocity": 0.5826771653543307
          },
          {
            "duration": 0.21785692499999953,
            "durationTicks": 488,
            "midi": 76,
            "name": "E5",
            "ticks": 55680,
            "time": 24.857118000000003,
            "velocity": 0.5275590551181102
          },
          {
            "duration": 0.42857099999999804,
            "durationTicks": 960,
            "midi": 52,
            "name": "E3",
            "ticks": 55680,
            "time": 24.857118000000003,
            "velocity": 0.6614173228346457
          },
          {
            "duration": 0.42857099999999804,
            "durationTicks": 960,
            "midi": 59,
            "name": "B3",
            "ticks": 55680,
            "time": 24.857118000000003,
            "velocity": 0.6614173228346457
          },
          {
            "duration": 0.42857099999999804,
            "durationTicks": 960,
            "midi": 62,
            "name": "D4",
            "ticks": 55680,
            "time": 24.857118000000003,
            "velocity": 0.6614173228346457
          },
          {
            "duration": 0.21785692499999953,
            "durationTicks": 488,
            "midi": 77,
            "name": "F5",
            "ticks": 56160,
            "time": 25.071403500000002,
            "velocity": 0.5590551181102362
          },
          {
            "duration": 0.40669602187499976,
            "durationTicks": 911,
            "midi": 76,
            "name": "E5",
            "ticks": 56640,
            "time": 25.285689,
            "velocity": 0.5511811023622047
          },
          {
            "duration": 0.4285710000000016,
            "durationTicks": 960,
            "midi": 52,
            "name": "E3",
            "ticks": 56640,
            "time": 25.285689,
            "velocity": 0.6456692913385826
          },
          {
            "duration": 0.4285710000000016,
            "durationTicks": 960,
            "midi": 59,
            "name": "B3",
            "ticks": 56640,
            "time": 25.285689,
            "velocity": 0.6456692913385826
          },
          {
            "duration": 0.4285710000000016,
            "durationTicks": 960,
            "midi": 62,
            "name": "D4",
            "ticks": 56640,
            "time": 25.285689,
            "velocity": 0.6456692913385826
          },
          {
            "duration": 0.05357137500000064,
            "durationTicks": 120,
            "midi": 76,
            "name": "E5",
            "ticks": 57600,
            "time": 25.714260000000003,
            "velocity": 0.6062992125984252
          },
          {
            "duration": 0.42857099999999804,
            "durationTicks": 960,
            "midi": 45,
            "name": "A2",
            "ticks": 57600,
            "time": 25.714260000000003,
            "velocity": 0.5826771653543307
          },
          {
            "duration": 0.05357137499999709,
            "durationTicks": 120,
            "midi": 77,
            "name": "F5",
            "ticks": 57720,
            "time": 25.767831375000004,
            "velocity": 0.5905511811023622
          },
          {
            "duration": 0.10892846250000332,
            "durationTicks": 244,
            "midi": 76,
            "name": "E5",
            "ticks": 57840,
            "time": 25.82140275,
            "velocity": 0.5748031496062992
          },
          {
            "duration": 0.21785692499999953,
            "durationTicks": 488,
            "midi": 72,
            "name": "C5",
            "ticks": 58080,
            "time": 25.928545500000002,
            "velocity": 0.5275590551181102
          },
          {
            "duration": 0.21785692499999953,
            "durationTicks": 488,
            "midi": 69,
            "name": "A4",
            "ticks": 58560,
            "time": 26.142831,
            "velocity": 0.5118110236220472
          },
          {
            "duration": 0.4285710000000016,
            "durationTicks": 960,
            "midi": 52,
            "name": "E3",
            "ticks": 58560,
            "time": 26.142831,
            "velocity": 0.6535433070866141
          },
          {
            "duration": 0.4285710000000016,
            "durationTicks": 960,
            "midi": 57,
            "name": "A3",
            "ticks": 58560,
            "time": 26.142831,
            "velocity": 0.6535433070866141
          },
          {
            "duration": 0.4285710000000016,
            "durationTicks": 960,
            "midi": 60,
            "name": "C4",
            "ticks": 58560,
            "time": 26.142831,
            "velocity": 0.6535433070866141
          },
          {
            "duration": 0.21785692499999953,
            "durationTicks": 488,
            "midi": 71,
            "name": "B4",
            "ticks": 59040,
            "time": 26.357116500000004,
            "velocity": 0.5511811023622047
          },
          {
            "duration": 0.40669602187499976,
            "durationTicks": 911,
            "midi": 69,
            "name": "A4",
            "ticks": 59520,
            "time": 26.571402000000003,
            "velocity": 0.5354330708661418
          },
          {
            "duration": 0.42857099999999804,
            "durationTicks": 960,
            "midi": 52,
            "name": "E3",
            "ticks": 59520,
            "time": 26.571402000000003,
            "velocity": 0.6299212598425197
          },
          {
            "duration": 0.42857099999999804,
            "durationTicks": 960,
            "midi": 57,
            "name": "A3",
            "ticks": 59520,
            "time": 26.571402000000003,
            "velocity": 0.6299212598425197
          },
          {
            "duration": 0.42857099999999804,
            "durationTicks": 960,
            "midi": 60,
            "name": "C4",
            "ticks": 59520,
            "time": 26.571402000000003,
            "velocity": 0.6299212598425197
          },
          {
            "duration": 0.14419628437500265,
            "durationTicks": 323,
            "midi": 64,
            "name": "E4",
            "ticks": 60480,
            "time": 26.999973,
            "velocity": 0.5433070866141733
          },
          {
            "duration": 0.4285710000000016,
            "durationTicks": 960,
            "midi": 40,
            "name": "E2",
            "ticks": 60480,
            "time": 26.999973,
            "velocity": 0.5826771653543307
          },
          {
            "duration": 0.1437498562499968,
            "durationTicks": 322,
            "midi": 68,
            "name": "G#4",
            "ticks": 60799,
            "time": 27.142383571875005,
            "velocity": 0.5748031496062992
          },
          {
            "duration": 0.14553556874999884,
            "durationTicks": 326,
            "midi": 71,
            "name": "B4",
            "ticks": 61118,
            "time": 27.284794143750002,
            "velocity": 0.6456692913385826
          },
          {
            "duration": 0.08705348437500149,
            "durationTicks": 195,
            "midi": 76,
            "name": "E5",
            "ticks": 61440,
            "time": 27.428544000000002,
            "velocity": 0.6929133858267716
          },
          {
            "duration": 0.4285710000000016,
            "durationTicks": 960,
            "midi": 52,
            "name": "E3",
            "ticks": 61440,
            "time": 27.428544000000002,
            "velocity": 0.6614173228346457
          },
          {
            "duration": 0.4285710000000016,
            "durationTicks": 960,
            "midi": 59,
            "name": "B3",
            "ticks": 61440,
            "time": 27.428544000000002,
            "velocity": 0.6614173228346457
          },
          {
            "duration": 0.4285710000000016,
            "durationTicks": 960,
            "midi": 62,
            "name": "D4",
            "ticks": 61440,
            "time": 27.428544000000002,
            "velocity": 0.6614173228346457
          },
          {
            "duration": 0.08705348437499794,
            "durationTicks": 195,
            "midi": 80,
            "name": "G#5",
            "ticks": 61631,
            "time": 27.513811771875005,
            "velocity": 0.6929133858267716
          },
          {
            "duration": 0.08705348437500149,
            "durationTicks": 195,
            "midi": 83,
            "name": "B5",
            "ticks": 61823,
            "time": 27.599525971875003,
            "velocity": 0.6929133858267716
          },
          {
            "duration": 0.08705348437500149,
            "durationTicks": 195,
            "midi": 88,
            "name": "E6",
            "ticks": 62014,
            "time": 27.68479374375,
            "velocity": 0.6929133858267716
          },
          {
            "duration": 0.08883919687499997,
            "durationTicks": 199,
            "midi": 92,
            "name": "G#6",
            "ticks": 62205,
            "time": 27.770061515625002,
            "velocity": 0.6929133858267716
          },
          {
            "duration": 0.32633895937500057,
            "durationTicks": 731,
            "midi": 95,
            "name": "B6",
            "ticks": 62400,
            "time": 27.857115000000004,
            "velocity": 0.6929133858267716
          },
          {
            "duration": 0.42857099999999804,
            "durationTicks": 960,
            "midi": 52,
            "name": "E3",
            "ticks": 62400,
            "time": 27.857115000000004,
            "velocity": 0.6456692913385826
          },
          {
            "duration": 0.42857099999999804,
            "durationTicks": 960,
            "midi": 56,
            "name": "G#3",
            "ticks": 62400,
            "time": 27.857115000000004,
            "velocity": 0.6456692913385826
          },
          {
            "duration": 0.42857099999999804,
            "durationTicks": 960,
            "midi": 62,
            "name": "D4",
            "ticks": 62400,
            "time": 27.857115000000004,
            "velocity": 0.6456692913385826
          },
          {
            "duration": 0.10044632812500254,
            "durationTicks": 225,
            "midi": 96,
            "name": "C7",
            "ticks": 63120,
            "time": 28.17854325,
            "velocity": 0.6929133858267716
          },
          {
            "duration": 0.05357137500000064,
            "durationTicks": 120,
            "midi": 95,
            "name": "B6",
            "ticks": 63360,
            "time": 28.285686000000002,
            "velocity": 0.7322834645669292
          },
          {
            "duration": 0.4285710000000016,
            "durationTicks": 960,
            "midi": 45,
            "name": "A2",
            "ticks": 63360,
            "time": 28.285686000000002,
            "velocity": 0.5826771653543307
          },
          {
            "duration": 0.05357137500000064,
            "durationTicks": 120,
            "midi": 96,
            "name": "C7",
            "ticks": 63480,
            "time": 28.339257375000003,
            "velocity": 0.6929133858267716
          },
          {
            "duration": 0.10892846249999621,
            "durationTicks": 244,
            "midi": 95,
            "name": "B6",
            "ticks": 63600,
            "time": 28.392828750000003,
            "velocity": 0.6929133858267716
          },
          {
            "duration": 0.2178569250000031,
            "durationTicks": 488,
            "midi": 93,
            "name": "A6",
            "ticks": 63840,
            "time": 28.4999715,
            "velocity": 0.6771653543307087
          },
          {
            "duration": 0.2178569250000031,
            "durationTicks": 488,
            "midi": 88,
            "name": "E6",
            "ticks": 64320,
            "time": 28.714257000000003,
            "velocity": 0.5905511811023622
          },
          {
            "duration": 0.42857099999999804,
            "durationTicks": 960,
            "midi": 52,
            "name": "E3",
            "ticks": 64320,
            "time": 28.714257000000003,
            "velocity": 0.6535433070866141
          },
          {
            "duration": 0.42857099999999804,
            "durationTicks": 960,
            "midi": 57,
            "name": "A3",
            "ticks": 64320,
            "time": 28.714257000000003,
            "velocity": 0.6535433070866141
          },
          {
            "duration": 0.42857099999999804,
            "durationTicks": 960,
            "midi": 60,
            "name": "C4",
            "ticks": 64320,
            "time": 28.714257000000003,
            "velocity": 0.6535433070866141
          },
          {
            "duration": 0.20267836875,
            "durationTicks": 454,
            "midi": 95,
            "name": "B6",
            "ticks": 64800,
            "time": 28.928542500000002,
            "velocity": 0.6771653543307087
          },
          {
            "duration": 0.4285710000000016,
            "durationTicks": 960,
            "midi": 93,
            "name": "A6",
            "ticks": 65280,
            "time": 29.142828,
            "velocity": 0.6377952755905512
          },
          {
            "duration": 0.4285710000000016,
            "durationTicks": 960,
            "midi": 52,
            "name": "E3",
            "ticks": 65280,
            "time": 29.142828,
            "velocity": 0.6299212598425197
          },
          {
            "duration": 0.4285710000000016,
            "durationTicks": 960,
            "midi": 57,
            "name": "A3",
            "ticks": 65280,
            "time": 29.142828,
            "velocity": 0.6299212598425197
          },
          {
            "duration": 0.4285710000000016,
            "durationTicks": 960,
            "midi": 60,
            "name": "C4",
            "ticks": 65280,
            "time": 29.142828,
            "velocity": 0.6299212598425197
          },
          {
            "duration": 0.05357137500000064,
            "durationTicks": 120,
            "midi": 93,
            "name": "A6",
            "ticks": 66240,
            "time": 29.571399000000003,
            "velocity": 0.6535433070866141
          },
          {
            "duration": 0.42857099999999804,
            "durationTicks": 960,
            "midi": 40,
            "name": "E2",
            "ticks": 66240,
            "time": 29.571399000000003,
            "velocity": 0.5826771653543307
          },
          {
            "duration": 0.05357137499999709,
            "durationTicks": 120,
            "midi": 95,
            "name": "B6",
            "ticks": 66360,
            "time": 29.624970375000004,
            "velocity": 0.6456692913385826
          },
          {
            "duration": 0.10892846249999977,
            "durationTicks": 244,
            "midi": 93,
            "name": "A6",
            "ticks": 66480,
            "time": 29.67854175,
            "velocity": 0.6141732283464567
          },
          {
            "duration": 0.2178569250000031,
            "durationTicks": 488,
            "midi": 92,
            "name": "G#6",
            "ticks": 66720,
            "time": 29.785684500000002,
            "velocity": 0.5984251968503937
          },
          {
            "duration": 0.2178569250000031,
            "durationTicks": 488,
            "midi": 88,
            "name": "E6",
            "ticks": 67200,
            "time": 29.99997,
            "velocity": 0.5354330708661418
          },
          {
            "duration": 0.4285710000000016,
            "durationTicks": 960,
            "midi": 52,
            "name": "E3",
            "ticks": 67200,
            "time": 29.99997,
            "velocity": 0.6614173228346457
          },
          {
            "duration": 0.4285710000000016,
            "durationTicks": 960,
            "midi": 59,
            "name": "B3",
            "ticks": 67200,
            "time": 29.99997,
            "velocity": 0.6614173228346457
          },
          {
            "duration": 0.4285710000000016,
            "durationTicks": 960,
            "midi": 62,
            "name": "D4",
            "ticks": 67200,
            "time": 29.99997,
            "velocity": 0.6614173228346457
          },
          {
            "duration": 0.21428549999999902,
            "durationTicks": 480,
            "midi": 100,
            "name": "E7",
            "ticks": 67680,
            "time": 30.214255500000004,
            "velocity": 0.6929133858267716
          },
          {
            "duration": 0.4370531343749988,
            "durationTicks": 979,
            "midi": 100,
            "name": "E7",
            "ticks": 68160,
            "time": 30.428541000000003,
            "velocity": 0.6929133858267716
          },
          {
            "duration": 0.42857099999999804,
            "durationTicks": 960,
            "midi": 52,
            "name": "E3",
            "ticks": 68160,
            "time": 30.428541000000003,
            "velocity": 0.6456692913385826
          },
          {
            "duration": 0.42857099999999804,
            "durationTicks": 960,
            "midi": 59,
            "name": "B3",
            "ticks": 68160,
            "time": 30.428541000000003,
            "velocity": 0.6456692913385826
          },
          {
            "duration": 0.42857099999999804,
            "durationTicks": 960,
            "midi": 62,
            "name": "D4",
            "ticks": 68160,
            "time": 30.428541000000003,
            "velocity": 0.6456692913385826
          },
          {
            "duration": 0.8138384718750054,
            "durationTicks": 1823,
            "midi": 93,
            "name": "A6",
            "ticks": 69120,
            "time": 30.857112,
            "velocity": 0.5984251968503937
          },
          {
            "duration": 0.4285710000000016,
            "durationTicks": 960,
            "midi": 45,
            "name": "A2",
            "ticks": 69120,
            "time": 30.857112,
            "velocity": 0.5826771653543307
          },
          {
            "duration": 0.4285710000000016,
            "durationTicks": 960,
            "midi": 52,
            "name": "E3",
            "ticks": 70080,
            "time": 31.285683000000002,
            "velocity": 0.6535433070866141
          },
          {
            "duration": 0.4285710000000016,
            "durationTicks": 960,
            "midi": 57,
            "name": "A3",
            "ticks": 70080,
            "time": 31.285683000000002,
            "velocity": 0.6535433070866141
          },
          {
            "duration": 0.4285710000000016,
            "durationTicks": 960,
            "midi": 60,
            "name": "C4",
            "ticks": 70080,
            "time": 31.285683000000002,
            "velocity": 0.6535433070866141
          },
          {
            "duration": 0.42857099999999804,
            "durationTicks": 960,
            "midi": 52,
            "name": "E3",
            "ticks": 71040,
            "time": 31.714254000000004,
            "velocity": 0.6299212598425197
          },
          {
            "duration": 0.42857099999999804,
            "durationTicks": 960,
            "midi": 57,
            "name": "A3",
            "ticks": 71040,
            "time": 31.714254000000004,
            "velocity": 0.6299212598425197
          },
          {
            "duration": 0.42857099999999804,
            "durationTicks": 960,
            "midi": 60,
            "name": "C4",
            "ticks": 71040,
            "time": 31.714254000000004,
            "velocity": 0.6299212598425197
          },
          {
            "duration": 0.21785692500000664,
            "durationTicks": 488,
            "midi": 76,
            "name": "E5",
            "ticks": 72000,
            "time": 32.142825,
            "velocity": 0.5826771653543307
          },
          {
            "duration": 0.42857099999999804,
            "durationTicks": 960,
            "midi": 40,
            "name": "E2",
            "ticks": 72000,
            "time": 32.142825,
            "velocity": 0.5826771653543307
          },
          {
            "duration": 0.21785692499999953,
            "durationTicks": 488,
            "midi": 78,
            "name": "F#5",
            "ticks": 72480,
            "time": 32.357110500000005,
            "velocity": 0.5748031496062992
          },
          {
            "duration": 0.21785692500000664,
            "durationTicks": 488,
            "midi": 80,
            "name": "G#5",
            "ticks": 72960,
            "time": 32.571396,
            "velocity": 0.6062992125984252
          },
          {
            "duration": 0.42857100000000514,
            "durationTicks": 960,
            "midi": 52,
            "name": "E3",
            "ticks": 72960,
            "time": 32.571396,
            "velocity": 0.6614173228346457
          },
          {
            "duration": 0.42857100000000514,
            "durationTicks": 960,
            "midi": 59,
            "name": "B3",
            "ticks": 72960,
            "time": 32.571396,
            "velocity": 0.6614173228346457
          },
          {
            "duration": 0.42857100000000514,
            "durationTicks": 960,
            "midi": 62,
            "name": "D4",
            "ticks": 72960,
            "time": 32.571396,
            "velocity": 0.6614173228346457
          },
          {
            "duration": 0.21785692499999953,
            "durationTicks": 488,
            "midi": 81,
            "name": "A5",
            "ticks": 73440,
            "time": 32.7856815,
            "velocity": 0.6220472440944882
          },
          {
            "duration": 0.21785692499999953,
            "durationTicks": 488,
            "midi": 83,
            "name": "B5",
            "ticks": 73920,
            "time": 32.999967000000005,
            "velocity": 0.6535433070866141
          },
          {
            "duration": 0.42857099999999804,
            "durationTicks": 960,
            "midi": 52,
            "name": "E3",
            "ticks": 73920,
            "time": 32.999967000000005,
            "velocity": 0.6456692913385826
          },
          {
            "duration": 0.42857099999999804,
            "durationTicks": 960,
            "midi": 56,
            "name": "G#3",
            "ticks": 73920,
            "time": 32.999967000000005,
            "velocity": 0.6456692913385826
          },
          {
            "duration": 0.42857099999999804,
            "durationTicks": 960,
            "midi": 62,
            "name": "D4",
            "ticks": 73920,
            "time": 32.999967000000005,
            "velocity": 0.6456692913385826
          },
          {
            "duration": 0.21785692500000664,
            "durationTicks": 488,
            "midi": 84,
            "name": "C6",
            "ticks": 74400,
            "time": 33.2142525,
            "velocity": 0.6614173228346457
          },
          {
            "duration": 0.05357137499999709,
            "durationTicks": 120,
            "midi": 83,
            "name": "B5",
            "ticks": 74880,
            "time": 33.428538,
            "velocity": 0.6692913385826772
          },
          {
            "duration": 0.42857099999999804,
            "durationTicks": 960,
            "midi": 45,
            "name": "A2",
            "ticks": 74880,
            "time": 33.428538,
            "velocity": 0.5826771653543307
          },
          {
            "duration": 0.053571375000004195,
            "durationTicks": 120,
            "midi": 84,
            "name": "C6",
            "ticks": 75000,
            "time": 33.482109375,
            "velocity": 0.6456692913385826
          },
          {
            "duration": 0.10892846249999621,
            "durationTicks": 244,
            "midi": 83,
            "name": "B5",
            "ticks": 75120,
            "time": 33.535680750000004,
            "velocity": 0.6299212598425197
          },
          {
            "duration": 0.21785692499999953,
            "durationTicks": 488,
            "midi": 81,
            "name": "A5",
            "ticks": 75360,
            "time": 33.642823500000006,
            "velocity": 0.5905511811023622
          },
          {
            "duration": 0.21785692500000664,
            "durationTicks": 488,
            "midi": 76,
            "name": "E5",
            "ticks": 75840,
            "time": 33.857109,
            "velocity": 0.5196850393700787
          },
          {
            "duration": 0.42857099999999804,
            "durationTicks": 960,
            "midi": 52,
            "name": "E3",
            "ticks": 75840,
            "time": 33.857109,
            "velocity": 0.6535433070866141
          },
          {
            "duration": 0.42857099999999804,
            "durationTicks": 960,
            "midi": 57,
            "name": "A3",
            "ticks": 75840,
            "time": 33.857109,
            "velocity": 0.6535433070866141
          },
          {
            "duration": 0.42857099999999804,
            "durationTicks": 960,
            "midi": 60,
            "name": "C4",
            "ticks": 75840,
            "time": 33.857109,
            "velocity": 0.6535433070866141
          },
          {
            "duration": 0.20267836875,
            "durationTicks": 454,
            "midi": 83,
            "name": "B5",
            "ticks": 76320,
            "time": 34.071394500000004,
            "velocity": 0.6535433070866141
          },
          {
            "duration": 0.42857100000000514,
            "durationTicks": 960,
            "midi": 81,
            "name": "A5",
            "ticks": 76800,
            "time": 34.28568,
            "velocity": 0.6062992125984252
          },
          {
            "duration": 0.42857100000000514,
            "durationTicks": 960,
            "midi": 52,
            "name": "E3",
            "ticks": 76800,
            "time": 34.28568,
            "velocity": 0.6299212598425197
          },
          {
            "duration": 0.42857100000000514,
            "durationTicks": 960,
            "midi": 57,
            "name": "A3",
            "ticks": 76800,
            "time": 34.28568,
            "velocity": 0.6299212598425197
          },
          {
            "duration": 0.42857100000000514,
            "durationTicks": 960,
            "midi": 60,
            "name": "C4",
            "ticks": 76800,
            "time": 34.28568,
            "velocity": 0.6299212598425197
          },
          {
            "duration": 0.05357137499999709,
            "durationTicks": 120,
            "midi": 81,
            "name": "A5",
            "ticks": 77760,
            "time": 34.714251000000004,
            "velocity": 0.6377952755905512
          },
          {
            "duration": 0.42857099999999804,
            "durationTicks": 960,
            "midi": 40,
            "name": "E2",
            "ticks": 77760,
            "time": 34.714251000000004,
            "velocity": 0.5826771653543307
          },
          {
            "duration": 0.053571375000004195,
            "durationTicks": 120,
            "midi": 83,
            "name": "B5",
            "ticks": 77880,
            "time": 34.767822375,
            "velocity": 0.6377952755905512
          },
          {
            "duration": 0.10892846249999621,
            "durationTicks": 244,
            "midi": 81,
            "name": "A5",
            "ticks": 78000,
            "time": 34.821393750000006,
            "velocity": 0.6062992125984252
          },
          {
            "duration": 0.21785692500000664,
            "durationTicks": 488,
            "midi": 80,
            "name": "G#5",
            "ticks": 78240,
            "time": 34.9285365,
            "velocity": 0.5826771653543307
          },
          {
            "duration": 0.21785692500000664,
            "durationTicks": 488,
            "midi": 76,
            "name": "E5",
            "ticks": 78720,
            "time": 35.142822,
            "velocity": 0.5275590551181102
          },
          {
            "duration": 0.42857099999999804,
            "durationTicks": 960,
            "midi": 52,
            "name": "E3",
            "ticks": 78720,
            "time": 35.142822,
            "velocity": 0.6614173228346457
          },
          {
            "duration": 0.42857099999999804,
            "durationTicks": 960,
            "midi": 59,
            "name": "B3",
            "ticks": 78720,
            "time": 35.142822,
            "velocity": 0.6614173228346457
          },
          {
            "duration": 0.42857099999999804,
            "durationTicks": 960,
            "midi": 62,
            "name": "D4",
            "ticks": 78720,
            "time": 35.142822,
            "velocity": 0.6614173228346457
          },
          {
            "duration": 0.21785692499999953,
            "durationTicks": 488,
            "midi": 77,
            "name": "F5",
            "ticks": 79200,
            "time": 35.357107500000005,
            "velocity": 0.5590551181102362
          },
          {
            "duration": 0.40669602187500686,
            "durationTicks": 911,
            "midi": 76,
            "name": "E5",
            "ticks": 79680,
            "time": 35.571393,
            "velocity": 0.5511811023622047
          },
          {
            "duration": 0.42857100000000514,
            "durationTicks": 960,
            "midi": 52,
            "name": "E3",
            "ticks": 79680,
            "time": 35.571393,
            "velocity": 0.6456692913385826
          },
          {
            "duration": 0.42857100000000514,
            "durationTicks": 960,
            "midi": 59,
            "name": "B3",
            "ticks": 79680,
            "time": 35.571393,
            "velocity": 0.6456692913385826
          },
          {
            "duration": 0.42857100000000514,
            "durationTicks": 960,
            "midi": 62,
            "name": "D4",
            "ticks": 79680,
            "time": 35.571393,
            "velocity": 0.6456692913385826
          },
          {
            "duration": 0.05357137499999709,
            "durationTicks": 120,
            "midi": 76,
            "name": "E5",
            "ticks": 80640,
            "time": 35.999964000000006,
            "velocity": 0.6062992125984252
          },
          {
            "duration": 0.42857099999999804,
            "durationTicks": 960,
            "midi": 45,
            "name": "A2",
            "ticks": 80640,
            "time": 35.999964000000006,
            "velocity": 0.5826771653543307
          },
          {
            "duration": 0.05357137499999709,
            "durationTicks": 120,
            "midi": 77,
            "name": "F5",
            "ticks": 80760,
            "time": 36.053535375,
            "velocity": 0.5905511811023622
          },
          {
            "duration": 0.10892846250000332,
            "durationTicks": 244,
            "midi": 76,
            "name": "E5",
            "ticks": 80880,
            "time": 36.10710675,
            "velocity": 0.5748031496062992
          },
          {
            "duration": 0.21785692500000664,
            "durationTicks": 488,
            "midi": 72,
            "name": "C5",
            "ticks": 81120,
            "time": 36.2142495,
            "velocity": 0.5275590551181102
          },
          {
            "duration": 0.21785692499999953,
            "durationTicks": 488,
            "midi": 69,
            "name": "A4",
            "ticks": 81600,
            "time": 36.428535000000004,
            "velocity": 0.5118110236220472
          },
          {
            "duration": 0.42857099999999804,
            "durationTicks": 960,
            "midi": 52,
            "name": "E3",
            "ticks": 81600,
            "time": 36.428535000000004,
            "velocity": 0.6535433070866141
          },
          {
            "duration": 0.42857099999999804,
            "durationTicks": 960,
            "midi": 57,
            "name": "A3",
            "ticks": 81600,
            "time": 36.428535000000004,
            "velocity": 0.6535433070866141
          },
          {
            "duration": 0.42857099999999804,
            "durationTicks": 960,
            "midi": 60,
            "name": "C4",
            "ticks": 81600,
            "time": 36.428535000000004,
            "velocity": 0.6535433070866141
          },
          {
            "duration": 0.21785692499999953,
            "durationTicks": 488,
            "midi": 71,
            "name": "B4",
            "ticks": 82080,
            "time": 36.642820500000006,
            "velocity": 0.5511811023622047
          },
          {
            "duration": 0.40669602187499976,
            "durationTicks": 911,
            "midi": 69,
            "name": "A4",
            "ticks": 82560,
            "time": 36.857106,
            "velocity": 0.5354330708661418
          },
          {
            "duration": 0.42857099999999804,
            "durationTicks": 960,
            "midi": 52,
            "name": "E3",
            "ticks": 82560,
            "time": 36.857106,
            "velocity": 0.6299212598425197
          },
          {
            "duration": 0.42857099999999804,
            "durationTicks": 960,
            "midi": 57,
            "name": "A3",
            "ticks": 82560,
            "time": 36.857106,
            "velocity": 0.6299212598425197
          },
          {
            "duration": 0.42857099999999804,
            "durationTicks": 960,
            "midi": 60,
            "name": "C4",
            "ticks": 82560,
            "time": 36.857106,
            "velocity": 0.6299212598425197
          },
          {
            "duration": 0.1441962843750062,
            "durationTicks": 323,
            "midi": 64,
            "name": "E4",
            "ticks": 83520,
            "time": 37.285677,
            "velocity": 0.5433070866141733
          },
          {
            "duration": 0.42857100000000514,
            "durationTicks": 960,
            "midi": 40,
            "name": "E2",
            "ticks": 83520,
            "time": 37.285677,
            "velocity": 0.5826771653543307
          },
          {
            "duration": 0.14374985625000392,
            "durationTicks": 322,
            "midi": 68,
            "name": "G#4",
            "ticks": 83839,
            "time": 37.428087571875004,
            "velocity": 0.5748031496062992
          },
          {
            "duration": 0.14553556874999174,
            "durationTicks": 326,
            "midi": 71,
            "name": "B4",
            "ticks": 84158,
            "time": 37.57049814375001,
            "velocity": 0.6456692913385826
          },
          {
            "duration": 0.08705348437499794,
            "durationTicks": 195,
            "midi": 76,
            "name": "E5",
            "ticks": 84480,
            "time": 37.714248000000005,
            "velocity": 0.6929133858267716
          },
          {
            "duration": 0.42857099999999804,
            "durationTicks": 960,
            "midi": 52,
            "name": "E3",
            "ticks": 84480,
            "time": 37.714248000000005,
            "velocity": 0.6614173228346457
          },
          {
            "duration": 0.42857099999999804,
            "durationTicks": 960,
            "midi": 59,
            "name": "B3",
            "ticks": 84480,
            "time": 37.714248000000005,
            "velocity": 0.6614173228346457
          },
          {
            "duration": 0.42857099999999804,
            "durationTicks": 960,
            "midi": 62,
            "name": "D4",
            "ticks": 84480,
            "time": 37.714248000000005,
            "velocity": 0.6614173228346457
          },
          {
            "duration": 0.08705348437499794,
            "durationTicks": 195,
            "midi": 80,
            "name": "G#5",
            "ticks": 84671,
            "time": 37.79951577187501,
            "velocity": 0.6929133858267716
          },
          {
            "duration": 0.08705348437499794,
            "durationTicks": 195,
            "midi": 83,
            "name": "B5",
            "ticks": 84863,
            "time": 37.885229971875006,
            "velocity": 0.6929133858267716
          },
          {
            "duration": 0.08705348437499794,
            "durationTicks": 195,
            "midi": 88,
            "name": "E6",
            "ticks": 85054,
            "time": 37.97049774375,
            "velocity": 0.6929133858267716
          },
          {
            "duration": 0.08883919687499997,
            "durationTicks": 199,
            "midi": 92,
            "name": "G#6",
            "ticks": 85245,
            "time": 38.055765515625005,
            "velocity": 0.6929133858267716
          },
          {
            "duration": 0.32633895937500057,
            "durationTicks": 731,
            "midi": 95,
            "name": "B6",
            "ticks": 85440,
            "time": 38.142819,
            "velocity": 0.6929133858267716
          },
          {
            "duration": 0.42857099999999804,
            "durationTicks": 960,
            "midi": 52,
            "name": "E3",
            "ticks": 85440,
            "time": 38.142819,
            "velocity": 0.6456692913385826
          },
          {
            "duration": 0.42857099999999804,
            "durationTicks": 960,
            "midi": 56,
            "name": "G#3",
            "ticks": 85440,
            "time": 38.142819,
            "velocity": 0.6456692913385826
          },
          {
            "duration": 0.42857099999999804,
            "durationTicks": 960,
            "midi": 62,
            "name": "D4",
            "ticks": 85440,
            "time": 38.142819,
            "velocity": 0.6456692913385826
          },
          {
            "duration": 0.10044632812500254,
            "durationTicks": 225,
            "midi": 96,
            "name": "C7",
            "ticks": 86160,
            "time": 38.46424725,
            "velocity": 0.6929133858267716
          },
          {
            "duration": 0.053571375000004195,
            "durationTicks": 120,
            "midi": 95,
            "name": "B6",
            "ticks": 86400,
            "time": 38.57139,
            "velocity": 0.7322834645669292
          },
          {
            "duration": 0.42857100000000514,
            "durationTicks": 960,
            "midi": 45,
            "name": "A2",
            "ticks": 86400,
            "time": 38.57139,
            "velocity": 0.5826771653543307
          },
          {
            "duration": 0.05357137499999709,
            "durationTicks": 120,
            "midi": 96,
            "name": "C7",
            "ticks": 86520,
            "time": 38.624961375000005,
            "velocity": 0.6929133858267716
          },
          {
            "duration": 0.10892846249999621,
            "durationTicks": 244,
            "midi": 95,
            "name": "B6",
            "ticks": 86640,
            "time": 38.67853275,
            "velocity": 0.6929133858267716
          },
          {
            "duration": 0.21785692499999953,
            "durationTicks": 488,
            "midi": 93,
            "name": "A6",
            "ticks": 86880,
            "time": 38.7856755,
            "velocity": 0.6771653543307087
          },
          {
            "duration": 0.21785692499999953,
            "durationTicks": 488,
            "midi": 88,
            "name": "E6",
            "ticks": 87360,
            "time": 38.999961000000006,
            "velocity": 0.5905511811023622
          },
          {
            "duration": 0.42857099999999804,
            "durationTicks": 960,
            "midi": 52,
            "name": "E3",
            "ticks": 87360,
            "time": 38.999961000000006,
            "velocity": 0.6535433070866141
          },
          {
            "duration": 0.42857099999999804,
            "durationTicks": 960,
            "midi": 57,
            "name": "A3",
            "ticks": 87360,
            "time": 38.999961000000006,
            "velocity": 0.6535433070866141
          },
          {
            "duration": 0.42857099999999804,
            "durationTicks": 960,
            "midi": 60,
            "name": "C4",
            "ticks": 87360,
            "time": 38.999961000000006,
            "velocity": 0.6535433070866141
          },
          {
            "duration": 0.20267836875,
            "durationTicks": 454,
            "midi": 95,
            "name": "B6",
            "ticks": 87840,
            "time": 39.2142465,
            "velocity": 0.6771653543307087
          },
          {
            "duration": 0.42857099999999804,
            "durationTicks": 960,
            "midi": 93,
            "name": "A6",
            "ticks": 88320,
            "time": 39.428532000000004,
            "velocity": 0.6377952755905512
          },
          {
            "duration": 0.42857099999999804,
            "durationTicks": 960,
            "midi": 52,
            "name": "E3",
            "ticks": 88320,
            "time": 39.428532000000004,
            "velocity": 0.6299212598425197
          },
          {
            "duration": 0.42857099999999804,
            "durationTicks": 960,
            "midi": 57,
            "name": "A3",
            "ticks": 88320,
            "time": 39.428532000000004,
            "velocity": 0.6299212598425197
          },
          {
            "duration": 0.42857099999999804,
            "durationTicks": 960,
            "midi": 60,
            "name": "C4",
            "ticks": 88320,
            "time": 39.428532000000004,
            "velocity": 0.6299212598425197
          },
          {
            "duration": 0.053571375000004195,
            "durationTicks": 120,
            "midi": 93,
            "name": "A6",
            "ticks": 89280,
            "time": 39.857103,
            "velocity": 0.6535433070866141
          },
          {
            "duration": 0.42857099999999804,
            "durationTicks": 960,
            "midi": 40,
            "name": "E2",
            "ticks": 89280,
            "time": 39.857103,
            "velocity": 0.5826771653543307
          },
          {
            "duration": 0.05357137499999709,
            "durationTicks": 120,
            "midi": 95,
            "name": "B6",
            "ticks": 89400,
            "time": 39.910674375000006,
            "velocity": 0.6456692913385826
          },
          {
            "duration": 0.10892846249999621,
            "durationTicks": 244,
            "midi": 93,
            "name": "A6",
            "ticks": 89520,
            "time": 39.96424575,
            "velocity": 0.6141732283464567
          },
          {
            "duration": 0.21785692499999953,
            "durationTicks": 488,
            "midi": 92,
            "name": "G#6",
            "ticks": 89760,
            "time": 40.071388500000005,
            "velocity": 0.5984251968503937
          },
          {
            "duration": 0.21785692500000664,
            "durationTicks": 488,
            "midi": 88,
            "name": "E6",
            "ticks": 90240,
            "time": 40.285674,
            "velocity": 0.5354330708661418
          },
          {
            "duration": 0.42857100000000514,
            "durationTicks": 960,
            "midi": 52,
            "name": "E3",
            "ticks": 90240,
            "time": 40.285674,
            "velocity": 0.6614173228346457
          },
          {
            "duration": 0.42857100000000514,
            "durationTicks": 960,
            "midi": 59,
            "name": "B3",
            "ticks": 90240,
            "time": 40.285674,
            "velocity": 0.6614173228346457
          },
          {
            "duration": 0.42857100000000514,
            "durationTicks": 960,
            "midi": 62,
            "name": "D4",
            "ticks": 90240,
            "time": 40.285674,
            "velocity": 0.6614173228346457
          },
          {
            "duration": 0.21428550000000257,
            "durationTicks": 480,
            "midi": 100,
            "name": "E7",
            "ticks": 90720,
            "time": 40.4999595,
            "velocity": 0.6929133858267716
          },
          {
            "duration": 0.4370531343749988,
            "durationTicks": 979,
            "midi": 100,
            "name": "E7",
            "ticks": 91200,
            "time": 40.714245000000005,
            "velocity": 0.6929133858267716
          },
          {
            "duration": 0.42857099999999804,
            "durationTicks": 960,
            "midi": 52,
            "name": "E3",
            "ticks": 91200,
            "time": 40.714245000000005,
            "velocity": 0.6456692913385826
          },
          {
            "duration": 0.42857099999999804,
            "durationTicks": 960,
            "midi": 59,
            "name": "B3",
            "ticks": 91200,
            "time": 40.714245000000005,
            "velocity": 0.6456692913385826
          },
          {
            "duration": 0.42857099999999804,
            "durationTicks": 960,
            "midi": 62,
            "name": "D4",
            "ticks": 91200,
            "time": 40.714245000000005,
            "velocity": 0.6456692913385826
          },
          {
            "duration": 0.8138384718750018,
            "durationTicks": 1823,
            "midi": 93,
            "name": "A6",
            "ticks": 92160,
            "time": 41.142816,
            "velocity": 0.5984251968503937
          },
          {
            "duration": 0.42857099999999804,
            "durationTicks": 960,
            "midi": 45,
            "name": "A2",
            "ticks": 92160,
            "time": 41.142816,
            "velocity": 0.5826771653543307
          },
          {
            "duration": 0.42857100000000514,
            "durationTicks": 960,
            "midi": 52,
            "name": "E3",
            "ticks": 93120,
            "time": 41.571387,
            "velocity": 0.6535433070866141
          },
          {
            "duration": 0.42857100000000514,
            "durationTicks": 960,
            "midi": 57,
            "name": "A3",
            "ticks": 93120,
            "time": 41.571387,
            "velocity": 0.6535433070866141
          },
          {
            "duration": 0.42857100000000514,
            "durationTicks": 960,
            "midi": 60,
            "name": "C4",
            "ticks": 93120,
            "time": 41.571387,
            "velocity": 0.6535433070866141
          },
          {
            "duration": 0.42857099999999804,
            "durationTicks": 960,
            "midi": 52,
            "name": "E3",
            "ticks": 94080,
            "time": 41.99995800000001,
            "velocity": 0.6299212598425197
          },
          {
            "duration": 0.42857099999999804,
            "durationTicks": 960,
            "midi": 57,
            "name": "A3",
            "ticks": 94080,
            "time": 41.99995800000001,
            "velocity": 0.6299212598425197
          },
          {
            "duration": 0.42857099999999804,
            "durationTicks": 960,
            "midi": 60,
            "name": "C4",
            "ticks": 94080,
            "time": 41.99995800000001,
            "velocity": 0.6299212598425197
          },
          {
            "duration": 0.21785692499999953,
            "durationTicks": 488,
            "midi": 69,
            "name": "A4",
            "ticks": 95040,
            "time": 42.428529000000005,
            "velocity": 0.5826771653543307
          },
          {
            "duration": 0.42857099999999804,
            "durationTicks": 960,
            "midi": 33,
            "name": "A1",
            "ticks": 95040,
            "time": 42.428529000000005,
            "velocity": 0.5748031496062992
          },
          {
            "duration": 0.21785692500000664,
            "durationTicks": 488,
            "midi": 71,
            "name": "B4",
            "ticks": 95520,
            "time": 42.6428145,
            "velocity": 0.5748031496062992
          },
          {
            "duration": 0.40669602187499976,
            "durationTicks": 911,
            "midi": 72,
            "name": "C5",
            "ticks": 96000,
            "time": 42.8571,
            "velocity": 0.5984251968503937
          },
          {
            "duration": 0.42857099999999804,
            "durationTicks": 960,
            "midi": 57,
            "name": "A3",
            "ticks": 96000,
            "time": 42.8571,
            "velocity": 0.6692913385826772
          },
          {
            "duration": 0.42857099999999804,
            "durationTicks": 960,
            "midi": 60,
            "name": "C4",
            "ticks": 96000,
            "time": 42.8571,
            "velocity": 0.6692913385826772
          },
          {
            "duration": 0.42857099999999804,
            "durationTicks": 960,
            "midi": 64,
            "name": "E4",
            "ticks": 96000,
            "time": 42.8571,
            "velocity": 0.6692913385826772
          },
          {
            "duration": 0.42857100000000514,
            "durationTicks": 960,
            "midi": 72,
            "name": "C5",
            "ticks": 96960,
            "time": 43.285671,
            "velocity": 0.6062992125984252
          },
          {
            "duration": 0.42857100000000514,
            "durationTicks": 960,
            "midi": 57,
            "name": "A3",
            "ticks": 96960,
            "time": 43.285671,
            "velocity": 0.6456692913385826
          },
          {
            "duration": 0.42857100000000514,
            "durationTicks": 960,
            "midi": 60,
            "name": "C4",
            "ticks": 96960,
            "time": 43.285671,
            "velocity": 0.6456692913385826
          },
          {
            "duration": 0.42857100000000514,
            "durationTicks": 960,
            "midi": 64,
            "name": "E4",
            "ticks": 96960,
            "time": 43.285671,
            "velocity": 0.6456692913385826
          },
          {
            "duration": 0.21785692499999953,
            "durationTicks": 488,
            "midi": 74,
            "name": "D5",
            "ticks": 97920,
            "time": 43.714242000000006,
            "velocity": 0.6614173228346457
          },
          {
            "duration": 0.42857099999999804,
            "durationTicks": 960,
            "midi": 38,
            "name": "D2",
            "ticks": 97920,
            "time": 43.714242000000006,
            "velocity": 0.5905511811023622
          },
          {
            "duration": 0.21785692500000664,
            "durationTicks": 488,
            "midi": 76,
            "name": "E5",
            "ticks": 98400,
            "time": 43.9285275,
            "velocity": 0.6456692913385826
          },
          {
            "duration": 0.8138384718750018,
            "durationTicks": 1823,
            "midi": 77,
            "name": "F5",
            "ticks": 98880,
            "time": 44.142813000000004,
            "velocity": 0.6535433070866141
          },
          {
            "duration": 0.42857099999999804,
            "durationTicks": 960,
            "midi": 57,
            "name": "A3",
            "ticks": 98880,
            "time": 44.142813000000004,
            "velocity": 0.6614173228346457
          },
          {
            "duration": 0.42857099999999804,
            "durationTicks": 960,
            "midi": 62,
            "name": "D4",
            "ticks": 98880,
            "time": 44.142813000000004,
            "velocity": 0.6614173228346457
          },
          {
            "duration": 0.42857099999999804,
            "durationTicks": 960,
            "midi": 65,
            "name": "F4",
            "ticks": 98880,
            "time": 44.142813000000004,
            "velocity": 0.6614173228346457
          },
          {
            "duration": 0.42857100000000514,
            "durationTicks": 960,
            "midi": 57,
            "name": "A3",
            "ticks": 99840,
            "time": 44.571384,
            "velocity": 0.6377952755905512
          },
          {
            "duration": 0.42857100000000514,
            "durationTicks": 960,
            "midi": 62,
            "name": "D4",
            "ticks": 99840,
            "time": 44.571384,
            "velocity": 0.6377952755905512
          },
          {
            "duration": 0.42857100000000514,
            "durationTicks": 960,
            "midi": 65,
            "name": "F4",
            "ticks": 99840,
            "time": 44.571384,
            "velocity": 0.6377952755905512
          },
          {
            "duration": 0.21785692499999953,
            "durationTicks": 488,
            "midi": 71,
            "name": "B4",
            "ticks": 100800,
            "time": 44.99995500000001,
            "velocity": 0.5984251968503937
          },
          {
            "duration": 0.42857099999999804,
            "durationTicks": 960,
            "midi": 43,
            "name": "G2",
            "ticks": 100800,
            "time": 44.99995500000001,
            "velocity": 0.5905511811023622
          },
          {
            "duration": 0.21785692500000664,
            "durationTicks": 488,
            "midi": 72,
            "name": "C5",
            "ticks": 101280,
            "time": 45.2142405,
            "velocity": 0.5826771653543307
          },
          {
            "duration": 0.21785692499999953,
            "durationTicks": 488,
            "midi": 74,
            "name": "D5",
            "ticks": 101760,
            "time": 45.428526000000005,
            "velocity": 0.6141732283464567
          },
          {
            "duration": 0.42857099999999804,
            "durationTicks": 960,
            "midi": 55,
            "name": "G3",
            "ticks": 101760,
            "time": 45.428526000000005,
            "velocity": 0.6614173228346457
          },
          {
            "duration": 0.42857099999999804,
            "durationTicks": 960,
            "midi": 59,
            "name": "B3",
            "ticks": 101760,
            "time": 45.428526000000005,
            "velocity": 0.6614173228346457
          },
          {
            "duration": 0.42857099999999804,
            "durationTicks": 960,
            "midi": 65,
            "name": "F4",
            "ticks": 101760,
            "time": 45.428526000000005,
            "velocity": 0.6614173228346457
          },
          {
            "duration": 0.21785692500000664,
            "durationTicks": 488,
            "midi": 81,
            "name": "A5",
            "ticks": 102240,
            "time": 45.6428115,
            "velocity": 0.6929133858267716
          },
          {
            "duration": 0.21785692500000664,
            "durationTicks": 488,
            "midi": 79,
            "name": "G5",
            "ticks": 102720,
            "time": 45.857097,
            "velocity": 0.6614173228346457
          },
          {
            "duration": 0.42857099999999804,
            "durationTicks": 960,
            "midi": 55,
            "name": "G3",
            "ticks": 102720,
            "time": 45.857097,
            "velocity": 0.6377952755905512
          },
          {
            "duration": 0.42857099999999804,
            "durationTicks": 960,
            "midi": 59,
            "name": "B3",
            "ticks": 102720,
            "time": 45.857097,
            "velocity": 0.6377952755905512
          },
          {
            "duration": 0.42857099999999804,
            "durationTicks": 960,
            "midi": 65,
            "name": "F4",
            "ticks": 102720,
            "time": 45.857097,
            "velocity": 0.6377952755905512
          },
          {
            "duration": 0.20267836875,
            "durationTicks": 454,
            "midi": 77,
            "name": "F5",
            "ticks": 103200,
            "time": 46.071382500000006,
            "velocity": 0.6141732283464567
          },
          {
            "duration": 0.053571375000004195,
            "durationTicks": 120,
            "midi": 76,
            "name": "E5",
            "ticks": 103680,
            "time": 46.285668,
            "velocity": 0.6220472440944882
          },
          {
            "duration": 0.42857100000000514,
            "durationTicks": 960,
            "midi": 48,
            "name": "C3",
            "ticks": 103680,
            "time": 46.285668,
            "velocity": 0.5748031496062992
          },
          {
            "duration": 0.05357137499999709,
            "durationTicks": 120,
            "midi": 77,
            "name": "F5",
            "ticks": 103800,
            "time": 46.339239375000005,
            "velocity": 0.6062992125984252
          },
          {
            "duration": 0.10892846250000332,
            "durationTicks": 244,
            "midi": 76,
            "name": "E5",
            "ticks": 103920,
            "time": 46.39281075,
            "velocity": 0.5905511811023622
          },
          {
            "duration": 0.21785692499999953,
            "durationTicks": 488,
            "midi": 75,
            "name": "D#5",
            "ticks": 104160,
            "time": 46.499953500000004,
            "velocity": 0.5748031496062992
          },
          {
            "duration": 0.8138384718750018,
            "durationTicks": 1823,
            "midi": 76,
            "name": "E5",
            "ticks": 104640,
            "time": 46.714239000000006,
            "velocity": 0.5984251968503937
          },
          {
            "duration": 0.42857099999999804,
            "durationTicks": 960,
            "midi": 55,
            "name": "G3",
            "ticks": 104640,
            "time": 46.714239000000006,
            "velocity": 0.6535433070866141
          },
          {
            "duration": 0.42857099999999804,
            "durationTicks": 960,
            "midi": 60,
            "name": "C4",
            "ticks": 104640,
            "time": 46.714239000000006,
            "velocity": 0.6535433070866141
          },
          {
            "duration": 0.42857099999999804,
            "durationTicks": 960,
            "midi": 64,
            "name": "E4",
            "ticks": 104640,
            "time": 46.714239000000006,
            "velocity": 0.6535433070866141
          },
          {
            "duration": 0.42857099999999804,
            "durationTicks": 960,
            "midi": 55,
            "name": "G3",
            "ticks": 105600,
            "time": 47.142810000000004,
            "velocity": 0.6377952755905512
          },
          {
            "duration": 0.42857099999999804,
            "durationTicks": 960,
            "midi": 60,
            "name": "C4",
            "ticks": 105600,
            "time": 47.142810000000004,
            "velocity": 0.6377952755905512
          },
          {
            "duration": 0.42857099999999804,
            "durationTicks": 960,
            "midi": 64,
            "name": "E4",
            "ticks": 105600,
            "time": 47.142810000000004,
            "velocity": 0.6377952755905512
          },
          {
            "duration": 0.21785692500000664,
            "durationTicks": 488,
            "midi": 72,
            "name": "C5",
            "ticks": 106560,
            "time": 47.571381,
            "velocity": 0.5905511811023622
          },
          {
            "duration": 0.42857100000000514,
            "durationTicks": 960,
            "midi": 45,
            "name": "A2",
            "ticks": 106560,
            "time": 47.571381,
            "velocity": 0.5748031496062992
          },
          {
            "duration": 0.21785692499999953,
            "durationTicks": 488,
            "midi": 74,
            "name": "D5",
            "ticks": 107040,
            "time": 47.785666500000005,
            "velocity": 0.5905511811023622
          },
          {
            "duration": 0.40669602187499976,
            "durationTicks": 911,
            "midi": 76,
            "name": "E5",
            "ticks": 107520,
            "time": 47.99995200000001,
            "velocity": 0.6220472440944882
          },
          {
            "duration": 0.42857099999999804,
            "durationTicks": 960,
            "midi": 57,
            "name": "A3",
            "ticks": 107520,
            "time": 47.99995200000001,
            "velocity": 0.6614173228346457
          },
          {
            "duration": 0.42857099999999804,
            "durationTicks": 960,
            "midi": 60,
            "name": "C4",
            "ticks": 107520,
            "time": 47.99995200000001,
            "velocity": 0.6614173228346457
          },
          {
            "duration": 0.42857099999999804,
            "durationTicks": 960,
            "midi": 64,
            "name": "E4",
            "ticks": 107520,
            "time": 47.99995200000001,
            "velocity": 0.6614173228346457
          },
          {
            "duration": 0.42857099999999804,
            "durationTicks": 960,
            "midi": 76,
            "name": "E5",
            "ticks": 108480,
            "time": 48.428523000000006,
            "velocity": 0.6220472440944882
          },
          {
            "duration": 0.42857099999999804,
            "durationTicks": 960,
            "midi": 57,
            "name": "A3",
            "ticks": 108480,
            "time": 48.428523000000006,
            "velocity": 0.6377952755905512
          },
          {
            "duration": 0.42857099999999804,
            "durationTicks": 960,
            "midi": 60,
            "name": "C4",
            "ticks": 108480,
            "time": 48.428523000000006,
            "velocity": 0.6377952755905512
          },
          {
            "duration": 0.42857099999999804,
            "durationTicks": 960,
            "midi": 64,
            "name": "E4",
            "ticks": 108480,
            "time": 48.428523000000006,
            "velocity": 0.6377952755905512
          },
          {
            "duration": 0.21785692500000664,
            "durationTicks": 488,
            "midi": 77,
            "name": "F5",
            "ticks": 109440,
            "time": 48.857094000000004,
            "velocity": 0.6614173228346457
          },
          {
            "duration": 0.42857099999999804,
            "durationTicks": 960,
            "midi": 38,
            "name": "D2",
            "ticks": 109440,
            "time": 48.857094000000004,
            "velocity": 0.5748031496062992
          },
          {
            "duration": 0.21785692499999953,
            "durationTicks": 488,
            "midi": 79,
            "name": "G5",
            "ticks": 109920,
            "time": 49.071379500000006,
            "velocity": 0.6456692913385826
          },
          {
            "duration": 0.8138384718750018,
            "durationTicks": 1823,
            "midi": 81,
            "name": "A5",
            "ticks": 110400,
            "time": 49.285665,
            "velocity": 0.6614173228346457
          },
          {
            "duration": 0.42857100000000514,
            "durationTicks": 960,
            "midi": 57,
            "name": "A3",
            "ticks": 110400,
            "time": 49.285665,
            "velocity": 0.6614173228346457
          },
          {
            "duration": 0.42857100000000514,
            "durationTicks": 960,
            "midi": 62,
            "name": "D4",
            "ticks": 110400,
            "time": 49.285665,
            "velocity": 0.6614173228346457
          },
          {
            "duration": 0.42857100000000514,
            "durationTicks": 960,
            "midi": 65,
            "name": "F4",
            "ticks": 110400,
            "time": 49.285665,
            "velocity": 0.6614173228346457
          },
          {
            "duration": 0.42857099999999804,
            "durationTicks": 960,
            "midi": 57,
            "name": "A3",
            "ticks": 111360,
            "time": 49.71423600000001,
            "velocity": 0.6377952755905512
          },
          {
            "duration": 0.42857099999999804,
            "durationTicks": 960,
            "midi": 62,
            "name": "D4",
            "ticks": 111360,
            "time": 49.71423600000001,
            "velocity": 0.6377952755905512
          },
          {
            "duration": 0.42857099999999804,
            "durationTicks": 960,
            "midi": 65,
            "name": "F4",
            "ticks": 111360,
            "time": 49.71423600000001,
            "velocity": 0.6377952755905512
          },
          {
            "duration": 0.21785692499999953,
            "durationTicks": 488,
            "midi": 75,
            "name": "D#5",
            "ticks": 112320,
            "time": 50.142807000000005,
            "velocity": 0.6062992125984252
          },
          {
            "duration": 0.42857099999999804,
            "durationTicks": 960,
            "midi": 35,
            "name": "B1",
            "ticks": 112320,
            "time": 50.142807000000005,
            "velocity": 0.5826771653543307
          },
          {
            "duration": 0.21785692499999953,
            "durationTicks": 488,
            "midi": 76,
            "name": "E5",
            "ticks": 112800,
            "time": 50.35709250000001,
            "velocity": 0.5905511811023622
          },
          {
            "duration": 0.40669602187499976,
            "durationTicks": 911,
            "midi": 78,
            "name": "F#5",
            "ticks": 113280,
            "time": 50.571378,
            "velocity": 0.6141732283464567
          },
          {
            "duration": 0.42857099999999804,
            "durationTicks": 960,
            "midi": 57,
            "name": "A3",
            "ticks": 113280,
            "time": 50.571378,
            "velocity": 0.6535433070866141
          },
          {
            "duration": 0.42857099999999804,
            "durationTicks": 960,
            "midi": 59,
            "name": "B3",
            "ticks": 113280,
            "time": 50.571378,
            "velocity": 0.6535433070866141
          },
          {
            "duration": 0.42857099999999804,
            "durationTicks": 960,
            "midi": 63,
            "name": "D#4",
            "ticks": 113280,
            "time": 50.571378,
            "velocity": 0.6535433070866141
          },
          {
            "duration": 0.42857100000000514,
            "durationTicks": 960,
            "midi": 78,
            "name": "F#5",
            "ticks": 114240,
            "time": 50.999949,
            "velocity": 0.6141732283464567
          },
          {
            "duration": 0.42857100000000514,
            "durationTicks": 960,
            "midi": 57,
            "name": "A3",
            "ticks": 114240,
            "time": 50.999949,
            "velocity": 0.6299212598425197
          },
          {
            "duration": 0.42857100000000514,
            "durationTicks": 960,
            "midi": 59,
            "name": "B3",
            "ticks": 114240,
            "time": 50.999949,
            "velocity": 0.6299212598425197
          },
          {
            "duration": 0.42857100000000514,
            "durationTicks": 960,
            "midi": 63,
            "name": "D#4",
            "ticks": 114240,
            "time": 50.999949,
            "velocity": 0.6299212598425197
          },
          {
            "duration": 0.21785692499999953,
            "durationTicks": 488,
            "midi": 80,
            "name": "G#5",
            "ticks": 115200,
            "time": 51.428520000000006,
            "velocity": 0.6692913385826772
          },
          {
            "duration": 0.42857099999999804,
            "durationTicks": 960,
            "midi": 40,
            "name": "E2",
            "ticks": 115200,
            "time": 51.428520000000006,
            "velocity": 0.5905511811023622
          },
          {
            "duration": 0.21785692500000664,
            "durationTicks": 488,
            "midi": 81,
            "name": "A5",
            "ticks": 115680,
            "time": 51.6428055,
            "velocity": 0.6377952755905512
          },
          {
            "duration": 0.8138384718750018,
            "durationTicks": 1823,
            "midi": 83,
            "name": "B5",
            "ticks": 116160,
            "time": 51.857091000000004,
            "velocity": 0.6614173228346457
          },
          {
            "duration": 0.42857099999999804,
            "durationTicks": 960,
            "midi": 52,
            "name": "E3",
            "ticks": 116160,
            "time": 51.857091000000004,
            "velocity": 0.6535433070866141
          },
          {
            "duration": 0.42857099999999804,
            "durationTicks": 960,
            "midi": 59,
            "name": "B3",
            "ticks": 116160,
            "time": 51.857091000000004,
            "velocity": 0.6535433070866141
          },
          {
            "duration": 0.42857099999999804,
            "durationTicks": 960,
            "midi": 62,
            "name": "D4",
            "ticks": 116160,
            "time": 51.857091000000004,
            "velocity": 0.6535433070866141
          },
          {
            "duration": 0.21785692499999953,
            "durationTicks": 488,
            "midi": 83,
            "name": "B5",
            "ticks": 118080,
            "time": 52.71423300000001,
            "velocity": 0.6535433070866141
          },
          {
            "duration": 0.42857099999999804,
            "durationTicks": 960,
            "midi": 40,
            "name": "E2",
            "ticks": 118080,
            "time": 52.71423300000001,
            "velocity": 0.6062992125984252
          },
          {
            "duration": 0.21785692500000664,
            "durationTicks": 488,
            "midi": 85,
            "name": "C#6",
            "ticks": 118560,
            "time": 52.9285185,
            "velocity": 0.6377952755905512
          },
          {
            "duration": 0.21785692499999953,
            "durationTicks": 488,
            "midi": 86,
            "name": "D6",
            "ticks": 119040,
            "time": 53.142804000000005,
            "velocity": 0.6377952755905512
          },
          {
            "duration": 0.42857099999999804,
            "durationTicks": 960,
            "midi": 52,
            "name": "E3",
            "ticks": 119040,
            "time": 53.142804000000005,
            "velocity": 0.6614173228346457
          },
          {
            "duration": 0.42857099999999804,
            "durationTicks": 960,
            "midi": 56,
            "name": "G#3",
            "ticks": 119040,
            "time": 53.142804000000005,
            "velocity": 0.6614173228346457
          },
          {
            "duration": 0.42857099999999804,
            "durationTicks": 960,
            "midi": 62,
            "name": "D4",
            "ticks": 119040,
            "time": 53.142804000000005,
            "velocity": 0.6614173228346457
          },
          {
            "duration": 0.21785692499999953,
            "durationTicks": 488,
            "midi": 90,
            "name": "F#6",
            "ticks": 119520,
            "time": 53.35708950000001,
            "velocity": 0.6771653543307087
          },
          {
            "duration": 0.21785692500000664,
            "durationTicks": 488,
            "midi": 88,
            "name": "E6",
            "ticks": 120000,
            "time": 53.571375,
            "velocity": 0.6377952755905512
          },
          {
            "duration": 0.42857099999999804,
            "durationTicks": 960,
            "midi": 52,
            "name": "E3",
            "ticks": 120000,
            "time": 53.571375,
            "velocity": 0.6377952755905512
          },
          {
            "duration": 0.42857099999999804,
            "durationTicks": 960,
            "midi": 56,
            "name": "G#3",
            "ticks": 120000,
            "time": 53.571375,
            "velocity": 0.6377952755905512
          },
          {
            "duration": 0.42857099999999804,
            "durationTicks": 960,
            "midi": 62,
            "name": "D4",
            "ticks": 120000,
            "time": 53.571375,
            "velocity": 0.6377952755905512
          },
          {
            "duration": 0.21785692499999953,
            "durationTicks": 488,
            "midi": 86,
            "name": "D6",
            "ticks": 120480,
            "time": 53.785660500000006,
            "velocity": 0.5905511811023622
          },
          {
            "duration": 0.06517850625000676,
            "durationTicks": 146,
            "midi": 85,
            "name": "C#6",
            "ticks": 120960,
            "time": 53.999946,
            "velocity": 0.6220472440944882
          },
          {
            "duration": 0.42857100000000514,
            "durationTicks": 960,
            "midi": 45,
            "name": "A2",
            "ticks": 120960,
            "time": 53.999946,
            "velocity": 0.5905511811023622
          },
          {
            "duration": 0.06562493437500194,
            "durationTicks": 147,
            "midi": 86,
            "name": "D6",
            "ticks": 121106,
            "time": 54.06512450625001,
            "velocity": 0.6220472440944882
          },
          {
            "duration": 0.08705348437499794,
            "durationTicks": 195,
            "midi": 85,
            "name": "C#6",
            "ticks": 121253,
            "time": 54.13074944062501,
            "velocity": 0.6220472440944882
          },
          {
            "duration": 0.21785692500000664,
            "durationTicks": 488,
            "midi": 83,
            "name": "B5",
            "ticks": 121440,
            "time": 54.214231500000004,
            "velocity": 0.5433070866141733
          },
          {
            "duration": 0.21785692499999953,
            "durationTicks": 488,
            "midi": 85,
            "name": "C#6",
            "ticks": 121920,
            "time": 54.42851700000001,
            "velocity": 0.5905511811023622
          },
          {
            "duration": 0.42857099999999804,
            "durationTicks": 960,
            "midi": 52,
            "name": "E3",
            "ticks": 121920,
            "time": 54.42851700000001,
            "velocity": 0.6535433070866141
          },
          {
            "duration": 0.42857099999999804,
            "durationTicks": 960,
            "midi": 57,
            "name": "A3",
            "ticks": 121920,
            "time": 54.42851700000001,
            "velocity": 0.6535433070866141
          },
          {
            "duration": 0.42857099999999804,
            "durationTicks": 960,
            "midi": 61,
            "name": "C#4",
            "ticks": 121920,
            "time": 54.42851700000001,
            "velocity": 0.6535433070866141
          },
          {
            "duration": 0.21785692499999953,
            "durationTicks": 488,
            "midi": 80,
            "name": "G#5",
            "ticks": 122400,
            "time": 54.6428025,
            "velocity": 0.5196850393700787
          },
          {
            "duration": 0.21785692499999953,
            "durationTicks": 488,
            "midi": 81,
            "name": "A5",
            "ticks": 122880,
            "time": 54.857088000000005,
            "velocity": 0.5354330708661418
          },
          {
            "duration": 0.42857099999999804,
            "durationTicks": 960,
            "midi": 52,
            "name": "E3",
            "ticks": 122880,
            "time": 54.857088000000005,
            "velocity": 0.6377952755905512
          },
          {
            "duration": 0.42857099999999804,
            "durationTicks": 960,
            "midi": 57,
            "name": "A3",
            "ticks": 122880,
            "time": 54.857088000000005,
            "velocity": 0.6377952755905512
          },
          {
            "duration": 0.42857099999999804,
            "durationTicks": 960,
            "midi": 61,
            "name": "C#4",
            "ticks": 122880,
            "time": 54.857088000000005,
            "velocity": 0.6377952755905512
          },
          {
            "duration": 0.2026783687499929,
            "durationTicks": 454,
            "midi": 78,
            "name": "F#5",
            "ticks": 123360,
            "time": 55.07137350000001,
            "velocity": 0.5196850393700787
          },
          {
            "duration": 0.053571375000004195,
            "durationTicks": 120,
            "midi": 76,
            "name": "E5",
            "ticks": 123840,
            "time": 55.285659,
            "velocity": 0.5433070866141733
          },
          {
            "duration": 0.42857100000000514,
            "durationTicks": 960,
            "midi": 40,
            "name": "E2",
            "ticks": 123840,
            "time": 55.285659,
            "velocity": 0.5826771653543307
          },
          {
            "duration": 0.05357137499999709,
            "durationTicks": 120,
            "midi": 78,
            "name": "F#5",
            "ticks": 123960,
            "time": 55.33923037500001,
            "velocity": 0.5354330708661418
          },
          {
            "duration": 0.10223204062499747,
            "durationTicks": 229,
            "midi": 76,
            "name": "E5",
            "ticks": 124080,
            "time": 55.392801750000004,
            "velocity": 0.5196850393700787
          },
          {
            "duration": 0.21785692499999953,
            "durationTicks": 488,
            "midi": 74,
            "name": "D5",
            "ticks": 124320,
            "time": 55.499944500000005,
            "velocity": 0.5118110236220472
          },
          {
            "duration": 0.21785692499999243,
            "durationTicks": 488,
            "midi": 68,
            "name": "G#4",
            "ticks": 124800,
            "time": 55.71423000000001,
            "velocity": 0.5118110236220472
          },
          {
            "duration": 0.42857099999999804,
            "durationTicks": 960,
            "midi": 52,
            "name": "E3",
            "ticks": 124800,
            "time": 55.71423000000001,
            "velocity": 0.6614173228346457
          },
          {
            "duration": 0.42857099999999804,
            "durationTicks": 960,
            "midi": 59,
            "name": "B3",
            "ticks": 124800,
            "time": 55.71423000000001,
            "velocity": 0.6614173228346457
          },
          {
            "duration": 0.42857099999999804,
            "durationTicks": 960,
            "midi": 62,
            "name": "D4",
            "ticks": 124800,
            "time": 55.71423000000001,
            "velocity": 0.6614173228346457
          },
          {
            "duration": 0.21785692499999953,
            "durationTicks": 488,
            "midi": 78,
            "name": "F#5",
            "ticks": 125280,
            "time": 55.9285155,
            "velocity": 0.6377952755905512
          },
          {
            "duration": 0.40669602187499976,
            "durationTicks": 911,
            "midi": 76,
            "name": "E5",
            "ticks": 125760,
            "time": 56.142801000000006,
            "velocity": 0.5905511811023622
          },
          {
            "duration": 0.42857099999999804,
            "durationTicks": 960,
            "midi": 52,
            "name": "E3",
            "ticks": 125760,
            "time": 56.142801000000006,
            "velocity": 0.6377952755905512
          },
          {
            "duration": 0.42857099999999804,
            "durationTicks": 960,
            "midi": 59,
            "name": "B3",
            "ticks": 125760,
            "time": 56.142801000000006,
            "velocity": 0.6377952755905512
          },
          {
            "duration": 0.42857099999999804,
            "durationTicks": 960,
            "midi": 62,
            "name": "D4",
            "ticks": 125760,
            "time": 56.142801000000006,
            "velocity": 0.6377952755905512
          },
          {
            "duration": 0.053571375000004195,
            "durationTicks": 120,
            "midi": 76,
            "name": "E5",
            "ticks": 126720,
            "time": 56.571372000000004,
            "velocity": 0.6377952755905512
          },
          {
            "duration": 0.42857099999999804,
            "durationTicks": 960,
            "midi": 45,
            "name": "A2",
            "ticks": 126720,
            "time": 56.571372000000004,
            "velocity": 0.5826771653543307
          },
          {
            "duration": 0.05357137499999709,
            "durationTicks": 120,
            "midi": 78,
            "name": "F#5",
            "ticks": 126840,
            "time": 56.62494337500001,
            "velocity": 0.6377952755905512
          },
          {
            "duration": 0.10892846249999621,
            "durationTicks": 244,
            "midi": 76,
            "name": "E5",
            "ticks": 126960,
            "time": 56.678514750000005,
            "velocity": 0.6062992125984252
          },
          {
            "duration": 0.21785692499999243,
            "durationTicks": 488,
            "midi": 73,
            "name": "C#5",
            "ticks": 127200,
            "time": 56.785657500000006,
            "velocity": 0.5590551181102362
          },
          {
            "duration": 0.21785692499999953,
            "durationTicks": 488,
            "midi": 69,
            "name": "A4",
            "ticks": 127680,
            "time": 56.999943,
            "velocity": 0.5196850393700787
          },
          {
            "duration": 0.42857100000000514,
            "durationTicks": 960,
            "midi": 52,
            "name": "E3",
            "ticks": 127680,
            "time": 56.999943,
            "velocity": 0.6535433070866141
          },
          {
            "duration": 0.42857100000000514,
            "durationTicks": 960,
            "midi": 57,
            "name": "A3",
            "ticks": 127680,
            "time": 56.999943,
            "velocity": 0.6535433070866141
          },
          {
            "duration": 0.42857100000000514,
            "durationTicks": 960,
            "midi": 61,
            "name": "C#4",
            "ticks": 127680,
            "time": 56.999943,
            "velocity": 0.6535433070866141
          },
          {
            "duration": 0.21785692499999953,
            "durationTicks": 488,
            "midi": 78,
            "name": "F#5",
            "ticks": 128160,
            "time": 57.214228500000004,
            "velocity": 0.6771653543307087
          },
          {
            "duration": 0.40669602187499976,
            "durationTicks": 911,
            "midi": 76,
            "name": "E5",
            "ticks": 128640,
            "time": 57.42851400000001,
            "velocity": 0.6377952755905512
          },
          {
            "duration": 0.42857099999999804,
            "durationTicks": 960,
            "midi": 52,
            "name": "E3",
            "ticks": 128640,
            "time": 57.42851400000001,
            "velocity": 0.6377952755905512
          },
          {
            "duration": 0.42857099999999804,
            "durationTicks": 960,
            "midi": 57,
            "name": "A3",
            "ticks": 128640,
            "time": 57.42851400000001,
            "velocity": 0.6377952755905512
          },
          {
            "duration": 0.42857099999999804,
            "durationTicks": 960,
            "midi": 61,
            "name": "C#4",
            "ticks": 128640,
            "time": 57.42851400000001,
            "velocity": 0.6377952755905512
          },
          {
            "duration": 0.21785692499999953,
            "durationTicks": 488,
            "midi": 83,
            "name": "B5",
            "ticks": 129600,
            "time": 57.857085000000005,
            "velocity": 0.7322834645669292
          },
          {
            "duration": 0.42857099999999804,
            "durationTicks": 960,
            "midi": 40,
            "name": "E2",
            "ticks": 129600,
            "time": 57.857085000000005,
            "velocity": 0.5826771653543307
          },
          {
            "duration": 0.21785692499999243,
            "durationTicks": 488,
            "midi": 85,
            "name": "C#6",
            "ticks": 130080,
            "time": 58.07137050000001,
            "velocity": 0.6929133858267716
          },
          {
            "duration": 0.21785692499999953,
            "durationTicks": 488,
            "midi": 86,
            "name": "D6",
            "ticks": 130560,
            "time": 58.285656,
            "velocity": 0.6850393700787402
          },
          {
            "duration": 0.42857100000000514,
            "durationTicks": 960,
            "midi": 52,
            "name": "E3",
            "ticks": 130560,
            "time": 58.285656,
            "velocity": 0.6614173228346457
          },
          {
            "duration": 0.42857100000000514,
            "durationTicks": 960,
            "midi": 56,
            "name": "G#3",
            "ticks": 130560,
            "time": 58.285656,
            "velocity": 0.6614173228346457
          },
          {
            "duration": 0.42857100000000514,
            "durationTicks": 960,
            "midi": 62,
            "name": "D4",
            "ticks": 130560,
            "time": 58.285656,
            "velocity": 0.6614173228346457
          },
          {
            "duration": 0.21785692499999953,
            "durationTicks": 488,
            "midi": 90,
            "name": "F#6",
            "ticks": 131040,
            "time": 58.499941500000006,
            "velocity": 0.6929133858267716
          },
          {
            "duration": 0.21785692499999243,
            "durationTicks": 488,
            "midi": 88,
            "name": "E6",
            "ticks": 131520,
            "time": 58.71422700000001,
            "velocity": 0.6692913385826772
          },
          {
            "duration": 0.42857099999999804,
            "durationTicks": 960,
            "midi": 52,
            "name": "E3",
            "ticks": 131520,
            "time": 58.71422700000001,
            "velocity": 0.6377952755905512
          },
          {
            "duration": 0.42857099999999804,
            "durationTicks": 960,
            "midi": 56,
            "name": "G#3",
            "ticks": 131520,
            "time": 58.71422700000001,
            "velocity": 0.6377952755905512
          },
          {
            "duration": 0.42857099999999804,
            "durationTicks": 960,
            "midi": 62,
            "name": "D4",
            "ticks": 131520,
            "time": 58.71422700000001,
            "velocity": 0.6377952755905512
          },
          {
            "duration": 0.21785692499999953,
            "durationTicks": 488,
            "midi": 86,
            "name": "D6",
            "ticks": 132000,
            "time": 58.928512500000004,
            "velocity": 0.6220472440944882
          },
          {
            "duration": 0.06517850624999966,
            "durationTicks": 146,
            "midi": 85,
            "name": "C#6",
            "ticks": 132480,
            "time": 59.142798000000006,
            "velocity": 0.6456692913385826
          },
          {
            "duration": 0.42857099999999804,
            "durationTicks": 960,
            "midi": 45,
            "name": "A2",
            "ticks": 132480,
            "time": 59.142798000000006,
            "velocity": 0.5826771653543307
          },
          {
            "duration": 0.06562493437499484,
            "durationTicks": 147,
            "midi": 86,
            "name": "D6",
            "ticks": 132626,
            "time": 59.207976506250006,
            "velocity": 0.6456692913385826
          },
          {
            "duration": 0.08705348437499794,
            "durationTicks": 195,
            "midi": 85,
            "name": "C#6",
            "ticks": 132773,
            "time": 59.273601440625,
            "velocity": 0.6456692913385826
          },
          {
            "duration": 0.21785692499999953,
            "durationTicks": 488,
            "midi": 83,
            "name": "B5",
            "ticks": 132960,
            "time": 59.3570835,
            "velocity": 0.5511811023622047
          },
          {
            "duration": 0.21785692499999953,
            "durationTicks": 488,
            "midi": 85,
            "name": "C#6",
            "ticks": 133440,
            "time": 59.571369000000004,
            "velocity": 0.5984251968503937
          },
          {
            "duration": 0.42857099999999804,
            "durationTicks": 960,
            "midi": 52,
            "name": "E3",
            "ticks": 133440,
            "time": 59.571369000000004,
            "velocity": 0.6535433070866141
          },
          {
            "duration": 0.42857099999999804,
            "durationTicks": 960,
            "midi": 57,
            "name": "A3",
            "ticks": 133440,
            "time": 59.571369000000004,
            "velocity": 0.6535433070866141
          },
          {
            "duration": 0.42857099999999804,
            "durationTicks": 960,
            "midi": 61,
            "name": "C#4",
            "ticks": 133440,
            "time": 59.571369000000004,
            "velocity": 0.6535433070866141
          },
          {
            "duration": 0.21785692499999243,
            "durationTicks": 488,
            "midi": 80,
            "name": "G#5",
            "ticks": 133920,
            "time": 59.78565450000001,
            "velocity": 0.5196850393700787
          },
          {
            "duration": 0.21785692499999953,
            "durationTicks": 488,
            "midi": 81,
            "name": "A5",
            "ticks": 134400,
            "time": 59.99994,
            "velocity": 0.5433070866141733
          },
          {
            "duration": 0.42857100000000514,
            "durationTicks": 960,
            "midi": 52,
            "name": "E3",
            "ticks": 134400,
            "time": 59.99994,
            "velocity": 0.6377952755905512
          },
          {
            "duration": 0.42857100000000514,
            "durationTicks": 960,
            "midi": 57,
            "name": "A3",
            "ticks": 134400,
            "time": 59.99994,
            "velocity": 0.6377952755905512
          },
          {
            "duration": 0.42857100000000514,
            "durationTicks": 960,
            "midi": 61,
            "name": "C#4",
            "ticks": 134400,
            "time": 59.99994,
            "velocity": 0.6377952755905512
          },
          {
            "duration": 0.20267836875,
            "durationTicks": 454,
            "midi": 78,
            "name": "F#5",
            "ticks": 134880,
            "time": 60.214225500000005,
            "velocity": 0.5196850393700787
          },
          {
            "duration": 0.05357137499999709,
            "durationTicks": 120,
            "midi": 76,
            "name": "E5",
            "ticks": 135360,
            "time": 60.42851100000001,
            "velocity": 0.5433070866141733
          },
          {
            "duration": 0.42857099999999804,
            "durationTicks": 960,
            "midi": 40,
            "name": "E2",
            "ticks": 135360,
            "time": 60.42851100000001,
            "velocity": 0.5826771653543307
          },
          {
            "duration": 0.05357137499999709,
            "durationTicks": 120,
            "midi": 78,
            "name": "F#5",
            "ticks": 135480,
            "time": 60.482082375000005,
            "velocity": 0.5275590551181102
          },
          {
            "duration": 0.10892846250000332,
            "durationTicks": 244,
            "midi": 76,
            "name": "E5",
            "ticks": 135600,
            "time": 60.53565375,
            "velocity": 0.5196850393700787
          },
          {
            "duration": 0.21785692499999953,
            "durationTicks": 488,
            "midi": 74,
            "name": "D5",
            "ticks": 135840,
            "time": 60.6427965,
            "velocity": 0.5118110236220472
          },
          {
            "duration": 0.21785692499999953,
            "durationTicks": 488,
            "midi": 68,
            "name": "G#4",
            "ticks": 136320,
            "time": 60.857082000000005,
            "velocity": 0.5118110236220472
          },
          {
            "duration": 0.42857099999999804,
            "durationTicks": 960,
            "midi": 52,
            "name": "E3",
            "ticks": 136320,
            "time": 60.857082000000005,
            "velocity": 0.6614173228346457
          },
          {
            "duration": 0.42857099999999804,
            "durationTicks": 960,
            "midi": 59,
            "name": "B3",
            "ticks": 136320,
            "time": 60.857082000000005,
            "velocity": 0.6614173228346457
          },
          {
            "duration": 0.42857099999999804,
            "durationTicks": 960,
            "midi": 62,
            "name": "D4",
            "ticks": 136320,
            "time": 60.857082000000005,
            "velocity": 0.6614173228346457
          },
          {
            "duration": 0.21785692499999243,
            "durationTicks": 488,
            "midi": 78,
            "name": "F#5",
            "ticks": 136800,
            "time": 61.07136750000001,
            "velocity": 0.6377952755905512
          },
          {
            "duration": 0.21785692499999953,
            "durationTicks": 488,
            "midi": 76,
            "name": "E5",
            "ticks": 137280,
            "time": 61.285653,
            "velocity": 0.5905511811023622
          },
          {
            "duration": 0.42857099999999804,
            "durationTicks": 960,
            "midi": 52,
            "name": "E3",
            "ticks": 137280,
            "time": 61.285653,
            "velocity": 0.6377952755905512
          },
          {
            "duration": 0.42857099999999804,
            "durationTicks": 960,
            "midi": 59,
            "name": "B3",
            "ticks": 137280,
            "time": 61.285653,
            "velocity": 0.6377952755905512
          },
          {
            "duration": 0.42857099999999804,
            "durationTicks": 960,
            "midi": 62,
            "name": "D4",
            "ticks": 137280,
            "time": 61.285653,
            "velocity": 0.6377952755905512
          },
          {
            "duration": 0.21785692499999243,
            "durationTicks": 488,
            "midi": 68,
            "name": "G#4",
            "ticks": 137760,
            "time": 61.499938500000006,
            "velocity": 0.5118110236220472
          },
          {
            "duration": 0.40669602187500686,
            "durationTicks": 911,
            "midi": 69,
            "name": "A4",
            "ticks": 138240,
            "time": 61.714224,
            "velocity": 0.5433070866141733
          },
          {
            "duration": 0.42857100000000514,
            "durationTicks": 960,
            "midi": 45,
            "name": "A2",
            "ticks": 138240,
            "time": 61.714224,
            "velocity": 0.5826771653543307
          },
          {
            "duration": 0.42857099999999804,
            "durationTicks": 960,
            "midi": 52,
            "name": "E3",
            "ticks": 139200,
            "time": 62.14279500000001,
            "velocity": 0.6535433070866141
          },
          {
            "duration": 0.42857099999999804,
            "durationTicks": 960,
            "midi": 61,
            "name": "C#4",
            "ticks": 139200,
            "time": 62.14279500000001,
            "velocity": 0.6535433070866141
          },
          {
            "duration": 0.42857099999999804,
            "durationTicks": 960,
            "midi": 64,
            "name": "E4",
            "ticks": 140160,
            "time": 62.571366000000005,
            "velocity": 0.5275590551181102
          },
          {
            "duration": 0.21785692499999953,
            "durationTicks": 488,
            "midi": 69,
            "name": "A4",
            "ticks": 141120,
            "time": 62.999937,
            "velocity": 0.6456692913385826
          },
          {
            "duration": 0.42857100000000514,
            "durationTicks": 960,
            "midi": 33,
            "name": "A1",
            "ticks": 141120,
            "time": 62.999937,
            "velocity": 0.5984251968503937
          },
          {
            "duration": 0.21785692499999953,
            "durationTicks": 488,
            "midi": 71,
            "name": "B4",
            "ticks": 141600,
            "time": 63.214222500000005,
            "velocity": 0.6299212598425197
          },
          {
            "duration": 0.40669602187499976,
            "durationTicks": 911,
            "midi": 72,
            "name": "C5",
            "ticks": 142080,
            "time": 63.42850800000001,
            "velocity": 0.6456692913385826
          },
          {
            "duration": 0.42857099999999804,
            "durationTicks": 960,
            "midi": 57,
            "name": "A3",
            "ticks": 142080,
            "time": 63.42850800000001,
            "velocity": 0.6614173228346457
          },
          {
            "duration": 0.42857099999999804,
            "durationTicks": 960,
            "midi": 60,
            "name": "C4",
            "ticks": 142080,
            "time": 63.42850800000001,
            "velocity": 0.6614173228346457
          },
          {
            "duration": 0.42857099999999804,
            "durationTicks": 960,
            "midi": 64,
            "name": "E4",
            "ticks": 142080,
            "time": 63.42850800000001,
            "velocity": 0.6614173228346457
          },
          {
            "duration": 0.42857099999999804,
            "durationTicks": 960,
            "midi": 72,
            "name": "C5",
            "ticks": 143040,
            "time": 63.857079000000006,
            "velocity": 0.6299212598425197
          },
          {
            "duration": 0.42857099999999804,
            "durationTicks": 960,
            "midi": 57,
            "name": "A3",
            "ticks": 143040,
            "time": 63.857079000000006,
            "velocity": 0.6377952755905512
          },
          {
            "duration": 0.42857099999999804,
            "durationTicks": 960,
            "midi": 60,
            "name": "C4",
            "ticks": 143040,
            "time": 63.857079000000006,
            "velocity": 0.6377952755905512
          },
          {
            "duration": 0.42857099999999804,
            "durationTicks": 960,
            "midi": 64,
            "name": "E4",
            "ticks": 143040,
            "time": 63.857079000000006,
            "velocity": 0.6377952755905512
          },
          {
            "duration": 0.21785692499999243,
            "durationTicks": 488,
            "midi": 74,
            "name": "D5",
            "ticks": 144000,
            "time": 64.28565,
            "velocity": 0.6771653543307087
          },
          {
            "duration": 0.42857100000000514,
            "durationTicks": 960,
            "midi": 38,
            "name": "D2",
            "ticks": 144000,
            "time": 64.28565,
            "velocity": 0.5984251968503937
          },
          {
            "duration": 0.21785692499999243,
            "durationTicks": 488,
            "midi": 76,
            "name": "E5",
            "ticks": 144480,
            "time": 64.4999355,
            "velocity": 0.6614173228346457
          },
          {
            "duration": 0.8138384718749876,
            "durationTicks": 1823,
            "midi": 77,
            "name": "F5",
            "ticks": 144960,
            "time": 64.71422100000001,
            "velocity": 0.6614173228346457
          },
          {
            "duration": 0.42857099999999093,
            "durationTicks": 960,
            "midi": 57,
            "name": "A3",
            "ticks": 144960,
            "time": 64.71422100000001,
            "velocity": 0.6614173228346457
          },
          {
            "duration": 0.42857099999999093,
            "durationTicks": 960,
            "midi": 62,
            "name": "D4",
            "ticks": 144960,
            "time": 64.71422100000001,
            "velocity": 0.6614173228346457
          },
          {
            "duration": 0.42857099999999093,
            "durationTicks": 960,
            "midi": 65,
            "name": "F4",
            "ticks": 144960,
            "time": 64.71422100000001,
            "velocity": 0.6614173228346457
          },
          {
            "duration": 0.42857100000000514,
            "durationTicks": 960,
            "midi": 57,
            "name": "A3",
            "ticks": 145920,
            "time": 65.142792,
            "velocity": 0.6377952755905512
          },
          {
            "duration": 0.42857100000000514,
            "durationTicks": 960,
            "midi": 62,
            "name": "D4",
            "ticks": 145920,
            "time": 65.142792,
            "velocity": 0.6377952755905512
          },
          {
            "duration": 0.42857100000000514,
            "durationTicks": 960,
            "midi": 65,
            "name": "F4",
            "ticks": 145920,
            "time": 65.142792,
            "velocity": 0.6377952755905512
          },
          {
            "duration": 0.21785692499999243,
            "durationTicks": 488,
            "midi": 71,
            "name": "B4",
            "ticks": 146880,
            "time": 65.571363,
            "velocity": 0.5984251968503937
          },
          {
            "duration": 0.42857100000000514,
            "durationTicks": 960,
            "midi": 43,
            "name": "G2",
            "ticks": 146880,
            "time": 65.571363,
            "velocity": 0.5905511811023622
          },
          {
            "duration": 0.21785692499999243,
            "durationTicks": 488,
            "midi": 72,
            "name": "C5",
            "ticks": 147360,
            "time": 65.78564850000001,
            "velocity": 0.5826771653543307
          },
          {
            "duration": 0.21785692499999243,
            "durationTicks": 488,
            "midi": 74,
            "name": "D5",
            "ticks": 147840,
            "time": 65.99993400000001,
            "velocity": 0.6141732283464567
          },
          {
            "duration": 0.42857099999999093,
            "durationTicks": 960,
            "midi": 55,
            "name": "G3",
            "ticks": 147840,
            "time": 65.99993400000001,
            "velocity": 0.6614173228346457
          },
          {
            "duration": 0.42857099999999093,
            "durationTicks": 960,
            "midi": 59,
            "name": "B3",
            "ticks": 147840,
            "time": 65.99993400000001,
            "velocity": 0.6614173228346457
          },
          {
            "duration": 0.42857099999999093,
            "durationTicks": 960,
            "midi": 65,
            "name": "F4",
            "ticks": 147840,
            "time": 65.99993400000001,
            "velocity": 0.6614173228346457
          },
          {
            "duration": 0.21785692500000664,
            "durationTicks": 488,
            "midi": 81,
            "name": "A5",
            "ticks": 148320,
            "time": 66.2142195,
            "velocity": 0.6929133858267716
          },
          {
            "duration": 0.21785692500000664,
            "durationTicks": 488,
            "midi": 79,
            "name": "G5",
            "ticks": 148800,
            "time": 66.428505,
            "velocity": 0.6614173228346457
          },
          {
            "duration": 0.42857100000000514,
            "durationTicks": 960,
            "midi": 55,
            "name": "G3",
            "ticks": 148800,
            "time": 66.428505,
            "velocity": 0.6377952755905512
          },
          {
            "duration": 0.42857100000000514,
            "durationTicks": 960,
            "midi": 59,
            "name": "B3",
            "ticks": 148800,
            "time": 66.428505,
            "velocity": 0.6377952755905512
          },
          {
            "duration": 0.42857100000000514,
            "durationTicks": 960,
            "midi": 65,
            "name": "F4",
            "ticks": 148800,
            "time": 66.428505,
            "velocity": 0.6377952755905512
          },
          {
            "duration": 0.20267836875,
            "durationTicks": 454,
            "midi": 77,
            "name": "F5",
            "ticks": 149280,
            "time": 66.6427905,
            "velocity": 0.6141732283464567
          },
          {
            "duration": 0.053571375000004195,
            "durationTicks": 120,
            "midi": 76,
            "name": "E5",
            "ticks": 149760,
            "time": 66.857076,
            "velocity": 0.6220472440944882
          },
          {
            "duration": 0.42857100000000514,
            "durationTicks": 960,
            "midi": 48,
            "name": "C3",
            "ticks": 149760,
            "time": 66.857076,
            "velocity": 0.5748031496062992
          },
          {
            "duration": 0.053571374999989985,
            "durationTicks": 120,
            "midi": 77,
            "name": "F5",
            "ticks": 149880,
            "time": 66.91064737500001,
            "velocity": 0.6062992125984252
          },
          {
            "duration": 0.10892846250000332,
            "durationTicks": 244,
            "midi": 76,
            "name": "E5",
            "ticks": 150000,
            "time": 66.96421875,
            "velocity": 0.5905511811023622
          },
          {
            "duration": 0.21785692499999243,
            "durationTicks": 488,
            "midi": 75,
            "name": "D#5",
            "ticks": 150240,
            "time": 67.07136150000001,
            "velocity": 0.5748031496062992
          },
          {
            "duration": 0.8138384718749876,
            "durationTicks": 1823,
            "midi": 76,
            "name": "E5",
            "ticks": 150720,
            "time": 67.28564700000001,
            "velocity": 0.5984251968503937
          },
          {
            "duration": 0.42857099999999093,
            "durationTicks": 960,
            "midi": 55,
            "name": "G3",
            "ticks": 150720,
            "time": 67.28564700000001,
            "velocity": 0.6535433070866141
          },
          {
            "duration": 0.42857099999999093,
            "durationTicks": 960,
            "midi": 60,
            "name": "C4",
            "ticks": 150720,
            "time": 67.28564700000001,
            "velocity": 0.6535433070866141
          },
          {
            "duration": 0.42857099999999093,
            "durationTicks": 960,
            "midi": 64,
            "name": "E4",
            "ticks": 150720,
            "time": 67.28564700000001,
            "velocity": 0.6535433070866141
          },
          {
            "duration": 0.42857100000000514,
            "durationTicks": 960,
            "midi": 55,
            "name": "G3",
            "ticks": 151680,
            "time": 67.714218,
            "velocity": 0.6377952755905512
          },
          {
            "duration": 0.42857100000000514,
            "durationTicks": 960,
            "midi": 60,
            "name": "C4",
            "ticks": 151680,
            "time": 67.714218,
            "velocity": 0.6377952755905512
          },
          {
            "duration": 0.42857100000000514,
            "durationTicks": 960,
            "midi": 64,
            "name": "E4",
            "ticks": 151680,
            "time": 67.714218,
            "velocity": 0.6377952755905512
          },
          {
            "duration": 0.21785692499999243,
            "durationTicks": 488,
            "midi": 72,
            "name": "C5",
            "ticks": 152640,
            "time": 68.14278900000001,
            "velocity": 0.5905511811023622
          },
          {
            "duration": 0.42857099999999093,
            "durationTicks": 960,
            "midi": 45,
            "name": "A2",
            "ticks": 152640,
            "time": 68.14278900000001,
            "velocity": 0.5748031496062992
          },
          {
            "duration": 0.21785692499999243,
            "durationTicks": 488,
            "midi": 74,
            "name": "D5",
            "ticks": 153120,
            "time": 68.35707450000001,
            "velocity": 0.5905511811023622
          },
          {
            "duration": 0.40669602187500686,
            "durationTicks": 911,
            "midi": 76,
            "name": "E5",
            "ticks": 153600,
            "time": 68.57136,
            "velocity": 0.6220472440944882
          },
          {
            "duration": 0.42857100000000514,
            "durationTicks": 960,
            "midi": 57,
            "name": "A3",
            "ticks": 153600,
            "time": 68.57136,
            "velocity": 0.6614173228346457
          },
          {
            "duration": 0.42857100000000514,
            "durationTicks": 960,
            "midi": 60,
            "name": "C4",
            "ticks": 153600,
            "time": 68.57136,
            "velocity": 0.6614173228346457
          },
          {
            "duration": 0.42857100000000514,
            "durationTicks": 960,
            "midi": 64,
            "name": "E4",
            "ticks": 153600,
            "time": 68.57136,
            "velocity": 0.6614173228346457
          },
          {
            "duration": 0.42857100000000514,
            "durationTicks": 960,
            "midi": 76,
            "name": "E5",
            "ticks": 154560,
            "time": 68.999931,
            "velocity": 0.6220472440944882
          },
          {
            "duration": 0.42857100000000514,
            "durationTicks": 960,
            "midi": 57,
            "name": "A3",
            "ticks": 154560,
            "time": 68.999931,
            "velocity": 0.6377952755905512
          },
          {
            "duration": 0.42857100000000514,
            "durationTicks": 960,
            "midi": 60,
            "name": "C4",
            "ticks": 154560,
            "time": 68.999931,
            "velocity": 0.6377952755905512
          },
          {
            "duration": 0.42857100000000514,
            "durationTicks": 960,
            "midi": 64,
            "name": "E4",
            "ticks": 154560,
            "time": 68.999931,
            "velocity": 0.6377952755905512
          },
          {
            "duration": 0.21785692499999243,
            "durationTicks": 488,
            "midi": 77,
            "name": "F5",
            "ticks": 155520,
            "time": 69.42850200000001,
            "velocity": 0.6614173228346457
          },
          {
            "duration": 0.42857099999999093,
            "durationTicks": 960,
            "midi": 38,
            "name": "D2",
            "ticks": 155520,
            "time": 69.42850200000001,
            "velocity": 0.5748031496062992
          },
          {
            "duration": 0.21785692499999243,
            "durationTicks": 488,
            "midi": 79,
            "name": "G5",
            "ticks": 156000,
            "time": 69.64278750000001,
            "velocity": 0.6456692913385826
          },
          {
            "duration": 0.8138384718750018,
            "durationTicks": 1823,
            "midi": 81,
            "name": "A5",
            "ticks": 156480,
            "time": 69.857073,
            "velocity": 0.6614173228346457
          },
          {
            "duration": 0.42857100000000514,
            "durationTicks": 960,
            "midi": 57,
            "name": "A3",
            "ticks": 156480,
            "time": 69.857073,
            "velocity": 0.6614173228346457
          },
          {
            "duration": 0.42857100000000514,
            "durationTicks": 960,
            "midi": 62,
            "name": "D4",
            "ticks": 156480,
            "time": 69.857073,
            "velocity": 0.6614173228346457
          },
          {
            "duration": 0.42857100000000514,
            "durationTicks": 960,
            "midi": 65,
            "name": "F4",
            "ticks": 156480,
            "time": 69.857073,
            "velocity": 0.6614173228346457
          },
          {
            "duration": 0.42857100000000514,
            "durationTicks": 960,
            "midi": 57,
            "name": "A3",
            "ticks": 157440,
            "time": 70.285644,
            "velocity": 0.6377952755905512
          },
          {
            "duration": 0.42857100000000514,
            "durationTicks": 960,
            "midi": 62,
            "name": "D4",
            "ticks": 157440,
            "time": 70.285644,
            "velocity": 0.6377952755905512
          },
          {
            "duration": 0.42857100000000514,
            "durationTicks": 960,
            "midi": 65,
            "name": "F4",
            "ticks": 157440,
            "time": 70.285644,
            "velocity": 0.6377952755905512
          },
          {
            "duration": 0.21785692499999243,
            "durationTicks": 488,
            "midi": 75,
            "name": "D#5",
            "ticks": 158400,
            "time": 70.71421500000001,
            "velocity": 0.6062992125984252
          },
          {
            "duration": 0.42857099999999093,
            "durationTicks": 960,
            "midi": 35,
            "name": "B1",
            "ticks": 158400,
            "time": 70.71421500000001,
            "velocity": 0.5826771653543307
          },
          {
            "duration": 0.21785692499999243,
            "durationTicks": 488,
            "midi": 76,
            "name": "E5",
            "ticks": 158880,
            "time": 70.92850050000001,
            "velocity": 0.5905511811023622
          },
          {
            "duration": 0.40669602187500686,
            "durationTicks": 911,
            "midi": 78,
            "name": "F#5",
            "ticks": 159360,
            "time": 71.142786,
            "velocity": 0.6141732283464567
          },
          {
            "duration": 0.42857100000000514,
            "durationTicks": 960,
            "midi": 57,
            "name": "A3",
            "ticks": 159360,
            "time": 71.142786,
            "velocity": 0.6535433070866141
          },
          {
            "duration": 0.42857100000000514,
            "durationTicks": 960,
            "midi": 59,
            "name": "B3",
            "ticks": 159360,
            "time": 71.142786,
            "velocity": 0.6535433070866141
          },
          {
            "duration": 0.42857100000000514,
            "durationTicks": 960,
            "midi": 63,
            "name": "D#4",
            "ticks": 159360,
            "time": 71.142786,
            "velocity": 0.6535433070866141
          },
          {
            "duration": 0.42857100000000514,
            "durationTicks": 960,
            "midi": 78,
            "name": "F#5",
            "ticks": 160320,
            "time": 71.571357,
            "velocity": 0.6141732283464567
          },
          {
            "duration": 0.42857100000000514,
            "durationTicks": 960,
            "midi": 57,
            "name": "A3",
            "ticks": 160320,
            "time": 71.571357,
            "velocity": 0.6299212598425197
          },
          {
            "duration": 0.42857100000000514,
            "durationTicks": 960,
            "midi": 59,
            "name": "B3",
            "ticks": 160320,
            "time": 71.571357,
            "velocity": 0.6299212598425197
          },
          {
            "duration": 0.42857100000000514,
            "durationTicks": 960,
            "midi": 63,
            "name": "D#4",
            "ticks": 160320,
            "time": 71.571357,
            "velocity": 0.6299212598425197
          },
          {
            "duration": 0.21785692499999243,
            "durationTicks": 488,
            "midi": 80,
            "name": "G#5",
            "ticks": 161280,
            "time": 71.99992800000001,
            "velocity": 0.6692913385826772
          },
          {
            "duration": 0.42857099999999093,
            "durationTicks": 960,
            "midi": 40,
            "name": "E2",
            "ticks": 161280,
            "time": 71.99992800000001,
            "velocity": 0.5905511811023622
          },
          {
            "duration": 0.21785692500000664,
            "durationTicks": 488,
            "midi": 81,
            "name": "A5",
            "ticks": 161760,
            "time": 72.2142135,
            "velocity": 0.6377952755905512
          },
          {
            "duration": 0.8138384718750018,
            "durationTicks": 1823,
            "midi": 83,
            "name": "B5",
            "ticks": 162240,
            "time": 72.428499,
            "velocity": 0.6614173228346457
          },
          {
            "duration": 0.42857100000000514,
            "durationTicks": 960,
            "midi": 52,
            "name": "E3",
            "ticks": 162240,
            "time": 72.428499,
            "velocity": 0.6535433070866141
          },
          {
            "duration": 0.42857100000000514,
            "durationTicks": 960,
            "midi": 59,
            "name": "B3",
            "ticks": 162240,
            "time": 72.428499,
            "velocity": 0.6535433070866141
          },
          {
            "duration": 0.42857100000000514,
            "durationTicks": 960,
            "midi": 62,
            "name": "D4",
            "ticks": 162240,
            "time": 72.428499,
            "velocity": 0.6535433070866141
          },
          {
            "duration": 0.21785692499999243,
            "durationTicks": 488,
            "midi": 83,
            "name": "B5",
            "ticks": 164160,
            "time": 73.28564100000001,
            "velocity": 0.6535433070866141
          },
          {
            "duration": 0.42857099999999093,
            "durationTicks": 960,
            "midi": 40,
            "name": "E2",
            "ticks": 164160,
            "time": 73.28564100000001,
            "velocity": 0.6062992125984252
          },
          {
            "duration": 0.21785692500000664,
            "durationTicks": 488,
            "midi": 85,
            "name": "C#6",
            "ticks": 164640,
            "time": 73.4999265,
            "velocity": 0.6377952755905512
          },
          {
            "duration": 0.21785692499999243,
            "durationTicks": 488,
            "midi": 86,
            "name": "D6",
            "ticks": 165120,
            "time": 73.714212,
            "velocity": 0.6377952755905512
          },
          {
            "duration": 0.42857100000000514,
            "durationTicks": 960,
            "midi": 52,
            "name": "E3",
            "ticks": 165120,
            "time": 73.714212,
            "velocity": 0.6614173228346457
          },
          {
            "duration": 0.42857100000000514,
            "durationTicks": 960,
            "midi": 56,
            "name": "G#3",
            "ticks": 165120,
            "time": 73.714212,
            "velocity": 0.6614173228346457
          },
          {
            "duration": 0.42857100000000514,
            "durationTicks": 960,
            "midi": 62,
            "name": "D4",
            "ticks": 165120,
            "time": 73.714212,
            "velocity": 0.6614173228346457
          },
          {
            "duration": 0.21785692499999243,
            "durationTicks": 488,
            "midi": 90,
            "name": "F#6",
            "ticks": 165600,
            "time": 73.9284975,
            "velocity": 0.6771653543307087
          },
          {
            "duration": 0.21785692499999243,
            "durationTicks": 488,
            "midi": 88,
            "name": "E6",
            "ticks": 166080,
            "time": 74.14278300000001,
            "velocity": 0.6377952755905512
          },
          {
            "duration": 0.42857099999999093,
            "durationTicks": 960,
            "midi": 52,
            "name": "E3",
            "ticks": 166080,
            "time": 74.14278300000001,
            "velocity": 0.6377952755905512
          },
          {
            "duration": 0.42857099999999093,
            "durationTicks": 960,
            "midi": 56,
            "name": "G#3",
            "ticks": 166080,
            "time": 74.14278300000001,
            "velocity": 0.6377952755905512
          },
          {
            "duration": 0.42857099999999093,
            "durationTicks": 960,
            "midi": 62,
            "name": "D4",
            "ticks": 166080,
            "time": 74.14278300000001,
            "velocity": 0.6377952755905512
          },
          {
            "duration": 0.21785692499999243,
            "durationTicks": 488,
            "midi": 86,
            "name": "D6",
            "ticks": 166560,
            "time": 74.35706850000001,
            "velocity": 0.5905511811023622
          },
          {
            "duration": 0.06517850625000676,
            "durationTicks": 146,
            "midi": 85,
            "name": "C#6",
            "ticks": 167040,
            "time": 74.571354,
            "velocity": 0.6220472440944882
          },
          {
            "duration": 0.42857100000000514,
            "durationTicks": 960,
            "midi": 45,
            "name": "A2",
            "ticks": 167040,
            "time": 74.571354,
            "velocity": 0.5905511811023622
          },
          {
            "duration": 0.06562493437499484,
            "durationTicks": 147,
            "midi": 86,
            "name": "D6",
            "ticks": 167186,
            "time": 74.63653250625,
            "velocity": 0.6220472440944882
          },
          {
            "duration": 0.08705348437500504,
            "durationTicks": 195,
            "midi": 85,
            "name": "C#6",
            "ticks": 167333,
            "time": 74.702157440625,
            "velocity": 0.6220472440944882
          },
          {
            "duration": 0.21785692500000664,
            "durationTicks": 488,
            "midi": 83,
            "name": "B5",
            "ticks": 167520,
            "time": 74.7856395,
            "velocity": 0.5433070866141733
          },
          {
            "duration": 0.21785692499999243,
            "durationTicks": 488,
            "midi": 85,
            "name": "C#6",
            "ticks": 168000,
            "time": 74.999925,
            "velocity": 0.5905511811023622
          },
          {
            "duration": 0.42857100000000514,
            "durationTicks": 960,
            "midi": 52,
            "name": "E3",
            "ticks": 168000,
            "time": 74.999925,
            "velocity": 0.6535433070866141
          },
          {
            "duration": 0.42857100000000514,
            "durationTicks": 960,
            "midi": 57,
            "name": "A3",
            "ticks": 168000,
            "time": 74.999925,
            "velocity": 0.6535433070866141
          },
          {
            "duration": 0.42857100000000514,
            "durationTicks": 960,
            "midi": 61,
            "name": "C#4",
            "ticks": 168000,
            "time": 74.999925,
            "velocity": 0.6535433070866141
          },
          {
            "duration": 0.21785692499999243,
            "durationTicks": 488,
            "midi": 80,
            "name": "G#5",
            "ticks": 168480,
            "time": 75.21421050000001,
            "velocity": 0.5196850393700787
          },
          {
            "duration": 0.21785692499999243,
            "durationTicks": 488,
            "midi": 81,
            "name": "A5",
            "ticks": 168960,
            "time": 75.42849600000001,
            "velocity": 0.5354330708661418
          },
          {
            "duration": 0.42857099999999093,
            "durationTicks": 960,
            "midi": 52,
            "name": "E3",
            "ticks": 168960,
            "time": 75.42849600000001,
            "velocity": 0.6377952755905512
          },
          {
            "duration": 0.42857099999999093,
            "durationTicks": 960,
            "midi": 57,
            "name": "A3",
            "ticks": 168960,
            "time": 75.42849600000001,
            "velocity": 0.6377952755905512
          },
          {
            "duration": 0.42857099999999093,
            "durationTicks": 960,
            "midi": 61,
            "name": "C#4",
            "ticks": 168960,
            "time": 75.42849600000001,
            "velocity": 0.6377952755905512
          },
          {
            "duration": 0.2026783687499858,
            "durationTicks": 454,
            "midi": 78,
            "name": "F#5",
            "ticks": 169440,
            "time": 75.64278150000001,
            "velocity": 0.5196850393700787
          },
          {
            "duration": 0.053571375000004195,
            "durationTicks": 120,
            "midi": 76,
            "name": "E5",
            "ticks": 169920,
            "time": 75.857067,
            "velocity": 0.5433070866141733
          },
          {
            "duration": 0.42857100000000514,
            "durationTicks": 960,
            "midi": 40,
            "name": "E2",
            "ticks": 169920,
            "time": 75.857067,
            "velocity": 0.5826771653543307
          },
          {
            "duration": 0.053571375000004195,
            "durationTicks": 120,
            "midi": 78,
            "name": "F#5",
            "ticks": 170040,
            "time": 75.910638375,
            "velocity": 0.5275590551181102
          },
          {
            "duration": 0.10223204062499747,
            "durationTicks": 229,
            "midi": 76,
            "name": "E5",
            "ticks": 170160,
            "time": 75.96420975000001,
            "velocity": 0.5196850393700787
          },
          {
            "duration": 0.21785692500000664,
            "durationTicks": 488,
            "midi": 74,
            "name": "D5",
            "ticks": 170400,
            "time": 76.0713525,
            "velocity": 0.5118110236220472
          },
          {
            "duration": 0.21785692499999243,
            "durationTicks": 488,
            "midi": 68,
            "name": "G#4",
            "ticks": 170880,
            "time": 76.285638,
            "velocity": 0.5118110236220472
          },
          {
            "duration": 0.42857100000000514,
            "durationTicks": 960,
            "midi": 52,
            "name": "E3",
            "ticks": 170880,
            "time": 76.285638,
            "velocity": 0.6614173228346457
          },
          {
            "duration": 0.42857100000000514,
            "durationTicks": 960,
            "midi": 59,
            "name": "B3",
            "ticks": 170880,
            "time": 76.285638,
            "velocity": 0.6614173228346457
          },
          {
            "duration": 0.42857100000000514,
            "durationTicks": 960,
            "midi": 62,
            "name": "D4",
            "ticks": 170880,
            "time": 76.285638,
            "velocity": 0.6614173228346457
          },
          {
            "duration": 0.21785692499999243,
            "durationTicks": 488,
            "midi": 78,
            "name": "F#5",
            "ticks": 171360,
            "time": 76.49992350000001,
            "velocity": 0.6377952755905512
          },
          {
            "duration": 0.40669602187499265,
            "durationTicks": 911,
            "midi": 76,
            "name": "E5",
            "ticks": 171840,
            "time": 76.71420900000001,
            "velocity": 0.5905511811023622
          },
          {
            "duration": 0.42857099999999093,
            "durationTicks": 960,
            "midi": 52,
            "name": "E3",
            "ticks": 171840,
            "time": 76.71420900000001,
            "velocity": 0.6377952755905512
          },
          {
            "duration": 0.42857099999999093,
            "durationTicks": 960,
            "midi": 59,
            "name": "B3",
            "ticks": 171840,
            "time": 76.71420900000001,
            "velocity": 0.6377952755905512
          },
          {
            "duration": 0.42857099999999093,
            "durationTicks": 960,
            "midi": 62,
            "name": "D4",
            "ticks": 171840,
            "time": 76.71420900000001,
            "velocity": 0.6377952755905512
          },
          {
            "duration": 0.053571375000004195,
            "durationTicks": 120,
            "midi": 76,
            "name": "E5",
            "ticks": 172800,
            "time": 77.14278,
            "velocity": 0.6377952755905512
          },
          {
            "duration": 0.42857100000000514,
            "durationTicks": 960,
            "midi": 45,
            "name": "A2",
            "ticks": 172800,
            "time": 77.14278,
            "velocity": 0.5826771653543307
          },
          {
            "duration": 0.053571375000004195,
            "durationTicks": 120,
            "midi": 78,
            "name": "F#5",
            "ticks": 172920,
            "time": 77.196351375,
            "velocity": 0.6377952755905512
          },
          {
            "duration": 0.10892846249998911,
            "durationTicks": 244,
            "midi": 76,
            "name": "E5",
            "ticks": 173040,
            "time": 77.24992275000001,
            "velocity": 0.6062992125984252
          },
          {
            "duration": 0.21785692499999243,
            "durationTicks": 488,
            "midi": 73,
            "name": "C#5",
            "ticks": 173280,
            "time": 77.3570655,
            "velocity": 0.5590551181102362
          },
          {
            "duration": 0.21785692499999243,
            "durationTicks": 488,
            "midi": 69,
            "name": "A4",
            "ticks": 173760,
            "time": 77.571351,
            "velocity": 0.5196850393700787
          },
          {
            "duration": 0.42857100000000514,
            "durationTicks": 960,
            "midi": 52,
            "name": "E3",
            "ticks": 173760,
            "time": 77.571351,
            "velocity": 0.6535433070866141
          },
          {
            "duration": 0.42857100000000514,
            "durationTicks": 960,
            "midi": 57,
            "name": "A3",
            "ticks": 173760,
            "time": 77.571351,
            "velocity": 0.6535433070866141
          },
          {
            "duration": 0.42857100000000514,
            "durationTicks": 960,
            "midi": 61,
            "name": "C#4",
            "ticks": 173760,
            "time": 77.571351,
            "velocity": 0.6535433070866141
          },
          {
            "duration": 0.21785692499999243,
            "durationTicks": 488,
            "midi": 78,
            "name": "F#5",
            "ticks": 174240,
            "time": 77.78563650000001,
            "velocity": 0.6771653543307087
          },
          {
            "duration": 0.40669602187499265,
            "durationTicks": 911,
            "midi": 76,
            "name": "E5",
            "ticks": 174720,
            "time": 77.99992200000001,
            "velocity": 0.6377952755905512
          },
          {
            "duration": 0.42857099999999093,
            "durationTicks": 960,
            "midi": 52,
            "name": "E3",
            "ticks": 174720,
            "time": 77.99992200000001,
            "velocity": 0.6377952755905512
          },
          {
            "duration": 0.42857099999999093,
            "durationTicks": 960,
            "midi": 57,
            "name": "A3",
            "ticks": 174720,
            "time": 77.99992200000001,
            "velocity": 0.6377952755905512
          },
          {
            "duration": 0.42857099999999093,
            "durationTicks": 960,
            "midi": 61,
            "name": "C#4",
            "ticks": 174720,
            "time": 77.99992200000001,
            "velocity": 0.6377952755905512
          },
          {
            "duration": 0.21785692500000664,
            "durationTicks": 488,
            "midi": 83,
            "name": "B5",
            "ticks": 175680,
            "time": 78.428493,
            "velocity": 0.7322834645669292
          },
          {
            "duration": 0.42857100000000514,
            "durationTicks": 960,
            "midi": 40,
            "name": "E2",
            "ticks": 175680,
            "time": 78.428493,
            "velocity": 0.5826771653543307
          },
          {
            "duration": 0.21785692499999243,
            "durationTicks": 488,
            "midi": 85,
            "name": "C#6",
            "ticks": 176160,
            "time": 78.6427785,
            "velocity": 0.6929133858267716
          },
          {
            "duration": 0.21785692499999243,
            "durationTicks": 488,
            "midi": 86,
            "name": "D6",
            "ticks": 176640,
            "time": 78.85706400000001,
            "velocity": 0.6850393700787402
          },
          {
            "duration": 0.42857100000000514,
            "durationTicks": 960,
            "midi": 52,
            "name": "E3",
            "ticks": 176640,
            "time": 78.85706400000001,
            "velocity": 0.6614173228346457
          },
          {
            "duration": 0.42857100000000514,
            "durationTicks": 960,
            "midi": 56,
            "name": "G#3",
            "ticks": 176640,
            "time": 78.85706400000001,
            "velocity": 0.6614173228346457
          },
          {
            "duration": 0.42857100000000514,
            "durationTicks": 960,
            "midi": 62,
            "name": "D4",
            "ticks": 176640,
            "time": 78.85706400000001,
            "velocity": 0.6614173228346457
          },
          {
            "duration": 0.21785692499999243,
            "durationTicks": 488,
            "midi": 90,
            "name": "F#6",
            "ticks": 177120,
            "time": 79.07134950000001,
            "velocity": 0.6929133858267716
          },
          {
            "duration": 0.21785692499999243,
            "durationTicks": 488,
            "midi": 88,
            "name": "E6",
            "ticks": 177600,
            "time": 79.28563500000001,
            "velocity": 0.6692913385826772
          },
          {
            "duration": 0.42857099999999093,
            "durationTicks": 960,
            "midi": 52,
            "name": "E3",
            "ticks": 177600,
            "time": 79.28563500000001,
            "velocity": 0.6377952755905512
          },
          {
            "duration": 0.42857099999999093,
            "durationTicks": 960,
            "midi": 56,
            "name": "G#3",
            "ticks": 177600,
            "time": 79.28563500000001,
            "velocity": 0.6377952755905512
          },
          {
            "duration": 0.42857099999999093,
            "durationTicks": 960,
            "midi": 62,
            "name": "D4",
            "ticks": 177600,
            "time": 79.28563500000001,
            "velocity": 0.6377952755905512
          },
          {
            "duration": 0.21785692500000664,
            "durationTicks": 488,
            "midi": 86,
            "name": "D6",
            "ticks": 178080,
            "time": 79.4999205,
            "velocity": 0.6220472440944882
          },
          {
            "duration": 0.06517850625000676,
            "durationTicks": 146,
            "midi": 85,
            "name": "C#6",
            "ticks": 178560,
            "time": 79.714206,
            "velocity": 0.6456692913385826
          },
          {
            "duration": 0.42857100000000514,
            "durationTicks": 960,
            "midi": 45,
            "name": "A2",
            "ticks": 178560,
            "time": 79.714206,
            "velocity": 0.5826771653543307
          },
          {
            "duration": 0.06562493437499484,
            "durationTicks": 147,
            "midi": 86,
            "name": "D6",
            "ticks": 178706,
            "time": 79.77938450625001,
            "velocity": 0.6456692913385826
          },
          {
            "duration": 0.08705348437499083,
            "durationTicks": 195,
            "midi": 85,
            "name": "C#6",
            "ticks": 178853,
            "time": 79.845009440625,
            "velocity": 0.6456692913385826
          },
          {
            "duration": 0.21785692499999243,
            "durationTicks": 488,
            "midi": 83,
            "name": "B5",
            "ticks": 179040,
            "time": 79.9284915,
            "velocity": 0.5511811023622047
          },
          {
            "duration": 0.21785692499999243,
            "durationTicks": 488,
            "midi": 85,
            "name": "C#6",
            "ticks": 179520,
            "time": 80.14277700000001,
            "velocity": 0.5984251968503937
          },
          {
            "duration": 0.42857099999999093,
            "durationTicks": 960,
            "midi": 52,
            "name": "E3",
            "ticks": 179520,
            "time": 80.14277700000001,
            "velocity": 0.6535433070866141
          },
          {
            "duration": 0.42857099999999093,
            "durationTicks": 960,
            "midi": 57,
            "name": "A3",
            "ticks": 179520,
            "time": 80.14277700000001,
            "velocity": 0.6535433070866141
          },
          {
            "duration": 0.42857099999999093,
            "durationTicks": 960,
            "midi": 61,
            "name": "C#4",
            "ticks": 179520,
            "time": 80.14277700000001,
            "velocity": 0.6535433070866141
          },
          {
            "duration": 0.21785692499999243,
            "durationTicks": 488,
            "midi": 80,
            "name": "G#5",
            "ticks": 180000,
            "time": 80.35706250000001,
            "velocity": 0.5196850393700787
          },
          {
            "duration": 0.21785692500000664,
            "durationTicks": 488,
            "midi": 81,
            "name": "A5",
            "ticks": 180480,
            "time": 80.571348,
            "velocity": 0.5433070866141733
          },
          {
            "duration": 0.42857100000000514,
            "durationTicks": 960,
            "midi": 52,
            "name": "E3",
            "ticks": 180480,
            "time": 80.571348,
            "velocity": 0.6377952755905512
          },
          {
            "duration": 0.42857100000000514,
            "durationTicks": 960,
            "midi": 57,
            "name": "A3",
            "ticks": 180480,
            "time": 80.571348,
            "velocity": 0.6377952755905512
          },
          {
            "duration": 0.42857100000000514,
            "durationTicks": 960,
            "midi": 61,
            "name": "C#4",
            "ticks": 180480,
            "time": 80.571348,
            "velocity": 0.6377952755905512
          },
          {
            "duration": 0.20267836875,
            "durationTicks": 454,
            "midi": 78,
            "name": "F#5",
            "ticks": 180960,
            "time": 80.7856335,
            "velocity": 0.5196850393700787
          },
          {
            "duration": 0.053571375000004195,
            "durationTicks": 120,
            "midi": 76,
            "name": "E5",
            "ticks": 181440,
            "time": 80.999919,
            "velocity": 0.5433070866141733
          },
          {
            "duration": 0.42857100000000514,
            "durationTicks": 960,
            "midi": 40,
            "name": "E2",
            "ticks": 181440,
            "time": 80.999919,
            "velocity": 0.5826771653543307
          },
          {
            "duration": 0.053571374999989985,
            "durationTicks": 120,
            "midi": 78,
            "name": "F#5",
            "ticks": 181560,
            "time": 81.05349037500001,
            "velocity": 0.5275590551181102
          },
          {
            "duration": 0.10892846250000332,
            "durationTicks": 244,
            "midi": 76,
            "name": "E5",
            "ticks": 181680,
            "time": 81.10706175,
            "velocity": 0.5196850393700787
          },
          {
            "duration": 0.21785692499999243,
            "durationTicks": 488,
            "midi": 74,
            "name": "D5",
            "ticks": 181920,
            "time": 81.21420450000001,
            "velocity": 0.5118110236220472
          },
          {
            "duration": 0.21785692499999243,
            "durationTicks": 488,
            "midi": 68,
            "name": "G#4",
            "ticks": 182400,
            "time": 81.42849000000001,
            "velocity": 0.5118110236220472
          },
          {
            "duration": 0.42857099999999093,
            "durationTicks": 960,
            "midi": 52,
            "name": "E3",
            "ticks": 182400,
            "time": 81.42849000000001,
            "velocity": 0.6614173228346457
          },
          {
            "duration": 0.42857099999999093,
            "durationTicks": 960,
            "midi": 59,
            "name": "B3",
            "ticks": 182400,
            "time": 81.42849000000001,
            "velocity": 0.6614173228346457
          },
          {
            "duration": 0.42857099999999093,
            "durationTicks": 960,
            "midi": 62,
            "name": "D4",
            "ticks": 182400,
            "time": 81.42849000000001,
            "velocity": 0.6614173228346457
          },
          {
            "duration": 0.21785692499999243,
            "durationTicks": 488,
            "midi": 78,
            "name": "F#5",
            "ticks": 182880,
            "time": 81.64277550000001,
            "velocity": 0.6377952755905512
          },
          {
            "duration": 0.21785692500000664,
            "durationTicks": 488,
            "midi": 76,
            "name": "E5",
            "ticks": 183360,
            "time": 81.857061,
            "velocity": 0.5905511811023622
          },
          {
            "duration": 0.42857100000000514,
            "durationTicks": 960,
            "midi": 52,
            "name": "E3",
            "ticks": 183360,
            "time": 81.857061,
            "velocity": 0.6377952755905512
          },
          {
            "duration": 0.42857100000000514,
            "durationTicks": 960,
            "midi": 59,
            "name": "B3",
            "ticks": 183360,
            "time": 81.857061,
            "velocity": 0.6377952755905512
          },
          {
            "duration": 0.42857100000000514,
            "durationTicks": 960,
            "midi": 62,
            "name": "D4",
            "ticks": 183360,
            "time": 81.857061,
            "velocity": 0.6377952755905512
          },
          {
            "duration": 0.21785692499999243,
            "durationTicks": 488,
            "midi": 68,
            "name": "G#4",
            "ticks": 183840,
            "time": 82.0713465,
            "velocity": 0.5118110236220472
          },
          {
            "duration": 0.40669602187500686,
            "durationTicks": 911,
            "midi": 69,
            "name": "A4",
            "ticks": 184320,
            "time": 82.285632,
            "velocity": 0.5433070866141733
          },
          {
            "duration": 0.42857100000000514,
            "durationTicks": 960,
            "midi": 45,
            "name": "A2",
            "ticks": 184320,
            "time": 82.285632,
            "velocity": 0.5826771653543307
          },
          {
            "duration": 0.42857099999999093,
            "durationTicks": 960,
            "midi": 52,
            "name": "E3",
            "ticks": 185280,
            "time": 82.71420300000001,
            "velocity": 0.6535433070866141
          },
          {
            "duration": 0.42857099999999093,
            "durationTicks": 960,
            "midi": 61,
            "name": "C#4",
            "ticks": 185280,
            "time": 82.71420300000001,
            "velocity": 0.6535433070866141
          },
          {
            "duration": 0.42857100000000514,
            "durationTicks": 960,
            "midi": 64,
            "name": "E4",
            "ticks": 186240,
            "time": 83.142774,
            "velocity": 0.5275590551181102
          },
          {
            "duration": 0.21785692499999243,
            "durationTicks": 488,
            "midi": 69,
            "name": "A4",
            "ticks": 187200,
            "time": 83.57134500000001,
            "velocity": 0.6456692913385826
          },
          {
            "duration": 0.42857100000000514,
            "durationTicks": 960,
            "midi": 33,
            "name": "A1",
            "ticks": 187200,
            "time": 83.57134500000001,
            "velocity": 0.5984251968503937
          },
          {
            "duration": 0.21785692499999243,
            "durationTicks": 488,
            "midi": 71,
            "name": "B4",
            "ticks": 187680,
            "time": 83.78563050000001,
            "velocity": 0.6299212598425197
          },
          {
            "duration": 0.40669602187499265,
            "durationTicks": 911,
            "midi": 72,
            "name": "C5",
            "ticks": 188160,
            "time": 83.99991600000001,
            "velocity": 0.6456692913385826
          },
          {
            "duration": 0.42857099999999093,
            "durationTicks": 960,
            "midi": 57,
            "name": "A3",
            "ticks": 188160,
            "time": 83.99991600000001,
            "velocity": 0.6614173228346457
          },
          {
            "duration": 0.42857099999999093,
            "durationTicks": 960,
            "midi": 60,
            "name": "C4",
            "ticks": 188160,
            "time": 83.99991600000001,
            "velocity": 0.6614173228346457
          },
          {
            "duration": 0.42857099999999093,
            "durationTicks": 960,
            "midi": 64,
            "name": "E4",
            "ticks": 188160,
            "time": 83.99991600000001,
            "velocity": 0.6614173228346457
          },
          {
            "duration": 0.42857100000000514,
            "durationTicks": 960,
            "midi": 72,
            "name": "C5",
            "ticks": 189120,
            "time": 84.428487,
            "velocity": 0.6299212598425197
          },
          {
            "duration": 0.42857100000000514,
            "durationTicks": 960,
            "midi": 57,
            "name": "A3",
            "ticks": 189120,
            "time": 84.428487,
            "velocity": 0.6377952755905512
          },
          {
            "duration": 0.42857100000000514,
            "durationTicks": 960,
            "midi": 60,
            "name": "C4",
            "ticks": 189120,
            "time": 84.428487,
            "velocity": 0.6377952755905512
          },
          {
            "duration": 0.42857100000000514,
            "durationTicks": 960,
            "midi": 64,
            "name": "E4",
            "ticks": 189120,
            "time": 84.428487,
            "velocity": 0.6377952755905512
          },
          {
            "duration": 0.21785692499999243,
            "durationTicks": 488,
            "midi": 74,
            "name": "D5",
            "ticks": 190080,
            "time": 84.85705800000001,
            "velocity": 0.6771653543307087
          },
          {
            "duration": 0.42857099999999093,
            "durationTicks": 960,
            "midi": 38,
            "name": "D2",
            "ticks": 190080,
            "time": 84.85705800000001,
            "velocity": 0.5984251968503937
          },
          {
            "duration": 0.21785692499999243,
            "durationTicks": 488,
            "midi": 76,
            "name": "E5",
            "ticks": 190560,
            "time": 85.07134350000001,
            "velocity": 0.6614173228346457
          },
          {
            "duration": 0.8138384718750018,
            "durationTicks": 1823,
            "midi": 77,
            "name": "F5",
            "ticks": 191040,
            "time": 85.285629,
            "velocity": 0.6614173228346457
          },
          {
            "duration": 0.42857100000000514,
            "durationTicks": 960,
            "midi": 57,
            "name": "A3",
            "ticks": 191040,
            "time": 85.285629,
            "velocity": 0.6614173228346457
          },
          {
            "duration": 0.42857100000000514,
            "durationTicks": 960,
            "midi": 62,
            "name": "D4",
            "ticks": 191040,
            "time": 85.285629,
            "velocity": 0.6614173228346457
          },
          {
            "duration": 0.42857100000000514,
            "durationTicks": 960,
            "midi": 65,
            "name": "F4",
            "ticks": 191040,
            "time": 85.285629,
            "velocity": 0.6614173228346457
          },
          {
            "duration": 0.42857100000000514,
            "durationTicks": 960,
            "midi": 57,
            "name": "A3",
            "ticks": 192000,
            "time": 85.7142,
            "velocity": 0.6377952755905512
          },
          {
            "duration": 0.42857100000000514,
            "durationTicks": 960,
            "midi": 62,
            "name": "D4",
            "ticks": 192000,
            "time": 85.7142,
            "velocity": 0.6377952755905512
          },
          {
            "duration": 0.42857100000000514,
            "durationTicks": 960,
            "midi": 65,
            "name": "F4",
            "ticks": 192000,
            "time": 85.7142,
            "velocity": 0.6377952755905512
          },
          {
            "duration": 0.21785692499999243,
            "durationTicks": 488,
            "midi": 71,
            "name": "B4",
            "ticks": 192960,
            "time": 86.14277100000001,
            "velocity": 0.5984251968503937
          },
          {
            "duration": 0.42857099999999093,
            "durationTicks": 960,
            "midi": 43,
            "name": "G2",
            "ticks": 192960,
            "time": 86.14277100000001,
            "velocity": 0.5905511811023622
          },
          {
            "duration": 0.21785692499999243,
            "durationTicks": 488,
            "midi": 72,
            "name": "C5",
            "ticks": 193440,
            "time": 86.35705650000001,
            "velocity": 0.5826771653543307
          },
          {
            "duration": 0.21785692500000664,
            "durationTicks": 488,
            "midi": 74,
            "name": "D5",
            "ticks": 193920,
            "time": 86.571342,
            "velocity": 0.6141732283464567
          },
          {
            "duration": 0.42857100000000514,
            "durationTicks": 960,
            "midi": 55,
            "name": "G3",
            "ticks": 193920,
            "time": 86.571342,
            "velocity": 0.6614173228346457
          },
          {
            "duration": 0.42857100000000514,
            "durationTicks": 960,
            "midi": 59,
            "name": "B3",
            "ticks": 193920,
            "time": 86.571342,
            "velocity": 0.6614173228346457
          },
          {
            "duration": 0.42857100000000514,
            "durationTicks": 960,
            "midi": 65,
            "name": "F4",
            "ticks": 193920,
            "time": 86.571342,
            "velocity": 0.6614173228346457
          },
          {
            "duration": 0.21785692500000664,
            "durationTicks": 488,
            "midi": 81,
            "name": "A5",
            "ticks": 194400,
            "time": 86.7856275,
            "velocity": 0.6929133858267716
          },
          {
            "duration": 0.21785692499999243,
            "durationTicks": 488,
            "midi": 79,
            "name": "G5",
            "ticks": 194880,
            "time": 86.999913,
            "velocity": 0.6614173228346457
          },
          {
            "duration": 0.42857100000000514,
            "durationTicks": 960,
            "midi": 55,
            "name": "G3",
            "ticks": 194880,
            "time": 86.999913,
            "velocity": 0.6377952755905512
          },
          {
            "duration": 0.42857100000000514,
            "durationTicks": 960,
            "midi": 59,
            "name": "B3",
            "ticks": 194880,
            "time": 86.999913,
            "velocity": 0.6377952755905512
          },
          {
            "duration": 0.42857100000000514,
            "durationTicks": 960,
            "midi": 65,
            "name": "F4",
            "ticks": 194880,
            "time": 86.999913,
            "velocity": 0.6377952755905512
          },
          {
            "duration": 0.20267836875,
            "durationTicks": 454,
            "midi": 77,
            "name": "F5",
            "ticks": 195360,
            "time": 87.21419850000001,
            "velocity": 0.6141732283464567
          },
          {
            "duration": 0.053571374999989985,
            "durationTicks": 120,
            "midi": 76,
            "name": "E5",
            "ticks": 195840,
            "time": 87.42848400000001,
            "velocity": 0.6220472440944882
          },
          {
            "duration": 0.42857099999999093,
            "durationTicks": 960,
            "midi": 48,
            "name": "C3",
            "ticks": 195840,
            "time": 87.42848400000001,
            "velocity": 0.5748031496062992
          },
          {
            "duration": 0.053571375000004195,
            "durationTicks": 120,
            "midi": 77,
            "name": "F5",
            "ticks": 195960,
            "time": 87.482055375,
            "velocity": 0.6062992125984252
          },
          {
            "duration": 0.10892846250000332,
            "durationTicks": 244,
            "midi": 76,
            "name": "E5",
            "ticks": 196080,
            "time": 87.53562675,
            "velocity": 0.5905511811023622
          },
          {
            "duration": 0.21785692499999243,
            "durationTicks": 488,
            "midi": 75,
            "name": "D#5",
            "ticks": 196320,
            "time": 87.64276950000001,
            "velocity": 0.5748031496062992
          },
          {
            "duration": 0.8138384718750018,
            "durationTicks": 1823,
            "midi": 76,
            "name": "E5",
            "ticks": 196800,
            "time": 87.857055,
            "velocity": 0.5984251968503937
          },
          {
            "duration": 0.42857100000000514,
            "durationTicks": 960,
            "midi": 55,
            "name": "G3",
            "ticks": 196800,
            "time": 87.857055,
            "velocity": 0.6535433070866141
          },
          {
            "duration": 0.42857100000000514,
            "durationTicks": 960,
            "midi": 60,
            "name": "C4",
            "ticks": 196800,
            "time": 87.857055,
            "velocity": 0.6535433070866141
          },
          {
            "duration": 0.42857100000000514,
            "durationTicks": 960,
            "midi": 64,
            "name": "E4",
            "ticks": 196800,
            "time": 87.857055,
            "velocity": 0.6535433070866141
          },
          {
            "duration": 0.42857100000000514,
            "durationTicks": 960,
            "midi": 55,
            "name": "G3",
            "ticks": 197760,
            "time": 88.28562600000001,
            "velocity": 0.6377952755905512
          },
          {
            "duration": 0.42857100000000514,
            "durationTicks": 960,
            "midi": 60,
            "name": "C4",
            "ticks": 197760,
            "time": 88.28562600000001,
            "velocity": 0.6377952755905512
          },
          {
            "duration": 0.42857100000000514,
            "durationTicks": 960,
            "midi": 64,
            "name": "E4",
            "ticks": 197760,
            "time": 88.28562600000001,
            "velocity": 0.6377952755905512
          },
          {
            "duration": 0.21785692499999243,
            "durationTicks": 488,
            "midi": 69,
            "name": "A4",
            "ticks": 198720,
            "time": 88.71419700000001,
            "velocity": 0.5669291338582677
          },
          {
            "duration": 0.42857099999999093,
            "durationTicks": 960,
            "midi": 45,
            "name": "A2",
            "ticks": 198720,
            "time": 88.71419700000001,
            "velocity": 0.5748031496062992
          },
          {
            "duration": 0.21785692500000664,
            "durationTicks": 488,
            "midi": 71,
            "name": "B4",
            "ticks": 199200,
            "time": 88.9284825,
            "velocity": 0.5748031496062992
          },
          {
            "duration": 0.40669602187500686,
            "durationTicks": 911,
            "midi": 72,
            "name": "C5",
            "ticks": 199680,
            "time": 89.142768,
            "velocity": 0.5984251968503937
          },
          {
            "duration": 0.42857100000000514,
            "durationTicks": 960,
            "midi": 57,
            "name": "A3",
            "ticks": 199680,
            "time": 89.142768,
            "velocity": 0.6614173228346457
          },
          {
            "duration": 0.42857100000000514,
            "durationTicks": 960,
            "midi": 60,
            "name": "C4",
            "ticks": 199680,
            "time": 89.142768,
            "velocity": 0.6614173228346457
          },
          {
            "duration": 0.42857100000000514,
            "durationTicks": 960,
            "midi": 64,
            "name": "E4",
            "ticks": 199680,
            "time": 89.142768,
            "velocity": 0.6614173228346457
          },
          {
            "duration": 0.42857100000000514,
            "durationTicks": 960,
            "midi": 72,
            "name": "C5",
            "ticks": 200640,
            "time": 89.57133900000001,
            "velocity": 0.6062992125984252
          },
          {
            "duration": 0.42857100000000514,
            "durationTicks": 960,
            "midi": 57,
            "name": "A3",
            "ticks": 200640,
            "time": 89.57133900000001,
            "velocity": 0.6377952755905512
          },
          {
            "duration": 0.42857100000000514,
            "durationTicks": 960,
            "midi": 60,
            "name": "C4",
            "ticks": 200640,
            "time": 89.57133900000001,
            "velocity": 0.6377952755905512
          },
          {
            "duration": 0.42857100000000514,
            "durationTicks": 960,
            "midi": 64,
            "name": "E4",
            "ticks": 200640,
            "time": 89.57133900000001,
            "velocity": 0.6377952755905512
          },
          {
            "duration": 0.21785692499999243,
            "durationTicks": 488,
            "midi": 74,
            "name": "D5",
            "ticks": 201600,
            "time": 89.99991000000001,
            "velocity": 0.6692913385826772
          },
          {
            "duration": 0.42857099999999093,
            "durationTicks": 960,
            "midi": 38,
            "name": "D2",
            "ticks": 201600,
            "time": 89.99991000000001,
            "velocity": 0.5748031496062992
          },
          {
            "duration": 0.21785692500000664,
            "durationTicks": 488,
            "midi": 76,
            "name": "E5",
            "ticks": 202080,
            "time": 90.2141955,
            "velocity": 0.6535433070866141
          },
          {
            "duration": 0.8138384718750018,
            "durationTicks": 1823,
            "midi": 77,
            "name": "F5",
            "ticks": 202560,
            "time": 90.428481,
            "velocity": 0.6535433070866141
          },
          {
            "duration": 0.42857100000000514,
            "durationTicks": 960,
            "midi": 57,
            "name": "A3",
            "ticks": 202560,
            "time": 90.428481,
            "velocity": 0.6614173228346457
          },
          {
            "duration": 0.42857100000000514,
            "durationTicks": 960,
            "midi": 62,
            "name": "D4",
            "ticks": 202560,
            "time": 90.428481,
            "velocity": 0.6614173228346457
          },
          {
            "duration": 0.42857100000000514,
            "durationTicks": 960,
            "midi": 65,
            "name": "F4",
            "ticks": 202560,
            "time": 90.428481,
            "velocity": 0.6614173228346457
          },
          {
            "duration": 0.42857099999999093,
            "durationTicks": 960,
            "midi": 57,
            "name": "A3",
            "ticks": 203520,
            "time": 90.85705200000001,
            "velocity": 0.6377952755905512
          },
          {
            "duration": 0.42857099999999093,
            "durationTicks": 960,
            "midi": 62,
            "name": "D4",
            "ticks": 203520,
            "time": 90.85705200000001,
            "velocity": 0.6377952755905512
          },
          {
            "duration": 0.42857099999999093,
            "durationTicks": 960,
            "midi": 65,
            "name": "F4",
            "ticks": 203520,
            "time": 90.85705200000001,
            "velocity": 0.6377952755905512
          },
          {
            "duration": 0.21785692500000664,
            "durationTicks": 488,
            "midi": 71,
            "name": "B4",
            "ticks": 204480,
            "time": 91.285623,
            "velocity": 0.5984251968503937
          },
          {
            "duration": 0.42857100000000514,
            "durationTicks": 960,
            "midi": 43,
            "name": "G2",
            "ticks": 204480,
            "time": 91.285623,
            "velocity": 0.5905511811023622
          },
          {
            "duration": 0.21785692500000664,
            "durationTicks": 488,
            "midi": 72,
            "name": "C5",
            "ticks": 204960,
            "time": 91.4999085,
            "velocity": 0.5826771653543307
          },
          {
            "duration": 0.21785692499999243,
            "durationTicks": 488,
            "midi": 74,
            "name": "D5",
            "ticks": 205440,
            "time": 91.714194,
            "velocity": 0.6141732283464567
          },
          {
            "duration": 0.42857100000000514,
            "durationTicks": 960,
            "midi": 55,
            "name": "G3",
            "ticks": 205440,
            "time": 91.714194,
            "velocity": 0.6614173228346457
          },
          {
            "duration": 0.42857100000000514,
            "durationTicks": 960,
            "midi": 59,
            "name": "B3",
            "ticks": 205440,
            "time": 91.714194,
            "velocity": 0.6614173228346457
          },
          {
            "duration": 0.42857100000000514,
            "durationTicks": 960,
            "midi": 65,
            "name": "F4",
            "ticks": 205440,
            "time": 91.714194,
            "velocity": 0.6614173228346457
          },
          {
            "duration": 0.21785692499999243,
            "durationTicks": 488,
            "midi": 81,
            "name": "A5",
            "ticks": 205920,
            "time": 91.92847950000001,
            "velocity": 0.6929133858267716
          },
          {
            "duration": 0.21785692499999243,
            "durationTicks": 488,
            "midi": 79,
            "name": "G5",
            "ticks": 206400,
            "time": 92.14276500000001,
            "velocity": 0.6614173228346457
          },
          {
            "duration": 0.42857099999999093,
            "durationTicks": 960,
            "midi": 55,
            "name": "G3",
            "ticks": 206400,
            "time": 92.14276500000001,
            "velocity": 0.6377952755905512
          },
          {
            "duration": 0.42857099999999093,
            "durationTicks": 960,
            "midi": 62,
            "name": "D4",
            "ticks": 206400,
            "time": 92.14276500000001,
            "velocity": 0.6377952755905512
          },
          {
            "duration": 0.42857099999999093,
            "durationTicks": 960,
            "midi": 65,
            "name": "F4",
            "ticks": 206400,
            "time": 92.14276500000001,
            "velocity": 0.6377952755905512
          },
          {
            "duration": 0.21785692499999243,
            "durationTicks": 488,
            "midi": 71,
            "name": "B4",
            "ticks": 206880,
            "time": 92.35705050000001,
            "velocity": 0.5196850393700787
          },
          {
            "duration": 0.40669602187500686,
            "durationTicks": 911,
            "midi": 72,
            "name": "C5",
            "ticks": 207360,
            "time": 92.571336,
            "velocity": 0.5748031496062992
          },
          {
            "duration": 0.42857100000000514,
            "durationTicks": 960,
            "midi": 48,
            "name": "C3",
            "ticks": 207360,
            "time": 92.571336,
            "velocity": 0.5748031496062992
          },
          {
            "duration": 0.42857100000000514,
            "durationTicks": 960,
            "midi": 55,
            "name": "G3",
            "ticks": 208320,
            "time": 92.99990700000001,
            "velocity": 0.6535433070866141
          },
          {
            "duration": 0.42857100000000514,
            "durationTicks": 960,
            "midi": 64,
            "name": "E4",
            "ticks": 208320,
            "time": 92.99990700000001,
            "velocity": 0.6535433070866141
          },
          {
            "duration": 0.42857099999999093,
            "durationTicks": 960,
            "midi": 64,
            "name": "E4",
            "ticks": 209280,
            "time": 93.42847800000001,
            "velocity": 0.5196850393700787
          },
          {
            "duration": 0.21785692500000664,
            "durationTicks": 488,
            "midi": 69,
            "name": "A4",
            "ticks": 210240,
            "time": 93.857049,
            "velocity": 0.6220472440944882
          },
          {
            "duration": 0.42857100000000514,
            "durationTicks": 960,
            "midi": 33,
            "name": "A1",
            "ticks": 210240,
            "time": 93.857049,
            "velocity": 0.5984251968503937
          },
          {
            "duration": 0.21785692499999243,
            "durationTicks": 488,
            "midi": 71,
            "name": "B4",
            "ticks": 210720,
            "time": 94.0713345,
            "velocity": 0.6220472440944882
          },
          {
            "duration": 0.40669602187500686,
            "durationTicks": 911,
            "midi": 72,
            "name": "C5",
            "ticks": 211200,
            "time": 94.28562000000001,
            "velocity": 0.6299212598425197
          },
          {
            "duration": 0.42857100000000514,
            "durationTicks": 960,
            "midi": 57,
            "name": "A3",
            "ticks": 211200,
            "time": 94.28562000000001,
            "velocity": 0.6614173228346457
          },
          {
            "duration": 0.42857100000000514,
            "durationTicks": 960,
            "midi": 60,
            "name": "C4",
            "ticks": 211200,
            "time": 94.28562000000001,
            "velocity": 0.6614173228346457
          },
          {
            "duration": 0.42857100000000514,
            "durationTicks": 960,
            "midi": 64,
            "name": "E4",
            "ticks": 211200,
            "time": 94.28562000000001,
            "velocity": 0.6614173228346457
          },
          {
            "duration": 0.42857099999999093,
            "durationTicks": 960,
            "midi": 72,
            "name": "C5",
            "ticks": 212160,
            "time": 94.71419100000001,
            "velocity": 0.6220472440944882
          },
          {
            "duration": 0.42857099999999093,
            "durationTicks": 960,
            "midi": 57,
            "name": "A3",
            "ticks": 212160,
            "time": 94.71419100000001,
            "velocity": 0.6377952755905512
          },
          {
            "duration": 0.42857099999999093,
            "durationTicks": 960,
            "midi": 60,
            "name": "C4",
            "ticks": 212160,
            "time": 94.71419100000001,
            "velocity": 0.6377952755905512
          },
          {
            "duration": 0.42857099999999093,
            "durationTicks": 960,
            "midi": 64,
            "name": "E4",
            "ticks": 212160,
            "time": 94.71419100000001,
            "velocity": 0.6377952755905512
          },
          {
            "duration": 0.21785692500000664,
            "durationTicks": 488,
            "midi": 74,
            "name": "D5",
            "ticks": 213120,
            "time": 95.142762,
            "velocity": 0.6771653543307087
          },
          {
            "duration": 0.42857100000000514,
            "durationTicks": 960,
            "midi": 38,
            "name": "D2",
            "ticks": 213120,
            "time": 95.142762,
            "velocity": 0.5984251968503937
          },
          {
            "duration": 0.21785692499999243,
            "durationTicks": 488,
            "midi": 76,
            "name": "E5",
            "ticks": 213600,
            "time": 95.35704750000001,
            "velocity": 0.6614173228346457
          },
          {
            "duration": 0.8138384718750018,
            "durationTicks": 1823,
            "midi": 77,
            "name": "F5",
            "ticks": 214080,
            "time": 95.57133300000001,
            "velocity": 0.6614173228346457
          },
          {
            "duration": 0.42857100000000514,
            "durationTicks": 960,
            "midi": 57,
            "name": "A3",
            "ticks": 214080,
            "time": 95.57133300000001,
            "velocity": 0.6614173228346457
          },
          {
            "duration": 0.42857100000000514,
            "durationTicks": 960,
            "midi": 62,
            "name": "D4",
            "ticks": 214080,
            "time": 95.57133300000001,
            "velocity": 0.6614173228346457
          },
          {
            "duration": 0.42857100000000514,
            "durationTicks": 960,
            "midi": 65,
            "name": "F4",
            "ticks": 214080,
            "time": 95.57133300000001,
            "velocity": 0.6614173228346457
          },
          {
            "duration": 0.42857099999999093,
            "durationTicks": 960,
            "midi": 57,
            "name": "A3",
            "ticks": 215040,
            "time": 95.99990400000002,
            "velocity": 0.6377952755905512
          },
          {
            "duration": 0.42857099999999093,
            "durationTicks": 960,
            "midi": 62,
            "name": "D4",
            "ticks": 215040,
            "time": 95.99990400000002,
            "velocity": 0.6377952755905512
          },
          {
            "duration": 0.42857099999999093,
            "durationTicks": 960,
            "midi": 65,
            "name": "F4",
            "ticks": 215040,
            "time": 95.99990400000002,
            "velocity": 0.6377952755905512
          },
          {
            "duration": 0.42857100000000514,
            "durationTicks": 960,
            "midi": 40,
            "name": "E2",
            "ticks": 216000,
            "time": 96.428475,
            "velocity": 0.5826771653543307
          },
          {
            "duration": 0.06517850625000676,
            "durationTicks": 146,
            "midi": 76,
            "name": "E5",
            "ticks": 216480,
            "time": 96.64276050000001,
            "velocity": 0.6062992125984252
          },
          {
            "duration": 0.06562493437499484,
            "durationTicks": 147,
            "midi": 77,
            "name": "F5",
            "ticks": 216626,
            "time": 96.70793900625002,
            "velocity": 0.6062992125984252
          },
          {
            "duration": 0.08705348437499083,
            "durationTicks": 195,
            "midi": 76,
            "name": "E5",
            "ticks": 216773,
            "time": 96.77356394062501,
            "velocity": 0.6062992125984252
          },
          {
            "duration": 0.21785692499999243,
            "durationTicks": 488,
            "midi": 75,
            "name": "D#5",
            "ticks": 216960,
            "time": 96.85704600000001,
            "velocity": 0.5984251968503937
          },
          {
            "duration": 0.42857099999999093,
            "durationTicks": 960,
            "midi": 52,
            "name": "E3",
            "ticks": 216960,
            "time": 96.85704600000001,
            "velocity": 0.6456692913385826
          },
          {
            "duration": 0.42857099999999093,
            "durationTicks": 960,
            "midi": 56,
            "name": "G#3",
            "ticks": 216960,
            "time": 96.85704600000001,
            "velocity": 0.6456692913385826
          },
          {
            "duration": 0.42857099999999093,
            "durationTicks": 960,
            "midi": 62,
            "name": "D4",
            "ticks": 216960,
            "time": 96.85704600000001,
            "velocity": 0.6456692913385826
          },
          {
            "duration": 0.21785692499999243,
            "durationTicks": 488,
            "midi": 76,
            "name": "E5",
            "ticks": 217440,
            "time": 97.07133150000001,
            "velocity": 0.6062992125984252
          },
          {
            "duration": 0.21785692500000664,
            "durationTicks": 488,
            "midi": 83,
            "name": "B5",
            "ticks": 217920,
            "time": 97.285617,
            "velocity": 0.6692913385826772
          },
          {
            "duration": 0.42857100000000514,
            "durationTicks": 960,
            "midi": 52,
            "name": "E3",
            "ticks": 217920,
            "time": 97.285617,
            "velocity": 0.6299212598425197
          },
          {
            "duration": 0.42857100000000514,
            "durationTicks": 960,
            "midi": 56,
            "name": "G#3",
            "ticks": 217920,
            "time": 97.285617,
            "velocity": 0.6299212598425197
          },
          {
            "duration": 0.42857100000000514,
            "durationTicks": 960,
            "midi": 62,
            "name": "D4",
            "ticks": 217920,
            "time": 97.285617,
            "velocity": 0.6299212598425197
          },
          {
            "duration": 0.21785692500000664,
            "durationTicks": 488,
            "midi": 74,
            "name": "D5",
            "ticks": 218400,
            "time": 97.4999025,
            "velocity": 0.5433070866141733
          },
          {
            "duration": 0.8138384718750018,
            "durationTicks": 1823,
            "midi": 72,
            "name": "C5",
            "ticks": 218880,
            "time": 97.71418800000001,
            "velocity": 0.5669291338582677
          },
          {
            "duration": 0.42857100000000514,
            "durationTicks": 960,
            "midi": 45,
            "name": "A2",
            "ticks": 218880,
            "time": 97.71418800000001,
            "velocity": 0.5826771653543307
          },
          {
            "duration": 0.42857099999999093,
            "durationTicks": 960,
            "midi": 52,
            "name": "E3",
            "ticks": 219840,
            "time": 98.14275900000001,
            "velocity": 0.6456692913385826
          },
          {
            "duration": 0.42857099999999093,
            "durationTicks": 960,
            "midi": 57,
            "name": "A3",
            "ticks": 219840,
            "time": 98.14275900000001,
            "velocity": 0.6456692913385826
          },
          {
            "duration": 0.42857099999999093,
            "durationTicks": 960,
            "midi": 60,
            "name": "C4",
            "ticks": 219840,
            "time": 98.14275900000001,
            "velocity": 0.6456692913385826
          },
          {
            "duration": 0.42857100000000514,
            "durationTicks": 960,
            "midi": 52,
            "name": "E3",
            "ticks": 220800,
            "time": 98.57133,
            "velocity": 0.6299212598425197
          },
          {
            "duration": 0.42857100000000514,
            "durationTicks": 960,
            "midi": 57,
            "name": "A3",
            "ticks": 220800,
            "time": 98.57133,
            "velocity": 0.6299212598425197
          },
          {
            "duration": 0.42857100000000514,
            "durationTicks": 960,
            "midi": 60,
            "name": "C4",
            "ticks": 220800,
            "time": 98.57133,
            "velocity": 0.6299212598425197
          },
          {
            "duration": 0.42857100000000514,
            "durationTicks": 960,
            "midi": 48,
            "name": "C3",
            "ticks": 221760,
            "time": 98.99990100000001,
            "velocity": 0.5669291338582677
          },
          {
            "duration": 0.21785692499999243,
            "durationTicks": 488,
            "midi": 84,
            "name": "C6",
            "ticks": 222240,
            "time": 99.21418650000001,
            "velocity": 0.6299212598425197
          },
          {
            "duration": 0.21785692499999243,
            "durationTicks": 488,
            "midi": 83,
            "name": "B5",
            "ticks": 222720,
            "time": 99.42847200000001,
            "velocity": 0.6141732283464567
          },
          {
            "duration": 0.42857099999999093,
            "durationTicks": 960,
            "midi": 52,
            "name": "E3",
            "ticks": 222720,
            "time": 99.42847200000001,
            "velocity": 0.6692913385826772
          },
          {
            "duration": 0.42857099999999093,
            "durationTicks": 960,
            "midi": 57,
            "name": "A3",
            "ticks": 222720,
            "time": 99.42847200000001,
            "velocity": 0.6692913385826772
          },
          {
            "duration": 0.42857099999999093,
            "durationTicks": 960,
            "midi": 64,
            "name": "E4",
            "ticks": 222720,
            "time": 99.42847200000001,
            "velocity": 0.6692913385826772
          },
          {
            "duration": 0.21785692500000664,
            "durationTicks": 488,
            "midi": 81,
            "name": "A5",
            "ticks": 223200,
            "time": 99.6427575,
            "velocity": 0.5905511811023622
          },
          {
            "duration": 0.21785692500000664,
            "durationTicks": 488,
            "midi": 79,
            "name": "G5",
            "ticks": 223680,
            "time": 99.857043,
            "velocity": 0.5590551181102362
          },
          {
            "duration": 0.21785692499999243,
            "durationTicks": 488,
            "midi": 77,
            "name": "F5",
            "ticks": 224160,
            "time": 100.0713285,
            "velocity": 0.5354330708661418
          },
          {
            "duration": 0.21785692499999243,
            "durationTicks": 488,
            "midi": 76,
            "name": "E5",
            "ticks": 224640,
            "time": 100.28561400000001,
            "velocity": 0.5669291338582677
          },
          {
            "duration": 0.42857100000000514,
            "durationTicks": 960,
            "midi": 50,
            "name": "D3",
            "ticks": 224640,
            "time": 100.28561400000001,
            "velocity": 0.5984251968503937
          },
          {
            "duration": 0.21785692499999243,
            "durationTicks": 488,
            "midi": 74,
            "name": "D5",
            "ticks": 225120,
            "time": 100.49989950000001,
            "velocity": 0.5196850393700787
          },
          {
            "duration": 0.21785692499999243,
            "durationTicks": 488,
            "midi": 73,
            "name": "C#5",
            "ticks": 225600,
            "time": 100.71418500000001,
            "velocity": 0.5196850393700787
          },
          {
            "duration": 0.42857099999999093,
            "durationTicks": 960,
            "midi": 57,
            "name": "A3",
            "ticks": 225600,
            "time": 100.71418500000001,
            "velocity": 0.6614173228346457
          },
          {
            "duration": 0.42857099999999093,
            "durationTicks": 960,
            "midi": 59,
            "name": "B3",
            "ticks": 225600,
            "time": 100.71418500000001,
            "velocity": 0.6614173228346457
          },
          {
            "duration": 0.42857099999999093,
            "durationTicks": 960,
            "midi": 65,
            "name": "F4",
            "ticks": 225600,
            "time": 100.71418500000001,
            "velocity": 0.6614173228346457
          },
          {
            "duration": 0.21785692500000664,
            "durationTicks": 488,
            "midi": 74,
            "name": "D5",
            "ticks": 226080,
            "time": 100.9284705,
            "velocity": 0.5433070866141733
          },
          {
            "duration": 0.21785692499999243,
            "durationTicks": 488,
            "midi": 76,
            "name": "E5",
            "ticks": 226560,
            "time": 101.142756,
            "velocity": 0.5984251968503937
          },
          {
            "duration": 0.20267836875,
            "durationTicks": 454,
            "midi": 77,
            "name": "F5",
            "ticks": 227040,
            "time": 101.35704150000001,
            "velocity": 0.6299212598425197
          },
          {
            "duration": 0.07053564374999155,
            "durationTicks": 158,
            "midi": 76,
            "name": "E5",
            "ticks": 227520,
            "time": 101.57132700000001,
            "velocity": 0.6377952755905512
          },
          {
            "duration": 0.42857099999999093,
            "durationTicks": 960,
            "midi": 40,
            "name": "E2",
            "ticks": 227520,
            "time": 101.57132700000001,
            "velocity": 0.6062992125984252
          },
          {
            "duration": 0.06696421875000169,
            "durationTicks": 150,
            "midi": 77,
            "name": "F5",
            "ticks": 227708,
            "time": 101.6552554875,
            "velocity": 0.6377952755905512
          },
          {
            "duration": 0.06205350937500498,
            "durationTicks": 139,
            "midi": 76,
            "name": "E5",
            "ticks": 227884,
            "time": 101.7338268375,
            "velocity": 0.6377952755905512
          },
          {
            "duration": 0.05848208437500091,
            "durationTicks": 131,
            "midi": 77,
            "name": "F5",
            "ticks": 228049,
            "time": 101.80748747812501,
            "velocity": 0.6377952755905512
          },
          {
            "duration": 0.06205350937500498,
            "durationTicks": 139,
            "midi": 76,
            "name": "E5",
            "ticks": 228225,
            "time": 101.886058828125,
            "velocity": 0.6377952755905512
          },
          {
            "duration": 0.035267821874995775,
            "durationTicks": 79,
            "midi": 77,
            "name": "F5",
            "ticks": 228416,
            "time": 101.97132660000001,
            "velocity": 0.6377952755905512
          },
          {
            "duration": 0.21785692500000664,
            "durationTicks": 488,
            "midi": 75,
            "name": "D#5",
            "ticks": 228480,
            "time": 101.999898,
            "velocity": 0.5905511811023622
          },
          {
            "duration": 0.42857100000000514,
            "durationTicks": 960,
            "midi": 52,
            "name": "E3",
            "ticks": 228480,
            "time": 101.999898,
            "velocity": 0.6456692913385826
          },
          {
            "duration": 0.42857100000000514,
            "durationTicks": 960,
            "midi": 60,
            "name": "C4",
            "ticks": 228480,
            "time": 101.999898,
            "velocity": 0.6456692913385826
          },
          {
            "duration": 0.21785692500000664,
            "durationTicks": 488,
            "midi": 76,
            "name": "E5",
            "ticks": 228960,
            "time": 102.2141835,
            "velocity": 0.6062992125984252
          },
          {
            "duration": 0.21785692499999243,
            "durationTicks": 488,
            "midi": 77,
            "name": "F5",
            "ticks": 229440,
            "time": 102.428469,
            "velocity": 0.6220472440944882
          },
          {
            "duration": 0.42857100000000514,
            "durationTicks": 960,
            "midi": 52,
            "name": "E3",
            "ticks": 229440,
            "time": 102.428469,
            "velocity": 0.6456692913385826
          },
          {
            "duration": 0.42857100000000514,
            "durationTicks": 960,
            "midi": 59,
            "name": "B3",
            "ticks": 229440,
            "time": 102.428469,
            "velocity": 0.6456692913385826
          },
          {
            "duration": 0.42857100000000514,
            "durationTicks": 960,
            "midi": 62,
            "name": "D4",
            "ticks": 229440,
            "time": 102.428469,
            "velocity": 0.6456692913385826
          },
          {
            "duration": 0.20267836875,
            "durationTicks": 454,
            "midi": 68,
            "name": "G#4",
            "ticks": 229920,
            "time": 102.64275450000001,
            "velocity": 0.5118110236220472
          },
          {
            "duration": 0.8571419999999961,
            "durationTicks": 1920,
            "midi": 69,
            "name": "A4",
            "ticks": 230400,
            "time": 102.85704000000001,
            "velocity": 0.5590551181102362
          },
          {
            "duration": 0.42857099999999093,
            "durationTicks": 960,
            "midi": 45,
            "name": "A2",
            "ticks": 230400,
            "time": 102.85704000000001,
            "velocity": 0.5905511811023622
          },
          {
            "duration": 0.42857100000000514,
            "durationTicks": 960,
            "midi": 52,
            "name": "E3",
            "ticks": 231360,
            "time": 103.285611,
            "velocity": 0.6535433070866141
          },
          {
            "duration": 0.42857100000000514,
            "durationTicks": 960,
            "midi": 60,
            "name": "C4",
            "ticks": 231360,
            "time": 103.285611,
            "velocity": 0.6535433070866141
          }
        ],
        "endOfTrackTicks": 232321
      }
    ]
  }