harp1 = {
    "header": {
      "keySignatures": [
        {
          "key": "Bb",
          "scale": "major",
          "ticks": 0
        }
      ],
      "meta": [
        {
          "text": "Christian Petzold",
          "ticks": 0,
          "type": "text"
        }
      ],
      "name": "",
      "ppq": 960,
      "tempos": [
        {
          "bpm": 100,
          "ticks": 0
        },
        {
          "bpm": 100,
          "ticks": 46080
        }
      ],
      "timeSignatures": [
        {
          "ticks": 0,
          "timeSignature": [
            3,
            4
          ],
          "measures": 0
        },
        {
          "ticks": 135360,
          "timeSignature": [
            4,
            4
          ],
          "measures": 47
        },
        {
          "ticks": 139200,
          "timeSignature": [
            3,
            4
          ],
          "measures": 48
        },
        {
          "ticks": 182400,
          "timeSignature": [
            4,
            4
          ],
          "measures": 63
        }
      ]
    },
    "tracks": [
      {
        "channel": 0,
        "controlChanges": {
          "7": [
            {
              "number": 7,
              "ticks": 0,
              "time": 0,
              "value": 0.7874015748031497
            },
            {
              "number": 7,
              "ticks": 0,
              "time": 0,
              "value": 0.7874015748031497
            }
          ],
          "10": [
            {
              "number": 10,
              "ticks": 0,
              "time": 0,
              "value": 0.4015748031496063
            },
            {
              "number": 10,
              "ticks": 0,
              "time": 0,
              "value": 0.4015748031496063
            }
          ],
          "64": [
            {
              "number": 64,
              "ticks": 0,
              "time": 0,
              "value": 0
            },
            {
              "number": 64,
              "ticks": 0,
              "time": 0,
              "value": 0
            }
          ],
          "91": [
            {
              "number": 91,
              "ticks": 0,
              "time": 0,
              "value": 0.3779527559055118
            },
            {
              "number": 91,
              "ticks": 0,
              "time": 0,
              "value": 0.3779527559055118
            }
          ],
          "121": [
            {
              "number": 121,
              "ticks": 0,
              "time": 0,
              "value": 0
            },
            {
              "number": 121,
              "ticks": 0,
              "time": 0,
              "value": 0
            }
          ]
        },
        "pitchBends": [],
        "instrument": {
          "family": "piano",
          "number": 0,
          "name": "acoustic grand piano"
        },
        "name": "Piano",
        "notes": [
          {
            "duration": 0.6,
            "durationTicks": 960,
            "midi": 82,
            "name": "A#5",
            "ticks": 0,
            "time": 0,
            "velocity": 0.5748031496062992
          },
          {
            "duration": 1.7999999999999998,
            "durationTicks": 2880,
            "midi": 55,
            "name": "G3",
            "ticks": 0,
            "time": 0,
            "velocity": 0.5433070866141733
          },
          {
            "duration": 0.6,
            "durationTicks": 960,
            "midi": 81,
            "name": "A5",
            "ticks": 960,
            "time": 0.6,
            "velocity": 0.5433070866141733
          },
          {
            "duration": 0.5999999999999999,
            "durationTicks": 960,
            "midi": 79,
            "name": "G5",
            "ticks": 1920,
            "time": 1.2,
            "velocity": 0.5590551181102362
          },
          {
            "duration": 0.6000000000000001,
            "durationTicks": 960,
            "midi": 81,
            "name": "A5",
            "ticks": 2880,
            "time": 1.7999999999999998,
            "velocity": 0.6456692913385826
          },
          {
            "duration": 1.7999999999999998,
            "durationTicks": 2880,
            "midi": 53,
            "name": "F3",
            "ticks": 2880,
            "time": 1.7999999999999998,
            "velocity": 0.5905511811023622
          },
          {
            "duration": 0.6000000000000001,
            "durationTicks": 960,
            "midi": 74,
            "name": "D5",
            "ticks": 3840,
            "time": 2.4,
            "velocity": 0.4566929133858268
          },
          {
            "duration": 0.5999999999999996,
            "durationTicks": 960,
            "midi": 74,
            "name": "D5",
            "ticks": 4800,
            "time": 3,
            "velocity": 0.6220472440944882
          },
          {
            "duration": 0.6000000000000005,
            "durationTicks": 960,
            "midi": 79,
            "name": "G5",
            "ticks": 5760,
            "time": 3.5999999999999996,
            "velocity": 0.6614173228346457
          },
          {
            "duration": 1.7999999999999998,
            "durationTicks": 2880,
            "midi": 51,
            "name": "D#3",
            "ticks": 5760,
            "time": 3.5999999999999996,
            "velocity": 0.5984251968503937
          },
          {
            "duration": 0.2999999999999998,
            "durationTicks": 480,
            "midi": 67,
            "name": "G4",
            "ticks": 6720,
            "time": 4.2,
            "velocity": 0.44881889763779526
          },
          {
            "duration": 0.2999999999999998,
            "durationTicks": 480,
            "midi": 69,
            "name": "A4",
            "ticks": 7200,
            "time": 4.5,
            "velocity": 0.6141732283464567
          },
          {
            "duration": 0.2999999999999998,
            "durationTicks": 480,
            "midi": 70,
            "name": "A#4",
            "ticks": 7680,
            "time": 4.8,
            "velocity": 0.6377952755905512
          },
          {
            "duration": 0.2999999999999998,
            "durationTicks": 480,
            "midi": 72,
            "name": "C5",
            "ticks": 8160,
            "time": 5.1,
            "velocity": 0.6377952755905512
          },
          {
            "duration": 1.7999999999999998,
            "durationTicks": 2880,
            "midi": 74,
            "name": "D5",
            "ticks": 8640,
            "time": 5.3999999999999995,
            "velocity": 0.6456692913385826
          },
          {
            "duration": 0.6000000000000005,
            "durationTicks": 960,
            "midi": 50,
            "name": "D3",
            "ticks": 8640,
            "time": 5.3999999999999995,
            "velocity": 0.5826771653543307
          },
          {
            "duration": 0.2999999999999998,
            "durationTicks": 480,
            "midi": 62,
            "name": "D4",
            "ticks": 9600,
            "time": 6,
            "velocity": 0.7716535433070866
          },
          {
            "duration": 0.2999999999999998,
            "durationTicks": 480,
            "midi": 60,
            "name": "C4",
            "ticks": 10080,
            "time": 6.3,
            "velocity": 0.6141732283464567
          },
          {
            "duration": 0.2999999999999998,
            "durationTicks": 480,
            "midi": 58,
            "name": "A#3",
            "ticks": 10560,
            "time": 6.6,
            "velocity": 0.5669291338582677
          },
          {
            "duration": 0.2999999999999998,
            "durationTicks": 480,
            "midi": 57,
            "name": "A3",
            "ticks": 11040,
            "time": 6.8999999999999995,
            "velocity": 0.5826771653543307
          },
          {
            "duration": 0.6000000000000005,
            "durationTicks": 960,
            "midi": 75,
            "name": "D#5",
            "ticks": 11520,
            "time": 7.199999999999999,
            "velocity": 0.6377952755905512
          },
          {
            "duration": 1.200000000000001,
            "durationTicks": 1920,
            "midi": 55,
            "name": "G3",
            "ticks": 11520,
            "time": 7.199999999999999,
            "velocity": 0.5826771653543307
          },
          {
            "duration": 1.200000000000001,
            "durationTicks": 1920,
            "midi": 58,
            "name": "A#3",
            "ticks": 11520,
            "time": 7.199999999999999,
            "velocity": 0.5826771653543307
          },
          {
            "duration": 0.2999999999999998,
            "durationTicks": 480,
            "midi": 77,
            "name": "F5",
            "ticks": 12480,
            "time": 7.8,
            "velocity": 0.6299212598425197
          },
          {
            "duration": 0.3000000000000007,
            "durationTicks": 480,
            "midi": 75,
            "name": "D#5",
            "ticks": 12960,
            "time": 8.1,
            "velocity": 0.5354330708661418
          },
          {
            "duration": 0.29999999999999893,
            "durationTicks": 480,
            "midi": 74,
            "name": "D5",
            "ticks": 13440,
            "time": 8.4,
            "velocity": 0.5748031496062992
          },
          {
            "duration": 0.5999999999999996,
            "durationTicks": 960,
            "midi": 57,
            "name": "A3",
            "ticks": 13440,
            "time": 8.4,
            "velocity": 0.5748031496062992
          },
          {
            "duration": 0.3000000000000007,
            "durationTicks": 480,
            "midi": 72,
            "name": "C5",
            "ticks": 13920,
            "time": 8.7,
            "velocity": 0.5826771653543307
          },
          {
            "duration": 0.5999999999999996,
            "durationTicks": 960,
            "midi": 74,
            "name": "D5",
            "ticks": 14400,
            "time": 9,
            "velocity": 0.6377952755905512
          },
          {
            "duration": 1.1999999999999993,
            "durationTicks": 1920,
            "midi": 58,
            "name": "A#3",
            "ticks": 14400,
            "time": 9,
            "velocity": 0.6220472440944882
          },
          {
            "duration": 0.3000000000000007,
            "durationTicks": 480,
            "midi": 75,
            "name": "D#5",
            "ticks": 15360,
            "time": 9.6,
            "velocity": 0.5984251968503937
          },
          {
            "duration": 0.29999999999999893,
            "durationTicks": 480,
            "midi": 74,
            "name": "D5",
            "ticks": 15840,
            "time": 9.9,
            "velocity": 0.5826771653543307
          },
          {
            "duration": 0.3000000000000007,
            "durationTicks": 480,
            "midi": 72,
            "name": "C5",
            "ticks": 16320,
            "time": 10.2,
            "velocity": 0.5669291338582677
          },
          {
            "duration": 0.5999999999999996,
            "durationTicks": 960,
            "midi": 55,
            "name": "G3",
            "ticks": 16320,
            "time": 10.2,
            "velocity": 0.6141732283464567
          },
          {
            "duration": 0.29999999999999893,
            "durationTicks": 480,
            "midi": 70,
            "name": "A#4",
            "ticks": 16800,
            "time": 10.5,
            "velocity": 0.5590551181102362
          },
          {
            "duration": 0.6000000000000014,
            "durationTicks": 960,
            "midi": 72,
            "name": "C5",
            "ticks": 17280,
            "time": 10.799999999999999,
            "velocity": 0.5984251968503937
          },
          {
            "duration": 0.6000000000000014,
            "durationTicks": 960,
            "midi": 57,
            "name": "A3",
            "ticks": 17280,
            "time": 10.799999999999999,
            "velocity": 0.6141732283464567
          },
          {
            "duration": 0.29999999999999893,
            "durationTicks": 480,
            "midi": 74,
            "name": "D5",
            "ticks": 18240,
            "time": 11.4,
            "velocity": 0.6535433070866141
          },
          {
            "duration": 0.5999999999999996,
            "durationTicks": 960,
            "midi": 54,
            "name": "F#3",
            "ticks": 18240,
            "time": 11.4,
            "velocity": 0.5669291338582677
          },
          {
            "duration": 0.3000000000000007,
            "durationTicks": 480,
            "midi": 72,
            "name": "C5",
            "ticks": 18720,
            "time": 11.7,
            "velocity": 0.5669291338582677
          },
          {
            "duration": 0.29999999999999893,
            "durationTicks": 480,
            "midi": 70,
            "name": "A#4",
            "ticks": 19200,
            "time": 12,
            "velocity": 0.5669291338582677
          },
          {
            "duration": 0.5999999999999996,
            "durationTicks": 960,
            "midi": 55,
            "name": "G3",
            "ticks": 19200,
            "time": 12,
            "velocity": 0.6377952755905512
          },
          {
            "duration": 0.3000000000000007,
            "durationTicks": 480,
            "midi": 72,
            "name": "C5",
            "ticks": 19680,
            "time": 12.299999999999999,
            "velocity": 0.6299212598425197
          },
          {
            "duration": 1.799999999999999,
            "durationTicks": 2880,
            "midi": 69,
            "name": "A4",
            "ticks": 20160,
            "time": 12.6,
            "velocity": 0.5511811023622047
          },
          {
            "duration": 0.5999999999999996,
            "durationTicks": 960,
            "midi": 50,
            "name": "D3",
            "ticks": 20160,
            "time": 12.6,
            "velocity": 0.5511811023622047
          },
          {
            "duration": 0.3000000000000007,
            "durationTicks": 480,
            "midi": 62,
            "name": "D4",
            "ticks": 21120,
            "time": 13.2,
            "velocity": 0.7322834645669292
          },
          {
            "duration": 0.29999999999999893,
            "durationTicks": 480,
            "midi": 60,
            "name": "C4",
            "ticks": 21600,
            "time": 13.5,
            "velocity": 0.6141732283464567
          },
          {
            "duration": 0.3000000000000007,
            "durationTicks": 480,
            "midi": 58,
            "name": "A#3",
            "ticks": 22080,
            "time": 13.799999999999999,
            "velocity": 0.6062992125984252
          },
          {
            "duration": 0.29999999999999893,
            "durationTicks": 480,
            "midi": 57,
            "name": "A3",
            "ticks": 22560,
            "time": 14.1,
            "velocity": 0.6062992125984252
          },
          {
            "duration": 0.6000000000000014,
            "durationTicks": 960,
            "midi": 82,
            "name": "A#5",
            "ticks": 23040,
            "time": 14.399999999999999,
            "velocity": 0.7559055118110236
          },
          {
            "duration": 1.8000000000000007,
            "durationTicks": 2880,
            "midi": 55,
            "name": "G3",
            "ticks": 23040,
            "time": 14.399999999999999,
            "velocity": 0.5590551181102362
          },
          {
            "duration": 0.5999999999999996,
            "durationTicks": 960,
            "midi": 81,
            "name": "A5",
            "ticks": 24000,
            "time": 15,
            "velocity": 0.5984251968503937
          },
          {
            "duration": 0.5999999999999996,
            "durationTicks": 960,
            "midi": 79,
            "name": "G5",
            "ticks": 24960,
            "time": 15.6,
            "velocity": 0.5669291338582677
          },
          {
            "duration": 0.6000000000000014,
            "durationTicks": 960,
            "midi": 81,
            "name": "A5",
            "ticks": 25920,
            "time": 16.2,
            "velocity": 0.6456692913385826
          },
          {
            "duration": 1.8000000000000007,
            "durationTicks": 2880,
            "midi": 53,
            "name": "F3",
            "ticks": 25920,
            "time": 16.2,
            "velocity": 0.5826771653543307
          },
          {
            "duration": 0.5999999999999979,
            "durationTicks": 960,
            "midi": 74,
            "name": "D5",
            "ticks": 26880,
            "time": 16.8,
            "velocity": 0.5039370078740157
          },
          {
            "duration": 0.6000000000000014,
            "durationTicks": 960,
            "midi": 74,
            "name": "D5",
            "ticks": 27840,
            "time": 17.4,
            "velocity": 0.5748031496062992
          },
          {
            "duration": 0.5999999999999979,
            "durationTicks": 960,
            "midi": 79,
            "name": "G5",
            "ticks": 28800,
            "time": 18,
            "velocity": 0.6850393700787402
          },
          {
            "duration": 1.8000000000000007,
            "durationTicks": 2880,
            "midi": 51,
            "name": "D#3",
            "ticks": 28800,
            "time": 18,
            "velocity": 0.5748031496062992
          },
          {
            "duration": 0.3000000000000007,
            "durationTicks": 480,
            "midi": 67,
            "name": "G4",
            "ticks": 29760,
            "time": 18.599999999999998,
            "velocity": 0.4645669291338583
          },
          {
            "duration": 0.3000000000000007,
            "durationTicks": 480,
            "midi": 69,
            "name": "A4",
            "ticks": 30240,
            "time": 18.9,
            "velocity": 0.6299212598425197
          },
          {
            "duration": 0.3000000000000007,
            "durationTicks": 480,
            "midi": 70,
            "name": "A#4",
            "ticks": 30720,
            "time": 19.2,
            "velocity": 0.6220472440944882
          },
          {
            "duration": 0.3000000000000007,
            "durationTicks": 480,
            "midi": 72,
            "name": "C5",
            "ticks": 31200,
            "time": 19.5,
            "velocity": 0.6929133858267716
          },
          {
            "duration": 1.7999999999999972,
            "durationTicks": 2880,
            "midi": 74,
            "name": "D5",
            "ticks": 31680,
            "time": 19.8,
            "velocity": 0.6299212598425197
          },
          {
            "duration": 0.5999999999999979,
            "durationTicks": 960,
            "midi": 50,
            "name": "D3",
            "ticks": 31680,
            "time": 19.8,
            "velocity": 0.5905511811023622
          },
          {
            "duration": 0.3000000000000007,
            "durationTicks": 480,
            "midi": 62,
            "name": "D4",
            "ticks": 32640,
            "time": 20.4,
            "velocity": 0.7795275590551181
          },
          {
            "duration": 0.3000000000000007,
            "durationTicks": 480,
            "midi": 60,
            "name": "C4",
            "ticks": 33120,
            "time": 20.7,
            "velocity": 0.6062992125984252
          },
          {
            "duration": 0.3000000000000007,
            "durationTicks": 480,
            "midi": 59,
            "name": "B3",
            "ticks": 33600,
            "time": 21,
            "velocity": 0.5748031496062992
          },
          {
            "duration": 0.29999999999999716,
            "durationTicks": 480,
            "midi": 57,
            "name": "A3",
            "ticks": 34080,
            "time": 21.3,
            "velocity": 0.5984251968503937
          },
          {
            "duration": 0.6000000000000014,
            "durationTicks": 960,
            "midi": 77,
            "name": "F5",
            "ticks": 34560,
            "time": 21.599999999999998,
            "velocity": 0.6535433070866141
          },
          {
            "duration": 1.2000000000000028,
            "durationTicks": 1920,
            "midi": 59,
            "name": "B3",
            "ticks": 34560,
            "time": 21.599999999999998,
            "velocity": 0.6929133858267716
          },
          {
            "duration": 1.2000000000000028,
            "durationTicks": 1920,
            "midi": 62,
            "name": "D4",
            "ticks": 34560,
            "time": 21.599999999999998,
            "velocity": 0.6929133858267716
          },
          {
            "duration": 0.3000000000000007,
            "durationTicks": 480,
            "midi": 79,
            "name": "G5",
            "ticks": 35520,
            "time": 22.2,
            "velocity": 0.6220472440944882
          },
          {
            "duration": 0.3000000000000007,
            "durationTicks": 480,
            "midi": 77,
            "name": "F5",
            "ticks": 36000,
            "time": 22.5,
            "velocity": 0.6141732283464567
          },
          {
            "duration": 0.29999999999999716,
            "durationTicks": 480,
            "midi": 75,
            "name": "D#5",
            "ticks": 36480,
            "time": 22.8,
            "velocity": 0.5511811023622047
          },
          {
            "duration": 0.5999999999999979,
            "durationTicks": 960,
            "midi": 55,
            "name": "G3",
            "ticks": 36480,
            "time": 22.8,
            "velocity": 0.5826771653543307
          },
          {
            "duration": 0.3000000000000007,
            "durationTicks": 480,
            "midi": 74,
            "name": "D5",
            "ticks": 36960,
            "time": 23.099999999999998,
            "velocity": 0.5354330708661418
          },
          {
            "duration": 0.6000000000000014,
            "durationTicks": 960,
            "midi": 75,
            "name": "D#5",
            "ticks": 37440,
            "time": 23.4,
            "velocity": 0.6377952755905512
          },
          {
            "duration": 0.6000000000000014,
            "durationTicks": 960,
            "midi": 60,
            "name": "C4",
            "ticks": 37440,
            "time": 23.4,
            "velocity": 0.7007874015748031
          },
          {
            "duration": 0.3000000000000007,
            "durationTicks": 480,
            "midi": 77,
            "name": "F5",
            "ticks": 38400,
            "time": 24,
            "velocity": 0.6692913385826772
          },
          {
            "duration": 0.5999999999999979,
            "durationTicks": 960,
            "midi": 57,
            "name": "A3",
            "ticks": 38400,
            "time": 24,
            "velocity": 0.5669291338582677
          },
          {
            "duration": 0.29999999999999716,
            "durationTicks": 480,
            "midi": 75,
            "name": "D#5",
            "ticks": 38880,
            "time": 24.3,
            "velocity": 0.5511811023622047
          },
          {
            "duration": 0.3000000000000007,
            "durationTicks": 480,
            "midi": 74,
            "name": "D5",
            "ticks": 39360,
            "time": 24.599999999999998,
            "velocity": 0.5984251968503937
          },
          {
            "duration": 0.6000000000000014,
            "durationTicks": 960,
            "midi": 53,
            "name": "F3",
            "ticks": 39360,
            "time": 24.599999999999998,
            "velocity": 0.5669291338582677
          },
          {
            "duration": 0.3000000000000007,
            "durationTicks": 480,
            "midi": 72,
            "name": "C5",
            "ticks": 39840,
            "time": 24.9,
            "velocity": 0.5669291338582677
          },
          {
            "duration": 0.6000000000000014,
            "durationTicks": 960,
            "midi": 74,
            "name": "D5",
            "ticks": 40320,
            "time": 25.2,
            "velocity": 0.6062992125984252
          },
          {
            "duration": 0.6000000000000014,
            "durationTicks": 960,
            "midi": 58,
            "name": "A#3",
            "ticks": 40320,
            "time": 25.2,
            "velocity": 0.6299212598425197
          },
          {
            "duration": 0.5999999999999979,
            "durationTicks": 960,
            "midi": 79,
            "name": "G5",
            "ticks": 41280,
            "time": 25.8,
            "velocity": 0.6456692913385826
          },
          {
            "duration": 0.5999999999999979,
            "durationTicks": 960,
            "midi": 51,
            "name": "D#3",
            "ticks": 41280,
            "time": 25.8,
            "velocity": 0.5433070866141733
          },
          {
            "duration": 0.6000000000000014,
            "durationTicks": 960,
            "midi": 72,
            "name": "C5",
            "ticks": 42240,
            "time": 26.4,
            "velocity": 0.5039370078740157
          },
          {
            "duration": 0.6000000000000014,
            "durationTicks": 960,
            "midi": 53,
            "name": "F3",
            "ticks": 42240,
            "time": 26.4,
            "velocity": 0.6692913385826772
          },
          {
            "duration": 0.6000000000000014,
            "durationTicks": 960,
            "midi": 57,
            "name": "A3",
            "ticks": 42240,
            "time": 26.4,
            "velocity": 0.6692913385826772
          },
          {
            "duration": 1.7999999999999972,
            "durationTicks": 2880,
            "midi": 62,
            "name": "D4",
            "ticks": 43200,
            "time": 27,
            "velocity": 0.5669291338582677
          },
          {
            "duration": 1.7999999999999972,
            "durationTicks": 2880,
            "midi": 65,
            "name": "F4",
            "ticks": 43200,
            "time": 27,
            "velocity": 0.5669291338582677
          },
          {
            "duration": 1.7999999999999972,
            "durationTicks": 2880,
            "midi": 70,
            "name": "A#4",
            "ticks": 43200,
            "time": 27,
            "velocity": 0.5669291338582677
          },
          {
            "duration": 0.5999999999999979,
            "durationTicks": 960,
            "midi": 58,
            "name": "A#3",
            "ticks": 43200,
            "time": 27,
            "velocity": 0.6456692913385826
          },
          {
            "duration": 1.1999999999999993,
            "durationTicks": 1920,
            "midi": 46,
            "name": "A#2",
            "ticks": 44160,
            "time": 27.599999999999998,
            "velocity": 0.5354330708661418
          },
          {
            "duration": 0.6000000000000014,
            "durationTicks": 960,
            "midi": 82,
            "name": "A#5",
            "ticks": 46080,
            "time": 28.799999999999997,
            "velocity": 0.7795275590551181
          },
          {
            "duration": 1.8000000000000007,
            "durationTicks": 2880,
            "midi": 55,
            "name": "G3",
            "ticks": 46080,
            "time": 28.799999999999997,
            "velocity": 0.6456692913385826
          },
          {
            "duration": 0.5999999999999979,
            "durationTicks": 960,
            "midi": 81,
            "name": "A5",
            "ticks": 47040,
            "time": 29.4,
            "velocity": 0.5826771653543307
          },
          {
            "duration": 0.6000000000000014,
            "durationTicks": 960,
            "midi": 79,
            "name": "G5",
            "ticks": 48000,
            "time": 29.999999999999996,
            "velocity": 0.5669291338582677
          },
          {
            "duration": 0.5999999999999979,
            "durationTicks": 960,
            "midi": 81,
            "name": "A5",
            "ticks": 48960,
            "time": 30.599999999999998,
            "velocity": 0.6299212598425197
          },
          {
            "duration": 1.8000000000000007,
            "durationTicks": 2880,
            "midi": 53,
            "name": "F3",
            "ticks": 48960,
            "time": 30.599999999999998,
            "velocity": 0.5984251968503937
          },
          {
            "duration": 0.6000000000000014,
            "durationTicks": 960,
            "midi": 74,
            "name": "D5",
            "ticks": 49920,
            "time": 31.199999999999996,
            "velocity": 0.49606299212598426
          },
          {
            "duration": 0.6000000000000014,
            "durationTicks": 960,
            "midi": 74,
            "name": "D5",
            "ticks": 50880,
            "time": 31.799999999999997,
            "velocity": 0.5984251968503937
          },
          {
            "duration": 0.6000000000000014,
            "durationTicks": 960,
            "midi": 79,
            "name": "G5",
            "ticks": 51840,
            "time": 32.4,
            "velocity": 0.6929133858267716
          },
          {
            "duration": 1.7999999999999972,
            "durationTicks": 2880,
            "midi": 51,
            "name": "D#3",
            "ticks": 51840,
            "time": 32.4,
            "velocity": 0.5905511811023622
          },
          {
            "duration": 0.29999999999999716,
            "durationTicks": 480,
            "midi": 67,
            "name": "G4",
            "ticks": 52800,
            "time": 33,
            "velocity": 0.44881889763779526
          },
          {
            "duration": 0.29999999999999716,
            "durationTicks": 480,
            "midi": 69,
            "name": "A4",
            "ticks": 53280,
            "time": 33.3,
            "velocity": 0.5905511811023622
          },
          {
            "duration": 0.30000000000000426,
            "durationTicks": 480,
            "midi": 70,
            "name": "A#4",
            "ticks": 53760,
            "time": 33.599999999999994,
            "velocity": 0.6535433070866141
          },
          {
            "duration": 0.29999999999999716,
            "durationTicks": 480,
            "midi": 72,
            "name": "C5",
            "ticks": 54240,
            "time": 33.9,
            "velocity": 0.6456692913385826
          },
          {
            "duration": 1.8000000000000043,
            "durationTicks": 2880,
            "midi": 74,
            "name": "D5",
            "ticks": 54720,
            "time": 34.199999999999996,
            "velocity": 0.6220472440944882
          },
          {
            "duration": 0.6000000000000014,
            "durationTicks": 960,
            "midi": 50,
            "name": "D3",
            "ticks": 54720,
            "time": 34.199999999999996,
            "velocity": 0.5669291338582677
          },
          {
            "duration": 0.29999999999999716,
            "durationTicks": 480,
            "midi": 62,
            "name": "D4",
            "ticks": 55680,
            "time": 34.8,
            "velocity": 0.7559055118110236
          },
          {
            "duration": 0.30000000000000426,
            "durationTicks": 480,
            "midi": 60,
            "name": "C4",
            "ticks": 56160,
            "time": 35.099999999999994,
            "velocity": 0.5826771653543307
          },
          {
            "duration": 0.29999999999999716,
            "durationTicks": 480,
            "midi": 58,
            "name": "A#3",
            "ticks": 56640,
            "time": 35.4,
            "velocity": 0.6062992125984252
          },
          {
            "duration": 0.30000000000000426,
            "durationTicks": 480,
            "midi": 57,
            "name": "A3",
            "ticks": 57120,
            "time": 35.699999999999996,
            "velocity": 0.5669291338582677
          },
          {
            "duration": 0.5999999999999943,
            "durationTicks": 960,
            "midi": 75,
            "name": "D#5",
            "ticks": 57600,
            "time": 36,
            "velocity": 0.6456692913385826
          },
          {
            "duration": 1.1999999999999957,
            "durationTicks": 1920,
            "midi": 55,
            "name": "G3",
            "ticks": 57600,
            "time": 36,
            "velocity": 0.6299212598425197
          },
          {
            "duration": 1.1999999999999957,
            "durationTicks": 1920,
            "midi": 58,
            "name": "A#3",
            "ticks": 57600,
            "time": 36,
            "velocity": 0.6299212598425197
          },
          {
            "duration": 0.30000000000000426,
            "durationTicks": 480,
            "midi": 77,
            "name": "F5",
            "ticks": 58560,
            "time": 36.599999999999994,
            "velocity": 0.6692913385826772
          },
          {
            "duration": 0.29999999999999716,
            "durationTicks": 480,
            "midi": 75,
            "name": "D#5",
            "ticks": 59040,
            "time": 36.9,
            "velocity": 0.5275590551181102
          },
          {
            "duration": 0.30000000000000426,
            "durationTicks": 480,
            "midi": 74,
            "name": "D5",
            "ticks": 59520,
            "time": 37.199999999999996,
            "velocity": 0.5826771653543307
          },
          {
            "duration": 0.6000000000000014,
            "durationTicks": 960,
            "midi": 57,
            "name": "A3",
            "ticks": 59520,
            "time": 37.199999999999996,
            "velocity": 0.5669291338582677
          },
          {
            "duration": 0.29999999999999716,
            "durationTicks": 480,
            "midi": 72,
            "name": "C5",
            "ticks": 60000,
            "time": 37.5,
            "velocity": 0.5354330708661418
          },
          {
            "duration": 0.6000000000000014,
            "durationTicks": 960,
            "midi": 74,
            "name": "D5",
            "ticks": 60480,
            "time": 37.8,
            "velocity": 0.6220472440944882
          },
          {
            "duration": 1.2000000000000028,
            "durationTicks": 1920,
            "midi": 58,
            "name": "A#3",
            "ticks": 60480,
            "time": 37.8,
            "velocity": 0.5905511811023622
          },
          {
            "duration": 0.29999999999999716,
            "durationTicks": 480,
            "midi": 75,
            "name": "D#5",
            "ticks": 61440,
            "time": 38.4,
            "velocity": 0.6377952755905512
          },
          {
            "duration": 0.30000000000000426,
            "durationTicks": 480,
            "midi": 74,
            "name": "D5",
            "ticks": 61920,
            "time": 38.699999999999996,
            "velocity": 0.5433070866141733
          },
          {
            "duration": 0.29999999999999716,
            "durationTicks": 480,
            "midi": 72,
            "name": "C5",
            "ticks": 62400,
            "time": 39,
            "velocity": 0.5354330708661418
          },
          {
            "duration": 0.5999999999999943,
            "durationTicks": 960,
            "midi": 55,
            "name": "G3",
            "ticks": 62400,
            "time": 39,
            "velocity": 0.5826771653543307
          },
          {
            "duration": 0.29999999999999716,
            "durationTicks": 480,
            "midi": 70,
            "name": "A#4",
            "ticks": 62880,
            "time": 39.3,
            "velocity": 0.5275590551181102
          },
          {
            "duration": 0.6000000000000014,
            "durationTicks": 960,
            "midi": 72,
            "name": "C5",
            "ticks": 63360,
            "time": 39.599999999999994,
            "velocity": 0.6377952755905512
          },
          {
            "duration": 0.6000000000000014,
            "durationTicks": 960,
            "midi": 57,
            "name": "A3",
            "ticks": 63360,
            "time": 39.599999999999994,
            "velocity": 0.6299212598425197
          },
          {
            "duration": 0.30000000000000426,
            "durationTicks": 480,
            "midi": 74,
            "name": "D5",
            "ticks": 64320,
            "time": 40.199999999999996,
            "velocity": 0.6299212598425197
          },
          {
            "duration": 0.6000000000000014,
            "durationTicks": 960,
            "midi": 54,
            "name": "F#3",
            "ticks": 64320,
            "time": 40.199999999999996,
            "velocity": 0.5590551181102362
          },
          {
            "duration": 0.29999999999999716,
            "durationTicks": 480,
            "midi": 72,
            "name": "C5",
            "ticks": 64800,
            "time": 40.5,
            "velocity": 0.5826771653543307
          },
          {
            "duration": 0.29999999999999716,
            "durationTicks": 480,
            "midi": 70,
            "name": "A#4",
            "ticks": 65280,
            "time": 40.8,
            "velocity": 0.5984251968503937
          },
          {
            "duration": 0.6000000000000014,
            "durationTicks": 960,
            "midi": 55,
            "name": "G3",
            "ticks": 65280,
            "time": 40.8,
            "velocity": 0.5984251968503937
          },
          {
            "duration": 0.30000000000000426,
            "durationTicks": 480,
            "midi": 72,
            "name": "C5",
            "ticks": 65760,
            "time": 41.099999999999994,
            "velocity": 0.6692913385826772
          },
          {
            "duration": 1.7999999999999972,
            "durationTicks": 2880,
            "midi": 69,
            "name": "A4",
            "ticks": 66240,
            "time": 41.4,
            "velocity": 0.5669291338582677
          },
          {
            "duration": 0.6000000000000014,
            "durationTicks": 960,
            "midi": 50,
            "name": "D3",
            "ticks": 66240,
            "time": 41.4,
            "velocity": 0.5590551181102362
          },
          {
            "duration": 0.29999999999999716,
            "durationTicks": 480,
            "midi": 62,
            "name": "D4",
            "ticks": 67200,
            "time": 42,
            "velocity": 0.7637795275590551
          },
          {
            "duration": 0.29999999999999716,
            "durationTicks": 480,
            "midi": 60,
            "name": "C4",
            "ticks": 67680,
            "time": 42.3,
            "velocity": 0.5905511811023622
          },
          {
            "duration": 0.30000000000000426,
            "durationTicks": 480,
            "midi": 58,
            "name": "A#3",
            "ticks": 68160,
            "time": 42.599999999999994,
            "velocity": 0.6062992125984252
          },
          {
            "duration": 0.29999999999999716,
            "durationTicks": 480,
            "midi": 57,
            "name": "A3",
            "ticks": 68640,
            "time": 42.9,
            "velocity": 0.5748031496062992
          },
          {
            "duration": 0.6000000000000014,
            "durationTicks": 960,
            "midi": 82,
            "name": "A#5",
            "ticks": 69120,
            "time": 43.199999999999996,
            "velocity": 0.7952755905511811
          },
          {
            "duration": 1.8000000000000043,
            "durationTicks": 2880,
            "midi": 55,
            "name": "G3",
            "ticks": 69120,
            "time": 43.199999999999996,
            "velocity": 0.5590551181102362
          },
          {
            "duration": 0.6000000000000014,
            "durationTicks": 960,
            "midi": 81,
            "name": "A5",
            "ticks": 70080,
            "time": 43.8,
            "velocity": 0.5590551181102362
          },
          {
            "duration": 0.6000000000000014,
            "durationTicks": 960,
            "midi": 79,
            "name": "G5",
            "ticks": 71040,
            "time": 44.4,
            "velocity": 0.5118110236220472
          },
          {
            "duration": 0.5999999999999943,
            "durationTicks": 960,
            "midi": 81,
            "name": "A5",
            "ticks": 72000,
            "time": 45,
            "velocity": 0.6377952755905512
          },
          {
            "duration": 1.7999999999999972,
            "durationTicks": 2880,
            "midi": 53,
            "name": "F3",
            "ticks": 72000,
            "time": 45,
            "velocity": 0.6141732283464567
          },
          {
            "duration": 0.6000000000000014,
            "durationTicks": 960,
            "midi": 74,
            "name": "D5",
            "ticks": 72960,
            "time": 45.599999999999994,
            "velocity": 0.4645669291338583
          },
          {
            "duration": 0.6000000000000014,
            "durationTicks": 960,
            "midi": 74,
            "name": "D5",
            "ticks": 73920,
            "time": 46.199999999999996,
            "velocity": 0.5826771653543307
          },
          {
            "duration": 0.5999999999999943,
            "durationTicks": 960,
            "midi": 79,
            "name": "G5",
            "ticks": 74880,
            "time": 46.8,
            "velocity": 0.6850393700787402
          },
          {
            "duration": 1.7999999999999972,
            "durationTicks": 2880,
            "midi": 51,
            "name": "D#3",
            "ticks": 74880,
            "time": 46.8,
            "velocity": 0.5511811023622047
          },
          {
            "duration": 0.30000000000000426,
            "durationTicks": 480,
            "midi": 67,
            "name": "G4",
            "ticks": 75840,
            "time": 47.39999999999999,
            "velocity": 0.4251968503937008
          },
          {
            "duration": 0.30000000000000426,
            "durationTicks": 480,
            "midi": 69,
            "name": "A4",
            "ticks": 76320,
            "time": 47.699999999999996,
            "velocity": 0.6299212598425197
          },
          {
            "duration": 0.29999999999999716,
            "durationTicks": 480,
            "midi": 70,
            "name": "A#4",
            "ticks": 76800,
            "time": 48,
            "velocity": 0.6062992125984252
          },
          {
            "duration": 0.29999999999999716,
            "durationTicks": 480,
            "midi": 72,
            "name": "C5",
            "ticks": 77280,
            "time": 48.3,
            "velocity": 0.5984251968503937
          },
          {
            "duration": 1.7999999999999972,
            "durationTicks": 2880,
            "midi": 74,
            "name": "D5",
            "ticks": 77760,
            "time": 48.599999999999994,
            "velocity": 0.6456692913385826
          },
          {
            "duration": 0.6000000000000014,
            "durationTicks": 960,
            "midi": 50,
            "name": "D3",
            "ticks": 77760,
            "time": 48.599999999999994,
            "velocity": 0.5984251968503937
          },
          {
            "duration": 0.30000000000000426,
            "durationTicks": 480,
            "midi": 62,
            "name": "D4",
            "ticks": 78720,
            "time": 49.199999999999996,
            "velocity": 0.7795275590551181
          },
          {
            "duration": 0.29999999999999716,
            "durationTicks": 480,
            "midi": 60,
            "name": "C4",
            "ticks": 79200,
            "time": 49.5,
            "velocity": 0.6220472440944882
          },
          {
            "duration": 0.29999999999999716,
            "durationTicks": 480,
            "midi": 59,
            "name": "B3",
            "ticks": 79680,
            "time": 49.8,
            "velocity": 0.5984251968503937
          },
          {
            "duration": 0.29999999999999716,
            "durationTicks": 480,
            "midi": 57,
            "name": "A3",
            "ticks": 80160,
            "time": 50.099999999999994,
            "velocity": 0.5669291338582677
          },
          {
            "duration": 0.6000000000000085,
            "durationTicks": 960,
            "midi": 77,
            "name": "F5",
            "ticks": 80640,
            "time": 50.39999999999999,
            "velocity": 0.6614173228346457
          },
          {
            "duration": 1.2000000000000028,
            "durationTicks": 1920,
            "midi": 59,
            "name": "B3",
            "ticks": 80640,
            "time": 50.39999999999999,
            "velocity": 0.6771653543307087
          },
          {
            "duration": 1.2000000000000028,
            "durationTicks": 1920,
            "midi": 62,
            "name": "D4",
            "ticks": 80640,
            "time": 50.39999999999999,
            "velocity": 0.6771653543307087
          },
          {
            "duration": 0.29999999999999716,
            "durationTicks": 480,
            "midi": 79,
            "name": "G5",
            "ticks": 81600,
            "time": 51,
            "velocity": 0.6377952755905512
          },
          {
            "duration": 0.29999999999999716,
            "durationTicks": 480,
            "midi": 77,
            "name": "F5",
            "ticks": 82080,
            "time": 51.3,
            "velocity": 0.5984251968503937
          },
          {
            "duration": 0.29999999999999716,
            "durationTicks": 480,
            "midi": 75,
            "name": "D#5",
            "ticks": 82560,
            "time": 51.599999999999994,
            "velocity": 0.5826771653543307
          },
          {
            "duration": 0.6000000000000014,
            "durationTicks": 960,
            "midi": 55,
            "name": "G3",
            "ticks": 82560,
            "time": 51.599999999999994,
            "velocity": 0.5354330708661418
          },
          {
            "duration": 0.30000000000000426,
            "durationTicks": 480,
            "midi": 74,
            "name": "D5",
            "ticks": 83040,
            "time": 51.89999999999999,
            "velocity": 0.5354330708661418
          },
          {
            "duration": 0.6000000000000014,
            "durationTicks": 960,
            "midi": 75,
            "name": "D#5",
            "ticks": 83520,
            "time": 52.199999999999996,
            "velocity": 0.6456692913385826
          },
          {
            "duration": 0.6000000000000014,
            "durationTicks": 960,
            "midi": 60,
            "name": "C4",
            "ticks": 83520,
            "time": 52.199999999999996,
            "velocity": 0.7007874015748031
          },
          {
            "duration": 0.29999999999999716,
            "durationTicks": 480,
            "midi": 77,
            "name": "F5",
            "ticks": 84480,
            "time": 52.8,
            "velocity": 0.6456692913385826
          },
          {
            "duration": 0.5999999999999943,
            "durationTicks": 960,
            "midi": 57,
            "name": "A3",
            "ticks": 84480,
            "time": 52.8,
            "velocity": 0.5905511811023622
          },
          {
            "duration": 0.29999999999999716,
            "durationTicks": 480,
            "midi": 75,
            "name": "D#5",
            "ticks": 84960,
            "time": 53.099999999999994,
            "velocity": 0.5905511811023622
          },
          {
            "duration": 0.30000000000000426,
            "durationTicks": 480,
            "midi": 74,
            "name": "D5",
            "ticks": 85440,
            "time": 53.39999999999999,
            "velocity": 0.5905511811023622
          },
          {
            "duration": 0.6000000000000085,
            "durationTicks": 960,
            "midi": 53,
            "name": "F3",
            "ticks": 85440,
            "time": 53.39999999999999,
            "velocity": 0.5905511811023622
          },
          {
            "duration": 0.30000000000000426,
            "durationTicks": 480,
            "midi": 72,
            "name": "C5",
            "ticks": 85920,
            "time": 53.699999999999996,
            "velocity": 0.5433070866141733
          },
          {
            "duration": 0.5999999999999943,
            "durationTicks": 960,
            "midi": 74,
            "name": "D5",
            "ticks": 86400,
            "time": 54,
            "velocity": 0.6220472440944882
          },
          {
            "duration": 0.5999999999999943,
            "durationTicks": 960,
            "midi": 58,
            "name": "A#3",
            "ticks": 86400,
            "time": 54,
            "velocity": 0.6535433070866141
          },
          {
            "duration": 0.6000000000000014,
            "durationTicks": 960,
            "midi": 79,
            "name": "G5",
            "ticks": 87360,
            "time": 54.599999999999994,
            "velocity": 0.6850393700787402
          },
          {
            "duration": 0.6000000000000014,
            "durationTicks": 960,
            "midi": 51,
            "name": "D#3",
            "ticks": 87360,
            "time": 54.599999999999994,
            "velocity": 0.5354330708661418
          },
          {
            "duration": 0.6000000000000014,
            "durationTicks": 960,
            "midi": 72,
            "name": "C5",
            "ticks": 88320,
            "time": 55.199999999999996,
            "velocity": 0.4881889763779528
          },
          {
            "duration": 0.6000000000000014,
            "durationTicks": 960,
            "midi": 53,
            "name": "F3",
            "ticks": 88320,
            "time": 55.199999999999996,
            "velocity": 0.6299212598425197
          },
          {
            "duration": 0.6000000000000014,
            "durationTicks": 960,
            "midi": 57,
            "name": "A3",
            "ticks": 88320,
            "time": 55.199999999999996,
            "velocity": 0.6299212598425197
          },
          {
            "duration": 1.7999999999999972,
            "durationTicks": 2880,
            "midi": 62,
            "name": "D4",
            "ticks": 89280,
            "time": 55.8,
            "velocity": 0.5984251968503937
          },
          {
            "duration": 1.7999999999999972,
            "durationTicks": 2880,
            "midi": 65,
            "name": "F4",
            "ticks": 89280,
            "time": 55.8,
            "velocity": 0.5984251968503937
          },
          {
            "duration": 1.7999999999999972,
            "durationTicks": 2880,
            "midi": 70,
            "name": "A#4",
            "ticks": 89280,
            "time": 55.8,
            "velocity": 0.5984251968503937
          },
          {
            "duration": 0.5999999999999943,
            "durationTicks": 960,
            "midi": 58,
            "name": "A#3",
            "ticks": 89280,
            "time": 55.8,
            "velocity": 0.5984251968503937
          },
          {
            "duration": 1.2000000000000028,
            "durationTicks": 1920,
            "midi": 46,
            "name": "A#2",
            "ticks": 90240,
            "time": 56.39999999999999,
            "velocity": 0.5118110236220472
          },
          {
            "duration": 0.6000000000000014,
            "durationTicks": 960,
            "midi": 74,
            "name": "D5",
            "ticks": 92160,
            "time": 57.599999999999994,
            "velocity": 0.6456692913385826
          },
          {
            "duration": 1.7999999999999972,
            "durationTicks": 2880,
            "midi": 58,
            "name": "A#3",
            "ticks": 92160,
            "time": 57.599999999999994,
            "velocity": 0.6535433070866141
          },
          {
            "duration": 0.30000000000000426,
            "durationTicks": 480,
            "midi": 70,
            "name": "A#4",
            "ticks": 93120,
            "time": 58.199999999999996,
            "velocity": 0.5433070866141733
          },
          {
            "duration": 0.29999999999999716,
            "durationTicks": 480,
            "midi": 72,
            "name": "C5",
            "ticks": 93600,
            "time": 58.5,
            "velocity": 0.6377952755905512
          },
          {
            "duration": 0.29999999999999716,
            "durationTicks": 480,
            "midi": 74,
            "name": "D5",
            "ticks": 94080,
            "time": 58.8,
            "velocity": 0.6299212598425197
          },
          {
            "duration": 0.29999999999999716,
            "durationTicks": 480,
            "midi": 76,
            "name": "E5",
            "ticks": 94560,
            "time": 59.099999999999994,
            "velocity": 0.6377952755905512
          },
          {
            "duration": 0.6000000000000085,
            "durationTicks": 960,
            "midi": 77,
            "name": "F5",
            "ticks": 95040,
            "time": 59.39999999999999,
            "velocity": 0.6141732283464567
          },
          {
            "duration": 0.6000000000000085,
            "durationTicks": 960,
            "midi": 57,
            "name": "A3",
            "ticks": 95040,
            "time": 59.39999999999999,
            "velocity": 0.5826771653543307
          },
          {
            "duration": 0.5999999999999943,
            "durationTicks": 960,
            "midi": 79,
            "name": "G5",
            "ticks": 96000,
            "time": 60,
            "velocity": 0.6535433070866141
          },
          {
            "duration": 0.5999999999999943,
            "durationTicks": 960,
            "midi": 55,
            "name": "G3",
            "ticks": 96000,
            "time": 60,
            "velocity": 0.5748031496062992
          },
          {
            "duration": 0.6000000000000014,
            "durationTicks": 960,
            "midi": 81,
            "name": "A5",
            "ticks": 96960,
            "time": 60.599999999999994,
            "velocity": 0.6299212598425197
          },
          {
            "duration": 0.6000000000000014,
            "durationTicks": 960,
            "midi": 53,
            "name": "F3",
            "ticks": 96960,
            "time": 60.599999999999994,
            "velocity": 0.5984251968503937
          },
          {
            "duration": 0.6000000000000014,
            "durationTicks": 960,
            "midi": 82,
            "name": "A#5",
            "ticks": 97920,
            "time": 61.199999999999996,
            "velocity": 0.6141732283464567
          },
          {
            "duration": 0.6000000000000014,
            "durationTicks": 960,
            "midi": 55,
            "name": "G3",
            "ticks": 97920,
            "time": 61.199999999999996,
            "velocity": 0.6614173228346457
          },
          {
            "duration": 0.29999999999999716,
            "durationTicks": 480,
            "midi": 79,
            "name": "G5",
            "ticks": 98880,
            "time": 61.8,
            "velocity": 0.5590551181102362
          },
          {
            "duration": 0.6000000000000014,
            "durationTicks": 960,
            "midi": 52,
            "name": "E3",
            "ticks": 98880,
            "time": 61.8,
            "velocity": 0.5826771653543307
          },
          {
            "duration": 0.30000000000000426,
            "durationTicks": 480,
            "midi": 81,
            "name": "A5",
            "ticks": 99360,
            "time": 62.099999999999994,
            "velocity": 0.6299212598425197
          },
          {
            "duration": 0.29999999999999716,
            "durationTicks": 480,
            "midi": 82,
            "name": "A#5",
            "ticks": 99840,
            "time": 62.4,
            "velocity": 0.5984251968503937
          },
          {
            "duration": 0.5999999999999943,
            "durationTicks": 960,
            "midi": 48,
            "name": "C3",
            "ticks": 99840,
            "time": 62.4,
            "velocity": 0.5826771653543307
          },
          {
            "duration": 0.29999999999999716,
            "durationTicks": 480,
            "midi": 79,
            "name": "G5",
            "ticks": 100320,
            "time": 62.699999999999996,
            "velocity": 0.5590551181102362
          },
          {
            "duration": 0.6000000000000014,
            "durationTicks": 960,
            "midi": 81,
            "name": "A5",
            "ticks": 100800,
            "time": 62.99999999999999,
            "velocity": 0.6141732283464567
          },
          {
            "duration": 1.1999999999999957,
            "durationTicks": 1920,
            "midi": 53,
            "name": "F3",
            "ticks": 100800,
            "time": 62.99999999999999,
            "velocity": 0.6062992125984252
          },
          {
            "duration": 0.30000000000000426,
            "durationTicks": 480,
            "midi": 79,
            "name": "G5",
            "ticks": 101760,
            "time": 63.599999999999994,
            "velocity": 0.5748031496062992
          },
          {
            "duration": 0.29999999999999005,
            "durationTicks": 480,
            "midi": 81,
            "name": "A5",
            "ticks": 102240,
            "time": 63.9,
            "velocity": 0.6220472440944882
          },
          {
            "duration": 0.6000000000000085,
            "durationTicks": 960,
            "midi": 77,
            "name": "F5",
            "ticks": 102720,
            "time": 64.19999999999999,
            "velocity": 0.49606299212598426
          },
          {
            "duration": 0.29999999999999716,
            "durationTicks": 480,
            "midi": 65,
            "name": "F4",
            "ticks": 103680,
            "time": 64.8,
            "velocity": 0.4409448818897638
          },
          {
            "duration": 0.6000000000000085,
            "durationTicks": 960,
            "midi": 57,
            "name": "A3",
            "ticks": 103680,
            "time": 64.8,
            "velocity": 0.5196850393700787
          },
          {
            "duration": 0.30000000000001137,
            "durationTicks": 480,
            "midi": 67,
            "name": "G4",
            "ticks": 104160,
            "time": 65.1,
            "velocity": 0.6141732283464567
          },
          {
            "duration": 0.29999999999998295,
            "durationTicks": 480,
            "midi": 69,
            "name": "A4",
            "ticks": 104640,
            "time": 65.4,
            "velocity": 0.6220472440944882
          },
          {
            "duration": 0.5999999999999943,
            "durationTicks": 960,
            "midi": 55,
            "name": "G3",
            "ticks": 104640,
            "time": 65.4,
            "velocity": 0.5511811023622047
          },
          {
            "duration": 0.30000000000001137,
            "durationTicks": 480,
            "midi": 70,
            "name": "A#4",
            "ticks": 105120,
            "time": 65.69999999999999,
            "velocity": 0.6141732283464567
          },
          {
            "duration": 0.29999999999999716,
            "durationTicks": 480,
            "midi": 72,
            "name": "C5",
            "ticks": 105600,
            "time": 66,
            "velocity": 0.6141732283464567
          },
          {
            "duration": 0.5999999999999943,
            "durationTicks": 960,
            "midi": 53,
            "name": "F3",
            "ticks": 105600,
            "time": 66,
            "velocity": 0.5511811023622047
          },
          {
            "duration": 0.29999999999999716,
            "durationTicks": 480,
            "midi": 74,
            "name": "D5",
            "ticks": 106080,
            "time": 66.3,
            "velocity": 0.6299212598425197
          },
          {
            "duration": 0.5999999999999943,
            "durationTicks": 960,
            "midi": 75,
            "name": "D#5",
            "ticks": 106560,
            "time": 66.6,
            "velocity": 0.6299212598425197
          },
          {
            "duration": 0.5999999999999943,
            "durationTicks": 960,
            "midi": 55,
            "name": "G3",
            "ticks": 106560,
            "time": 66.6,
            "velocity": 0.6456692913385826
          },
          {
            "duration": 0.6000000000000085,
            "durationTicks": 960,
            "midi": 74,
            "name": "D5",
            "ticks": 107520,
            "time": 67.19999999999999,
            "velocity": 0.5511811023622047
          },
          {
            "duration": 0.6000000000000085,
            "durationTicks": 960,
            "midi": 53,
            "name": "F3",
            "ticks": 107520,
            "time": 67.19999999999999,
            "velocity": 0.5748031496062992
          },
          {
            "duration": 0.6000000000000085,
            "durationTicks": 960,
            "midi": 72,
            "name": "C5",
            "ticks": 108480,
            "time": 67.8,
            "velocity": 0.5748031496062992
          },
          {
            "duration": 0.6000000000000085,
            "durationTicks": 960,
            "midi": 51,
            "name": "D#3",
            "ticks": 108480,
            "time": 67.8,
            "velocity": 0.5669291338582677
          },
          {
            "duration": 0.5999999999999943,
            "durationTicks": 960,
            "midi": 77,
            "name": "F5",
            "ticks": 109440,
            "time": 68.4,
            "velocity": 0.6220472440944882
          },
          {
            "duration": 0.5999999999999943,
            "durationTicks": 960,
            "midi": 50,
            "name": "D3",
            "ticks": 109440,
            "time": 68.4,
            "velocity": 0.5905511811023622
          },
          {
            "duration": 0.5999999999999943,
            "durationTicks": 960,
            "midi": 70,
            "name": "A#4",
            "ticks": 110400,
            "time": 69,
            "velocity": 0.5275590551181102
          },
          {
            "duration": 0.5999999999999943,
            "durationTicks": 960,
            "midi": 51,
            "name": "D#3",
            "ticks": 110400,
            "time": 69,
            "velocity": 0.6062992125984252
          },
          {
            "duration": 0.5999999999999943,
            "durationTicks": 960,
            "midi": 69,
            "name": "A4",
            "ticks": 111360,
            "time": 69.6,
            "velocity": 0.5511811023622047
          },
          {
            "duration": 0.5999999999999943,
            "durationTicks": 960,
            "midi": 53,
            "name": "F3",
            "ticks": 111360,
            "time": 69.6,
            "velocity": 0.6141732283464567
          },
          {
            "duration": 1.8000000000000114,
            "durationTicks": 2880,
            "midi": 70,
            "name": "A#4",
            "ticks": 112320,
            "time": 70.19999999999999,
            "velocity": 0.6377952755905512
          },
          {
            "duration": 0.6000000000000085,
            "durationTicks": 960,
            "midi": 46,
            "name": "A#2",
            "ticks": 112320,
            "time": 70.19999999999999,
            "velocity": 0.5669291338582677
          },
          {
            "duration": 0.6000000000000085,
            "durationTicks": 960,
            "midi": 62,
            "name": "D4",
            "ticks": 113280,
            "time": 70.8,
            "velocity": 0.7401574803149606
          },
          {
            "duration": 0.5999999999999943,
            "durationTicks": 960,
            "midi": 60,
            "name": "C4",
            "ticks": 114240,
            "time": 71.4,
            "velocity": 0.5905511811023622
          },
          {
            "duration": 0.5999999999999943,
            "durationTicks": 960,
            "midi": 67,
            "name": "G4",
            "ticks": 115200,
            "time": 72,
            "velocity": 0.5433070866141733
          },
          {
            "duration": 1.7999999999999972,
            "durationTicks": 2880,
            "midi": 59,
            "name": "B3",
            "ticks": 115200,
            "time": 72,
            "velocity": 0.6535433070866141
          },
          {
            "duration": 1.7999999999999972,
            "durationTicks": 2880,
            "midi": 62,
            "name": "D4",
            "ticks": 115200,
            "time": 72,
            "velocity": 0.6535433070866141
          },
          {
            "duration": 0.30000000000001137,
            "durationTicks": 480,
            "midi": 74,
            "name": "D5",
            "ticks": 116160,
            "time": 72.6,
            "velocity": 0.6692913385826772
          },
          {
            "duration": 0.29999999999998295,
            "durationTicks": 480,
            "midi": 72,
            "name": "C5",
            "ticks": 116640,
            "time": 72.9,
            "velocity": 0.5669291338582677
          },
          {
            "duration": 0.6000000000000085,
            "durationTicks": 960,
            "midi": 74,
            "name": "D5",
            "ticks": 117120,
            "time": 73.19999999999999,
            "velocity": 0.6377952755905512
          },
          {
            "duration": 0.6000000000000085,
            "durationTicks": 960,
            "midi": 67,
            "name": "G4",
            "ticks": 118080,
            "time": 73.8,
            "velocity": 0.4881889763779528
          },
          {
            "duration": 1.7999999999999972,
            "durationTicks": 2880,
            "midi": 60,
            "name": "C4",
            "ticks": 118080,
            "time": 73.8,
            "velocity": 0.5433070866141733
          },
          {
            "duration": 0.29999999999998295,
            "durationTicks": 480,
            "midi": 75,
            "name": "D#5",
            "ticks": 119040,
            "time": 74.4,
            "velocity": 0.7086614173228346
          },
          {
            "duration": 0.30000000000001137,
            "durationTicks": 480,
            "midi": 74,
            "name": "D5",
            "ticks": 119520,
            "time": 74.69999999999999,
            "velocity": 0.5905511811023622
          },
          {
            "duration": 0.5999999999999943,
            "durationTicks": 960,
            "midi": 75,
            "name": "D#5",
            "ticks": 120000,
            "time": 75,
            "velocity": 0.6456692913385826
          },
          {
            "duration": 0.30000000000001137,
            "durationTicks": 480,
            "midi": 67,
            "name": "G4",
            "ticks": 120960,
            "time": 75.6,
            "velocity": 0.47244094488188976
          },
          {
            "duration": 0.5999999999999943,
            "durationTicks": 960,
            "midi": 58,
            "name": "A#3",
            "ticks": 120960,
            "time": 75.6,
            "velocity": 0.5511811023622047
          },
          {
            "duration": 0.29999999999998295,
            "durationTicks": 480,
            "midi": 74,
            "name": "D5",
            "ticks": 121440,
            "time": 75.9,
            "velocity": 0.6929133858267716
          },
          {
            "duration": 0.30000000000001137,
            "durationTicks": 480,
            "midi": 66,
            "name": "F#4",
            "ticks": 121920,
            "time": 76.19999999999999,
            "velocity": 0.4566929133858268
          },
          {
            "duration": 0.6000000000000085,
            "durationTicks": 960,
            "midi": 57,
            "name": "A3",
            "ticks": 121920,
            "time": 76.19999999999999,
            "velocity": 0.5984251968503937
          },
          {
            "duration": 0.29999999999999716,
            "durationTicks": 480,
            "midi": 72,
            "name": "C5",
            "ticks": 122400,
            "time": 76.5,
            "velocity": 0.6614173228346457
          },
          {
            "duration": 0.29999999999999716,
            "durationTicks": 480,
            "midi": 67,
            "name": "G4",
            "ticks": 122880,
            "time": 76.8,
            "velocity": 0.5511811023622047
          },
          {
            "duration": 0.6000000000000085,
            "durationTicks": 960,
            "midi": 55,
            "name": "G3",
            "ticks": 122880,
            "time": 76.8,
            "velocity": 0.6220472440944882
          },
          {
            "duration": 0.30000000000001137,
            "durationTicks": 480,
            "midi": 70,
            "name": "A#4",
            "ticks": 123360,
            "time": 77.1,
            "velocity": 0.6535433070866141
          },
          {
            "duration": 1.1999999999999886,
            "durationTicks": 1920,
            "midi": 69,
            "name": "A4",
            "ticks": 123840,
            "time": 77.4,
            "velocity": 0.5590551181102362
          },
          {
            "duration": 0.5999999999999943,
            "durationTicks": 960,
            "midi": 62,
            "name": "D4",
            "ticks": 123840,
            "time": 77.4,
            "velocity": 0.7322834645669292
          },
          {
            "duration": 0.29999999999999716,
            "durationTicks": 480,
            "midi": 57,
            "name": "A3",
            "ticks": 124800,
            "time": 78,
            "velocity": 0.5826771653543307
          },
          {
            "duration": 0.29999999999999716,
            "durationTicks": 480,
            "midi": 55,
            "name": "G3",
            "ticks": 125280,
            "time": 78.3,
            "velocity": 0.5826771653543307
          },
          {
            "duration": 0.30000000000001137,
            "durationTicks": 480,
            "midi": 54,
            "name": "F#3",
            "ticks": 125760,
            "time": 78.6,
            "velocity": 0.5748031496062992
          },
          {
            "duration": 0.29999999999998295,
            "durationTicks": 480,
            "midi": 52,
            "name": "E3",
            "ticks": 126240,
            "time": 78.9,
            "velocity": 0.5748031496062992
          },
          {
            "duration": 0.30000000000001137,
            "durationTicks": 480,
            "midi": 62,
            "name": "D4",
            "ticks": 126720,
            "time": 79.19999999999999,
            "velocity": 0.5511811023622047
          },
          {
            "duration": 1.200000000000017,
            "durationTicks": 1920,
            "midi": 50,
            "name": "D3",
            "ticks": 126720,
            "time": 79.19999999999999,
            "velocity": 0.5669291338582677
          },
          {
            "duration": 0.29999999999999716,
            "durationTicks": 480,
            "midi": 64,
            "name": "E4",
            "ticks": 127200,
            "time": 79.5,
            "velocity": 0.6299212598425197
          },
          {
            "duration": 0.29999999999999716,
            "durationTicks": 480,
            "midi": 66,
            "name": "F#4",
            "ticks": 127680,
            "time": 79.8,
            "velocity": 0.6377952755905512
          },
          {
            "duration": 0.30000000000001137,
            "durationTicks": 480,
            "midi": 67,
            "name": "G4",
            "ticks": 128160,
            "time": 80.1,
            "velocity": 0.6141732283464567
          },
          {
            "duration": 0.29999999999998295,
            "durationTicks": 480,
            "midi": 69,
            "name": "A4",
            "ticks": 128640,
            "time": 80.4,
            "velocity": 0.6377952755905512
          },
          {
            "duration": 0.30000000000001137,
            "durationTicks": 480,
            "midi": 70,
            "name": "A#4",
            "ticks": 129120,
            "time": 80.69999999999999,
            "velocity": 0.6614173228346457
          },
          {
            "duration": 0.5999999999999943,
            "durationTicks": 960,
            "midi": 72,
            "name": "C5",
            "ticks": 129600,
            "time": 81,
            "velocity": 0.6299212598425197
          },
          {
            "duration": 0.5999999999999943,
            "durationTicks": 960,
            "midi": 51,
            "name": "D#3",
            "ticks": 129600,
            "time": 81,
            "velocity": 0.5275590551181102
          },
          {
            "duration": 0.5999999999999943,
            "durationTicks": 960,
            "midi": 70,
            "name": "A#4",
            "ticks": 130560,
            "time": 81.6,
            "velocity": 0.5590551181102362
          },
          {
            "duration": 0.5999999999999943,
            "durationTicks": 960,
            "midi": 50,
            "name": "D3",
            "ticks": 130560,
            "time": 81.6,
            "velocity": 0.5984251968503937
          },
          {
            "duration": 0.6000000000000085,
            "durationTicks": 960,
            "midi": 69,
            "name": "A4",
            "ticks": 131520,
            "time": 82.19999999999999,
            "velocity": 0.5511811023622047
          },
          {
            "duration": 0.6000000000000085,
            "durationTicks": 960,
            "midi": 48,
            "name": "C3",
            "ticks": 131520,
            "time": 82.19999999999999,
            "velocity": 0.5826771653543307
          },
          {
            "duration": 0.29999999999999716,
            "durationTicks": 480,
            "midi": 70,
            "name": "A#4",
            "ticks": 132480,
            "time": 82.8,
            "velocity": 0.6220472440944882
          },
          {
            "duration": 0.6000000000000085,
            "durationTicks": 960,
            "midi": 46,
            "name": "A#2",
            "ticks": 132480,
            "time": 82.8,
            "velocity": 0.5826771653543307
          },
          {
            "duration": 0.15000000000000568,
            "durationTicks": 240,
            "midi": 72,
            "name": "C5",
            "ticks": 132960,
            "time": 83.1,
            "velocity": 0.6141732283464567
          },
          {
            "duration": 0.15000000000000568,
            "durationTicks": 240,
            "midi": 74,
            "name": "D5",
            "ticks": 133200,
            "time": 83.25,
            "velocity": 0.6535433070866141
          },
          {
            "duration": 0.5999999999999943,
            "durationTicks": 960,
            "midi": 67,
            "name": "G4",
            "ticks": 133440,
            "time": 83.4,
            "velocity": 0.5196850393700787
          },
          {
            "duration": 0.5999999999999943,
            "durationTicks": 960,
            "midi": 48,
            "name": "C3",
            "ticks": 133440,
            "time": 83.4,
            "velocity": 0.6456692913385826
          },
          {
            "duration": 0.5999999999999943,
            "durationTicks": 960,
            "midi": 66,
            "name": "F#4",
            "ticks": 134400,
            "time": 84,
            "velocity": 0.5196850393700787
          },
          {
            "duration": 0.5999999999999943,
            "durationTicks": 960,
            "midi": 50,
            "name": "D3",
            "ticks": 134400,
            "time": 84,
            "velocity": 0.6220472440944882
          },
          {
            "duration": 2.4000000000000057,
            "durationTicks": 3840,
            "midi": 58,
            "name": "A#3",
            "ticks": 135360,
            "time": 84.6,
            "velocity": 0.5748031496062992
          },
          {
            "duration": 2.4000000000000057,
            "durationTicks": 3840,
            "midi": 62,
            "name": "D4",
            "ticks": 135360,
            "time": 84.6,
            "velocity": 0.5748031496062992
          },
          {
            "duration": 2.4000000000000057,
            "durationTicks": 3840,
            "midi": 67,
            "name": "G4",
            "ticks": 135360,
            "time": 84.6,
            "velocity": 0.5748031496062992
          },
          {
            "duration": 0.5999999999999943,
            "durationTicks": 960,
            "midi": 55,
            "name": "G3",
            "ticks": 135360,
            "time": 84.6,
            "velocity": 0.6456692913385826
          },
          {
            "duration": 1.8000000000000114,
            "durationTicks": 2880,
            "midi": 43,
            "name": "G2",
            "ticks": 136320,
            "time": 85.19999999999999,
            "velocity": 0.5433070866141733
          },
          {
            "duration": 0.5999999999999943,
            "durationTicks": 960,
            "midi": 74,
            "name": "D5",
            "ticks": 139200,
            "time": 87,
            "velocity": 0.7165354330708661
          },
          {
            "duration": 1.7999999999999972,
            "durationTicks": 2880,
            "midi": 58,
            "name": "A#3",
            "ticks": 139200,
            "time": 87,
            "velocity": 0.6614173228346457
          },
          {
            "duration": 0.29999999999999716,
            "durationTicks": 480,
            "midi": 70,
            "name": "A#4",
            "ticks": 140160,
            "time": 87.6,
            "velocity": 0.5511811023622047
          },
          {
            "duration": 0.29999999999999716,
            "durationTicks": 480,
            "midi": 72,
            "name": "C5",
            "ticks": 140640,
            "time": 87.89999999999999,
            "velocity": 0.6141732283464567
          },
          {
            "duration": 0.30000000000001137,
            "durationTicks": 480,
            "midi": 74,
            "name": "D5",
            "ticks": 141120,
            "time": 88.19999999999999,
            "velocity": 0.6377952755905512
          },
          {
            "duration": 0.29999999999999716,
            "durationTicks": 480,
            "midi": 76,
            "name": "E5",
            "ticks": 141600,
            "time": 88.5,
            "velocity": 0.6377952755905512
          },
          {
            "duration": 0.5999999999999943,
            "durationTicks": 960,
            "midi": 77,
            "name": "F5",
            "ticks": 142080,
            "time": 88.8,
            "velocity": 0.5905511811023622
          },
          {
            "duration": 0.5999999999999943,
            "durationTicks": 960,
            "midi": 57,
            "name": "A3",
            "ticks": 142080,
            "time": 88.8,
            "velocity": 0.5905511811023622
          },
          {
            "duration": 0.6000000000000085,
            "durationTicks": 960,
            "midi": 79,
            "name": "G5",
            "ticks": 143040,
            "time": 89.39999999999999,
            "velocity": 0.6220472440944882
          },
          {
            "duration": 0.6000000000000085,
            "durationTicks": 960,
            "midi": 55,
            "name": "G3",
            "ticks": 143040,
            "time": 89.39999999999999,
            "velocity": 0.5590551181102362
          },
          {
            "duration": 0.5999999999999943,
            "durationTicks": 960,
            "midi": 81,
            "name": "A5",
            "ticks": 144000,
            "time": 90,
            "velocity": 0.5826771653543307
          },
          {
            "duration": 0.5999999999999943,
            "durationTicks": 960,
            "midi": 53,
            "name": "F3",
            "ticks": 144000,
            "time": 90,
            "velocity": 0.5590551181102362
          },
          {
            "duration": 0.5999999999999943,
            "durationTicks": 960,
            "midi": 82,
            "name": "A#5",
            "ticks": 144960,
            "time": 90.6,
            "velocity": 0.6220472440944882
          },
          {
            "duration": 0.5999999999999943,
            "durationTicks": 960,
            "midi": 55,
            "name": "G3",
            "ticks": 144960,
            "time": 90.6,
            "velocity": 0.6141732283464567
          },
          {
            "duration": 0.30000000000001137,
            "durationTicks": 480,
            "midi": 79,
            "name": "G5",
            "ticks": 145920,
            "time": 91.19999999999999,
            "velocity": 0.5590551181102362
          },
          {
            "duration": 0.6000000000000085,
            "durationTicks": 960,
            "midi": 52,
            "name": "E3",
            "ticks": 145920,
            "time": 91.19999999999999,
            "velocity": 0.5826771653543307
          },
          {
            "duration": 0.29999999999999716,
            "durationTicks": 480,
            "midi": 81,
            "name": "A5",
            "ticks": 146400,
            "time": 91.5,
            "velocity": 0.6377952755905512
          },
          {
            "duration": 0.29999999999999716,
            "durationTicks": 480,
            "midi": 82,
            "name": "A#5",
            "ticks": 146880,
            "time": 91.8,
            "velocity": 0.6141732283464567
          },
          {
            "duration": 0.5999999999999943,
            "durationTicks": 960,
            "midi": 48,
            "name": "C3",
            "ticks": 146880,
            "time": 91.8,
            "velocity": 0.5590551181102362
          },
          {
            "duration": 0.29999999999999716,
            "durationTicks": 480,
            "midi": 79,
            "name": "G5",
            "ticks": 147360,
            "time": 92.1,
            "velocity": 0.5118110236220472
          },
          {
            "duration": 0.6000000000000085,
            "durationTicks": 960,
            "midi": 81,
            "name": "A5",
            "ticks": 147840,
            "time": 92.39999999999999,
            "velocity": 0.6220472440944882
          },
          {
            "duration": 1.2000000000000028,
            "durationTicks": 1920,
            "midi": 53,
            "name": "F3",
            "ticks": 147840,
            "time": 92.39999999999999,
            "velocity": 0.6220472440944882
          },
          {
            "duration": 0.29999999999999716,
            "durationTicks": 480,
            "midi": 79,
            "name": "G5",
            "ticks": 148800,
            "time": 93,
            "velocity": 0.5669291338582677
          },
          {
            "duration": 0.29999999999999716,
            "durationTicks": 480,
            "midi": 81,
            "name": "A5",
            "ticks": 149280,
            "time": 93.3,
            "velocity": 0.6456692913385826
          },
          {
            "duration": 0.5999999999999943,
            "durationTicks": 960,
            "midi": 77,
            "name": "F5",
            "ticks": 149760,
            "time": 93.6,
            "velocity": 0.5590551181102362
          },
          {
            "duration": 0.30000000000001137,
            "durationTicks": 480,
            "midi": 65,
            "name": "F4",
            "ticks": 150720,
            "time": 94.19999999999999,
            "velocity": 0.41732283464566927
          },
          {
            "duration": 0.6000000000000085,
            "durationTicks": 960,
            "midi": 57,
            "name": "A3",
            "ticks": 150720,
            "time": 94.19999999999999,
            "velocity": 0.5669291338582677
          },
          {
            "duration": 0.29999999999999716,
            "durationTicks": 480,
            "midi": 67,
            "name": "G4",
            "ticks": 151200,
            "time": 94.5,
            "velocity": 0.6062992125984252
          },
          {
            "duration": 0.29999999999999716,
            "durationTicks": 480,
            "midi": 69,
            "name": "A4",
            "ticks": 151680,
            "time": 94.8,
            "velocity": 0.6377952755905512
          },
          {
            "duration": 0.5999999999999943,
            "durationTicks": 960,
            "midi": 55,
            "name": "G3",
            "ticks": 151680,
            "time": 94.8,
            "velocity": 0.5354330708661418
          },
          {
            "duration": 0.29999999999999716,
            "durationTicks": 480,
            "midi": 70,
            "name": "A#4",
            "ticks": 152160,
            "time": 95.1,
            "velocity": 0.6535433070866141
          },
          {
            "duration": 0.29999999999999716,
            "durationTicks": 480,
            "midi": 72,
            "name": "C5",
            "ticks": 152640,
            "time": 95.39999999999999,
            "velocity": 0.6535433070866141
          },
          {
            "duration": 0.6000000000000085,
            "durationTicks": 960,
            "midi": 53,
            "name": "F3",
            "ticks": 152640,
            "time": 95.39999999999999,
            "velocity": 0.5590551181102362
          },
          {
            "duration": 0.30000000000001137,
            "durationTicks": 480,
            "midi": 74,
            "name": "D5",
            "ticks": 153120,
            "time": 95.69999999999999,
            "velocity": 0.6614173228346457
          },
          {
            "duration": 0.5999999999999943,
            "durationTicks": 960,
            "midi": 75,
            "name": "D#5",
            "ticks": 153600,
            "time": 96,
            "velocity": 0.6377952755905512
          },
          {
            "duration": 0.5999999999999943,
            "durationTicks": 960,
            "midi": 55,
            "name": "G3",
            "ticks": 153600,
            "time": 96,
            "velocity": 0.6141732283464567
          },
          {
            "duration": 0.5999999999999943,
            "durationTicks": 960,
            "midi": 74,
            "name": "D5",
            "ticks": 154560,
            "time": 96.6,
            "velocity": 0.5905511811023622
          },
          {
            "duration": 0.5999999999999943,
            "durationTicks": 960,
            "midi": 53,
            "name": "F3",
            "ticks": 154560,
            "time": 96.6,
            "velocity": 0.5590551181102362
          },
          {
            "duration": 0.6000000000000085,
            "durationTicks": 960,
            "midi": 72,
            "name": "C5",
            "ticks": 155520,
            "time": 97.19999999999999,
            "velocity": 0.5511811023622047
          },
          {
            "duration": 0.6000000000000085,
            "durationTicks": 960,
            "midi": 51,
            "name": "D#3",
            "ticks": 155520,
            "time": 97.19999999999999,
            "velocity": 0.5748031496062992
          },
          {
            "duration": 0.5999999999999943,
            "durationTicks": 960,
            "midi": 77,
            "name": "F5",
            "ticks": 156480,
            "time": 97.8,
            "velocity": 0.7007874015748031
          },
          {
            "duration": 0.5999999999999943,
            "durationTicks": 960,
            "midi": 50,
            "name": "D3",
            "ticks": 156480,
            "time": 97.8,
            "velocity": 0.5905511811023622
          },
          {
            "duration": 0.6000000000000085,
            "durationTicks": 960,
            "midi": 70,
            "name": "A#4",
            "ticks": 157440,
            "time": 98.39999999999999,
            "velocity": 0.5039370078740157
          },
          {
            "duration": 0.6000000000000085,
            "durationTicks": 960,
            "midi": 51,
            "name": "D#3",
            "ticks": 157440,
            "time": 98.39999999999999,
            "velocity": 0.5984251968503937
          },
          {
            "duration": 0.5999999999999943,
            "durationTicks": 960,
            "midi": 69,
            "name": "A4",
            "ticks": 158400,
            "time": 99,
            "velocity": 0.5511811023622047
          },
          {
            "duration": 0.5999999999999943,
            "durationTicks": 960,
            "midi": 53,
            "name": "F3",
            "ticks": 158400,
            "time": 99,
            "velocity": 0.6141732283464567
          },
          {
            "duration": 1.7999999999999972,
            "durationTicks": 2880,
            "midi": 70,
            "name": "A#4",
            "ticks": 159360,
            "time": 99.6,
            "velocity": 0.6141732283464567
          },
          {
            "duration": 0.5999999999999943,
            "durationTicks": 960,
            "midi": 46,
            "name": "A#2",
            "ticks": 159360,
            "time": 99.6,
            "velocity": 0.5511811023622047
          },
          {
            "duration": 0.6000000000000085,
            "durationTicks": 960,
            "midi": 62,
            "name": "D4",
            "ticks": 160320,
            "time": 100.19999999999999,
            "velocity": 0.7795275590551181
          },
          {
            "duration": 0.5999999999999943,
            "durationTicks": 960,
            "midi": 60,
            "name": "C4",
            "ticks": 161280,
            "time": 100.8,
            "velocity": 0.6062992125984252
          },
          {
            "duration": 0.6000000000000085,
            "durationTicks": 960,
            "midi": 67,
            "name": "G4",
            "ticks": 162240,
            "time": 101.39999999999999,
            "velocity": 0.5511811023622047
          },
          {
            "duration": 1.7999999999999972,
            "durationTicks": 2880,
            "midi": 59,
            "name": "B3",
            "ticks": 162240,
            "time": 101.39999999999999,
            "velocity": 0.6535433070866141
          },
          {
            "duration": 1.7999999999999972,
            "durationTicks": 2880,
            "midi": 62,
            "name": "D4",
            "ticks": 162240,
            "time": 101.39999999999999,
            "velocity": 0.6535433070866141
          },
          {
            "duration": 0.29999999999999716,
            "durationTicks": 480,
            "midi": 74,
            "name": "D5",
            "ticks": 163200,
            "time": 102,
            "velocity": 0.6771653543307087
          },
          {
            "duration": 0.29999999999999716,
            "durationTicks": 480,
            "midi": 72,
            "name": "C5",
            "ticks": 163680,
            "time": 102.3,
            "velocity": 0.5826771653543307
          },
          {
            "duration": 0.5999999999999943,
            "durationTicks": 960,
            "midi": 74,
            "name": "D5",
            "ticks": 164160,
            "time": 102.6,
            "velocity": 0.6456692913385826
          },
          {
            "duration": 0.6000000000000085,
            "durationTicks": 960,
            "midi": 67,
            "name": "G4",
            "ticks": 165120,
            "time": 103.19999999999999,
            "velocity": 0.4881889763779528
          },
          {
            "duration": 1.8000000000000114,
            "durationTicks": 2880,
            "midi": 60,
            "name": "C4",
            "ticks": 165120,
            "time": 103.19999999999999,
            "velocity": 0.5275590551181102
          },
          {
            "duration": 0.29999999999999716,
            "durationTicks": 480,
            "midi": 75,
            "name": "D#5",
            "ticks": 166080,
            "time": 103.8,
            "velocity": 0.6771653543307087
          },
          {
            "duration": 0.29999999999999716,
            "durationTicks": 480,
            "midi": 74,
            "name": "D5",
            "ticks": 166560,
            "time": 104.1,
            "velocity": 0.5826771653543307
          },
          {
            "duration": 0.6000000000000085,
            "durationTicks": 960,
            "midi": 75,
            "name": "D#5",
            "ticks": 167040,
            "time": 104.39999999999999,
            "velocity": 0.6220472440944882
          },
          {
            "duration": 0.29999999999999716,
            "durationTicks": 480,
            "midi": 67,
            "name": "G4",
            "ticks": 168000,
            "time": 105,
            "velocity": 0.48031496062992124
          },
          {
            "duration": 0.5999999999999943,
            "durationTicks": 960,
            "midi": 58,
            "name": "A#3",
            "ticks": 168000,
            "time": 105,
            "velocity": 0.5590551181102362
          },
          {
            "duration": 0.29999999999999716,
            "durationTicks": 480,
            "midi": 74,
            "name": "D5",
            "ticks": 168480,
            "time": 105.3,
            "velocity": 0.6929133858267716
          },
          {
            "duration": 0.29999999999999716,
            "durationTicks": 480,
            "midi": 66,
            "name": "F#4",
            "ticks": 168960,
            "time": 105.6,
            "velocity": 0.48031496062992124
          },
          {
            "duration": 0.5999999999999943,
            "durationTicks": 960,
            "midi": 57,
            "name": "A3",
            "ticks": 168960,
            "time": 105.6,
            "velocity": 0.5905511811023622
          },
          {
            "duration": 0.29999999999999716,
            "durationTicks": 480,
            "midi": 72,
            "name": "C5",
            "ticks": 169440,
            "time": 105.89999999999999,
            "velocity": 0.7007874015748031
          },
          {
            "duration": 0.30000000000001137,
            "durationTicks": 480,
            "midi": 67,
            "name": "G4",
            "ticks": 169920,
            "time": 106.19999999999999,
            "velocity": 0.5118110236220472
          },
          {
            "duration": 0.6000000000000085,
            "durationTicks": 960,
            "midi": 55,
            "name": "G3",
            "ticks": 169920,
            "time": 106.19999999999999,
            "velocity": 0.5984251968503937
          },
          {
            "duration": 0.29999999999999716,
            "durationTicks": 480,
            "midi": 70,
            "name": "A#4",
            "ticks": 170400,
            "time": 106.5,
            "velocity": 0.6535433070866141
          },
          {
            "duration": 1.2000000000000028,
            "durationTicks": 1920,
            "midi": 69,
            "name": "A4",
            "ticks": 170880,
            "time": 106.8,
            "velocity": 0.5826771653543307
          },
          {
            "duration": 0.5999999999999943,
            "durationTicks": 960,
            "midi": 62,
            "name": "D4",
            "ticks": 170880,
            "time": 106.8,
            "velocity": 0.7244094488188977
          },
          {
            "duration": 0.29999999999999716,
            "durationTicks": 480,
            "midi": 57,
            "name": "A3",
            "ticks": 171840,
            "time": 107.39999999999999,
            "velocity": 0.5748031496062992
          },
          {
            "duration": 0.30000000000001137,
            "durationTicks": 480,
            "midi": 55,
            "name": "G3",
            "ticks": 172320,
            "time": 107.69999999999999,
            "velocity": 0.5590551181102362
          },
          {
            "duration": 0.29999999999999716,
            "durationTicks": 480,
            "midi": 54,
            "name": "F#3",
            "ticks": 172800,
            "time": 108,
            "velocity": 0.5748031496062992
          },
          {
            "duration": 0.29999999999999716,
            "durationTicks": 480,
            "midi": 52,
            "name": "E3",
            "ticks": 173280,
            "time": 108.3,
            "velocity": 0.5511811023622047
          },
          {
            "duration": 0.29999999999999716,
            "durationTicks": 480,
            "midi": 62,
            "name": "D4",
            "ticks": 173760,
            "time": 108.6,
            "velocity": 0.4881889763779528
          },
          {
            "duration": 1.2000000000000028,
            "durationTicks": 1920,
            "midi": 50,
            "name": "D3",
            "ticks": 173760,
            "time": 108.6,
            "velocity": 0.5748031496062992
          },
          {
            "duration": 0.29999999999999716,
            "durationTicks": 480,
            "midi": 64,
            "name": "E4",
            "ticks": 174240,
            "time": 108.89999999999999,
            "velocity": 0.6141732283464567
          },
          {
            "duration": 0.30000000000001137,
            "durationTicks": 480,
            "midi": 66,
            "name": "F#4",
            "ticks": 174720,
            "time": 109.19999999999999,
            "velocity": 0.6535433070866141
          },
          {
            "duration": 0.29999999999999716,
            "durationTicks": 480,
            "midi": 67,
            "name": "G4",
            "ticks": 175200,
            "time": 109.5,
            "velocity": 0.5905511811023622
          },
          {
            "duration": 0.29999999999999716,
            "durationTicks": 480,
            "midi": 69,
            "name": "A4",
            "ticks": 175680,
            "time": 109.8,
            "velocity": 0.6377952755905512
          },
          {
            "duration": 0.29999999999999716,
            "durationTicks": 480,
            "midi": 70,
            "name": "A#4",
            "ticks": 176160,
            "time": 110.1,
            "velocity": 0.6456692913385826
          },
          {
            "duration": 0.6000000000000085,
            "durationTicks": 960,
            "midi": 72,
            "name": "C5",
            "ticks": 176640,
            "time": 110.39999999999999,
            "velocity": 0.6456692913385826
          },
          {
            "duration": 0.6000000000000085,
            "durationTicks": 960,
            "midi": 51,
            "name": "D#3",
            "ticks": 176640,
            "time": 110.39999999999999,
            "velocity": 0.5354330708661418
          },
          {
            "duration": 0.5999999999999943,
            "durationTicks": 960,
            "midi": 70,
            "name": "A#4",
            "ticks": 177600,
            "time": 111,
            "velocity": 0.5905511811023622
          },
          {
            "duration": 0.5999999999999943,
            "durationTicks": 960,
            "midi": 50,
            "name": "D3",
            "ticks": 177600,
            "time": 111,
            "velocity": 0.5669291338582677
          },
          {
            "duration": 0.5999999999999943,
            "durationTicks": 960,
            "midi": 69,
            "name": "A4",
            "ticks": 178560,
            "time": 111.6,
            "velocity": 0.6299212598425197
          },
          {
            "duration": 0.5999999999999943,
            "durationTicks": 960,
            "midi": 48,
            "name": "C3",
            "ticks": 178560,
            "time": 111.6,
            "velocity": 0.5748031496062992
          },
          {
            "duration": 0.30000000000001137,
            "durationTicks": 480,
            "midi": 70,
            "name": "A#4",
            "ticks": 179520,
            "time": 112.19999999999999,
            "velocity": 0.6299212598425197
          },
          {
            "duration": 0.6000000000000085,
            "durationTicks": 960,
            "midi": 46,
            "name": "A#2",
            "ticks": 179520,
            "time": 112.19999999999999,
            "velocity": 0.5826771653543307
          },
          {
            "duration": 0.14999999999999147,
            "durationTicks": 240,
            "midi": 72,
            "name": "C5",
            "ticks": 180000,
            "time": 112.5,
            "velocity": 0.6456692913385826
          },
          {
            "duration": 0.15000000000000568,
            "durationTicks": 240,
            "midi": 74,
            "name": "D5",
            "ticks": 180240,
            "time": 112.64999999999999,
            "velocity": 0.6220472440944882
          },
          {
            "duration": 0.5999999999999943,
            "durationTicks": 960,
            "midi": 67,
            "name": "G4",
            "ticks": 180480,
            "time": 112.8,
            "velocity": 0.4645669291338583
          },
          {
            "duration": 0.5999999999999943,
            "durationTicks": 960,
            "midi": 48,
            "name": "C3",
            "ticks": 180480,
            "time": 112.8,
            "velocity": 0.6220472440944882
          },
          {
            "duration": 0.6000000000000085,
            "durationTicks": 960,
            "midi": 66,
            "name": "F#4",
            "ticks": 181440,
            "time": 113.39999999999999,
            "velocity": 0.5669291338582677
          },
          {
            "duration": 0.6000000000000085,
            "durationTicks": 960,
            "midi": 50,
            "name": "D3",
            "ticks": 181440,
            "time": 113.39999999999999,
            "velocity": 0.6220472440944882
          },
          {
            "duration": 2.3999999999999915,
            "durationTicks": 3840,
            "midi": 58,
            "name": "A#3",
            "ticks": 182400,
            "time": 114,
            "velocity": 0.6614173228346457
          },
          {
            "duration": 2.3999999999999915,
            "durationTicks": 3840,
            "midi": 62,
            "name": "D4",
            "ticks": 182400,
            "time": 114,
            "velocity": 0.6614173228346457
          },
          {
            "duration": 2.3999999999999915,
            "durationTicks": 3840,
            "midi": 67,
            "name": "G4",
            "ticks": 182400,
            "time": 114,
            "velocity": 0.6614173228346457
          },
          {
            "duration": 0.5999999999999943,
            "durationTicks": 960,
            "midi": 55,
            "name": "G3",
            "ticks": 182400,
            "time": 114,
            "velocity": 0.6220472440944882
          },
          {
            "duration": 1.7999999999999972,
            "durationTicks": 2880,
            "midi": 43,
            "name": "G2",
            "ticks": 183360,
            "time": 114.6,
            "velocity": 0.4881889763779528
          }
        ],
        "endOfTrackTicks": 186241
      }
    ]
  }