var chopin = {
  "header": {
    "keySignatures": [
      {
        "key": "D",
        "scale": "minor",
        "ticks": 0
      }
    ],
    "meta": [],
    "name": "",
    "ppq": 256,
    "tempos": [
      {
        "bpm": 152.00032426735845,
        "ticks": 512
      },
      {
        "bpm": 128,
        "ticks": 23296
      },
      {
        "bpm": 120,
        "ticks": 23424
      },
      {
        "bpm": 110.00011000011,
        "ticks": 23552
      },
      {
        "bpm": 152.00032426735845,
        "ticks": 24576
      }
    ],
    "timeSignatures": [
      {
        "ticks": 0,
        "timeSignature": [
          3,
          4
        ],
        "measures": 0
      }
    ]
  },
  "tracks": [
    {
      "channel": 0,
      "controlChanges": {
        "7": [
          {
            "number": 7,
            "ticks": 512,
            "time": 0.789472,
            "value": 0.7874015748031497
          },
          {
            "number": 7,
            "ticks": 512,
            "time": 0.789472,
            "value": 0.7874015748031497
          }
        ],
        "10": [
          {
            "number": 10,
            "ticks": 512,
            "time": 0.789472,
            "value": 0.4015748031496063
          },
          {
            "number": 10,
            "ticks": 512,
            "time": 0.789472,
            "value": 0.4015748031496063
          }
        ],
        "64": [
          {
            "number": 64,
            "ticks": 512,
            "time": 0.789472,
            "value": 0
          },
          {
            "number": 64,
            "ticks": 512,
            "time": 0.789472,
            "value": 0
          },
          {
            "number": 64,
            "ticks": 768,
            "time": 1.184208,
            "value": 1
          },
          {
            "number": 64,
            "ticks": 1535,
            "time": 2.3668740625,
            "value": 0
          },
          {
            "number": 64,
            "ticks": 1536,
            "time": 2.368416,
            "value": 1
          },
          {
            "number": 64,
            "ticks": 2303,
            "time": 3.5510820625,
            "value": 0
          }
        ],
        "91": [
          {
            "number": 91,
            "ticks": 512,
            "time": 0.789472,
            "value": 0.3779527559055118
          },
          {
            "number": 91,
            "ticks": 512,
            "time": 0.789472,
            "value": 0.3779527559055118
          }
        ],
        "121": [
          {
            "number": 121,
            "ticks": 512,
            "time": 0.789472,
            "value": 0
          },
          {
            "number": 121,
            "ticks": 512,
            "time": 0.789472,
            "value": 0
          }
        ]
      },
      "pitchBends": [],
      "instrument": {
        "family": "piano",
        "name": "acoustic grand piano",
        "number": 0
      },
      "name": "Piano",
      "notes": [
        {
          "duration": 0.6028975624999999,
          "durationTicks": 391,
          "midi": 78,
          "name": "F#5",
          "ticks": 512,
          "time": 0.789472,
          "velocity": 0.47244094488188976
        },
        {
          "duration": 0.394736,
          "durationTicks": 256,
          "midi": 47,
          "name": "B2",
          "ticks": 768,
          "time": 1.184208,
          "velocity": 0.4251968503937008
        },
        {
          "duration": 0.20045187499999995,
          "durationTicks": 130,
          "midi": 79,
          "name": "G5",
          "ticks": 896,
          "time": 1.381576,
          "velocity": 0.49606299212598426
        },
        {
          "duration": 0.20045187499999995,
          "durationTicks": 130,
          "midi": 78,
          "name": "F#5",
          "ticks": 1024,
          "time": 1.578944,
          "velocity": 0.49606299212598426
        },
        {
          "duration": 0.394736,
          "durationTicks": 256,
          "midi": 54,
          "name": "F#3",
          "ticks": 1024,
          "time": 1.578944,
          "velocity": 0.5905511811023622
        },
        {
          "duration": 0.394736,
          "durationTicks": 256,
          "midi": 59,
          "name": "B3",
          "ticks": 1024,
          "time": 1.578944,
          "velocity": 0.5905511811023622
        },
        {
          "duration": 0.394736,
          "durationTicks": 256,
          "midi": 62,
          "name": "D4",
          "ticks": 1024,
          "time": 1.578944,
          "velocity": 0.5905511811023622
        },
        {
          "duration": 0.20045187499999995,
          "durationTicks": 130,
          "midi": 73,
          "name": "C#5",
          "ticks": 1152,
          "time": 1.776312,
          "velocity": 0.41732283464566927
        },
        {
          "duration": 0.20045187499999972,
          "durationTicks": 130,
          "midi": 74,
          "name": "D5",
          "ticks": 1280,
          "time": 1.9736799999999999,
          "velocity": 0.4881889763779528
        },
        {
          "duration": 0.394736,
          "durationTicks": 256,
          "midi": 54,
          "name": "F#3",
          "ticks": 1280,
          "time": 1.9736799999999999,
          "velocity": 0.5275590551181102
        },
        {
          "duration": 0.394736,
          "durationTicks": 256,
          "midi": 59,
          "name": "B3",
          "ticks": 1280,
          "time": 1.9736799999999999,
          "velocity": 0.5275590551181102
        },
        {
          "duration": 0.394736,
          "durationTicks": 256,
          "midi": 62,
          "name": "D4",
          "ticks": 1280,
          "time": 1.9736799999999999,
          "velocity": 0.5275590551181102
        },
        {
          "duration": 0.20045187499999972,
          "durationTicks": 130,
          "midi": 71,
          "name": "B4",
          "ticks": 1408,
          "time": 2.171048,
          "velocity": 0.47244094488188976
        },
        {
          "duration": 0.7493816249999998,
          "durationTicks": 486,
          "midi": 70,
          "name": "A#4",
          "ticks": 1536,
          "time": 2.368416,
          "velocity": 0.4409448818897638
        },
        {
          "duration": 0.394736,
          "durationTicks": 256,
          "midi": 49,
          "name": "C#3",
          "ticks": 1536,
          "time": 2.368416,
          "velocity": 0.4015748031496063
        },
        {
          "duration": 0.394736,
          "durationTicks": 256,
          "midi": 54,
          "name": "F#3",
          "ticks": 1792,
          "time": 2.763152,
          "velocity": 0.6062992125984252
        },
        {
          "duration": 0.394736,
          "durationTicks": 256,
          "midi": 58,
          "name": "A#3",
          "ticks": 1792,
          "time": 2.763152,
          "velocity": 0.6062992125984252
        },
        {
          "duration": 0.394736,
          "durationTicks": 256,
          "midi": 64,
          "name": "E4",
          "ticks": 1792,
          "time": 2.763152,
          "velocity": 0.6062992125984252
        },
        {
          "duration": 0.6028975624999999,
          "durationTicks": 391,
          "midi": 78,
          "name": "F#5",
          "ticks": 2048,
          "time": 3.157888,
          "velocity": 0.6929133858267716
        },
        {
          "duration": 0.394736,
          "durationTicks": 256,
          "midi": 54,
          "name": "F#3",
          "ticks": 2048,
          "time": 3.157888,
          "velocity": 0.5118110236220472
        },
        {
          "duration": 0.394736,
          "durationTicks": 256,
          "midi": 58,
          "name": "A#3",
          "ticks": 2048,
          "time": 3.157888,
          "velocity": 0.5118110236220472
        },
        {
          "duration": 0.394736,
          "durationTicks": 256,
          "midi": 64,
          "name": "E4",
          "ticks": 2048,
          "time": 3.157888,
          "velocity": 0.5118110236220472
        },
        {
          "duration": 0.394736,
          "durationTicks": 256,
          "midi": 46,
          "name": "A#2",
          "ticks": 2304,
          "time": 3.552624,
          "velocity": 0.4409448818897638
        },
        {
          "duration": 0.20045187500000017,
          "durationTicks": 130,
          "midi": 79,
          "name": "G5",
          "ticks": 2432,
          "time": 3.7499919999999998,
          "velocity": 0.7322834645669292
        },
        {
          "duration": 0.2004518750000006,
          "durationTicks": 130,
          "midi": 78,
          "name": "F#5",
          "ticks": 2560,
          "time": 3.9473599999999998,
          "velocity": 0.4566929133858268
        },
        {
          "duration": 0.394736,
          "durationTicks": 256,
          "midi": 54,
          "name": "F#3",
          "ticks": 2560,
          "time": 3.9473599999999998,
          "velocity": 0.5590551181102362
        },
        {
          "duration": 0.394736,
          "durationTicks": 256,
          "midi": 61,
          "name": "C#4",
          "ticks": 2560,
          "time": 3.9473599999999998,
          "velocity": 0.5590551181102362
        },
        {
          "duration": 0.394736,
          "durationTicks": 256,
          "midi": 64,
          "name": "E4",
          "ticks": 2560,
          "time": 3.9473599999999998,
          "velocity": 0.5590551181102362
        },
        {
          "duration": 0.20045187499999972,
          "durationTicks": 130,
          "midi": 73,
          "name": "C#5",
          "ticks": 2688,
          "time": 4.144728,
          "velocity": 0.3937007874015748
        },
        {
          "duration": 0.2004518750000006,
          "durationTicks": 130,
          "midi": 76,
          "name": "E5",
          "ticks": 2816,
          "time": 4.342096,
          "velocity": 0.5039370078740157
        },
        {
          "duration": 0.394736,
          "durationTicks": 256,
          "midi": 54,
          "name": "F#3",
          "ticks": 2816,
          "time": 4.342096,
          "velocity": 0.5039370078740157
        },
        {
          "duration": 0.394736,
          "durationTicks": 256,
          "midi": 61,
          "name": "C#4",
          "ticks": 2816,
          "time": 4.342096,
          "velocity": 0.5039370078740157
        },
        {
          "duration": 0.394736,
          "durationTicks": 256,
          "midi": 64,
          "name": "E4",
          "ticks": 2816,
          "time": 4.342096,
          "velocity": 0.5039370078740157
        },
        {
          "duration": 0.20045187499999972,
          "durationTicks": 130,
          "midi": 74,
          "name": "D5",
          "ticks": 2944,
          "time": 4.539464,
          "velocity": 0.4566929133858268
        },
        {
          "duration": 0.7493816249999998,
          "durationTicks": 486,
          "midi": 71,
          "name": "B4",
          "ticks": 3072,
          "time": 4.736832,
          "velocity": 0.48031496062992124
        },
        {
          "duration": 0.394736,
          "durationTicks": 256,
          "midi": 47,
          "name": "B2",
          "ticks": 3072,
          "time": 4.736832,
          "velocity": 0.4251968503937008
        },
        {
          "duration": 0.394736,
          "durationTicks": 256,
          "midi": 54,
          "name": "F#3",
          "ticks": 3328,
          "time": 5.131568,
          "velocity": 0.5748031496062992
        },
        {
          "duration": 0.394736,
          "durationTicks": 256,
          "midi": 59,
          "name": "B3",
          "ticks": 3328,
          "time": 5.131568,
          "velocity": 0.5748031496062992
        },
        {
          "duration": 0.394736,
          "durationTicks": 256,
          "midi": 62,
          "name": "D4",
          "ticks": 3328,
          "time": 5.131568,
          "velocity": 0.5748031496062992
        },
        {
          "duration": 0.6028975624999999,
          "durationTicks": 391,
          "midi": 78,
          "name": "F#5",
          "ticks": 3584,
          "time": 5.526304,
          "velocity": 0.6614173228346457
        },
        {
          "duration": 0.394736,
          "durationTicks": 256,
          "midi": 54,
          "name": "F#3",
          "ticks": 3584,
          "time": 5.526304,
          "velocity": 0.4566929133858268
        },
        {
          "duration": 0.394736,
          "durationTicks": 256,
          "midi": 59,
          "name": "B3",
          "ticks": 3584,
          "time": 5.526304,
          "velocity": 0.4566929133858268
        },
        {
          "duration": 0.394736,
          "durationTicks": 256,
          "midi": 62,
          "name": "D4",
          "ticks": 3584,
          "time": 5.526304,
          "velocity": 0.4566929133858268
        },
        {
          "duration": 0.394736,
          "durationTicks": 256,
          "midi": 47,
          "name": "B2",
          "ticks": 3840,
          "time": 5.92104,
          "velocity": 0.4094488188976378
        },
        {
          "duration": 0.20045187499999972,
          "durationTicks": 130,
          "midi": 79,
          "name": "G5",
          "ticks": 3968,
          "time": 6.118408,
          "velocity": 0.48031496062992124
        },
        {
          "duration": 0.20045187499999972,
          "durationTicks": 130,
          "midi": 77,
          "name": "F5",
          "ticks": 4096,
          "time": 6.315776,
          "velocity": 0.48031496062992124
        },
        {
          "duration": 0.394736,
          "durationTicks": 256,
          "midi": 54,
          "name": "F#3",
          "ticks": 4096,
          "time": 6.315776,
          "velocity": 0.6377952755905512
        },
        {
          "duration": 0.394736,
          "durationTicks": 256,
          "midi": 59,
          "name": "B3",
          "ticks": 4096,
          "time": 6.315776,
          "velocity": 0.6377952755905512
        },
        {
          "duration": 0.394736,
          "durationTicks": 256,
          "midi": 62,
          "name": "D4",
          "ticks": 4096,
          "time": 6.315776,
          "velocity": 0.6377952755905512
        },
        {
          "duration": 0.20045187499999972,
          "durationTicks": 130,
          "midi": 78,
          "name": "F#5",
          "ticks": 4224,
          "time": 6.513144,
          "velocity": 0.5433070866141733
        },
        {
          "duration": 0.20045187499999972,
          "durationTicks": 130,
          "midi": 83,
          "name": "B5",
          "ticks": 4352,
          "time": 6.710512,
          "velocity": 0.5669291338582677
        },
        {
          "duration": 0.394736,
          "durationTicks": 256,
          "midi": 54,
          "name": "F#3",
          "ticks": 4352,
          "time": 6.710512,
          "velocity": 0.5196850393700787
        },
        {
          "duration": 0.394736,
          "durationTicks": 256,
          "midi": 59,
          "name": "B3",
          "ticks": 4352,
          "time": 6.710512,
          "velocity": 0.5196850393700787
        },
        {
          "duration": 0.394736,
          "durationTicks": 256,
          "midi": 62,
          "name": "D4",
          "ticks": 4352,
          "time": 6.710512,
          "velocity": 0.5196850393700787
        },
        {
          "duration": 0.197368,
          "durationTicks": 128,
          "midi": 86,
          "name": "D6",
          "ticks": 4480,
          "time": 6.90788,
          "velocity": 0.5905511811023622
        },
        {
          "duration": 0.18657443750000002,
          "durationTicks": 121,
          "midi": 86,
          "name": "D6",
          "ticks": 4608,
          "time": 7.105248,
          "velocity": 0.8976377952755905
        },
        {
          "duration": 0.394736,
          "durationTicks": 256,
          "midi": 47,
          "name": "B2",
          "ticks": 4608,
          "time": 7.105248,
          "velocity": 0.5275590551181102
        },
        {
          "duration": 0.394736,
          "durationTicks": 256,
          "midi": 77,
          "name": "F5",
          "ticks": 4864,
          "time": 7.4999839999999995,
          "velocity": 0.44881889763779526
        },
        {
          "duration": 0.394736,
          "durationTicks": 256,
          "midi": 56,
          "name": "G#3",
          "ticks": 4864,
          "time": 7.4999839999999995,
          "velocity": 0.6929133858267716
        },
        {
          "duration": 0.394736,
          "durationTicks": 256,
          "midi": 59,
          "name": "B3",
          "ticks": 4864,
          "time": 7.4999839999999995,
          "velocity": 0.6929133858267716
        },
        {
          "duration": 0.394736,
          "durationTicks": 256,
          "midi": 62,
          "name": "D4",
          "ticks": 4864,
          "time": 7.4999839999999995,
          "velocity": 0.6929133858267716
        },
        {
          "duration": 0.789472,
          "durationTicks": 512,
          "midi": 86,
          "name": "D6",
          "ticks": 5120,
          "time": 7.8947199999999995,
          "velocity": 0.7795275590551181
        },
        {
          "duration": 0.394736,
          "durationTicks": 256,
          "midi": 56,
          "name": "G#3",
          "ticks": 5120,
          "time": 7.8947199999999995,
          "velocity": 0.5905511811023622
        },
        {
          "duration": 0.394736,
          "durationTicks": 256,
          "midi": 59,
          "name": "B3",
          "ticks": 5120,
          "time": 7.8947199999999995,
          "velocity": 0.5905511811023622
        },
        {
          "duration": 0.394736,
          "durationTicks": 256,
          "midi": 62,
          "name": "D4",
          "ticks": 5120,
          "time": 7.8947199999999995,
          "velocity": 0.5905511811023622
        },
        {
          "duration": 0.394736,
          "durationTicks": 256,
          "midi": 47,
          "name": "B2",
          "ticks": 5376,
          "time": 8.289456,
          "velocity": 0.5039370078740157
        },
        {
          "duration": 0.4024456875000002,
          "durationTicks": 261,
          "midi": 76,
          "name": "E5",
          "ticks": 5632,
          "time": 8.684192,
          "velocity": 0.4330708661417323
        },
        {
          "duration": 0.394736,
          "durationTicks": 256,
          "midi": 55,
          "name": "G3",
          "ticks": 5632,
          "time": 8.684192,
          "velocity": 0.6850393700787402
        },
        {
          "duration": 0.394736,
          "durationTicks": 256,
          "midi": 59,
          "name": "B3",
          "ticks": 5632,
          "time": 8.684192,
          "velocity": 0.6850393700787402
        },
        {
          "duration": 0.394736,
          "durationTicks": 256,
          "midi": 64,
          "name": "E4",
          "ticks": 5632,
          "time": 8.684192,
          "velocity": 0.6850393700787402
        },
        {
          "duration": 0.6028975625000008,
          "durationTicks": 391,
          "midi": 85,
          "name": "C#6",
          "ticks": 5888,
          "time": 9.078928,
          "velocity": 0.6377952755905512
        },
        {
          "duration": 0.394736,
          "durationTicks": 256,
          "midi": 55,
          "name": "G3",
          "ticks": 5888,
          "time": 9.078928,
          "velocity": 0.5905511811023622
        },
        {
          "duration": 0.394736,
          "durationTicks": 256,
          "midi": 59,
          "name": "B3",
          "ticks": 5888,
          "time": 9.078928,
          "velocity": 0.5905511811023622
        },
        {
          "duration": 0.394736,
          "durationTicks": 256,
          "midi": 64,
          "name": "E4",
          "ticks": 5888,
          "time": 9.078928,
          "velocity": 0.5905511811023622
        },
        {
          "duration": 0.394736,
          "durationTicks": 256,
          "midi": 47,
          "name": "B2",
          "ticks": 6144,
          "time": 9.473664,
          "velocity": 0.48031496062992124
        },
        {
          "duration": 0.20045187499999884,
          "durationTicks": 130,
          "midi": 83,
          "name": "B5",
          "ticks": 6272,
          "time": 9.671032,
          "velocity": 0.4881889763779528
        },
        {
          "duration": 0.2004518750000006,
          "durationTicks": 130,
          "midi": 82,
          "name": "A#5",
          "ticks": 6400,
          "time": 9.8684,
          "velocity": 0.5118110236220472
        },
        {
          "duration": 0.394736,
          "durationTicks": 256,
          "midi": 54,
          "name": "F#3",
          "ticks": 6400,
          "time": 9.8684,
          "velocity": 0.6456692913385826
        },
        {
          "duration": 0.394736,
          "durationTicks": 256,
          "midi": 61,
          "name": "C#4",
          "ticks": 6400,
          "time": 9.8684,
          "velocity": 0.6456692913385826
        },
        {
          "duration": 0.394736,
          "durationTicks": 256,
          "midi": 64,
          "name": "E4",
          "ticks": 6400,
          "time": 9.8684,
          "velocity": 0.6456692913385826
        },
        {
          "duration": 0.2004518750000006,
          "durationTicks": 130,
          "midi": 79,
          "name": "G5",
          "ticks": 6528,
          "time": 10.065767999999998,
          "velocity": 0.4645669291338583
        },
        {
          "duration": 0.2004518750000006,
          "durationTicks": 130,
          "midi": 78,
          "name": "F#5",
          "ticks": 6656,
          "time": 10.263136,
          "velocity": 0.5039370078740157
        },
        {
          "duration": 0.394736,
          "durationTicks": 256,
          "midi": 54,
          "name": "F#3",
          "ticks": 6656,
          "time": 10.263136,
          "velocity": 0.4881889763779528
        },
        {
          "duration": 0.394736,
          "durationTicks": 256,
          "midi": 58,
          "name": "A#3",
          "ticks": 6656,
          "time": 10.263136,
          "velocity": 0.4881889763779528
        },
        {
          "duration": 0.394736,
          "durationTicks": 256,
          "midi": 64,
          "name": "E4",
          "ticks": 6656,
          "time": 10.263136,
          "velocity": 0.4881889763779528
        },
        {
          "duration": 0.18657443749999914,
          "durationTicks": 121,
          "midi": 73,
          "name": "C#5",
          "ticks": 6784,
          "time": 10.460504,
          "velocity": 0.4409448818897638
        },
        {
          "duration": 0.2004518750000006,
          "durationTicks": 130,
          "midi": 74,
          "name": "D5",
          "ticks": 6912,
          "time": 10.657872,
          "velocity": 0.5039370078740157
        },
        {
          "duration": 0.394736,
          "durationTicks": 256,
          "midi": 47,
          "name": "B2",
          "ticks": 6912,
          "time": 10.657872,
          "velocity": 0.44881889763779526
        },
        {
          "duration": 0.2004518750000006,
          "durationTicks": 130,
          "midi": 79,
          "name": "G5",
          "ticks": 7040,
          "time": 10.855239999999998,
          "velocity": 0.5984251968503937
        },
        {
          "duration": 0.2004518750000006,
          "durationTicks": 130,
          "midi": 78,
          "name": "F#5",
          "ticks": 7168,
          "time": 11.052608,
          "velocity": 0.4881889763779528
        },
        {
          "duration": 0.394736,
          "durationTicks": 256,
          "midi": 54,
          "name": "F#3",
          "ticks": 7168,
          "time": 11.052608,
          "velocity": 0.5984251968503937
        },
        {
          "duration": 0.394736,
          "durationTicks": 256,
          "midi": 59,
          "name": "B3",
          "ticks": 7168,
          "time": 11.052608,
          "velocity": 0.5984251968503937
        },
        {
          "duration": 0.394736,
          "durationTicks": 256,
          "midi": 62,
          "name": "D4",
          "ticks": 7168,
          "time": 11.052608,
          "velocity": 0.5984251968503937
        },
        {
          "duration": 0.20045187499999884,
          "durationTicks": 130,
          "midi": 73,
          "name": "C#5",
          "ticks": 7296,
          "time": 11.249976,
          "velocity": 0.4330708661417323
        },
        {
          "duration": 0.2004518750000006,
          "durationTicks": 130,
          "midi": 74,
          "name": "D5",
          "ticks": 7424,
          "time": 11.447344,
          "velocity": 0.48031496062992124
        },
        {
          "duration": 0.394736,
          "durationTicks": 256,
          "midi": 54,
          "name": "F#3",
          "ticks": 7424,
          "time": 11.447344,
          "velocity": 0.5039370078740157
        },
        {
          "duration": 0.394736,
          "durationTicks": 256,
          "midi": 59,
          "name": "B3",
          "ticks": 7424,
          "time": 11.447344,
          "velocity": 0.5039370078740157
        },
        {
          "duration": 0.394736,
          "durationTicks": 256,
          "midi": 62,
          "name": "D4",
          "ticks": 7424,
          "time": 11.447344,
          "velocity": 0.5039370078740157
        },
        {
          "duration": 0.2004518750000006,
          "durationTicks": 130,
          "midi": 71,
          "name": "B4",
          "ticks": 7552,
          "time": 11.644711999999998,
          "velocity": 0.4566929133858268
        },
        {
          "duration": 0.7493816249999998,
          "durationTicks": 486,
          "midi": 70,
          "name": "A#4",
          "ticks": 7680,
          "time": 11.84208,
          "velocity": 0.4409448818897638
        },
        {
          "duration": 0.394736,
          "durationTicks": 256,
          "midi": 49,
          "name": "C#3",
          "ticks": 7680,
          "time": 11.84208,
          "velocity": 0.41732283464566927
        },
        {
          "duration": 0.394736,
          "durationTicks": 256,
          "midi": 54,
          "name": "F#3",
          "ticks": 7936,
          "time": 12.236816,
          "velocity": 0.6062992125984252
        },
        {
          "duration": 0.394736,
          "durationTicks": 256,
          "midi": 58,
          "name": "A#3",
          "ticks": 7936,
          "time": 12.236816,
          "velocity": 0.6062992125984252
        },
        {
          "duration": 0.394736,
          "durationTicks": 256,
          "midi": 64,
          "name": "E4",
          "ticks": 7936,
          "time": 12.236816,
          "velocity": 0.6062992125984252
        },
        {
          "duration": 0.6028975625000008,
          "durationTicks": 391,
          "midi": 78,
          "name": "F#5",
          "ticks": 8192,
          "time": 12.631552,
          "velocity": 0.6929133858267716
        },
        {
          "duration": 0.394736,
          "durationTicks": 256,
          "midi": 54,
          "name": "F#3",
          "ticks": 8192,
          "time": 12.631552,
          "velocity": 0.5118110236220472
        },
        {
          "duration": 0.394736,
          "durationTicks": 256,
          "midi": 58,
          "name": "A#3",
          "ticks": 8192,
          "time": 12.631552,
          "velocity": 0.5118110236220472
        },
        {
          "duration": 0.394736,
          "durationTicks": 256,
          "midi": 64,
          "name": "E4",
          "ticks": 8192,
          "time": 12.631552,
          "velocity": 0.5118110236220472
        },
        {
          "duration": 0.394736,
          "durationTicks": 256,
          "midi": 42,
          "name": "F#2",
          "ticks": 8448,
          "time": 13.026288,
          "velocity": 0.41732283464566927
        },
        {
          "duration": 0.2004518750000006,
          "durationTicks": 130,
          "midi": 79,
          "name": "G5",
          "ticks": 8576,
          "time": 13.223655999999998,
          "velocity": 0.5118110236220472
        },
        {
          "duration": 0.2004518750000006,
          "durationTicks": 130,
          "midi": 78,
          "name": "F#5",
          "ticks": 8704,
          "time": 13.421024,
          "velocity": 0.47244094488188976
        },
        {
          "duration": 0.394736,
          "durationTicks": 256,
          "midi": 54,
          "name": "F#3",
          "ticks": 8704,
          "time": 13.421024,
          "velocity": 0.6141732283464567
        },
        {
          "duration": 0.394736,
          "durationTicks": 256,
          "midi": 58,
          "name": "A#3",
          "ticks": 8704,
          "time": 13.421024,
          "velocity": 0.6141732283464567
        },
        {
          "duration": 0.394736,
          "durationTicks": 256,
          "midi": 64,
          "name": "E4",
          "ticks": 8704,
          "time": 13.421024,
          "velocity": 0.6141732283464567
        },
        {
          "duration": 0.20045187499999884,
          "durationTicks": 130,
          "midi": 73,
          "name": "C#5",
          "ticks": 8832,
          "time": 13.618392,
          "velocity": 0.4251968503937008
        },
        {
          "duration": 0.2004518750000006,
          "durationTicks": 130,
          "midi": 76,
          "name": "E5",
          "ticks": 8960,
          "time": 13.81576,
          "velocity": 0.5118110236220472
        },
        {
          "duration": 0.394736,
          "durationTicks": 256,
          "midi": 54,
          "name": "F#3",
          "ticks": 8960,
          "time": 13.81576,
          "velocity": 0.5196850393700787
        },
        {
          "duration": 0.394736,
          "durationTicks": 256,
          "midi": 58,
          "name": "A#3",
          "ticks": 8960,
          "time": 13.81576,
          "velocity": 0.5196850393700787
        },
        {
          "duration": 0.394736,
          "durationTicks": 256,
          "midi": 64,
          "name": "E4",
          "ticks": 8960,
          "time": 13.81576,
          "velocity": 0.5196850393700787
        },
        {
          "duration": 0.2004518750000006,
          "durationTicks": 130,
          "midi": 74,
          "name": "D5",
          "ticks": 9088,
          "time": 14.013127999999998,
          "velocity": 0.48031496062992124
        },
        {
          "duration": 0.7493816249999998,
          "durationTicks": 486,
          "midi": 71,
          "name": "B4",
          "ticks": 9216,
          "time": 14.210496,
          "velocity": 0.48031496062992124
        },
        {
          "duration": 0.394736,
          "durationTicks": 256,
          "midi": 47,
          "name": "B2",
          "ticks": 9216,
          "time": 14.210496,
          "velocity": 0.47244094488188976
        },
        {
          "duration": 0.394736,
          "durationTicks": 256,
          "midi": 54,
          "name": "F#3",
          "ticks": 9472,
          "time": 14.605231999999999,
          "velocity": 0.6456692913385826
        },
        {
          "duration": 0.394736,
          "durationTicks": 256,
          "midi": 59,
          "name": "B3",
          "ticks": 9472,
          "time": 14.605231999999999,
          "velocity": 0.6456692913385826
        },
        {
          "duration": 0.394736,
          "durationTicks": 256,
          "midi": 62,
          "name": "D4",
          "ticks": 9472,
          "time": 14.605231999999999,
          "velocity": 0.6456692913385826
        },
        {
          "duration": 0.6028975625000008,
          "durationTicks": 391,
          "midi": 78,
          "name": "F#5",
          "ticks": 9728,
          "time": 14.999967999999999,
          "velocity": 0.7637795275590551
        },
        {
          "duration": 0.394736,
          "durationTicks": 256,
          "midi": 54,
          "name": "F#3",
          "ticks": 9728,
          "time": 14.999967999999999,
          "velocity": 0.5511811023622047
        },
        {
          "duration": 0.394736,
          "durationTicks": 256,
          "midi": 59,
          "name": "B3",
          "ticks": 9728,
          "time": 14.999967999999999,
          "velocity": 0.5511811023622047
        },
        {
          "duration": 0.394736,
          "durationTicks": 256,
          "midi": 62,
          "name": "D4",
          "ticks": 9728,
          "time": 14.999967999999999,
          "velocity": 0.5511811023622047
        },
        {
          "duration": 0.3746908125000008,
          "durationTicks": 243,
          "midi": 50,
          "name": "D3",
          "ticks": 9984,
          "time": 15.394703999999999,
          "velocity": 0.5039370078740157
        },
        {
          "duration": 0.2004518750000006,
          "durationTicks": 130,
          "midi": 90,
          "name": "F#6",
          "ticks": 10112,
          "time": 15.592071999999998,
          "velocity": 0.7086614173228346
        },
        {
          "duration": 0.2004518750000006,
          "durationTicks": 130,
          "midi": 85,
          "name": "C#6",
          "ticks": 10240,
          "time": 15.789439999999999,
          "velocity": 0.5196850393700787
        },
        {
          "duration": 0.39473600000000175,
          "durationTicks": 256,
          "midi": 54,
          "name": "F#3",
          "ticks": 10240,
          "time": 15.789439999999999,
          "velocity": 0.7244094488188977
        },
        {
          "duration": 0.39473600000000175,
          "durationTicks": 256,
          "midi": 59,
          "name": "B3",
          "ticks": 10240,
          "time": 15.789439999999999,
          "velocity": 0.7244094488188977
        },
        {
          "duration": 0.39473600000000175,
          "durationTicks": 256,
          "midi": 62,
          "name": "D4",
          "ticks": 10240,
          "time": 15.789439999999999,
          "velocity": 0.7244094488188977
        },
        {
          "duration": 0.20045187499999884,
          "durationTicks": 130,
          "midi": 86,
          "name": "D6",
          "ticks": 10368,
          "time": 15.986808,
          "velocity": 0.6771653543307087
        },
        {
          "duration": 0.20045187499999884,
          "durationTicks": 130,
          "midi": 82,
          "name": "A#5",
          "ticks": 10496,
          "time": 16.184176,
          "velocity": 0.5275590551181102
        },
        {
          "duration": 0.3947359999999982,
          "durationTicks": 256,
          "midi": 54,
          "name": "F#3",
          "ticks": 10496,
          "time": 16.184176,
          "velocity": 0.6771653543307087
        },
        {
          "duration": 0.3947359999999982,
          "durationTicks": 256,
          "midi": 59,
          "name": "B3",
          "ticks": 10496,
          "time": 16.184176,
          "velocity": 0.6771653543307087
        },
        {
          "duration": 0.3947359999999982,
          "durationTicks": 256,
          "midi": 62,
          "name": "D4",
          "ticks": 10496,
          "time": 16.184176,
          "velocity": 0.6771653543307087
        },
        {
          "duration": 0.18657443749999914,
          "durationTicks": 121,
          "midi": 83,
          "name": "B5",
          "ticks": 10624,
          "time": 16.381543999999998,
          "velocity": 0.7401574803149606
        },
        {
          "duration": 0.2004518750000024,
          "durationTicks": 130,
          "midi": 81,
          "name": "A5",
          "ticks": 10752,
          "time": 16.578912,
          "velocity": 0.7244094488188977
        },
        {
          "duration": 0.39473600000000175,
          "durationTicks": 256,
          "midi": 52,
          "name": "E3",
          "ticks": 10752,
          "time": 16.578912,
          "velocity": 0.7007874015748031
        },
        {
          "duration": 0.20045187499999884,
          "durationTicks": 130,
          "midi": 79,
          "name": "G5",
          "ticks": 10880,
          "time": 16.77628,
          "velocity": 0.6929133858267716
        },
        {
          "duration": 0.20045187499999884,
          "durationTicks": 130,
          "midi": 71,
          "name": "B4",
          "ticks": 11008,
          "time": 16.973648,
          "velocity": 0.6220472440944882
        },
        {
          "duration": 0.3947359999999982,
          "durationTicks": 256,
          "midi": 59,
          "name": "B3",
          "ticks": 11008,
          "time": 16.973648,
          "velocity": 1
        },
        {
          "duration": 0.3947359999999982,
          "durationTicks": 256,
          "midi": 61,
          "name": "C#4",
          "ticks": 11008,
          "time": 16.973648,
          "velocity": 1
        },
        {
          "duration": 0.3947359999999982,
          "durationTicks": 256,
          "midi": 67,
          "name": "G4",
          "ticks": 11008,
          "time": 16.973648,
          "velocity": 1
        },
        {
          "duration": 0.2004518750000024,
          "durationTicks": 130,
          "midi": 73,
          "name": "C#5",
          "ticks": 11136,
          "time": 17.171015999999998,
          "velocity": 0.6377952755905512
        },
        {
          "duration": 0.20045187499999884,
          "durationTicks": 130,
          "midi": 74,
          "name": "D5",
          "ticks": 11264,
          "time": 17.368384,
          "velocity": 0.7874015748031497
        },
        {
          "duration": 0.18657443749999914,
          "durationTicks": 121,
          "midi": 76,
          "name": "E5",
          "ticks": 11392,
          "time": 17.565752,
          "velocity": 0.7952755905511811
        },
        {
          "duration": 0.2004518750000024,
          "durationTicks": 130,
          "midi": 79,
          "name": "G5",
          "ticks": 11520,
          "time": 17.763119999999997,
          "velocity": 0.8346456692913385
        },
        {
          "duration": 1.1842080000000017,
          "durationTicks": 768,
          "midi": 54,
          "name": "F#3",
          "ticks": 11520,
          "time": 17.763119999999997,
          "velocity": 0.6535433070866141
        },
        {
          "duration": 0.2004518750000024,
          "durationTicks": 130,
          "midi": 78,
          "name": "F#5",
          "ticks": 11648,
          "time": 17.960487999999998,
          "velocity": 0.7007874015748031
        },
        {
          "duration": 0.20045187499999884,
          "durationTicks": 130,
          "midi": 71,
          "name": "B4",
          "ticks": 11776,
          "time": 18.157856,
          "velocity": 0.5590551181102362
        },
        {
          "duration": 0.39473600000000175,
          "durationTicks": 256,
          "midi": 59,
          "name": "B3",
          "ticks": 11776,
          "time": 18.157856,
          "velocity": 0.6929133858267716
        },
        {
          "duration": 0.39473600000000175,
          "durationTicks": 256,
          "midi": 62,
          "name": "D4",
          "ticks": 11776,
          "time": 18.157856,
          "velocity": 0.6929133858267716
        },
        {
          "duration": 0.20045187499999884,
          "durationTicks": 130,
          "midi": 74,
          "name": "D5",
          "ticks": 11904,
          "time": 18.355224,
          "velocity": 0.7007874015748031
        },
        {
          "duration": 0.20045187499999884,
          "durationTicks": 130,
          "midi": 73,
          "name": "C#5",
          "ticks": 12032,
          "time": 18.552592,
          "velocity": 0.6692913385826772
        },
        {
          "duration": 0.3947359999999982,
          "durationTicks": 256,
          "midi": 58,
          "name": "A#3",
          "ticks": 12032,
          "time": 18.552592,
          "velocity": 0.7952755905511811
        },
        {
          "duration": 0.3947359999999982,
          "durationTicks": 256,
          "midi": 64,
          "name": "E4",
          "ticks": 12032,
          "time": 18.552592,
          "velocity": 0.7952755905511811
        },
        {
          "duration": 0.2004518750000024,
          "durationTicks": 130,
          "midi": 66,
          "name": "F#4",
          "ticks": 12160,
          "time": 18.749959999999998,
          "velocity": 0.5354330708661418
        },
        {
          "duration": 0.18657443749999914,
          "durationTicks": 121,
          "midi": 71,
          "name": "B4",
          "ticks": 12288,
          "time": 18.947328,
          "velocity": 0.6850393700787402
        },
        {
          "duration": 0.3947359999999982,
          "durationTicks": 256,
          "midi": 59,
          "name": "B3",
          "ticks": 12288,
          "time": 18.947328,
          "velocity": 0.7244094488188977
        },
        {
          "duration": 0.3947359999999982,
          "durationTicks": 256,
          "midi": 62,
          "name": "D4",
          "ticks": 12288,
          "time": 18.947328,
          "velocity": 0.7244094488188977
        },
        {
          "duration": 0.20045187499999884,
          "durationTicks": 130,
          "midi": 65,
          "name": "F4",
          "ticks": 12416,
          "time": 19.144696,
          "velocity": 0.5039370078740157
        },
        {
          "duration": 0.2004518750000024,
          "durationTicks": 130,
          "midi": 66,
          "name": "F#4",
          "ticks": 12544,
          "time": 19.342063999999997,
          "velocity": 0.6062992125984252
        },
        {
          "duration": 0.39473600000000175,
          "durationTicks": 256,
          "midi": 47,
          "name": "B2",
          "ticks": 12544,
          "time": 19.342063999999997,
          "velocity": 0.48031496062992124
        },
        {
          "duration": 0.2004518750000024,
          "durationTicks": 130,
          "midi": 70,
          "name": "A#4",
          "ticks": 12672,
          "time": 19.539431999999998,
          "velocity": 0.6377952755905512
        },
        {
          "duration": 0.20045187499999884,
          "durationTicks": 130,
          "midi": 71,
          "name": "B4",
          "ticks": 12800,
          "time": 19.7368,
          "velocity": 0.5669291338582677
        },
        {
          "duration": 0.18657443749999914,
          "durationTicks": 121,
          "midi": 73,
          "name": "C#5",
          "ticks": 12928,
          "time": 19.934168,
          "velocity": 0.5511811023622047
        },
        {
          "duration": 0.20045187499999884,
          "durationTicks": 130,
          "midi": 74,
          "name": "D5",
          "ticks": 13056,
          "time": 20.131536,
          "velocity": 0.4881889763779528
        },
        {
          "duration": 0.3947359999999982,
          "durationTicks": 256,
          "midi": 47,
          "name": "B2",
          "ticks": 13056,
          "time": 20.131536,
          "velocity": 0.44881889763779526
        },
        {
          "duration": 0.2004518750000024,
          "durationTicks": 130,
          "midi": 79,
          "name": "G5",
          "ticks": 13184,
          "time": 20.328903999999998,
          "velocity": 0.5354330708661418
        },
        {
          "duration": 0.20045187499999884,
          "durationTicks": 130,
          "midi": 78,
          "name": "F#5",
          "ticks": 13312,
          "time": 20.526272,
          "velocity": 0.47244094488188976
        },
        {
          "duration": 0.3947359999999982,
          "durationTicks": 256,
          "midi": 54,
          "name": "F#3",
          "ticks": 13312,
          "time": 20.526272,
          "velocity": 0.5905511811023622
        },
        {
          "duration": 0.3947359999999982,
          "durationTicks": 256,
          "midi": 59,
          "name": "B3",
          "ticks": 13312,
          "time": 20.526272,
          "velocity": 0.5905511811023622
        },
        {
          "duration": 0.3947359999999982,
          "durationTicks": 256,
          "midi": 62,
          "name": "D4",
          "ticks": 13312,
          "time": 20.526272,
          "velocity": 0.5905511811023622
        },
        {
          "duration": 0.20045187499999884,
          "durationTicks": 130,
          "midi": 73,
          "name": "C#5",
          "ticks": 13440,
          "time": 20.72364,
          "velocity": 0.44881889763779526
        },
        {
          "duration": 0.2004518750000024,
          "durationTicks": 130,
          "midi": 74,
          "name": "D5",
          "ticks": 13568,
          "time": 20.921007999999997,
          "velocity": 0.5433070866141733
        },
        {
          "duration": 0.39473600000000175,
          "durationTicks": 256,
          "midi": 54,
          "name": "F#3",
          "ticks": 13568,
          "time": 20.921007999999997,
          "velocity": 0.49606299212598426
        },
        {
          "duration": 0.39473600000000175,
          "durationTicks": 256,
          "midi": 59,
          "name": "B3",
          "ticks": 13568,
          "time": 20.921007999999997,
          "velocity": 0.49606299212598426
        },
        {
          "duration": 0.39473600000000175,
          "durationTicks": 256,
          "midi": 62,
          "name": "D4",
          "ticks": 13568,
          "time": 20.921007999999997,
          "velocity": 0.49606299212598426
        },
        {
          "duration": 0.2004518750000024,
          "durationTicks": 130,
          "midi": 71,
          "name": "B4",
          "ticks": 13696,
          "time": 21.118375999999998,
          "velocity": 0.48031496062992124
        },
        {
          "duration": 0.7493816250000016,
          "durationTicks": 486,
          "midi": 70,
          "name": "A#4",
          "ticks": 13824,
          "time": 21.315744,
          "velocity": 0.4330708661417323
        },
        {
          "duration": 0.39473600000000175,
          "durationTicks": 256,
          "midi": 49,
          "name": "C#3",
          "ticks": 13824,
          "time": 21.315744,
          "velocity": 0.44881889763779526
        },
        {
          "duration": 0.3947359999999982,
          "durationTicks": 256,
          "midi": 54,
          "name": "F#3",
          "ticks": 14080,
          "time": 21.71048,
          "velocity": 0.6141732283464567
        },
        {
          "duration": 0.3947359999999982,
          "durationTicks": 256,
          "midi": 58,
          "name": "A#3",
          "ticks": 14080,
          "time": 21.71048,
          "velocity": 0.6141732283464567
        },
        {
          "duration": 0.3947359999999982,
          "durationTicks": 256,
          "midi": 64,
          "name": "E4",
          "ticks": 14080,
          "time": 21.71048,
          "velocity": 0.6141732283464567
        },
        {
          "duration": 0.6028975625000008,
          "durationTicks": 391,
          "midi": 78,
          "name": "F#5",
          "ticks": 14336,
          "time": 22.105216,
          "velocity": 0.6929133858267716
        },
        {
          "duration": 0.3947359999999982,
          "durationTicks": 256,
          "midi": 54,
          "name": "F#3",
          "ticks": 14336,
          "time": 22.105216,
          "velocity": 0.5039370078740157
        },
        {
          "duration": 0.3947359999999982,
          "durationTicks": 256,
          "midi": 58,
          "name": "A#3",
          "ticks": 14336,
          "time": 22.105216,
          "velocity": 0.5039370078740157
        },
        {
          "duration": 0.3947359999999982,
          "durationTicks": 256,
          "midi": 64,
          "name": "E4",
          "ticks": 14336,
          "time": 22.105216,
          "velocity": 0.5039370078740157
        },
        {
          "duration": 0.39473600000000175,
          "durationTicks": 256,
          "midi": 46,
          "name": "A#2",
          "ticks": 14592,
          "time": 22.499951999999997,
          "velocity": 0.41732283464566927
        },
        {
          "duration": 0.2004518750000024,
          "durationTicks": 130,
          "midi": 79,
          "name": "G5",
          "ticks": 14720,
          "time": 22.697319999999998,
          "velocity": 0.7322834645669292
        },
        {
          "duration": 0.20045187499999884,
          "durationTicks": 130,
          "midi": 78,
          "name": "F#5",
          "ticks": 14848,
          "time": 22.894688,
          "velocity": 0.48031496062992124
        },
        {
          "duration": 0.39473600000000175,
          "durationTicks": 256,
          "midi": 54,
          "name": "F#3",
          "ticks": 14848,
          "time": 22.894688,
          "velocity": 0.5748031496062992
        },
        {
          "duration": 0.39473600000000175,
          "durationTicks": 256,
          "midi": 61,
          "name": "C#4",
          "ticks": 14848,
          "time": 22.894688,
          "velocity": 0.5748031496062992
        },
        {
          "duration": 0.39473600000000175,
          "durationTicks": 256,
          "midi": 64,
          "name": "E4",
          "ticks": 14848,
          "time": 22.894688,
          "velocity": 0.5748031496062992
        },
        {
          "duration": 0.20045187499999884,
          "durationTicks": 130,
          "midi": 73,
          "name": "C#5",
          "ticks": 14976,
          "time": 23.092056,
          "velocity": 0.4251968503937008
        },
        {
          "duration": 0.20045187499999884,
          "durationTicks": 130,
          "midi": 76,
          "name": "E5",
          "ticks": 15104,
          "time": 23.289424,
          "velocity": 0.4881889763779528
        },
        {
          "duration": 0.3947359999999982,
          "durationTicks": 256,
          "midi": 54,
          "name": "F#3",
          "ticks": 15104,
          "time": 23.289424,
          "velocity": 0.5275590551181102
        },
        {
          "duration": 0.3947359999999982,
          "durationTicks": 256,
          "midi": 61,
          "name": "C#4",
          "ticks": 15104,
          "time": 23.289424,
          "velocity": 0.5275590551181102
        },
        {
          "duration": 0.3947359999999982,
          "durationTicks": 256,
          "midi": 64,
          "name": "E4",
          "ticks": 15104,
          "time": 23.289424,
          "velocity": 0.5275590551181102
        },
        {
          "duration": 0.2004518750000024,
          "durationTicks": 130,
          "midi": 74,
          "name": "D5",
          "ticks": 15232,
          "time": 23.486791999999998,
          "velocity": 0.4251968503937008
        },
        {
          "duration": 0.7493816250000016,
          "durationTicks": 486,
          "midi": 71,
          "name": "B4",
          "ticks": 15360,
          "time": 23.68416,
          "velocity": 0.4409448818897638
        },
        {
          "duration": 0.3947359999999982,
          "durationTicks": 256,
          "midi": 47,
          "name": "B2",
          "ticks": 15360,
          "time": 23.68416,
          "velocity": 0.4251968503937008
        },
        {
          "duration": 0.39473600000000175,
          "durationTicks": 256,
          "midi": 54,
          "name": "F#3",
          "ticks": 15616,
          "time": 24.078895999999997,
          "velocity": 0.6141732283464567
        },
        {
          "duration": 0.39473600000000175,
          "durationTicks": 256,
          "midi": 59,
          "name": "B3",
          "ticks": 15616,
          "time": 24.078895999999997,
          "velocity": 0.6141732283464567
        },
        {
          "duration": 0.39473600000000175,
          "durationTicks": 256,
          "midi": 62,
          "name": "D4",
          "ticks": 15616,
          "time": 24.078895999999997,
          "velocity": 0.6141732283464567
        },
        {
          "duration": 0.6028975625000008,
          "durationTicks": 391,
          "midi": 78,
          "name": "F#5",
          "ticks": 15872,
          "time": 24.473632,
          "velocity": 0.6535433070866141
        },
        {
          "duration": 0.39473600000000175,
          "durationTicks": 256,
          "midi": 54,
          "name": "F#3",
          "ticks": 15872,
          "time": 24.473632,
          "velocity": 0.48031496062992124
        },
        {
          "duration": 0.39473600000000175,
          "durationTicks": 256,
          "midi": 59,
          "name": "B3",
          "ticks": 15872,
          "time": 24.473632,
          "velocity": 0.48031496062992124
        },
        {
          "duration": 0.39473600000000175,
          "durationTicks": 256,
          "midi": 62,
          "name": "D4",
          "ticks": 15872,
          "time": 24.473632,
          "velocity": 0.48031496062992124
        },
        {
          "duration": 0.3947359999999982,
          "durationTicks": 256,
          "midi": 47,
          "name": "B2",
          "ticks": 16128,
          "time": 24.868368,
          "velocity": 0.4330708661417323
        },
        {
          "duration": 0.2004518750000024,
          "durationTicks": 130,
          "midi": 79,
          "name": "G5",
          "ticks": 16256,
          "time": 25.065735999999998,
          "velocity": 0.4645669291338583
        },
        {
          "duration": 0.20045187499999884,
          "durationTicks": 130,
          "midi": 77,
          "name": "F5",
          "ticks": 16384,
          "time": 25.263104,
          "velocity": 0.49606299212598426
        },
        {
          "duration": 0.3947359999999982,
          "durationTicks": 256,
          "midi": 54,
          "name": "F#3",
          "ticks": 16384,
          "time": 25.263104,
          "velocity": 0.6850393700787402
        },
        {
          "duration": 0.3947359999999982,
          "durationTicks": 256,
          "midi": 59,
          "name": "B3",
          "ticks": 16384,
          "time": 25.263104,
          "velocity": 0.6850393700787402
        },
        {
          "duration": 0.3947359999999982,
          "durationTicks": 256,
          "midi": 62,
          "name": "D4",
          "ticks": 16384,
          "time": 25.263104,
          "velocity": 0.6850393700787402
        },
        {
          "duration": 0.20045187499999884,
          "durationTicks": 130,
          "midi": 78,
          "name": "F#5",
          "ticks": 16512,
          "time": 25.460472,
          "velocity": 0.5196850393700787
        },
        {
          "duration": 0.2004518750000024,
          "durationTicks": 130,
          "midi": 83,
          "name": "B5",
          "ticks": 16640,
          "time": 25.657839999999997,
          "velocity": 0.6062992125984252
        },
        {
          "duration": 0.39473600000000175,
          "durationTicks": 256,
          "midi": 54,
          "name": "F#3",
          "ticks": 16640,
          "time": 25.657839999999997,
          "velocity": 0.5905511811023622
        },
        {
          "duration": 0.39473600000000175,
          "durationTicks": 256,
          "midi": 59,
          "name": "B3",
          "ticks": 16640,
          "time": 25.657839999999997,
          "velocity": 0.5905511811023622
        },
        {
          "duration": 0.39473600000000175,
          "durationTicks": 256,
          "midi": 62,
          "name": "D4",
          "ticks": 16640,
          "time": 25.657839999999997,
          "velocity": 0.5905511811023622
        },
        {
          "duration": 0.19736800000000088,
          "durationTicks": 128,
          "midi": 86,
          "name": "D6",
          "ticks": 16768,
          "time": 25.855207999999998,
          "velocity": 0.6141732283464567
        },
        {
          "duration": 0.18657443749999914,
          "durationTicks": 121,
          "midi": 86,
          "name": "D6",
          "ticks": 16896,
          "time": 26.052576,
          "velocity": 0.8976377952755905
        },
        {
          "duration": 0.39473600000000175,
          "durationTicks": 256,
          "midi": 47,
          "name": "B2",
          "ticks": 16896,
          "time": 26.052576,
          "velocity": 0.47244094488188976
        },
        {
          "duration": 0.3947359999999982,
          "durationTicks": 256,
          "midi": 77,
          "name": "F5",
          "ticks": 17152,
          "time": 26.447312,
          "velocity": 0.47244094488188976
        },
        {
          "duration": 0.3947359999999982,
          "durationTicks": 256,
          "midi": 56,
          "name": "G#3",
          "ticks": 17152,
          "time": 26.447312,
          "velocity": 0.7165354330708661
        },
        {
          "duration": 0.3947359999999982,
          "durationTicks": 256,
          "midi": 59,
          "name": "B3",
          "ticks": 17152,
          "time": 26.447312,
          "velocity": 0.7165354330708661
        },
        {
          "duration": 0.3947359999999982,
          "durationTicks": 256,
          "midi": 62,
          "name": "D4",
          "ticks": 17152,
          "time": 26.447312,
          "velocity": 0.7165354330708661
        },
        {
          "duration": 0.789472,
          "durationTicks": 512,
          "midi": 86,
          "name": "D6",
          "ticks": 17408,
          "time": 26.842048,
          "velocity": 0.7716535433070866
        },
        {
          "duration": 0.3947359999999982,
          "durationTicks": 256,
          "midi": 56,
          "name": "G#3",
          "ticks": 17408,
          "time": 26.842048,
          "velocity": 0.5826771653543307
        },
        {
          "duration": 0.3947359999999982,
          "durationTicks": 256,
          "midi": 59,
          "name": "B3",
          "ticks": 17408,
          "time": 26.842048,
          "velocity": 0.5826771653543307
        },
        {
          "duration": 0.3947359999999982,
          "durationTicks": 256,
          "midi": 62,
          "name": "D4",
          "ticks": 17408,
          "time": 26.842048,
          "velocity": 0.5826771653543307
        },
        {
          "duration": 0.39473600000000175,
          "durationTicks": 256,
          "midi": 47,
          "name": "B2",
          "ticks": 17664,
          "time": 27.236783999999997,
          "velocity": 0.48031496062992124
        },
        {
          "duration": 0.40244568749999843,
          "durationTicks": 261,
          "midi": 76,
          "name": "E5",
          "ticks": 17920,
          "time": 27.63152,
          "velocity": 0.4094488188976378
        },
        {
          "duration": 0.39473600000000175,
          "durationTicks": 256,
          "midi": 55,
          "name": "G3",
          "ticks": 17920,
          "time": 27.63152,
          "velocity": 0.6771653543307087
        },
        {
          "duration": 0.39473600000000175,
          "durationTicks": 256,
          "midi": 59,
          "name": "B3",
          "ticks": 17920,
          "time": 27.63152,
          "velocity": 0.6771653543307087
        },
        {
          "duration": 0.39473600000000175,
          "durationTicks": 256,
          "midi": 64,
          "name": "E4",
          "ticks": 17920,
          "time": 27.63152,
          "velocity": 0.6771653543307087
        },
        {
          "duration": 0.6028975624999973,
          "durationTicks": 391,
          "midi": 85,
          "name": "C#6",
          "ticks": 18176,
          "time": 28.026256,
          "velocity": 0.4881889763779528
        },
        {
          "duration": 0.3947359999999982,
          "durationTicks": 256,
          "midi": 55,
          "name": "G3",
          "ticks": 18176,
          "time": 28.026256,
          "velocity": 0.6220472440944882
        },
        {
          "duration": 0.3947359999999982,
          "durationTicks": 256,
          "midi": 59,
          "name": "B3",
          "ticks": 18176,
          "time": 28.026256,
          "velocity": 0.6220472440944882
        },
        {
          "duration": 0.3947359999999982,
          "durationTicks": 256,
          "midi": 64,
          "name": "E4",
          "ticks": 18176,
          "time": 28.026256,
          "velocity": 0.6220472440944882
        },
        {
          "duration": 0.3947359999999982,
          "durationTicks": 256,
          "midi": 47,
          "name": "B2",
          "ticks": 18432,
          "time": 28.420992,
          "velocity": 0.49606299212598426
        },
        {
          "duration": 0.20045187499999884,
          "durationTicks": 130,
          "midi": 83,
          "name": "B5",
          "ticks": 18560,
          "time": 28.61836,
          "velocity": 0.5275590551181102
        },
        {
          "duration": 0.2004518750000024,
          "durationTicks": 130,
          "midi": 82,
          "name": "A#5",
          "ticks": 18688,
          "time": 28.815727999999996,
          "velocity": 0.4881889763779528
        },
        {
          "duration": 0.39473600000000175,
          "durationTicks": 256,
          "midi": 54,
          "name": "F#3",
          "ticks": 18688,
          "time": 28.815727999999996,
          "velocity": 0.7007874015748031
        },
        {
          "duration": 0.39473600000000175,
          "durationTicks": 256,
          "midi": 61,
          "name": "C#4",
          "ticks": 18688,
          "time": 28.815727999999996,
          "velocity": 0.7007874015748031
        },
        {
          "duration": 0.39473600000000175,
          "durationTicks": 256,
          "midi": 64,
          "name": "E4",
          "ticks": 18688,
          "time": 28.815727999999996,
          "velocity": 0.7007874015748031
        },
        {
          "duration": 0.2004518750000024,
          "durationTicks": 130,
          "midi": 79,
          "name": "G5",
          "ticks": 18816,
          "time": 29.013095999999997,
          "velocity": 0.4645669291338583
        },
        {
          "duration": 0.20045187499999884,
          "durationTicks": 130,
          "midi": 78,
          "name": "F#5",
          "ticks": 18944,
          "time": 29.210463999999998,
          "velocity": 0.5196850393700787
        },
        {
          "duration": 0.39473600000000175,
          "durationTicks": 256,
          "midi": 54,
          "name": "F#3",
          "ticks": 18944,
          "time": 29.210463999999998,
          "velocity": 0.5196850393700787
        },
        {
          "duration": 0.39473600000000175,
          "durationTicks": 256,
          "midi": 58,
          "name": "A#3",
          "ticks": 18944,
          "time": 29.210463999999998,
          "velocity": 0.5196850393700787
        },
        {
          "duration": 0.39473600000000175,
          "durationTicks": 256,
          "midi": 64,
          "name": "E4",
          "ticks": 18944,
          "time": 29.210463999999998,
          "velocity": 0.5196850393700787
        },
        {
          "duration": 0.18657443749999914,
          "durationTicks": 121,
          "midi": 73,
          "name": "C#5",
          "ticks": 19072,
          "time": 29.407832,
          "velocity": 0.4566929133858268
        },
        {
          "duration": 0.20045187499999884,
          "durationTicks": 130,
          "midi": 74,
          "name": "D5",
          "ticks": 19200,
          "time": 29.6052,
          "velocity": 0.49606299212598426
        },
        {
          "duration": 0.3947359999999982,
          "durationTicks": 256,
          "midi": 47,
          "name": "B2",
          "ticks": 19200,
          "time": 29.6052,
          "velocity": 0.4094488188976378
        },
        {
          "duration": 0.2004518750000024,
          "durationTicks": 130,
          "midi": 79,
          "name": "G5",
          "ticks": 19328,
          "time": 29.802567999999997,
          "velocity": 0.5039370078740157
        },
        {
          "duration": 0.20045187499999884,
          "durationTicks": 130,
          "midi": 78,
          "name": "F#5",
          "ticks": 19456,
          "time": 29.999935999999998,
          "velocity": 0.44881889763779526
        },
        {
          "duration": 0.3947359999999982,
          "durationTicks": 256,
          "midi": 54,
          "name": "F#3",
          "ticks": 19456,
          "time": 29.999935999999998,
          "velocity": 0.5826771653543307
        },
        {
          "duration": 0.3947359999999982,
          "durationTicks": 256,
          "midi": 59,
          "name": "B3",
          "ticks": 19456,
          "time": 29.999935999999998,
          "velocity": 0.5826771653543307
        },
        {
          "duration": 0.3947359999999982,
          "durationTicks": 256,
          "midi": 62,
          "name": "D4",
          "ticks": 19456,
          "time": 29.999935999999998,
          "velocity": 0.5826771653543307
        },
        {
          "duration": 0.20045187499999884,
          "durationTicks": 130,
          "midi": 73,
          "name": "C#5",
          "ticks": 19584,
          "time": 30.197304,
          "velocity": 0.4015748031496063
        },
        {
          "duration": 0.2004518750000024,
          "durationTicks": 130,
          "midi": 74,
          "name": "D5",
          "ticks": 19712,
          "time": 30.394671999999996,
          "velocity": 0.4645669291338583
        },
        {
          "duration": 0.39473600000000175,
          "durationTicks": 256,
          "midi": 54,
          "name": "F#3",
          "ticks": 19712,
          "time": 30.394671999999996,
          "velocity": 0.5118110236220472
        },
        {
          "duration": 0.39473600000000175,
          "durationTicks": 256,
          "midi": 59,
          "name": "B3",
          "ticks": 19712,
          "time": 30.394671999999996,
          "velocity": 0.5118110236220472
        },
        {
          "duration": 0.39473600000000175,
          "durationTicks": 256,
          "midi": 62,
          "name": "D4",
          "ticks": 19712,
          "time": 30.394671999999996,
          "velocity": 0.5118110236220472
        },
        {
          "duration": 0.2004518750000024,
          "durationTicks": 130,
          "midi": 71,
          "name": "B4",
          "ticks": 19840,
          "time": 30.592039999999997,
          "velocity": 0.3858267716535433
        },
        {
          "duration": 0.7493816250000016,
          "durationTicks": 486,
          "midi": 70,
          "name": "A#4",
          "ticks": 19968,
          "time": 30.789407999999998,
          "velocity": 0.44881889763779526
        },
        {
          "duration": 0.39473600000000175,
          "durationTicks": 256,
          "midi": 49,
          "name": "C#3",
          "ticks": 19968,
          "time": 30.789407999999998,
          "velocity": 0.4094488188976378
        },
        {
          "duration": 0.3947359999999982,
          "durationTicks": 256,
          "midi": 54,
          "name": "F#3",
          "ticks": 20224,
          "time": 31.184144,
          "velocity": 0.6062992125984252
        },
        {
          "duration": 0.3947359999999982,
          "durationTicks": 256,
          "midi": 58,
          "name": "A#3",
          "ticks": 20224,
          "time": 31.184144,
          "velocity": 0.6062992125984252
        },
        {
          "duration": 0.3947359999999982,
          "durationTicks": 256,
          "midi": 64,
          "name": "E4",
          "ticks": 20224,
          "time": 31.184144,
          "velocity": 0.6062992125984252
        },
        {
          "duration": 0.6028975625000044,
          "durationTicks": 391,
          "midi": 78,
          "name": "F#5",
          "ticks": 20480,
          "time": 31.578879999999998,
          "velocity": 0.5590551181102362
        },
        {
          "duration": 0.3947359999999982,
          "durationTicks": 256,
          "midi": 54,
          "name": "F#3",
          "ticks": 20480,
          "time": 31.578879999999998,
          "velocity": 0.49606299212598426
        },
        {
          "duration": 0.3947359999999982,
          "durationTicks": 256,
          "midi": 58,
          "name": "A#3",
          "ticks": 20480,
          "time": 31.578879999999998,
          "velocity": 0.49606299212598426
        },
        {
          "duration": 0.3947359999999982,
          "durationTicks": 256,
          "midi": 64,
          "name": "E4",
          "ticks": 20480,
          "time": 31.578879999999998,
          "velocity": 0.49606299212598426
        },
        {
          "duration": 0.3947360000000053,
          "durationTicks": 256,
          "midi": 42,
          "name": "F#2",
          "ticks": 20736,
          "time": 31.973615999999996,
          "velocity": 0.49606299212598426
        },
        {
          "duration": 0.20045187500000594,
          "durationTicks": 130,
          "midi": 79,
          "name": "G5",
          "ticks": 20864,
          "time": 32.170984,
          "velocity": 0.5354330708661418
        },
        {
          "duration": 0.20045187499999884,
          "durationTicks": 130,
          "midi": 78,
          "name": "F#5",
          "ticks": 20992,
          "time": 32.368352,
          "velocity": 0.5433070866141733
        },
        {
          "duration": 0.39473599999999465,
          "durationTicks": 256,
          "midi": 54,
          "name": "F#3",
          "ticks": 20992,
          "time": 32.368352,
          "velocity": 0.7086614173228346
        },
        {
          "duration": 0.39473599999999465,
          "durationTicks": 256,
          "midi": 58,
          "name": "A#3",
          "ticks": 20992,
          "time": 32.368352,
          "velocity": 0.7086614173228346
        },
        {
          "duration": 0.39473599999999465,
          "durationTicks": 256,
          "midi": 64,
          "name": "E4",
          "ticks": 20992,
          "time": 32.368352,
          "velocity": 0.7086614173228346
        },
        {
          "duration": 0.20045187499999884,
          "durationTicks": 130,
          "midi": 73,
          "name": "C#5",
          "ticks": 21120,
          "time": 32.56572,
          "velocity": 0.5039370078740157
        },
        {
          "duration": 0.20045187499999884,
          "durationTicks": 130,
          "midi": 76,
          "name": "E5",
          "ticks": 21248,
          "time": 32.763087999999996,
          "velocity": 0.6692913385826772
        },
        {
          "duration": 0.39473600000000886,
          "durationTicks": 256,
          "midi": 54,
          "name": "F#3",
          "ticks": 21248,
          "time": 32.763087999999996,
          "velocity": 0.6299212598425197
        },
        {
          "duration": 0.39473600000000886,
          "durationTicks": 256,
          "midi": 58,
          "name": "A#3",
          "ticks": 21248,
          "time": 32.763087999999996,
          "velocity": 0.6299212598425197
        },
        {
          "duration": 0.39473600000000886,
          "durationTicks": 256,
          "midi": 64,
          "name": "E4",
          "ticks": 21248,
          "time": 32.763087999999996,
          "velocity": 0.6299212598425197
        },
        {
          "duration": 0.20045187499999884,
          "durationTicks": 130,
          "midi": 74,
          "name": "D5",
          "ticks": 21376,
          "time": 32.96045599999999,
          "velocity": 0.5984251968503937
        },
        {
          "duration": 0.749381624999998,
          "durationTicks": 486,
          "midi": 71,
          "name": "B4",
          "ticks": 21504,
          "time": 33.157824000000005,
          "velocity": 0.6220472440944882
        },
        {
          "duration": 0.39473599999999465,
          "durationTicks": 256,
          "midi": 47,
          "name": "B2",
          "ticks": 21504,
          "time": 33.157824000000005,
          "velocity": 0.5511811023622047
        },
        {
          "duration": 0.39473599999999465,
          "durationTicks": 256,
          "midi": 54,
          "name": "F#3",
          "ticks": 21760,
          "time": 33.55256,
          "velocity": 0.8503937007874016
        },
        {
          "duration": 0.39473599999999465,
          "durationTicks": 256,
          "midi": 59,
          "name": "B3",
          "ticks": 21760,
          "time": 33.55256,
          "velocity": 0.8503937007874016
        },
        {
          "duration": 0.39473599999999465,
          "durationTicks": 256,
          "midi": 62,
          "name": "D4",
          "ticks": 21760,
          "time": 33.55256,
          "velocity": 0.8503937007874016
        },
        {
          "duration": 0.6028975625000044,
          "durationTicks": 391,
          "midi": 78,
          "name": "F#5",
          "ticks": 22016,
          "time": 33.947295999999994,
          "velocity": 0.8346456692913385
        },
        {
          "duration": 0.39473600000000886,
          "durationTicks": 256,
          "midi": 54,
          "name": "F#3",
          "ticks": 22016,
          "time": 33.947295999999994,
          "velocity": 0.7874015748031497
        },
        {
          "duration": 0.39473600000000886,
          "durationTicks": 256,
          "midi": 59,
          "name": "B3",
          "ticks": 22016,
          "time": 33.947295999999994,
          "velocity": 0.7874015748031497
        },
        {
          "duration": 0.39473600000000886,
          "durationTicks": 256,
          "midi": 62,
          "name": "D4",
          "ticks": 22016,
          "time": 33.947295999999994,
          "velocity": 0.7874015748031497
        },
        {
          "duration": 0.3746908124999919,
          "durationTicks": 243,
          "midi": 50,
          "name": "D3",
          "ticks": 22272,
          "time": 34.342032,
          "velocity": 0.6850393700787402
        },
        {
          "duration": 0.20045187499999884,
          "durationTicks": 130,
          "midi": 90,
          "name": "F#6",
          "ticks": 22400,
          "time": 34.5394,
          "velocity": 0.984251968503937
        },
        {
          "duration": 0.20045187499999884,
          "durationTicks": 130,
          "midi": 85,
          "name": "C#6",
          "ticks": 22528,
          "time": 34.736768,
          "velocity": 0.905511811023622
        },
        {
          "duration": 0.39473599999999465,
          "durationTicks": 256,
          "midi": 54,
          "name": "F#3",
          "ticks": 22528,
          "time": 34.736768,
          "velocity": 0.968503937007874
        },
        {
          "duration": 0.39473599999999465,
          "durationTicks": 256,
          "midi": 59,
          "name": "B3",
          "ticks": 22528,
          "time": 34.736768,
          "velocity": 0.968503937007874
        },
        {
          "duration": 0.39473599999999465,
          "durationTicks": 256,
          "midi": 62,
          "name": "D4",
          "ticks": 22528,
          "time": 34.736768,
          "velocity": 0.968503937007874
        },
        {
          "duration": 0.20045187499999884,
          "durationTicks": 130,
          "midi": 86,
          "name": "D6",
          "ticks": 22656,
          "time": 34.934135999999995,
          "velocity": 0.7716535433070866
        },
        {
          "duration": 0.20045187499999884,
          "durationTicks": 130,
          "midi": 82,
          "name": "A#5",
          "ticks": 22784,
          "time": 35.13150399999999,
          "velocity": 0.6692913385826772
        },
        {
          "duration": 0.39473600000000886,
          "durationTicks": 256,
          "midi": 54,
          "name": "F#3",
          "ticks": 22784,
          "time": 35.13150399999999,
          "velocity": 0.8031496062992126
        },
        {
          "duration": 0.39473600000000886,
          "durationTicks": 256,
          "midi": 59,
          "name": "B3",
          "ticks": 22784,
          "time": 35.13150399999999,
          "velocity": 0.8031496062992126
        },
        {
          "duration": 0.39473600000000886,
          "durationTicks": 256,
          "midi": 62,
          "name": "D4",
          "ticks": 22784,
          "time": 35.13150399999999,
          "velocity": 0.8031496062992126
        },
        {
          "duration": 0.18657443749999914,
          "durationTicks": 121,
          "midi": 83,
          "name": "B5",
          "ticks": 22912,
          "time": 35.328872000000004,
          "velocity": 0.8031496062992126
        },
        {
          "duration": 0.20045187499999884,
          "durationTicks": 130,
          "midi": 81,
          "name": "A5",
          "ticks": 23040,
          "time": 35.52624,
          "velocity": 0.7165354330708661
        },
        {
          "duration": 0.3746908124999919,
          "durationTicks": 243,
          "midi": 52,
          "name": "E3",
          "ticks": 23040,
          "time": 35.52624,
          "velocity": 0.6929133858267716
        },
        {
          "duration": 0.20103010937499732,
          "durationTicks": 130,
          "midi": 79,
          "name": "G5",
          "ticks": 23168,
          "time": 35.723608,
          "velocity": 0.6771653543307087
        },
        {
          "duration": 0.23828125,
          "durationTicks": 130,
          "midi": 71,
          "name": "B4",
          "ticks": 23296,
          "time": 35.920975999999996,
          "velocity": 0.6535433070866141
        },
        {
          "duration": 0.484375,
          "durationTicks": 256,
          "midi": 55,
          "name": "G3",
          "ticks": 23296,
          "time": 35.920975999999996,
          "velocity": 0.9291338582677166
        },
        {
          "duration": 0.484375,
          "durationTicks": 256,
          "midi": 61,
          "name": "C#4",
          "ticks": 23296,
          "time": 35.920975999999996,
          "velocity": 0.9291338582677166
        },
        {
          "duration": 0.2542613593750005,
          "durationTicks": 130,
          "midi": 73,
          "name": "C#5",
          "ticks": 23424,
          "time": 36.155350999999996,
          "velocity": 0.6929133858267716
        },
        {
          "duration": 0.27698835937499666,
          "durationTicks": 130,
          "midi": 74,
          "name": "D5",
          "ticks": 23552,
          "time": 36.405350999999996,
          "velocity": 0.7952755905511811
        },
        {
          "duration": 0.257812242187498,
          "durationTicks": 121,
          "midi": 76,
          "name": "E5",
          "ticks": 23680,
          "time": 36.678078,
          "velocity": 0.8740157480314961
        },
        {
          "duration": 0.27698835937500377,
          "durationTicks": 130,
          "midi": 79,
          "name": "G5",
          "ticks": 23808,
          "time": 36.950804999999995,
          "velocity": 0.84251968503937
        },
        {
          "duration": 1.6363619999999983,
          "durationTicks": 768,
          "midi": 54,
          "name": "F#3",
          "ticks": 23808,
          "time": 36.950804999999995,
          "velocity": 0.6692913385826772
        },
        {
          "duration": 0.27698835937499666,
          "durationTicks": 130,
          "midi": 78,
          "name": "F#5",
          "ticks": 23936,
          "time": 37.223532,
          "velocity": 0.6929133858267716
        },
        {
          "duration": 0.27698835937500377,
          "durationTicks": 130,
          "midi": 71,
          "name": "B4",
          "ticks": 24064,
          "time": 37.496258999999995,
          "velocity": 0.5748031496062992
        },
        {
          "duration": 0.5454539999999994,
          "durationTicks": 256,
          "midi": 59,
          "name": "B3",
          "ticks": 24064,
          "time": 37.496258999999995,
          "velocity": 0.6771653543307087
        },
        {
          "duration": 0.5454539999999994,
          "durationTicks": 256,
          "midi": 62,
          "name": "D4",
          "ticks": 24064,
          "time": 37.496258999999995,
          "velocity": 0.6771653543307087
        },
        {
          "duration": 0.27698835937499666,
          "durationTicks": 130,
          "midi": 74,
          "name": "D5",
          "ticks": 24192,
          "time": 37.768986,
          "velocity": 0.6299212598425197
        },
        {
          "duration": 0.27698835937500377,
          "durationTicks": 130,
          "midi": 73,
          "name": "C#5",
          "ticks": 24320,
          "time": 38.041712999999994,
          "velocity": 0.5905511811023622
        },
        {
          "duration": 0.5454539999999994,
          "durationTicks": 256,
          "midi": 58,
          "name": "A#3",
          "ticks": 24320,
          "time": 38.041712999999994,
          "velocity": 0.8267716535433071
        },
        {
          "duration": 0.5454539999999994,
          "durationTicks": 256,
          "midi": 64,
          "name": "E4",
          "ticks": 24320,
          "time": 38.041712999999994,
          "velocity": 0.8267716535433071
        },
        {
          "duration": 0.2758108749999977,
          "durationTicks": 130,
          "midi": 66,
          "name": "F#4",
          "ticks": 24448,
          "time": 38.31444,
          "velocity": 0.41732283464566927
        },
        {
          "duration": 0.5612652499999982,
          "durationTicks": 364,
          "midi": 71,
          "name": "B4",
          "ticks": 24576,
          "time": 38.587166999999994,
          "velocity": 0.5275590551181102
        },
        {
          "duration": 0.39473600000000175,
          "durationTicks": 256,
          "midi": 47,
          "name": "B2",
          "ticks": 24576,
          "time": 38.587166999999994,
          "velocity": 0.4409448818897638
        },
        {
          "duration": 0.39473600000000175,
          "durationTicks": 256,
          "midi": 54,
          "name": "F#3",
          "ticks": 24832,
          "time": 38.981902999999996,
          "velocity": 0.6220472440944882
        },
        {
          "duration": 0.39473600000000175,
          "durationTicks": 256,
          "midi": 62,
          "name": "D4",
          "ticks": 24832,
          "time": 38.981902999999996,
          "velocity": 0.6220472440944882
        },
        {
          "duration": 0.20045187499999884,
          "durationTicks": 130,
          "midi": 66,
          "name": "F#4",
          "ticks": 24960,
          "time": 39.17927099999999,
          "velocity": 0.44881889763779526
        },
        {
          "duration": 0.20045187499999884,
          "durationTicks": 130,
          "midi": 71,
          "name": "B4",
          "ticks": 25088,
          "time": 39.376639,
          "velocity": 0.47244094488188976
        },
        {
          "duration": 0.40244568749999843,
          "durationTicks": 261,
          "midi": 50,
          "name": "D3",
          "ticks": 25088,
          "time": 39.376639,
          "velocity": 0.4251968503937008
        },
        {
          "duration": 0.18657443749999914,
          "durationTicks": 121,
          "midi": 70,
          "name": "A#4",
          "ticks": 25216,
          "time": 39.574006999999995,
          "velocity": 0.44881889763779526
        },
        {
          "duration": 0.6028975625000044,
          "durationTicks": 391,
          "midi": 70,
          "name": "A#4",
          "ticks": 25344,
          "time": 39.77137499999999,
          "velocity": 0.5118110236220472
        },
        {
          "duration": 0.374690812499999,
          "durationTicks": 243,
          "midi": 49,
          "name": "C#3",
          "ticks": 25344,
          "time": 39.77137499999999,
          "velocity": 0.4094488188976378
        },
        {
          "duration": 0.39473600000000175,
          "durationTicks": 256,
          "midi": 55,
          "name": "G3",
          "ticks": 25600,
          "time": 40.166110999999994,
          "velocity": 0.5826771653543307
        },
        {
          "duration": 0.39473600000000175,
          "durationTicks": 256,
          "midi": 57,
          "name": "A3",
          "ticks": 25600,
          "time": 40.166110999999994,
          "velocity": 0.5826771653543307
        },
        {
          "duration": 0.39473600000000175,
          "durationTicks": 256,
          "midi": 64,
          "name": "E4",
          "ticks": 25600,
          "time": 40.166110999999994,
          "velocity": 0.5826771653543307
        },
        {
          "duration": 0.20045187500000594,
          "durationTicks": 130,
          "midi": 69,
          "name": "A4",
          "ticks": 25728,
          "time": 40.36347899999999,
          "velocity": 0.41732283464566927
        },
        {
          "duration": 0.20045187499999884,
          "durationTicks": 130,
          "midi": 73,
          "name": "C#5",
          "ticks": 25856,
          "time": 40.560846999999995,
          "velocity": 0.5826771653543307
        },
        {
          "duration": 0.39473599999999465,
          "durationTicks": 256,
          "midi": 55,
          "name": "G3",
          "ticks": 25856,
          "time": 40.560846999999995,
          "velocity": 0.5433070866141733
        },
        {
          "duration": 0.39473599999999465,
          "durationTicks": 256,
          "midi": 57,
          "name": "A3",
          "ticks": 25856,
          "time": 40.560846999999995,
          "velocity": 0.5433070866141733
        },
        {
          "duration": 0.39473599999999465,
          "durationTicks": 256,
          "midi": 64,
          "name": "E4",
          "ticks": 25856,
          "time": 40.560846999999995,
          "velocity": 0.5433070866141733
        },
        {
          "duration": 0.18657443749999914,
          "durationTicks": 121,
          "midi": 76,
          "name": "E5",
          "ticks": 25984,
          "time": 40.75821499999999,
          "velocity": 0.5984251968503937
        },
        {
          "duration": 0.6028975625000044,
          "durationTicks": 391,
          "midi": 79,
          "name": "G5",
          "ticks": 26112,
          "time": 40.95558299999999,
          "velocity": 0.5984251968503937
        },
        {
          "duration": 0.39473600000000175,
          "durationTicks": 256,
          "midi": 50,
          "name": "D3",
          "ticks": 26112,
          "time": 40.95558299999999,
          "velocity": 0.48031496062992124
        },
        {
          "duration": 0.39473600000000175,
          "durationTicks": 256,
          "midi": 54,
          "name": "F#3",
          "ticks": 26368,
          "time": 41.35031899999999,
          "velocity": 0.7086614173228346
        },
        {
          "duration": 0.39473600000000175,
          "durationTicks": 256,
          "midi": 57,
          "name": "A3",
          "ticks": 26368,
          "time": 41.35031899999999,
          "velocity": 0.7086614173228346
        },
        {
          "duration": 0.39473600000000175,
          "durationTicks": 256,
          "midi": 62,
          "name": "D4",
          "ticks": 26368,
          "time": 41.35031899999999,
          "velocity": 0.7086614173228346
        },
        {
          "duration": 0.20045187499999884,
          "durationTicks": 130,
          "midi": 78,
          "name": "F#5",
          "ticks": 26496,
          "time": 41.547686999999996,
          "velocity": 0.5748031496062992
        },
        {
          "duration": 0.20045187499999884,
          "durationTicks": 130,
          "midi": 73,
          "name": "C#5",
          "ticks": 26624,
          "time": 41.745054999999994,
          "velocity": 0.4645669291338583
        },
        {
          "duration": 0.39473600000000175,
          "durationTicks": 256,
          "midi": 54,
          "name": "F#3",
          "ticks": 26624,
          "time": 41.745054999999994,
          "velocity": 0.5433070866141733
        },
        {
          "duration": 0.39473600000000175,
          "durationTicks": 256,
          "midi": 57,
          "name": "A3",
          "ticks": 26624,
          "time": 41.745054999999994,
          "velocity": 0.5433070866141733
        },
        {
          "duration": 0.39473600000000175,
          "durationTicks": 256,
          "midi": 62,
          "name": "D4",
          "ticks": 26624,
          "time": 41.745054999999994,
          "velocity": 0.5433070866141733
        },
        {
          "duration": 0.18657443749999914,
          "durationTicks": 121,
          "midi": 74,
          "name": "D5",
          "ticks": 26752,
          "time": 41.94242299999999,
          "velocity": 0.5196850393700787
        },
        {
          "duration": 0.6028975624999973,
          "durationTicks": 391,
          "midi": 78,
          "name": "F#5",
          "ticks": 26880,
          "time": 42.139790999999995,
          "velocity": 0.5354330708661418
        },
        {
          "duration": 0.39473600000000175,
          "durationTicks": 256,
          "midi": 45,
          "name": "A2",
          "ticks": 26880,
          "time": 42.139790999999995,
          "velocity": 0.4409448818897638
        },
        {
          "duration": 0.39473599999999465,
          "durationTicks": 256,
          "midi": 57,
          "name": "A3",
          "ticks": 27136,
          "time": 42.534527,
          "velocity": 0.5669291338582677
        },
        {
          "duration": 0.39473599999999465,
          "durationTicks": 256,
          "midi": 61,
          "name": "C#4",
          "ticks": 27136,
          "time": 42.534527,
          "velocity": 0.5669291338582677
        },
        {
          "duration": 0.39473599999999465,
          "durationTicks": 256,
          "midi": 67,
          "name": "G4",
          "ticks": 27136,
          "time": 42.534527,
          "velocity": 0.5669291338582677
        },
        {
          "duration": 0.20045187499999884,
          "durationTicks": 130,
          "midi": 76,
          "name": "E5",
          "ticks": 27264,
          "time": 42.731894999999994,
          "velocity": 0.5196850393700787
        },
        {
          "duration": 0.20045187499999884,
          "durationTicks": 130,
          "midi": 71,
          "name": "B4",
          "ticks": 27392,
          "time": 42.92926299999999,
          "velocity": 0.4251968503937008
        },
        {
          "duration": 0.39473600000000175,
          "durationTicks": 256,
          "midi": 57,
          "name": "A3",
          "ticks": 27392,
          "time": 42.92926299999999,
          "velocity": 0.49606299212598426
        },
        {
          "duration": 0.39473600000000175,
          "durationTicks": 256,
          "midi": 64,
          "name": "E4",
          "ticks": 27392,
          "time": 42.92926299999999,
          "velocity": 0.49606299212598426
        },
        {
          "duration": 0.39473600000000175,
          "durationTicks": 256,
          "midi": 67,
          "name": "G4",
          "ticks": 27392,
          "time": 42.92926299999999,
          "velocity": 0.49606299212598426
        },
        {
          "duration": 0.18657443749999914,
          "durationTicks": 121,
          "midi": 73,
          "name": "C#5",
          "ticks": 27520,
          "time": 43.126630999999996,
          "velocity": 0.44881889763779526
        },
        {
          "duration": 0.6028975624999973,
          "durationTicks": 391,
          "midi": 76,
          "name": "E5",
          "ticks": 27648,
          "time": 43.32399899999999,
          "velocity": 0.5275590551181102
        },
        {
          "duration": 0.39473600000000175,
          "durationTicks": 256,
          "midi": 50,
          "name": "D3",
          "ticks": 27648,
          "time": 43.32399899999999,
          "velocity": 0.44881889763779526
        },
        {
          "duration": 0.39473599999999465,
          "durationTicks": 256,
          "midi": 57,
          "name": "A3",
          "ticks": 27904,
          "time": 43.718734999999995,
          "velocity": 0.6062992125984252
        },
        {
          "duration": 0.39473599999999465,
          "durationTicks": 256,
          "midi": 62,
          "name": "D4",
          "ticks": 27904,
          "time": 43.718734999999995,
          "velocity": 0.6062992125984252
        },
        {
          "duration": 0.39473599999999465,
          "durationTicks": 256,
          "midi": 66,
          "name": "F#4",
          "ticks": 27904,
          "time": 43.718734999999995,
          "velocity": 0.6062992125984252
        },
        {
          "duration": 0.20045187499999884,
          "durationTicks": 130,
          "midi": 74,
          "name": "D5",
          "ticks": 28032,
          "time": 43.91610299999999,
          "velocity": 0.49606299212598426
        },
        {
          "duration": 0.20045187500000594,
          "durationTicks": 130,
          "midi": 73,
          "name": "C#5",
          "ticks": 28160,
          "time": 44.11347099999999,
          "velocity": 0.4409448818897638
        },
        {
          "duration": 0.39473600000000175,
          "durationTicks": 256,
          "midi": 57,
          "name": "A3",
          "ticks": 28160,
          "time": 44.11347099999999,
          "velocity": 0.5039370078740157
        },
        {
          "duration": 0.39473600000000175,
          "durationTicks": 256,
          "midi": 62,
          "name": "D4",
          "ticks": 28160,
          "time": 44.11347099999999,
          "velocity": 0.5039370078740157
        },
        {
          "duration": 0.39473600000000175,
          "durationTicks": 256,
          "midi": 66,
          "name": "F#4",
          "ticks": 28160,
          "time": 44.11347099999999,
          "velocity": 0.5039370078740157
        },
        {
          "duration": 0.18657443749999914,
          "durationTicks": 121,
          "midi": 71,
          "name": "B4",
          "ticks": 28288,
          "time": 44.310838999999994,
          "velocity": 0.3937007874015748
        },
        {
          "duration": 0.6028975625000044,
          "durationTicks": 391,
          "midi": 71,
          "name": "B4",
          "ticks": 28416,
          "time": 44.50820699999999,
          "velocity": 0.4330708661417323
        },
        {
          "duration": 0.39473600000000175,
          "durationTicks": 256,
          "midi": 49,
          "name": "C#3",
          "ticks": 28416,
          "time": 44.50820699999999,
          "velocity": 0.41732283464566927
        },
        {
          "duration": 0.39473600000000175,
          "durationTicks": 256,
          "midi": 57,
          "name": "A3",
          "ticks": 28672,
          "time": 44.90294299999999,
          "velocity": 0.6456692913385826
        },
        {
          "duration": 0.39473600000000175,
          "durationTicks": 256,
          "midi": 64,
          "name": "E4",
          "ticks": 28672,
          "time": 44.90294299999999,
          "velocity": 0.6456692913385826
        },
        {
          "duration": 0.39473600000000175,
          "durationTicks": 256,
          "midi": 67,
          "name": "G4",
          "ticks": 28672,
          "time": 44.90294299999999,
          "velocity": 0.6456692913385826
        },
        {
          "duration": 0.20045187499999884,
          "durationTicks": 130,
          "midi": 69,
          "name": "A4",
          "ticks": 28800,
          "time": 45.10031099999999,
          "velocity": 0.4094488188976378
        },
        {
          "duration": 0.20045187499999884,
          "durationTicks": 130,
          "midi": 73,
          "name": "C#5",
          "ticks": 28928,
          "time": 45.297678999999995,
          "velocity": 0.5511811023622047
        },
        {
          "duration": 0.39473600000000175,
          "durationTicks": 256,
          "midi": 57,
          "name": "A3",
          "ticks": 28928,
          "time": 45.297678999999995,
          "velocity": 0.5118110236220472
        },
        {
          "duration": 0.39473600000000175,
          "durationTicks": 256,
          "midi": 64,
          "name": "E4",
          "ticks": 28928,
          "time": 45.297678999999995,
          "velocity": 0.5118110236220472
        },
        {
          "duration": 0.39473600000000175,
          "durationTicks": 256,
          "midi": 67,
          "name": "G4",
          "ticks": 28928,
          "time": 45.297678999999995,
          "velocity": 0.5118110236220472
        },
        {
          "duration": 0.18657443749999914,
          "durationTicks": 121,
          "midi": 76,
          "name": "E5",
          "ticks": 29056,
          "time": 45.49504699999999,
          "velocity": 0.5826771653543307
        },
        {
          "duration": 0.6028975624999973,
          "durationTicks": 391,
          "midi": 79,
          "name": "G5",
          "ticks": 29184,
          "time": 45.692415,
          "velocity": 0.5118110236220472
        },
        {
          "duration": 0.39473599999999465,
          "durationTicks": 256,
          "midi": 50,
          "name": "D3",
          "ticks": 29184,
          "time": 45.692415,
          "velocity": 0.4330708661417323
        },
        {
          "duration": 0.39473600000000175,
          "durationTicks": 256,
          "midi": 57,
          "name": "A3",
          "ticks": 29440,
          "time": 46.08715099999999,
          "velocity": 0.6220472440944882
        },
        {
          "duration": 0.39473600000000175,
          "durationTicks": 256,
          "midi": 62,
          "name": "D4",
          "ticks": 29440,
          "time": 46.08715099999999,
          "velocity": 0.6220472440944882
        },
        {
          "duration": 0.39473600000000175,
          "durationTicks": 256,
          "midi": 66,
          "name": "F#4",
          "ticks": 29440,
          "time": 46.08715099999999,
          "velocity": 0.6220472440944882
        },
        {
          "duration": 0.20045187499999884,
          "durationTicks": 130,
          "midi": 78,
          "name": "F#5",
          "ticks": 29568,
          "time": 46.284518999999996,
          "velocity": 0.49606299212598426
        },
        {
          "duration": 0.20045187499999884,
          "durationTicks": 130,
          "midi": 73,
          "name": "C#5",
          "ticks": 29696,
          "time": 46.48188699999999,
          "velocity": 0.4409448818897638
        },
        {
          "duration": 0.39473600000000175,
          "durationTicks": 256,
          "midi": 57,
          "name": "A3",
          "ticks": 29696,
          "time": 46.48188699999999,
          "velocity": 0.5118110236220472
        },
        {
          "duration": 0.39473600000000175,
          "durationTicks": 256,
          "midi": 62,
          "name": "D4",
          "ticks": 29696,
          "time": 46.48188699999999,
          "velocity": 0.5118110236220472
        },
        {
          "duration": 0.39473600000000175,
          "durationTicks": 256,
          "midi": 66,
          "name": "F#4",
          "ticks": 29696,
          "time": 46.48188699999999,
          "velocity": 0.5118110236220472
        },
        {
          "duration": 0.18657443749999914,
          "durationTicks": 121,
          "midi": 74,
          "name": "D5",
          "ticks": 29824,
          "time": 46.679255,
          "velocity": 0.4330708661417323
        },
        {
          "duration": 0.6028975624999973,
          "durationTicks": 391,
          "midi": 78,
          "name": "F#5",
          "ticks": 29952,
          "time": 46.876622999999995,
          "velocity": 0.5590551181102362
        },
        {
          "duration": 0.39473599999999465,
          "durationTicks": 256,
          "midi": 43,
          "name": "G2",
          "ticks": 29952,
          "time": 46.876622999999995,
          "velocity": 0.41732283464566927
        },
        {
          "duration": 0.39473600000000175,
          "durationTicks": 256,
          "midi": 55,
          "name": "G3",
          "ticks": 30208,
          "time": 47.27135899999999,
          "velocity": 0.6062992125984252
        },
        {
          "duration": 0.39473600000000175,
          "durationTicks": 256,
          "midi": 59,
          "name": "B3",
          "ticks": 30208,
          "time": 47.27135899999999,
          "velocity": 0.6062992125984252
        },
        {
          "duration": 0.39473600000000175,
          "durationTicks": 256,
          "midi": 64,
          "name": "E4",
          "ticks": 30208,
          "time": 47.27135899999999,
          "velocity": 0.6062992125984252
        },
        {
          "duration": 0.20045187499999884,
          "durationTicks": 130,
          "midi": 76,
          "name": "E5",
          "ticks": 30336,
          "time": 47.468726999999994,
          "velocity": 0.5275590551181102
        },
        {
          "duration": 0.20045187500000594,
          "durationTicks": 130,
          "midi": 71,
          "name": "B4",
          "ticks": 30464,
          "time": 47.66609499999999,
          "velocity": 0.4330708661417323
        },
        {
          "duration": 0.39473600000000175,
          "durationTicks": 256,
          "midi": 55,
          "name": "G3",
          "ticks": 30464,
          "time": 47.66609499999999,
          "velocity": 0.48031496062992124
        },
        {
          "duration": 0.39473600000000175,
          "durationTicks": 256,
          "midi": 59,
          "name": "B3",
          "ticks": 30464,
          "time": 47.66609499999999,
          "velocity": 0.48031496062992124
        },
        {
          "duration": 0.39473600000000175,
          "durationTicks": 256,
          "midi": 64,
          "name": "E4",
          "ticks": 30464,
          "time": 47.66609499999999,
          "velocity": 0.48031496062992124
        },
        {
          "duration": 0.18657443749999914,
          "durationTicks": 121,
          "midi": 73,
          "name": "C#5",
          "ticks": 30592,
          "time": 47.863462999999996,
          "velocity": 0.4330708661417323
        },
        {
          "duration": 0.6028975625000044,
          "durationTicks": 391,
          "midi": 70,
          "name": "A#4",
          "ticks": 30720,
          "time": 48.06083099999999,
          "velocity": 0.4566929133858268
        },
        {
          "duration": 0.39473600000000175,
          "durationTicks": 256,
          "midi": 42,
          "name": "F#2",
          "ticks": 30720,
          "time": 48.06083099999999,
          "velocity": 0.41732283464566927
        },
        {
          "duration": 0.39473600000000175,
          "durationTicks": 256,
          "midi": 54,
          "name": "F#3",
          "ticks": 30976,
          "time": 48.455566999999995,
          "velocity": 0.6377952755905512
        },
        {
          "duration": 0.39473600000000175,
          "durationTicks": 256,
          "midi": 61,
          "name": "C#4",
          "ticks": 30976,
          "time": 48.455566999999995,
          "velocity": 0.6377952755905512
        },
        {
          "duration": 0.39473600000000175,
          "durationTicks": 256,
          "midi": 64,
          "name": "E4",
          "ticks": 30976,
          "time": 48.455566999999995,
          "velocity": 0.6377952755905512
        },
        {
          "duration": 0.20045187499999884,
          "durationTicks": 130,
          "midi": 73,
          "name": "C#5",
          "ticks": 31104,
          "time": 48.65293499999999,
          "velocity": 0.4645669291338583
        },
        {
          "duration": 0.20045187499999884,
          "durationTicks": 130,
          "midi": 67,
          "name": "G4",
          "ticks": 31232,
          "time": 48.850303,
          "velocity": 0.3543307086614173
        },
        {
          "duration": 0.39473599999999465,
          "durationTicks": 256,
          "midi": 54,
          "name": "F#3",
          "ticks": 31232,
          "time": 48.850303,
          "velocity": 0.4881889763779528
        },
        {
          "duration": 0.39473599999999465,
          "durationTicks": 256,
          "midi": 61,
          "name": "C#4",
          "ticks": 31232,
          "time": 48.850303,
          "velocity": 0.4881889763779528
        },
        {
          "duration": 0.39473599999999465,
          "durationTicks": 256,
          "midi": 64,
          "name": "E4",
          "ticks": 31232,
          "time": 48.850303,
          "velocity": 0.4881889763779528
        },
        {
          "duration": 0.18657443749999914,
          "durationTicks": 121,
          "midi": 73,
          "name": "C#5",
          "ticks": 31360,
          "time": 49.047670999999994,
          "velocity": 0.3858267716535433
        },
        {
          "duration": 0.6028975625000044,
          "durationTicks": 391,
          "midi": 66,
          "name": "F#4",
          "ticks": 31488,
          "time": 49.24503899999999,
          "velocity": 0.4330708661417323
        },
        {
          "duration": 0.39473600000000175,
          "durationTicks": 256,
          "midi": 42,
          "name": "F#2",
          "ticks": 31488,
          "time": 49.24503899999999,
          "velocity": 0.4015748031496063
        },
        {
          "duration": 0.39473600000000175,
          "durationTicks": 256,
          "midi": 54,
          "name": "F#3",
          "ticks": 31744,
          "time": 49.63977499999999,
          "velocity": 0.6456692913385826
        },
        {
          "duration": 0.39473600000000175,
          "durationTicks": 256,
          "midi": 61,
          "name": "C#4",
          "ticks": 31744,
          "time": 49.63977499999999,
          "velocity": 0.6456692913385826
        },
        {
          "duration": 0.39473600000000175,
          "durationTicks": 256,
          "midi": 64,
          "name": "E4",
          "ticks": 31744,
          "time": 49.63977499999999,
          "velocity": 0.6456692913385826
        },
        {
          "duration": 0.20045187499999884,
          "durationTicks": 130,
          "midi": 70,
          "name": "A#4",
          "ticks": 31872,
          "time": 49.837143,
          "velocity": 0.5590551181102362
        },
        {
          "duration": 0.20045187499999884,
          "durationTicks": 130,
          "midi": 73,
          "name": "C#5",
          "ticks": 32000,
          "time": 50.034510999999995,
          "velocity": 0.5669291338582677
        },
        {
          "duration": 0.39473599999999465,
          "durationTicks": 256,
          "midi": 54,
          "name": "F#3",
          "ticks": 32000,
          "time": 50.034510999999995,
          "velocity": 0.5669291338582677
        },
        {
          "duration": 0.39473599999999465,
          "durationTicks": 256,
          "midi": 58,
          "name": "A#3",
          "ticks": 32000,
          "time": 50.034510999999995,
          "velocity": 0.5669291338582677
        },
        {
          "duration": 0.39473599999999465,
          "durationTicks": 256,
          "midi": 64,
          "name": "E4",
          "ticks": 32000,
          "time": 50.034510999999995,
          "velocity": 0.5669291338582677
        },
        {
          "duration": 0.18657443749999914,
          "durationTicks": 121,
          "midi": 76,
          "name": "E5",
          "ticks": 32128,
          "time": 50.23187899999999,
          "velocity": 0.6220472440944882
        },
        {
          "duration": 0.6028975625000044,
          "durationTicks": 391,
          "midi": 79,
          "name": "G5",
          "ticks": 32256,
          "time": 50.42924699999999,
          "velocity": 0.6456692913385826
        },
        {
          "duration": 0.39473600000000175,
          "durationTicks": 256,
          "midi": 47,
          "name": "B2",
          "ticks": 32256,
          "time": 50.42924699999999,
          "velocity": 0.4881889763779528
        },
        {
          "duration": 0.39473600000000175,
          "durationTicks": 256,
          "midi": 54,
          "name": "F#3",
          "ticks": 32512,
          "time": 50.82398299999999,
          "velocity": 0.6535433070866141
        },
        {
          "duration": 0.39473600000000175,
          "durationTicks": 256,
          "midi": 59,
          "name": "B3",
          "ticks": 32512,
          "time": 50.82398299999999,
          "velocity": 0.6535433070866141
        },
        {
          "duration": 0.39473600000000175,
          "durationTicks": 256,
          "midi": 62,
          "name": "D4",
          "ticks": 32512,
          "time": 50.82398299999999,
          "velocity": 0.6535433070866141
        },
        {
          "duration": 0.20045187499999884,
          "durationTicks": 130,
          "midi": 78,
          "name": "F#5",
          "ticks": 32640,
          "time": 51.021350999999996,
          "velocity": 0.5196850393700787
        },
        {
          "duration": 0.20045187499999884,
          "durationTicks": 130,
          "midi": 73,
          "name": "C#5",
          "ticks": 32768,
          "time": 51.21871899999999,
          "velocity": 0.3858267716535433
        },
        {
          "duration": 0.39473600000000175,
          "durationTicks": 256,
          "midi": 54,
          "name": "F#3",
          "ticks": 32768,
          "time": 51.21871899999999,
          "velocity": 0.5039370078740157
        },
        {
          "duration": 0.39473600000000175,
          "durationTicks": 256,
          "midi": 59,
          "name": "B3",
          "ticks": 32768,
          "time": 51.21871899999999,
          "velocity": 0.5039370078740157
        },
        {
          "duration": 0.39473600000000175,
          "durationTicks": 256,
          "midi": 62,
          "name": "D4",
          "ticks": 32768,
          "time": 51.21871899999999,
          "velocity": 0.5039370078740157
        },
        {
          "duration": 0.18657443749999914,
          "durationTicks": 121,
          "midi": 74,
          "name": "D5",
          "ticks": 32896,
          "time": 51.41608699999999,
          "velocity": 0.49606299212598426
        },
        {
          "duration": 0.6028975624999973,
          "durationTicks": 391,
          "midi": 78,
          "name": "F#5",
          "ticks": 33024,
          "time": 51.613454999999995,
          "velocity": 0.5275590551181102
        },
        {
          "duration": 0.39473600000000175,
          "durationTicks": 256,
          "midi": 45,
          "name": "A2",
          "ticks": 33024,
          "time": 51.613454999999995,
          "velocity": 0.44881889763779526
        },
        {
          "duration": 0.39473599999999465,
          "durationTicks": 256,
          "midi": 54,
          "name": "F#3",
          "ticks": 33280,
          "time": 52.008191,
          "velocity": 0.5118110236220472
        },
        {
          "duration": 0.39473599999999465,
          "durationTicks": 256,
          "midi": 57,
          "name": "A3",
          "ticks": 33280,
          "time": 52.008191,
          "velocity": 0.5118110236220472
        },
        {
          "duration": 0.39473599999999465,
          "durationTicks": 256,
          "midi": 64,
          "name": "E4",
          "ticks": 33280,
          "time": 52.008191,
          "velocity": 0.5118110236220472
        },
        {
          "duration": 0.20045187499999884,
          "durationTicks": 130,
          "midi": 76,
          "name": "E5",
          "ticks": 33408,
          "time": 52.205558999999994,
          "velocity": 0.3543307086614173
        },
        {
          "duration": 0.20045187499999884,
          "durationTicks": 130,
          "midi": 71,
          "name": "B4",
          "ticks": 33536,
          "time": 52.40292699999999,
          "velocity": 0.33070866141732286
        },
        {
          "duration": 0.39473600000000175,
          "durationTicks": 256,
          "midi": 54,
          "name": "F#3",
          "ticks": 33536,
          "time": 52.40292699999999,
          "velocity": 0.3700787401574803
        },
        {
          "duration": 0.39473600000000175,
          "durationTicks": 256,
          "midi": 61,
          "name": "C#4",
          "ticks": 33536,
          "time": 52.40292699999999,
          "velocity": 0.3700787401574803
        },
        {
          "duration": 0.39473600000000175,
          "durationTicks": 256,
          "midi": 64,
          "name": "E4",
          "ticks": 33536,
          "time": 52.40292699999999,
          "velocity": 0.3700787401574803
        },
        {
          "duration": 0.18657443750000624,
          "durationTicks": 121,
          "midi": 73,
          "name": "C#5",
          "ticks": 33664,
          "time": 52.60029499999999,
          "velocity": 0.4881889763779528
        },
        {
          "duration": 0.6028975624999973,
          "durationTicks": 391,
          "midi": 76,
          "name": "E5",
          "ticks": 33792,
          "time": 52.79766299999999,
          "velocity": 0.5118110236220472
        },
        {
          "duration": 0.39473600000000175,
          "durationTicks": 256,
          "midi": 50,
          "name": "D3",
          "ticks": 33792,
          "time": 52.79766299999999,
          "velocity": 0.41732283464566927
        },
        {
          "duration": 0.39473599999999465,
          "durationTicks": 256,
          "midi": 57,
          "name": "A3",
          "ticks": 34048,
          "time": 53.192398999999995,
          "velocity": 0.5275590551181102
        },
        {
          "duration": 0.39473599999999465,
          "durationTicks": 256,
          "midi": 62,
          "name": "D4",
          "ticks": 34048,
          "time": 53.192398999999995,
          "velocity": 0.5275590551181102
        },
        {
          "duration": 0.39473599999999465,
          "durationTicks": 256,
          "midi": 66,
          "name": "F#4",
          "ticks": 34048,
          "time": 53.192398999999995,
          "velocity": 0.5275590551181102
        },
        {
          "duration": 0.20045187499999884,
          "durationTicks": 130,
          "midi": 74,
          "name": "D5",
          "ticks": 34176,
          "time": 53.38976699999999,
          "velocity": 0.4094488188976378
        },
        {
          "duration": 0.20045187500000594,
          "durationTicks": 130,
          "midi": 73,
          "name": "C#5",
          "ticks": 34304,
          "time": 53.58713499999999,
          "velocity": 0.3937007874015748
        },
        {
          "duration": 0.39473600000000175,
          "durationTicks": 256,
          "midi": 57,
          "name": "A3",
          "ticks": 34304,
          "time": 53.58713499999999,
          "velocity": 0.4015748031496063
        },
        {
          "duration": 0.39473600000000175,
          "durationTicks": 256,
          "midi": 62,
          "name": "D4",
          "ticks": 34304,
          "time": 53.58713499999999,
          "velocity": 0.4015748031496063
        },
        {
          "duration": 0.39473600000000175,
          "durationTicks": 256,
          "midi": 66,
          "name": "F#4",
          "ticks": 34304,
          "time": 53.58713499999999,
          "velocity": 0.4015748031496063
        },
        {
          "duration": 0.18657443749999914,
          "durationTicks": 121,
          "midi": 71,
          "name": "B4",
          "ticks": 34432,
          "time": 53.784502999999994,
          "velocity": 0.2755905511811024
        },
        {
          "duration": 0.6028975625000044,
          "durationTicks": 391,
          "midi": 71,
          "name": "B4",
          "ticks": 34560,
          "time": 53.98187099999999,
          "velocity": 0.49606299212598426
        },
        {
          "duration": 0.39473600000000175,
          "durationTicks": 256,
          "midi": 49,
          "name": "C#3",
          "ticks": 34560,
          "time": 53.98187099999999,
          "velocity": 0.4566929133858268
        },
        {
          "duration": 0.39473600000000175,
          "durationTicks": 256,
          "midi": 57,
          "name": "A3",
          "ticks": 34816,
          "time": 54.37660699999999,
          "velocity": 0.6299212598425197
        },
        {
          "duration": 0.39473600000000175,
          "durationTicks": 256,
          "midi": 64,
          "name": "E4",
          "ticks": 34816,
          "time": 54.37660699999999,
          "velocity": 0.6299212598425197
        },
        {
          "duration": 0.39473600000000175,
          "durationTicks": 256,
          "midi": 67,
          "name": "G4",
          "ticks": 34816,
          "time": 54.37660699999999,
          "velocity": 0.6299212598425197
        },
        {
          "duration": 0.20045187499999884,
          "durationTicks": 130,
          "midi": 69,
          "name": "A4",
          "ticks": 34944,
          "time": 54.57397499999999,
          "velocity": 0.4251968503937008
        },
        {
          "duration": 0.20045187499999884,
          "durationTicks": 130,
          "midi": 73,
          "name": "C#5",
          "ticks": 35072,
          "time": 54.771342999999995,
          "velocity": 0.5905511811023622
        },
        {
          "duration": 0.39473600000000175,
          "durationTicks": 256,
          "midi": 57,
          "name": "A3",
          "ticks": 35072,
          "time": 54.771342999999995,
          "velocity": 0.5275590551181102
        },
        {
          "duration": 0.39473600000000175,
          "durationTicks": 256,
          "midi": 64,
          "name": "E4",
          "ticks": 35072,
          "time": 54.771342999999995,
          "velocity": 0.5275590551181102
        },
        {
          "duration": 0.39473600000000175,
          "durationTicks": 256,
          "midi": 67,
          "name": "G4",
          "ticks": 35072,
          "time": 54.771342999999995,
          "velocity": 0.5275590551181102
        },
        {
          "duration": 0.18657443749999914,
          "durationTicks": 121,
          "midi": 76,
          "name": "E5",
          "ticks": 35200,
          "time": 54.96871099999999,
          "velocity": 0.5826771653543307
        },
        {
          "duration": 0.6028975624999973,
          "durationTicks": 391,
          "midi": 79,
          "name": "G5",
          "ticks": 35328,
          "time": 55.166078999999996,
          "velocity": 0.6299212598425197
        },
        {
          "duration": 0.39473599999999465,
          "durationTicks": 256,
          "midi": 50,
          "name": "D3",
          "ticks": 35328,
          "time": 55.166078999999996,
          "velocity": 0.48031496062992124
        },
        {
          "duration": 0.39473600000000175,
          "durationTicks": 256,
          "midi": 57,
          "name": "A3",
          "ticks": 35584,
          "time": 55.56081499999999,
          "velocity": 0.6614173228346457
        },
        {
          "duration": 0.39473600000000175,
          "durationTicks": 256,
          "midi": 62,
          "name": "D4",
          "ticks": 35584,
          "time": 55.56081499999999,
          "velocity": 0.6614173228346457
        },
        {
          "duration": 0.39473600000000175,
          "durationTicks": 256,
          "midi": 66,
          "name": "F#4",
          "ticks": 35584,
          "time": 55.56081499999999,
          "velocity": 0.6614173228346457
        },
        {
          "duration": 0.20045187500000594,
          "durationTicks": 130,
          "midi": 78,
          "name": "F#5",
          "ticks": 35712,
          "time": 55.75818299999999,
          "velocity": 0.49606299212598426
        },
        {
          "duration": 0.20045187499999884,
          "durationTicks": 130,
          "midi": 73,
          "name": "C#5",
          "ticks": 35840,
          "time": 55.95555099999999,
          "velocity": 0.4251968503937008
        },
        {
          "duration": 0.39473600000000175,
          "durationTicks": 256,
          "midi": 57,
          "name": "A3",
          "ticks": 35840,
          "time": 55.95555099999999,
          "velocity": 0.5511811023622047
        },
        {
          "duration": 0.39473600000000175,
          "durationTicks": 256,
          "midi": 62,
          "name": "D4",
          "ticks": 35840,
          "time": 55.95555099999999,
          "velocity": 0.5511811023622047
        },
        {
          "duration": 0.39473600000000175,
          "durationTicks": 256,
          "midi": 66,
          "name": "F#4",
          "ticks": 35840,
          "time": 55.95555099999999,
          "velocity": 0.5511811023622047
        },
        {
          "duration": 0.18657443749999914,
          "durationTicks": 121,
          "midi": 74,
          "name": "D5",
          "ticks": 35968,
          "time": 56.152919,
          "velocity": 0.49606299212598426
        },
        {
          "duration": 0.6028975624999973,
          "durationTicks": 391,
          "midi": 78,
          "name": "F#5",
          "ticks": 36096,
          "time": 56.350286999999994,
          "velocity": 0.7086614173228346
        },
        {
          "duration": 0.39473599999999465,
          "durationTicks": 256,
          "midi": 43,
          "name": "G2",
          "ticks": 36096,
          "time": 56.350286999999994,
          "velocity": 0.41732283464566927
        },
        {
          "duration": 0.39473600000000175,
          "durationTicks": 256,
          "midi": 55,
          "name": "G3",
          "ticks": 36352,
          "time": 56.74502299999999,
          "velocity": 0.6062992125984252
        },
        {
          "duration": 0.39473600000000175,
          "durationTicks": 256,
          "midi": 59,
          "name": "B3",
          "ticks": 36352,
          "time": 56.74502299999999,
          "velocity": 0.6062992125984252
        },
        {
          "duration": 0.39473600000000175,
          "durationTicks": 256,
          "midi": 64,
          "name": "E4",
          "ticks": 36352,
          "time": 56.74502299999999,
          "velocity": 0.6062992125984252
        },
        {
          "duration": 0.20045187499999884,
          "durationTicks": 130,
          "midi": 76,
          "name": "E5",
          "ticks": 36480,
          "time": 56.94239099999999,
          "velocity": 0.6771653543307087
        },
        {
          "duration": 0.20045187500000594,
          "durationTicks": 130,
          "midi": 90,
          "name": "F#6",
          "ticks": 36608,
          "time": 57.13975899999999,
          "velocity": 0.968503937007874
        },
        {
          "duration": 0.20045187499999884,
          "durationTicks": 130,
          "midi": 88,
          "name": "E6",
          "ticks": 36736,
          "time": 57.337126999999995,
          "velocity": 0.9448818897637795
        },
        {
          "duration": 0.20045187499999884,
          "durationTicks": 130,
          "midi": 86,
          "name": "D6",
          "ticks": 36864,
          "time": 57.53449499999999,
          "velocity": 0.7322834645669292
        },
        {
          "duration": 0.39473600000000175,
          "durationTicks": 256,
          "midi": 42,
          "name": "F#2",
          "ticks": 36864,
          "time": 57.53449499999999,
          "velocity": 0.6614173228346457
        },
        {
          "duration": 0.20045187499999884,
          "durationTicks": 130,
          "midi": 85,
          "name": "C#6",
          "ticks": 36992,
          "time": 57.73186299999999,
          "velocity": 0.7086614173228346
        },
        {
          "duration": 0.20045187499999884,
          "durationTicks": 130,
          "midi": 84,
          "name": "C6",
          "ticks": 37120,
          "time": 57.929230999999994,
          "velocity": 0.7244094488188977
        },
        {
          "duration": 0.39473600000000175,
          "durationTicks": 256,
          "midi": 54,
          "name": "F#3",
          "ticks": 37120,
          "time": 57.929230999999994,
          "velocity": 0.9763779527559056
        },
        {
          "duration": 0.39473600000000175,
          "durationTicks": 256,
          "midi": 64,
          "name": "E4",
          "ticks": 37120,
          "time": 57.929230999999994,
          "velocity": 0.9763779527559056
        },
        {
          "duration": 0.20045187500000594,
          "durationTicks": 130,
          "midi": 83,
          "name": "B5",
          "ticks": 37248,
          "time": 58.12659899999999,
          "velocity": 0.6456692913385826
        },
        {
          "duration": 0.20045187499999884,
          "durationTicks": 130,
          "midi": 82,
          "name": "A#5",
          "ticks": 37376,
          "time": 58.323966999999996,
          "velocity": 0.7086614173228346
        },
        {
          "duration": 0.39473599999999465,
          "durationTicks": 256,
          "midi": 46,
          "name": "A#2",
          "ticks": 37376,
          "time": 58.323966999999996,
          "velocity": 0.7559055118110236
        },
        {
          "duration": 0.20045187499999884,
          "durationTicks": 130,
          "midi": 81,
          "name": "A5",
          "ticks": 37504,
          "time": 58.52133499999999,
          "velocity": 0.7401574803149606
        },
        {
          "duration": 0.20045187499999884,
          "durationTicks": 130,
          "midi": 80,
          "name": "G#5",
          "ticks": 37632,
          "time": 58.71870299999999,
          "velocity": 0.6771653543307087
        },
        {
          "duration": 0.39473600000000175,
          "durationTicks": 256,
          "midi": 47,
          "name": "B2",
          "ticks": 37632,
          "time": 58.71870299999999,
          "velocity": 0.7401574803149606
        },
        {
          "duration": 0.20045187500000594,
          "durationTicks": 130,
          "midi": 79,
          "name": "G5",
          "ticks": 37760,
          "time": 58.91607099999999,
          "velocity": 0.6692913385826772
        },
        {
          "duration": 0.20045187499999884,
          "durationTicks": 130,
          "midi": 78,
          "name": "F#5",
          "ticks": 37888,
          "time": 59.11343899999999,
          "velocity": 0.5984251968503937
        },
        {
          "duration": 0.39473600000000175,
          "durationTicks": 256,
          "midi": 54,
          "name": "F#3",
          "ticks": 37888,
          "time": 59.11343899999999,
          "velocity": 0.8188976377952756
        },
        {
          "duration": 0.39473600000000175,
          "durationTicks": 256,
          "midi": 62,
          "name": "D4",
          "ticks": 37888,
          "time": 59.11343899999999,
          "velocity": 0.8188976377952756
        },
        {
          "duration": 0.20045187499999884,
          "durationTicks": 130,
          "midi": 73,
          "name": "C#5",
          "ticks": 38016,
          "time": 59.310807,
          "velocity": 0.4645669291338583
        },
        {
          "duration": 0.20045187499999884,
          "durationTicks": 130,
          "midi": 74,
          "name": "D5",
          "ticks": 38144,
          "time": 59.508174999999994,
          "velocity": 0.5511811023622047
        },
        {
          "duration": 0.39473599999999465,
          "durationTicks": 256,
          "midi": 54,
          "name": "F#3",
          "ticks": 38144,
          "time": 59.508174999999994,
          "velocity": 0.5196850393700787
        },
        {
          "duration": 0.39473599999999465,
          "durationTicks": 256,
          "midi": 62,
          "name": "D4",
          "ticks": 38144,
          "time": 59.508174999999994,
          "velocity": 0.5196850393700787
        },
        {
          "duration": 0.20045187499999884,
          "durationTicks": 130,
          "midi": 71,
          "name": "B4",
          "ticks": 38272,
          "time": 59.70554299999999,
          "velocity": 0.4566929133858268
        },
        {
          "duration": 0.37469081250000613,
          "durationTicks": 243,
          "midi": 70,
          "name": "A#4",
          "ticks": 38400,
          "time": 59.90291099999999,
          "velocity": 0.4645669291338583
        },
        {
          "duration": 0.39473600000000175,
          "durationTicks": 256,
          "midi": 49,
          "name": "C#3",
          "ticks": 38400,
          "time": 59.90291099999999,
          "velocity": 0.41732283464566927
        },
        {
          "duration": 0.39473600000000175,
          "durationTicks": 256,
          "midi": 54,
          "name": "F#3",
          "ticks": 38656,
          "time": 60.29764699999999,
          "velocity": 0.5669291338582677
        },
        {
          "duration": 0.39473600000000175,
          "durationTicks": 256,
          "midi": 61,
          "name": "C#4",
          "ticks": 38656,
          "time": 60.29764699999999,
          "velocity": 0.5669291338582677
        },
        {
          "duration": 0.39473600000000175,
          "durationTicks": 256,
          "midi": 64,
          "name": "E4",
          "ticks": 38656,
          "time": 60.29764699999999,
          "velocity": 0.5669291338582677
        },
        {
          "duration": 0.40244568749999843,
          "durationTicks": 261,
          "midi": 81,
          "name": "A5",
          "ticks": 38912,
          "time": 60.69238299999999,
          "velocity": 0.7637795275590551
        },
        {
          "duration": 0.39473600000000175,
          "durationTicks": 256,
          "midi": 54,
          "name": "F#3",
          "ticks": 38912,
          "time": 60.69238299999999,
          "velocity": 0.4881889763779528
        },
        {
          "duration": 0.39473600000000175,
          "durationTicks": 256,
          "midi": 61,
          "name": "C#4",
          "ticks": 38912,
          "time": 60.69238299999999,
          "velocity": 0.4881889763779528
        },
        {
          "duration": 0.39473600000000175,
          "durationTicks": 256,
          "midi": 64,
          "name": "E4",
          "ticks": 38912,
          "time": 60.69238299999999,
          "velocity": 0.4881889763779528
        },
        {
          "duration": 0.20045187499999884,
          "durationTicks": 130,
          "midi": 80,
          "name": "G#5",
          "ticks": 39168,
          "time": 61.087118999999994,
          "velocity": 0.4409448818897638
        },
        {
          "duration": 0.39473600000000175,
          "durationTicks": 256,
          "midi": 46,
          "name": "A#2",
          "ticks": 39168,
          "time": 61.087118999999994,
          "velocity": 0.4566929133858268
        },
        {
          "duration": 0.20045187500000594,
          "durationTicks": 130,
          "midi": 79,
          "name": "G5",
          "ticks": 39296,
          "time": 61.28448699999999,
          "velocity": 0.4094488188976378
        },
        {
          "duration": 0.20045187499999884,
          "durationTicks": 130,
          "midi": 78,
          "name": "F#5",
          "ticks": 39424,
          "time": 61.481854999999996,
          "velocity": 0.4566929133858268
        },
        {
          "duration": 0.39473599999999465,
          "durationTicks": 256,
          "midi": 54,
          "name": "F#3",
          "ticks": 39424,
          "time": 61.481854999999996,
          "velocity": 0.6141732283464567
        },
        {
          "duration": 0.39473599999999465,
          "durationTicks": 256,
          "midi": 61,
          "name": "C#4",
          "ticks": 39424,
          "time": 61.481854999999996,
          "velocity": 0.6141732283464567
        },
        {
          "duration": 0.39473599999999465,
          "durationTicks": 256,
          "midi": 64,
          "name": "E4",
          "ticks": 39424,
          "time": 61.481854999999996,
          "velocity": 0.6141732283464567
        },
        {
          "duration": 0.20045187499999884,
          "durationTicks": 130,
          "midi": 73,
          "name": "C#5",
          "ticks": 39552,
          "time": 61.67922299999999,
          "velocity": 0.3937007874015748
        },
        {
          "duration": 0.20045187499999884,
          "durationTicks": 130,
          "midi": 76,
          "name": "E5",
          "ticks": 39680,
          "time": 61.87659099999999,
          "velocity": 0.5669291338582677
        },
        {
          "duration": 0.39473600000000175,
          "durationTicks": 256,
          "midi": 54,
          "name": "F#3",
          "ticks": 39680,
          "time": 61.87659099999999,
          "velocity": 0.5196850393700787
        },
        {
          "duration": 0.39473600000000175,
          "durationTicks": 256,
          "midi": 61,
          "name": "C#4",
          "ticks": 39680,
          "time": 61.87659099999999,
          "velocity": 0.5196850393700787
        },
        {
          "duration": 0.39473600000000175,
          "durationTicks": 256,
          "midi": 64,
          "name": "E4",
          "ticks": 39680,
          "time": 61.87659099999999,
          "velocity": 0.5196850393700787
        },
        {
          "duration": 0.20045187500000594,
          "durationTicks": 130,
          "midi": 74,
          "name": "D5",
          "ticks": 39808,
          "time": 62.07395899999999,
          "velocity": 0.5433070866141733
        },
        {
          "duration": 0.374690812499999,
          "durationTicks": 243,
          "midi": 71,
          "name": "B4",
          "ticks": 39936,
          "time": 62.27132699999999,
          "velocity": 0.44881889763779526
        },
        {
          "duration": 0.39473600000000175,
          "durationTicks": 256,
          "midi": 47,
          "name": "B2",
          "ticks": 39936,
          "time": 62.27132699999999,
          "velocity": 0.4251968503937008
        },
        {
          "duration": 0.39473599999999465,
          "durationTicks": 256,
          "midi": 54,
          "name": "F#3",
          "ticks": 40192,
          "time": 62.666062999999994,
          "velocity": 0.5748031496062992
        },
        {
          "duration": 0.39473599999999465,
          "durationTicks": 256,
          "midi": 59,
          "name": "B3",
          "ticks": 40192,
          "time": 62.666062999999994,
          "velocity": 0.5748031496062992
        },
        {
          "duration": 0.39473599999999465,
          "durationTicks": 256,
          "midi": 62,
          "name": "D4",
          "ticks": 40192,
          "time": 62.666062999999994,
          "velocity": 0.5748031496062992
        },
        {
          "duration": 0.40244568750000553,
          "durationTicks": 261,
          "midi": 81,
          "name": "A5",
          "ticks": 40448,
          "time": 63.06079899999999,
          "velocity": 0.7795275590551181
        },
        {
          "duration": 0.39473600000000175,
          "durationTicks": 256,
          "midi": 54,
          "name": "F#3",
          "ticks": 40448,
          "time": 63.06079899999999,
          "velocity": 0.5039370078740157
        },
        {
          "duration": 0.39473600000000175,
          "durationTicks": 256,
          "midi": 59,
          "name": "B3",
          "ticks": 40448,
          "time": 63.06079899999999,
          "velocity": 0.5039370078740157
        },
        {
          "duration": 0.39473600000000175,
          "durationTicks": 256,
          "midi": 62,
          "name": "D4",
          "ticks": 40448,
          "time": 63.06079899999999,
          "velocity": 0.5039370078740157
        },
        {
          "duration": 0.20045187500000594,
          "durationTicks": 130,
          "midi": 80,
          "name": "G#5",
          "ticks": 40704,
          "time": 63.45553499999999,
          "velocity": 0.4645669291338583
        },
        {
          "duration": 0.39473600000000175,
          "durationTicks": 256,
          "midi": 47,
          "name": "B2",
          "ticks": 40704,
          "time": 63.45553499999999,
          "velocity": 0.4409448818897638
        },
        {
          "duration": 0.20045187499999884,
          "durationTicks": 130,
          "midi": 79,
          "name": "G5",
          "ticks": 40832,
          "time": 63.652902999999995,
          "velocity": 0.47244094488188976
        },
        {
          "duration": 0.20045187499999884,
          "durationTicks": 130,
          "midi": 77,
          "name": "F5",
          "ticks": 40960,
          "time": 63.85027099999999,
          "velocity": 0.47244094488188976
        },
        {
          "duration": 0.39473599999999465,
          "durationTicks": 256,
          "midi": 54,
          "name": "F#3",
          "ticks": 40960,
          "time": 63.85027099999999,
          "velocity": 0.5905511811023622
        },
        {
          "duration": 0.39473599999999465,
          "durationTicks": 256,
          "midi": 59,
          "name": "B3",
          "ticks": 40960,
          "time": 63.85027099999999,
          "velocity": 0.5905511811023622
        },
        {
          "duration": 0.39473599999999465,
          "durationTicks": 256,
          "midi": 62,
          "name": "D4",
          "ticks": 40960,
          "time": 63.85027099999999,
          "velocity": 0.5905511811023622
        },
        {
          "duration": 0.20045187499999884,
          "durationTicks": 130,
          "midi": 78,
          "name": "F#5",
          "ticks": 41088,
          "time": 64.04763899999999,
          "velocity": 0.5511811023622047
        },
        {
          "duration": 0.20045187499999884,
          "durationTicks": 130,
          "midi": 83,
          "name": "B5",
          "ticks": 41216,
          "time": 64.24500699999999,
          "velocity": 0.6062992125984252
        },
        {
          "duration": 0.39473600000000886,
          "durationTicks": 256,
          "midi": 54,
          "name": "F#3",
          "ticks": 41216,
          "time": 64.24500699999999,
          "velocity": 0.5354330708661418
        },
        {
          "duration": 0.39473600000000886,
          "durationTicks": 256,
          "midi": 59,
          "name": "B3",
          "ticks": 41216,
          "time": 64.24500699999999,
          "velocity": 0.5354330708661418
        },
        {
          "duration": 0.39473600000000886,
          "durationTicks": 256,
          "midi": 62,
          "name": "D4",
          "ticks": 41216,
          "time": 64.24500699999999,
          "velocity": 0.5354330708661418
        },
        {
          "duration": 0.19736799999999732,
          "durationTicks": 128,
          "midi": 86,
          "name": "D6",
          "ticks": 41344,
          "time": 64.442375,
          "velocity": 0.6062992125984252
        },
        {
          "duration": 0.3746908124999919,
          "durationTicks": 243,
          "midi": 86,
          "name": "D6",
          "ticks": 41472,
          "time": 64.639743,
          "velocity": 0.5590551181102362
        },
        {
          "duration": 0.39473599999999465,
          "durationTicks": 256,
          "midi": 47,
          "name": "B2",
          "ticks": 41472,
          "time": 64.639743,
          "velocity": 0.49606299212598426
        },
        {
          "duration": 0.39473600000000886,
          "durationTicks": 256,
          "midi": 77,
          "name": "F5",
          "ticks": 41728,
          "time": 65.03447899999999,
          "velocity": 0.48031496062992124
        },
        {
          "duration": 0.39473600000000886,
          "durationTicks": 256,
          "midi": 56,
          "name": "G#3",
          "ticks": 41728,
          "time": 65.03447899999999,
          "velocity": 0.7322834645669292
        },
        {
          "duration": 0.39473600000000886,
          "durationTicks": 256,
          "midi": 59,
          "name": "B3",
          "ticks": 41728,
          "time": 65.03447899999999,
          "velocity": 0.7322834645669292
        },
        {
          "duration": 0.39473600000000886,
          "durationTicks": 256,
          "midi": 62,
          "name": "D4",
          "ticks": 41728,
          "time": 65.03447899999999,
          "velocity": 0.7322834645669292
        },
        {
          "duration": 0.7894719999999893,
          "durationTicks": 512,
          "midi": 86,
          "name": "D6",
          "ticks": 41984,
          "time": 65.429215,
          "velocity": 0.8110236220472441
        },
        {
          "duration": 0.39473599999999465,
          "durationTicks": 256,
          "midi": 56,
          "name": "G#3",
          "ticks": 41984,
          "time": 65.429215,
          "velocity": 0.5984251968503937
        },
        {
          "duration": 0.39473599999999465,
          "durationTicks": 256,
          "midi": 59,
          "name": "B3",
          "ticks": 41984,
          "time": 65.429215,
          "velocity": 0.5984251968503937
        },
        {
          "duration": 0.39473599999999465,
          "durationTicks": 256,
          "midi": 62,
          "name": "D4",
          "ticks": 41984,
          "time": 65.429215,
          "velocity": 0.5984251968503937
        },
        {
          "duration": 0.39473599999999465,
          "durationTicks": 256,
          "midi": 47,
          "name": "B2",
          "ticks": 42240,
          "time": 65.823951,
          "velocity": 0.4566929133858268
        },
        {
          "duration": 0.39473599999999465,
          "durationTicks": 256,
          "midi": 76,
          "name": "E5",
          "ticks": 42496,
          "time": 66.21868699999999,
          "velocity": 0.4330708661417323
        },
        {
          "duration": 0.39473599999999465,
          "durationTicks": 256,
          "midi": 55,
          "name": "G3",
          "ticks": 42496,
          "time": 66.21868699999999,
          "velocity": 0.7244094488188977
        },
        {
          "duration": 0.39473599999999465,
          "durationTicks": 256,
          "midi": 59,
          "name": "B3",
          "ticks": 42496,
          "time": 66.21868699999999,
          "velocity": 0.7244094488188977
        },
        {
          "duration": 0.39473599999999465,
          "durationTicks": 256,
          "midi": 64,
          "name": "E4",
          "ticks": 42496,
          "time": 66.21868699999999,
          "velocity": 0.7244094488188977
        },
        {
          "duration": 0.40244568750000553,
          "durationTicks": 261,
          "midi": 85,
          "name": "C#6",
          "ticks": 42752,
          "time": 66.61342299999998,
          "velocity": 0.8582677165354331
        },
        {
          "duration": 0.39473600000000886,
          "durationTicks": 256,
          "midi": 55,
          "name": "G3",
          "ticks": 42752,
          "time": 66.61342299999998,
          "velocity": 0.6141732283464567
        },
        {
          "duration": 0.39473600000000886,
          "durationTicks": 256,
          "midi": 59,
          "name": "B3",
          "ticks": 42752,
          "time": 66.61342299999998,
          "velocity": 0.6141732283464567
        },
        {
          "duration": 0.39473600000000886,
          "durationTicks": 256,
          "midi": 64,
          "name": "E4",
          "ticks": 42752,
          "time": 66.61342299999998,
          "velocity": 0.6141732283464567
        },
        {
          "duration": 0.20045187499999884,
          "durationTicks": 130,
          "midi": 84,
          "name": "C6",
          "ticks": 43008,
          "time": 67.00815899999999,
          "velocity": 0.8346456692913385
        },
        {
          "duration": 0.39473600000000886,
          "durationTicks": 256,
          "midi": 47,
          "name": "B2",
          "ticks": 43008,
          "time": 67.00815899999999,
          "velocity": 0.5196850393700787
        },
        {
          "duration": 0.20045187499999884,
          "durationTicks": 130,
          "midi": 83,
          "name": "B5",
          "ticks": 43136,
          "time": 67.20552699999999,
          "velocity": 0.5275590551181102
        },
        {
          "duration": 0.20045187499999884,
          "durationTicks": 130,
          "midi": 82,
          "name": "A#5",
          "ticks": 43264,
          "time": 67.402895,
          "velocity": 0.5039370078740157
        },
        {
          "duration": 0.39473599999999465,
          "durationTicks": 256,
          "midi": 54,
          "name": "F#3",
          "ticks": 43264,
          "time": 67.402895,
          "velocity": 0.7086614173228346
        },
        {
          "duration": 0.39473599999999465,
          "durationTicks": 256,
          "midi": 58,
          "name": "A#3",
          "ticks": 43264,
          "time": 67.402895,
          "velocity": 0.7086614173228346
        },
        {
          "duration": 0.39473599999999465,
          "durationTicks": 256,
          "midi": 64,
          "name": "E4",
          "ticks": 43264,
          "time": 67.402895,
          "velocity": 0.7086614173228346
        },
        {
          "duration": 0.20045187500001305,
          "durationTicks": 130,
          "midi": 81,
          "name": "A5",
          "ticks": 43392,
          "time": 67.60026299999998,
          "velocity": 0.4881889763779528
        },
        {
          "duration": 0.20045187499999884,
          "durationTicks": 130,
          "midi": 80,
          "name": "G#5",
          "ticks": 43520,
          "time": 67.797631,
          "velocity": 0.5196850393700787
        },
        {
          "duration": 0.39473599999999465,
          "durationTicks": 256,
          "midi": 54,
          "name": "F#3",
          "ticks": 43520,
          "time": 67.797631,
          "velocity": 0.5511811023622047
        },
        {
          "duration": 0.39473599999999465,
          "durationTicks": 256,
          "midi": 58,
          "name": "A#3",
          "ticks": 43520,
          "time": 67.797631,
          "velocity": 0.5511811023622047
        },
        {
          "duration": 0.39473599999999465,
          "durationTicks": 256,
          "midi": 64,
          "name": "E4",
          "ticks": 43520,
          "time": 67.797631,
          "velocity": 0.5511811023622047
        },
        {
          "duration": 0.20045187499999884,
          "durationTicks": 130,
          "midi": 79,
          "name": "G5",
          "ticks": 43648,
          "time": 67.99499899999999,
          "velocity": 0.5039370078740157
        },
        {
          "duration": 0.20045187499999884,
          "durationTicks": 130,
          "midi": 78,
          "name": "F#5",
          "ticks": 43776,
          "time": 68.19236699999999,
          "velocity": 0.5196850393700787
        },
        {
          "duration": 0.39473599999999465,
          "durationTicks": 256,
          "midi": 47,
          "name": "B2",
          "ticks": 43776,
          "time": 68.19236699999999,
          "velocity": 0.49606299212598426
        },
        {
          "duration": 0.20045187500001305,
          "durationTicks": 130,
          "midi": 77,
          "name": "F5",
          "ticks": 43904,
          "time": 68.38973499999999,
          "velocity": 0.5196850393700787
        },
        {
          "duration": 0.20045187499999884,
          "durationTicks": 130,
          "midi": 76,
          "name": "E5",
          "ticks": 44032,
          "time": 68.58710299999998,
          "velocity": 0.4881889763779528
        },
        {
          "duration": 0.39473600000000886,
          "durationTicks": 256,
          "midi": 54,
          "name": "F#3",
          "ticks": 44032,
          "time": 68.58710299999998,
          "velocity": 0.6614173228346457
        },
        {
          "duration": 0.39473600000000886,
          "durationTicks": 256,
          "midi": 59,
          "name": "B3",
          "ticks": 44032,
          "time": 68.58710299999998,
          "velocity": 0.6614173228346457
        },
        {
          "duration": 0.39473600000000886,
          "durationTicks": 256,
          "midi": 62,
          "name": "D4",
          "ticks": 44032,
          "time": 68.58710299999998,
          "velocity": 0.6614173228346457
        },
        {
          "duration": 0.20045187499999884,
          "durationTicks": 130,
          "midi": 74,
          "name": "D5",
          "ticks": 44160,
          "time": 68.784471,
          "velocity": 0.47244094488188976
        },
        {
          "duration": 0.20045187499999884,
          "durationTicks": 130,
          "midi": 73,
          "name": "C#5",
          "ticks": 44288,
          "time": 68.981839,
          "velocity": 0.48031496062992124
        },
        {
          "duration": 0.39473599999999465,
          "durationTicks": 256,
          "midi": 54,
          "name": "F#3",
          "ticks": 44288,
          "time": 68.981839,
          "velocity": 0.5275590551181102
        },
        {
          "duration": 0.39473599999999465,
          "durationTicks": 256,
          "midi": 59,
          "name": "B3",
          "ticks": 44288,
          "time": 68.981839,
          "velocity": 0.5275590551181102
        },
        {
          "duration": 0.39473599999999465,
          "durationTicks": 256,
          "midi": 62,
          "name": "D4",
          "ticks": 44288,
          "time": 68.981839,
          "velocity": 0.5275590551181102
        },
        {
          "duration": 0.20045187499999884,
          "durationTicks": 130,
          "midi": 71,
          "name": "B4",
          "ticks": 44416,
          "time": 69.17920699999999,
          "velocity": 0.4566929133858268
        },
        {
          "duration": 0.749381624999998,
          "durationTicks": 486,
          "midi": 70,
          "name": "A#4",
          "ticks": 44544,
          "time": 69.37657499999999,
          "velocity": 0.4015748031496063
        },
        {
          "duration": 0.39473600000000886,
          "durationTicks": 256,
          "midi": 49,
          "name": "C#3",
          "ticks": 44544,
          "time": 69.37657499999999,
          "velocity": 0.4015748031496063
        },
        {
          "duration": 0.39473599999999465,
          "durationTicks": 256,
          "midi": 54,
          "name": "F#3",
          "ticks": 44800,
          "time": 69.771311,
          "velocity": 0.5826771653543307
        },
        {
          "duration": 0.39473599999999465,
          "durationTicks": 256,
          "midi": 58,
          "name": "A#3",
          "ticks": 44800,
          "time": 69.771311,
          "velocity": 0.5826771653543307
        },
        {
          "duration": 0.39473599999999465,
          "durationTicks": 256,
          "midi": 64,
          "name": "E4",
          "ticks": 44800,
          "time": 69.771311,
          "velocity": 0.5826771653543307
        },
        {
          "duration": 0.40244568750000553,
          "durationTicks": 261,
          "midi": 79,
          "name": "G5",
          "ticks": 45056,
          "time": 70.16604699999999,
          "velocity": 0.6929133858267716
        },
        {
          "duration": 0.39473599999999465,
          "durationTicks": 256,
          "midi": 54,
          "name": "F#3",
          "ticks": 45056,
          "time": 70.16604699999999,
          "velocity": 0.4881889763779528
        },
        {
          "duration": 0.39473599999999465,
          "durationTicks": 256,
          "midi": 58,
          "name": "A#3",
          "ticks": 45056,
          "time": 70.16604699999999,
          "velocity": 0.4881889763779528
        },
        {
          "duration": 0.39473599999999465,
          "durationTicks": 256,
          "midi": 64,
          "name": "E4",
          "ticks": 45056,
          "time": 70.16604699999999,
          "velocity": 0.4881889763779528
        },
        {
          "duration": 0.20045187499999884,
          "durationTicks": 130,
          "midi": 78,
          "name": "F#5",
          "ticks": 45312,
          "time": 70.56078299999999,
          "velocity": 0.5511811023622047
        },
        {
          "duration": 0.39473600000000886,
          "durationTicks": 256,
          "midi": 46,
          "name": "A#2",
          "ticks": 45312,
          "time": 70.56078299999999,
          "velocity": 0.47244094488188976
        },
        {
          "duration": 0.20045187499999884,
          "durationTicks": 130,
          "midi": 79,
          "name": "G5",
          "ticks": 45440,
          "time": 70.758151,
          "velocity": 0.5590551181102362
        },
        {
          "duration": 0.20045187499999884,
          "durationTicks": 130,
          "midi": 78,
          "name": "F#5",
          "ticks": 45568,
          "time": 70.955519,
          "velocity": 0.5590551181102362
        },
        {
          "duration": 0.39473599999999465,
          "durationTicks": 256,
          "midi": 54,
          "name": "F#3",
          "ticks": 45568,
          "time": 70.955519,
          "velocity": 0.7322834645669292
        },
        {
          "duration": 0.39473599999999465,
          "durationTicks": 256,
          "midi": 61,
          "name": "C#4",
          "ticks": 45568,
          "time": 70.955519,
          "velocity": 0.7322834645669292
        },
        {
          "duration": 0.39473599999999465,
          "durationTicks": 256,
          "midi": 64,
          "name": "E4",
          "ticks": 45568,
          "time": 70.955519,
          "velocity": 0.7322834645669292
        },
        {
          "duration": 0.20045187499999884,
          "durationTicks": 130,
          "midi": 73,
          "name": "C#5",
          "ticks": 45696,
          "time": 71.15288699999999,
          "velocity": 0.5039370078740157
        },
        {
          "duration": 0.20045187499999884,
          "durationTicks": 130,
          "midi": 76,
          "name": "E5",
          "ticks": 45824,
          "time": 71.35025499999999,
          "velocity": 0.6220472440944882
        },
        {
          "duration": 0.39473600000000886,
          "durationTicks": 256,
          "midi": 54,
          "name": "F#3",
          "ticks": 45824,
          "time": 71.35025499999999,
          "velocity": 0.6141732283464567
        },
        {
          "duration": 0.39473600000000886,
          "durationTicks": 256,
          "midi": 61,
          "name": "C#4",
          "ticks": 45824,
          "time": 71.35025499999999,
          "velocity": 0.6141732283464567
        },
        {
          "duration": 0.39473600000000886,
          "durationTicks": 256,
          "midi": 64,
          "name": "E4",
          "ticks": 45824,
          "time": 71.35025499999999,
          "velocity": 0.6141732283464567
        },
        {
          "duration": 0.20045187499999884,
          "durationTicks": 130,
          "midi": 74,
          "name": "D5",
          "ticks": 45952,
          "time": 71.54762299999999,
          "velocity": 0.6062992125984252
        },
        {
          "duration": 0.7493816249999838,
          "durationTicks": 486,
          "midi": 71,
          "name": "B4",
          "ticks": 46080,
          "time": 71.744991,
          "velocity": 0.5590551181102362
        },
        {
          "duration": 0.39473599999999465,
          "durationTicks": 256,
          "midi": 47,
          "name": "B2",
          "ticks": 46080,
          "time": 71.744991,
          "velocity": 0.5511811023622047
        },
        {
          "duration": 0.39473599999999465,
          "durationTicks": 256,
          "midi": 54,
          "name": "F#3",
          "ticks": 46336,
          "time": 72.139727,
          "velocity": 0.8661417322834646
        },
        {
          "duration": 0.39473599999999465,
          "durationTicks": 256,
          "midi": 59,
          "name": "B3",
          "ticks": 46336,
          "time": 72.139727,
          "velocity": 0.8661417322834646
        },
        {
          "duration": 0.39473599999999465,
          "durationTicks": 256,
          "midi": 62,
          "name": "D4",
          "ticks": 46336,
          "time": 72.139727,
          "velocity": 0.8661417322834646
        },
        {
          "duration": 0.40244568750000553,
          "durationTicks": 261,
          "midi": 78,
          "name": "F#5",
          "ticks": 46592,
          "time": 72.53446299999999,
          "velocity": 0.8346456692913385
        },
        {
          "duration": 0.39473599999999465,
          "durationTicks": 256,
          "midi": 54,
          "name": "F#3",
          "ticks": 46592,
          "time": 72.53446299999999,
          "velocity": 0.7559055118110236
        },
        {
          "duration": 0.39473599999999465,
          "durationTicks": 256,
          "midi": 59,
          "name": "B3",
          "ticks": 46592,
          "time": 72.53446299999999,
          "velocity": 0.7559055118110236
        },
        {
          "duration": 0.39473599999999465,
          "durationTicks": 256,
          "midi": 62,
          "name": "D4",
          "ticks": 46592,
          "time": 72.53446299999999,
          "velocity": 0.7559055118110236
        },
        {
          "duration": 0.20045187499999884,
          "durationTicks": 130,
          "midi": 90,
          "name": "F#6",
          "ticks": 46848,
          "time": 72.92919899999998,
          "velocity": 1
        },
        {
          "duration": 0.37469081250000613,
          "durationTicks": 243,
          "midi": 50,
          "name": "D3",
          "ticks": 46848,
          "time": 72.92919899999998,
          "velocity": 0.6456692913385826
        },
        {
          "duration": 0.20045187499999884,
          "durationTicks": 130,
          "midi": 85,
          "name": "C#6",
          "ticks": 46976,
          "time": 73.126567,
          "velocity": 0.9448818897637795
        },
        {
          "duration": 0.20045187499999884,
          "durationTicks": 130,
          "midi": 86,
          "name": "D6",
          "ticks": 47104,
          "time": 73.32393499999999,
          "velocity": 0.7874015748031497
        },
        {
          "duration": 0.39473600000000886,
          "durationTicks": 256,
          "midi": 54,
          "name": "F#3",
          "ticks": 47104,
          "time": 73.32393499999999,
          "velocity": 1
        },
        {
          "duration": 0.39473600000000886,
          "durationTicks": 256,
          "midi": 59,
          "name": "B3",
          "ticks": 47104,
          "time": 73.32393499999999,
          "velocity": 1
        },
        {
          "duration": 0.39473600000000886,
          "durationTicks": 256,
          "midi": 62,
          "name": "D4",
          "ticks": 47104,
          "time": 73.32393499999999,
          "velocity": 1
        },
        {
          "duration": 0.20045187499999884,
          "durationTicks": 130,
          "midi": 82,
          "name": "A#5",
          "ticks": 47232,
          "time": 73.52130299999999,
          "velocity": 0.7086614173228346
        },
        {
          "duration": 0.20045187499999884,
          "durationTicks": 130,
          "midi": 83,
          "name": "B5",
          "ticks": 47360,
          "time": 73.718671,
          "velocity": 0.7952755905511811
        },
        {
          "duration": 0.39473599999999465,
          "durationTicks": 256,
          "midi": 54,
          "name": "F#3",
          "ticks": 47360,
          "time": 73.718671,
          "velocity": 0.7795275590551181
        },
        {
          "duration": 0.39473599999999465,
          "durationTicks": 256,
          "midi": 59,
          "name": "B3",
          "ticks": 47360,
          "time": 73.718671,
          "velocity": 0.7795275590551181
        },
        {
          "duration": 0.39473599999999465,
          "durationTicks": 256,
          "midi": 62,
          "name": "D4",
          "ticks": 47360,
          "time": 73.718671,
          "velocity": 0.7795275590551181
        },
        {
          "duration": 0.18657443750001335,
          "durationTicks": 121,
          "midi": 78,
          "name": "F#5",
          "ticks": 47488,
          "time": 73.91603899999998,
          "velocity": 0.6929133858267716
        },
        {
          "duration": 0.20045187499999884,
          "durationTicks": 130,
          "midi": 81,
          "name": "A5",
          "ticks": 47616,
          "time": 74.113407,
          "velocity": 0.7874015748031497
        },
        {
          "duration": 0.37469081250000613,
          "durationTicks": 243,
          "midi": 52,
          "name": "E3",
          "ticks": 47616,
          "time": 74.113407,
          "velocity": 0.6850393700787402
        },
        {
          "duration": 0.20045187499999884,
          "durationTicks": 130,
          "midi": 79,
          "name": "G5",
          "ticks": 47744,
          "time": 74.31077499999999,
          "velocity": 0.7165354330708661
        },
        {
          "duration": 0.20045187499999884,
          "durationTicks": 130,
          "midi": 71,
          "name": "B4",
          "ticks": 47872,
          "time": 74.50814299999999,
          "velocity": 0.5669291338582677
        },
        {
          "duration": 0.39473599999999465,
          "durationTicks": 256,
          "midi": 55,
          "name": "G3",
          "ticks": 47872,
          "time": 74.50814299999999,
          "velocity": 0.8740157480314961
        },
        {
          "duration": 0.39473599999999465,
          "durationTicks": 256,
          "midi": 61,
          "name": "C#4",
          "ticks": 47872,
          "time": 74.50814299999999,
          "velocity": 0.8740157480314961
        },
        {
          "duration": 0.20045187499999884,
          "durationTicks": 130,
          "midi": 73,
          "name": "C#5",
          "ticks": 48000,
          "time": 74.705511,
          "velocity": 0.7244094488188977
        },
        {
          "duration": 0.20045187499999884,
          "durationTicks": 130,
          "midi": 76,
          "name": "E5",
          "ticks": 48128,
          "time": 74.90287899999998,
          "velocity": 0.7244094488188977
        },
        {
          "duration": 0.18657443749998492,
          "durationTicks": 121,
          "midi": 79,
          "name": "G5",
          "ticks": 48256,
          "time": 75.100247,
          "velocity": 0.7086614173228346
        },
        {
          "duration": 0.20045187499999884,
          "durationTicks": 130,
          "midi": 79,
          "name": "G5",
          "ticks": 48384,
          "time": 75.297615,
          "velocity": 0.6062992125984252
        },
        {
          "duration": 1.1842079999999982,
          "durationTicks": 768,
          "midi": 54,
          "name": "F#3",
          "ticks": 48384,
          "time": 75.297615,
          "velocity": 0.5826771653543307
        },
        {
          "duration": 0.20045187499999884,
          "durationTicks": 130,
          "midi": 78,
          "name": "F#5",
          "ticks": 48512,
          "time": 75.49498299999999,
          "velocity": 0.5905511811023622
        },
        {
          "duration": 0.20045187500001305,
          "durationTicks": 130,
          "midi": 71,
          "name": "B4",
          "ticks": 48640,
          "time": 75.69235099999999,
          "velocity": 0.44881889763779526
        },
        {
          "duration": 0.39473600000000886,
          "durationTicks": 256,
          "midi": 59,
          "name": "B3",
          "ticks": 48640,
          "time": 75.69235099999999,
          "velocity": 0.6692913385826772
        },
        {
          "duration": 0.39473600000000886,
          "durationTicks": 256,
          "midi": 62,
          "name": "D4",
          "ticks": 48640,
          "time": 75.69235099999999,
          "velocity": 0.6692913385826772
        },
        {
          "duration": 0.20045187499999884,
          "durationTicks": 130,
          "midi": 74,
          "name": "D5",
          "ticks": 48768,
          "time": 75.88971899999999,
          "velocity": 0.5984251968503937
        },
        {
          "duration": 0.20045187499999884,
          "durationTicks": 130,
          "midi": 73,
          "name": "C#5",
          "ticks": 48896,
          "time": 76.087087,
          "velocity": 0.49606299212598426
        },
        {
          "duration": 0.39473599999999465,
          "durationTicks": 256,
          "midi": 58,
          "name": "A#3",
          "ticks": 48896,
          "time": 76.087087,
          "velocity": 0.8031496062992126
        },
        {
          "duration": 0.39473599999999465,
          "durationTicks": 256,
          "midi": 64,
          "name": "E4",
          "ticks": 48896,
          "time": 76.087087,
          "velocity": 0.8031496062992126
        },
        {
          "duration": 0.20045187499999884,
          "durationTicks": 130,
          "midi": 66,
          "name": "F#4",
          "ticks": 49024,
          "time": 76.284455,
          "velocity": 0.3700787401574803
        },
        {
          "duration": 0.5612652499999911,
          "durationTicks": 364,
          "midi": 71,
          "name": "B4",
          "ticks": 49152,
          "time": 76.48182299999999,
          "velocity": 0.5196850393700787
        },
        {
          "duration": 0.39473599999999465,
          "durationTicks": 256,
          "midi": 47,
          "name": "B2",
          "ticks": 49152,
          "time": 76.48182299999999,
          "velocity": 0.47244094488188976
        },
        {
          "duration": 0.39473600000000886,
          "durationTicks": 256,
          "midi": 54,
          "name": "F#3",
          "ticks": 49408,
          "time": 76.87655899999999,
          "velocity": 0.5984251968503937
        },
        {
          "duration": 0.39473600000000886,
          "durationTicks": 256,
          "midi": 62,
          "name": "D4",
          "ticks": 49408,
          "time": 76.87655899999999,
          "velocity": 0.5984251968503937
        },
        {
          "duration": 0.20045187499999884,
          "durationTicks": 130,
          "midi": 66,
          "name": "F#4",
          "ticks": 49536,
          "time": 77.073927,
          "velocity": 0.4566929133858268
        },
        {
          "duration": 0.20045187499999884,
          "durationTicks": 130,
          "midi": 71,
          "name": "B4",
          "ticks": 49664,
          "time": 77.271295,
          "velocity": 0.5196850393700787
        },
        {
          "duration": 0.4024456874999913,
          "durationTicks": 261,
          "midi": 50,
          "name": "D3",
          "ticks": 49664,
          "time": 77.271295,
          "velocity": 0.4094488188976378
        },
        {
          "duration": 0.18657443749999914,
          "durationTicks": 121,
          "midi": 70,
          "name": "A#4",
          "ticks": 49792,
          "time": 77.46866299999999,
          "velocity": 0.4645669291338583
        },
        {
          "duration": 0.6028975625000044,
          "durationTicks": 391,
          "midi": 70,
          "name": "A#4",
          "ticks": 49920,
          "time": 77.66603099999999,
          "velocity": 0.47244094488188976
        },
        {
          "duration": 0.3746908124999919,
          "durationTicks": 243,
          "midi": 49,
          "name": "C#3",
          "ticks": 49920,
          "time": 77.66603099999999,
          "velocity": 0.33858267716535434
        },
        {
          "duration": 0.39473599999999465,
          "durationTicks": 256,
          "midi": 55,
          "name": "G3",
          "ticks": 50176,
          "time": 78.060767,
          "velocity": 0.6062992125984252
        },
        {
          "duration": 0.39473599999999465,
          "durationTicks": 256,
          "midi": 57,
          "name": "A3",
          "ticks": 50176,
          "time": 78.060767,
          "velocity": 0.6062992125984252
        },
        {
          "duration": 0.39473599999999465,
          "durationTicks": 256,
          "midi": 64,
          "name": "E4",
          "ticks": 50176,
          "time": 78.060767,
          "velocity": 0.6062992125984252
        },
        {
          "duration": 0.20045187500001305,
          "durationTicks": 130,
          "midi": 69,
          "name": "A4",
          "ticks": 50304,
          "time": 78.25813499999998,
          "velocity": 0.4645669291338583
        },
        {
          "duration": 0.20045187499999884,
          "durationTicks": 130,
          "midi": 73,
          "name": "C#5",
          "ticks": 50432,
          "time": 78.455503,
          "velocity": 0.5433070866141733
        },
        {
          "duration": 0.39473599999999465,
          "durationTicks": 256,
          "midi": 55,
          "name": "G3",
          "ticks": 50432,
          "time": 78.455503,
          "velocity": 0.5748031496062992
        },
        {
          "duration": 0.39473599999999465,
          "durationTicks": 256,
          "midi": 57,
          "name": "A3",
          "ticks": 50432,
          "time": 78.455503,
          "velocity": 0.5748031496062992
        },
        {
          "duration": 0.39473599999999465,
          "durationTicks": 256,
          "midi": 64,
          "name": "E4",
          "ticks": 50432,
          "time": 78.455503,
          "velocity": 0.5748031496062992
        },
        {
          "duration": 0.18657443749999914,
          "durationTicks": 121,
          "midi": 76,
          "name": "E5",
          "ticks": 50560,
          "time": 78.65287099999999,
          "velocity": 0.5748031496062992
        },
        {
          "duration": 0.6028975625000044,
          "durationTicks": 391,
          "midi": 79,
          "name": "G5",
          "ticks": 50688,
          "time": 78.85023899999999,
          "velocity": 0.6062992125984252
        },
        {
          "duration": 0.39473599999999465,
          "durationTicks": 256,
          "midi": 50,
          "name": "D3",
          "ticks": 50688,
          "time": 78.85023899999999,
          "velocity": 0.5039370078740157
        },
        {
          "duration": 0.39473600000000886,
          "durationTicks": 256,
          "midi": 54,
          "name": "F#3",
          "ticks": 50944,
          "time": 79.24497499999998,
          "velocity": 0.7007874015748031
        },
        {
          "duration": 0.39473600000000886,
          "durationTicks": 256,
          "midi": 57,
          "name": "A3",
          "ticks": 50944,
          "time": 79.24497499999998,
          "velocity": 0.7007874015748031
        },
        {
          "duration": 0.39473600000000886,
          "durationTicks": 256,
          "midi": 62,
          "name": "D4",
          "ticks": 50944,
          "time": 79.24497499999998,
          "velocity": 0.7007874015748031
        },
        {
          "duration": 0.20045187499999884,
          "durationTicks": 130,
          "midi": 78,
          "name": "F#5",
          "ticks": 51072,
          "time": 79.442343,
          "velocity": 0.5590551181102362
        },
        {
          "duration": 0.20045187499999884,
          "durationTicks": 130,
          "midi": 73,
          "name": "C#5",
          "ticks": 51200,
          "time": 79.63971099999999,
          "velocity": 0.4645669291338583
        },
        {
          "duration": 0.39473600000000886,
          "durationTicks": 256,
          "midi": 54,
          "name": "F#3",
          "ticks": 51200,
          "time": 79.63971099999999,
          "velocity": 0.5354330708661418
        },
        {
          "duration": 0.39473600000000886,
          "durationTicks": 256,
          "midi": 57,
          "name": "A3",
          "ticks": 51200,
          "time": 79.63971099999999,
          "velocity": 0.5354330708661418
        },
        {
          "duration": 0.39473600000000886,
          "durationTicks": 256,
          "midi": 62,
          "name": "D4",
          "ticks": 51200,
          "time": 79.63971099999999,
          "velocity": 0.5354330708661418
        },
        {
          "duration": 0.18657443749999914,
          "durationTicks": 121,
          "midi": 74,
          "name": "D5",
          "ticks": 51328,
          "time": 79.83707899999999,
          "velocity": 0.5039370078740157
        },
        {
          "duration": 0.6028975624999902,
          "durationTicks": 391,
          "midi": 78,
          "name": "F#5",
          "ticks": 51456,
          "time": 80.034447,
          "velocity": 0.5590551181102362
        },
        {
          "duration": 0.39473599999999465,
          "durationTicks": 256,
          "midi": 45,
          "name": "A2",
          "ticks": 51456,
          "time": 80.034447,
          "velocity": 0.4330708661417323
        },
        {
          "duration": 0.39473599999999465,
          "durationTicks": 256,
          "midi": 57,
          "name": "A3",
          "ticks": 51712,
          "time": 80.429183,
          "velocity": 0.6141732283464567
        },
        {
          "duration": 0.39473599999999465,
          "durationTicks": 256,
          "midi": 61,
          "name": "C#4",
          "ticks": 51712,
          "time": 80.429183,
          "velocity": 0.6141732283464567
        },
        {
          "duration": 0.39473599999999465,
          "durationTicks": 256,
          "midi": 67,
          "name": "G4",
          "ticks": 51712,
          "time": 80.429183,
          "velocity": 0.6141732283464567
        },
        {
          "duration": 0.20045187499999884,
          "durationTicks": 130,
          "midi": 76,
          "name": "E5",
          "ticks": 51840,
          "time": 80.62655099999999,
          "velocity": 0.5118110236220472
        },
        {
          "duration": 0.20045187499999884,
          "durationTicks": 130,
          "midi": 71,
          "name": "B4",
          "ticks": 51968,
          "time": 80.82391899999999,
          "velocity": 0.4015748031496063
        },
        {
          "duration": 0.39473599999999465,
          "durationTicks": 256,
          "midi": 57,
          "name": "A3",
          "ticks": 51968,
          "time": 80.82391899999999,
          "velocity": 0.5275590551181102
        },
        {
          "duration": 0.39473599999999465,
          "durationTicks": 256,
          "midi": 64,
          "name": "E4",
          "ticks": 51968,
          "time": 80.82391899999999,
          "velocity": 0.5275590551181102
        },
        {
          "duration": 0.39473599999999465,
          "durationTicks": 256,
          "midi": 67,
          "name": "G4",
          "ticks": 51968,
          "time": 80.82391899999999,
          "velocity": 0.5275590551181102
        },
        {
          "duration": 0.18657443749998492,
          "durationTicks": 121,
          "midi": 73,
          "name": "C#5",
          "ticks": 52096,
          "time": 81.021287,
          "velocity": 0.4094488188976378
        },
        {
          "duration": 0.6028975625000044,
          "durationTicks": 391,
          "midi": 76,
          "name": "E5",
          "ticks": 52224,
          "time": 81.21865499999998,
          "velocity": 0.48031496062992124
        },
        {
          "duration": 0.39473600000000886,
          "durationTicks": 256,
          "midi": 50,
          "name": "D3",
          "ticks": 52224,
          "time": 81.21865499999998,
          "velocity": 0.41732283464566927
        },
        {
          "duration": 0.39473599999999465,
          "durationTicks": 256,
          "midi": 57,
          "name": "A3",
          "ticks": 52480,
          "time": 81.613391,
          "velocity": 0.5669291338582677
        },
        {
          "duration": 0.39473599999999465,
          "durationTicks": 256,
          "midi": 62,
          "name": "D4",
          "ticks": 52480,
          "time": 81.613391,
          "velocity": 0.5669291338582677
        },
        {
          "duration": 0.39473599999999465,
          "durationTicks": 256,
          "midi": 66,
          "name": "F#4",
          "ticks": 52480,
          "time": 81.613391,
          "velocity": 0.5669291338582677
        },
        {
          "duration": 0.20045187499999884,
          "durationTicks": 130,
          "midi": 74,
          "name": "D5",
          "ticks": 52608,
          "time": 81.81075899999999,
          "velocity": 0.44881889763779526
        },
        {
          "duration": 0.20045187500001305,
          "durationTicks": 130,
          "midi": 73,
          "name": "C#5",
          "ticks": 52736,
          "time": 82.00812699999999,
          "velocity": 0.4251968503937008
        },
        {
          "duration": 0.39473600000000886,
          "durationTicks": 256,
          "midi": 57,
          "name": "A3",
          "ticks": 52736,
          "time": 82.00812699999999,
          "velocity": 0.5275590551181102
        },
        {
          "duration": 0.39473600000000886,
          "durationTicks": 256,
          "midi": 62,
          "name": "D4",
          "ticks": 52736,
          "time": 82.00812699999999,
          "velocity": 0.5275590551181102
        },
        {
          "duration": 0.39473600000000886,
          "durationTicks": 256,
          "midi": 66,
          "name": "F#4",
          "ticks": 52736,
          "time": 82.00812699999999,
          "velocity": 0.5275590551181102
        },
        {
          "duration": 0.18657443750001335,
          "durationTicks": 121,
          "midi": 71,
          "name": "B4",
          "ticks": 52864,
          "time": 82.20549499999998,
          "velocity": 0.3700787401574803
        },
        {
          "duration": 0.6028975625000044,
          "durationTicks": 391,
          "midi": 71,
          "name": "B4",
          "ticks": 52992,
          "time": 82.402863,
          "velocity": 0.48031496062992124
        },
        {
          "duration": 0.39473599999999465,
          "durationTicks": 256,
          "midi": 49,
          "name": "C#3",
          "ticks": 52992,
          "time": 82.402863,
          "velocity": 0.4566929133858268
        },
        {
          "duration": 0.39473599999999465,
          "durationTicks": 256,
          "midi": 57,
          "name": "A3",
          "ticks": 53248,
          "time": 82.79759899999999,
          "velocity": 0.5984251968503937
        },
        {
          "duration": 0.39473599999999465,
          "durationTicks": 256,
          "midi": 64,
          "name": "E4",
          "ticks": 53248,
          "time": 82.79759899999999,
          "velocity": 0.5984251968503937
        },
        {
          "duration": 0.39473599999999465,
          "durationTicks": 256,
          "midi": 67,
          "name": "G4",
          "ticks": 53248,
          "time": 82.79759899999999,
          "velocity": 0.5984251968503937
        },
        {
          "duration": 0.20045187500001305,
          "durationTicks": 130,
          "midi": 69,
          "name": "A4",
          "ticks": 53376,
          "time": 82.99496699999999,
          "velocity": 0.47244094488188976
        },
        {
          "duration": 0.20045187499999884,
          "durationTicks": 130,
          "midi": 73,
          "name": "C#5",
          "ticks": 53504,
          "time": 83.19233499999999,
          "velocity": 0.5748031496062992
        },
        {
          "duration": 0.39473600000000886,
          "durationTicks": 256,
          "midi": 57,
          "name": "A3",
          "ticks": 53504,
          "time": 83.19233499999999,
          "velocity": 0.5196850393700787
        },
        {
          "duration": 0.39473600000000886,
          "durationTicks": 256,
          "midi": 64,
          "name": "E4",
          "ticks": 53504,
          "time": 83.19233499999999,
          "velocity": 0.5196850393700787
        },
        {
          "duration": 0.39473600000000886,
          "durationTicks": 256,
          "midi": 67,
          "name": "G4",
          "ticks": 53504,
          "time": 83.19233499999999,
          "velocity": 0.5196850393700787
        },
        {
          "duration": 0.18657443749998492,
          "durationTicks": 121,
          "midi": 76,
          "name": "E5",
          "ticks": 53632,
          "time": 83.389703,
          "velocity": 0.6456692913385826
        },
        {
          "duration": 0.6028975624999902,
          "durationTicks": 391,
          "midi": 79,
          "name": "G5",
          "ticks": 53760,
          "time": 83.587071,
          "velocity": 0.5433070866141733
        },
        {
          "duration": 0.39473599999999465,
          "durationTicks": 256,
          "midi": 50,
          "name": "D3",
          "ticks": 53760,
          "time": 83.587071,
          "velocity": 0.4251968503937008
        },
        {
          "duration": 0.39473600000000886,
          "durationTicks": 256,
          "midi": 57,
          "name": "A3",
          "ticks": 54016,
          "time": 83.98180699999999,
          "velocity": 0.6062992125984252
        },
        {
          "duration": 0.39473600000000886,
          "durationTicks": 256,
          "midi": 62,
          "name": "D4",
          "ticks": 54016,
          "time": 83.98180699999999,
          "velocity": 0.6062992125984252
        },
        {
          "duration": 0.39473600000000886,
          "durationTicks": 256,
          "midi": 66,
          "name": "F#4",
          "ticks": 54016,
          "time": 83.98180699999999,
          "velocity": 0.6062992125984252
        },
        {
          "duration": 0.20045187499999884,
          "durationTicks": 130,
          "midi": 78,
          "name": "F#5",
          "ticks": 54144,
          "time": 84.17917499999999,
          "velocity": 0.5118110236220472
        },
        {
          "duration": 0.20045187499999884,
          "durationTicks": 130,
          "midi": 73,
          "name": "C#5",
          "ticks": 54272,
          "time": 84.376543,
          "velocity": 0.4409448818897638
        },
        {
          "duration": 0.39473599999999465,
          "durationTicks": 256,
          "midi": 57,
          "name": "A3",
          "ticks": 54272,
          "time": 84.376543,
          "velocity": 0.5354330708661418
        },
        {
          "duration": 0.39473599999999465,
          "durationTicks": 256,
          "midi": 62,
          "name": "D4",
          "ticks": 54272,
          "time": 84.376543,
          "velocity": 0.5354330708661418
        },
        {
          "duration": 0.39473599999999465,
          "durationTicks": 256,
          "midi": 66,
          "name": "F#4",
          "ticks": 54272,
          "time": 84.376543,
          "velocity": 0.5354330708661418
        },
        {
          "duration": 0.18657443750001335,
          "durationTicks": 121,
          "midi": 74,
          "name": "D5",
          "ticks": 54400,
          "time": 84.57391099999998,
          "velocity": 0.47244094488188976
        },
        {
          "duration": 0.6028975625000044,
          "durationTicks": 391,
          "midi": 78,
          "name": "F#5",
          "ticks": 54528,
          "time": 84.77127899999999,
          "velocity": 0.5433070866141733
        },
        {
          "duration": 0.39473599999999465,
          "durationTicks": 256,
          "midi": 43,
          "name": "G2",
          "ticks": 54528,
          "time": 84.77127899999999,
          "velocity": 0.4094488188976378
        },
        {
          "duration": 0.39473599999999465,
          "durationTicks": 256,
          "midi": 55,
          "name": "G3",
          "ticks": 54784,
          "time": 85.16601499999999,
          "velocity": 0.6299212598425197
        },
        {
          "duration": 0.39473599999999465,
          "durationTicks": 256,
          "midi": 59,
          "name": "B3",
          "ticks": 54784,
          "time": 85.16601499999999,
          "velocity": 0.6299212598425197
        },
        {
          "duration": 0.39473599999999465,
          "durationTicks": 256,
          "midi": 64,
          "name": "E4",
          "ticks": 54784,
          "time": 85.16601499999999,
          "velocity": 0.6299212598425197
        },
        {
          "duration": 0.20045187499999884,
          "durationTicks": 130,
          "midi": 76,
          "name": "E5",
          "ticks": 54912,
          "time": 85.363383,
          "velocity": 0.5354330708661418
        },
        {
          "duration": 0.20045187499999884,
          "durationTicks": 130,
          "midi": 71,
          "name": "B4",
          "ticks": 55040,
          "time": 85.56075099999998,
          "velocity": 0.41732283464566927
        },
        {
          "duration": 0.39473600000000886,
          "durationTicks": 256,
          "midi": 55,
          "name": "G3",
          "ticks": 55040,
          "time": 85.56075099999998,
          "velocity": 0.5118110236220472
        },
        {
          "duration": 0.39473600000000886,
          "durationTicks": 256,
          "midi": 59,
          "name": "B3",
          "ticks": 55040,
          "time": 85.56075099999998,
          "velocity": 0.5118110236220472
        },
        {
          "duration": 0.39473600000000886,
          "durationTicks": 256,
          "midi": 64,
          "name": "E4",
          "ticks": 55040,
          "time": 85.56075099999998,
          "velocity": 0.5118110236220472
        },
        {
          "duration": 0.18657443749999914,
          "durationTicks": 121,
          "midi": 73,
          "name": "C#5",
          "ticks": 55168,
          "time": 85.758119,
          "velocity": 0.41732283464566927
        },
        {
          "duration": 0.6028975624999902,
          "durationTicks": 391,
          "midi": 70,
          "name": "A#4",
          "ticks": 55296,
          "time": 85.95548699999999,
          "velocity": 0.44881889763779526
        },
        {
          "duration": 0.39473600000000886,
          "durationTicks": 256,
          "midi": 42,
          "name": "F#2",
          "ticks": 55296,
          "time": 85.95548699999999,
          "velocity": 0.4330708661417323
        },
        {
          "duration": 0.39473599999999465,
          "durationTicks": 256,
          "midi": 54,
          "name": "F#3",
          "ticks": 55552,
          "time": 86.350223,
          "velocity": 0.5984251968503937
        },
        {
          "duration": 0.39473599999999465,
          "durationTicks": 256,
          "midi": 61,
          "name": "C#4",
          "ticks": 55552,
          "time": 86.350223,
          "velocity": 0.5984251968503937
        },
        {
          "duration": 0.39473599999999465,
          "durationTicks": 256,
          "midi": 64,
          "name": "E4",
          "ticks": 55552,
          "time": 86.350223,
          "velocity": 0.5984251968503937
        },
        {
          "duration": 0.20045187499999884,
          "durationTicks": 130,
          "midi": 73,
          "name": "C#5",
          "ticks": 55680,
          "time": 86.54759099999998,
          "velocity": 0.48031496062992124
        },
        {
          "duration": 0.20045187499999884,
          "durationTicks": 130,
          "midi": 67,
          "name": "G4",
          "ticks": 55808,
          "time": 86.744959,
          "velocity": 0.41732283464566927
        },
        {
          "duration": 0.39473599999999465,
          "durationTicks": 256,
          "midi": 54,
          "name": "F#3",
          "ticks": 55808,
          "time": 86.744959,
          "velocity": 0.48031496062992124
        },
        {
          "duration": 0.39473599999999465,
          "durationTicks": 256,
          "midi": 61,
          "name": "C#4",
          "ticks": 55808,
          "time": 86.744959,
          "velocity": 0.48031496062992124
        },
        {
          "duration": 0.39473599999999465,
          "durationTicks": 256,
          "midi": 64,
          "name": "E4",
          "ticks": 55808,
          "time": 86.744959,
          "velocity": 0.48031496062992124
        },
        {
          "duration": 0.18657443749999914,
          "durationTicks": 121,
          "midi": 73,
          "name": "C#5",
          "ticks": 55936,
          "time": 86.94232699999999,
          "velocity": 0.47244094488188976
        },
        {
          "duration": 0.6028975625000044,
          "durationTicks": 391,
          "midi": 66,
          "name": "F#4",
          "ticks": 56064,
          "time": 87.13969499999999,
          "velocity": 0.4566929133858268
        },
        {
          "duration": 0.39473599999999465,
          "durationTicks": 256,
          "midi": 42,
          "name": "F#2",
          "ticks": 56064,
          "time": 87.13969499999999,
          "velocity": 0.3937007874015748
        },
        {
          "duration": 0.39473600000000886,
          "durationTicks": 256,
          "midi": 54,
          "name": "F#3",
          "ticks": 56320,
          "time": 87.53443099999998,
          "velocity": 0.6141732283464567
        },
        {
          "duration": 0.39473600000000886,
          "durationTicks": 256,
          "midi": 61,
          "name": "C#4",
          "ticks": 56320,
          "time": 87.53443099999998,
          "velocity": 0.6141732283464567
        },
        {
          "duration": 0.39473600000000886,
          "durationTicks": 256,
          "midi": 64,
          "name": "E4",
          "ticks": 56320,
          "time": 87.53443099999998,
          "velocity": 0.6141732283464567
        },
        {
          "duration": 0.20045187499999884,
          "durationTicks": 130,
          "midi": 70,
          "name": "A#4",
          "ticks": 56448,
          "time": 87.731799,
          "velocity": 0.5196850393700787
        },
        {
          "duration": 0.20045187499999884,
          "durationTicks": 130,
          "midi": 73,
          "name": "C#5",
          "ticks": 56576,
          "time": 87.92916699999999,
          "velocity": 0.5669291338582677
        },
        {
          "duration": 0.39473599999999465,
          "durationTicks": 256,
          "midi": 54,
          "name": "F#3",
          "ticks": 56576,
          "time": 87.92916699999999,
          "velocity": 0.5433070866141733
        },
        {
          "duration": 0.39473599999999465,
          "durationTicks": 256,
          "midi": 58,
          "name": "A#3",
          "ticks": 56576,
          "time": 87.92916699999999,
          "velocity": 0.5433070866141733
        },
        {
          "duration": 0.39473599999999465,
          "durationTicks": 256,
          "midi": 64,
          "name": "E4",
          "ticks": 56576,
          "time": 87.92916699999999,
          "velocity": 0.5433070866141733
        },
        {
          "duration": 0.18657443749999914,
          "durationTicks": 121,
          "midi": 76,
          "name": "E5",
          "ticks": 56704,
          "time": 88.12653499999999,
          "velocity": 0.6062992125984252
        },
        {
          "duration": 0.6028975625000044,
          "durationTicks": 391,
          "midi": 79,
          "name": "G5",
          "ticks": 56832,
          "time": 88.32390299999999,
          "velocity": 0.5748031496062992
        },
        {
          "duration": 0.39473600000000886,
          "durationTicks": 256,
          "midi": 47,
          "name": "B2",
          "ticks": 56832,
          "time": 88.32390299999999,
          "velocity": 0.5039370078740157
        },
        {
          "duration": 0.39473599999999465,
          "durationTicks": 256,
          "midi": 54,
          "name": "F#3",
          "ticks": 57088,
          "time": 88.718639,
          "velocity": 0.6614173228346457
        },
        {
          "duration": 0.39473599999999465,
          "durationTicks": 256,
          "midi": 59,
          "name": "B3",
          "ticks": 57088,
          "time": 88.718639,
          "velocity": 0.6614173228346457
        },
        {
          "duration": 0.39473599999999465,
          "durationTicks": 256,
          "midi": 62,
          "name": "D4",
          "ticks": 57088,
          "time": 88.718639,
          "velocity": 0.6614173228346457
        },
        {
          "duration": 0.20045187499999884,
          "durationTicks": 130,
          "midi": 78,
          "name": "F#5",
          "ticks": 57216,
          "time": 88.916007,
          "velocity": 0.48031496062992124
        },
        {
          "duration": 0.20045187499999884,
          "durationTicks": 130,
          "midi": 73,
          "name": "C#5",
          "ticks": 57344,
          "time": 89.11337499999999,
          "velocity": 0.4645669291338583
        },
        {
          "duration": 0.39473599999999465,
          "durationTicks": 256,
          "midi": 54,
          "name": "F#3",
          "ticks": 57344,
          "time": 89.11337499999999,
          "velocity": 0.49606299212598426
        },
        {
          "duration": 0.39473599999999465,
          "durationTicks": 256,
          "midi": 59,
          "name": "B3",
          "ticks": 57344,
          "time": 89.11337499999999,
          "velocity": 0.49606299212598426
        },
        {
          "duration": 0.39473599999999465,
          "durationTicks": 256,
          "midi": 62,
          "name": "D4",
          "ticks": 57344,
          "time": 89.11337499999999,
          "velocity": 0.49606299212598426
        },
        {
          "duration": 0.18657443749999914,
          "durationTicks": 121,
          "midi": 74,
          "name": "D5",
          "ticks": 57472,
          "time": 89.31074299999999,
          "velocity": 0.48031496062992124
        },
        {
          "duration": 0.6028975625000044,
          "durationTicks": 391,
          "midi": 78,
          "name": "F#5",
          "ticks": 57600,
          "time": 89.50811099999999,
          "velocity": 0.5354330708661418
        },
        {
          "duration": 0.39473600000000886,
          "durationTicks": 256,
          "midi": 45,
          "name": "A2",
          "ticks": 57600,
          "time": 89.50811099999999,
          "velocity": 0.4251968503937008
        },
        {
          "duration": 0.39473599999999465,
          "durationTicks": 256,
          "midi": 54,
          "name": "F#3",
          "ticks": 57856,
          "time": 89.902847,
          "velocity": 0.5433070866141733
        },
        {
          "duration": 0.39473599999999465,
          "durationTicks": 256,
          "midi": 57,
          "name": "A3",
          "ticks": 57856,
          "time": 89.902847,
          "velocity": 0.5433070866141733
        },
        {
          "duration": 0.39473599999999465,
          "durationTicks": 256,
          "midi": 64,
          "name": "E4",
          "ticks": 57856,
          "time": 89.902847,
          "velocity": 0.5433070866141733
        },
        {
          "duration": 0.20045187499999884,
          "durationTicks": 130,
          "midi": 76,
          "name": "E5",
          "ticks": 57984,
          "time": 90.10021499999999,
          "velocity": 0.3858267716535433
        },
        {
          "duration": 0.20045187499999884,
          "durationTicks": 130,
          "midi": 71,
          "name": "B4",
          "ticks": 58112,
          "time": 90.29758299999999,
          "velocity": 0.30708661417322836
        },
        {
          "duration": 0.39473600000000886,
          "durationTicks": 256,
          "midi": 54,
          "name": "F#3",
          "ticks": 58112,
          "time": 90.29758299999999,
          "velocity": 0.3543307086614173
        },
        {
          "duration": 0.39473600000000886,
          "durationTicks": 256,
          "midi": 61,
          "name": "C#4",
          "ticks": 58112,
          "time": 90.29758299999999,
          "velocity": 0.3543307086614173
        },
        {
          "duration": 0.39473600000000886,
          "durationTicks": 256,
          "midi": 64,
          "name": "E4",
          "ticks": 58112,
          "time": 90.29758299999999,
          "velocity": 0.3543307086614173
        },
        {
          "duration": 0.18657443750001335,
          "durationTicks": 121,
          "midi": 73,
          "name": "C#5",
          "ticks": 58240,
          "time": 90.49495099999999,
          "velocity": 0.5590551181102362
        },
        {
          "duration": 0.6028975624999902,
          "durationTicks": 391,
          "midi": 76,
          "name": "E5",
          "ticks": 58368,
          "time": 90.692319,
          "velocity": 0.5039370078740157
        },
        {
          "duration": 0.39473599999999465,
          "durationTicks": 256,
          "midi": 50,
          "name": "D3",
          "ticks": 58368,
          "time": 90.692319,
          "velocity": 0.4330708661417323
        },
        {
          "duration": 0.39473599999999465,
          "durationTicks": 256,
          "midi": 57,
          "name": "A3",
          "ticks": 58624,
          "time": 91.08705499999999,
          "velocity": 0.5196850393700787
        },
        {
          "duration": 0.39473599999999465,
          "durationTicks": 256,
          "midi": 62,
          "name": "D4",
          "ticks": 58624,
          "time": 91.08705499999999,
          "velocity": 0.5196850393700787
        },
        {
          "duration": 0.39473599999999465,
          "durationTicks": 256,
          "midi": 66,
          "name": "F#4",
          "ticks": 58624,
          "time": 91.08705499999999,
          "velocity": 0.5196850393700787
        },
        {
          "duration": 0.20045187499999884,
          "durationTicks": 130,
          "midi": 74,
          "name": "D5",
          "ticks": 58752,
          "time": 91.28442299999999,
          "velocity": 0.4015748031496063
        },
        {
          "duration": 0.20045187499999884,
          "durationTicks": 130,
          "midi": 73,
          "name": "C#5",
          "ticks": 58880,
          "time": 91.48179099999999,
          "velocity": 0.3543307086614173
        },
        {
          "duration": 0.39473599999999465,
          "durationTicks": 256,
          "midi": 57,
          "name": "A3",
          "ticks": 58880,
          "time": 91.48179099999999,
          "velocity": 0.3700787401574803
        },
        {
          "duration": 0.39473599999999465,
          "durationTicks": 256,
          "midi": 62,
          "name": "D4",
          "ticks": 58880,
          "time": 91.48179099999999,
          "velocity": 0.3700787401574803
        },
        {
          "duration": 0.39473599999999465,
          "durationTicks": 256,
          "midi": 66,
          "name": "F#4",
          "ticks": 58880,
          "time": 91.48179099999999,
          "velocity": 0.3700787401574803
        },
        {
          "duration": 0.18657443749998492,
          "durationTicks": 121,
          "midi": 71,
          "name": "B4",
          "ticks": 59008,
          "time": 91.679159,
          "velocity": 0.3543307086614173
        },
        {
          "duration": 0.6028975625000044,
          "durationTicks": 391,
          "midi": 71,
          "name": "B4",
          "ticks": 59136,
          "time": 91.87652699999998,
          "velocity": 0.5039370078740157
        },
        {
          "duration": 0.39473600000000886,
          "durationTicks": 256,
          "midi": 49,
          "name": "C#3",
          "ticks": 59136,
          "time": 91.87652699999998,
          "velocity": 0.4330708661417323
        },
        {
          "duration": 0.39473600000000886,
          "durationTicks": 256,
          "midi": 57,
          "name": "A3",
          "ticks": 59392,
          "time": 92.27126299999999,
          "velocity": 0.6062992125984252
        },
        {
          "duration": 0.39473600000000886,
          "durationTicks": 256,
          "midi": 64,
          "name": "E4",
          "ticks": 59392,
          "time": 92.27126299999999,
          "velocity": 0.6062992125984252
        },
        {
          "duration": 0.39473600000000886,
          "durationTicks": 256,
          "midi": 67,
          "name": "G4",
          "ticks": 59392,
          "time": 92.27126299999999,
          "velocity": 0.6062992125984252
        },
        {
          "duration": 0.20045187499999884,
          "durationTicks": 130,
          "midi": 69,
          "name": "A4",
          "ticks": 59520,
          "time": 92.46863099999999,
          "velocity": 0.44881889763779526
        },
        {
          "duration": 0.20045187499999884,
          "durationTicks": 130,
          "midi": 73,
          "name": "C#5",
          "ticks": 59648,
          "time": 92.665999,
          "velocity": 0.5748031496062992
        },
        {
          "duration": 0.39473599999999465,
          "durationTicks": 256,
          "midi": 57,
          "name": "A3",
          "ticks": 59648,
          "time": 92.665999,
          "velocity": 0.5275590551181102
        },
        {
          "duration": 0.39473599999999465,
          "durationTicks": 256,
          "midi": 64,
          "name": "E4",
          "ticks": 59648,
          "time": 92.665999,
          "velocity": 0.5275590551181102
        },
        {
          "duration": 0.39473599999999465,
          "durationTicks": 256,
          "midi": 67,
          "name": "G4",
          "ticks": 59648,
          "time": 92.665999,
          "velocity": 0.5275590551181102
        },
        {
          "duration": 0.18657443750001335,
          "durationTicks": 121,
          "midi": 76,
          "name": "E5",
          "ticks": 59776,
          "time": 92.86336699999998,
          "velocity": 0.5511811023622047
        },
        {
          "duration": 0.6028975625000044,
          "durationTicks": 391,
          "midi": 79,
          "name": "G5",
          "ticks": 59904,
          "time": 93.060735,
          "velocity": 0.6062992125984252
        },
        {
          "duration": 0.39473599999999465,
          "durationTicks": 256,
          "midi": 50,
          "name": "D3",
          "ticks": 59904,
          "time": 93.060735,
          "velocity": 0.48031496062992124
        },
        {
          "duration": 0.39473599999999465,
          "durationTicks": 256,
          "midi": 57,
          "name": "A3",
          "ticks": 60160,
          "time": 93.45547099999999,
          "velocity": 0.6614173228346457
        },
        {
          "duration": 0.39473599999999465,
          "durationTicks": 256,
          "midi": 62,
          "name": "D4",
          "ticks": 60160,
          "time": 93.45547099999999,
          "velocity": 0.6614173228346457
        },
        {
          "duration": 0.39473599999999465,
          "durationTicks": 256,
          "midi": 66,
          "name": "F#4",
          "ticks": 60160,
          "time": 93.45547099999999,
          "velocity": 0.6614173228346457
        },
        {
          "duration": 0.20045187499999884,
          "durationTicks": 130,
          "midi": 78,
          "name": "F#5",
          "ticks": 60288,
          "time": 93.652839,
          "velocity": 0.49606299212598426
        },
        {
          "duration": 0.20045187499999884,
          "durationTicks": 130,
          "midi": 73,
          "name": "C#5",
          "ticks": 60416,
          "time": 93.85020699999998,
          "velocity": 0.4409448818897638
        },
        {
          "duration": 0.39473600000000886,
          "durationTicks": 256,
          "midi": 57,
          "name": "A3",
          "ticks": 60416,
          "time": 93.85020699999998,
          "velocity": 0.49606299212598426
        },
        {
          "duration": 0.39473600000000886,
          "durationTicks": 256,
          "midi": 62,
          "name": "D4",
          "ticks": 60416,
          "time": 93.85020699999998,
          "velocity": 0.49606299212598426
        },
        {
          "duration": 0.39473600000000886,
          "durationTicks": 256,
          "midi": 66,
          "name": "F#4",
          "ticks": 60416,
          "time": 93.85020699999998,
          "velocity": 0.49606299212598426
        },
        {
          "duration": 0.18657443749998492,
          "durationTicks": 121,
          "midi": 74,
          "name": "D5",
          "ticks": 60544,
          "time": 94.047575,
          "velocity": 0.49606299212598426
        },
        {
          "duration": 0.6028975624999902,
          "durationTicks": 391,
          "midi": 78,
          "name": "F#5",
          "ticks": 60672,
          "time": 94.24494299999999,
          "velocity": 0.7165354330708661
        },
        {
          "duration": 0.39473599999999465,
          "durationTicks": 256,
          "midi": 43,
          "name": "G2",
          "ticks": 60672,
          "time": 94.24494299999999,
          "velocity": 0.4094488188976378
        },
        {
          "duration": 0.39473600000000886,
          "durationTicks": 256,
          "midi": 55,
          "name": "G3",
          "ticks": 60928,
          "time": 94.63967899999999,
          "velocity": 0.5590551181102362
        },
        {
          "duration": 0.39473600000000886,
          "durationTicks": 256,
          "midi": 59,
          "name": "B3",
          "ticks": 60928,
          "time": 94.63967899999999,
          "velocity": 0.5590551181102362
        },
        {
          "duration": 0.39473600000000886,
          "durationTicks": 256,
          "midi": 64,
          "name": "E4",
          "ticks": 60928,
          "time": 94.63967899999999,
          "velocity": 0.5590551181102362
        },
        {
          "duration": 0.20045187499999884,
          "durationTicks": 130,
          "midi": 76,
          "name": "E5",
          "ticks": 61056,
          "time": 94.83704699999998,
          "velocity": 0.6771653543307087
        },
        {
          "duration": 0.20045187499999884,
          "durationTicks": 130,
          "midi": 90,
          "name": "F#6",
          "ticks": 61184,
          "time": 95.034415,
          "velocity": 0.984251968503937
        },
        {
          "duration": 0.20045187499999884,
          "durationTicks": 130,
          "midi": 88,
          "name": "E6",
          "ticks": 61312,
          "time": 95.231783,
          "velocity": 0.984251968503937
        },
        {
          "duration": 0.20045187499999884,
          "durationTicks": 130,
          "midi": 86,
          "name": "D6",
          "ticks": 61440,
          "time": 95.42915099999999,
          "velocity": 0.7322834645669292
        },
        {
          "duration": 0.39473599999999465,
          "durationTicks": 256,
          "midi": 42,
          "name": "F#2",
          "ticks": 61440,
          "time": 95.42915099999999,
          "velocity": 0.6377952755905512
        },
        {
          "duration": 0.20045187500001305,
          "durationTicks": 130,
          "midi": 85,
          "name": "C#6",
          "ticks": 61568,
          "time": 95.62651899999999,
          "velocity": 0.6850393700787402
        },
        {
          "duration": 0.20045187499999884,
          "durationTicks": 130,
          "midi": 84,
          "name": "C6",
          "ticks": 61696,
          "time": 95.82388699999998,
          "velocity": 0.7086614173228346
        },
        {
          "duration": 0.39473600000000886,
          "durationTicks": 256,
          "midi": 54,
          "name": "F#3",
          "ticks": 61696,
          "time": 95.82388699999998,
          "velocity": 0.9133858267716536
        },
        {
          "duration": 0.39473600000000886,
          "durationTicks": 256,
          "midi": 64,
          "name": "E4",
          "ticks": 61696,
          "time": 95.82388699999998,
          "velocity": 0.9133858267716536
        },
        {
          "duration": 0.20045187499999884,
          "durationTicks": 130,
          "midi": 83,
          "name": "B5",
          "ticks": 61824,
          "time": 96.021255,
          "velocity": 0.7007874015748031
        },
        {
          "duration": 0.20045187499999884,
          "durationTicks": 130,
          "midi": 82,
          "name": "A#5",
          "ticks": 61952,
          "time": 96.218623,
          "velocity": 0.7401574803149606
        },
        {
          "duration": 0.39473599999999465,
          "durationTicks": 256,
          "midi": 46,
          "name": "A#2",
          "ticks": 61952,
          "time": 96.218623,
          "velocity": 0.6614173228346457
        },
        {
          "duration": 0.20045187499999884,
          "durationTicks": 130,
          "midi": 81,
          "name": "A5",
          "ticks": 62080,
          "time": 96.41599099999999,
          "velocity": 0.7480314960629921
        },
        {
          "duration": 0.20045187499999884,
          "durationTicks": 130,
          "midi": 80,
          "name": "G#5",
          "ticks": 62208,
          "time": 96.61335899999999,
          "velocity": 0.6692913385826772
        },
        {
          "duration": 0.39473600000000886,
          "durationTicks": 256,
          "midi": 47,
          "name": "B2",
          "ticks": 62208,
          "time": 96.61335899999999,
          "velocity": 0.7401574803149606
        },
        {
          "duration": 0.20045187499999884,
          "durationTicks": 130,
          "midi": 79,
          "name": "G5",
          "ticks": 62336,
          "time": 96.81072699999999,
          "velocity": 0.6614173228346457
        },
        {
          "duration": 0.20045187499999884,
          "durationTicks": 130,
          "midi": 78,
          "name": "F#5",
          "ticks": 62464,
          "time": 97.008095,
          "velocity": 0.5905511811023622
        },
        {
          "duration": 0.39473599999999465,
          "durationTicks": 256,
          "midi": 54,
          "name": "F#3",
          "ticks": 62464,
          "time": 97.008095,
          "velocity": 0.8267716535433071
        },
        {
          "duration": 0.39473599999999465,
          "durationTicks": 256,
          "midi": 62,
          "name": "D4",
          "ticks": 62464,
          "time": 97.008095,
          "velocity": 0.8267716535433071
        },
        {
          "duration": 0.20045187500001305,
          "durationTicks": 130,
          "midi": 73,
          "name": "C#5",
          "ticks": 62592,
          "time": 97.20546299999998,
          "velocity": 0.5118110236220472
        },
        {
          "duration": 0.20045187499999884,
          "durationTicks": 130,
          "midi": 74,
          "name": "D5",
          "ticks": 62720,
          "time": 97.40283099999999,
          "velocity": 0.5511811023622047
        },
        {
          "duration": 0.39473599999999465,
          "durationTicks": 256,
          "midi": 54,
          "name": "F#3",
          "ticks": 62720,
          "time": 97.40283099999999,
          "velocity": 0.5669291338582677
        },
        {
          "duration": 0.39473599999999465,
          "durationTicks": 256,
          "midi": 62,
          "name": "D4",
          "ticks": 62720,
          "time": 97.40283099999999,
          "velocity": 0.5669291338582677
        },
        {
          "duration": 0.20045187499999884,
          "durationTicks": 130,
          "midi": 71,
          "name": "B4",
          "ticks": 62848,
          "time": 97.60019899999999,
          "velocity": 0.4251968503937008
        },
        {
          "duration": 0.37469081250000613,
          "durationTicks": 243,
          "midi": 70,
          "name": "A#4",
          "ticks": 62976,
          "time": 97.79756699999999,
          "velocity": 0.4409448818897638
        },
        {
          "duration": 0.39473599999999465,
          "durationTicks": 256,
          "midi": 49,
          "name": "C#3",
          "ticks": 62976,
          "time": 97.79756699999999,
          "velocity": 0.4015748031496063
        },
        {
          "duration": 0.39473600000000886,
          "durationTicks": 256,
          "midi": 54,
          "name": "F#3",
          "ticks": 63232,
          "time": 98.19230299999998,
          "velocity": 0.5669291338582677
        },
        {
          "duration": 0.39473600000000886,
          "durationTicks": 256,
          "midi": 61,
          "name": "C#4",
          "ticks": 63232,
          "time": 98.19230299999998,
          "velocity": 0.5669291338582677
        },
        {
          "duration": 0.39473600000000886,
          "durationTicks": 256,
          "midi": 64,
          "name": "E4",
          "ticks": 63232,
          "time": 98.19230299999998,
          "velocity": 0.5669291338582677
        },
        {
          "duration": 0.4024456874999913,
          "durationTicks": 261,
          "midi": 81,
          "name": "A5",
          "ticks": 63488,
          "time": 98.58703899999999,
          "velocity": 0.7874015748031497
        },
        {
          "duration": 0.39473600000000886,
          "durationTicks": 256,
          "midi": 54,
          "name": "F#3",
          "ticks": 63488,
          "time": 98.58703899999999,
          "velocity": 0.4881889763779528
        },
        {
          "duration": 0.39473600000000886,
          "durationTicks": 256,
          "midi": 61,
          "name": "C#4",
          "ticks": 63488,
          "time": 98.58703899999999,
          "velocity": 0.4881889763779528
        },
        {
          "duration": 0.39473600000000886,
          "durationTicks": 256,
          "midi": 64,
          "name": "E4",
          "ticks": 63488,
          "time": 98.58703899999999,
          "velocity": 0.4881889763779528
        },
        {
          "duration": 0.20045187499999884,
          "durationTicks": 130,
          "midi": 80,
          "name": "G#5",
          "ticks": 63744,
          "time": 98.981775,
          "velocity": 0.4566929133858268
        },
        {
          "duration": 0.39473599999999465,
          "durationTicks": 256,
          "midi": 46,
          "name": "A#2",
          "ticks": 63744,
          "time": 98.981775,
          "velocity": 0.4094488188976378
        },
        {
          "duration": 0.20045187499999884,
          "durationTicks": 130,
          "midi": 79,
          "name": "G5",
          "ticks": 63872,
          "time": 99.17914299999998,
          "velocity": 0.4566929133858268
        },
        {
          "duration": 0.20045187499999884,
          "durationTicks": 130,
          "midi": 78,
          "name": "F#5",
          "ticks": 64000,
          "time": 99.376511,
          "velocity": 0.44881889763779526
        },
        {
          "duration": 0.39473599999999465,
          "durationTicks": 256,
          "midi": 54,
          "name": "F#3",
          "ticks": 64000,
          "time": 99.376511,
          "velocity": 0.5905511811023622
        },
        {
          "duration": 0.39473599999999465,
          "durationTicks": 256,
          "midi": 61,
          "name": "C#4",
          "ticks": 64000,
          "time": 99.376511,
          "velocity": 0.5905511811023622
        },
        {
          "duration": 0.39473599999999465,
          "durationTicks": 256,
          "midi": 64,
          "name": "E4",
          "ticks": 64000,
          "time": 99.376511,
          "velocity": 0.5905511811023622
        },
        {
          "duration": 0.20045187499999884,
          "durationTicks": 130,
          "midi": 73,
          "name": "C#5",
          "ticks": 64128,
          "time": 99.57387899999999,
          "velocity": 0.3700787401574803
        },
        {
          "duration": 0.20045187499999884,
          "durationTicks": 130,
          "midi": 76,
          "name": "E5",
          "ticks": 64256,
          "time": 99.77124699999999,
          "velocity": 0.5275590551181102
        },
        {
          "duration": 0.39473599999999465,
          "durationTicks": 256,
          "midi": 54,
          "name": "F#3",
          "ticks": 64256,
          "time": 99.77124699999999,
          "velocity": 0.5118110236220472
        },
        {
          "duration": 0.39473599999999465,
          "durationTicks": 256,
          "midi": 61,
          "name": "C#4",
          "ticks": 64256,
          "time": 99.77124699999999,
          "velocity": 0.5118110236220472
        },
        {
          "duration": 0.39473599999999465,
          "durationTicks": 256,
          "midi": 64,
          "name": "E4",
          "ticks": 64256,
          "time": 99.77124699999999,
          "velocity": 0.5118110236220472
        },
        {
          "duration": 0.20045187499999884,
          "durationTicks": 130,
          "midi": 74,
          "name": "D5",
          "ticks": 64384,
          "time": 99.968615,
          "velocity": 0.5433070866141733
        },
        {
          "duration": 0.37469081250000613,
          "durationTicks": 243,
          "midi": 71,
          "name": "B4",
          "ticks": 64512,
          "time": 100.16598299999998,
          "velocity": 0.4094488188976378
        },
        {
          "duration": 0.39473600000000886,
          "durationTicks": 256,
          "midi": 47,
          "name": "B2",
          "ticks": 64512,
          "time": 100.16598299999998,
          "velocity": 0.41732283464566927
        },
        {
          "duration": 0.39473599999999465,
          "durationTicks": 256,
          "midi": 54,
          "name": "F#3",
          "ticks": 64768,
          "time": 100.56071899999999,
          "velocity": 0.6220472440944882
        },
        {
          "duration": 0.39473599999999465,
          "durationTicks": 256,
          "midi": 59,
          "name": "B3",
          "ticks": 64768,
          "time": 100.56071899999999,
          "velocity": 0.6220472440944882
        },
        {
          "duration": 0.39473599999999465,
          "durationTicks": 256,
          "midi": 62,
          "name": "D4",
          "ticks": 64768,
          "time": 100.56071899999999,
          "velocity": 0.6220472440944882
        },
        {
          "duration": 0.40244568750000553,
          "durationTicks": 261,
          "midi": 81,
          "name": "A5",
          "ticks": 65024,
          "time": 100.95545499999999,
          "velocity": 0.7716535433070866
        },
        {
          "duration": 0.39473600000000886,
          "durationTicks": 256,
          "midi": 54,
          "name": "F#3",
          "ticks": 65024,
          "time": 100.95545499999999,
          "velocity": 0.5196850393700787
        },
        {
          "duration": 0.39473600000000886,
          "durationTicks": 256,
          "midi": 59,
          "name": "B3",
          "ticks": 65024,
          "time": 100.95545499999999,
          "velocity": 0.5196850393700787
        },
        {
          "duration": 0.39473600000000886,
          "durationTicks": 256,
          "midi": 62,
          "name": "D4",
          "ticks": 65024,
          "time": 100.95545499999999,
          "velocity": 0.5196850393700787
        },
        {
          "duration": 0.20045187499999884,
          "durationTicks": 130,
          "midi": 80,
          "name": "G#5",
          "ticks": 65280,
          "time": 101.350191,
          "velocity": 0.4645669291338583
        },
        {
          "duration": 0.39473599999999465,
          "durationTicks": 256,
          "midi": 47,
          "name": "B2",
          "ticks": 65280,
          "time": 101.350191,
          "velocity": 0.4330708661417323
        },
        {
          "duration": 0.20045187499999884,
          "durationTicks": 130,
          "midi": 79,
          "name": "G5",
          "ticks": 65408,
          "time": 101.54755899999999,
          "velocity": 0.44881889763779526
        },
        {
          "duration": 0.20045187499999884,
          "durationTicks": 130,
          "midi": 77,
          "name": "F5",
          "ticks": 65536,
          "time": 101.74492699999999,
          "velocity": 0.4645669291338583
        },
        {
          "duration": 0.39473599999999465,
          "durationTicks": 256,
          "midi": 54,
          "name": "F#3",
          "ticks": 65536,
          "time": 101.74492699999999,
          "velocity": 0.6220472440944882
        },
        {
          "duration": 0.39473599999999465,
          "durationTicks": 256,
          "midi": 59,
          "name": "B3",
          "ticks": 65536,
          "time": 101.74492699999999,
          "velocity": 0.6220472440944882
        },
        {
          "duration": 0.39473599999999465,
          "durationTicks": 256,
          "midi": 62,
          "name": "D4",
          "ticks": 65536,
          "time": 101.74492699999999,
          "velocity": 0.6220472440944882
        },
        {
          "duration": 0.20045187500001305,
          "durationTicks": 130,
          "midi": 78,
          "name": "F#5",
          "ticks": 65664,
          "time": 101.94229499999999,
          "velocity": 0.5748031496062992
        },
        {
          "duration": 0.20045187499999884,
          "durationTicks": 130,
          "midi": 83,
          "name": "B5",
          "ticks": 65792,
          "time": 102.13966299999998,
          "velocity": 0.5984251968503937
        },
        {
          "duration": 0.39473600000000886,
          "durationTicks": 256,
          "midi": 54,
          "name": "F#3",
          "ticks": 65792,
          "time": 102.13966299999998,
          "velocity": 0.5669291338582677
        },
        {
          "duration": 0.39473600000000886,
          "durationTicks": 256,
          "midi": 59,
          "name": "B3",
          "ticks": 65792,
          "time": 102.13966299999998,
          "velocity": 0.5669291338582677
        },
        {
          "duration": 0.39473600000000886,
          "durationTicks": 256,
          "midi": 62,
          "name": "D4",
          "ticks": 65792,
          "time": 102.13966299999998,
          "velocity": 0.5669291338582677
        },
        {
          "duration": 0.19736799999999732,
          "durationTicks": 128,
          "midi": 86,
          "name": "D6",
          "ticks": 65920,
          "time": 102.337031,
          "velocity": 0.5826771653543307
        },
        {
          "duration": 0.3746908124999919,
          "durationTicks": 243,
          "midi": 86,
          "name": "D6",
          "ticks": 66048,
          "time": 102.534399,
          "velocity": 0.5984251968503937
        },
        {
          "duration": 0.39473599999999465,
          "durationTicks": 256,
          "midi": 47,
          "name": "B2",
          "ticks": 66048,
          "time": 102.534399,
          "velocity": 0.4645669291338583
        },
        {
          "duration": 0.39473600000000886,
          "durationTicks": 256,
          "midi": 77,
          "name": "F5",
          "ticks": 66304,
          "time": 102.92913499999999,
          "velocity": 0.4881889763779528
        },
        {
          "duration": 0.39473600000000886,
          "durationTicks": 256,
          "midi": 56,
          "name": "G#3",
          "ticks": 66304,
          "time": 102.92913499999999,
          "velocity": 0.6929133858267716
        },
        {
          "duration": 0.39473600000000886,
          "durationTicks": 256,
          "midi": 59,
          "name": "B3",
          "ticks": 66304,
          "time": 102.92913499999999,
          "velocity": 0.6929133858267716
        },
        {
          "duration": 0.39473600000000886,
          "durationTicks": 256,
          "midi": 62,
          "name": "D4",
          "ticks": 66304,
          "time": 102.92913499999999,
          "velocity": 0.6929133858267716
        },
        {
          "duration": 0.7894719999999893,
          "durationTicks": 512,
          "midi": 86,
          "name": "D6",
          "ticks": 66560,
          "time": 103.323871,
          "velocity": 0.8110236220472441
        },
        {
          "duration": 0.39473599999999465,
          "durationTicks": 256,
          "midi": 56,
          "name": "G#3",
          "ticks": 66560,
          "time": 103.323871,
          "velocity": 0.5984251968503937
        },
        {
          "duration": 0.39473599999999465,
          "durationTicks": 256,
          "midi": 59,
          "name": "B3",
          "ticks": 66560,
          "time": 103.323871,
          "velocity": 0.5984251968503937
        },
        {
          "duration": 0.39473599999999465,
          "durationTicks": 256,
          "midi": 62,
          "name": "D4",
          "ticks": 66560,
          "time": 103.323871,
          "velocity": 0.5984251968503937
        },
        {
          "duration": 0.39473599999999465,
          "durationTicks": 256,
          "midi": 47,
          "name": "B2",
          "ticks": 66816,
          "time": 103.71860699999999,
          "velocity": 0.49606299212598426
        },
        {
          "duration": 0.39473600000000886,
          "durationTicks": 256,
          "midi": 76,
          "name": "E5",
          "ticks": 67072,
          "time": 104.11334299999999,
          "velocity": 0.4566929133858268
        },
        {
          "duration": 0.39473600000000886,
          "durationTicks": 256,
          "midi": 55,
          "name": "G3",
          "ticks": 67072,
          "time": 104.11334299999999,
          "velocity": 0.7007874015748031
        },
        {
          "duration": 0.39473600000000886,
          "durationTicks": 256,
          "midi": 59,
          "name": "B3",
          "ticks": 67072,
          "time": 104.11334299999999,
          "velocity": 0.7007874015748031
        },
        {
          "duration": 0.39473600000000886,
          "durationTicks": 256,
          "midi": 64,
          "name": "E4",
          "ticks": 67072,
          "time": 104.11334299999999,
          "velocity": 0.7007874015748031
        },
        {
          "duration": 0.4024456874999913,
          "durationTicks": 261,
          "midi": 85,
          "name": "C#6",
          "ticks": 67328,
          "time": 104.508079,
          "velocity": 0.7952755905511811
        },
        {
          "duration": 0.39473599999999465,
          "durationTicks": 256,
          "midi": 55,
          "name": "G3",
          "ticks": 67328,
          "time": 104.508079,
          "velocity": 0.5590551181102362
        },
        {
          "duration": 0.39473599999999465,
          "durationTicks": 256,
          "midi": 59,
          "name": "B3",
          "ticks": 67328,
          "time": 104.508079,
          "velocity": 0.5590551181102362
        },
        {
          "duration": 0.39473599999999465,
          "durationTicks": 256,
          "midi": 64,
          "name": "E4",
          "ticks": 67328,
          "time": 104.508079,
          "velocity": 0.5590551181102362
        },
        {
          "duration": 0.20045187499999884,
          "durationTicks": 130,
          "midi": 84,
          "name": "C6",
          "ticks": 67584,
          "time": 104.90281499999999,
          "velocity": 0.7637795275590551
        },
        {
          "duration": 0.39473599999999465,
          "durationTicks": 256,
          "midi": 47,
          "name": "B2",
          "ticks": 67584,
          "time": 104.90281499999999,
          "velocity": 0.49606299212598426
        },
        {
          "duration": 0.20045187499999884,
          "durationTicks": 130,
          "midi": 83,
          "name": "B5",
          "ticks": 67712,
          "time": 105.10018299999999,
          "velocity": 0.5748031496062992
        },
        {
          "duration": 0.20045187499999884,
          "durationTicks": 130,
          "midi": 82,
          "name": "A#5",
          "ticks": 67840,
          "time": 105.29755099999998,
          "velocity": 0.5354330708661418
        },
        {
          "duration": 0.39473600000000886,
          "durationTicks": 256,
          "midi": 54,
          "name": "F#3",
          "ticks": 67840,
          "time": 105.29755099999998,
          "velocity": 0.6850393700787402
        },
        {
          "duration": 0.39473600000000886,
          "durationTicks": 256,
          "midi": 58,
          "name": "A#3",
          "ticks": 67840,
          "time": 105.29755099999998,
          "velocity": 0.6850393700787402
        },
        {
          "duration": 0.39473600000000886,
          "durationTicks": 256,
          "midi": 64,
          "name": "E4",
          "ticks": 67840,
          "time": 105.29755099999998,
          "velocity": 0.6850393700787402
        },
        {
          "duration": 0.20045187499999884,
          "durationTicks": 130,
          "midi": 81,
          "name": "A5",
          "ticks": 67968,
          "time": 105.494919,
          "velocity": 0.5196850393700787
        },
        {
          "duration": 0.20045187499999884,
          "durationTicks": 130,
          "midi": 80,
          "name": "G#5",
          "ticks": 68096,
          "time": 105.692287,
          "velocity": 0.5511811023622047
        },
        {
          "duration": 0.39473599999999465,
          "durationTicks": 256,
          "midi": 54,
          "name": "F#3",
          "ticks": 68096,
          "time": 105.692287,
          "velocity": 0.5590551181102362
        },
        {
          "duration": 0.39473599999999465,
          "durationTicks": 256,
          "midi": 58,
          "name": "A#3",
          "ticks": 68096,
          "time": 105.692287,
          "velocity": 0.5590551181102362
        },
        {
          "duration": 0.39473599999999465,
          "durationTicks": 256,
          "midi": 64,
          "name": "E4",
          "ticks": 68096,
          "time": 105.692287,
          "velocity": 0.5590551181102362
        },
        {
          "duration": 0.20045187499999884,
          "durationTicks": 130,
          "midi": 79,
          "name": "G5",
          "ticks": 68224,
          "time": 105.88965499999999,
          "velocity": 0.5511811023622047
        },
        {
          "duration": 0.20045187499999884,
          "durationTicks": 130,
          "midi": 78,
          "name": "F#5",
          "ticks": 68352,
          "time": 106.08702299999999,
          "velocity": 0.49606299212598426
        },
        {
          "duration": 0.39473599999999465,
          "durationTicks": 256,
          "midi": 47,
          "name": "B2",
          "ticks": 68352,
          "time": 106.08702299999999,
          "velocity": 0.47244094488188976
        },
        {
          "duration": 0.20045187499999884,
          "durationTicks": 130,
          "midi": 77,
          "name": "F5",
          "ticks": 68480,
          "time": 106.28439099999999,
          "velocity": 0.5433070866141733
        },
        {
          "duration": 0.20045187500001305,
          "durationTicks": 130,
          "midi": 76,
          "name": "E5",
          "ticks": 68608,
          "time": 106.48175899999998,
          "velocity": 0.48031496062992124
        },
        {
          "duration": 0.39473600000000886,
          "durationTicks": 256,
          "midi": 54,
          "name": "F#3",
          "ticks": 68608,
          "time": 106.48175899999998,
          "velocity": 0.6377952755905512
        },
        {
          "duration": 0.39473600000000886,
          "durationTicks": 256,
          "midi": 59,
          "name": "B3",
          "ticks": 68608,
          "time": 106.48175899999998,
          "velocity": 0.6377952755905512
        },
        {
          "duration": 0.39473600000000886,
          "durationTicks": 256,
          "midi": 62,
          "name": "D4",
          "ticks": 68608,
          "time": 106.48175899999998,
          "velocity": 0.6377952755905512
        },
        {
          "duration": 0.20045187499999884,
          "durationTicks": 130,
          "midi": 74,
          "name": "D5",
          "ticks": 68736,
          "time": 106.679127,
          "velocity": 0.4645669291338583
        },
        {
          "duration": 0.20045187499999884,
          "durationTicks": 130,
          "midi": 73,
          "name": "C#5",
          "ticks": 68864,
          "time": 106.87649499999999,
          "velocity": 0.47244094488188976
        },
        {
          "duration": 0.39473599999999465,
          "durationTicks": 256,
          "midi": 54,
          "name": "F#3",
          "ticks": 68864,
          "time": 106.87649499999999,
          "velocity": 0.5118110236220472
        },
        {
          "duration": 0.39473599999999465,
          "durationTicks": 256,
          "midi": 59,
          "name": "B3",
          "ticks": 68864,
          "time": 106.87649499999999,
          "velocity": 0.5118110236220472
        },
        {
          "duration": 0.39473599999999465,
          "durationTicks": 256,
          "midi": 62,
          "name": "D4",
          "ticks": 68864,
          "time": 106.87649499999999,
          "velocity": 0.5118110236220472
        },
        {
          "duration": 0.20045187499999884,
          "durationTicks": 130,
          "midi": 71,
          "name": "B4",
          "ticks": 68992,
          "time": 107.07386299999999,
          "velocity": 0.5039370078740157
        },
        {
          "duration": 0.749381624999998,
          "durationTicks": 486,
          "midi": 70,
          "name": "A#4",
          "ticks": 69120,
          "time": 107.27123099999999,
          "velocity": 0.4251968503937008
        },
        {
          "duration": 0.39473600000000886,
          "durationTicks": 256,
          "midi": 49,
          "name": "C#3",
          "ticks": 69120,
          "time": 107.27123099999999,
          "velocity": 0.4330708661417323
        },
        {
          "duration": 0.39473599999999465,
          "durationTicks": 256,
          "midi": 54,
          "name": "F#3",
          "ticks": 69376,
          "time": 107.665967,
          "velocity": 0.5984251968503937
        },
        {
          "duration": 0.39473599999999465,
          "durationTicks": 256,
          "midi": 58,
          "name": "A#3",
          "ticks": 69376,
          "time": 107.665967,
          "velocity": 0.5984251968503937
        },
        {
          "duration": 0.39473599999999465,
          "durationTicks": 256,
          "midi": 64,
          "name": "E4",
          "ticks": 69376,
          "time": 107.665967,
          "velocity": 0.5984251968503937
        },
        {
          "duration": 0.40244568750000553,
          "durationTicks": 261,
          "midi": 79,
          "name": "G5",
          "ticks": 69632,
          "time": 108.06070299999999,
          "velocity": 0.7007874015748031
        },
        {
          "duration": 0.39473599999999465,
          "durationTicks": 256,
          "midi": 54,
          "name": "F#3",
          "ticks": 69632,
          "time": 108.06070299999999,
          "velocity": 0.49606299212598426
        },
        {
          "duration": 0.39473599999999465,
          "durationTicks": 256,
          "midi": 58,
          "name": "A#3",
          "ticks": 69632,
          "time": 108.06070299999999,
          "velocity": 0.49606299212598426
        },
        {
          "duration": 0.39473599999999465,
          "durationTicks": 256,
          "midi": 64,
          "name": "E4",
          "ticks": 69632,
          "time": 108.06070299999999,
          "velocity": 0.49606299212598426
        },
        {
          "duration": 0.20045187499999884,
          "durationTicks": 130,
          "midi": 78,
          "name": "F#5",
          "ticks": 69888,
          "time": 108.45543899999998,
          "velocity": 0.5196850393700787
        },
        {
          "duration": 0.39473600000000886,
          "durationTicks": 256,
          "midi": 46,
          "name": "A#2",
          "ticks": 69888,
          "time": 108.45543899999998,
          "velocity": 0.4409448818897638
        },
        {
          "duration": 0.20045187499999884,
          "durationTicks": 130,
          "midi": 79,
          "name": "G5",
          "ticks": 70016,
          "time": 108.652807,
          "velocity": 0.5511811023622047
        },
        {
          "duration": 0.20045187499999884,
          "durationTicks": 130,
          "midi": 78,
          "name": "F#5",
          "ticks": 70144,
          "time": 108.850175,
          "velocity": 0.5433070866141733
        },
        {
          "duration": 0.39473599999999465,
          "durationTicks": 256,
          "midi": 54,
          "name": "F#3",
          "ticks": 70144,
          "time": 108.850175,
          "velocity": 0.6456692913385826
        },
        {
          "duration": 0.39473599999999465,
          "durationTicks": 256,
          "midi": 61,
          "name": "C#4",
          "ticks": 70144,
          "time": 108.850175,
          "velocity": 0.6456692913385826
        },
        {
          "duration": 0.39473599999999465,
          "durationTicks": 256,
          "midi": 64,
          "name": "E4",
          "ticks": 70144,
          "time": 108.850175,
          "velocity": 0.6456692913385826
        },
        {
          "duration": 0.20045187499999884,
          "durationTicks": 130,
          "midi": 73,
          "name": "C#5",
          "ticks": 70272,
          "time": 109.04754299999999,
          "velocity": 0.5118110236220472
        },
        {
          "duration": 0.20045187499999884,
          "durationTicks": 130,
          "midi": 76,
          "name": "E5",
          "ticks": 70400,
          "time": 109.24491099999999,
          "velocity": 0.6850393700787402
        },
        {
          "duration": 0.39473600000000886,
          "durationTicks": 256,
          "midi": 54,
          "name": "F#3",
          "ticks": 70400,
          "time": 109.24491099999999,
          "velocity": 0.5826771653543307
        },
        {
          "duration": 0.39473600000000886,
          "durationTicks": 256,
          "midi": 61,
          "name": "C#4",
          "ticks": 70400,
          "time": 109.24491099999999,
          "velocity": 0.5826771653543307
        },
        {
          "duration": 0.39473600000000886,
          "durationTicks": 256,
          "midi": 64,
          "name": "E4",
          "ticks": 70400,
          "time": 109.24491099999999,
          "velocity": 0.5826771653543307
        },
        {
          "duration": 0.20045187499999884,
          "durationTicks": 130,
          "midi": 74,
          "name": "D5",
          "ticks": 70528,
          "time": 109.44227899999998,
          "velocity": 0.6141732283464567
        },
        {
          "duration": 0.749381624999998,
          "durationTicks": 486,
          "midi": 71,
          "name": "B4",
          "ticks": 70656,
          "time": 109.639647,
          "velocity": 0.5826771653543307
        },
        {
          "duration": 0.39473599999999465,
          "durationTicks": 256,
          "midi": 47,
          "name": "B2",
          "ticks": 70656,
          "time": 109.639647,
          "velocity": 0.5511811023622047
        },
        {
          "duration": 0.39473599999999465,
          "durationTicks": 256,
          "midi": 54,
          "name": "F#3",
          "ticks": 70912,
          "time": 110.03438299999999,
          "velocity": 0.8740157480314961
        },
        {
          "duration": 0.39473599999999465,
          "durationTicks": 256,
          "midi": 59,
          "name": "B3",
          "ticks": 70912,
          "time": 110.03438299999999,
          "velocity": 0.8740157480314961
        },
        {
          "duration": 0.39473599999999465,
          "durationTicks": 256,
          "midi": 62,
          "name": "D4",
          "ticks": 70912,
          "time": 110.03438299999999,
          "velocity": 0.8740157480314961
        },
        {
          "duration": 0.40244568750000553,
          "durationTicks": 261,
          "midi": 78,
          "name": "F#5",
          "ticks": 71168,
          "time": 110.42911899999999,
          "velocity": 0.8503937007874016
        },
        {
          "duration": 0.39473600000000886,
          "durationTicks": 256,
          "midi": 54,
          "name": "F#3",
          "ticks": 71168,
          "time": 110.42911899999999,
          "velocity": 0.7716535433070866
        },
        {
          "duration": 0.39473600000000886,
          "durationTicks": 256,
          "midi": 59,
          "name": "B3",
          "ticks": 71168,
          "time": 110.42911899999999,
          "velocity": 0.7716535433070866
        },
        {
          "duration": 0.39473600000000886,
          "durationTicks": 256,
          "midi": 62,
          "name": "D4",
          "ticks": 71168,
          "time": 110.42911899999999,
          "velocity": 0.7716535433070866
        },
        {
          "duration": 0.20045187499999884,
          "durationTicks": 130,
          "midi": 90,
          "name": "F#6",
          "ticks": 71424,
          "time": 110.823855,
          "velocity": 1
        },
        {
          "duration": 0.3746908124999919,
          "durationTicks": 243,
          "midi": 50,
          "name": "D3",
          "ticks": 71424,
          "time": 110.823855,
          "velocity": 0.6456692913385826
        },
        {
          "duration": 0.20045187499999884,
          "durationTicks": 130,
          "midi": 85,
          "name": "C#6",
          "ticks": 71552,
          "time": 111.02122299999999,
          "velocity": 0.8976377952755905
        },
        {
          "duration": 0.20045187499999884,
          "durationTicks": 130,
          "midi": 86,
          "name": "D6",
          "ticks": 71680,
          "time": 111.21859099999999,
          "velocity": 0.7716535433070866
        },
        {
          "duration": 0.39473599999999465,
          "durationTicks": 256,
          "midi": 54,
          "name": "F#3",
          "ticks": 71680,
          "time": 111.21859099999999,
          "velocity": 0.937007874015748
        },
        {
          "duration": 0.39473599999999465,
          "durationTicks": 256,
          "midi": 59,
          "name": "B3",
          "ticks": 71680,
          "time": 111.21859099999999,
          "velocity": 0.937007874015748
        },
        {
          "duration": 0.39473599999999465,
          "durationTicks": 256,
          "midi": 62,
          "name": "D4",
          "ticks": 71680,
          "time": 111.21859099999999,
          "velocity": 0.937007874015748
        },
        {
          "duration": 0.20045187499999884,
          "durationTicks": 130,
          "midi": 82,
          "name": "A#5",
          "ticks": 71808,
          "time": 111.41595899999999,
          "velocity": 0.6929133858267716
        },
        {
          "duration": 0.20045187499999884,
          "durationTicks": 130,
          "midi": 83,
          "name": "B5",
          "ticks": 71936,
          "time": 111.61332699999998,
          "velocity": 0.7559055118110236
        },
        {
          "duration": 0.39473600000000886,
          "durationTicks": 256,
          "midi": 54,
          "name": "F#3",
          "ticks": 71936,
          "time": 111.61332699999998,
          "velocity": 0.8346456692913385
        },
        {
          "duration": 0.39473600000000886,
          "durationTicks": 256,
          "midi": 59,
          "name": "B3",
          "ticks": 71936,
          "time": 111.61332699999998,
          "velocity": 0.8346456692913385
        },
        {
          "duration": 0.39473600000000886,
          "durationTicks": 256,
          "midi": 62,
          "name": "D4",
          "ticks": 71936,
          "time": 111.61332699999998,
          "velocity": 0.8346456692913385
        },
        {
          "duration": 0.18657443749999914,
          "durationTicks": 121,
          "midi": 78,
          "name": "F#5",
          "ticks": 72064,
          "time": 111.810695,
          "velocity": 0.6850393700787402
        },
        {
          "duration": 0.20045187499999884,
          "durationTicks": 130,
          "midi": 81,
          "name": "A5",
          "ticks": 72192,
          "time": 112.00806299999999,
          "velocity": 0.8031496062992126
        },
        {
          "duration": 0.3746908124999919,
          "durationTicks": 243,
          "midi": 52,
          "name": "E3",
          "ticks": 72192,
          "time": 112.00806299999999,
          "velocity": 0.6692913385826772
        },
        {
          "duration": 0.20045187499999884,
          "durationTicks": 130,
          "midi": 79,
          "name": "G5",
          "ticks": 72320,
          "time": 112.20543099999999,
          "velocity": 0.6850393700787402
        },
        {
          "duration": 0.20045187499999884,
          "durationTicks": 130,
          "midi": 71,
          "name": "B4",
          "ticks": 72448,
          "time": 112.40279899999999,
          "velocity": 0.5669291338582677
        },
        {
          "duration": 0.39473599999999465,
          "durationTicks": 256,
          "midi": 55,
          "name": "G3",
          "ticks": 72448,
          "time": 112.40279899999999,
          "velocity": 0.8661417322834646
        },
        {
          "duration": 0.39473599999999465,
          "durationTicks": 256,
          "midi": 61,
          "name": "C#4",
          "ticks": 72448,
          "time": 112.40279899999999,
          "velocity": 0.8661417322834646
        },
        {
          "duration": 0.20045187499999884,
          "durationTicks": 130,
          "midi": 73,
          "name": "C#5",
          "ticks": 72576,
          "time": 112.60016699999998,
          "velocity": 0.7086614173228346
        },
        {
          "duration": 0.20045187500001305,
          "durationTicks": 130,
          "midi": 76,
          "name": "E5",
          "ticks": 72704,
          "time": 112.79753499999998,
          "velocity": 0.7559055118110236
        },
        {
          "duration": 0.18657443749999914,
          "durationTicks": 121,
          "midi": 79,
          "name": "G5",
          "ticks": 72832,
          "time": 112.994903,
          "velocity": 0.7165354330708661
        },
        {
          "duration": 0.20045187499999884,
          "durationTicks": 130,
          "midi": 79,
          "name": "G5",
          "ticks": 72960,
          "time": 113.19227099999999,
          "velocity": 0.6614173228346457
        },
        {
          "duration": 1.1842079999999982,
          "durationTicks": 768,
          "midi": 54,
          "name": "F#3",
          "ticks": 72960,
          "time": 113.19227099999999,
          "velocity": 0.5433070866141733
        },
        {
          "duration": 0.20045187499999884,
          "durationTicks": 130,
          "midi": 78,
          "name": "F#5",
          "ticks": 73088,
          "time": 113.38963899999999,
          "velocity": 0.6377952755905512
        },
        {
          "duration": 0.20045187499999884,
          "durationTicks": 130,
          "midi": 71,
          "name": "B4",
          "ticks": 73216,
          "time": 113.58700699999999,
          "velocity": 0.4409448818897638
        },
        {
          "duration": 0.39473600000000886,
          "durationTicks": 256,
          "midi": 59,
          "name": "B3",
          "ticks": 73216,
          "time": 113.58700699999999,
          "velocity": 0.7165354330708661
        },
        {
          "duration": 0.39473600000000886,
          "durationTicks": 256,
          "midi": 62,
          "name": "D4",
          "ticks": 73216,
          "time": 113.58700699999999,
          "velocity": 0.7165354330708661
        },
        {
          "duration": 0.20045187500001305,
          "durationTicks": 130,
          "midi": 74,
          "name": "D5",
          "ticks": 73344,
          "time": 113.78437499999998,
          "velocity": 0.5984251968503937
        },
        {
          "duration": 0.20045187499999884,
          "durationTicks": 130,
          "midi": 73,
          "name": "C#5",
          "ticks": 73472,
          "time": 113.981743,
          "velocity": 0.4881889763779528
        },
        {
          "duration": 0.39473599999999465,
          "durationTicks": 256,
          "midi": 58,
          "name": "A#3",
          "ticks": 73472,
          "time": 113.981743,
          "velocity": 0.7795275590551181
        },
        {
          "duration": 0.39473599999999465,
          "durationTicks": 256,
          "midi": 64,
          "name": "E4",
          "ticks": 73472,
          "time": 113.981743,
          "velocity": 0.7795275590551181
        },
        {
          "duration": 0.20045187499999884,
          "durationTicks": 130,
          "midi": 66,
          "name": "F#4",
          "ticks": 73600,
          "time": 114.17911099999999,
          "velocity": 0.4409448818897638
        },
        {
          "duration": 0.37469081250000613,
          "durationTicks": 243,
          "midi": 71,
          "name": "B4",
          "ticks": 73728,
          "time": 114.37647899999999,
          "velocity": 0.5118110236220472
        },
        {
          "duration": 0.39473599999999465,
          "durationTicks": 256,
          "midi": 59,
          "name": "B3",
          "ticks": 73728,
          "time": 114.37647899999999,
          "velocity": 0.5511811023622047
        },
        {
          "duration": 0.39473599999999465,
          "durationTicks": 256,
          "midi": 62,
          "name": "D4",
          "ticks": 73728,
          "time": 114.37647899999999,
          "velocity": 0.5511811023622047
        },
        {
          "duration": 0.39473600000000886,
          "durationTicks": 256,
          "midi": 47,
          "name": "B2",
          "ticks": 73984,
          "time": 114.77121499999998,
          "velocity": 0.41732283464566927
        },
        {
          "duration": 0.39473599999999465,
          "durationTicks": 256,
          "midi": 66,
          "name": "F#4",
          "ticks": 74240,
          "time": 115.16595099999999,
          "velocity": 0.4409448818897638
        },
        {
          "duration": 0.20045187499999884,
          "durationTicks": 130,
          "midi": 75,
          "name": "D#5",
          "ticks": 74496,
          "time": 115.56068699999999,
          "velocity": 0.7874015748031497
        },
        {
          "duration": 0.39473600000000886,
          "durationTicks": 256,
          "midi": 47,
          "name": "B2",
          "ticks": 74496,
          "time": 115.56068699999999,
          "velocity": 0.5826771653543307
        },
        {
          "duration": 0.20045187499999884,
          "durationTicks": 130,
          "midi": 76,
          "name": "E5",
          "ticks": 74624,
          "time": 115.75805499999998,
          "velocity": 0.8346456692913385
        },
        {
          "duration": 0.20045187499999884,
          "durationTicks": 130,
          "midi": 75,
          "name": "D#5",
          "ticks": 74752,
          "time": 115.955423,
          "velocity": 0.6535433070866141
        },
        {
          "duration": 0.39473599999999465,
          "durationTicks": 256,
          "midi": 54,
          "name": "F#3",
          "ticks": 74752,
          "time": 115.955423,
          "velocity": 0.8346456692913385
        },
        {
          "duration": 0.39473599999999465,
          "durationTicks": 256,
          "midi": 59,
          "name": "B3",
          "ticks": 74752,
          "time": 115.955423,
          "velocity": 0.8346456692913385
        },
        {
          "duration": 0.39473599999999465,
          "durationTicks": 256,
          "midi": 63,
          "name": "D#4",
          "ticks": 74752,
          "time": 115.955423,
          "velocity": 0.8346456692913385
        },
        {
          "duration": 0.20045187499999884,
          "durationTicks": 130,
          "midi": 73,
          "name": "C#5",
          "ticks": 74880,
          "time": 116.152791,
          "velocity": 0.6299212598425197
        },
        {
          "duration": 0.20045187499999884,
          "durationTicks": 130,
          "midi": 75,
          "name": "D#5",
          "ticks": 75008,
          "time": 116.35015899999999,
          "velocity": 0.6929133858267716
        },
        {
          "duration": 0.39473599999999465,
          "durationTicks": 256,
          "midi": 54,
          "name": "F#3",
          "ticks": 75008,
          "time": 116.35015899999999,
          "velocity": 0.6929133858267716
        },
        {
          "duration": 0.39473599999999465,
          "durationTicks": 256,
          "midi": 59,
          "name": "B3",
          "ticks": 75008,
          "time": 116.35015899999999,
          "velocity": 0.6929133858267716
        },
        {
          "duration": 0.39473599999999465,
          "durationTicks": 256,
          "midi": 63,
          "name": "D#4",
          "ticks": 75008,
          "time": 116.35015899999999,
          "velocity": 0.6929133858267716
        },
        {
          "duration": 0.18657443749999914,
          "durationTicks": 121,
          "midi": 76,
          "name": "E5",
          "ticks": 75136,
          "time": 116.54752699999999,
          "velocity": 0.7244094488188977
        },
        {
          "duration": 0.8048913749999969,
          "durationTicks": 522,
          "midi": 80,
          "name": "G#5",
          "ticks": 75264,
          "time": 116.74489499999999,
          "velocity": 0.7637795275590551
        },
        {
          "duration": 0.39473600000000886,
          "durationTicks": 256,
          "midi": 46,
          "name": "A#2",
          "ticks": 75264,
          "time": 116.74489499999999,
          "velocity": 0.5905511811023622
        },
        {
          "duration": 0.39473599999999465,
          "durationTicks": 256,
          "midi": 54,
          "name": "F#3",
          "ticks": 75520,
          "time": 117.139631,
          "velocity": 0.8031496062992126
        },
        {
          "duration": 0.39473599999999465,
          "durationTicks": 256,
          "midi": 61,
          "name": "C#4",
          "ticks": 75520,
          "time": 117.139631,
          "velocity": 0.8031496062992126
        },
        {
          "duration": 0.39473599999999465,
          "durationTicks": 256,
          "midi": 64,
          "name": "E4",
          "ticks": 75520,
          "time": 117.139631,
          "velocity": 0.8031496062992126
        },
        {
          "duration": 0.37469081250000613,
          "durationTicks": 243,
          "midi": 78,
          "name": "F#5",
          "ticks": 75776,
          "time": 117.53436699999999,
          "velocity": 0.7244094488188977
        },
        {
          "duration": 0.39473599999999465,
          "durationTicks": 256,
          "midi": 54,
          "name": "F#3",
          "ticks": 75776,
          "time": 117.53436699999999,
          "velocity": 0.6692913385826772
        },
        {
          "duration": 0.39473599999999465,
          "durationTicks": 256,
          "midi": 61,
          "name": "C#4",
          "ticks": 75776,
          "time": 117.53436699999999,
          "velocity": 0.6692913385826772
        },
        {
          "duration": 0.39473599999999465,
          "durationTicks": 256,
          "midi": 64,
          "name": "E4",
          "ticks": 75776,
          "time": 117.53436699999999,
          "velocity": 0.6692913385826772
        },
        {
          "duration": 0.20045187499999884,
          "durationTicks": 130,
          "midi": 75,
          "name": "D#5",
          "ticks": 76032,
          "time": 117.92910299999998,
          "velocity": 0.6377952755905512
        },
        {
          "duration": 0.39473600000000886,
          "durationTicks": 256,
          "midi": 47,
          "name": "B2",
          "ticks": 76032,
          "time": 117.92910299999998,
          "velocity": 0.5590551181102362
        },
        {
          "duration": 0.20045187499999884,
          "durationTicks": 130,
          "midi": 76,
          "name": "E5",
          "ticks": 76160,
          "time": 118.126471,
          "velocity": 0.6850393700787402
        },
        {
          "duration": 0.20045187499999884,
          "durationTicks": 130,
          "midi": 75,
          "name": "D#5",
          "ticks": 76288,
          "time": 118.32383899999999,
          "velocity": 0.6220472440944882
        },
        {
          "duration": 0.39473599999999465,
          "durationTicks": 256,
          "midi": 54,
          "name": "F#3",
          "ticks": 76288,
          "time": 118.32383899999999,
          "velocity": 0.8267716535433071
        },
        {
          "duration": 0.39473599999999465,
          "durationTicks": 256,
          "midi": 59,
          "name": "B3",
          "ticks": 76288,
          "time": 118.32383899999999,
          "velocity": 0.8267716535433071
        },
        {
          "duration": 0.39473599999999465,
          "durationTicks": 256,
          "midi": 63,
          "name": "D#4",
          "ticks": 76288,
          "time": 118.32383899999999,
          "velocity": 0.8267716535433071
        },
        {
          "duration": 0.20045187499999884,
          "durationTicks": 130,
          "midi": 73,
          "name": "C#5",
          "ticks": 76416,
          "time": 118.52120699999999,
          "velocity": 0.6141732283464567
        },
        {
          "duration": 0.20045187499999884,
          "durationTicks": 130,
          "midi": 75,
          "name": "D#5",
          "ticks": 76544,
          "time": 118.71857499999999,
          "velocity": 0.7244094488188977
        },
        {
          "duration": 0.39473599999999465,
          "durationTicks": 256,
          "midi": 54,
          "name": "F#3",
          "ticks": 76544,
          "time": 118.71857499999999,
          "velocity": 0.7165354330708661
        },
        {
          "duration": 0.39473599999999465,
          "durationTicks": 256,
          "midi": 59,
          "name": "B3",
          "ticks": 76544,
          "time": 118.71857499999999,
          "velocity": 0.7165354330708661
        },
        {
          "duration": 0.39473599999999465,
          "durationTicks": 256,
          "midi": 63,
          "name": "D#4",
          "ticks": 76544,
          "time": 118.71857499999999,
          "velocity": 0.7165354330708661
        },
        {
          "duration": 0.18657443749999914,
          "durationTicks": 121,
          "midi": 76,
          "name": "E5",
          "ticks": 76672,
          "time": 118.91594299999998,
          "velocity": 0.7480314960629921
        },
        {
          "duration": 0.8048913750000111,
          "durationTicks": 522,
          "midi": 80,
          "name": "G#5",
          "ticks": 76800,
          "time": 119.11331099999998,
          "velocity": 0.7480314960629921
        },
        {
          "duration": 0.39473600000000886,
          "durationTicks": 256,
          "midi": 46,
          "name": "A#2",
          "ticks": 76800,
          "time": 119.11331099999998,
          "velocity": 0.5590551181102362
        },
        {
          "duration": 0.39473599999999465,
          "durationTicks": 256,
          "midi": 54,
          "name": "F#3",
          "ticks": 77056,
          "time": 119.50804699999999,
          "velocity": 0.8503937007874016
        },
        {
          "duration": 0.39473599999999465,
          "durationTicks": 256,
          "midi": 61,
          "name": "C#4",
          "ticks": 77056,
          "time": 119.50804699999999,
          "velocity": 0.8503937007874016
        },
        {
          "duration": 0.39473599999999465,
          "durationTicks": 256,
          "midi": 64,
          "name": "E4",
          "ticks": 77056,
          "time": 119.50804699999999,
          "velocity": 0.8503937007874016
        },
        {
          "duration": 0.37469081250000613,
          "durationTicks": 243,
          "midi": 78,
          "name": "F#5",
          "ticks": 77312,
          "time": 119.90278299999999,
          "velocity": 0.7086614173228346
        },
        {
          "duration": 0.39473600000000886,
          "durationTicks": 256,
          "midi": 54,
          "name": "F#3",
          "ticks": 77312,
          "time": 119.90278299999999,
          "velocity": 0.6850393700787402
        },
        {
          "duration": 0.39473600000000886,
          "durationTicks": 256,
          "midi": 61,
          "name": "C#4",
          "ticks": 77312,
          "time": 119.90278299999999,
          "velocity": 0.6850393700787402
        },
        {
          "duration": 0.39473600000000886,
          "durationTicks": 256,
          "midi": 64,
          "name": "E4",
          "ticks": 77312,
          "time": 119.90278299999999,
          "velocity": 0.6850393700787402
        },
        {
          "duration": 0.4024456874999913,
          "durationTicks": 261,
          "midi": 78,
          "name": "F#5",
          "ticks": 77568,
          "time": 120.297519,
          "velocity": 0.6692913385826772
        },
        {
          "duration": 0.39473599999999465,
          "durationTicks": 256,
          "midi": 47,
          "name": "B2",
          "ticks": 77568,
          "time": 120.297519,
          "velocity": 0.5590551181102362
        },
        {
          "duration": 0.28063262499999553,
          "durationTicks": 182,
          "midi": 87,
          "name": "D#6",
          "ticks": 77824,
          "time": 120.69225499999999,
          "velocity": 0.8267716535433071
        },
        {
          "duration": 0.39473599999999465,
          "durationTicks": 256,
          "midi": 54,
          "name": "F#3",
          "ticks": 77824,
          "time": 120.69225499999999,
          "velocity": 0.8110236220472441
        },
        {
          "duration": 0.39473599999999465,
          "durationTicks": 256,
          "midi": 59,
          "name": "B3",
          "ticks": 77824,
          "time": 120.69225499999999,
          "velocity": 0.8110236220472441
        },
        {
          "duration": 0.39473599999999465,
          "durationTicks": 256,
          "midi": 63,
          "name": "D#4",
          "ticks": 77824,
          "time": 120.69225499999999,
          "velocity": 0.8110236220472441
        },
        {
          "duration": 0.09868399999999156,
          "durationTicks": 64,
          "midi": 87,
          "name": "D#6",
          "ticks": 78016,
          "time": 120.98830699999999,
          "velocity": 0.6692913385826772
        },
        {
          "duration": 0.39473600000000886,
          "durationTicks": 256,
          "midi": 87,
          "name": "D#6",
          "ticks": 78080,
          "time": 121.08699099999998,
          "velocity": 0.7795275590551181
        },
        {
          "duration": 0.39473600000000886,
          "durationTicks": 256,
          "midi": 54,
          "name": "F#3",
          "ticks": 78080,
          "time": 121.08699099999998,
          "velocity": 0.6929133858267716
        },
        {
          "duration": 0.39473600000000886,
          "durationTicks": 256,
          "midi": 59,
          "name": "B3",
          "ticks": 78080,
          "time": 121.08699099999998,
          "velocity": 0.6929133858267716
        },
        {
          "duration": 0.39473600000000886,
          "durationTicks": 256,
          "midi": 63,
          "name": "D#4",
          "ticks": 78080,
          "time": 121.08699099999998,
          "velocity": 0.6929133858267716
        },
        {
          "duration": 0.4024456874999913,
          "durationTicks": 261,
          "midi": 85,
          "name": "C#6",
          "ticks": 78336,
          "time": 121.48172699999999,
          "velocity": 0.5826771653543307
        },
        {
          "duration": 0.39473599999999465,
          "durationTicks": 256,
          "midi": 42,
          "name": "F#2",
          "ticks": 78336,
          "time": 121.48172699999999,
          "velocity": 0.5354330708661418
        },
        {
          "duration": 0.28063262499999553,
          "durationTicks": 182,
          "midi": 76,
          "name": "E5",
          "ticks": 78592,
          "time": 121.87646299999999,
          "velocity": 0.4645669291338583
        },
        {
          "duration": 0.39473600000000886,
          "durationTicks": 256,
          "midi": 54,
          "name": "F#3",
          "ticks": 78592,
          "time": 121.87646299999999,
          "velocity": 0.8346456692913385
        },
        {
          "duration": 0.39473600000000886,
          "durationTicks": 256,
          "midi": 58,
          "name": "A#3",
          "ticks": 78592,
          "time": 121.87646299999999,
          "velocity": 0.8346456692913385
        },
        {
          "duration": 0.39473600000000886,
          "durationTicks": 256,
          "midi": 64,
          "name": "E4",
          "ticks": 78592,
          "time": 121.87646299999999,
          "velocity": 0.8346456692913385
        },
        {
          "duration": 0.09868400000000577,
          "durationTicks": 64,
          "midi": 76,
          "name": "E5",
          "ticks": 78784,
          "time": 122.17251499999999,
          "velocity": 0.6220472440944882
        },
        {
          "duration": 0.39473599999999465,
          "durationTicks": 256,
          "midi": 76,
          "name": "E5",
          "ticks": 78848,
          "time": 122.271199,
          "velocity": 0.7795275590551181
        },
        {
          "duration": 0.39473599999999465,
          "durationTicks": 256,
          "midi": 54,
          "name": "F#3",
          "ticks": 78848,
          "time": 122.271199,
          "velocity": 0.6850393700787402
        },
        {
          "duration": 0.39473599999999465,
          "durationTicks": 256,
          "midi": 58,
          "name": "A#3",
          "ticks": 78848,
          "time": 122.271199,
          "velocity": 0.6850393700787402
        },
        {
          "duration": 0.39473599999999465,
          "durationTicks": 256,
          "midi": 64,
          "name": "E4",
          "ticks": 78848,
          "time": 122.271199,
          "velocity": 0.6850393700787402
        },
        {
          "duration": 0.4024456874999913,
          "durationTicks": 261,
          "midi": 75,
          "name": "D#5",
          "ticks": 79104,
          "time": 122.66593499999999,
          "velocity": 0.5905511811023622
        },
        {
          "duration": 0.39473599999999465,
          "durationTicks": 256,
          "midi": 47,
          "name": "B2",
          "ticks": 79104,
          "time": 122.66593499999999,
          "velocity": 0.5590551181102362
        },
        {
          "duration": 0.28063262500000974,
          "durationTicks": 182,
          "midi": 83,
          "name": "B5",
          "ticks": 79360,
          "time": 123.06067099999999,
          "velocity": 0.6929133858267716
        },
        {
          "duration": 0.39473600000000886,
          "durationTicks": 256,
          "midi": 54,
          "name": "F#3",
          "ticks": 79360,
          "time": 123.06067099999999,
          "velocity": 0.8188976377952756
        },
        {
          "duration": 0.39473600000000886,
          "durationTicks": 256,
          "midi": 59,
          "name": "B3",
          "ticks": 79360,
          "time": 123.06067099999999,
          "velocity": 0.8188976377952756
        },
        {
          "duration": 0.39473600000000886,
          "durationTicks": 256,
          "midi": 63,
          "name": "D#4",
          "ticks": 79360,
          "time": 123.06067099999999,
          "velocity": 0.8188976377952756
        },
        {
          "duration": 0.09868400000000577,
          "durationTicks": 64,
          "midi": 83,
          "name": "B5",
          "ticks": 79552,
          "time": 123.35672299999999,
          "velocity": 0.6692913385826772
        },
        {
          "duration": 0.39473599999999465,
          "durationTicks": 256,
          "midi": 83,
          "name": "B5",
          "ticks": 79616,
          "time": 123.455407,
          "velocity": 0.7874015748031497
        },
        {
          "duration": 0.39473599999999465,
          "durationTicks": 256,
          "midi": 54,
          "name": "F#3",
          "ticks": 79616,
          "time": 123.455407,
          "velocity": 0.6771653543307087
        },
        {
          "duration": 0.39473599999999465,
          "durationTicks": 256,
          "midi": 59,
          "name": "B3",
          "ticks": 79616,
          "time": 123.455407,
          "velocity": 0.6771653543307087
        },
        {
          "duration": 0.39473599999999465,
          "durationTicks": 256,
          "midi": 63,
          "name": "D#4",
          "ticks": 79616,
          "time": 123.455407,
          "velocity": 0.6771653543307087
        },
        {
          "duration": 0.40244568750000553,
          "durationTicks": 261,
          "midi": 82,
          "name": "A#5",
          "ticks": 79872,
          "time": 123.85014299999999,
          "velocity": 0.6377952755905512
        },
        {
          "duration": 0.39473599999999465,
          "durationTicks": 256,
          "midi": 42,
          "name": "F#2",
          "ticks": 79872,
          "time": 123.85014299999999,
          "velocity": 0.5984251968503937
        },
        {
          "duration": 0.28063262500000974,
          "durationTicks": 182,
          "midi": 73,
          "name": "C#5",
          "ticks": 80128,
          "time": 124.24487899999998,
          "velocity": 0.5039370078740157
        },
        {
          "duration": 0.39473600000000886,
          "durationTicks": 256,
          "midi": 54,
          "name": "F#3",
          "ticks": 80128,
          "time": 124.24487899999998,
          "velocity": 0.84251968503937
        },
        {
          "duration": 0.39473600000000886,
          "durationTicks": 256,
          "midi": 58,
          "name": "A#3",
          "ticks": 80128,
          "time": 124.24487899999998,
          "velocity": 0.84251968503937
        },
        {
          "duration": 0.39473600000000886,
          "durationTicks": 256,
          "midi": 64,
          "name": "E4",
          "ticks": 80128,
          "time": 124.24487899999998,
          "velocity": 0.84251968503937
        },
        {
          "duration": 0.09868400000000577,
          "durationTicks": 64,
          "midi": 73,
          "name": "C#5",
          "ticks": 80320,
          "time": 124.54093099999999,
          "velocity": 0.6062992125984252
        },
        {
          "duration": 0.39473599999999465,
          "durationTicks": 256,
          "midi": 76,
          "name": "E5",
          "ticks": 80384,
          "time": 124.63961499999999,
          "velocity": 0.8740157480314961
        },
        {
          "duration": 0.39473599999999465,
          "durationTicks": 256,
          "midi": 54,
          "name": "F#3",
          "ticks": 80384,
          "time": 124.63961499999999,
          "velocity": 0.7007874015748031
        },
        {
          "duration": 0.39473599999999465,
          "durationTicks": 256,
          "midi": 58,
          "name": "A#3",
          "ticks": 80384,
          "time": 124.63961499999999,
          "velocity": 0.7007874015748031
        },
        {
          "duration": 0.39473599999999465,
          "durationTicks": 256,
          "midi": 64,
          "name": "E4",
          "ticks": 80384,
          "time": 124.63961499999999,
          "velocity": 0.7007874015748031
        },
        {
          "duration": 0.20045187499999884,
          "durationTicks": 130,
          "midi": 75,
          "name": "D#5",
          "ticks": 80640,
          "time": 125.03435099999999,
          "velocity": 0.6299212598425197
        },
        {
          "duration": 0.39473599999999465,
          "durationTicks": 256,
          "midi": 47,
          "name": "B2",
          "ticks": 80640,
          "time": 125.03435099999999,
          "velocity": 0.5984251968503937
        },
        {
          "duration": 0.20045187499999884,
          "durationTicks": 130,
          "midi": 76,
          "name": "E5",
          "ticks": 80768,
          "time": 125.23171899999998,
          "velocity": 0.6535433070866141
        },
        {
          "duration": 0.20045187500001305,
          "durationTicks": 130,
          "midi": 75,
          "name": "D#5",
          "ticks": 80896,
          "time": 125.42908699999998,
          "velocity": 0.6220472440944882
        },
        {
          "duration": 0.39473600000000886,
          "durationTicks": 256,
          "midi": 54,
          "name": "F#3",
          "ticks": 80896,
          "time": 125.42908699999998,
          "velocity": 0.8503937007874016
        },
        {
          "duration": 0.39473600000000886,
          "durationTicks": 256,
          "midi": 59,
          "name": "B3",
          "ticks": 80896,
          "time": 125.42908699999998,
          "velocity": 0.8503937007874016
        },
        {
          "duration": 0.39473600000000886,
          "durationTicks": 256,
          "midi": 63,
          "name": "D#4",
          "ticks": 80896,
          "time": 125.42908699999998,
          "velocity": 0.8503937007874016
        },
        {
          "duration": 0.20045187499999884,
          "durationTicks": 130,
          "midi": 73,
          "name": "C#5",
          "ticks": 81024,
          "time": 125.62645499999999,
          "velocity": 0.5669291338582677
        },
        {
          "duration": 0.20045187499999884,
          "durationTicks": 130,
          "midi": 75,
          "name": "D#5",
          "ticks": 81152,
          "time": 125.82382299999999,
          "velocity": 0.7007874015748031
        },
        {
          "duration": 0.39473599999999465,
          "durationTicks": 256,
          "midi": 54,
          "name": "F#3",
          "ticks": 81152,
          "time": 125.82382299999999,
          "velocity": 0.6929133858267716
        },
        {
          "duration": 0.39473599999999465,
          "durationTicks": 256,
          "midi": 59,
          "name": "B3",
          "ticks": 81152,
          "time": 125.82382299999999,
          "velocity": 0.6929133858267716
        },
        {
          "duration": 0.39473599999999465,
          "durationTicks": 256,
          "midi": 63,
          "name": "D#4",
          "ticks": 81152,
          "time": 125.82382299999999,
          "velocity": 0.6929133858267716
        },
        {
          "duration": 0.18657443749999914,
          "durationTicks": 121,
          "midi": 76,
          "name": "E5",
          "ticks": 81280,
          "time": 126.02119099999999,
          "velocity": 0.7322834645669292
        },
        {
          "duration": 0.8048913749999969,
          "durationTicks": 522,
          "midi": 80,
          "name": "G#5",
          "ticks": 81408,
          "time": 126.21855899999998,
          "velocity": 0.7637795275590551
        },
        {
          "duration": 0.39473600000000886,
          "durationTicks": 256,
          "midi": 46,
          "name": "A#2",
          "ticks": 81408,
          "time": 126.21855899999998,
          "velocity": 0.5433070866141733
        },
        {
          "duration": 0.39473599999999465,
          "durationTicks": 256,
          "midi": 54,
          "name": "F#3",
          "ticks": 81664,
          "time": 126.613295,
          "velocity": 0.8031496062992126
        },
        {
          "duration": 0.39473599999999465,
          "durationTicks": 256,
          "midi": 61,
          "name": "C#4",
          "ticks": 81664,
          "time": 126.613295,
          "velocity": 0.8031496062992126
        },
        {
          "duration": 0.39473599999999465,
          "durationTicks": 256,
          "midi": 64,
          "name": "E4",
          "ticks": 81664,
          "time": 126.613295,
          "velocity": 0.8031496062992126
        },
        {
          "duration": 0.37469081250000613,
          "durationTicks": 243,
          "midi": 78,
          "name": "F#5",
          "ticks": 81920,
          "time": 127.00803099999999,
          "velocity": 0.7244094488188977
        },
        {
          "duration": 0.39473599999999465,
          "durationTicks": 256,
          "midi": 54,
          "name": "F#3",
          "ticks": 81920,
          "time": 127.00803099999999,
          "velocity": 0.7007874015748031
        },
        {
          "duration": 0.39473599999999465,
          "durationTicks": 256,
          "midi": 61,
          "name": "C#4",
          "ticks": 81920,
          "time": 127.00803099999999,
          "velocity": 0.7007874015748031
        },
        {
          "duration": 0.39473599999999465,
          "durationTicks": 256,
          "midi": 64,
          "name": "E4",
          "ticks": 81920,
          "time": 127.00803099999999,
          "velocity": 0.7007874015748031
        },
        {
          "duration": 0.20045187499999884,
          "durationTicks": 130,
          "midi": 75,
          "name": "D#5",
          "ticks": 82176,
          "time": 127.40276699999998,
          "velocity": 0.5984251968503937
        },
        {
          "duration": 0.39473600000000886,
          "durationTicks": 256,
          "midi": 47,
          "name": "B2",
          "ticks": 82176,
          "time": 127.40276699999998,
          "velocity": 0.6141732283464567
        },
        {
          "duration": 0.20045187499999884,
          "durationTicks": 130,
          "midi": 76,
          "name": "E5",
          "ticks": 82304,
          "time": 127.600135,
          "velocity": 0.6141732283464567
        },
        {
          "duration": 0.20045187499999884,
          "durationTicks": 130,
          "midi": 75,
          "name": "D#5",
          "ticks": 82432,
          "time": 127.79750299999999,
          "velocity": 0.6535433070866141
        },
        {
          "duration": 0.39473599999998044,
          "durationTicks": 256,
          "midi": 54,
          "name": "F#3",
          "ticks": 82432,
          "time": 127.79750299999999,
          "velocity": 0.84251968503937
        },
        {
          "duration": 0.39473599999998044,
          "durationTicks": 256,
          "midi": 59,
          "name": "B3",
          "ticks": 82432,
          "time": 127.79750299999999,
          "velocity": 0.84251968503937
        },
        {
          "duration": 0.39473599999998044,
          "durationTicks": 256,
          "midi": 63,
          "name": "D#4",
          "ticks": 82432,
          "time": 127.79750299999999,
          "velocity": 0.84251968503937
        },
        {
          "duration": 0.20045187499999884,
          "durationTicks": 130,
          "midi": 73,
          "name": "C#5",
          "ticks": 82560,
          "time": 127.99487099999999,
          "velocity": 0.6062992125984252
        },
        {
          "duration": 0.20045187499999884,
          "durationTicks": 130,
          "midi": 75,
          "name": "D#5",
          "ticks": 82688,
          "time": 128.19223899999997,
          "velocity": 0.7165354330708661
        },
        {
          "duration": 0.39473600000002307,
          "durationTicks": 256,
          "midi": 54,
          "name": "F#3",
          "ticks": 82688,
          "time": 128.19223899999997,
          "velocity": 0.7086614173228346
        },
        {
          "duration": 0.39473600000002307,
          "durationTicks": 256,
          "midi": 59,
          "name": "B3",
          "ticks": 82688,
          "time": 128.19223899999997,
          "velocity": 0.7086614173228346
        },
        {
          "duration": 0.39473600000002307,
          "durationTicks": 256,
          "midi": 63,
          "name": "D#4",
          "ticks": 82688,
          "time": 128.19223899999997,
          "velocity": 0.7086614173228346
        },
        {
          "duration": 0.18657443750001335,
          "durationTicks": 121,
          "midi": 76,
          "name": "E5",
          "ticks": 82816,
          "time": 128.38960699999998,
          "velocity": 0.7244094488188977
        },
        {
          "duration": 0.8048913750000111,
          "durationTicks": 522,
          "midi": 80,
          "name": "G#5",
          "ticks": 82944,
          "time": 128.586975,
          "velocity": 0.7165354330708661
        },
        {
          "duration": 0.39473599999999465,
          "durationTicks": 256,
          "midi": 46,
          "name": "A#2",
          "ticks": 82944,
          "time": 128.586975,
          "velocity": 0.5669291338582677
        },
        {
          "duration": 0.39473599999999465,
          "durationTicks": 256,
          "midi": 54,
          "name": "F#3",
          "ticks": 83200,
          "time": 128.981711,
          "velocity": 0.8031496062992126
        },
        {
          "duration": 0.39473599999999465,
          "durationTicks": 256,
          "midi": 61,
          "name": "C#4",
          "ticks": 83200,
          "time": 128.981711,
          "velocity": 0.8031496062992126
        },
        {
          "duration": 0.39473599999999465,
          "durationTicks": 256,
          "midi": 64,
          "name": "E4",
          "ticks": 83200,
          "time": 128.981711,
          "velocity": 0.8031496062992126
        },
        {
          "duration": 0.37469081250000613,
          "durationTicks": 243,
          "midi": 78,
          "name": "F#5",
          "ticks": 83456,
          "time": 129.37644699999998,
          "velocity": 0.6614173228346457
        },
        {
          "duration": 0.39473600000002307,
          "durationTicks": 256,
          "midi": 54,
          "name": "F#3",
          "ticks": 83456,
          "time": 129.37644699999998,
          "velocity": 0.7086614173228346
        },
        {
          "duration": 0.39473600000002307,
          "durationTicks": 256,
          "midi": 61,
          "name": "C#4",
          "ticks": 83456,
          "time": 129.37644699999998,
          "velocity": 0.7086614173228346
        },
        {
          "duration": 0.39473600000002307,
          "durationTicks": 256,
          "midi": 64,
          "name": "E4",
          "ticks": 83456,
          "time": 129.37644699999998,
          "velocity": 0.7086614173228346
        },
        {
          "duration": 0.4024456874999771,
          "durationTicks": 261,
          "midi": 75,
          "name": "D#5",
          "ticks": 83712,
          "time": 129.771183,
          "velocity": 0.5984251968503937
        },
        {
          "duration": 0.3947359999999662,
          "durationTicks": 256,
          "midi": 47,
          "name": "B2",
          "ticks": 83712,
          "time": 129.771183,
          "velocity": 0.5669291338582677
        },
        {
          "duration": 0.28063262500000974,
          "durationTicks": 182,
          "midi": 83,
          "name": "B5",
          "ticks": 83968,
          "time": 130.16591899999997,
          "velocity": 0.7322834645669292
        },
        {
          "duration": 0.39473600000002307,
          "durationTicks": 256,
          "midi": 54,
          "name": "F#3",
          "ticks": 83968,
          "time": 130.16591899999997,
          "velocity": 0.8110236220472441
        },
        {
          "duration": 0.39473600000002307,
          "durationTicks": 256,
          "midi": 59,
          "name": "B3",
          "ticks": 83968,
          "time": 130.16591899999997,
          "velocity": 0.8110236220472441
        },
        {
          "duration": 0.39473600000002307,
          "durationTicks": 256,
          "midi": 63,
          "name": "D#4",
          "ticks": 83968,
          "time": 130.16591899999997,
          "velocity": 0.8110236220472441
        },
        {
          "duration": 0.09868399999999156,
          "durationTicks": 64,
          "midi": 83,
          "name": "B5",
          "ticks": 84160,
          "time": 130.461971,
          "velocity": 0.6692913385826772
        },
        {
          "duration": 0.39473599999999465,
          "durationTicks": 256,
          "midi": 83,
          "name": "B5",
          "ticks": 84224,
          "time": 130.560655,
          "velocity": 0.7952755905511811
        },
        {
          "duration": 0.39473599999999465,
          "durationTicks": 256,
          "midi": 56,
          "name": "G#3",
          "ticks": 84224,
          "time": 130.560655,
          "velocity": 0.7165354330708661
        },
        {
          "duration": 0.39473599999999465,
          "durationTicks": 256,
          "midi": 59,
          "name": "B3",
          "ticks": 84224,
          "time": 130.560655,
          "velocity": 0.7165354330708661
        },
        {
          "duration": 0.39473599999999465,
          "durationTicks": 256,
          "midi": 63,
          "name": "D#4",
          "ticks": 84224,
          "time": 130.560655,
          "velocity": 0.7165354330708661
        },
        {
          "duration": 0.4024456874999771,
          "durationTicks": 261,
          "midi": 82,
          "name": "A#5",
          "ticks": 84480,
          "time": 130.955391,
          "velocity": 0.6299212598425197
        },
        {
          "duration": 0.39473599999999465,
          "durationTicks": 256,
          "midi": 49,
          "name": "C#3",
          "ticks": 84480,
          "time": 130.955391,
          "velocity": 0.5669291338582677
        },
        {
          "duration": 0.28063262500000974,
          "durationTicks": 182,
          "midi": 73,
          "name": "C#5",
          "ticks": 84736,
          "time": 131.350127,
          "velocity": 0.4409448818897638
        },
        {
          "duration": 0.39473599999999465,
          "durationTicks": 256,
          "midi": 58,
          "name": "A#3",
          "ticks": 84736,
          "time": 131.350127,
          "velocity": 0.8267716535433071
        },
        {
          "duration": 0.39473599999999465,
          "durationTicks": 256,
          "midi": 61,
          "name": "C#4",
          "ticks": 84736,
          "time": 131.350127,
          "velocity": 0.8267716535433071
        },
        {
          "duration": 0.39473599999999465,
          "durationTicks": 256,
          "midi": 66,
          "name": "F#4",
          "ticks": 84736,
          "time": 131.350127,
          "velocity": 0.8267716535433071
        },
        {
          "duration": 0.09868399999999156,
          "durationTicks": 64,
          "midi": 73,
          "name": "C#5",
          "ticks": 84928,
          "time": 131.646179,
          "velocity": 0.6535433070866141
        },
        {
          "duration": 0.39473599999999465,
          "durationTicks": 256,
          "midi": 73,
          "name": "C#5",
          "ticks": 84992,
          "time": 131.74486299999998,
          "velocity": 0.8031496062992126
        },
        {
          "duration": 0.39473599999999465,
          "durationTicks": 256,
          "midi": 58,
          "name": "A#3",
          "ticks": 84992,
          "time": 131.74486299999998,
          "velocity": 0.6850393700787402
        },
        {
          "duration": 0.39473599999999465,
          "durationTicks": 256,
          "midi": 61,
          "name": "C#4",
          "ticks": 84992,
          "time": 131.74486299999998,
          "velocity": 0.6850393700787402
        },
        {
          "duration": 0.39473599999999465,
          "durationTicks": 256,
          "midi": 66,
          "name": "F#4",
          "ticks": 84992,
          "time": 131.74486299999998,
          "velocity": 0.6850393700787402
        },
        {
          "duration": 0.40244568750000553,
          "durationTicks": 261,
          "midi": 71,
          "name": "B4",
          "ticks": 85248,
          "time": 132.13959899999998,
          "velocity": 0.5905511811023622
        },
        {
          "duration": 0.39473600000002307,
          "durationTicks": 256,
          "midi": 47,
          "name": "B2",
          "ticks": 85248,
          "time": 132.13959899999998,
          "velocity": 0.5826771653543307
        },
        {
          "duration": 0.28063262500000974,
          "durationTicks": 182,
          "midi": 80,
          "name": "G#5",
          "ticks": 85504,
          "time": 132.534335,
          "velocity": 0.6850393700787402
        },
        {
          "duration": 0.39473599999999465,
          "durationTicks": 256,
          "midi": 56,
          "name": "G#3",
          "ticks": 85504,
          "time": 132.534335,
          "velocity": 0.8503937007874016
        },
        {
          "duration": 0.39473599999999465,
          "durationTicks": 256,
          "midi": 61,
          "name": "C#4",
          "ticks": 85504,
          "time": 132.534335,
          "velocity": 0.8503937007874016
        },
        {
          "duration": 0.39473599999999465,
          "durationTicks": 256,
          "midi": 65,
          "name": "F4",
          "ticks": 85504,
          "time": 132.534335,
          "velocity": 0.8503937007874016
        },
        {
          "duration": 0.09868400000001998,
          "durationTicks": 64,
          "midi": 80,
          "name": "G#5",
          "ticks": 85696,
          "time": 132.83038699999997,
          "velocity": 0.7165354330708661
        },
        {
          "duration": 0.39473599999999465,
          "durationTicks": 256,
          "midi": 80,
          "name": "G#5",
          "ticks": 85760,
          "time": 132.929071,
          "velocity": 0.7874015748031497
        },
        {
          "duration": 0.39473599999999465,
          "durationTicks": 256,
          "midi": 56,
          "name": "G#3",
          "ticks": 85760,
          "time": 132.929071,
          "velocity": 0.6929133858267716
        },
        {
          "duration": 0.39473599999999465,
          "durationTicks": 256,
          "midi": 61,
          "name": "C#4",
          "ticks": 85760,
          "time": 132.929071,
          "velocity": 0.6929133858267716
        },
        {
          "duration": 0.39473599999999465,
          "durationTicks": 256,
          "midi": 65,
          "name": "F4",
          "ticks": 85760,
          "time": 132.929071,
          "velocity": 0.6929133858267716
        },
        {
          "duration": 0.40244568750000553,
          "durationTicks": 261,
          "midi": 78,
          "name": "F#5",
          "ticks": 86016,
          "time": 133.323807,
          "velocity": 0.6220472440944882
        },
        {
          "duration": 0.39473599999999465,
          "durationTicks": 256,
          "midi": 42,
          "name": "F#2",
          "ticks": 86016,
          "time": 133.323807,
          "velocity": 0.5826771653543307
        },
        {
          "duration": 0.28063262500000974,
          "durationTicks": 182,
          "midi": 70,
          "name": "A#4",
          "ticks": 86272,
          "time": 133.71854299999998,
          "velocity": 0.5196850393700787
        },
        {
          "duration": 0.39473599999999465,
          "durationTicks": 256,
          "midi": 54,
          "name": "F#3",
          "ticks": 86272,
          "time": 133.71854299999998,
          "velocity": 0.8503937007874016
        },
        {
          "duration": 0.39473599999999465,
          "durationTicks": 256,
          "midi": 61,
          "name": "C#4",
          "ticks": 86272,
          "time": 133.71854299999998,
          "velocity": 0.8503937007874016
        },
        {
          "duration": 0.39473599999999465,
          "durationTicks": 256,
          "midi": 64,
          "name": "E4",
          "ticks": 86272,
          "time": 133.71854299999998,
          "velocity": 0.8503937007874016
        },
        {
          "duration": 0.09868399999999156,
          "durationTicks": 64,
          "midi": 70,
          "name": "A#4",
          "ticks": 86464,
          "time": 134.01459499999999,
          "velocity": 0.6299212598425197
        },
        {
          "duration": 0.39473600000002307,
          "durationTicks": 256,
          "midi": 76,
          "name": "E5",
          "ticks": 86528,
          "time": 134.11327899999998,
          "velocity": 0.9212598425196851
        },
        {
          "duration": 0.39473600000002307,
          "durationTicks": 256,
          "midi": 54,
          "name": "F#3",
          "ticks": 86528,
          "time": 134.11327899999998,
          "velocity": 0.7165354330708661
        },
        {
          "duration": 0.39473600000002307,
          "durationTicks": 256,
          "midi": 61,
          "name": "C#4",
          "ticks": 86528,
          "time": 134.11327899999998,
          "velocity": 0.7165354330708661
        },
        {
          "duration": 0.39473600000002307,
          "durationTicks": 256,
          "midi": 64,
          "name": "E4",
          "ticks": 86528,
          "time": 134.11327899999998,
          "velocity": 0.7165354330708661
        },
        {
          "duration": 0.20045187499999884,
          "durationTicks": 130,
          "midi": 71,
          "name": "B4",
          "ticks": 86784,
          "time": 134.508015,
          "velocity": 0.6299212598425197
        },
        {
          "duration": 0.20045187499999884,
          "durationTicks": 130,
          "midi": 75,
          "name": "D#5",
          "ticks": 86784,
          "time": 134.508015,
          "velocity": 0.6299212598425197
        },
        {
          "duration": 0.39473599999999465,
          "durationTicks": 256,
          "midi": 47,
          "name": "B2",
          "ticks": 86784,
          "time": 134.508015,
          "velocity": 0.6062992125984252
        },
        {
          "duration": 0.20045187499999884,
          "durationTicks": 130,
          "midi": 73,
          "name": "C#5",
          "ticks": 86912,
          "time": 134.70538299999998,
          "velocity": 0.6929133858267716
        },
        {
          "duration": 0.20045187499999884,
          "durationTicks": 130,
          "midi": 76,
          "name": "E5",
          "ticks": 86912,
          "time": 134.70538299999998,
          "velocity": 0.6929133858267716
        },
        {
          "duration": 0.20045187499999884,
          "durationTicks": 130,
          "midi": 71,
          "name": "B4",
          "ticks": 87040,
          "time": 134.902751,
          "velocity": 0.6220472440944882
        },
        {
          "duration": 0.20045187499999884,
          "durationTicks": 130,
          "midi": 75,
          "name": "D#5",
          "ticks": 87040,
          "time": 134.902751,
          "velocity": 0.6220472440944882
        },
        {
          "duration": 0.39473599999999465,
          "durationTicks": 256,
          "midi": 54,
          "name": "F#3",
          "ticks": 87040,
          "time": 134.902751,
          "velocity": 0.8188976377952756
        },
        {
          "duration": 0.39473599999999465,
          "durationTicks": 256,
          "midi": 59,
          "name": "B3",
          "ticks": 87040,
          "time": 134.902751,
          "velocity": 0.8188976377952756
        },
        {
          "duration": 0.39473599999999465,
          "durationTicks": 256,
          "midi": 63,
          "name": "D#4",
          "ticks": 87040,
          "time": 134.902751,
          "velocity": 0.8188976377952756
        },
        {
          "duration": 0.20045187499999884,
          "durationTicks": 130,
          "midi": 66,
          "name": "F#4",
          "ticks": 87168,
          "time": 135.100119,
          "velocity": 0.6220472440944882
        },
        {
          "duration": 0.20045187499999884,
          "durationTicks": 130,
          "midi": 73,
          "name": "C#5",
          "ticks": 87168,
          "time": 135.100119,
          "velocity": 0.6220472440944882
        },
        {
          "duration": 0.20045187499999884,
          "durationTicks": 130,
          "midi": 71,
          "name": "B4",
          "ticks": 87296,
          "time": 135.297487,
          "velocity": 0.6929133858267716
        },
        {
          "duration": 0.20045187499999884,
          "durationTicks": 130,
          "midi": 75,
          "name": "D#5",
          "ticks": 87296,
          "time": 135.297487,
          "velocity": 0.6929133858267716
        },
        {
          "duration": 0.39473599999999465,
          "durationTicks": 256,
          "midi": 54,
          "name": "F#3",
          "ticks": 87296,
          "time": 135.297487,
          "velocity": 0.7007874015748031
        },
        {
          "duration": 0.39473599999999465,
          "durationTicks": 256,
          "midi": 59,
          "name": "B3",
          "ticks": 87296,
          "time": 135.297487,
          "velocity": 0.7007874015748031
        },
        {
          "duration": 0.39473599999999465,
          "durationTicks": 256,
          "midi": 63,
          "name": "D#4",
          "ticks": 87296,
          "time": 135.297487,
          "velocity": 0.7007874015748031
        },
        {
          "duration": 0.18657443750001335,
          "durationTicks": 121,
          "midi": 73,
          "name": "C#5",
          "ticks": 87424,
          "time": 135.49485499999997,
          "velocity": 0.7165354330708661
        },
        {
          "duration": 0.18657443750001335,
          "durationTicks": 121,
          "midi": 76,
          "name": "E5",
          "ticks": 87424,
          "time": 135.49485499999997,
          "velocity": 0.7165354330708661
        },
        {
          "duration": 0.7894720000000177,
          "durationTicks": 512,
          "midi": 70,
          "name": "A#4",
          "ticks": 87552,
          "time": 135.69222299999998,
          "velocity": 0.7244094488188977
        },
        {
          "duration": 0.8048913749999826,
          "durationTicks": 522,
          "midi": 80,
          "name": "G#5",
          "ticks": 87552,
          "time": 135.69222299999998,
          "velocity": 0.7244094488188977
        },
        {
          "duration": 0.39473599999999465,
          "durationTicks": 256,
          "midi": 46,
          "name": "A#2",
          "ticks": 87552,
          "time": 135.69222299999998,
          "velocity": 0.5984251968503937
        },
        {
          "duration": 0.39473600000002307,
          "durationTicks": 256,
          "midi": 54,
          "name": "F#3",
          "ticks": 87808,
          "time": 136.08695899999998,
          "velocity": 0.7559055118110236
        },
        {
          "duration": 0.39473600000002307,
          "durationTicks": 256,
          "midi": 61,
          "name": "C#4",
          "ticks": 87808,
          "time": 136.08695899999998,
          "velocity": 0.7559055118110236
        },
        {
          "duration": 0.39473600000002307,
          "durationTicks": 256,
          "midi": 64,
          "name": "E4",
          "ticks": 87808,
          "time": 136.08695899999998,
          "velocity": 0.7559055118110236
        },
        {
          "duration": 0.3746908124999777,
          "durationTicks": 243,
          "midi": 70,
          "name": "A#4",
          "ticks": 88064,
          "time": 136.481695,
          "velocity": 0.5118110236220472
        },
        {
          "duration": 0.3746908124999777,
          "durationTicks": 243,
          "midi": 78,
          "name": "F#5",
          "ticks": 88064,
          "time": 136.481695,
          "velocity": 0.5118110236220472
        },
        {
          "duration": 0.3947359999999662,
          "durationTicks": 256,
          "midi": 54,
          "name": "F#3",
          "ticks": 88064,
          "time": 136.481695,
          "velocity": 0.5669291338582677
        },
        {
          "duration": 0.3947359999999662,
          "durationTicks": 256,
          "midi": 61,
          "name": "C#4",
          "ticks": 88064,
          "time": 136.481695,
          "velocity": 0.5669291338582677
        },
        {
          "duration": 0.3947359999999662,
          "durationTicks": 256,
          "midi": 64,
          "name": "E4",
          "ticks": 88064,
          "time": 136.481695,
          "velocity": 0.5669291338582677
        },
        {
          "duration": 0.20045187499999884,
          "durationTicks": 130,
          "midi": 71,
          "name": "B4",
          "ticks": 88320,
          "time": 136.87643099999997,
          "velocity": 0.49606299212598426
        },
        {
          "duration": 0.20045187499999884,
          "durationTicks": 130,
          "midi": 75,
          "name": "D#5",
          "ticks": 88320,
          "time": 136.87643099999997,
          "velocity": 0.49606299212598426
        },
        {
          "duration": 0.39473600000002307,
          "durationTicks": 256,
          "midi": 47,
          "name": "B2",
          "ticks": 88320,
          "time": 136.87643099999997,
          "velocity": 0.5196850393700787
        },
        {
          "duration": 0.20045187499999884,
          "durationTicks": 130,
          "midi": 73,
          "name": "C#5",
          "ticks": 88448,
          "time": 137.073799,
          "velocity": 0.5196850393700787
        },
        {
          "duration": 0.20045187499999884,
          "durationTicks": 130,
          "midi": 76,
          "name": "E5",
          "ticks": 88448,
          "time": 137.073799,
          "velocity": 0.5196850393700787
        },
        {
          "duration": 0.20045187499999884,
          "durationTicks": 130,
          "midi": 71,
          "name": "B4",
          "ticks": 88576,
          "time": 137.271167,
          "velocity": 0.5511811023622047
        },
        {
          "duration": 0.20045187499999884,
          "durationTicks": 130,
          "midi": 75,
          "name": "D#5",
          "ticks": 88576,
          "time": 137.271167,
          "velocity": 0.5511811023622047
        },
        {
          "duration": 0.39473599999999465,
          "durationTicks": 256,
          "midi": 54,
          "name": "F#3",
          "ticks": 88576,
          "time": 137.271167,
          "velocity": 0.7007874015748031
        },
        {
          "duration": 0.39473599999999465,
          "durationTicks": 256,
          "midi": 59,
          "name": "B3",
          "ticks": 88576,
          "time": 137.271167,
          "velocity": 0.7007874015748031
        },
        {
          "duration": 0.39473599999999465,
          "durationTicks": 256,
          "midi": 63,
          "name": "D#4",
          "ticks": 88576,
          "time": 137.271167,
          "velocity": 0.7007874015748031
        },
        {
          "duration": 0.20045187499999884,
          "durationTicks": 130,
          "midi": 66,
          "name": "F#4",
          "ticks": 88704,
          "time": 137.46853499999997,
          "velocity": 0.5196850393700787
        },
        {
          "duration": 0.20045187499999884,
          "durationTicks": 130,
          "midi": 73,
          "name": "C#5",
          "ticks": 88704,
          "time": 137.46853499999997,
          "velocity": 0.5196850393700787
        },
        {
          "duration": 0.20045187499999884,
          "durationTicks": 130,
          "midi": 71,
          "name": "B4",
          "ticks": 88832,
          "time": 137.665903,
          "velocity": 0.5590551181102362
        },
        {
          "duration": 0.20045187499999884,
          "durationTicks": 130,
          "midi": 75,
          "name": "D#5",
          "ticks": 88832,
          "time": 137.665903,
          "velocity": 0.5590551181102362
        },
        {
          "duration": 0.39473599999999465,
          "durationTicks": 256,
          "midi": 54,
          "name": "F#3",
          "ticks": 88832,
          "time": 137.665903,
          "velocity": 0.5669291338582677
        },
        {
          "duration": 0.39473599999999465,
          "durationTicks": 256,
          "midi": 59,
          "name": "B3",
          "ticks": 88832,
          "time": 137.665903,
          "velocity": 0.5669291338582677
        },
        {
          "duration": 0.39473599999999465,
          "durationTicks": 256,
          "midi": 63,
          "name": "D#4",
          "ticks": 88832,
          "time": 137.665903,
          "velocity": 0.5669291338582677
        },
        {
          "duration": 0.18657443749998492,
          "durationTicks": 121,
          "midi": 73,
          "name": "C#5",
          "ticks": 88960,
          "time": 137.863271,
          "velocity": 0.5433070866141733
        },
        {
          "duration": 0.18657443749998492,
          "durationTicks": 121,
          "midi": 76,
          "name": "E5",
          "ticks": 88960,
          "time": 137.863271,
          "velocity": 0.5433070866141733
        },
        {
          "duration": 0.7894719999999893,
          "durationTicks": 512,
          "midi": 70,
          "name": "A#4",
          "ticks": 89088,
          "time": 138.06063899999998,
          "velocity": 0.6377952755905512
        },
        {
          "duration": 0.8048913750000111,
          "durationTicks": 522,
          "midi": 80,
          "name": "G#5",
          "ticks": 89088,
          "time": 138.06063899999998,
          "velocity": 0.6377952755905512
        },
        {
          "duration": 0.39473600000002307,
          "durationTicks": 256,
          "midi": 46,
          "name": "A#2",
          "ticks": 89088,
          "time": 138.06063899999998,
          "velocity": 0.4645669291338583
        },
        {
          "duration": 0.3947359999999662,
          "durationTicks": 256,
          "midi": 54,
          "name": "F#3",
          "ticks": 89344,
          "time": 138.455375,
          "velocity": 0.6535433070866141
        },
        {
          "duration": 0.3947359999999662,
          "durationTicks": 256,
          "midi": 61,
          "name": "C#4",
          "ticks": 89344,
          "time": 138.455375,
          "velocity": 0.6535433070866141
        },
        {
          "duration": 0.3947359999999662,
          "durationTicks": 256,
          "midi": 64,
          "name": "E4",
          "ticks": 89344,
          "time": 138.455375,
          "velocity": 0.6535433070866141
        },
        {
          "duration": 0.37469081250003455,
          "durationTicks": 243,
          "midi": 70,
          "name": "A#4",
          "ticks": 89600,
          "time": 138.85011099999997,
          "velocity": 0.5039370078740157
        },
        {
          "duration": 0.37469081250003455,
          "durationTicks": 243,
          "midi": 78,
          "name": "F#5",
          "ticks": 89600,
          "time": 138.85011099999997,
          "velocity": 0.5039370078740157
        },
        {
          "duration": 0.39473600000002307,
          "durationTicks": 256,
          "midi": 54,
          "name": "F#3",
          "ticks": 89600,
          "time": 138.85011099999997,
          "velocity": 0.5275590551181102
        },
        {
          "duration": 0.39473600000002307,
          "durationTicks": 256,
          "midi": 61,
          "name": "C#4",
          "ticks": 89600,
          "time": 138.85011099999997,
          "velocity": 0.5275590551181102
        },
        {
          "duration": 0.39473600000002307,
          "durationTicks": 256,
          "midi": 64,
          "name": "E4",
          "ticks": 89600,
          "time": 138.85011099999997,
          "velocity": 0.5275590551181102
        },
        {
          "duration": 0.39473599999999465,
          "durationTicks": 256,
          "midi": 75,
          "name": "D#5",
          "ticks": 89856,
          "time": 139.244847,
          "velocity": 0.47244094488188976
        },
        {
          "duration": 0.39473599999999465,
          "durationTicks": 256,
          "midi": 78,
          "name": "F#5",
          "ticks": 89856,
          "time": 139.244847,
          "velocity": 0.47244094488188976
        },
        {
          "duration": 0.39473599999999465,
          "durationTicks": 256,
          "midi": 47,
          "name": "B2",
          "ticks": 89856,
          "time": 139.244847,
          "velocity": 0.3937007874015748
        },
        {
          "duration": 0.2960520000000031,
          "durationTicks": 192,
          "midi": 78,
          "name": "F#5",
          "ticks": 90112,
          "time": 139.639583,
          "velocity": 0.5905511811023622
        },
        {
          "duration": 0.2960520000000031,
          "durationTicks": 192,
          "midi": 87,
          "name": "D#6",
          "ticks": 90112,
          "time": 139.639583,
          "velocity": 0.5905511811023622
        },
        {
          "duration": 0.39473599999999465,
          "durationTicks": 256,
          "midi": 54,
          "name": "F#3",
          "ticks": 90112,
          "time": 139.639583,
          "velocity": 0.6062992125984252
        },
        {
          "duration": 0.39473599999999465,
          "durationTicks": 256,
          "midi": 59,
          "name": "B3",
          "ticks": 90112,
          "time": 139.639583,
          "velocity": 0.6062992125984252
        },
        {
          "duration": 0.39473599999999465,
          "durationTicks": 256,
          "midi": 63,
          "name": "D#4",
          "ticks": 90112,
          "time": 139.639583,
          "velocity": 0.6062992125984252
        },
        {
          "duration": 0.09868399999999156,
          "durationTicks": 64,
          "midi": 78,
          "name": "F#5",
          "ticks": 90304,
          "time": 139.935635,
          "velocity": 0.49606299212598426
        },
        {
          "duration": 0.09868399999999156,
          "durationTicks": 64,
          "midi": 87,
          "name": "D#6",
          "ticks": 90304,
          "time": 139.935635,
          "velocity": 0.49606299212598426
        },
        {
          "duration": 0.39473600000002307,
          "durationTicks": 256,
          "midi": 78,
          "name": "F#5",
          "ticks": 90368,
          "time": 140.03431899999998,
          "velocity": 0.6062992125984252
        },
        {
          "duration": 0.39473600000002307,
          "durationTicks": 256,
          "midi": 87,
          "name": "D#6",
          "ticks": 90368,
          "time": 140.03431899999998,
          "velocity": 0.6062992125984252
        },
        {
          "duration": 0.39473600000002307,
          "durationTicks": 256,
          "midi": 54,
          "name": "F#3",
          "ticks": 90368,
          "time": 140.03431899999998,
          "velocity": 0.5039370078740157
        },
        {
          "duration": 0.39473600000002307,
          "durationTicks": 256,
          "midi": 59,
          "name": "B3",
          "ticks": 90368,
          "time": 140.03431899999998,
          "velocity": 0.5039370078740157
        },
        {
          "duration": 0.39473600000002307,
          "durationTicks": 256,
          "midi": 63,
          "name": "D#4",
          "ticks": 90368,
          "time": 140.03431899999998,
          "velocity": 0.5039370078740157
        },
        {
          "duration": 0.3947359999999662,
          "durationTicks": 256,
          "midi": 76,
          "name": "E5",
          "ticks": 90624,
          "time": 140.429055,
          "velocity": 0.4645669291338583
        },
        {
          "duration": 0.3947359999999662,
          "durationTicks": 256,
          "midi": 85,
          "name": "C#6",
          "ticks": 90624,
          "time": 140.429055,
          "velocity": 0.4645669291338583
        },
        {
          "duration": 0.3947359999999662,
          "durationTicks": 256,
          "midi": 42,
          "name": "F#2",
          "ticks": 90624,
          "time": 140.429055,
          "velocity": 0.41732283464566927
        },
        {
          "duration": 0.2960520000000315,
          "durationTicks": 192,
          "midi": 73,
          "name": "C#5",
          "ticks": 90880,
          "time": 140.82379099999997,
          "velocity": 0.3779527559055118
        },
        {
          "duration": 0.2960520000000315,
          "durationTicks": 192,
          "midi": 76,
          "name": "E5",
          "ticks": 90880,
          "time": 140.82379099999997,
          "velocity": 0.3779527559055118
        },
        {
          "duration": 0.39473600000002307,
          "durationTicks": 256,
          "midi": 54,
          "name": "F#3",
          "ticks": 90880,
          "time": 140.82379099999997,
          "velocity": 0.5905511811023622
        },
        {
          "duration": 0.39473600000002307,
          "durationTicks": 256,
          "midi": 58,
          "name": "A#3",
          "ticks": 90880,
          "time": 140.82379099999997,
          "velocity": 0.5905511811023622
        },
        {
          "duration": 0.39473600000002307,
          "durationTicks": 256,
          "midi": 64,
          "name": "E4",
          "ticks": 90880,
          "time": 140.82379099999997,
          "velocity": 0.5905511811023622
        },
        {
          "duration": 0.09868399999999156,
          "durationTicks": 64,
          "midi": 73,
          "name": "C#5",
          "ticks": 91072,
          "time": 141.119843,
          "velocity": 0.47244094488188976
        },
        {
          "duration": 0.09868399999999156,
          "durationTicks": 64,
          "midi": 76,
          "name": "E5",
          "ticks": 91072,
          "time": 141.119843,
          "velocity": 0.47244094488188976
        },
        {
          "duration": 0.39473599999999465,
          "durationTicks": 256,
          "midi": 73,
          "name": "C#5",
          "ticks": 91136,
          "time": 141.218527,
          "velocity": 0.5748031496062992
        },
        {
          "duration": 0.39473599999999465,
          "durationTicks": 256,
          "midi": 76,
          "name": "E5",
          "ticks": 91136,
          "time": 141.218527,
          "velocity": 0.5748031496062992
        },
        {
          "duration": 0.39473599999999465,
          "durationTicks": 256,
          "midi": 54,
          "name": "F#3",
          "ticks": 91136,
          "time": 141.218527,
          "velocity": 0.47244094488188976
        },
        {
          "duration": 0.39473599999999465,
          "durationTicks": 256,
          "midi": 58,
          "name": "A#3",
          "ticks": 91136,
          "time": 141.218527,
          "velocity": 0.47244094488188976
        },
        {
          "duration": 0.39473599999999465,
          "durationTicks": 256,
          "midi": 64,
          "name": "E4",
          "ticks": 91136,
          "time": 141.218527,
          "velocity": 0.47244094488188976
        },
        {
          "duration": 0.39473599999999465,
          "durationTicks": 256,
          "midi": 71,
          "name": "B4",
          "ticks": 91392,
          "time": 141.613263,
          "velocity": 0.48031496062992124
        },
        {
          "duration": 0.39473599999999465,
          "durationTicks": 256,
          "midi": 75,
          "name": "D#5",
          "ticks": 91392,
          "time": 141.613263,
          "velocity": 0.48031496062992124
        },
        {
          "duration": 0.39473599999999465,
          "durationTicks": 256,
          "midi": 47,
          "name": "B2",
          "ticks": 91392,
          "time": 141.613263,
          "velocity": 0.4409448818897638
        },
        {
          "duration": 0.2960520000000031,
          "durationTicks": 192,
          "midi": 75,
          "name": "D#5",
          "ticks": 91648,
          "time": 142.00799899999998,
          "velocity": 0.5590551181102362
        },
        {
          "duration": 0.2960520000000031,
          "durationTicks": 192,
          "midi": 83,
          "name": "B5",
          "ticks": 91648,
          "time": 142.00799899999998,
          "velocity": 0.5590551181102362
        },
        {
          "duration": 0.39473600000002307,
          "durationTicks": 256,
          "midi": 54,
          "name": "F#3",
          "ticks": 91648,
          "time": 142.00799899999998,
          "velocity": 0.5905511811023622
        },
        {
          "duration": 0.39473600000002307,
          "durationTicks": 256,
          "midi": 59,
          "name": "B3",
          "ticks": 91648,
          "time": 142.00799899999998,
          "velocity": 0.5905511811023622
        },
        {
          "duration": 0.39473600000002307,
          "durationTicks": 256,
          "midi": 63,
          "name": "D#4",
          "ticks": 91648,
          "time": 142.00799899999998,
          "velocity": 0.5905511811023622
        },
        {
          "duration": 0.09868400000001998,
          "durationTicks": 64,
          "midi": 75,
          "name": "D#5",
          "ticks": 91840,
          "time": 142.304051,
          "velocity": 0.4881889763779528
        },
        {
          "duration": 0.09868400000001998,
          "durationTicks": 64,
          "midi": 83,
          "name": "B5",
          "ticks": 91840,
          "time": 142.304051,
          "velocity": 0.4881889763779528
        },
        {
          "duration": 0.3947359999999662,
          "durationTicks": 256,
          "midi": 75,
          "name": "D#5",
          "ticks": 91904,
          "time": 142.402735,
          "velocity": 0.5669291338582677
        },
        {
          "duration": 0.3947359999999662,
          "durationTicks": 256,
          "midi": 83,
          "name": "B5",
          "ticks": 91904,
          "time": 142.402735,
          "velocity": 0.5669291338582677
        },
        {
          "duration": 0.3947359999999662,
          "durationTicks": 256,
          "midi": 54,
          "name": "F#3",
          "ticks": 91904,
          "time": 142.402735,
          "velocity": 0.5196850393700787
        },
        {
          "duration": 0.3947359999999662,
          "durationTicks": 256,
          "midi": 59,
          "name": "B3",
          "ticks": 91904,
          "time": 142.402735,
          "velocity": 0.5196850393700787
        },
        {
          "duration": 0.3947359999999662,
          "durationTicks": 256,
          "midi": 63,
          "name": "D#4",
          "ticks": 91904,
          "time": 142.402735,
          "velocity": 0.5196850393700787
        },
        {
          "duration": 0.39473600000002307,
          "durationTicks": 256,
          "midi": 73,
          "name": "C#5",
          "ticks": 92160,
          "time": 142.79747099999997,
          "velocity": 0.4645669291338583
        },
        {
          "duration": 0.39473600000002307,
          "durationTicks": 256,
          "midi": 82,
          "name": "A#5",
          "ticks": 92160,
          "time": 142.79747099999997,
          "velocity": 0.4645669291338583
        },
        {
          "duration": 0.39473600000002307,
          "durationTicks": 256,
          "midi": 42,
          "name": "F#2",
          "ticks": 92160,
          "time": 142.79747099999997,
          "velocity": 0.4330708661417323
        },
        {
          "duration": 0.29605199999997467,
          "durationTicks": 192,
          "midi": 70,
          "name": "A#4",
          "ticks": 92416,
          "time": 143.192207,
          "velocity": 0.36220472440944884
        },
        {
          "duration": 0.29605199999997467,
          "durationTicks": 192,
          "midi": 73,
          "name": "C#5",
          "ticks": 92416,
          "time": 143.192207,
          "velocity": 0.36220472440944884
        },
        {
          "duration": 0.39473599999999465,
          "durationTicks": 256,
          "midi": 54,
          "name": "F#3",
          "ticks": 92416,
          "time": 143.192207,
          "velocity": 0.5826771653543307
        },
        {
          "duration": 0.39473599999999465,
          "durationTicks": 256,
          "midi": 61,
          "name": "C#4",
          "ticks": 92416,
          "time": 143.192207,
          "velocity": 0.5826771653543307
        },
        {
          "duration": 0.39473599999999465,
          "durationTicks": 256,
          "midi": 64,
          "name": "E4",
          "ticks": 92416,
          "time": 143.192207,
          "velocity": 0.5826771653543307
        },
        {
          "duration": 0.09868400000001998,
          "durationTicks": 64,
          "midi": 70,
          "name": "A#4",
          "ticks": 92608,
          "time": 143.48825899999997,
          "velocity": 0.48031496062992124
        },
        {
          "duration": 0.09868400000001998,
          "durationTicks": 64,
          "midi": 73,
          "name": "C#5",
          "ticks": 92608,
          "time": 143.48825899999997,
          "velocity": 0.48031496062992124
        },
        {
          "duration": 0.39473599999999465,
          "durationTicks": 256,
          "midi": 73,
          "name": "C#5",
          "ticks": 92672,
          "time": 143.586943,
          "velocity": 0.5196850393700787
        },
        {
          "duration": 0.39473599999999465,
          "durationTicks": 256,
          "midi": 76,
          "name": "E5",
          "ticks": 92672,
          "time": 143.586943,
          "velocity": 0.5196850393700787
        },
        {
          "duration": 0.39473599999999465,
          "durationTicks": 256,
          "midi": 54,
          "name": "F#3",
          "ticks": 92672,
          "time": 143.586943,
          "velocity": 0.5196850393700787
        },
        {
          "duration": 0.39473599999999465,
          "durationTicks": 256,
          "midi": 61,
          "name": "C#4",
          "ticks": 92672,
          "time": 143.586943,
          "velocity": 0.5196850393700787
        },
        {
          "duration": 0.39473599999999465,
          "durationTicks": 256,
          "midi": 64,
          "name": "E4",
          "ticks": 92672,
          "time": 143.586943,
          "velocity": 0.5196850393700787
        },
        {
          "duration": 0.20045187499999884,
          "durationTicks": 130,
          "midi": 71,
          "name": "B4",
          "ticks": 92928,
          "time": 143.98167899999999,
          "velocity": 0.4330708661417323
        },
        {
          "duration": 0.20045187499999884,
          "durationTicks": 130,
          "midi": 74,
          "name": "D5",
          "ticks": 92928,
          "time": 143.98167899999999,
          "velocity": 0.4330708661417323
        },
        {
          "duration": 0.39473599999999465,
          "durationTicks": 256,
          "midi": 47,
          "name": "B2",
          "ticks": 92928,
          "time": 143.98167899999999,
          "velocity": 0.4015748031496063
        },
        {
          "duration": 0.20045187499999884,
          "durationTicks": 130,
          "midi": 73,
          "name": "C#5",
          "ticks": 93056,
          "time": 144.17904699999997,
          "velocity": 0.4881889763779528
        },
        {
          "duration": 0.20045187499999884,
          "durationTicks": 130,
          "midi": 76,
          "name": "E5",
          "ticks": 93056,
          "time": 144.17904699999997,
          "velocity": 0.4881889763779528
        },
        {
          "duration": 0.20045187500002726,
          "durationTicks": 130,
          "midi": 71,
          "name": "B4",
          "ticks": 93184,
          "time": 144.37641499999998,
          "velocity": 0.47244094488188976
        },
        {
          "duration": 0.20045187500002726,
          "durationTicks": 130,
          "midi": 74,
          "name": "D5",
          "ticks": 93184,
          "time": 144.37641499999998,
          "velocity": 0.47244094488188976
        },
        {
          "duration": 0.39473599999999465,
          "durationTicks": 256,
          "midi": 54,
          "name": "F#3",
          "ticks": 93184,
          "time": 144.37641499999998,
          "velocity": 0.5984251968503937
        },
        {
          "duration": 0.39473599999999465,
          "durationTicks": 256,
          "midi": 59,
          "name": "B3",
          "ticks": 93184,
          "time": 144.37641499999998,
          "velocity": 0.5984251968503937
        },
        {
          "duration": 0.39473599999999465,
          "durationTicks": 256,
          "midi": 62,
          "name": "D4",
          "ticks": 93184,
          "time": 144.37641499999998,
          "velocity": 0.5984251968503937
        },
        {
          "duration": 0.20045187499999884,
          "durationTicks": 130,
          "midi": 66,
          "name": "F#4",
          "ticks": 93312,
          "time": 144.573783,
          "velocity": 0.4409448818897638
        },
        {
          "duration": 0.20045187499999884,
          "durationTicks": 130,
          "midi": 73,
          "name": "C#5",
          "ticks": 93312,
          "time": 144.573783,
          "velocity": 0.4409448818897638
        },
        {
          "duration": 0.20045187499999884,
          "durationTicks": 130,
          "midi": 71,
          "name": "B4",
          "ticks": 93440,
          "time": 144.77115099999997,
          "velocity": 0.44881889763779526
        },
        {
          "duration": 0.20045187499999884,
          "durationTicks": 130,
          "midi": 74,
          "name": "D5",
          "ticks": 93440,
          "time": 144.77115099999997,
          "velocity": 0.44881889763779526
        },
        {
          "duration": 0.39473600000002307,
          "durationTicks": 256,
          "midi": 54,
          "name": "F#3",
          "ticks": 93440,
          "time": 144.77115099999997,
          "velocity": 0.48031496062992124
        },
        {
          "duration": 0.39473600000002307,
          "durationTicks": 256,
          "midi": 59,
          "name": "B3",
          "ticks": 93440,
          "time": 144.77115099999997,
          "velocity": 0.48031496062992124
        },
        {
          "duration": 0.39473600000002307,
          "durationTicks": 256,
          "midi": 62,
          "name": "D4",
          "ticks": 93440,
          "time": 144.77115099999997,
          "velocity": 0.48031496062992124
        },
        {
          "duration": 0.18657443750001335,
          "durationTicks": 121,
          "midi": 73,
          "name": "C#5",
          "ticks": 93568,
          "time": 144.968519,
          "velocity": 0.5196850393700787
        },
        {
          "duration": 0.18657443750001335,
          "durationTicks": 121,
          "midi": 76,
          "name": "E5",
          "ticks": 93568,
          "time": 144.968519,
          "velocity": 0.5196850393700787
        },
        {
          "duration": 0.7894719999999893,
          "durationTicks": 512,
          "midi": 70,
          "name": "A#4",
          "ticks": 93696,
          "time": 145.165887,
          "velocity": 0.5669291338582677
        },
        {
          "duration": 0.8048913749999826,
          "durationTicks": 522,
          "midi": 79,
          "name": "G5",
          "ticks": 93696,
          "time": 145.165887,
          "velocity": 0.5669291338582677
        },
        {
          "duration": 0.39473599999999465,
          "durationTicks": 256,
          "midi": 46,
          "name": "A#2",
          "ticks": 93696,
          "time": 145.165887,
          "velocity": 0.44881889763779526
        },
        {
          "duration": 0.39473599999999465,
          "durationTicks": 256,
          "midi": 54,
          "name": "F#3",
          "ticks": 93952,
          "time": 145.560623,
          "velocity": 0.6377952755905512
        },
        {
          "duration": 0.39473599999999465,
          "durationTicks": 256,
          "midi": 61,
          "name": "C#4",
          "ticks": 93952,
          "time": 145.560623,
          "velocity": 0.6377952755905512
        },
        {
          "duration": 0.39473599999999465,
          "durationTicks": 256,
          "midi": 64,
          "name": "E4",
          "ticks": 93952,
          "time": 145.560623,
          "velocity": 0.6377952755905512
        },
        {
          "duration": 0.37469081250000613,
          "durationTicks": 243,
          "midi": 70,
          "name": "A#4",
          "ticks": 94208,
          "time": 145.955359,
          "velocity": 0.4645669291338583
        },
        {
          "duration": 0.37469081250000613,
          "durationTicks": 243,
          "midi": 78,
          "name": "F#5",
          "ticks": 94208,
          "time": 145.955359,
          "velocity": 0.4645669291338583
        },
        {
          "duration": 0.39473599999999465,
          "durationTicks": 256,
          "midi": 54,
          "name": "F#3",
          "ticks": 94208,
          "time": 145.955359,
          "velocity": 0.5196850393700787
        },
        {
          "duration": 0.39473599999999465,
          "durationTicks": 256,
          "midi": 61,
          "name": "C#4",
          "ticks": 94208,
          "time": 145.955359,
          "velocity": 0.5196850393700787
        },
        {
          "duration": 0.39473599999999465,
          "durationTicks": 256,
          "midi": 64,
          "name": "E4",
          "ticks": 94208,
          "time": 145.955359,
          "velocity": 0.5196850393700787
        },
        {
          "duration": 0.20045187499999884,
          "durationTicks": 130,
          "midi": 71,
          "name": "B4",
          "ticks": 94464,
          "time": 146.35009499999998,
          "velocity": 0.4645669291338583
        },
        {
          "duration": 0.20045187499999884,
          "durationTicks": 130,
          "midi": 74,
          "name": "D5",
          "ticks": 94464,
          "time": 146.35009499999998,
          "velocity": 0.4645669291338583
        },
        {
          "duration": 0.39473599999999465,
          "durationTicks": 256,
          "midi": 47,
          "name": "B2",
          "ticks": 94464,
          "time": 146.35009499999998,
          "velocity": 0.4409448818897638
        },
        {
          "duration": 0.20045187499999884,
          "durationTicks": 130,
          "midi": 73,
          "name": "C#5",
          "ticks": 94592,
          "time": 146.547463,
          "velocity": 0.5039370078740157
        },
        {
          "duration": 0.20045187499999884,
          "durationTicks": 130,
          "midi": 76,
          "name": "E5",
          "ticks": 94592,
          "time": 146.547463,
          "velocity": 0.5039370078740157
        },
        {
          "duration": 0.20045187499999884,
          "durationTicks": 130,
          "midi": 71,
          "name": "B4",
          "ticks": 94720,
          "time": 146.74483099999998,
          "velocity": 0.5039370078740157
        },
        {
          "duration": 0.20045187499999884,
          "durationTicks": 130,
          "midi": 74,
          "name": "D5",
          "ticks": 94720,
          "time": 146.74483099999998,
          "velocity": 0.5039370078740157
        },
        {
          "duration": 0.39473600000002307,
          "durationTicks": 256,
          "midi": 54,
          "name": "F#3",
          "ticks": 94720,
          "time": 146.74483099999998,
          "velocity": 0.6535433070866141
        },
        {
          "duration": 0.39473600000002307,
          "durationTicks": 256,
          "midi": 59,
          "name": "B3",
          "ticks": 94720,
          "time": 146.74483099999998,
          "velocity": 0.6535433070866141
        },
        {
          "duration": 0.39473600000002307,
          "durationTicks": 256,
          "midi": 62,
          "name": "D4",
          "ticks": 94720,
          "time": 146.74483099999998,
          "velocity": 0.6535433070866141
        },
        {
          "duration": 0.20045187499999884,
          "durationTicks": 130,
          "midi": 66,
          "name": "F#4",
          "ticks": 94848,
          "time": 146.942199,
          "velocity": 0.5118110236220472
        },
        {
          "duration": 0.20045187499999884,
          "durationTicks": 130,
          "midi": 73,
          "name": "C#5",
          "ticks": 94848,
          "time": 146.942199,
          "velocity": 0.5118110236220472
        },
        {
          "duration": 0.20045187499999884,
          "durationTicks": 130,
          "midi": 71,
          "name": "B4",
          "ticks": 94976,
          "time": 147.139567,
          "velocity": 0.5748031496062992
        },
        {
          "duration": 0.20045187499999884,
          "durationTicks": 130,
          "midi": 74,
          "name": "D5",
          "ticks": 94976,
          "time": 147.139567,
          "velocity": 0.5748031496062992
        },
        {
          "duration": 0.39473599999999465,
          "durationTicks": 256,
          "midi": 54,
          "name": "F#3",
          "ticks": 94976,
          "time": 147.139567,
          "velocity": 0.5511811023622047
        },
        {
          "duration": 0.39473599999999465,
          "durationTicks": 256,
          "midi": 59,
          "name": "B3",
          "ticks": 94976,
          "time": 147.139567,
          "velocity": 0.5511811023622047
        },
        {
          "duration": 0.39473599999999465,
          "durationTicks": 256,
          "midi": 62,
          "name": "D4",
          "ticks": 94976,
          "time": 147.139567,
          "velocity": 0.5511811023622047
        },
        {
          "duration": 0.18657443749998492,
          "durationTicks": 121,
          "midi": 73,
          "name": "C#5",
          "ticks": 95104,
          "time": 147.33693499999998,
          "velocity": 0.5354330708661418
        },
        {
          "duration": 0.18657443749998492,
          "durationTicks": 121,
          "midi": 76,
          "name": "E5",
          "ticks": 95104,
          "time": 147.33693499999998,
          "velocity": 0.5354330708661418
        },
        {
          "duration": 0.7894719999999893,
          "durationTicks": 512,
          "midi": 70,
          "name": "A#4",
          "ticks": 95232,
          "time": 147.534303,
          "velocity": 0.5984251968503937
        },
        {
          "duration": 0.8048913749999826,
          "durationTicks": 522,
          "midi": 79,
          "name": "G5",
          "ticks": 95232,
          "time": 147.534303,
          "velocity": 0.5984251968503937
        },
        {
          "duration": 0.39473599999999465,
          "durationTicks": 256,
          "midi": 46,
          "name": "A#2",
          "ticks": 95232,
          "time": 147.534303,
          "velocity": 0.48031496062992124
        },
        {
          "duration": 0.39473599999999465,
          "durationTicks": 256,
          "midi": 54,
          "name": "F#3",
          "ticks": 95488,
          "time": 147.929039,
          "velocity": 0.6929133858267716
        },
        {
          "duration": 0.39473599999999465,
          "durationTicks": 256,
          "midi": 61,
          "name": "C#4",
          "ticks": 95488,
          "time": 147.929039,
          "velocity": 0.6929133858267716
        },
        {
          "duration": 0.39473599999999465,
          "durationTicks": 256,
          "midi": 64,
          "name": "E4",
          "ticks": 95488,
          "time": 147.929039,
          "velocity": 0.6929133858267716
        },
        {
          "duration": 0.37469081250000613,
          "durationTicks": 243,
          "midi": 70,
          "name": "A#4",
          "ticks": 95744,
          "time": 148.32377499999998,
          "velocity": 0.5354330708661418
        },
        {
          "duration": 0.37469081250000613,
          "durationTicks": 243,
          "midi": 78,
          "name": "F#5",
          "ticks": 95744,
          "time": 148.32377499999998,
          "velocity": 0.5354330708661418
        },
        {
          "duration": 0.39473599999999465,
          "durationTicks": 256,
          "midi": 54,
          "name": "F#3",
          "ticks": 95744,
          "time": 148.32377499999998,
          "velocity": 0.5433070866141733
        },
        {
          "duration": 0.39473599999999465,
          "durationTicks": 256,
          "midi": 61,
          "name": "C#4",
          "ticks": 95744,
          "time": 148.32377499999998,
          "velocity": 0.5433070866141733
        },
        {
          "duration": 0.39473599999999465,
          "durationTicks": 256,
          "midi": 64,
          "name": "E4",
          "ticks": 95744,
          "time": 148.32377499999998,
          "velocity": 0.5433070866141733
        },
        {
          "duration": 0.39473600000002307,
          "durationTicks": 256,
          "midi": 74,
          "name": "D5",
          "ticks": 96000,
          "time": 148.71851099999998,
          "velocity": 0.5433070866141733
        },
        {
          "duration": 0.39473600000002307,
          "durationTicks": 256,
          "midi": 78,
          "name": "F#5",
          "ticks": 96000,
          "time": 148.71851099999998,
          "velocity": 0.5433070866141733
        },
        {
          "duration": 0.39473600000002307,
          "durationTicks": 256,
          "midi": 47,
          "name": "B2",
          "ticks": 96000,
          "time": 148.71851099999998,
          "velocity": 0.5039370078740157
        },
        {
          "duration": 0.1973679999999831,
          "durationTicks": 128,
          "midi": 66,
          "name": "F#4",
          "ticks": 96256,
          "time": 149.113247,
          "velocity": 0.49606299212598426
        },
        {
          "duration": 0.1973679999999831,
          "durationTicks": 128,
          "midi": 76,
          "name": "E5",
          "ticks": 96256,
          "time": 149.113247,
          "velocity": 0.49606299212598426
        },
        {
          "duration": 0.3947359999999662,
          "durationTicks": 256,
          "midi": 54,
          "name": "F#3",
          "ticks": 96256,
          "time": 149.113247,
          "velocity": 0.6692913385826772
        },
        {
          "duration": 0.3947359999999662,
          "durationTicks": 256,
          "midi": 59,
          "name": "B3",
          "ticks": 96256,
          "time": 149.113247,
          "velocity": 0.6692913385826772
        },
        {
          "duration": 0.3947359999999662,
          "durationTicks": 256,
          "midi": 62,
          "name": "D4",
          "ticks": 96256,
          "time": 149.113247,
          "velocity": 0.6692913385826772
        },
        {
          "duration": 0.09868399999999156,
          "durationTicks": 64,
          "midi": 66,
          "name": "F#4",
          "ticks": 96448,
          "time": 149.40929899999998,
          "velocity": 0.4645669291338583
        },
        {
          "duration": 0.09868399999999156,
          "durationTicks": 64,
          "midi": 76,
          "name": "E5",
          "ticks": 96448,
          "time": 149.40929899999998,
          "velocity": 0.4645669291338583
        },
        {
          "duration": 0.39473600000002307,
          "durationTicks": 256,
          "midi": 71,
          "name": "B4",
          "ticks": 96512,
          "time": 149.50798299999997,
          "velocity": 0.4881889763779528
        },
        {
          "duration": 0.39473600000002307,
          "durationTicks": 256,
          "midi": 74,
          "name": "D5",
          "ticks": 96512,
          "time": 149.50798299999997,
          "velocity": 0.4881889763779528
        },
        {
          "duration": 0.39473600000002307,
          "durationTicks": 256,
          "midi": 47,
          "name": "B2",
          "ticks": 96512,
          "time": 149.50798299999997,
          "velocity": 0.4881889763779528
        },
        {
          "duration": 0.39473599999999465,
          "durationTicks": 256,
          "midi": 71,
          "name": "B4",
          "ticks": 96768,
          "time": 149.902719,
          "velocity": 0.48031496062992124
        },
        {
          "duration": 0.39473599999999465,
          "durationTicks": 256,
          "midi": 74,
          "name": "D5",
          "ticks": 96768,
          "time": 149.902719,
          "velocity": 0.48031496062992124
        },
        {
          "duration": 0.39473599999999465,
          "durationTicks": 256,
          "midi": 43,
          "name": "G2",
          "ticks": 96768,
          "time": 149.902719,
          "velocity": 0.4330708661417323
        },
        {
          "duration": 0.19736800000001153,
          "durationTicks": 128,
          "midi": 65,
          "name": "F4",
          "ticks": 97024,
          "time": 150.29745499999999,
          "velocity": 0.5039370078740157
        },
        {
          "duration": 0.19736800000001153,
          "durationTicks": 128,
          "midi": 73,
          "name": "C#5",
          "ticks": 97024,
          "time": 150.29745499999999,
          "velocity": 0.5039370078740157
        },
        {
          "duration": 0.39473599999999465,
          "durationTicks": 256,
          "midi": 49,
          "name": "C#3",
          "ticks": 97024,
          "time": 150.29745499999999,
          "velocity": 0.5511811023622047
        },
        {
          "duration": 0.39473599999999465,
          "durationTicks": 256,
          "midi": 53,
          "name": "F3",
          "ticks": 97024,
          "time": 150.29745499999999,
          "velocity": 0.5511811023622047
        },
        {
          "duration": 0.39473599999999465,
          "durationTicks": 256,
          "midi": 59,
          "name": "B3",
          "ticks": 97024,
          "time": 150.29745499999999,
          "velocity": 0.5511811023622047
        },
        {
          "duration": 0.4934200000000146,
          "durationTicks": 320,
          "midi": 65,
          "name": "F4",
          "ticks": 97216,
          "time": 150.593507,
          "velocity": 0.4409448818897638
        },
        {
          "duration": 0.09868399999999156,
          "durationTicks": 64,
          "midi": 73,
          "name": "C#5",
          "ticks": 97216,
          "time": 150.593507,
          "velocity": 0.4409448818897638
        },
        {
          "duration": 0.39473600000002307,
          "durationTicks": 256,
          "midi": 71,
          "name": "B4",
          "ticks": 97280,
          "time": 150.69219099999998,
          "velocity": 0.5433070866141733
        },
        {
          "duration": 0.39473600000002307,
          "durationTicks": 256,
          "midi": 49,
          "name": "C#3",
          "ticks": 97280,
          "time": 150.69219099999998,
          "velocity": 0.5275590551181102
        },
        {
          "duration": 0.39473600000002307,
          "durationTicks": 256,
          "midi": 53,
          "name": "F3",
          "ticks": 97280,
          "time": 150.69219099999998,
          "velocity": 0.5275590551181102
        },
        {
          "duration": 0.39473600000002307,
          "durationTicks": 256,
          "midi": 59,
          "name": "B3",
          "ticks": 97280,
          "time": 150.69219099999998,
          "velocity": 0.5275590551181102
        },
        {
          "duration": 0.3947359999999662,
          "durationTicks": 256,
          "midi": 70,
          "name": "A#4",
          "ticks": 97536,
          "time": 151.086927,
          "velocity": 0.5275590551181102
        },
        {
          "duration": 1.184207999999984,
          "durationTicks": 768,
          "midi": 66,
          "name": "F#4",
          "ticks": 97536,
          "time": 151.086927,
          "velocity": 0.4251968503937008
        },
        {
          "duration": 0.3947359999999662,
          "durationTicks": 256,
          "midi": 42,
          "name": "F#2",
          "ticks": 97536,
          "time": 151.086927,
          "velocity": 0.5039370078740157
        },
        {
          "duration": 1.1842080000000124,
          "durationTicks": 768,
          "midi": 73,
          "name": "C#5",
          "ticks": 97792,
          "time": 151.48166299999997,
          "velocity": 0.6614173228346457
        },
        {
          "duration": 0.39473600000002307,
          "durationTicks": 256,
          "midi": 49,
          "name": "C#3",
          "ticks": 97792,
          "time": 151.48166299999997,
          "velocity": 0.6929133858267716
        },
        {
          "duration": 0.39473600000002307,
          "durationTicks": 256,
          "midi": 54,
          "name": "F#3",
          "ticks": 97792,
          "time": 151.48166299999997,
          "velocity": 0.6929133858267716
        },
        {
          "duration": 0.39473600000002307,
          "durationTicks": 256,
          "midi": 58,
          "name": "A#3",
          "ticks": 97792,
          "time": 151.48166299999997,
          "velocity": 0.6929133858267716
        },
        {
          "duration": 0.39473599999999465,
          "durationTicks": 256,
          "midi": 49,
          "name": "C#3",
          "ticks": 98048,
          "time": 151.876399,
          "velocity": 0.6377952755905512
        },
        {
          "duration": 0.39473599999999465,
          "durationTicks": 256,
          "midi": 54,
          "name": "F#3",
          "ticks": 98048,
          "time": 151.876399,
          "velocity": 0.6377952755905512
        },
        {
          "duration": 0.39473599999999465,
          "durationTicks": 256,
          "midi": 58,
          "name": "A#3",
          "ticks": 98048,
          "time": 151.876399,
          "velocity": 0.6377952755905512
        },
        {
          "duration": 0.39473599999999465,
          "durationTicks": 256,
          "midi": 66,
          "name": "F#4",
          "ticks": 98304,
          "time": 152.271135,
          "velocity": 0.6535433070866141
        },
        {
          "duration": 0.39473599999999465,
          "durationTicks": 256,
          "midi": 42,
          "name": "F#2",
          "ticks": 98304,
          "time": 152.271135,
          "velocity": 0.6141732283464567
        },
        {
          "duration": 0.39473600000002307,
          "durationTicks": 256,
          "midi": 66,
          "name": "F#4",
          "ticks": 98560,
          "time": 152.66587099999998,
          "velocity": 0.5590551181102362
        },
        {
          "duration": 0.39473600000002307,
          "durationTicks": 256,
          "midi": 54,
          "name": "F#3",
          "ticks": 98560,
          "time": 152.66587099999998,
          "velocity": 0.8740157480314961
        },
        {
          "duration": 0.39473600000002307,
          "durationTicks": 256,
          "midi": 58,
          "name": "A#3",
          "ticks": 98560,
          "time": 152.66587099999998,
          "velocity": 0.8740157480314961
        },
        {
          "duration": 0.39473600000002307,
          "durationTicks": 256,
          "midi": 64,
          "name": "E4",
          "ticks": 98560,
          "time": 152.66587099999998,
          "velocity": 0.8740157480314961
        },
        {
          "duration": 0.602897562499976,
          "durationTicks": 391,
          "midi": 78,
          "name": "F#5",
          "ticks": 98816,
          "time": 153.060607,
          "velocity": 0.937007874015748
        },
        {
          "duration": 0.3947359999999662,
          "durationTicks": 256,
          "midi": 54,
          "name": "F#3",
          "ticks": 98816,
          "time": 153.060607,
          "velocity": 0.7637795275590551
        },
        {
          "duration": 0.3947359999999662,
          "durationTicks": 256,
          "midi": 58,
          "name": "A#3",
          "ticks": 98816,
          "time": 153.060607,
          "velocity": 0.7637795275590551
        },
        {
          "duration": 0.3947359999999662,
          "durationTicks": 256,
          "midi": 64,
          "name": "E4",
          "ticks": 98816,
          "time": 153.060607,
          "velocity": 0.7637795275590551
        },
        {
          "duration": 0.39473600000002307,
          "durationTicks": 256,
          "midi": 47,
          "name": "B2",
          "ticks": 99072,
          "time": 153.45534299999997,
          "velocity": 0.6614173228346457
        },
        {
          "duration": 0.20045187499999884,
          "durationTicks": 130,
          "midi": 79,
          "name": "G5",
          "ticks": 99200,
          "time": 153.65271099999998,
          "velocity": 0.8031496062992126
        },
        {
          "duration": 0.20045187499999884,
          "durationTicks": 130,
          "midi": 78,
          "name": "F#5",
          "ticks": 99328,
          "time": 153.850079,
          "velocity": 0.7874015748031497
        },
        {
          "duration": 0.39473599999999465,
          "durationTicks": 256,
          "midi": 54,
          "name": "F#3",
          "ticks": 99328,
          "time": 153.850079,
          "velocity": 0.9921259842519685
        },
        {
          "duration": 0.39473599999999465,
          "durationTicks": 256,
          "midi": 59,
          "name": "B3",
          "ticks": 99328,
          "time": 153.850079,
          "velocity": 0.9921259842519685
        },
        {
          "duration": 0.39473599999999465,
          "durationTicks": 256,
          "midi": 62,
          "name": "D4",
          "ticks": 99328,
          "time": 153.850079,
          "velocity": 0.9921259842519685
        },
        {
          "duration": 0.20045187499999884,
          "durationTicks": 130,
          "midi": 73,
          "name": "C#5",
          "ticks": 99456,
          "time": 154.04744699999998,
          "velocity": 0.6535433070866141
        },
        {
          "duration": 0.20045187499999884,
          "durationTicks": 130,
          "midi": 74,
          "name": "D5",
          "ticks": 99584,
          "time": 154.244815,
          "velocity": 0.7007874015748031
        },
        {
          "duration": 0.39473599999999465,
          "durationTicks": 256,
          "midi": 54,
          "name": "F#3",
          "ticks": 99584,
          "time": 154.244815,
          "velocity": 0.8110236220472441
        },
        {
          "duration": 0.39473599999999465,
          "durationTicks": 256,
          "midi": 59,
          "name": "B3",
          "ticks": 99584,
          "time": 154.244815,
          "velocity": 0.8110236220472441
        },
        {
          "duration": 0.39473599999999465,
          "durationTicks": 256,
          "midi": 62,
          "name": "D4",
          "ticks": 99584,
          "time": 154.244815,
          "velocity": 0.8110236220472441
        },
        {
          "duration": 0.20045187499999884,
          "durationTicks": 130,
          "midi": 71,
          "name": "B4",
          "ticks": 99712,
          "time": 154.442183,
          "velocity": 0.6850393700787402
        },
        {
          "duration": 0.7493816250000123,
          "durationTicks": 486,
          "midi": 70,
          "name": "A#4",
          "ticks": 99840,
          "time": 154.63955099999998,
          "velocity": 0.6614173228346457
        },
        {
          "duration": 0.39473600000002307,
          "durationTicks": 256,
          "midi": 49,
          "name": "C#3",
          "ticks": 99840,
          "time": 154.63955099999998,
          "velocity": 0.6929133858267716
        },
        {
          "duration": 0.3947359999999662,
          "durationTicks": 256,
          "midi": 54,
          "name": "F#3",
          "ticks": 100096,
          "time": 155.034287,
          "velocity": 0.9291338582677166
        },
        {
          "duration": 0.3947359999999662,
          "durationTicks": 256,
          "midi": 58,
          "name": "A#3",
          "ticks": 100096,
          "time": 155.034287,
          "velocity": 0.9291338582677166
        },
        {
          "duration": 0.3947359999999662,
          "durationTicks": 256,
          "midi": 64,
          "name": "E4",
          "ticks": 100096,
          "time": 155.034287,
          "velocity": 0.9291338582677166
        },
        {
          "duration": 0.6028975625000044,
          "durationTicks": 391,
          "midi": 78,
          "name": "F#5",
          "ticks": 100352,
          "time": 155.42902299999997,
          "velocity": 0.937007874015748
        },
        {
          "duration": 0.39473600000002307,
          "durationTicks": 256,
          "midi": 54,
          "name": "F#3",
          "ticks": 100352,
          "time": 155.42902299999997,
          "velocity": 0.8267716535433071
        },
        {
          "duration": 0.39473600000002307,
          "durationTicks": 256,
          "midi": 58,
          "name": "A#3",
          "ticks": 100352,
          "time": 155.42902299999997,
          "velocity": 0.8267716535433071
        },
        {
          "duration": 0.39473600000002307,
          "durationTicks": 256,
          "midi": 64,
          "name": "E4",
          "ticks": 100352,
          "time": 155.42902299999997,
          "velocity": 0.8267716535433071
        },
        {
          "duration": 0.39473599999999465,
          "durationTicks": 256,
          "midi": 46,
          "name": "A#2",
          "ticks": 100608,
          "time": 155.823759,
          "velocity": 0.6929133858267716
        },
        {
          "duration": 0.20045187499999884,
          "durationTicks": 130,
          "midi": 79,
          "name": "G5",
          "ticks": 100736,
          "time": 156.02112699999998,
          "velocity": 1
        },
        {
          "duration": 0.20045187499999884,
          "durationTicks": 130,
          "midi": 78,
          "name": "F#5",
          "ticks": 100864,
          "time": 156.218495,
          "velocity": 0.7480314960629921
        },
        {
          "duration": 0.39473599999999465,
          "durationTicks": 256,
          "midi": 54,
          "name": "F#3",
          "ticks": 100864,
          "time": 156.218495,
          "velocity": 0.968503937007874
        },
        {
          "duration": 0.39473599999999465,
          "durationTicks": 256,
          "midi": 61,
          "name": "C#4",
          "ticks": 100864,
          "time": 156.218495,
          "velocity": 0.968503937007874
        },
        {
          "duration": 0.39473599999999465,
          "durationTicks": 256,
          "midi": 64,
          "name": "E4",
          "ticks": 100864,
          "time": 156.218495,
          "velocity": 0.968503937007874
        },
        {
          "duration": 0.20045187499999884,
          "durationTicks": 130,
          "midi": 73,
          "name": "C#5",
          "ticks": 100992,
          "time": 156.415863,
          "velocity": 0.6062992125984252
        },
        {
          "duration": 0.20045187499999884,
          "durationTicks": 130,
          "midi": 76,
          "name": "E5",
          "ticks": 101120,
          "time": 156.61323099999998,
          "velocity": 0.8346456692913385
        },
        {
          "duration": 0.39473599999999465,
          "durationTicks": 256,
          "midi": 54,
          "name": "F#3",
          "ticks": 101120,
          "time": 156.61323099999998,
          "velocity": 0.7952755905511811
        },
        {
          "duration": 0.39473599999999465,
          "durationTicks": 256,
          "midi": 61,
          "name": "C#4",
          "ticks": 101120,
          "time": 156.61323099999998,
          "velocity": 0.7952755905511811
        },
        {
          "duration": 0.39473599999999465,
          "durationTicks": 256,
          "midi": 64,
          "name": "E4",
          "ticks": 101120,
          "time": 156.61323099999998,
          "velocity": 0.7952755905511811
        },
        {
          "duration": 0.20045187499999884,
          "durationTicks": 130,
          "midi": 74,
          "name": "D5",
          "ticks": 101248,
          "time": 156.81059899999997,
          "velocity": 0.7795275590551181
        },
        {
          "duration": 0.7493816250000123,
          "durationTicks": 486,
          "midi": 71,
          "name": "B4",
          "ticks": 101376,
          "time": 157.00796699999998,
          "velocity": 0.7007874015748031
        },
        {
          "duration": 0.39473599999999465,
          "durationTicks": 256,
          "midi": 47,
          "name": "B2",
          "ticks": 101376,
          "time": 157.00796699999998,
          "velocity": 0.6692913385826772
        },
        {
          "duration": 0.39473600000002307,
          "durationTicks": 256,
          "midi": 54,
          "name": "F#3",
          "ticks": 101632,
          "time": 157.40270299999997,
          "velocity": 0.9606299212598425
        },
        {
          "duration": 0.39473600000002307,
          "durationTicks": 256,
          "midi": 59,
          "name": "B3",
          "ticks": 101632,
          "time": 157.40270299999997,
          "velocity": 0.9606299212598425
        },
        {
          "duration": 0.39473600000002307,
          "durationTicks": 256,
          "midi": 62,
          "name": "D4",
          "ticks": 101632,
          "time": 157.40270299999997,
          "velocity": 0.9606299212598425
        },
        {
          "duration": 0.6028975625000044,
          "durationTicks": 391,
          "midi": 78,
          "name": "F#5",
          "ticks": 101888,
          "time": 157.797439,
          "velocity": 0.889763779527559
        },
        {
          "duration": 0.39473599999999465,
          "durationTicks": 256,
          "midi": 54,
          "name": "F#3",
          "ticks": 101888,
          "time": 157.797439,
          "velocity": 0.8188976377952756
        },
        {
          "duration": 0.39473599999999465,
          "durationTicks": 256,
          "midi": 59,
          "name": "B3",
          "ticks": 101888,
          "time": 157.797439,
          "velocity": 0.8188976377952756
        },
        {
          "duration": 0.39473599999999465,
          "durationTicks": 256,
          "midi": 62,
          "name": "D4",
          "ticks": 101888,
          "time": 157.797439,
          "velocity": 0.8188976377952756
        },
        {
          "duration": 0.39473599999999465,
          "durationTicks": 256,
          "midi": 47,
          "name": "B2",
          "ticks": 102144,
          "time": 158.192175,
          "velocity": 0.6850393700787402
        },
        {
          "duration": 0.20045187499999884,
          "durationTicks": 130,
          "midi": 79,
          "name": "G5",
          "ticks": 102272,
          "time": 158.389543,
          "velocity": 0.8188976377952756
        },
        {
          "duration": 0.20045187499999884,
          "durationTicks": 130,
          "midi": 77,
          "name": "F5",
          "ticks": 102400,
          "time": 158.586911,
          "velocity": 0.8110236220472441
        },
        {
          "duration": 0.39473599999999465,
          "durationTicks": 256,
          "midi": 54,
          "name": "F#3",
          "ticks": 102400,
          "time": 158.586911,
          "velocity": 0.984251968503937
        },
        {
          "duration": 0.39473599999999465,
          "durationTicks": 256,
          "midi": 59,
          "name": "B3",
          "ticks": 102400,
          "time": 158.586911,
          "velocity": 0.984251968503937
        },
        {
          "duration": 0.39473599999999465,
          "durationTicks": 256,
          "midi": 62,
          "name": "D4",
          "ticks": 102400,
          "time": 158.586911,
          "velocity": 0.984251968503937
        },
        {
          "duration": 0.20045187499999884,
          "durationTicks": 130,
          "midi": 78,
          "name": "F#5",
          "ticks": 102528,
          "time": 158.78427899999997,
          "velocity": 0.8346456692913385
        },
        {
          "duration": 0.20045187499999884,
          "durationTicks": 130,
          "midi": 83,
          "name": "B5",
          "ticks": 102656,
          "time": 158.98164699999998,
          "velocity": 0.937007874015748
        },
        {
          "duration": 0.39473599999999465,
          "durationTicks": 256,
          "midi": 54,
          "name": "F#3",
          "ticks": 102656,
          "time": 158.98164699999998,
          "velocity": 0.8740157480314961
        },
        {
          "duration": 0.39473599999999465,
          "durationTicks": 256,
          "midi": 59,
          "name": "B3",
          "ticks": 102656,
          "time": 158.98164699999998,
          "velocity": 0.8740157480314961
        },
        {
          "duration": 0.39473599999999465,
          "durationTicks": 256,
          "midi": 62,
          "name": "D4",
          "ticks": 102656,
          "time": 158.98164699999998,
          "velocity": 0.8740157480314961
        },
        {
          "duration": 0.1973679999999831,
          "durationTicks": 128,
          "midi": 86,
          "name": "D6",
          "ticks": 102784,
          "time": 159.179015,
          "velocity": 0.9291338582677166
        },
        {
          "duration": 0.37469081250000613,
          "durationTicks": 243,
          "midi": 86,
          "name": "D6",
          "ticks": 102912,
          "time": 159.37638299999998,
          "velocity": 0.7637795275590551
        },
        {
          "duration": 0.39473600000002307,
          "durationTicks": 256,
          "midi": 47,
          "name": "B2",
          "ticks": 102912,
          "time": 159.37638299999998,
          "velocity": 0.6614173228346457
        },
        {
          "duration": 0.39473599999999465,
          "durationTicks": 256,
          "midi": 77,
          "name": "F5",
          "ticks": 103168,
          "time": 159.771119,
          "velocity": 0.5984251968503937
        },
        {
          "duration": 0.39473599999999465,
          "durationTicks": 256,
          "midi": 56,
          "name": "G#3",
          "ticks": 103168,
          "time": 159.771119,
          "velocity": 0.952755905511811
        },
        {
          "duration": 0.39473599999999465,
          "durationTicks": 256,
          "midi": 59,
          "name": "B3",
          "ticks": 103168,
          "time": 159.771119,
          "velocity": 0.952755905511811
        },
        {
          "duration": 0.39473599999999465,
          "durationTicks": 256,
          "midi": 62,
          "name": "D4",
          "ticks": 103168,
          "time": 159.771119,
          "velocity": 0.952755905511811
        },
        {
          "duration": 0.7894719999999893,
          "durationTicks": 512,
          "midi": 86,
          "name": "D6",
          "ticks": 103424,
          "time": 160.165855,
          "velocity": 1
        },
        {
          "duration": 0.39473599999999465,
          "durationTicks": 256,
          "midi": 56,
          "name": "G#3",
          "ticks": 103424,
          "time": 160.165855,
          "velocity": 0.7716535433070866
        },
        {
          "duration": 0.39473599999999465,
          "durationTicks": 256,
          "midi": 59,
          "name": "B3",
          "ticks": 103424,
          "time": 160.165855,
          "velocity": 0.7716535433070866
        },
        {
          "duration": 0.39473599999999465,
          "durationTicks": 256,
          "midi": 62,
          "name": "D4",
          "ticks": 103424,
          "time": 160.165855,
          "velocity": 0.7716535433070866
        },
        {
          "duration": 0.39473599999999465,
          "durationTicks": 256,
          "midi": 47,
          "name": "B2",
          "ticks": 103680,
          "time": 160.560591,
          "velocity": 0.6535433070866141
        },
        {
          "duration": 0.40244568750000553,
          "durationTicks": 261,
          "midi": 76,
          "name": "E5",
          "ticks": 103936,
          "time": 160.95532699999998,
          "velocity": 0.5984251968503937
        },
        {
          "duration": 0.39473599999999465,
          "durationTicks": 256,
          "midi": 55,
          "name": "G3",
          "ticks": 103936,
          "time": 160.95532699999998,
          "velocity": 0.937007874015748
        },
        {
          "duration": 0.39473599999999465,
          "durationTicks": 256,
          "midi": 59,
          "name": "B3",
          "ticks": 103936,
          "time": 160.95532699999998,
          "velocity": 0.937007874015748
        },
        {
          "duration": 0.39473599999999465,
          "durationTicks": 256,
          "midi": 64,
          "name": "E4",
          "ticks": 103936,
          "time": 160.95532699999998,
          "velocity": 0.937007874015748
        },
        {
          "duration": 0.6028975625000044,
          "durationTicks": 391,
          "midi": 85,
          "name": "C#6",
          "ticks": 104192,
          "time": 161.35006299999998,
          "velocity": 0.8267716535433071
        },
        {
          "duration": 0.39473600000002307,
          "durationTicks": 256,
          "midi": 55,
          "name": "G3",
          "ticks": 104192,
          "time": 161.35006299999998,
          "velocity": 0.7952755905511811
        },
        {
          "duration": 0.39473600000002307,
          "durationTicks": 256,
          "midi": 59,
          "name": "B3",
          "ticks": 104192,
          "time": 161.35006299999998,
          "velocity": 0.7952755905511811
        },
        {
          "duration": 0.39473600000002307,
          "durationTicks": 256,
          "midi": 64,
          "name": "E4",
          "ticks": 104192,
          "time": 161.35006299999998,
          "velocity": 0.7952755905511811
        },
        {
          "duration": 0.3947359999999662,
          "durationTicks": 256,
          "midi": 47,
          "name": "B2",
          "ticks": 104448,
          "time": 161.744799,
          "velocity": 0.6614173228346457
        },
        {
          "duration": 0.20045187499999884,
          "durationTicks": 130,
          "midi": 83,
          "name": "B5",
          "ticks": 104576,
          "time": 161.94216699999998,
          "velocity": 0.6771653543307087
        },
        {
          "duration": 0.20045187499999884,
          "durationTicks": 130,
          "midi": 82,
          "name": "A#5",
          "ticks": 104704,
          "time": 162.13953499999997,
          "velocity": 0.6535433070866141
        },
        {
          "duration": 0.39473600000002307,
          "durationTicks": 256,
          "midi": 54,
          "name": "F#3",
          "ticks": 104704,
          "time": 162.13953499999997,
          "velocity": 0.8346456692913385
        },
        {
          "duration": 0.39473600000002307,
          "durationTicks": 256,
          "midi": 61,
          "name": "C#4",
          "ticks": 104704,
          "time": 162.13953499999997,
          "velocity": 0.8346456692913385
        },
        {
          "duration": 0.39473600000002307,
          "durationTicks": 256,
          "midi": 64,
          "name": "E4",
          "ticks": 104704,
          "time": 162.13953499999997,
          "velocity": 0.8346456692913385
        },
        {
          "duration": 0.20045187499999884,
          "durationTicks": 130,
          "midi": 79,
          "name": "G5",
          "ticks": 104832,
          "time": 162.336903,
          "velocity": 0.5590551181102362
        },
        {
          "duration": 0.20045187499999884,
          "durationTicks": 130,
          "midi": 78,
          "name": "F#5",
          "ticks": 104960,
          "time": 162.534271,
          "velocity": 0.5669291338582677
        },
        {
          "duration": 0.39473599999999465,
          "durationTicks": 256,
          "midi": 54,
          "name": "F#3",
          "ticks": 104960,
          "time": 162.534271,
          "velocity": 0.5748031496062992
        },
        {
          "duration": 0.39473599999999465,
          "durationTicks": 256,
          "midi": 58,
          "name": "A#3",
          "ticks": 104960,
          "time": 162.534271,
          "velocity": 0.5748031496062992
        },
        {
          "duration": 0.39473599999999465,
          "durationTicks": 256,
          "midi": 64,
          "name": "E4",
          "ticks": 104960,
          "time": 162.534271,
          "velocity": 0.5748031496062992
        },
        {
          "duration": 0.18657443750001335,
          "durationTicks": 121,
          "midi": 73,
          "name": "C#5",
          "ticks": 105088,
          "time": 162.73163899999997,
          "velocity": 0.4330708661417323
        },
        {
          "duration": 0.20045187499999884,
          "durationTicks": 130,
          "midi": 74,
          "name": "D5",
          "ticks": 105216,
          "time": 162.92900699999998,
          "velocity": 0.5039370078740157
        },
        {
          "duration": 0.39473599999999465,
          "durationTicks": 256,
          "midi": 47,
          "name": "B2",
          "ticks": 105216,
          "time": 162.92900699999998,
          "velocity": 0.4094488188976378
        },
        {
          "duration": 0.20045187499999884,
          "durationTicks": 130,
          "midi": 79,
          "name": "G5",
          "ticks": 105344,
          "time": 163.126375,
          "velocity": 0.5826771653543307
        },
        {
          "duration": 0.20045187499999884,
          "durationTicks": 130,
          "midi": 78,
          "name": "F#5",
          "ticks": 105472,
          "time": 163.32374299999998,
          "velocity": 0.4881889763779528
        },
        {
          "duration": 0.39473600000002307,
          "durationTicks": 256,
          "midi": 54,
          "name": "F#3",
          "ticks": 105472,
          "time": 163.32374299999998,
          "velocity": 0.5905511811023622
        },
        {
          "duration": 0.39473600000002307,
          "durationTicks": 256,
          "midi": 59,
          "name": "B3",
          "ticks": 105472,
          "time": 163.32374299999998,
          "velocity": 0.5905511811023622
        },
        {
          "duration": 0.39473600000002307,
          "durationTicks": 256,
          "midi": 62,
          "name": "D4",
          "ticks": 105472,
          "time": 163.32374299999998,
          "velocity": 0.5905511811023622
        },
        {
          "duration": 0.20045187499999884,
          "durationTicks": 130,
          "midi": 73,
          "name": "C#5",
          "ticks": 105600,
          "time": 163.521111,
          "velocity": 0.4015748031496063
        },
        {
          "duration": 0.20045187499999884,
          "durationTicks": 130,
          "midi": 74,
          "name": "D5",
          "ticks": 105728,
          "time": 163.718479,
          "velocity": 0.48031496062992124
        },
        {
          "duration": 0.3947359999999662,
          "durationTicks": 256,
          "midi": 54,
          "name": "F#3",
          "ticks": 105728,
          "time": 163.718479,
          "velocity": 0.48031496062992124
        },
        {
          "duration": 0.3947359999999662,
          "durationTicks": 256,
          "midi": 59,
          "name": "B3",
          "ticks": 105728,
          "time": 163.718479,
          "velocity": 0.48031496062992124
        },
        {
          "duration": 0.3947359999999662,
          "durationTicks": 256,
          "midi": 62,
          "name": "D4",
          "ticks": 105728,
          "time": 163.718479,
          "velocity": 0.48031496062992124
        },
        {
          "duration": 0.20045187499999884,
          "durationTicks": 130,
          "midi": 71,
          "name": "B4",
          "ticks": 105856,
          "time": 163.91584699999999,
          "velocity": 0.4566929133858268
        },
        {
          "duration": 0.7493816250000123,
          "durationTicks": 486,
          "midi": 70,
          "name": "A#4",
          "ticks": 105984,
          "time": 164.11321499999997,
          "velocity": 0.44881889763779526
        },
        {
          "duration": 0.39473600000002307,
          "durationTicks": 256,
          "midi": 49,
          "name": "C#3",
          "ticks": 105984,
          "time": 164.11321499999997,
          "velocity": 0.4094488188976378
        },
        {
          "duration": 0.39473599999999465,
          "durationTicks": 256,
          "midi": 54,
          "name": "F#3",
          "ticks": 106240,
          "time": 164.507951,
          "velocity": 0.5905511811023622
        },
        {
          "duration": 0.39473599999999465,
          "durationTicks": 256,
          "midi": 58,
          "name": "A#3",
          "ticks": 106240,
          "time": 164.507951,
          "velocity": 0.5905511811023622
        },
        {
          "duration": 0.39473599999999465,
          "durationTicks": 256,
          "midi": 64,
          "name": "E4",
          "ticks": 106240,
          "time": 164.507951,
          "velocity": 0.5905511811023622
        },
        {
          "duration": 0.6028975625000044,
          "durationTicks": 391,
          "midi": 78,
          "name": "F#5",
          "ticks": 106496,
          "time": 164.902687,
          "velocity": 0.5905511811023622
        },
        {
          "duration": 0.39473599999999465,
          "durationTicks": 256,
          "midi": 54,
          "name": "F#3",
          "ticks": 106496,
          "time": 164.902687,
          "velocity": 0.48031496062992124
        },
        {
          "duration": 0.39473599999999465,
          "durationTicks": 256,
          "midi": 58,
          "name": "A#3",
          "ticks": 106496,
          "time": 164.902687,
          "velocity": 0.48031496062992124
        },
        {
          "duration": 0.39473599999999465,
          "durationTicks": 256,
          "midi": 64,
          "name": "E4",
          "ticks": 106496,
          "time": 164.902687,
          "velocity": 0.48031496062992124
        },
        {
          "duration": 0.39473600000002307,
          "durationTicks": 256,
          "midi": 42,
          "name": "F#2",
          "ticks": 106752,
          "time": 165.29742299999998,
          "velocity": 0.41732283464566927
        },
        {
          "duration": 0.20045187499999884,
          "durationTicks": 130,
          "midi": 79,
          "name": "G5",
          "ticks": 106880,
          "time": 165.494791,
          "velocity": 0.5275590551181102
        },
        {
          "duration": 0.20045187499999884,
          "durationTicks": 130,
          "midi": 78,
          "name": "F#5",
          "ticks": 107008,
          "time": 165.692159,
          "velocity": 0.5354330708661418
        },
        {
          "duration": 0.3947359999999662,
          "durationTicks": 256,
          "midi": 54,
          "name": "F#3",
          "ticks": 107008,
          "time": 165.692159,
          "velocity": 0.6929133858267716
        },
        {
          "duration": 0.3947359999999662,
          "durationTicks": 256,
          "midi": 58,
          "name": "A#3",
          "ticks": 107008,
          "time": 165.692159,
          "velocity": 0.6929133858267716
        },
        {
          "duration": 0.3947359999999662,
          "durationTicks": 256,
          "midi": 64,
          "name": "E4",
          "ticks": 107008,
          "time": 165.692159,
          "velocity": 0.6929133858267716
        },
        {
          "duration": 0.20045187499999884,
          "durationTicks": 130,
          "midi": 73,
          "name": "C#5",
          "ticks": 107136,
          "time": 165.889527,
          "velocity": 0.4881889763779528
        },
        {
          "duration": 0.20045187499999884,
          "durationTicks": 130,
          "midi": 76,
          "name": "E5",
          "ticks": 107264,
          "time": 166.08689499999997,
          "velocity": 0.6377952755905512
        },
        {
          "duration": 0.39473600000002307,
          "durationTicks": 256,
          "midi": 54,
          "name": "F#3",
          "ticks": 107264,
          "time": 166.08689499999997,
          "velocity": 0.6456692913385826
        },
        {
          "duration": 0.39473600000002307,
          "durationTicks": 256,
          "midi": 58,
          "name": "A#3",
          "ticks": 107264,
          "time": 166.08689499999997,
          "velocity": 0.6456692913385826
        },
        {
          "duration": 0.39473600000002307,
          "durationTicks": 256,
          "midi": 64,
          "name": "E4",
          "ticks": 107264,
          "time": 166.08689499999997,
          "velocity": 0.6456692913385826
        },
        {
          "duration": 0.20045187499999884,
          "durationTicks": 130,
          "midi": 74,
          "name": "D5",
          "ticks": 107392,
          "time": 166.28426299999998,
          "velocity": 0.6062992125984252
        },
        {
          "duration": 0.7493816249999838,
          "durationTicks": 486,
          "midi": 71,
          "name": "B4",
          "ticks": 107520,
          "time": 166.481631,
          "velocity": 0.6220472440944882
        },
        {
          "duration": 0.39473599999999465,
          "durationTicks": 256,
          "midi": 47,
          "name": "B2",
          "ticks": 107520,
          "time": 166.481631,
          "velocity": 0.5669291338582677
        },
        {
          "duration": 0.39473599999999465,
          "durationTicks": 256,
          "midi": 54,
          "name": "F#3",
          "ticks": 107776,
          "time": 166.876367,
          "velocity": 0.84251968503937
        },
        {
          "duration": 0.39473599999999465,
          "durationTicks": 256,
          "midi": 59,
          "name": "B3",
          "ticks": 107776,
          "time": 166.876367,
          "velocity": 0.84251968503937
        },
        {
          "duration": 0.39473599999999465,
          "durationTicks": 256,
          "midi": 62,
          "name": "D4",
          "ticks": 107776,
          "time": 166.876367,
          "velocity": 0.84251968503937
        },
        {
          "duration": 0.6028975625000044,
          "durationTicks": 391,
          "midi": 78,
          "name": "F#5",
          "ticks": 108032,
          "time": 167.27110299999998,
          "velocity": 0.8188976377952756
        },
        {
          "duration": 0.39473599999999465,
          "durationTicks": 256,
          "midi": 54,
          "name": "F#3",
          "ticks": 108032,
          "time": 167.27110299999998,
          "velocity": 0.7086614173228346
        },
        {
          "duration": 0.39473599999999465,
          "durationTicks": 256,
          "midi": 59,
          "name": "B3",
          "ticks": 108032,
          "time": 167.27110299999998,
          "velocity": 0.7086614173228346
        },
        {
          "duration": 0.39473599999999465,
          "durationTicks": 256,
          "midi": 62,
          "name": "D4",
          "ticks": 108032,
          "time": 167.27110299999998,
          "velocity": 0.7086614173228346
        },
        {
          "duration": 0.37469081250000613,
          "durationTicks": 243,
          "midi": 50,
          "name": "D3",
          "ticks": 108288,
          "time": 167.66583899999998,
          "velocity": 0.6771653543307087
        },
        {
          "duration": 0.20045187499999884,
          "durationTicks": 130,
          "midi": 90,
          "name": "F#6",
          "ticks": 108416,
          "time": 167.863207,
          "velocity": 0.9606299212598425
        },
        {
          "duration": 0.20045187499999884,
          "durationTicks": 130,
          "midi": 85,
          "name": "C#6",
          "ticks": 108544,
          "time": 168.060575,
          "velocity": 0.8740157480314961
        },
        {
          "duration": 0.39473599999999465,
          "durationTicks": 256,
          "midi": 54,
          "name": "F#3",
          "ticks": 108544,
          "time": 168.060575,
          "velocity": 0.952755905511811
        },
        {
          "duration": 0.39473599999999465,
          "durationTicks": 256,
          "midi": 59,
          "name": "B3",
          "ticks": 108544,
          "time": 168.060575,
          "velocity": 0.952755905511811
        },
        {
          "duration": 0.39473599999999465,
          "durationTicks": 256,
          "midi": 62,
          "name": "D4",
          "ticks": 108544,
          "time": 168.060575,
          "velocity": 0.952755905511811
        },
        {
          "duration": 0.20045187499999884,
          "durationTicks": 130,
          "midi": 86,
          "name": "D6",
          "ticks": 108672,
          "time": 168.25794299999998,
          "velocity": 0.7795275590551181
        },
        {
          "duration": 0.20045187499999884,
          "durationTicks": 130,
          "midi": 82,
          "name": "A#5",
          "ticks": 108800,
          "time": 168.455311,
          "velocity": 0.6850393700787402
        },
        {
          "duration": 0.39473599999999465,
          "durationTicks": 256,
          "midi": 54,
          "name": "F#3",
          "ticks": 108800,
          "time": 168.455311,
          "velocity": 0.7716535433070866
        },
        {
          "duration": 0.39473599999999465,
          "durationTicks": 256,
          "midi": 59,
          "name": "B3",
          "ticks": 108800,
          "time": 168.455311,
          "velocity": 0.7716535433070866
        },
        {
          "duration": 0.39473599999999465,
          "durationTicks": 256,
          "midi": 62,
          "name": "D4",
          "ticks": 108800,
          "time": 168.455311,
          "velocity": 0.7716535433070866
        },
        {
          "duration": 0.18657443750001335,
          "durationTicks": 121,
          "midi": 83,
          "name": "B5",
          "ticks": 108928,
          "time": 168.65267899999998,
          "velocity": 0.8188976377952756
        },
        {
          "duration": 0.20045187499999884,
          "durationTicks": 130,
          "midi": 81,
          "name": "A5",
          "ticks": 109056,
          "time": 168.850047,
          "velocity": 0.7165354330708661
        },
        {
          "duration": 0.37469081250000613,
          "durationTicks": 243,
          "midi": 52,
          "name": "E3",
          "ticks": 109056,
          "time": 168.850047,
          "velocity": 0.7007874015748031
        },
        {
          "duration": 0.20045187500002726,
          "durationTicks": 130,
          "midi": 79,
          "name": "G5",
          "ticks": 109184,
          "time": 169.04741499999997,
          "velocity": 0.6929133858267716
        },
        {
          "duration": 0.20045187499999884,
          "durationTicks": 130,
          "midi": 71,
          "name": "B4",
          "ticks": 109312,
          "time": 169.24478299999998,
          "velocity": 0.5984251968503937
        },
        {
          "duration": 0.39473599999999465,
          "durationTicks": 256,
          "midi": 59,
          "name": "B3",
          "ticks": 109312,
          "time": 169.24478299999998,
          "velocity": 0.968503937007874
        },
        {
          "duration": 0.39473599999999465,
          "durationTicks": 256,
          "midi": 61,
          "name": "C#4",
          "ticks": 109312,
          "time": 169.24478299999998,
          "velocity": 0.968503937007874
        },
        {
          "duration": 0.39473599999999465,
          "durationTicks": 256,
          "midi": 67,
          "name": "G4",
          "ticks": 109312,
          "time": 169.24478299999998,
          "velocity": 0.968503937007874
        },
        {
          "duration": 0.20045187499999884,
          "durationTicks": 130,
          "midi": 73,
          "name": "C#5",
          "ticks": 109440,
          "time": 169.442151,
          "velocity": 0.6377952755905512
        },
        {
          "duration": 0.20045187499999884,
          "durationTicks": 130,
          "midi": 74,
          "name": "D5",
          "ticks": 109568,
          "time": 169.63951899999998,
          "velocity": 0.8031496062992126
        },
        {
          "duration": 0.18657443749998492,
          "durationTicks": 121,
          "midi": 76,
          "name": "E5",
          "ticks": 109696,
          "time": 169.836887,
          "velocity": 0.8740157480314961
        },
        {
          "duration": 0.20045187499999884,
          "durationTicks": 130,
          "midi": 79,
          "name": "G5",
          "ticks": 109824,
          "time": 170.03425499999997,
          "velocity": 0.8267716535433071
        },
        {
          "duration": 1.1842080000000124,
          "durationTicks": 768,
          "midi": 54,
          "name": "F#3",
          "ticks": 109824,
          "time": 170.03425499999997,
          "velocity": 0.6614173228346457
        },
        {
          "duration": 0.20045187499999884,
          "durationTicks": 130,
          "midi": 78,
          "name": "F#5",
          "ticks": 109952,
          "time": 170.23162299999998,
          "velocity": 0.7244094488188977
        },
        {
          "duration": 0.20045187499999884,
          "durationTicks": 130,
          "midi": 71,
          "name": "B4",
          "ticks": 110080,
          "time": 170.428991,
          "velocity": 0.5196850393700787
        },
        {
          "duration": 0.39473599999999465,
          "durationTicks": 256,
          "midi": 59,
          "name": "B3",
          "ticks": 110080,
          "time": 170.428991,
          "velocity": 0.889763779527559
        },
        {
          "duration": 0.39473599999999465,
          "durationTicks": 256,
          "midi": 62,
          "name": "D4",
          "ticks": 110080,
          "time": 170.428991,
          "velocity": 0.889763779527559
        },
        {
          "duration": 0.20045187499999884,
          "durationTicks": 130,
          "midi": 74,
          "name": "D5",
          "ticks": 110208,
          "time": 170.62635899999998,
          "velocity": 0.6535433070866141
        },
        {
          "duration": 0.20045187499999884,
          "durationTicks": 130,
          "midi": 73,
          "name": "C#5",
          "ticks": 110336,
          "time": 170.823727,
          "velocity": 0.5905511811023622
        },
        {
          "duration": 0.39473599999999465,
          "durationTicks": 256,
          "midi": 58,
          "name": "A#3",
          "ticks": 110336,
          "time": 170.823727,
          "velocity": 0.8267716535433071
        },
        {
          "duration": 0.39473599999999465,
          "durationTicks": 256,
          "midi": 64,
          "name": "E4",
          "ticks": 110336,
          "time": 170.823727,
          "velocity": 0.8267716535433071
        },
        {
          "duration": 0.20045187499999884,
          "durationTicks": 130,
          "midi": 66,
          "name": "F#4",
          "ticks": 110464,
          "time": 171.02109499999997,
          "velocity": 0.41732283464566927
        },
        {
          "duration": 0.5612652499999911,
          "durationTicks": 364,
          "midi": 71,
          "name": "B4",
          "ticks": 110592,
          "time": 171.21846299999999,
          "velocity": 0.5196850393700787
        },
        {
          "duration": 0.39473599999999465,
          "durationTicks": 256,
          "midi": 47,
          "name": "B2",
          "ticks": 110592,
          "time": 171.21846299999999,
          "velocity": 0.4645669291338583
        },
        {
          "duration": 0.39473599999999465,
          "durationTicks": 256,
          "midi": 54,
          "name": "F#3",
          "ticks": 110848,
          "time": 171.61319899999998,
          "velocity": 0.6062992125984252
        },
        {
          "duration": 0.39473599999999465,
          "durationTicks": 256,
          "midi": 62,
          "name": "D4",
          "ticks": 110848,
          "time": 171.61319899999998,
          "velocity": 0.6062992125984252
        },
        {
          "duration": 0.20045187499999884,
          "durationTicks": 130,
          "midi": 66,
          "name": "F#4",
          "ticks": 110976,
          "time": 171.810567,
          "velocity": 0.3937007874015748
        },
        {
          "duration": 0.20045187499999884,
          "durationTicks": 130,
          "midi": 71,
          "name": "B4",
          "ticks": 111104,
          "time": 172.00793499999997,
          "velocity": 0.4566929133858268
        },
        {
          "duration": 0.39473600000002307,
          "durationTicks": 256,
          "midi": 50,
          "name": "D3",
          "ticks": 111104,
          "time": 172.00793499999997,
          "velocity": 0.4251968503937008
        },
        {
          "duration": 0.18657443749998492,
          "durationTicks": 121,
          "midi": 70,
          "name": "A#4",
          "ticks": 111232,
          "time": 172.205303,
          "velocity": 0.4409448818897638
        },
        {
          "duration": 0.602897562499976,
          "durationTicks": 391,
          "midi": 70,
          "name": "A#4",
          "ticks": 111360,
          "time": 172.402671,
          "velocity": 0.44881889763779526
        },
        {
          "duration": 0.39473599999999465,
          "durationTicks": 256,
          "midi": 49,
          "name": "C#3",
          "ticks": 111360,
          "time": 172.402671,
          "velocity": 0.48031496062992124
        },
        {
          "duration": 0.39473599999999465,
          "durationTicks": 256,
          "midi": 55,
          "name": "G3",
          "ticks": 111616,
          "time": 172.797407,
          "velocity": 0.6220472440944882
        },
        {
          "duration": 0.39473599999999465,
          "durationTicks": 256,
          "midi": 57,
          "name": "A3",
          "ticks": 111616,
          "time": 172.797407,
          "velocity": 0.6220472440944882
        },
        {
          "duration": 0.39473599999999465,
          "durationTicks": 256,
          "midi": 64,
          "name": "E4",
          "ticks": 111616,
          "time": 172.797407,
          "velocity": 0.6220472440944882
        },
        {
          "duration": 0.20045187499999884,
          "durationTicks": 130,
          "midi": 69,
          "name": "A4",
          "ticks": 111744,
          "time": 172.99477499999998,
          "velocity": 0.5039370078740157
        },
        {
          "duration": 0.20045187499999884,
          "durationTicks": 130,
          "midi": 73,
          "name": "C#5",
          "ticks": 111872,
          "time": 173.192143,
          "velocity": 0.6062992125984252
        },
        {
          "duration": 0.39473599999999465,
          "durationTicks": 256,
          "midi": 55,
          "name": "G3",
          "ticks": 111872,
          "time": 173.192143,
          "velocity": 0.5826771653543307
        },
        {
          "duration": 0.39473599999999465,
          "durationTicks": 256,
          "midi": 57,
          "name": "A3",
          "ticks": 111872,
          "time": 173.192143,
          "velocity": 0.5826771653543307
        },
        {
          "duration": 0.39473599999999465,
          "durationTicks": 256,
          "midi": 64,
          "name": "E4",
          "ticks": 111872,
          "time": 173.192143,
          "velocity": 0.5826771653543307
        },
        {
          "duration": 0.18657443749998492,
          "durationTicks": 121,
          "midi": 76,
          "name": "E5",
          "ticks": 112000,
          "time": 173.389511,
          "velocity": 0.6141732283464567
        },
        {
          "duration": 0.6028975625000044,
          "durationTicks": 391,
          "midi": 79,
          "name": "G5",
          "ticks": 112128,
          "time": 173.58687899999998,
          "velocity": 0.5826771653543307
        },
        {
          "duration": 0.39473599999999465,
          "durationTicks": 256,
          "midi": 50,
          "name": "D3",
          "ticks": 112128,
          "time": 173.58687899999998,
          "velocity": 0.5039370078740157
        },
        {
          "duration": 0.39473599999999465,
          "durationTicks": 256,
          "midi": 54,
          "name": "F#3",
          "ticks": 112384,
          "time": 173.98161499999998,
          "velocity": 0.6771653543307087
        },
        {
          "duration": 0.39473599999999465,
          "durationTicks": 256,
          "midi": 57,
          "name": "A3",
          "ticks": 112384,
          "time": 173.98161499999998,
          "velocity": 0.6771653543307087
        },
        {
          "duration": 0.39473599999999465,
          "durationTicks": 256,
          "midi": 62,
          "name": "D4",
          "ticks": 112384,
          "time": 173.98161499999998,
          "velocity": 0.6771653543307087
        },
        {
          "duration": 0.20045187499999884,
          "durationTicks": 130,
          "midi": 78,
          "name": "F#5",
          "ticks": 112512,
          "time": 174.178983,
          "velocity": 0.49606299212598426
        },
        {
          "duration": 0.20045187500002726,
          "durationTicks": 130,
          "midi": 73,
          "name": "C#5",
          "ticks": 112640,
          "time": 174.37635099999997,
          "velocity": 0.41732283464566927
        },
        {
          "duration": 0.39473600000002307,
          "durationTicks": 256,
          "midi": 54,
          "name": "F#3",
          "ticks": 112640,
          "time": 174.37635099999997,
          "velocity": 0.5511811023622047
        },
        {
          "duration": 0.39473600000002307,
          "durationTicks": 256,
          "midi": 57,
          "name": "A3",
          "ticks": 112640,
          "time": 174.37635099999997,
          "velocity": 0.5511811023622047
        },
        {
          "duration": 0.39473600000002307,
          "durationTicks": 256,
          "midi": 62,
          "name": "D4",
          "ticks": 112640,
          "time": 174.37635099999997,
          "velocity": 0.5511811023622047
        },
        {
          "duration": 0.18657443750001335,
          "durationTicks": 121,
          "midi": 74,
          "name": "D5",
          "ticks": 112768,
          "time": 174.57371899999998,
          "velocity": 0.49606299212598426
        },
        {
          "duration": 0.6028975625000044,
          "durationTicks": 391,
          "midi": 78,
          "name": "F#5",
          "ticks": 112896,
          "time": 174.771087,
          "velocity": 0.5433070866141733
        },
        {
          "duration": 0.39473599999999465,
          "durationTicks": 256,
          "midi": 45,
          "name": "A2",
          "ticks": 112896,
          "time": 174.771087,
          "velocity": 0.4251968503937008
        },
        {
          "duration": 0.39473599999999465,
          "durationTicks": 256,
          "midi": 57,
          "name": "A3",
          "ticks": 113152,
          "time": 175.165823,
          "velocity": 0.5748031496062992
        },
        {
          "duration": 0.39473599999999465,
          "durationTicks": 256,
          "midi": 61,
          "name": "C#4",
          "ticks": 113152,
          "time": 175.165823,
          "velocity": 0.5748031496062992
        },
        {
          "duration": 0.39473599999999465,
          "durationTicks": 256,
          "midi": 67,
          "name": "G4",
          "ticks": 113152,
          "time": 175.165823,
          "velocity": 0.5748031496062992
        },
        {
          "duration": 0.20045187500002726,
          "durationTicks": 130,
          "midi": 76,
          "name": "E5",
          "ticks": 113280,
          "time": 175.36319099999997,
          "velocity": 0.5196850393700787
        },
        {
          "duration": 0.20045187499999884,
          "durationTicks": 130,
          "midi": 71,
          "name": "B4",
          "ticks": 113408,
          "time": 175.56055899999998,
          "velocity": 0.4251968503937008
        },
        {
          "duration": 0.39473599999999465,
          "durationTicks": 256,
          "midi": 57,
          "name": "A3",
          "ticks": 113408,
          "time": 175.56055899999998,
          "velocity": 0.5039370078740157
        },
        {
          "duration": 0.39473599999999465,
          "durationTicks": 256,
          "midi": 64,
          "name": "E4",
          "ticks": 113408,
          "time": 175.56055899999998,
          "velocity": 0.5039370078740157
        },
        {
          "duration": 0.39473599999999465,
          "durationTicks": 256,
          "midi": 67,
          "name": "G4",
          "ticks": 113408,
          "time": 175.56055899999998,
          "velocity": 0.5039370078740157
        },
        {
          "duration": 0.18657443749998492,
          "durationTicks": 121,
          "midi": 73,
          "name": "C#5",
          "ticks": 113536,
          "time": 175.757927,
          "velocity": 0.4015748031496063
        },
        {
          "duration": 0.6028975625000044,
          "durationTicks": 391,
          "midi": 76,
          "name": "E5",
          "ticks": 113664,
          "time": 175.95529499999998,
          "velocity": 0.5354330708661418
        },
        {
          "duration": 0.39473599999999465,
          "durationTicks": 256,
          "midi": 50,
          "name": "D3",
          "ticks": 113664,
          "time": 175.95529499999998,
          "velocity": 0.4015748031496063
        },
        {
          "duration": 0.39473600000002307,
          "durationTicks": 256,
          "midi": 57,
          "name": "A3",
          "ticks": 113920,
          "time": 176.35003099999997,
          "velocity": 0.5984251968503937
        },
        {
          "duration": 0.39473600000002307,
          "durationTicks": 256,
          "midi": 62,
          "name": "D4",
          "ticks": 113920,
          "time": 176.35003099999997,
          "velocity": 0.5984251968503937
        },
        {
          "duration": 0.39473600000002307,
          "durationTicks": 256,
          "midi": 66,
          "name": "F#4",
          "ticks": 113920,
          "time": 176.35003099999997,
          "velocity": 0.5984251968503937
        },
        {
          "duration": 0.20045187499999884,
          "durationTicks": 130,
          "midi": 74,
          "name": "D5",
          "ticks": 114048,
          "time": 176.54739899999998,
          "velocity": 0.49606299212598426
        },
        {
          "duration": 0.20045187499999884,
          "durationTicks": 130,
          "midi": 73,
          "name": "C#5",
          "ticks": 114176,
          "time": 176.744767,
          "velocity": 0.48031496062992124
        },
        {
          "duration": 0.39473599999999465,
          "durationTicks": 256,
          "midi": 57,
          "name": "A3",
          "ticks": 114176,
          "time": 176.744767,
          "velocity": 0.5275590551181102
        },
        {
          "duration": 0.39473599999999465,
          "durationTicks": 256,
          "midi": 62,
          "name": "D4",
          "ticks": 114176,
          "time": 176.744767,
          "velocity": 0.5275590551181102
        },
        {
          "duration": 0.39473599999999465,
          "durationTicks": 256,
          "midi": 66,
          "name": "F#4",
          "ticks": 114176,
          "time": 176.744767,
          "velocity": 0.5275590551181102
        },
        {
          "duration": 0.18657443750001335,
          "durationTicks": 121,
          "midi": 71,
          "name": "B4",
          "ticks": 114304,
          "time": 176.94213499999998,
          "velocity": 0.4251968503937008
        },
        {
          "duration": 0.6028975625000044,
          "durationTicks": 391,
          "midi": 71,
          "name": "B4",
          "ticks": 114432,
          "time": 177.139503,
          "velocity": 0.4881889763779528
        },
        {
          "duration": 0.39473599999999465,
          "durationTicks": 256,
          "midi": 49,
          "name": "C#3",
          "ticks": 114432,
          "time": 177.139503,
          "velocity": 0.4251968503937008
        },
        {
          "duration": 0.39473599999999465,
          "durationTicks": 256,
          "midi": 57,
          "name": "A3",
          "ticks": 114688,
          "time": 177.53423899999999,
          "velocity": 0.6299212598425197
        },
        {
          "duration": 0.39473599999999465,
          "durationTicks": 256,
          "midi": 64,
          "name": "E4",
          "ticks": 114688,
          "time": 177.53423899999999,
          "velocity": 0.6299212598425197
        },
        {
          "duration": 0.39473599999999465,
          "durationTicks": 256,
          "midi": 67,
          "name": "G4",
          "ticks": 114688,
          "time": 177.53423899999999,
          "velocity": 0.6299212598425197
        },
        {
          "duration": 0.20045187499999884,
          "durationTicks": 130,
          "midi": 69,
          "name": "A4",
          "ticks": 114816,
          "time": 177.731607,
          "velocity": 0.44881889763779526
        },
        {
          "duration": 0.20045187499999884,
          "durationTicks": 130,
          "midi": 73,
          "name": "C#5",
          "ticks": 114944,
          "time": 177.92897499999998,
          "velocity": 0.5196850393700787
        },
        {
          "duration": 0.39473599999999465,
          "durationTicks": 256,
          "midi": 57,
          "name": "A3",
          "ticks": 114944,
          "time": 177.92897499999998,
          "velocity": 0.49606299212598426
        },
        {
          "duration": 0.39473599999999465,
          "durationTicks": 256,
          "midi": 64,
          "name": "E4",
          "ticks": 114944,
          "time": 177.92897499999998,
          "velocity": 0.49606299212598426
        },
        {
          "duration": 0.39473599999999465,
          "durationTicks": 256,
          "midi": 67,
          "name": "G4",
          "ticks": 114944,
          "time": 177.92897499999998,
          "velocity": 0.49606299212598426
        },
        {
          "duration": 0.18657443749998492,
          "durationTicks": 121,
          "midi": 76,
          "name": "E5",
          "ticks": 115072,
          "time": 178.126343,
          "velocity": 0.5669291338582677
        },
        {
          "duration": 0.6028975625000044,
          "durationTicks": 391,
          "midi": 79,
          "name": "G5",
          "ticks": 115200,
          "time": 178.32371099999997,
          "velocity": 0.5275590551181102
        },
        {
          "duration": 0.39473600000002307,
          "durationTicks": 256,
          "midi": 50,
          "name": "D3",
          "ticks": 115200,
          "time": 178.32371099999997,
          "velocity": 0.3700787401574803
        },
        {
          "duration": 0.39473599999999465,
          "durationTicks": 256,
          "midi": 57,
          "name": "A3",
          "ticks": 115456,
          "time": 178.718447,
          "velocity": 0.5984251968503937
        },
        {
          "duration": 0.39473599999999465,
          "durationTicks": 256,
          "midi": 62,
          "name": "D4",
          "ticks": 115456,
          "time": 178.718447,
          "velocity": 0.5984251968503937
        },
        {
          "duration": 0.39473599999999465,
          "durationTicks": 256,
          "midi": 66,
          "name": "F#4",
          "ticks": 115456,
          "time": 178.718447,
          "velocity": 0.5984251968503937
        },
        {
          "duration": 0.20045187499999884,
          "durationTicks": 130,
          "midi": 78,
          "name": "F#5",
          "ticks": 115584,
          "time": 178.91581499999998,
          "velocity": 0.5354330708661418
        },
        {
          "duration": 0.20045187499999884,
          "durationTicks": 130,
          "midi": 73,
          "name": "C#5",
          "ticks": 115712,
          "time": 179.113183,
          "velocity": 0.4015748031496063
        },
        {
          "duration": 0.39473599999999465,
          "durationTicks": 256,
          "midi": 57,
          "name": "A3",
          "ticks": 115712,
          "time": 179.113183,
          "velocity": 0.49606299212598426
        },
        {
          "duration": 0.39473599999999465,
          "durationTicks": 256,
          "midi": 62,
          "name": "D4",
          "ticks": 115712,
          "time": 179.113183,
          "velocity": 0.49606299212598426
        },
        {
          "duration": 0.39473599999999465,
          "durationTicks": 256,
          "midi": 66,
          "name": "F#4",
          "ticks": 115712,
          "time": 179.113183,
          "velocity": 0.49606299212598426
        },
        {
          "duration": 0.18657443750001335,
          "durationTicks": 121,
          "midi": 74,
          "name": "D5",
          "ticks": 115840,
          "time": 179.31055099999998,
          "velocity": 0.4409448818897638
        },
        {
          "duration": 0.6028975625000044,
          "durationTicks": 391,
          "midi": 78,
          "name": "F#5",
          "ticks": 115968,
          "time": 179.507919,
          "velocity": 0.5590551181102362
        },
        {
          "duration": 0.39473599999999465,
          "durationTicks": 256,
          "midi": 43,
          "name": "G2",
          "ticks": 115968,
          "time": 179.507919,
          "velocity": 0.3937007874015748
        },
        {
          "duration": 0.39473599999999465,
          "durationTicks": 256,
          "midi": 55,
          "name": "G3",
          "ticks": 116224,
          "time": 179.90265499999998,
          "velocity": 0.6377952755905512
        },
        {
          "duration": 0.39473599999999465,
          "durationTicks": 256,
          "midi": 59,
          "name": "B3",
          "ticks": 116224,
          "time": 179.90265499999998,
          "velocity": 0.6377952755905512
        },
        {
          "duration": 0.39473599999999465,
          "durationTicks": 256,
          "midi": 64,
          "name": "E4",
          "ticks": 116224,
          "time": 179.90265499999998,
          "velocity": 0.6377952755905512
        },
        {
          "duration": 0.20045187499999884,
          "durationTicks": 130,
          "midi": 76,
          "name": "E5",
          "ticks": 116352,
          "time": 180.100023,
          "velocity": 0.4881889763779528
        },
        {
          "duration": 0.20045187499999884,
          "durationTicks": 130,
          "midi": 71,
          "name": "B4",
          "ticks": 116480,
          "time": 180.29739099999998,
          "velocity": 0.4015748031496063
        },
        {
          "duration": 0.39473600000002307,
          "durationTicks": 256,
          "midi": 55,
          "name": "G3",
          "ticks": 116480,
          "time": 180.29739099999998,
          "velocity": 0.4881889763779528
        },
        {
          "duration": 0.39473600000002307,
          "durationTicks": 256,
          "midi": 59,
          "name": "B3",
          "ticks": 116480,
          "time": 180.29739099999998,
          "velocity": 0.4881889763779528
        },
        {
          "duration": 0.39473600000002307,
          "durationTicks": 256,
          "midi": 64,
          "name": "E4",
          "ticks": 116480,
          "time": 180.29739099999998,
          "velocity": 0.4881889763779528
        },
        {
          "duration": 0.18657443749998492,
          "durationTicks": 121,
          "midi": 73,
          "name": "C#5",
          "ticks": 116608,
          "time": 180.494759,
          "velocity": 0.3858267716535433
        },
        {
          "duration": 0.5921039999999778,
          "durationTicks": 384,
          "midi": 70,
          "name": "A#4",
          "ticks": 116736,
          "time": 180.692127,
          "velocity": 0.44881889763779526
        },
        {
          "duration": 0.39473599999999465,
          "durationTicks": 256,
          "midi": 42,
          "name": "F#2",
          "ticks": 116736,
          "time": 180.692127,
          "velocity": 0.4015748031496063
        },
        {
          "duration": 0.39473599999999465,
          "durationTicks": 256,
          "midi": 54,
          "name": "F#3",
          "ticks": 116992,
          "time": 181.086863,
          "velocity": 0.6141732283464567
        },
        {
          "duration": 0.39473599999999465,
          "durationTicks": 256,
          "midi": 61,
          "name": "C#4",
          "ticks": 116992,
          "time": 181.086863,
          "velocity": 0.6141732283464567
        },
        {
          "duration": 0.39473599999999465,
          "durationTicks": 256,
          "midi": 64,
          "name": "E4",
          "ticks": 116992,
          "time": 181.086863,
          "velocity": 0.6141732283464567
        },
        {
          "duration": 0.19736800000001153,
          "durationTicks": 128,
          "midi": 73,
          "name": "C#5",
          "ticks": 117120,
          "time": 181.28423099999998,
          "velocity": 0.49606299212598426
        },
        {
          "duration": 0.1973679999999831,
          "durationTicks": 128,
          "midi": 67,
          "name": "G4",
          "ticks": 117248,
          "time": 181.481599,
          "velocity": 0.41732283464566927
        },
        {
          "duration": 0.39473599999999465,
          "durationTicks": 256,
          "midi": 54,
          "name": "F#3",
          "ticks": 117248,
          "time": 181.481599,
          "velocity": 0.48031496062992124
        },
        {
          "duration": 0.39473599999999465,
          "durationTicks": 256,
          "midi": 61,
          "name": "C#4",
          "ticks": 117248,
          "time": 181.481599,
          "velocity": 0.48031496062992124
        },
        {
          "duration": 0.39473599999999465,
          "durationTicks": 256,
          "midi": 64,
          "name": "E4",
          "ticks": 117248,
          "time": 181.481599,
          "velocity": 0.48031496062992124
        },
        {
          "duration": 0.19736800000001153,
          "durationTicks": 128,
          "midi": 73,
          "name": "C#5",
          "ticks": 117376,
          "time": 181.67896699999997,
          "velocity": 0.48031496062992124
        },
        {
          "duration": 0.6028975625000044,
          "durationTicks": 391,
          "midi": 66,
          "name": "F#4",
          "ticks": 117504,
          "time": 181.87633499999998,
          "velocity": 0.3937007874015748
        },
        {
          "duration": 0.39473599999999465,
          "durationTicks": 256,
          "midi": 42,
          "name": "F#2",
          "ticks": 117504,
          "time": 181.87633499999998,
          "velocity": 0.44881889763779526
        },
        {
          "duration": 0.39473599999999465,
          "durationTicks": 256,
          "midi": 54,
          "name": "F#3",
          "ticks": 117760,
          "time": 182.27107099999998,
          "velocity": 0.6220472440944882
        },
        {
          "duration": 0.39473599999999465,
          "durationTicks": 256,
          "midi": 61,
          "name": "C#4",
          "ticks": 117760,
          "time": 182.27107099999998,
          "velocity": 0.6220472440944882
        },
        {
          "duration": 0.39473599999999465,
          "durationTicks": 256,
          "midi": 64,
          "name": "E4",
          "ticks": 117760,
          "time": 182.27107099999998,
          "velocity": 0.6220472440944882
        },
        {
          "duration": 0.20045187499999884,
          "durationTicks": 130,
          "midi": 70,
          "name": "A#4",
          "ticks": 117888,
          "time": 182.468439,
          "velocity": 0.49606299212598426
        },
        {
          "duration": 0.20045187499999884,
          "durationTicks": 130,
          "midi": 73,
          "name": "C#5",
          "ticks": 118016,
          "time": 182.66580699999997,
          "velocity": 0.5433070866141733
        },
        {
          "duration": 0.39473600000002307,
          "durationTicks": 256,
          "midi": 54,
          "name": "F#3",
          "ticks": 118016,
          "time": 182.66580699999997,
          "velocity": 0.5275590551181102
        },
        {
          "duration": 0.39473600000002307,
          "durationTicks": 256,
          "midi": 58,
          "name": "A#3",
          "ticks": 118016,
          "time": 182.66580699999997,
          "velocity": 0.5275590551181102
        },
        {
          "duration": 0.39473600000002307,
          "durationTicks": 256,
          "midi": 64,
          "name": "E4",
          "ticks": 118016,
          "time": 182.66580699999997,
          "velocity": 0.5275590551181102
        },
        {
          "duration": 0.18657443750001335,
          "durationTicks": 121,
          "midi": 76,
          "name": "E5",
          "ticks": 118144,
          "time": 182.86317499999998,
          "velocity": 0.6220472440944882
        },
        {
          "duration": 0.602897562499976,
          "durationTicks": 391,
          "midi": 79,
          "name": "G5",
          "ticks": 118272,
          "time": 183.060543,
          "velocity": 0.6062992125984252
        },
        {
          "duration": 0.39473599999999465,
          "durationTicks": 256,
          "midi": 47,
          "name": "B2",
          "ticks": 118272,
          "time": 183.060543,
          "velocity": 0.4330708661417323
        },
        {
          "duration": 0.39473599999999465,
          "durationTicks": 256,
          "midi": 54,
          "name": "F#3",
          "ticks": 118528,
          "time": 183.455279,
          "velocity": 0.7086614173228346
        },
        {
          "duration": 0.39473599999999465,
          "durationTicks": 256,
          "midi": 59,
          "name": "B3",
          "ticks": 118528,
          "time": 183.455279,
          "velocity": 0.7086614173228346
        },
        {
          "duration": 0.39473599999999465,
          "durationTicks": 256,
          "midi": 62,
          "name": "D4",
          "ticks": 118528,
          "time": 183.455279,
          "velocity": 0.7086614173228346
        },
        {
          "duration": 0.20045187499999884,
          "durationTicks": 130,
          "midi": 78,
          "name": "F#5",
          "ticks": 118656,
          "time": 183.65264699999997,
          "velocity": 0.5590551181102362
        },
        {
          "duration": 0.20045187499999884,
          "durationTicks": 130,
          "midi": 73,
          "name": "C#5",
          "ticks": 118784,
          "time": 183.85001499999998,
          "velocity": 0.4881889763779528
        },
        {
          "duration": 0.39473599999999465,
          "durationTicks": 256,
          "midi": 54,
          "name": "F#3",
          "ticks": 118784,
          "time": 183.85001499999998,
          "velocity": 0.5433070866141733
        },
        {
          "duration": 0.39473599999999465,
          "durationTicks": 256,
          "midi": 59,
          "name": "B3",
          "ticks": 118784,
          "time": 183.85001499999998,
          "velocity": 0.5433070866141733
        },
        {
          "duration": 0.39473599999999465,
          "durationTicks": 256,
          "midi": 62,
          "name": "D4",
          "ticks": 118784,
          "time": 183.85001499999998,
          "velocity": 0.5433070866141733
        },
        {
          "duration": 0.18657443749998492,
          "durationTicks": 121,
          "midi": 74,
          "name": "D5",
          "ticks": 118912,
          "time": 184.047383,
          "velocity": 0.4881889763779528
        },
        {
          "duration": 0.6028975625000044,
          "durationTicks": 391,
          "midi": 78,
          "name": "F#5",
          "ticks": 119040,
          "time": 184.24475099999998,
          "velocity": 0.5275590551181102
        },
        {
          "duration": 0.39473599999999465,
          "durationTicks": 256,
          "midi": 45,
          "name": "A2",
          "ticks": 119040,
          "time": 184.24475099999998,
          "velocity": 0.4251968503937008
        },
        {
          "duration": 0.39473600000002307,
          "durationTicks": 256,
          "midi": 54,
          "name": "F#3",
          "ticks": 119296,
          "time": 184.63948699999997,
          "velocity": 0.5118110236220472
        },
        {
          "duration": 0.39473600000002307,
          "durationTicks": 256,
          "midi": 57,
          "name": "A3",
          "ticks": 119296,
          "time": 184.63948699999997,
          "velocity": 0.5118110236220472
        },
        {
          "duration": 0.39473600000002307,
          "durationTicks": 256,
          "midi": 64,
          "name": "E4",
          "ticks": 119296,
          "time": 184.63948699999997,
          "velocity": 0.5118110236220472
        },
        {
          "duration": 0.20045187499999884,
          "durationTicks": 130,
          "midi": 76,
          "name": "E5",
          "ticks": 119424,
          "time": 184.83685499999999,
          "velocity": 0.3543307086614173
        },
        {
          "duration": 0.20045187499999884,
          "durationTicks": 130,
          "midi": 71,
          "name": "B4",
          "ticks": 119552,
          "time": 185.034223,
          "velocity": 0.28346456692913385
        },
        {
          "duration": 0.39473599999999465,
          "durationTicks": 256,
          "midi": 54,
          "name": "F#3",
          "ticks": 119552,
          "time": 185.034223,
          "velocity": 0.3858267716535433
        },
        {
          "duration": 0.39473599999999465,
          "durationTicks": 256,
          "midi": 61,
          "name": "C#4",
          "ticks": 119552,
          "time": 185.034223,
          "velocity": 0.3858267716535433
        },
        {
          "duration": 0.39473599999999465,
          "durationTicks": 256,
          "midi": 64,
          "name": "E4",
          "ticks": 119552,
          "time": 185.034223,
          "velocity": 0.3858267716535433
        },
        {
          "duration": 0.18657443750001335,
          "durationTicks": 121,
          "midi": 73,
          "name": "C#5",
          "ticks": 119680,
          "time": 185.23159099999998,
          "velocity": 0.5039370078740157
        },
        {
          "duration": 0.6028975625000044,
          "durationTicks": 391,
          "midi": 76,
          "name": "E5",
          "ticks": 119808,
          "time": 185.428959,
          "velocity": 0.5275590551181102
        },
        {
          "duration": 0.39473599999999465,
          "durationTicks": 256,
          "midi": 50,
          "name": "D3",
          "ticks": 119808,
          "time": 185.428959,
          "velocity": 0.4409448818897638
        },
        {
          "duration": 0.39473599999999465,
          "durationTicks": 256,
          "midi": 57,
          "name": "A3",
          "ticks": 120064,
          "time": 185.823695,
          "velocity": 0.5669291338582677
        },
        {
          "duration": 0.39473599999999465,
          "durationTicks": 256,
          "midi": 62,
          "name": "D4",
          "ticks": 120064,
          "time": 185.823695,
          "velocity": 0.5669291338582677
        },
        {
          "duration": 0.39473599999999465,
          "durationTicks": 256,
          "midi": 66,
          "name": "F#4",
          "ticks": 120064,
          "time": 185.823695,
          "velocity": 0.5669291338582677
        },
        {
          "duration": 0.20045187499999884,
          "durationTicks": 130,
          "midi": 74,
          "name": "D5",
          "ticks": 120192,
          "time": 186.021063,
          "velocity": 0.3464566929133858
        },
        {
          "duration": 0.20045187499999884,
          "durationTicks": 130,
          "midi": 73,
          "name": "C#5",
          "ticks": 120320,
          "time": 186.21843099999998,
          "velocity": 0.3464566929133858
        },
        {
          "duration": 0.39473599999999465,
          "durationTicks": 256,
          "midi": 57,
          "name": "A3",
          "ticks": 120320,
          "time": 186.21843099999998,
          "velocity": 0.3937007874015748
        },
        {
          "duration": 0.39473599999999465,
          "durationTicks": 256,
          "midi": 62,
          "name": "D4",
          "ticks": 120320,
          "time": 186.21843099999998,
          "velocity": 0.3937007874015748
        },
        {
          "duration": 0.39473599999999465,
          "durationTicks": 256,
          "midi": 66,
          "name": "F#4",
          "ticks": 120320,
          "time": 186.21843099999998,
          "velocity": 0.3937007874015748
        },
        {
          "duration": 0.18657443749998492,
          "durationTicks": 121,
          "midi": 71,
          "name": "B4",
          "ticks": 120448,
          "time": 186.415799,
          "velocity": 0.29133858267716534
        },
        {
          "duration": 0.6028975625000044,
          "durationTicks": 391,
          "midi": 71,
          "name": "B4",
          "ticks": 120576,
          "time": 186.61316699999998,
          "velocity": 0.49606299212598426
        },
        {
          "duration": 0.39473599999999465,
          "durationTicks": 256,
          "midi": 49,
          "name": "C#3",
          "ticks": 120576,
          "time": 186.61316699999998,
          "velocity": 0.4409448818897638
        },
        {
          "duration": 0.39473600000002307,
          "durationTicks": 256,
          "midi": 57,
          "name": "A3",
          "ticks": 120832,
          "time": 187.00790299999997,
          "velocity": 0.5826771653543307
        },
        {
          "duration": 0.39473600000002307,
          "durationTicks": 256,
          "midi": 64,
          "name": "E4",
          "ticks": 120832,
          "time": 187.00790299999997,
          "velocity": 0.5826771653543307
        },
        {
          "duration": 0.39473600000002307,
          "durationTicks": 256,
          "midi": 67,
          "name": "G4",
          "ticks": 120832,
          "time": 187.00790299999997,
          "velocity": 0.5826771653543307
        },
        {
          "duration": 0.20045187499999884,
          "durationTicks": 130,
          "midi": 69,
          "name": "A4",
          "ticks": 120960,
          "time": 187.20527099999998,
          "velocity": 0.44881889763779526
        },
        {
          "duration": 0.20045187499999884,
          "durationTicks": 130,
          "midi": 73,
          "name": "C#5",
          "ticks": 121088,
          "time": 187.402639,
          "velocity": 0.6062992125984252
        },
        {
          "duration": 0.39473599999999465,
          "durationTicks": 256,
          "midi": 57,
          "name": "A3",
          "ticks": 121088,
          "time": 187.402639,
          "velocity": 0.5275590551181102
        },
        {
          "duration": 0.39473599999999465,
          "durationTicks": 256,
          "midi": 64,
          "name": "E4",
          "ticks": 121088,
          "time": 187.402639,
          "velocity": 0.5275590551181102
        },
        {
          "duration": 0.39473599999999465,
          "durationTicks": 256,
          "midi": 67,
          "name": "G4",
          "ticks": 121088,
          "time": 187.402639,
          "velocity": 0.5275590551181102
        },
        {
          "duration": 0.18657443750001335,
          "durationTicks": 121,
          "midi": 76,
          "name": "E5",
          "ticks": 121216,
          "time": 187.60000699999998,
          "velocity": 0.5905511811023622
        },
        {
          "duration": 0.6028975625000044,
          "durationTicks": 391,
          "midi": 79,
          "name": "G5",
          "ticks": 121344,
          "time": 187.797375,
          "velocity": 0.6141732283464567
        },
        {
          "duration": 0.39473599999999465,
          "durationTicks": 256,
          "midi": 50,
          "name": "D3",
          "ticks": 121344,
          "time": 187.797375,
          "velocity": 0.49606299212598426
        },
        {
          "duration": 0.39473599999999465,
          "durationTicks": 256,
          "midi": 57,
          "name": "A3",
          "ticks": 121600,
          "time": 188.19211099999998,
          "velocity": 0.6456692913385826
        },
        {
          "duration": 0.39473599999999465,
          "durationTicks": 256,
          "midi": 62,
          "name": "D4",
          "ticks": 121600,
          "time": 188.19211099999998,
          "velocity": 0.6456692913385826
        },
        {
          "duration": 0.39473599999999465,
          "durationTicks": 256,
          "midi": 66,
          "name": "F#4",
          "ticks": 121600,
          "time": 188.19211099999998,
          "velocity": 0.6456692913385826
        },
        {
          "duration": 0.20045187499999884,
          "durationTicks": 130,
          "midi": 78,
          "name": "F#5",
          "ticks": 121728,
          "time": 188.389479,
          "velocity": 0.47244094488188976
        },
        {
          "duration": 0.20045187499999884,
          "durationTicks": 130,
          "midi": 73,
          "name": "C#5",
          "ticks": 121856,
          "time": 188.58684699999998,
          "velocity": 0.4566929133858268
        },
        {
          "duration": 0.39473599999999465,
          "durationTicks": 256,
          "midi": 57,
          "name": "A3",
          "ticks": 121856,
          "time": 188.58684699999998,
          "velocity": 0.49606299212598426
        },
        {
          "duration": 0.39473599999999465,
          "durationTicks": 256,
          "midi": 62,
          "name": "D4",
          "ticks": 121856,
          "time": 188.58684699999998,
          "velocity": 0.49606299212598426
        },
        {
          "duration": 0.39473599999999465,
          "durationTicks": 256,
          "midi": 66,
          "name": "F#4",
          "ticks": 121856,
          "time": 188.58684699999998,
          "velocity": 0.49606299212598426
        },
        {
          "duration": 0.18657443749998492,
          "durationTicks": 121,
          "midi": 74,
          "name": "D5",
          "ticks": 121984,
          "time": 188.784215,
          "velocity": 0.49606299212598426
        },
        {
          "duration": 0.5921040000000062,
          "durationTicks": 384,
          "midi": 78,
          "name": "F#5",
          "ticks": 122112,
          "time": 188.98158299999997,
          "velocity": 0.5669291338582677
        },
        {
          "duration": 0.39473600000002307,
          "durationTicks": 256,
          "midi": 43,
          "name": "G2",
          "ticks": 122112,
          "time": 188.98158299999997,
          "velocity": 0.3858267716535433
        },
        {
          "duration": 0.39473599999999465,
          "durationTicks": 256,
          "midi": 55,
          "name": "G3",
          "ticks": 122368,
          "time": 189.376319,
          "velocity": 0.6062992125984252
        },
        {
          "duration": 0.39473599999999465,
          "durationTicks": 256,
          "midi": 59,
          "name": "B3",
          "ticks": 122368,
          "time": 189.376319,
          "velocity": 0.6062992125984252
        },
        {
          "duration": 0.39473599999999465,
          "durationTicks": 256,
          "midi": 64,
          "name": "E4",
          "ticks": 122368,
          "time": 189.376319,
          "velocity": 0.6062992125984252
        },
        {
          "duration": 0.19736800000001153,
          "durationTicks": 128,
          "midi": 76,
          "name": "E5",
          "ticks": 122496,
          "time": 189.57368699999998,
          "velocity": 0.4409448818897638
        },
        {
          "duration": 0.20045187499999884,
          "durationTicks": 130,
          "midi": 90,
          "name": "F#6",
          "ticks": 122624,
          "time": 189.771055,
          "velocity": 0.9606299212598425
        },
        {
          "duration": 0.20045187499999884,
          "durationTicks": 130,
          "midi": 88,
          "name": "E6",
          "ticks": 122752,
          "time": 189.96842299999997,
          "velocity": 0.968503937007874
        },
        {
          "duration": 0.20045187499999884,
          "durationTicks": 130,
          "midi": 86,
          "name": "D6",
          "ticks": 122880,
          "time": 190.16579099999998,
          "velocity": 0.7322834645669292
        },
        {
          "duration": 0.39473599999999465,
          "durationTicks": 256,
          "midi": 42,
          "name": "F#2",
          "ticks": 122880,
          "time": 190.16579099999998,
          "velocity": 0.6456692913385826
        },
        {
          "duration": 0.20045187499999884,
          "durationTicks": 130,
          "midi": 85,
          "name": "C#6",
          "ticks": 123008,
          "time": 190.363159,
          "velocity": 0.7086614173228346
        },
        {
          "duration": 0.20045187499999884,
          "durationTicks": 130,
          "midi": 84,
          "name": "C6",
          "ticks": 123136,
          "time": 190.56052699999998,
          "velocity": 0.6692913385826772
        },
        {
          "duration": 0.39473599999999465,
          "durationTicks": 256,
          "midi": 54,
          "name": "F#3",
          "ticks": 123136,
          "time": 190.56052699999998,
          "velocity": 0.9133858267716536
        },
        {
          "duration": 0.39473599999999465,
          "durationTicks": 256,
          "midi": 64,
          "name": "E4",
          "ticks": 123136,
          "time": 190.56052699999998,
          "velocity": 0.9133858267716536
        },
        {
          "duration": 0.20045187499999884,
          "durationTicks": 130,
          "midi": 83,
          "name": "B5",
          "ticks": 123264,
          "time": 190.757895,
          "velocity": 0.6692913385826772
        },
        {
          "duration": 0.20045187499999884,
          "durationTicks": 130,
          "midi": 82,
          "name": "A#5",
          "ticks": 123392,
          "time": 190.95526299999997,
          "velocity": 0.6220472440944882
        },
        {
          "duration": 0.39473600000002307,
          "durationTicks": 256,
          "midi": 46,
          "name": "A#2",
          "ticks": 123392,
          "time": 190.95526299999997,
          "velocity": 0.6141732283464567
        },
        {
          "duration": 0.20045187499999884,
          "durationTicks": 130,
          "midi": 81,
          "name": "A5",
          "ticks": 123520,
          "time": 191.15263099999999,
          "velocity": 0.6141732283464567
        },
        {
          "duration": 0.20045187499999884,
          "durationTicks": 130,
          "midi": 80,
          "name": "G#5",
          "ticks": 123648,
          "time": 191.349999,
          "velocity": 0.6299212598425197
        },
        {
          "duration": 0.39473599999999465,
          "durationTicks": 256,
          "midi": 47,
          "name": "B2",
          "ticks": 123648,
          "time": 191.349999,
          "velocity": 0.6377952755905512
        },
        {
          "duration": 0.20045187499999884,
          "durationTicks": 130,
          "midi": 79,
          "name": "G5",
          "ticks": 123776,
          "time": 191.54736699999998,
          "velocity": 0.5433070866141733
        },
        {
          "duration": 0.20045187499999884,
          "durationTicks": 130,
          "midi": 78,
          "name": "F#5",
          "ticks": 123904,
          "time": 191.744735,
          "velocity": 0.5275590551181102
        },
        {
          "duration": 0.39473599999999465,
          "durationTicks": 256,
          "midi": 54,
          "name": "F#3",
          "ticks": 123904,
          "time": 191.744735,
          "velocity": 0.7322834645669292
        },
        {
          "duration": 0.39473599999999465,
          "durationTicks": 256,
          "midi": 62,
          "name": "D4",
          "ticks": 123904,
          "time": 191.744735,
          "velocity": 0.7322834645669292
        },
        {
          "duration": 0.20045187499999884,
          "durationTicks": 130,
          "midi": 73,
          "name": "C#5",
          "ticks": 124032,
          "time": 191.94210299999997,
          "velocity": 0.48031496062992124
        },
        {
          "duration": 0.20045187499999884,
          "durationTicks": 130,
          "midi": 74,
          "name": "D5",
          "ticks": 124160,
          "time": 192.139471,
          "velocity": 0.5433070866141733
        },
        {
          "duration": 0.39473599999999465,
          "durationTicks": 256,
          "midi": 54,
          "name": "F#3",
          "ticks": 124160,
          "time": 192.139471,
          "velocity": 0.5669291338582677
        },
        {
          "duration": 0.39473599999999465,
          "durationTicks": 256,
          "midi": 62,
          "name": "D4",
          "ticks": 124160,
          "time": 192.139471,
          "velocity": 0.5669291338582677
        },
        {
          "duration": 0.20045187499999884,
          "durationTicks": 130,
          "midi": 71,
          "name": "B4",
          "ticks": 124288,
          "time": 192.336839,
          "velocity": 0.5039370078740157
        },
        {
          "duration": 0.37469081250000613,
          "durationTicks": 243,
          "midi": 70,
          "name": "A#4",
          "ticks": 124416,
          "time": 192.53420699999998,
          "velocity": 0.4409448818897638
        },
        {
          "duration": 0.39473599999999465,
          "durationTicks": 256,
          "midi": 49,
          "name": "C#3",
          "ticks": 124416,
          "time": 192.53420699999998,
          "velocity": 0.41732283464566927
        },
        {
          "duration": 0.39473600000002307,
          "durationTicks": 256,
          "midi": 54,
          "name": "F#3",
          "ticks": 124672,
          "time": 192.92894299999998,
          "velocity": 0.5748031496062992
        },
        {
          "duration": 0.39473600000002307,
          "durationTicks": 256,
          "midi": 61,
          "name": "C#4",
          "ticks": 124672,
          "time": 192.92894299999998,
          "velocity": 0.5748031496062992
        },
        {
          "duration": 0.39473600000002307,
          "durationTicks": 256,
          "midi": 64,
          "name": "E4",
          "ticks": 124672,
          "time": 192.92894299999998,
          "velocity": 0.5748031496062992
        },
        {
          "duration": 0.4024456874999771,
          "durationTicks": 261,
          "midi": 81,
          "name": "A5",
          "ticks": 124928,
          "time": 193.323679,
          "velocity": 0.7559055118110236
        },
        {
          "duration": 0.39473599999999465,
          "durationTicks": 256,
          "midi": 54,
          "name": "F#3",
          "ticks": 124928,
          "time": 193.323679,
          "velocity": 0.48031496062992124
        },
        {
          "duration": 0.39473599999999465,
          "durationTicks": 256,
          "midi": 61,
          "name": "C#4",
          "ticks": 124928,
          "time": 193.323679,
          "velocity": 0.48031496062992124
        },
        {
          "duration": 0.39473599999999465,
          "durationTicks": 256,
          "midi": 64,
          "name": "E4",
          "ticks": 124928,
          "time": 193.323679,
          "velocity": 0.48031496062992124
        },
        {
          "duration": 0.20045187499999884,
          "durationTicks": 130,
          "midi": 80,
          "name": "G#5",
          "ticks": 125184,
          "time": 193.718415,
          "velocity": 0.4566929133858268
        },
        {
          "duration": 0.39473599999999465,
          "durationTicks": 256,
          "midi": 46,
          "name": "A#2",
          "ticks": 125184,
          "time": 193.718415,
          "velocity": 0.4409448818897638
        },
        {
          "duration": 0.20045187499999884,
          "durationTicks": 130,
          "midi": 79,
          "name": "G5",
          "ticks": 125312,
          "time": 193.91578299999998,
          "velocity": 0.4566929133858268
        },
        {
          "duration": 0.20045187499999884,
          "durationTicks": 130,
          "midi": 78,
          "name": "F#5",
          "ticks": 125440,
          "time": 194.113151,
          "velocity": 0.4645669291338583
        },
        {
          "duration": 0.39473599999999465,
          "durationTicks": 256,
          "midi": 54,
          "name": "F#3",
          "ticks": 125440,
          "time": 194.113151,
          "velocity": 0.6220472440944882
        },
        {
          "duration": 0.39473599999999465,
          "durationTicks": 256,
          "midi": 61,
          "name": "C#4",
          "ticks": 125440,
          "time": 194.113151,
          "velocity": 0.6220472440944882
        },
        {
          "duration": 0.39473599999999465,
          "durationTicks": 256,
          "midi": 64,
          "name": "E4",
          "ticks": 125440,
          "time": 194.113151,
          "velocity": 0.6220472440944882
        },
        {
          "duration": 0.20045187500002726,
          "durationTicks": 130,
          "midi": 73,
          "name": "C#5",
          "ticks": 125568,
          "time": 194.31051899999997,
          "velocity": 0.41732283464566927
        },
        {
          "duration": 0.20045187499999884,
          "durationTicks": 130,
          "midi": 76,
          "name": "E5",
          "ticks": 125696,
          "time": 194.50788699999998,
          "velocity": 0.5039370078740157
        },
        {
          "duration": 0.39473599999999465,
          "durationTicks": 256,
          "midi": 54,
          "name": "F#3",
          "ticks": 125696,
          "time": 194.50788699999998,
          "velocity": 0.4881889763779528
        },
        {
          "duration": 0.39473599999999465,
          "durationTicks": 256,
          "midi": 61,
          "name": "C#4",
          "ticks": 125696,
          "time": 194.50788699999998,
          "velocity": 0.4881889763779528
        },
        {
          "duration": 0.39473599999999465,
          "durationTicks": 256,
          "midi": 64,
          "name": "E4",
          "ticks": 125696,
          "time": 194.50788699999998,
          "velocity": 0.4881889763779528
        },
        {
          "duration": 0.20045187499999884,
          "durationTicks": 130,
          "midi": 74,
          "name": "D5",
          "ticks": 125824,
          "time": 194.705255,
          "velocity": 0.4409448818897638
        },
        {
          "duration": 0.37469081250000613,
          "durationTicks": 243,
          "midi": 71,
          "name": "B4",
          "ticks": 125952,
          "time": 194.90262299999998,
          "velocity": 0.4330708661417323
        },
        {
          "duration": 0.39473599999999465,
          "durationTicks": 256,
          "midi": 47,
          "name": "B2",
          "ticks": 125952,
          "time": 194.90262299999998,
          "velocity": 0.3700787401574803
        },
        {
          "duration": 0.39473600000002307,
          "durationTicks": 256,
          "midi": 54,
          "name": "F#3",
          "ticks": 126208,
          "time": 195.29735899999997,
          "velocity": 0.6141732283464567
        },
        {
          "duration": 0.39473600000002307,
          "durationTicks": 256,
          "midi": 59,
          "name": "B3",
          "ticks": 126208,
          "time": 195.29735899999997,
          "velocity": 0.6141732283464567
        },
        {
          "duration": 0.39473600000002307,
          "durationTicks": 256,
          "midi": 62,
          "name": "D4",
          "ticks": 126208,
          "time": 195.29735899999997,
          "velocity": 0.6141732283464567
        },
        {
          "duration": 0.4024456874999771,
          "durationTicks": 261,
          "midi": 81,
          "name": "A5",
          "ticks": 126464,
          "time": 195.692095,
          "velocity": 0.7795275590551181
        },
        {
          "duration": 0.39473599999999465,
          "durationTicks": 256,
          "midi": 54,
          "name": "F#3",
          "ticks": 126464,
          "time": 195.692095,
          "velocity": 0.5118110236220472
        },
        {
          "duration": 0.39473599999999465,
          "durationTicks": 256,
          "midi": 59,
          "name": "B3",
          "ticks": 126464,
          "time": 195.692095,
          "velocity": 0.5118110236220472
        },
        {
          "duration": 0.39473599999999465,
          "durationTicks": 256,
          "midi": 62,
          "name": "D4",
          "ticks": 126464,
          "time": 195.692095,
          "velocity": 0.5118110236220472
        },
        {
          "duration": 0.20045187499999884,
          "durationTicks": 130,
          "midi": 80,
          "name": "G#5",
          "ticks": 126720,
          "time": 196.086831,
          "velocity": 0.4645669291338583
        },
        {
          "duration": 0.39473599999999465,
          "durationTicks": 256,
          "midi": 47,
          "name": "B2",
          "ticks": 126720,
          "time": 196.086831,
          "velocity": 0.4015748031496063
        },
        {
          "duration": 0.20045187499999884,
          "durationTicks": 130,
          "midi": 79,
          "name": "G5",
          "ticks": 126848,
          "time": 196.28419899999997,
          "velocity": 0.44881889763779526
        },
        {
          "duration": 0.20045187499999884,
          "durationTicks": 130,
          "midi": 77,
          "name": "F5",
          "ticks": 126976,
          "time": 196.48156699999998,
          "velocity": 0.47244094488188976
        },
        {
          "duration": 0.39473599999999465,
          "durationTicks": 256,
          "midi": 54,
          "name": "F#3",
          "ticks": 126976,
          "time": 196.48156699999998,
          "velocity": 0.6692913385826772
        },
        {
          "duration": 0.39473599999999465,
          "durationTicks": 256,
          "midi": 59,
          "name": "B3",
          "ticks": 126976,
          "time": 196.48156699999998,
          "velocity": 0.6692913385826772
        },
        {
          "duration": 0.39473599999999465,
          "durationTicks": 256,
          "midi": 62,
          "name": "D4",
          "ticks": 126976,
          "time": 196.48156699999998,
          "velocity": 0.6692913385826772
        },
        {
          "duration": 0.20045187499999884,
          "durationTicks": 130,
          "midi": 78,
          "name": "F#5",
          "ticks": 127104,
          "time": 196.678935,
          "velocity": 0.5275590551181102
        },
        {
          "duration": 0.20045187499999884,
          "durationTicks": 130,
          "midi": 83,
          "name": "B5",
          "ticks": 127232,
          "time": 196.87630299999998,
          "velocity": 0.6062992125984252
        },
        {
          "duration": 0.39473599999999465,
          "durationTicks": 256,
          "midi": 54,
          "name": "F#3",
          "ticks": 127232,
          "time": 196.87630299999998,
          "velocity": 0.5748031496062992
        },
        {
          "duration": 0.39473599999999465,
          "durationTicks": 256,
          "midi": 59,
          "name": "B3",
          "ticks": 127232,
          "time": 196.87630299999998,
          "velocity": 0.5748031496062992
        },
        {
          "duration": 0.39473599999999465,
          "durationTicks": 256,
          "midi": 62,
          "name": "D4",
          "ticks": 127232,
          "time": 196.87630299999998,
          "velocity": 0.5748031496062992
        },
        {
          "duration": 0.1973679999999831,
          "durationTicks": 128,
          "midi": 86,
          "name": "D6",
          "ticks": 127360,
          "time": 197.073671,
          "velocity": 0.6220472440944882
        },
        {
          "duration": 0.37469081250000613,
          "durationTicks": 243,
          "midi": 86,
          "name": "D6",
          "ticks": 127488,
          "time": 197.27103899999997,
          "velocity": 0.4330708661417323
        },
        {
          "duration": 0.39473600000002307,
          "durationTicks": 256,
          "midi": 47,
          "name": "B2",
          "ticks": 127488,
          "time": 197.27103899999997,
          "velocity": 0.4251968503937008
        },
        {
          "duration": 0.39473599999999465,
          "durationTicks": 256,
          "midi": 77,
          "name": "F5",
          "ticks": 127744,
          "time": 197.665775,
          "velocity": 0.3858267716535433
        },
        {
          "duration": 0.39473599999999465,
          "durationTicks": 256,
          "midi": 56,
          "name": "G#3",
          "ticks": 127744,
          "time": 197.665775,
          "velocity": 0.6062992125984252
        },
        {
          "duration": 0.39473599999999465,
          "durationTicks": 256,
          "midi": 59,
          "name": "B3",
          "ticks": 127744,
          "time": 197.665775,
          "velocity": 0.6062992125984252
        },
        {
          "duration": 0.39473599999999465,
          "durationTicks": 256,
          "midi": 62,
          "name": "D4",
          "ticks": 127744,
          "time": 197.665775,
          "velocity": 0.6062992125984252
        },
        {
          "duration": 0.7894719999999893,
          "durationTicks": 512,
          "midi": 86,
          "name": "D6",
          "ticks": 128000,
          "time": 198.060511,
          "velocity": 0.7007874015748031
        },
        {
          "duration": 0.39473599999999465,
          "durationTicks": 256,
          "midi": 56,
          "name": "G#3",
          "ticks": 128000,
          "time": 198.060511,
          "velocity": 0.49606299212598426
        },
        {
          "duration": 0.39473599999999465,
          "durationTicks": 256,
          "midi": 59,
          "name": "B3",
          "ticks": 128000,
          "time": 198.060511,
          "velocity": 0.49606299212598426
        },
        {
          "duration": 0.39473599999999465,
          "durationTicks": 256,
          "midi": 62,
          "name": "D4",
          "ticks": 128000,
          "time": 198.060511,
          "velocity": 0.49606299212598426
        },
        {
          "duration": 0.39473599999999465,
          "durationTicks": 256,
          "midi": 47,
          "name": "B2",
          "ticks": 128256,
          "time": 198.45524699999999,
          "velocity": 0.4251968503937008
        },
        {
          "duration": 0.39473599999999465,
          "durationTicks": 256,
          "midi": 76,
          "name": "E5",
          "ticks": 128512,
          "time": 198.84998299999998,
          "velocity": 0.3858267716535433
        },
        {
          "duration": 0.39473599999999465,
          "durationTicks": 256,
          "midi": 55,
          "name": "G3",
          "ticks": 128512,
          "time": 198.84998299999998,
          "velocity": 0.6141732283464567
        },
        {
          "duration": 0.39473599999999465,
          "durationTicks": 256,
          "midi": 59,
          "name": "B3",
          "ticks": 128512,
          "time": 198.84998299999998,
          "velocity": 0.6141732283464567
        },
        {
          "duration": 0.39473599999999465,
          "durationTicks": 256,
          "midi": 64,
          "name": "E4",
          "ticks": 128512,
          "time": 198.84998299999998,
          "velocity": 0.6141732283464567
        },
        {
          "duration": 0.40244568750000553,
          "durationTicks": 261,
          "midi": 85,
          "name": "C#6",
          "ticks": 128768,
          "time": 199.24471899999998,
          "velocity": 0.6692913385826772
        },
        {
          "duration": 0.39473599999999465,
          "durationTicks": 256,
          "midi": 55,
          "name": "G3",
          "ticks": 128768,
          "time": 199.24471899999998,
          "velocity": 0.48031496062992124
        },
        {
          "duration": 0.39473599999999465,
          "durationTicks": 256,
          "midi": 59,
          "name": "B3",
          "ticks": 128768,
          "time": 199.24471899999998,
          "velocity": 0.48031496062992124
        },
        {
          "duration": 0.39473599999999465,
          "durationTicks": 256,
          "midi": 64,
          "name": "E4",
          "ticks": 128768,
          "time": 199.24471899999998,
          "velocity": 0.48031496062992124
        },
        {
          "duration": 0.20045187500002726,
          "durationTicks": 130,
          "midi": 84,
          "name": "C6",
          "ticks": 129024,
          "time": 199.63945499999997,
          "velocity": 0.7086614173228346
        },
        {
          "duration": 0.39473600000002307,
          "durationTicks": 256,
          "midi": 47,
          "name": "B2",
          "ticks": 129024,
          "time": 199.63945499999997,
          "velocity": 0.4409448818897638
        },
        {
          "duration": 0.20045187499999884,
          "durationTicks": 130,
          "midi": 83,
          "name": "B5",
          "ticks": 129152,
          "time": 199.83682299999998,
          "velocity": 0.49606299212598426
        },
        {
          "duration": 0.20045187499999884,
          "durationTicks": 130,
          "midi": 82,
          "name": "A#5",
          "ticks": 129280,
          "time": 200.034191,
          "velocity": 0.4566929133858268
        },
        {
          "duration": 0.39473599999999465,
          "durationTicks": 256,
          "midi": 54,
          "name": "F#3",
          "ticks": 129280,
          "time": 200.034191,
          "velocity": 0.5984251968503937
        },
        {
          "duration": 0.39473599999999465,
          "durationTicks": 256,
          "midi": 58,
          "name": "A#3",
          "ticks": 129280,
          "time": 200.034191,
          "velocity": 0.5984251968503937
        },
        {
          "duration": 0.39473599999999465,
          "durationTicks": 256,
          "midi": 64,
          "name": "E4",
          "ticks": 129280,
          "time": 200.034191,
          "velocity": 0.5984251968503937
        },
        {
          "duration": 0.20045187499999884,
          "durationTicks": 130,
          "midi": 81,
          "name": "A5",
          "ticks": 129408,
          "time": 200.23155899999998,
          "velocity": 0.4409448818897638
        },
        {
          "duration": 0.20045187499999884,
          "durationTicks": 130,
          "midi": 80,
          "name": "G#5",
          "ticks": 129536,
          "time": 200.428927,
          "velocity": 0.41732283464566927
        },
        {
          "duration": 0.39473599999999465,
          "durationTicks": 256,
          "midi": 54,
          "name": "F#3",
          "ticks": 129536,
          "time": 200.428927,
          "velocity": 0.5039370078740157
        },
        {
          "duration": 0.39473599999999465,
          "durationTicks": 256,
          "midi": 58,
          "name": "A#3",
          "ticks": 129536,
          "time": 200.428927,
          "velocity": 0.5039370078740157
        },
        {
          "duration": 0.39473599999999465,
          "durationTicks": 256,
          "midi": 64,
          "name": "E4",
          "ticks": 129536,
          "time": 200.428927,
          "velocity": 0.5039370078740157
        },
        {
          "duration": 0.20045187500002726,
          "durationTicks": 130,
          "midi": 79,
          "name": "G5",
          "ticks": 129664,
          "time": 200.62629499999997,
          "velocity": 0.4409448818897638
        },
        {
          "duration": 0.20045187499999884,
          "durationTicks": 130,
          "midi": 78,
          "name": "F#5",
          "ticks": 129792,
          "time": 200.82366299999998,
          "velocity": 0.4645669291338583
        },
        {
          "duration": 0.39473599999999465,
          "durationTicks": 256,
          "midi": 47,
          "name": "B2",
          "ticks": 129792,
          "time": 200.82366299999998,
          "velocity": 0.4330708661417323
        },
        {
          "duration": 0.20045187499999884,
          "durationTicks": 130,
          "midi": 77,
          "name": "F5",
          "ticks": 129920,
          "time": 201.021031,
          "velocity": 0.44881889763779526
        },
        {
          "duration": 0.20045187499999884,
          "durationTicks": 130,
          "midi": 76,
          "name": "E5",
          "ticks": 130048,
          "time": 201.21839899999998,
          "velocity": 0.4409448818897638
        },
        {
          "duration": 0.39473599999999465,
          "durationTicks": 256,
          "midi": 54,
          "name": "F#3",
          "ticks": 130048,
          "time": 201.21839899999998,
          "velocity": 0.6220472440944882
        },
        {
          "duration": 0.39473599999999465,
          "durationTicks": 256,
          "midi": 59,
          "name": "B3",
          "ticks": 130048,
          "time": 201.21839899999998,
          "velocity": 0.6220472440944882
        },
        {
          "duration": 0.39473599999999465,
          "durationTicks": 256,
          "midi": 62,
          "name": "D4",
          "ticks": 130048,
          "time": 201.21839899999998,
          "velocity": 0.6220472440944882
        },
        {
          "duration": 0.20045187499999884,
          "durationTicks": 130,
          "midi": 74,
          "name": "D5",
          "ticks": 130176,
          "time": 201.415767,
          "velocity": 0.44881889763779526
        },
        {
          "duration": 0.20045187499999884,
          "durationTicks": 130,
          "midi": 73,
          "name": "C#5",
          "ticks": 130304,
          "time": 201.61313499999997,
          "velocity": 0.44881889763779526
        },
        {
          "duration": 0.39473600000002307,
          "durationTicks": 256,
          "midi": 54,
          "name": "F#3",
          "ticks": 130304,
          "time": 201.61313499999997,
          "velocity": 0.4881889763779528
        },
        {
          "duration": 0.39473600000002307,
          "durationTicks": 256,
          "midi": 59,
          "name": "B3",
          "ticks": 130304,
          "time": 201.61313499999997,
          "velocity": 0.4881889763779528
        },
        {
          "duration": 0.39473600000002307,
          "durationTicks": 256,
          "midi": 62,
          "name": "D4",
          "ticks": 130304,
          "time": 201.61313499999997,
          "velocity": 0.4881889763779528
        },
        {
          "duration": 0.20045187499999884,
          "durationTicks": 130,
          "midi": 71,
          "name": "B4",
          "ticks": 130432,
          "time": 201.81050299999998,
          "velocity": 0.44881889763779526
        },
        {
          "duration": 0.7493816249999838,
          "durationTicks": 486,
          "midi": 70,
          "name": "A#4",
          "ticks": 130560,
          "time": 202.007871,
          "velocity": 0.48031496062992124
        },
        {
          "duration": 0.39473599999999465,
          "durationTicks": 256,
          "midi": 49,
          "name": "C#3",
          "ticks": 130560,
          "time": 202.007871,
          "velocity": 0.41732283464566927
        },
        {
          "duration": 0.39473599999999465,
          "durationTicks": 256,
          "midi": 54,
          "name": "F#3",
          "ticks": 130816,
          "time": 202.402607,
          "velocity": 0.5748031496062992
        },
        {
          "duration": 0.39473599999999465,
          "durationTicks": 256,
          "midi": 58,
          "name": "A#3",
          "ticks": 130816,
          "time": 202.402607,
          "velocity": 0.5748031496062992
        },
        {
          "duration": 0.39473599999999465,
          "durationTicks": 256,
          "midi": 64,
          "name": "E4",
          "ticks": 130816,
          "time": 202.402607,
          "velocity": 0.5748031496062992
        },
        {
          "duration": 0.40244568750000553,
          "durationTicks": 261,
          "midi": 79,
          "name": "G5",
          "ticks": 131072,
          "time": 202.79734299999998,
          "velocity": 0.5669291338582677
        },
        {
          "duration": 0.39473599999999465,
          "durationTicks": 256,
          "midi": 54,
          "name": "F#3",
          "ticks": 131072,
          "time": 202.79734299999998,
          "velocity": 0.49606299212598426
        },
        {
          "duration": 0.39473599999999465,
          "durationTicks": 256,
          "midi": 58,
          "name": "A#3",
          "ticks": 131072,
          "time": 202.79734299999998,
          "velocity": 0.49606299212598426
        },
        {
          "duration": 0.39473599999999465,
          "durationTicks": 256,
          "midi": 64,
          "name": "E4",
          "ticks": 131072,
          "time": 202.79734299999998,
          "velocity": 0.49606299212598426
        },
        {
          "duration": 0.20045187499999884,
          "durationTicks": 130,
          "midi": 78,
          "name": "F#5",
          "ticks": 131328,
          "time": 203.19207899999998,
          "velocity": 0.5118110236220472
        },
        {
          "duration": 0.39473599999999465,
          "durationTicks": 256,
          "midi": 46,
          "name": "A#2",
          "ticks": 131328,
          "time": 203.19207899999998,
          "velocity": 0.4645669291338583
        },
        {
          "duration": 0.20045187499999884,
          "durationTicks": 130,
          "midi": 79,
          "name": "G5",
          "ticks": 131456,
          "time": 203.389447,
          "velocity": 0.5433070866141733
        },
        {
          "duration": 0.20045187499999884,
          "durationTicks": 130,
          "midi": 78,
          "name": "F#5",
          "ticks": 131584,
          "time": 203.58681499999997,
          "velocity": 0.5039370078740157
        },
        {
          "duration": 0.39473600000002307,
          "durationTicks": 256,
          "midi": 54,
          "name": "F#3",
          "ticks": 131584,
          "time": 203.58681499999997,
          "velocity": 0.7244094488188977
        },
        {
          "duration": 0.39473600000002307,
          "durationTicks": 256,
          "midi": 61,
          "name": "C#4",
          "ticks": 131584,
          "time": 203.58681499999997,
          "velocity": 0.7244094488188977
        },
        {
          "duration": 0.39473600000002307,
          "durationTicks": 256,
          "midi": 64,
          "name": "E4",
          "ticks": 131584,
          "time": 203.58681499999997,
          "velocity": 0.7244094488188977
        },
        {
          "duration": 0.20045187499999884,
          "durationTicks": 130,
          "midi": 73,
          "name": "C#5",
          "ticks": 131712,
          "time": 203.78418299999998,
          "velocity": 0.5118110236220472
        },
        {
          "duration": 0.20045187499999884,
          "durationTicks": 130,
          "midi": 76,
          "name": "E5",
          "ticks": 131840,
          "time": 203.981551,
          "velocity": 0.6535433070866141
        },
        {
          "duration": 0.39473599999999465,
          "durationTicks": 256,
          "midi": 54,
          "name": "F#3",
          "ticks": 131840,
          "time": 203.981551,
          "velocity": 0.6299212598425197
        },
        {
          "duration": 0.39473599999999465,
          "durationTicks": 256,
          "midi": 61,
          "name": "C#4",
          "ticks": 131840,
          "time": 203.981551,
          "velocity": 0.6299212598425197
        },
        {
          "duration": 0.39473599999999465,
          "durationTicks": 256,
          "midi": 64,
          "name": "E4",
          "ticks": 131840,
          "time": 203.981551,
          "velocity": 0.6299212598425197
        },
        {
          "duration": 0.20045187499999884,
          "durationTicks": 130,
          "midi": 74,
          "name": "D5",
          "ticks": 131968,
          "time": 204.17891899999998,
          "velocity": 0.5826771653543307
        },
        {
          "duration": 0.7493816249999838,
          "durationTicks": 486,
          "midi": 71,
          "name": "B4",
          "ticks": 132096,
          "time": 204.376287,
          "velocity": 0.5984251968503937
        },
        {
          "duration": 0.39473599999999465,
          "durationTicks": 256,
          "midi": 47,
          "name": "B2",
          "ticks": 132096,
          "time": 204.376287,
          "velocity": 0.5826771653543307
        },
        {
          "duration": 0.39473599999999465,
          "durationTicks": 256,
          "midi": 54,
          "name": "F#3",
          "ticks": 132352,
          "time": 204.77102299999999,
          "velocity": 0.889763779527559
        },
        {
          "duration": 0.39473599999999465,
          "durationTicks": 256,
          "midi": 59,
          "name": "B3",
          "ticks": 132352,
          "time": 204.77102299999999,
          "velocity": 0.889763779527559
        },
        {
          "duration": 0.39473599999999465,
          "durationTicks": 256,
          "midi": 62,
          "name": "D4",
          "ticks": 132352,
          "time": 204.77102299999999,
          "velocity": 0.889763779527559
        },
        {
          "duration": 0.40244568750000553,
          "durationTicks": 261,
          "midi": 78,
          "name": "F#5",
          "ticks": 132608,
          "time": 205.16575899999998,
          "velocity": 0.8503937007874016
        },
        {
          "duration": 0.39473599999999465,
          "durationTicks": 256,
          "midi": 54,
          "name": "F#3",
          "ticks": 132608,
          "time": 205.16575899999998,
          "velocity": 0.7401574803149606
        },
        {
          "duration": 0.39473599999999465,
          "durationTicks": 256,
          "midi": 59,
          "name": "B3",
          "ticks": 132608,
          "time": 205.16575899999998,
          "velocity": 0.7401574803149606
        },
        {
          "duration": 0.39473599999999465,
          "durationTicks": 256,
          "midi": 62,
          "name": "D4",
          "ticks": 132608,
          "time": 205.16575899999998,
          "velocity": 0.7401574803149606
        },
        {
          "duration": 0.20045187499999884,
          "durationTicks": 130,
          "midi": 90,
          "name": "F#6",
          "ticks": 132864,
          "time": 205.56049499999997,
          "velocity": 1
        },
        {
          "duration": 0.37469081250000613,
          "durationTicks": 243,
          "midi": 50,
          "name": "D3",
          "ticks": 132864,
          "time": 205.56049499999997,
          "velocity": 0.6614173228346457
        },
        {
          "duration": 0.20045187499999884,
          "durationTicks": 130,
          "midi": 85,
          "name": "C#6",
          "ticks": 132992,
          "time": 205.757863,
          "velocity": 0.8818897637795275
        },
        {
          "duration": 0.20045187499999884,
          "durationTicks": 130,
          "midi": 86,
          "name": "D6",
          "ticks": 133120,
          "time": 205.955231,
          "velocity": 0.7795275590551181
        },
        {
          "duration": 0.39473599999999465,
          "durationTicks": 256,
          "midi": 54,
          "name": "F#3",
          "ticks": 133120,
          "time": 205.955231,
          "velocity": 0.968503937007874
        },
        {
          "duration": 0.39473599999999465,
          "durationTicks": 256,
          "midi": 59,
          "name": "B3",
          "ticks": 133120,
          "time": 205.955231,
          "velocity": 0.968503937007874
        },
        {
          "duration": 0.39473599999999465,
          "durationTicks": 256,
          "midi": 62,
          "name": "D4",
          "ticks": 133120,
          "time": 205.955231,
          "velocity": 0.968503937007874
        },
        {
          "duration": 0.20045187499999884,
          "durationTicks": 130,
          "midi": 82,
          "name": "A#5",
          "ticks": 133248,
          "time": 206.15259899999998,
          "velocity": 0.7007874015748031
        },
        {
          "duration": 0.20045187499999884,
          "durationTicks": 130,
          "midi": 83,
          "name": "B5",
          "ticks": 133376,
          "time": 206.349967,
          "velocity": 0.8188976377952756
        },
        {
          "duration": 0.39473599999999465,
          "durationTicks": 256,
          "midi": 54,
          "name": "F#3",
          "ticks": 133376,
          "time": 206.349967,
          "velocity": 0.8031496062992126
        },
        {
          "duration": 0.39473599999999465,
          "durationTicks": 256,
          "midi": 59,
          "name": "B3",
          "ticks": 133376,
          "time": 206.349967,
          "velocity": 0.8031496062992126
        },
        {
          "duration": 0.39473599999999465,
          "durationTicks": 256,
          "midi": 62,
          "name": "D4",
          "ticks": 133376,
          "time": 206.349967,
          "velocity": 0.8031496062992126
        },
        {
          "duration": 0.18657443750001335,
          "durationTicks": 121,
          "midi": 78,
          "name": "F#5",
          "ticks": 133504,
          "time": 206.54733499999998,
          "velocity": 0.7480314960629921
        },
        {
          "duration": 0.20045187499999884,
          "durationTicks": 130,
          "midi": 81,
          "name": "A5",
          "ticks": 133632,
          "time": 206.744703,
          "velocity": 0.8188976377952756
        },
        {
          "duration": 0.37469081250000613,
          "durationTicks": 243,
          "midi": 52,
          "name": "E3",
          "ticks": 133632,
          "time": 206.744703,
          "velocity": 0.6929133858267716
        },
        {
          "duration": 0.20045187500002726,
          "durationTicks": 130,
          "midi": 79,
          "name": "G5",
          "ticks": 133760,
          "time": 206.94207099999997,
          "velocity": 0.6614173228346457
        },
        {
          "duration": 0.20045187499999884,
          "durationTicks": 130,
          "midi": 71,
          "name": "B4",
          "ticks": 133888,
          "time": 207.13943899999998,
          "velocity": 0.5275590551181102
        },
        {
          "duration": 0.39473599999999465,
          "durationTicks": 256,
          "midi": 55,
          "name": "G3",
          "ticks": 133888,
          "time": 207.13943899999998,
          "velocity": 0.8031496062992126
        },
        {
          "duration": 0.39473599999999465,
          "durationTicks": 256,
          "midi": 61,
          "name": "C#4",
          "ticks": 133888,
          "time": 207.13943899999998,
          "velocity": 0.8031496062992126
        },
        {
          "duration": 0.20045187499999884,
          "durationTicks": 130,
          "midi": 73,
          "name": "C#5",
          "ticks": 134016,
          "time": 207.336807,
          "velocity": 0.6456692913385826
        },
        {
          "duration": 0.20045187499999884,
          "durationTicks": 130,
          "midi": 76,
          "name": "E5",
          "ticks": 134144,
          "time": 207.53417499999998,
          "velocity": 0.6692913385826772
        },
        {
          "duration": 0.18657443749998492,
          "durationTicks": 121,
          "midi": 79,
          "name": "G5",
          "ticks": 134272,
          "time": 207.731543,
          "velocity": 0.5984251968503937
        },
        {
          "duration": 0.20045187499999884,
          "durationTicks": 130,
          "midi": 79,
          "name": "G5",
          "ticks": 134400,
          "time": 207.92891099999997,
          "velocity": 0.47244094488188976
        },
        {
          "duration": 1.1842080000000124,
          "durationTicks": 768,
          "midi": 54,
          "name": "F#3",
          "ticks": 134400,
          "time": 207.92891099999997,
          "velocity": 0.41732283464566927
        },
        {
          "duration": 0.20045187499999884,
          "durationTicks": 130,
          "midi": 78,
          "name": "F#5",
          "ticks": 134528,
          "time": 208.12627899999998,
          "velocity": 0.4409448818897638
        },
        {
          "duration": 0.20045187499999884,
          "durationTicks": 130,
          "midi": 71,
          "name": "B4",
          "ticks": 134656,
          "time": 208.323647,
          "velocity": 0.3700787401574803
        },
        {
          "duration": 0.39473599999999465,
          "durationTicks": 256,
          "midi": 59,
          "name": "B3",
          "ticks": 134656,
          "time": 208.323647,
          "velocity": 0.5590551181102362
        },
        {
          "duration": 0.39473599999999465,
          "durationTicks": 256,
          "midi": 62,
          "name": "D4",
          "ticks": 134656,
          "time": 208.323647,
          "velocity": 0.5590551181102362
        },
        {
          "duration": 0.20045187499999884,
          "durationTicks": 130,
          "midi": 74,
          "name": "D5",
          "ticks": 134784,
          "time": 208.52101499999998,
          "velocity": 0.4015748031496063
        },
        {
          "duration": 0.20045187499999884,
          "durationTicks": 130,
          "midi": 73,
          "name": "C#5",
          "ticks": 134912,
          "time": 208.718383,
          "velocity": 0.3700787401574803
        },
        {
          "duration": 0.39473599999999465,
          "durationTicks": 256,
          "midi": 58,
          "name": "A#3",
          "ticks": 134912,
          "time": 208.718383,
          "velocity": 0.5196850393700787
        },
        {
          "duration": 0.39473599999999465,
          "durationTicks": 256,
          "midi": 64,
          "name": "E4",
          "ticks": 134912,
          "time": 208.718383,
          "velocity": 0.5196850393700787
        },
        {
          "duration": 0.20045187499999884,
          "durationTicks": 130,
          "midi": 66,
          "name": "F#4",
          "ticks": 135040,
          "time": 208.91575099999997,
          "velocity": 0.29133858267716534
        },
        {
          "duration": 0.37469081250000613,
          "durationTicks": 243,
          "midi": 71,
          "name": "B4",
          "ticks": 135168,
          "time": 209.11311899999998,
          "velocity": 0.31496062992125984
        },
        {
          "duration": 0.39473599999999465,
          "durationTicks": 256,
          "midi": 59,
          "name": "B3",
          "ticks": 135168,
          "time": 209.11311899999998,
          "velocity": 0.3700787401574803
        },
        {
          "duration": 0.39473599999999465,
          "durationTicks": 256,
          "midi": 62,
          "name": "D4",
          "ticks": 135168,
          "time": 209.11311899999998,
          "velocity": 0.3700787401574803
        },
        {
          "duration": 0.39473599999999465,
          "durationTicks": 256,
          "midi": 47,
          "name": "B2",
          "ticks": 135424,
          "time": 209.50785499999998,
          "velocity": 0.30708661417322836
        }
      ],
      "endOfTrackTicks": 135681
    }
  ]
}
