let canon = {
    "header": {
      "keySignatures": [
        {
          "key": "D",
          "scale": "major",
          "ticks": 0
        }
      ],
      "meta": [],
      "name": "",
      "ppq": 960,
      "tempos": [
        {
          "bpm": 100,
          "ticks": 0
        }
      ],
      "timeSignatures": [
        {
          "ticks": 0,
          "timeSignature": [
            4,
            4
          ],
          "measures": 0
        }
      ]
    },
    "tracks": [
      {
        "channel": 0,
        "controlChanges": {
          "7": [
            {
              "number": 7,
              "ticks": 0,
              "time": 0,
              "value": 0.8110236220472441
            },
            {
              "number": 7,
              "ticks": 0,
              "time": 0,
              "value": 0.8110236220472441
            }
          ],
          "10": [
            {
              "number": 10,
              "ticks": 0,
              "time": 0,
              "value": 0.4015748031496063
            },
            {
              "number": 10,
              "ticks": 0,
              "time": 0,
              "value": 0.4015748031496063
            }
          ],
          "64": [
            {
              "number": 64,
              "ticks": 0,
              "time": 0,
              "value": 0
            },
            {
              "number": 64,
              "ticks": 0,
              "time": 0,
              "value": 0
            }
          ],
          "91": [
            {
              "number": 91,
              "ticks": 0,
              "time": 0,
              "value": 0.3779527559055118
            },
            {
              "number": 91,
              "ticks": 0,
              "time": 0,
              "value": 0.3779527559055118
            }
          ],
          "121": [
            {
              "number": 121,
              "ticks": 0,
              "time": 0,
              "value": 0
            },
            {
              "number": 121,
              "ticks": 0,
              "time": 0,
              "value": 0
            }
          ]
        },
        "pitchBends": [],
        "instrument": {
          "family": "piano",
          "number": 0,
          "name": "acoustic grand piano"
        },
        "name": "Piano",
        "notes": [
          {
            "duration": 1.2,
            "durationTicks": 1920,
            "midi": 50,
            "name": "D3",
            "ticks": 0,
            "time": 0,
            "velocity": 0.4330708661417323
          },
          {
            "duration": 0.3,
            "durationTicks": 480,
            "midi": 62,
            "name": "D4",
            "ticks": 480,
            "time": 0.3,
            "velocity": 0.47244094488188976
          },
          {
            "duration": 0.29999999999999993,
            "durationTicks": 480,
            "midi": 66,
            "name": "F#4",
            "ticks": 960,
            "time": 0.6,
            "velocity": 0.5196850393700787
          },
          {
            "duration": 0.30000000000000004,
            "durationTicks": 480,
            "midi": 69,
            "name": "A4",
            "ticks": 1440,
            "time": 0.8999999999999999,
            "velocity": 0.5275590551181102
          },
          {
            "duration": 1.2,
            "durationTicks": 1920,
            "midi": 45,
            "name": "A2",
            "ticks": 1920,
            "time": 1.2,
            "velocity": 0.4330708661417323
          },
          {
            "duration": 0.2999999999999998,
            "durationTicks": 480,
            "midi": 57,
            "name": "A3",
            "ticks": 2400,
            "time": 1.5,
            "velocity": 0.4251968503937008
          },
          {
            "duration": 0.30000000000000027,
            "durationTicks": 480,
            "midi": 61,
            "name": "C#4",
            "ticks": 2880,
            "time": 1.7999999999999998,
            "velocity": 0.5196850393700787
          },
          {
            "duration": 0.2999999999999998,
            "durationTicks": 480,
            "midi": 64,
            "name": "E4",
            "ticks": 3360,
            "time": 2.1,
            "velocity": 0.5590551181102362
          },
          {
            "duration": 1.1999999999999997,
            "durationTicks": 1920,
            "midi": 47,
            "name": "B2",
            "ticks": 3840,
            "time": 2.4,
            "velocity": 0.48031496062992124
          },
          {
            "duration": 0.30000000000000027,
            "durationTicks": 480,
            "midi": 59,
            "name": "B3",
            "ticks": 4320,
            "time": 2.6999999999999997,
            "velocity": 0.4409448818897638
          },
          {
            "duration": 0.2999999999999998,
            "durationTicks": 480,
            "midi": 62,
            "name": "D4",
            "ticks": 4800,
            "time": 3,
            "velocity": 0.5039370078740157
          },
          {
            "duration": 0.2999999999999998,
            "durationTicks": 480,
            "midi": 66,
            "name": "F#4",
            "ticks": 5280,
            "time": 3.3,
            "velocity": 0.5275590551181102
          },
          {
            "duration": 1.2000000000000002,
            "durationTicks": 1920,
            "midi": 42,
            "name": "F#2",
            "ticks": 5760,
            "time": 3.5999999999999996,
            "velocity": 0.44881889763779526
          },
          {
            "duration": 0.30000000000000027,
            "durationTicks": 480,
            "midi": 54,
            "name": "F#3",
            "ticks": 6240,
            "time": 3.9,
            "velocity": 0.4409448818897638
          },
          {
            "duration": 0.2999999999999998,
            "durationTicks": 480,
            "midi": 57,
            "name": "A3",
            "ticks": 6720,
            "time": 4.2,
            "velocity": 0.49606299212598426
          },
          {
            "duration": 0.2999999999999998,
            "durationTicks": 480,
            "midi": 61,
            "name": "C#4",
            "ticks": 7200,
            "time": 4.5,
            "velocity": 0.5748031496062992
          },
          {
            "duration": 1.2000000000000002,
            "durationTicks": 1920,
            "midi": 43,
            "name": "G2",
            "ticks": 7680,
            "time": 4.8,
            "velocity": 0.4881889763779528
          },
          {
            "duration": 0.2999999999999998,
            "durationTicks": 480,
            "midi": 55,
            "name": "G3",
            "ticks": 8160,
            "time": 5.1,
            "velocity": 0.4330708661417323
          },
          {
            "duration": 0.3000000000000007,
            "durationTicks": 480,
            "midi": 59,
            "name": "B3",
            "ticks": 8640,
            "time": 5.3999999999999995,
            "velocity": 0.4881889763779528
          },
          {
            "duration": 0.2999999999999998,
            "durationTicks": 480,
            "midi": 62,
            "name": "D4",
            "ticks": 9120,
            "time": 5.7,
            "velocity": 0.49606299212598426
          },
          {
            "duration": 1.1999999999999993,
            "durationTicks": 1920,
            "midi": 38,
            "name": "D2",
            "ticks": 9600,
            "time": 6,
            "velocity": 0.4330708661417323
          },
          {
            "duration": 0.2999999999999998,
            "durationTicks": 480,
            "midi": 50,
            "name": "D3",
            "ticks": 10080,
            "time": 6.3,
            "velocity": 0.3937007874015748
          },
          {
            "duration": 0.2999999999999998,
            "durationTicks": 480,
            "midi": 54,
            "name": "F#3",
            "ticks": 10560,
            "time": 6.6,
            "velocity": 0.49606299212598426
          },
          {
            "duration": 0.2999999999999998,
            "durationTicks": 480,
            "midi": 57,
            "name": "A3",
            "ticks": 11040,
            "time": 6.8999999999999995,
            "velocity": 0.4645669291338583
          },
          {
            "duration": 1.200000000000001,
            "durationTicks": 1920,
            "midi": 43,
            "name": "G2",
            "ticks": 11520,
            "time": 7.199999999999999,
            "velocity": 0.4881889763779528
          },
          {
            "duration": 0.2999999999999998,
            "durationTicks": 480,
            "midi": 55,
            "name": "G3",
            "ticks": 12000,
            "time": 7.5,
            "velocity": 0.4409448818897638
          },
          {
            "duration": 0.2999999999999998,
            "durationTicks": 480,
            "midi": 59,
            "name": "B3",
            "ticks": 12480,
            "time": 7.8,
            "velocity": 0.47244094488188976
          },
          {
            "duration": 0.3000000000000007,
            "durationTicks": 480,
            "midi": 62,
            "name": "D4",
            "ticks": 12960,
            "time": 8.1,
            "velocity": 0.5275590551181102
          },
          {
            "duration": 1.1999999999999993,
            "durationTicks": 1920,
            "midi": 45,
            "name": "A2",
            "ticks": 13440,
            "time": 8.4,
            "velocity": 0.4566929133858268
          },
          {
            "duration": 0.3000000000000007,
            "durationTicks": 480,
            "midi": 57,
            "name": "A3",
            "ticks": 13920,
            "time": 8.7,
            "velocity": 0.4251968503937008
          },
          {
            "duration": 0.29999999999999893,
            "durationTicks": 480,
            "midi": 61,
            "name": "C#4",
            "ticks": 14400,
            "time": 9,
            "velocity": 0.5118110236220472
          },
          {
            "duration": 0.3000000000000007,
            "durationTicks": 480,
            "midi": 64,
            "name": "E4",
            "ticks": 14880,
            "time": 9.299999999999999,
            "velocity": 0.5118110236220472
          },
          {
            "duration": 1.1999999999999993,
            "durationTicks": 1920,
            "midi": 74,
            "name": "D5",
            "ticks": 15360,
            "time": 9.6,
            "velocity": 0.6535433070866141
          },
          {
            "duration": 1.1999999999999993,
            "durationTicks": 1920,
            "midi": 78,
            "name": "F#5",
            "ticks": 15360,
            "time": 9.6,
            "velocity": 0.6535433070866141
          },
          {
            "duration": 0.3000000000000007,
            "durationTicks": 480,
            "midi": 50,
            "name": "D3",
            "ticks": 15360,
            "time": 9.6,
            "velocity": 0.49606299212598426
          },
          {
            "duration": 0.29999999999999893,
            "durationTicks": 480,
            "midi": 54,
            "name": "F#3",
            "ticks": 15840,
            "time": 9.9,
            "velocity": 0.5433070866141733
          },
          {
            "duration": 0.3000000000000007,
            "durationTicks": 480,
            "midi": 57,
            "name": "A3",
            "ticks": 16320,
            "time": 10.2,
            "velocity": 0.5118110236220472
          },
          {
            "duration": 0.29999999999999893,
            "durationTicks": 480,
            "midi": 62,
            "name": "D4",
            "ticks": 16800,
            "time": 10.5,
            "velocity": 0.5669291338582677
          },
          {
            "duration": 1.200000000000001,
            "durationTicks": 1920,
            "midi": 73,
            "name": "C#5",
            "ticks": 17280,
            "time": 10.799999999999999,
            "velocity": 0.5118110236220472
          },
          {
            "duration": 1.200000000000001,
            "durationTicks": 1920,
            "midi": 76,
            "name": "E5",
            "ticks": 17280,
            "time": 10.799999999999999,
            "velocity": 0.5118110236220472
          },
          {
            "duration": 0.3000000000000007,
            "durationTicks": 480,
            "midi": 45,
            "name": "A2",
            "ticks": 17280,
            "time": 10.799999999999999,
            "velocity": 0.44881889763779526
          },
          {
            "duration": 0.3000000000000007,
            "durationTicks": 480,
            "midi": 49,
            "name": "C#3",
            "ticks": 17760,
            "time": 11.1,
            "velocity": 0.49606299212598426
          },
          {
            "duration": 0.29999999999999893,
            "durationTicks": 480,
            "midi": 52,
            "name": "E3",
            "ticks": 18240,
            "time": 11.4,
            "velocity": 0.5039370078740157
          },
          {
            "duration": 0.3000000000000007,
            "durationTicks": 480,
            "midi": 57,
            "name": "A3",
            "ticks": 18720,
            "time": 11.7,
            "velocity": 0.5433070866141733
          },
          {
            "duration": 1.1999999999999993,
            "durationTicks": 1920,
            "midi": 71,
            "name": "B4",
            "ticks": 19200,
            "time": 12,
            "velocity": 0.5039370078740157
          },
          {
            "duration": 1.1999999999999993,
            "durationTicks": 1920,
            "midi": 74,
            "name": "D5",
            "ticks": 19200,
            "time": 12,
            "velocity": 0.5039370078740157
          },
          {
            "duration": 0.29999999999999893,
            "durationTicks": 480,
            "midi": 47,
            "name": "B2",
            "ticks": 19200,
            "time": 12,
            "velocity": 0.4566929133858268
          },
          {
            "duration": 0.3000000000000007,
            "durationTicks": 480,
            "midi": 50,
            "name": "D3",
            "ticks": 19680,
            "time": 12.299999999999999,
            "velocity": 0.47244094488188976
          },
          {
            "duration": 0.3000000000000007,
            "durationTicks": 480,
            "midi": 54,
            "name": "F#3",
            "ticks": 20160,
            "time": 12.6,
            "velocity": 0.5039370078740157
          },
          {
            "duration": 0.29999999999999893,
            "durationTicks": 480,
            "midi": 59,
            "name": "B3",
            "ticks": 20640,
            "time": 12.9,
            "velocity": 0.5196850393700787
          },
          {
            "duration": 1.1999999999999993,
            "durationTicks": 1920,
            "midi": 69,
            "name": "A4",
            "ticks": 21120,
            "time": 13.2,
            "velocity": 0.4566929133858268
          },
          {
            "duration": 1.1999999999999993,
            "durationTicks": 1920,
            "midi": 73,
            "name": "C#5",
            "ticks": 21120,
            "time": 13.2,
            "velocity": 0.4566929133858268
          },
          {
            "duration": 0.3000000000000007,
            "durationTicks": 480,
            "midi": 42,
            "name": "F#2",
            "ticks": 21120,
            "time": 13.2,
            "velocity": 0.4409448818897638
          },
          {
            "duration": 0.29999999999999893,
            "durationTicks": 480,
            "midi": 45,
            "name": "A2",
            "ticks": 21600,
            "time": 13.5,
            "velocity": 0.4409448818897638
          },
          {
            "duration": 0.3000000000000007,
            "durationTicks": 480,
            "midi": 49,
            "name": "C#3",
            "ticks": 22080,
            "time": 13.799999999999999,
            "velocity": 0.48031496062992124
          },
          {
            "duration": 0.29999999999999893,
            "durationTicks": 480,
            "midi": 54,
            "name": "F#3",
            "ticks": 22560,
            "time": 14.1,
            "velocity": 0.49606299212598426
          },
          {
            "duration": 1.200000000000001,
            "durationTicks": 1920,
            "midi": 67,
            "name": "G4",
            "ticks": 23040,
            "time": 14.399999999999999,
            "velocity": 0.44881889763779526
          },
          {
            "duration": 1.200000000000001,
            "durationTicks": 1920,
            "midi": 71,
            "name": "B4",
            "ticks": 23040,
            "time": 14.399999999999999,
            "velocity": 0.44881889763779526
          },
          {
            "duration": 0.3000000000000007,
            "durationTicks": 480,
            "midi": 43,
            "name": "G2",
            "ticks": 23040,
            "time": 14.399999999999999,
            "velocity": 0.44881889763779526
          },
          {
            "duration": 0.3000000000000007,
            "durationTicks": 480,
            "midi": 47,
            "name": "B2",
            "ticks": 23520,
            "time": 14.7,
            "velocity": 0.4881889763779528
          },
          {
            "duration": 0.29999999999999893,
            "durationTicks": 480,
            "midi": 50,
            "name": "D3",
            "ticks": 24000,
            "time": 15,
            "velocity": 0.5433070866141733
          },
          {
            "duration": 0.3000000000000007,
            "durationTicks": 480,
            "midi": 55,
            "name": "G3",
            "ticks": 24480,
            "time": 15.299999999999999,
            "velocity": 0.47244094488188976
          },
          {
            "duration": 1.200000000000001,
            "durationTicks": 1920,
            "midi": 66,
            "name": "F#4",
            "ticks": 24960,
            "time": 15.6,
            "velocity": 0.4566929133858268
          },
          {
            "duration": 1.200000000000001,
            "durationTicks": 1920,
            "midi": 69,
            "name": "A4",
            "ticks": 24960,
            "time": 15.6,
            "velocity": 0.4566929133858268
          },
          {
            "duration": 0.29999999999999893,
            "durationTicks": 480,
            "midi": 38,
            "name": "D2",
            "ticks": 24960,
            "time": 15.6,
            "velocity": 0.4330708661417323
          },
          {
            "duration": 0.3000000000000007,
            "durationTicks": 480,
            "midi": 42,
            "name": "F#2",
            "ticks": 25440,
            "time": 15.899999999999999,
            "velocity": 0.49606299212598426
          },
          {
            "duration": 0.3000000000000007,
            "durationTicks": 480,
            "midi": 45,
            "name": "A2",
            "ticks": 25920,
            "time": 16.2,
            "velocity": 0.47244094488188976
          },
          {
            "duration": 0.3000000000000007,
            "durationTicks": 480,
            "midi": 50,
            "name": "D3",
            "ticks": 26400,
            "time": 16.5,
            "velocity": 0.5118110236220472
          },
          {
            "duration": 1.1999999999999993,
            "durationTicks": 1920,
            "midi": 67,
            "name": "G4",
            "ticks": 26880,
            "time": 16.8,
            "velocity": 0.5354330708661418
          },
          {
            "duration": 1.1999999999999993,
            "durationTicks": 1920,
            "midi": 71,
            "name": "B4",
            "ticks": 26880,
            "time": 16.8,
            "velocity": 0.5354330708661418
          },
          {
            "duration": 0.29999999999999716,
            "durationTicks": 480,
            "midi": 43,
            "name": "G2",
            "ticks": 26880,
            "time": 16.8,
            "velocity": 0.4645669291338583
          },
          {
            "duration": 0.3000000000000007,
            "durationTicks": 480,
            "midi": 47,
            "name": "B2",
            "ticks": 27360,
            "time": 17.099999999999998,
            "velocity": 0.49606299212598426
          },
          {
            "duration": 0.3000000000000007,
            "durationTicks": 480,
            "midi": 50,
            "name": "D3",
            "ticks": 27840,
            "time": 17.4,
            "velocity": 0.48031496062992124
          },
          {
            "duration": 0.3000000000000007,
            "durationTicks": 480,
            "midi": 55,
            "name": "G3",
            "ticks": 28320,
            "time": 17.7,
            "velocity": 0.5118110236220472
          },
          {
            "duration": 1.1999999999999993,
            "durationTicks": 1920,
            "midi": 69,
            "name": "A4",
            "ticks": 28800,
            "time": 18,
            "velocity": 0.5275590551181102
          },
          {
            "duration": 1.1999999999999993,
            "durationTicks": 1920,
            "midi": 73,
            "name": "C#5",
            "ticks": 28800,
            "time": 18,
            "velocity": 0.5275590551181102
          },
          {
            "duration": 0.3000000000000007,
            "durationTicks": 480,
            "midi": 45,
            "name": "A2",
            "ticks": 28800,
            "time": 18,
            "velocity": 0.41732283464566927
          },
          {
            "duration": 0.29999999999999716,
            "durationTicks": 480,
            "midi": 49,
            "name": "C#3",
            "ticks": 29280,
            "time": 18.3,
            "velocity": 0.5354330708661418
          },
          {
            "duration": 0.3000000000000007,
            "durationTicks": 480,
            "midi": 52,
            "name": "E3",
            "ticks": 29760,
            "time": 18.599999999999998,
            "velocity": 0.48031496062992124
          },
          {
            "duration": 0.3000000000000007,
            "durationTicks": 480,
            "midi": 57,
            "name": "A3",
            "ticks": 30240,
            "time": 18.9,
            "velocity": 0.5433070866141733
          },
          {
            "duration": 1.1999999999999993,
            "durationTicks": 1920,
            "midi": 74,
            "name": "D5",
            "ticks": 30720,
            "time": 19.2,
            "velocity": 0.5826771653543307
          },
          {
            "duration": 1.1999999999999993,
            "durationTicks": 1920,
            "midi": 78,
            "name": "F#5",
            "ticks": 30720,
            "time": 19.2,
            "velocity": 0.5826771653543307
          },
          {
            "duration": 0.3000000000000007,
            "durationTicks": 480,
            "midi": 50,
            "name": "D3",
            "ticks": 30720,
            "time": 19.2,
            "velocity": 0.44881889763779526
          },
          {
            "duration": 0.3000000000000007,
            "durationTicks": 480,
            "midi": 54,
            "name": "F#3",
            "ticks": 31200,
            "time": 19.5,
            "velocity": 0.5196850393700787
          },
          {
            "duration": 0.5999999999999979,
            "durationTicks": 960,
            "midi": 66,
            "name": "F#4",
            "ticks": 31680,
            "time": 19.8,
            "velocity": 0.5275590551181102
          },
          {
            "duration": 0.29999999999999716,
            "durationTicks": 480,
            "midi": 57,
            "name": "A3",
            "ticks": 31680,
            "time": 19.8,
            "velocity": 0.5118110236220472
          },
          {
            "duration": 0.3000000000000007,
            "durationTicks": 480,
            "midi": 62,
            "name": "D4",
            "ticks": 32160,
            "time": 20.099999999999998,
            "velocity": 0.5669291338582677
          },
          {
            "duration": 1.1999999999999993,
            "durationTicks": 1920,
            "midi": 73,
            "name": "C#5",
            "ticks": 32640,
            "time": 20.4,
            "velocity": 0.4645669291338583
          },
          {
            "duration": 1.1999999999999993,
            "durationTicks": 1920,
            "midi": 76,
            "name": "E5",
            "ticks": 32640,
            "time": 20.4,
            "velocity": 0.4645669291338583
          },
          {
            "duration": 0.6000000000000014,
            "durationTicks": 960,
            "midi": 69,
            "name": "A4",
            "ticks": 32640,
            "time": 20.4,
            "velocity": 0.6377952755905512
          },
          {
            "duration": 0.3000000000000007,
            "durationTicks": 480,
            "midi": 45,
            "name": "A2",
            "ticks": 32640,
            "time": 20.4,
            "velocity": 0.4251968503937008
          },
          {
            "duration": 0.3000000000000007,
            "durationTicks": 480,
            "midi": 49,
            "name": "C#3",
            "ticks": 33120,
            "time": 20.7,
            "velocity": 0.4881889763779528
          },
          {
            "duration": 0.5999999999999979,
            "durationTicks": 960,
            "midi": 67,
            "name": "G4",
            "ticks": 33600,
            "time": 21,
            "velocity": 0.5905511811023622
          },
          {
            "duration": 0.3000000000000007,
            "durationTicks": 480,
            "midi": 52,
            "name": "E3",
            "ticks": 33600,
            "time": 21,
            "velocity": 0.47244094488188976
          },
          {
            "duration": 0.29999999999999716,
            "durationTicks": 480,
            "midi": 57,
            "name": "A3",
            "ticks": 34080,
            "time": 21.3,
            "velocity": 0.4881889763779528
          },
          {
            "duration": 1.2000000000000028,
            "durationTicks": 1920,
            "midi": 71,
            "name": "B4",
            "ticks": 34560,
            "time": 21.599999999999998,
            "velocity": 0.4566929133858268
          },
          {
            "duration": 1.2000000000000028,
            "durationTicks": 1920,
            "midi": 74,
            "name": "D5",
            "ticks": 34560,
            "time": 21.599999999999998,
            "velocity": 0.4566929133858268
          },
          {
            "duration": 0.6000000000000014,
            "durationTicks": 960,
            "midi": 66,
            "name": "F#4",
            "ticks": 34560,
            "time": 21.599999999999998,
            "velocity": 0.5748031496062992
          },
          {
            "duration": 0.3000000000000007,
            "durationTicks": 480,
            "midi": 47,
            "name": "B2",
            "ticks": 34560,
            "time": 21.599999999999998,
            "velocity": 0.4094488188976378
          },
          {
            "duration": 0.3000000000000007,
            "durationTicks": 480,
            "midi": 50,
            "name": "D3",
            "ticks": 35040,
            "time": 21.9,
            "velocity": 0.47244094488188976
          },
          {
            "duration": 0.6000000000000014,
            "durationTicks": 960,
            "midi": 62,
            "name": "D4",
            "ticks": 35520,
            "time": 22.2,
            "velocity": 0.5354330708661418
          },
          {
            "duration": 0.3000000000000007,
            "durationTicks": 480,
            "midi": 54,
            "name": "F#3",
            "ticks": 35520,
            "time": 22.2,
            "velocity": 0.4881889763779528
          },
          {
            "duration": 0.3000000000000007,
            "durationTicks": 480,
            "midi": 59,
            "name": "B3",
            "ticks": 36000,
            "time": 22.5,
            "velocity": 0.5118110236220472
          },
          {
            "duration": 1.1999999999999993,
            "durationTicks": 1920,
            "midi": 69,
            "name": "A4",
            "ticks": 36480,
            "time": 22.8,
            "velocity": 0.4566929133858268
          },
          {
            "duration": 1.1999999999999993,
            "durationTicks": 1920,
            "midi": 73,
            "name": "C#5",
            "ticks": 36480,
            "time": 22.8,
            "velocity": 0.4566929133858268
          },
          {
            "duration": 0.5999999999999979,
            "durationTicks": 960,
            "midi": 66,
            "name": "F#4",
            "ticks": 36480,
            "time": 22.8,
            "velocity": 0.6535433070866141
          },
          {
            "duration": 0.29999999999999716,
            "durationTicks": 480,
            "midi": 42,
            "name": "F#2",
            "ticks": 36480,
            "time": 22.8,
            "velocity": 0.4251968503937008
          },
          {
            "duration": 0.3000000000000007,
            "durationTicks": 480,
            "midi": 45,
            "name": "A2",
            "ticks": 36960,
            "time": 23.099999999999998,
            "velocity": 0.5039370078740157
          },
          {
            "duration": 0.6000000000000014,
            "durationTicks": 960,
            "midi": 64,
            "name": "E4",
            "ticks": 37440,
            "time": 23.4,
            "velocity": 0.5826771653543307
          },
          {
            "duration": 0.3000000000000007,
            "durationTicks": 480,
            "midi": 49,
            "name": "C#3",
            "ticks": 37440,
            "time": 23.4,
            "velocity": 0.4881889763779528
          },
          {
            "duration": 0.3000000000000007,
            "durationTicks": 480,
            "midi": 54,
            "name": "F#3",
            "ticks": 37920,
            "time": 23.7,
            "velocity": 0.49606299212598426
          },
          {
            "duration": 1.1999999999999993,
            "durationTicks": 1920,
            "midi": 67,
            "name": "G4",
            "ticks": 38400,
            "time": 24,
            "velocity": 0.4251968503937008
          },
          {
            "duration": 1.1999999999999993,
            "durationTicks": 1920,
            "midi": 71,
            "name": "B4",
            "ticks": 38400,
            "time": 24,
            "velocity": 0.4251968503937008
          },
          {
            "duration": 0.5999999999999979,
            "durationTicks": 960,
            "midi": 62,
            "name": "D4",
            "ticks": 38400,
            "time": 24,
            "velocity": 0.5590551181102362
          },
          {
            "duration": 0.3000000000000007,
            "durationTicks": 480,
            "midi": 43,
            "name": "G2",
            "ticks": 38400,
            "time": 24,
            "velocity": 0.4330708661417323
          },
          {
            "duration": 0.29999999999999716,
            "durationTicks": 480,
            "midi": 47,
            "name": "B2",
            "ticks": 38880,
            "time": 24.3,
            "velocity": 0.4881889763779528
          },
          {
            "duration": 0.6000000000000014,
            "durationTicks": 960,
            "midi": 59,
            "name": "B3",
            "ticks": 39360,
            "time": 24.599999999999998,
            "velocity": 0.5826771653543307
          },
          {
            "duration": 0.3000000000000007,
            "durationTicks": 480,
            "midi": 50,
            "name": "D3",
            "ticks": 39360,
            "time": 24.599999999999998,
            "velocity": 0.5118110236220472
          },
          {
            "duration": 0.3000000000000007,
            "durationTicks": 480,
            "midi": 55,
            "name": "G3",
            "ticks": 39840,
            "time": 24.9,
            "velocity": 0.5039370078740157
          },
          {
            "duration": 1.1999999999999993,
            "durationTicks": 1920,
            "midi": 66,
            "name": "F#4",
            "ticks": 40320,
            "time": 25.2,
            "velocity": 0.47244094488188976
          },
          {
            "duration": 1.1999999999999993,
            "durationTicks": 1920,
            "midi": 69,
            "name": "A4",
            "ticks": 40320,
            "time": 25.2,
            "velocity": 0.47244094488188976
          },
          {
            "duration": 0.6000000000000014,
            "durationTicks": 960,
            "midi": 62,
            "name": "D4",
            "ticks": 40320,
            "time": 25.2,
            "velocity": 0.6299212598425197
          },
          {
            "duration": 0.3000000000000007,
            "durationTicks": 480,
            "midi": 38,
            "name": "D2",
            "ticks": 40320,
            "time": 25.2,
            "velocity": 0.4094488188976378
          },
          {
            "duration": 0.3000000000000007,
            "durationTicks": 480,
            "midi": 42,
            "name": "F#2",
            "ticks": 40800,
            "time": 25.5,
            "velocity": 0.47244094488188976
          },
          {
            "duration": 0.5999999999999979,
            "durationTicks": 960,
            "midi": 69,
            "name": "A4",
            "ticks": 41280,
            "time": 25.8,
            "velocity": 0.6850393700787402
          },
          {
            "duration": 0.29999999999999716,
            "durationTicks": 480,
            "midi": 45,
            "name": "A2",
            "ticks": 41280,
            "time": 25.8,
            "velocity": 0.49606299212598426
          },
          {
            "duration": 0.3000000000000007,
            "durationTicks": 480,
            "midi": 50,
            "name": "D3",
            "ticks": 41760,
            "time": 26.099999999999998,
            "velocity": 0.5196850393700787
          },
          {
            "duration": 1.1999999999999993,
            "durationTicks": 1920,
            "midi": 67,
            "name": "G4",
            "ticks": 42240,
            "time": 26.4,
            "velocity": 0.49606299212598426
          },
          {
            "duration": 1.1999999999999993,
            "durationTicks": 1920,
            "midi": 71,
            "name": "B4",
            "ticks": 42240,
            "time": 26.4,
            "velocity": 0.49606299212598426
          },
          {
            "duration": 0.3000000000000007,
            "durationTicks": 480,
            "midi": 43,
            "name": "G2",
            "ticks": 42240,
            "time": 26.4,
            "velocity": 0.41732283464566927
          },
          {
            "duration": 0.3000000000000007,
            "durationTicks": 480,
            "midi": 47,
            "name": "B2",
            "ticks": 42720,
            "time": 26.7,
            "velocity": 0.5039370078740157
          },
          {
            "duration": 0.5999999999999979,
            "durationTicks": 960,
            "midi": 59,
            "name": "B3",
            "ticks": 43200,
            "time": 27,
            "velocity": 0.5433070866141733
          },
          {
            "duration": 0.3000000000000007,
            "durationTicks": 480,
            "midi": 50,
            "name": "D3",
            "ticks": 43200,
            "time": 27,
            "velocity": 0.47244094488188976
          },
          {
            "duration": 0.29999999999999716,
            "durationTicks": 480,
            "midi": 55,
            "name": "G3",
            "ticks": 43680,
            "time": 27.3,
            "velocity": 0.5275590551181102
          },
          {
            "duration": 1.1999999999999993,
            "durationTicks": 1920,
            "midi": 69,
            "name": "A4",
            "ticks": 44160,
            "time": 27.599999999999998,
            "velocity": 0.47244094488188976
          },
          {
            "duration": 1.1999999999999993,
            "durationTicks": 1920,
            "midi": 73,
            "name": "C#5",
            "ticks": 44160,
            "time": 27.599999999999998,
            "velocity": 0.47244094488188976
          },
          {
            "duration": 0.3000000000000007,
            "durationTicks": 480,
            "midi": 45,
            "name": "A2",
            "ticks": 44160,
            "time": 27.599999999999998,
            "velocity": 0.41732283464566927
          },
          {
            "duration": 0.3000000000000007,
            "durationTicks": 480,
            "midi": 49,
            "name": "C#3",
            "ticks": 44640,
            "time": 27.9,
            "velocity": 0.4645669291338583
          },
          {
            "duration": 0.5999999999999979,
            "durationTicks": 960,
            "midi": 67,
            "name": "G4",
            "ticks": 45120,
            "time": 28.2,
            "velocity": 0.5826771653543307
          },
          {
            "duration": 0.3000000000000007,
            "durationTicks": 480,
            "midi": 52,
            "name": "E3",
            "ticks": 45120,
            "time": 28.2,
            "velocity": 0.48031496062992124
          },
          {
            "duration": 0.29999999999999716,
            "durationTicks": 480,
            "midi": 57,
            "name": "A3",
            "ticks": 45600,
            "time": 28.5,
            "velocity": 0.4881889763779528
          },
          {
            "duration": 0.3000000000000007,
            "durationTicks": 480,
            "midi": 74,
            "name": "D5",
            "ticks": 46080,
            "time": 28.799999999999997,
            "velocity": 0.49606299212598426
          },
          {
            "duration": 1.2000000000000028,
            "durationTicks": 1920,
            "midi": 66,
            "name": "F#4",
            "ticks": 46080,
            "time": 28.799999999999997,
            "velocity": 0.5511811023622047
          },
          {
            "duration": 0.3000000000000007,
            "durationTicks": 480,
            "midi": 50,
            "name": "D3",
            "ticks": 46080,
            "time": 28.799999999999997,
            "velocity": 0.4645669291338583
          },
          {
            "duration": 0.3000000000000007,
            "durationTicks": 480,
            "midi": 73,
            "name": "C#5",
            "ticks": 46560,
            "time": 29.099999999999998,
            "velocity": 0.48031496062992124
          },
          {
            "duration": 0.3000000000000007,
            "durationTicks": 480,
            "midi": 54,
            "name": "F#3",
            "ticks": 46560,
            "time": 29.099999999999998,
            "velocity": 0.5118110236220472
          },
          {
            "duration": 0.3000000000000007,
            "durationTicks": 480,
            "midi": 74,
            "name": "D5",
            "ticks": 47040,
            "time": 29.4,
            "velocity": 0.5118110236220472
          },
          {
            "duration": 0.3000000000000007,
            "durationTicks": 480,
            "midi": 57,
            "name": "A3",
            "ticks": 47040,
            "time": 29.4,
            "velocity": 0.49606299212598426
          },
          {
            "duration": 0.3000000000000007,
            "durationTicks": 480,
            "midi": 66,
            "name": "F#4",
            "ticks": 47520,
            "time": 29.7,
            "velocity": 0.4094488188976378
          },
          {
            "duration": 0.3000000000000007,
            "durationTicks": 480,
            "midi": 62,
            "name": "D4",
            "ticks": 47520,
            "time": 29.7,
            "velocity": 0.5039370078740157
          },
          {
            "duration": 0.5999999999999979,
            "durationTicks": 960,
            "midi": 69,
            "name": "A4",
            "ticks": 48000,
            "time": 30,
            "velocity": 0.48031496062992124
          },
          {
            "duration": 1.1999999999999993,
            "durationTicks": 1920,
            "midi": 64,
            "name": "E4",
            "ticks": 48000,
            "time": 30,
            "velocity": 0.5590551181102362
          },
          {
            "duration": 0.29999999999999716,
            "durationTicks": 480,
            "midi": 45,
            "name": "A2",
            "ticks": 48000,
            "time": 30,
            "velocity": 0.4330708661417323
          },
          {
            "duration": 0.3000000000000007,
            "durationTicks": 480,
            "midi": 49,
            "name": "C#3",
            "ticks": 48480,
            "time": 30.299999999999997,
            "velocity": 0.5433070866141733
          },
          {
            "duration": 0.6000000000000014,
            "durationTicks": 960,
            "midi": 73,
            "name": "C#5",
            "ticks": 48960,
            "time": 30.599999999999998,
            "velocity": 0.5590551181102362
          },
          {
            "duration": 0.3000000000000007,
            "durationTicks": 480,
            "midi": 52,
            "name": "E3",
            "ticks": 48960,
            "time": 30.599999999999998,
            "velocity": 0.49606299212598426
          },
          {
            "duration": 0.3000000000000007,
            "durationTicks": 480,
            "midi": 57,
            "name": "A3",
            "ticks": 49440,
            "time": 30.9,
            "velocity": 0.5275590551181102
          },
          {
            "duration": 0.5999999999999979,
            "durationTicks": 960,
            "midi": 74,
            "name": "D5",
            "ticks": 49920,
            "time": 31.2,
            "velocity": 0.5118110236220472
          },
          {
            "duration": 1.1999999999999993,
            "durationTicks": 1920,
            "midi": 62,
            "name": "D4",
            "ticks": 49920,
            "time": 31.2,
            "velocity": 0.5748031496062992
          },
          {
            "duration": 0.3000000000000007,
            "durationTicks": 480,
            "midi": 47,
            "name": "B2",
            "ticks": 49920,
            "time": 31.2,
            "velocity": 0.4409448818897638
          },
          {
            "duration": 0.29999999999999716,
            "durationTicks": 480,
            "midi": 50,
            "name": "D3",
            "ticks": 50400,
            "time": 31.5,
            "velocity": 0.48031496062992124
          },
          {
            "duration": 0.6000000000000014,
            "durationTicks": 960,
            "midi": 78,
            "name": "F#5",
            "ticks": 50880,
            "time": 31.799999999999997,
            "velocity": 0.5433070866141733
          },
          {
            "duration": 0.30000000000000426,
            "durationTicks": 480,
            "midi": 54,
            "name": "F#3",
            "ticks": 50880,
            "time": 31.799999999999997,
            "velocity": 0.5196850393700787
          },
          {
            "duration": 0.29999999999999716,
            "durationTicks": 480,
            "midi": 59,
            "name": "B3",
            "ticks": 51360,
            "time": 32.1,
            "velocity": 0.5118110236220472
          },
          {
            "duration": 0.8999999999999986,
            "durationTicks": 1440,
            "midi": 81,
            "name": "A5",
            "ticks": 51840,
            "time": 32.4,
            "velocity": 0.5196850393700787
          },
          {
            "duration": 0.6000000000000014,
            "durationTicks": 960,
            "midi": 66,
            "name": "F#4",
            "ticks": 51840,
            "time": 32.4,
            "velocity": 0.7401574803149606
          },
          {
            "duration": 0.6000000000000014,
            "durationTicks": 960,
            "midi": 73,
            "name": "C#5",
            "ticks": 51840,
            "time": 32.4,
            "velocity": 0.7401574803149606
          },
          {
            "duration": 0.29999999999999716,
            "durationTicks": 480,
            "midi": 42,
            "name": "F#2",
            "ticks": 51840,
            "time": 32.4,
            "velocity": 0.4094488188976378
          },
          {
            "duration": 0.30000000000000426,
            "durationTicks": 480,
            "midi": 45,
            "name": "A2",
            "ticks": 52320,
            "time": 32.699999999999996,
            "velocity": 0.48031496062992124
          },
          {
            "duration": 0.6000000000000014,
            "durationTicks": 960,
            "midi": 76,
            "name": "E5",
            "ticks": 52800,
            "time": 33,
            "velocity": 0.6850393700787402
          },
          {
            "duration": 0.29999999999999716,
            "durationTicks": 480,
            "midi": 49,
            "name": "C#3",
            "ticks": 52800,
            "time": 33,
            "velocity": 0.5118110236220472
          },
          {
            "duration": 0.30000000000000426,
            "durationTicks": 480,
            "midi": 83,
            "name": "B5",
            "ticks": 53280,
            "time": 33.3,
            "velocity": 0.5039370078740157
          },
          {
            "duration": 0.30000000000000426,
            "durationTicks": 480,
            "midi": 54,
            "name": "F#3",
            "ticks": 53280,
            "time": 33.3,
            "velocity": 0.5511811023622047
          },
          {
            "duration": 0.29999999999999716,
            "durationTicks": 480,
            "midi": 79,
            "name": "G5",
            "ticks": 53760,
            "time": 33.6,
            "velocity": 0.4094488188976378
          },
          {
            "duration": 1.1999999999999957,
            "durationTicks": 1920,
            "midi": 71,
            "name": "B4",
            "ticks": 53760,
            "time": 33.6,
            "velocity": 0.5748031496062992
          },
          {
            "duration": 0.29999999999999716,
            "durationTicks": 480,
            "midi": 43,
            "name": "G2",
            "ticks": 53760,
            "time": 33.6,
            "velocity": 0.4566929133858268
          },
          {
            "duration": 0.29999999999999716,
            "durationTicks": 480,
            "midi": 78,
            "name": "F#5",
            "ticks": 54240,
            "time": 33.9,
            "velocity": 0.47244094488188976
          },
          {
            "duration": 0.29999999999999716,
            "durationTicks": 480,
            "midi": 47,
            "name": "B2",
            "ticks": 54240,
            "time": 33.9,
            "velocity": 0.48031496062992124
          },
          {
            "duration": 0.30000000000000426,
            "durationTicks": 480,
            "midi": 76,
            "name": "E5",
            "ticks": 54720,
            "time": 34.199999999999996,
            "velocity": 0.47244094488188976
          },
          {
            "duration": 0.30000000000000426,
            "durationTicks": 480,
            "midi": 50,
            "name": "D3",
            "ticks": 54720,
            "time": 34.199999999999996,
            "velocity": 0.5039370078740157
          },
          {
            "duration": 0.29999999999999716,
            "durationTicks": 480,
            "midi": 79,
            "name": "G5",
            "ticks": 55200,
            "time": 34.5,
            "velocity": 0.49606299212598426
          },
          {
            "duration": 0.29999999999999716,
            "durationTicks": 480,
            "midi": 55,
            "name": "G3",
            "ticks": 55200,
            "time": 34.5,
            "velocity": 0.5354330708661418
          },
          {
            "duration": 0.30000000000000426,
            "durationTicks": 480,
            "midi": 78,
            "name": "F#5",
            "ticks": 55680,
            "time": 34.8,
            "velocity": 0.4645669291338583
          },
          {
            "duration": 1.2000000000000028,
            "durationTicks": 1920,
            "midi": 69,
            "name": "A4",
            "ticks": 55680,
            "time": 34.8,
            "velocity": 0.5590551181102362
          },
          {
            "duration": 0.30000000000000426,
            "durationTicks": 480,
            "midi": 38,
            "name": "D2",
            "ticks": 55680,
            "time": 34.8,
            "velocity": 0.4015748031496063
          },
          {
            "duration": 0.29999999999999716,
            "durationTicks": 480,
            "midi": 76,
            "name": "E5",
            "ticks": 56160,
            "time": 35.1,
            "velocity": 0.47244094488188976
          },
          {
            "duration": 0.29999999999999716,
            "durationTicks": 480,
            "midi": 42,
            "name": "F#2",
            "ticks": 56160,
            "time": 35.1,
            "velocity": 0.48031496062992124
          },
          {
            "duration": 0.29999999999999716,
            "durationTicks": 480,
            "midi": 74,
            "name": "D5",
            "ticks": 56640,
            "time": 35.4,
            "velocity": 0.4645669291338583
          },
          {
            "duration": 0.29999999999999716,
            "durationTicks": 480,
            "midi": 45,
            "name": "A2",
            "ticks": 56640,
            "time": 35.4,
            "velocity": 0.5118110236220472
          },
          {
            "duration": 0.30000000000000426,
            "durationTicks": 480,
            "midi": 73,
            "name": "C#5",
            "ticks": 57120,
            "time": 35.699999999999996,
            "velocity": 0.4330708661417323
          },
          {
            "duration": 0.30000000000000426,
            "durationTicks": 480,
            "midi": 50,
            "name": "D3",
            "ticks": 57120,
            "time": 35.699999999999996,
            "velocity": 0.49606299212598426
          },
          {
            "duration": 0.29999999999999716,
            "durationTicks": 480,
            "midi": 71,
            "name": "B4",
            "ticks": 57600,
            "time": 36,
            "velocity": 0.4409448818897638
          },
          {
            "duration": 1.1999999999999957,
            "durationTicks": 1920,
            "midi": 59,
            "name": "B3",
            "ticks": 57600,
            "time": 36,
            "velocity": 0.5433070866141733
          },
          {
            "duration": 0.29999999999999716,
            "durationTicks": 480,
            "midi": 43,
            "name": "G2",
            "ticks": 57600,
            "time": 36,
            "velocity": 0.4251968503937008
          },
          {
            "duration": 0.30000000000000426,
            "durationTicks": 480,
            "midi": 69,
            "name": "A4",
            "ticks": 58080,
            "time": 36.3,
            "velocity": 0.4645669291338583
          },
          {
            "duration": 0.30000000000000426,
            "durationTicks": 480,
            "midi": 47,
            "name": "B2",
            "ticks": 58080,
            "time": 36.3,
            "velocity": 0.48031496062992124
          },
          {
            "duration": 0.29999999999999716,
            "durationTicks": 480,
            "midi": 67,
            "name": "G4",
            "ticks": 58560,
            "time": 36.6,
            "velocity": 0.44881889763779526
          },
          {
            "duration": 0.29999999999999716,
            "durationTicks": 480,
            "midi": 50,
            "name": "D3",
            "ticks": 58560,
            "time": 36.6,
            "velocity": 0.4645669291338583
          },
          {
            "duration": 0.29999999999999716,
            "durationTicks": 480,
            "midi": 66,
            "name": "F#4",
            "ticks": 59040,
            "time": 36.9,
            "velocity": 0.4645669291338583
          },
          {
            "duration": 0.29999999999999716,
            "durationTicks": 480,
            "midi": 55,
            "name": "G3",
            "ticks": 59040,
            "time": 36.9,
            "velocity": 0.5275590551181102
          },
          {
            "duration": 0.6000000000000014,
            "durationTicks": 960,
            "midi": 64,
            "name": "E4",
            "ticks": 59520,
            "time": 37.199999999999996,
            "velocity": 0.4251968503937008
          },
          {
            "duration": 1.2000000000000028,
            "durationTicks": 1920,
            "midi": 61,
            "name": "C#4",
            "ticks": 59520,
            "time": 37.199999999999996,
            "velocity": 0.6299212598425197
          },
          {
            "duration": 0.30000000000000426,
            "durationTicks": 480,
            "midi": 45,
            "name": "A2",
            "ticks": 59520,
            "time": 37.199999999999996,
            "velocity": 0.44881889763779526
          },
          {
            "duration": 0.29999999999999716,
            "durationTicks": 480,
            "midi": 49,
            "name": "C#3",
            "ticks": 60000,
            "time": 37.5,
            "velocity": 0.49606299212598426
          },
          {
            "duration": 0.6000000000000014,
            "durationTicks": 960,
            "midi": 73,
            "name": "C#5",
            "ticks": 60480,
            "time": 37.8,
            "velocity": 0.5905511811023622
          },
          {
            "duration": 0.30000000000000426,
            "durationTicks": 480,
            "midi": 52,
            "name": "E3",
            "ticks": 60480,
            "time": 37.8,
            "velocity": 0.4881889763779528
          },
          {
            "duration": 0.29999999999999716,
            "durationTicks": 480,
            "midi": 57,
            "name": "A3",
            "ticks": 60960,
            "time": 38.1,
            "velocity": 0.5118110236220472
          },
          {
            "duration": 0.29999999999999716,
            "durationTicks": 480,
            "midi": 74,
            "name": "D5",
            "ticks": 61440,
            "time": 38.4,
            "velocity": 0.5196850393700787
          },
          {
            "duration": 1.2000000000000028,
            "durationTicks": 1920,
            "midi": 66,
            "name": "F#4",
            "ticks": 61440,
            "time": 38.4,
            "velocity": 0.6771653543307087
          },
          {
            "duration": 0.29999999999999716,
            "durationTicks": 480,
            "midi": 62,
            "name": "D4",
            "ticks": 61440,
            "time": 38.4,
            "velocity": 0.5511811023622047
          },
          {
            "duration": 0.30000000000000426,
            "durationTicks": 480,
            "midi": 73,
            "name": "C#5",
            "ticks": 61920,
            "time": 38.699999999999996,
            "velocity": 0.4409448818897638
          },
          {
            "duration": 0.30000000000000426,
            "durationTicks": 480,
            "midi": 54,
            "name": "F#3",
            "ticks": 61920,
            "time": 38.699999999999996,
            "velocity": 0.47244094488188976
          },
          {
            "duration": 0.29999999999999716,
            "durationTicks": 480,
            "midi": 74,
            "name": "D5",
            "ticks": 62400,
            "time": 39,
            "velocity": 0.4881889763779528
          },
          {
            "duration": 0.29999999999999716,
            "durationTicks": 480,
            "midi": 57,
            "name": "A3",
            "ticks": 62400,
            "time": 39,
            "velocity": 0.5196850393700787
          },
          {
            "duration": 0.30000000000000426,
            "durationTicks": 480,
            "midi": 66,
            "name": "F#4",
            "ticks": 62880,
            "time": 39.3,
            "velocity": 0.3779527559055118
          },
          {
            "duration": 0.30000000000000426,
            "durationTicks": 480,
            "midi": 62,
            "name": "D4",
            "ticks": 62880,
            "time": 39.3,
            "velocity": 0.5433070866141733
          },
          {
            "duration": 0.5999999999999943,
            "durationTicks": 960,
            "midi": 69,
            "name": "A4",
            "ticks": 63360,
            "time": 39.6,
            "velocity": 0.5354330708661418
          },
          {
            "duration": 1.1999999999999957,
            "durationTicks": 1920,
            "midi": 64,
            "name": "E4",
            "ticks": 63360,
            "time": 39.6,
            "velocity": 0.5826771653543307
          },
          {
            "duration": 0.29999999999999716,
            "durationTicks": 480,
            "midi": 57,
            "name": "A3",
            "ticks": 63360,
            "time": 39.6,
            "velocity": 0.4645669291338583
          },
          {
            "duration": 0.29999999999999716,
            "durationTicks": 480,
            "midi": 49,
            "name": "C#3",
            "ticks": 63840,
            "time": 39.9,
            "velocity": 0.4330708661417323
          },
          {
            "duration": 0.6000000000000014,
            "durationTicks": 960,
            "midi": 73,
            "name": "C#5",
            "ticks": 64320,
            "time": 40.199999999999996,
            "velocity": 0.5275590551181102
          },
          {
            "duration": 0.30000000000000426,
            "durationTicks": 480,
            "midi": 52,
            "name": "E3",
            "ticks": 64320,
            "time": 40.199999999999996,
            "velocity": 0.4881889763779528
          },
          {
            "duration": 0.29999999999999716,
            "durationTicks": 480,
            "midi": 57,
            "name": "A3",
            "ticks": 64800,
            "time": 40.5,
            "velocity": 0.49606299212598426
          },
          {
            "duration": 0.6000000000000014,
            "durationTicks": 960,
            "midi": 74,
            "name": "D5",
            "ticks": 65280,
            "time": 40.8,
            "velocity": 0.5196850393700787
          },
          {
            "duration": 1.2000000000000028,
            "durationTicks": 1920,
            "midi": 62,
            "name": "D4",
            "ticks": 65280,
            "time": 40.8,
            "velocity": 0.5826771653543307
          },
          {
            "duration": 0.30000000000000426,
            "durationTicks": 480,
            "midi": 59,
            "name": "B3",
            "ticks": 65280,
            "time": 40.8,
            "velocity": 0.48031496062992124
          },
          {
            "duration": 0.29999999999999716,
            "durationTicks": 480,
            "midi": 50,
            "name": "D3",
            "ticks": 65760,
            "time": 41.1,
            "velocity": 0.41732283464566927
          },
          {
            "duration": 0.6000000000000014,
            "durationTicks": 960,
            "midi": 78,
            "name": "F#5",
            "ticks": 66240,
            "time": 41.4,
            "velocity": 0.5275590551181102
          },
          {
            "duration": 0.29999999999999716,
            "durationTicks": 480,
            "midi": 54,
            "name": "F#3",
            "ticks": 66240,
            "time": 41.4,
            "velocity": 0.47244094488188976
          },
          {
            "duration": 0.30000000000000426,
            "durationTicks": 480,
            "midi": 59,
            "name": "B3",
            "ticks": 66720,
            "time": 41.699999999999996,
            "velocity": 0.5511811023622047
          },
          {
            "duration": 0.8999999999999986,
            "durationTicks": 1440,
            "midi": 81,
            "name": "A5",
            "ticks": 67200,
            "time": 42,
            "velocity": 0.5433070866141733
          },
          {
            "duration": 0.6000000000000014,
            "durationTicks": 960,
            "midi": 66,
            "name": "F#4",
            "ticks": 67200,
            "time": 42,
            "velocity": 0.7637795275590551
          },
          {
            "duration": 0.6000000000000014,
            "durationTicks": 960,
            "midi": 73,
            "name": "C#5",
            "ticks": 67200,
            "time": 42,
            "velocity": 0.7637795275590551
          },
          {
            "duration": 0.29999999999999716,
            "durationTicks": 480,
            "midi": 54,
            "name": "F#3",
            "ticks": 67200,
            "time": 42,
            "velocity": 0.4881889763779528
          },
          {
            "duration": 0.30000000000000426,
            "durationTicks": 480,
            "midi": 45,
            "name": "A2",
            "ticks": 67680,
            "time": 42.3,
            "velocity": 0.4566929133858268
          },
          {
            "duration": 0.5999999999999943,
            "durationTicks": 960,
            "midi": 76,
            "name": "E5",
            "ticks": 68160,
            "time": 42.6,
            "velocity": 0.7007874015748031
          },
          {
            "duration": 0.29999999999999716,
            "durationTicks": 480,
            "midi": 49,
            "name": "C#3",
            "ticks": 68160,
            "time": 42.6,
            "velocity": 0.47244094488188976
          },
          {
            "duration": 0.29999999999999716,
            "durationTicks": 480,
            "midi": 83,
            "name": "B5",
            "ticks": 68640,
            "time": 42.9,
            "velocity": 0.5196850393700787
          },
          {
            "duration": 0.29999999999999716,
            "durationTicks": 480,
            "midi": 54,
            "name": "F#3",
            "ticks": 68640,
            "time": 42.9,
            "velocity": 0.5196850393700787
          },
          {
            "duration": 0.30000000000000426,
            "durationTicks": 480,
            "midi": 79,
            "name": "G5",
            "ticks": 69120,
            "time": 43.199999999999996,
            "velocity": 0.4330708661417323
          },
          {
            "duration": 1.2000000000000028,
            "durationTicks": 1920,
            "midi": 71,
            "name": "B4",
            "ticks": 69120,
            "time": 43.199999999999996,
            "velocity": 0.5354330708661418
          },
          {
            "duration": 0.30000000000000426,
            "durationTicks": 480,
            "midi": 55,
            "name": "G3",
            "ticks": 69120,
            "time": 43.199999999999996,
            "velocity": 0.5511811023622047
          },
          {
            "duration": 0.29999999999999716,
            "durationTicks": 480,
            "midi": 78,
            "name": "F#5",
            "ticks": 69600,
            "time": 43.5,
            "velocity": 0.41732283464566927
          },
          {
            "duration": 0.29999999999999716,
            "durationTicks": 480,
            "midi": 47,
            "name": "B2",
            "ticks": 69600,
            "time": 43.5,
            "velocity": 0.4645669291338583
          },
          {
            "duration": 0.30000000000000426,
            "durationTicks": 480,
            "midi": 76,
            "name": "E5",
            "ticks": 70080,
            "time": 43.8,
            "velocity": 0.47244094488188976
          },
          {
            "duration": 0.30000000000000426,
            "durationTicks": 480,
            "midi": 50,
            "name": "D3",
            "ticks": 70080,
            "time": 43.8,
            "velocity": 0.49606299212598426
          },
          {
            "duration": 0.29999999999999716,
            "durationTicks": 480,
            "midi": 79,
            "name": "G5",
            "ticks": 70560,
            "time": 44.1,
            "velocity": 0.5275590551181102
          },
          {
            "duration": 0.29999999999999716,
            "durationTicks": 480,
            "midi": 55,
            "name": "G3",
            "ticks": 70560,
            "time": 44.1,
            "velocity": 0.4881889763779528
          },
          {
            "duration": 0.29999999999999716,
            "durationTicks": 480,
            "midi": 78,
            "name": "F#5",
            "ticks": 71040,
            "time": 44.4,
            "velocity": 0.4881889763779528
          },
          {
            "duration": 1.2000000000000028,
            "durationTicks": 1920,
            "midi": 69,
            "name": "A4",
            "ticks": 71040,
            "time": 44.4,
            "velocity": 0.5196850393700787
          },
          {
            "duration": 0.29999999999999716,
            "durationTicks": 480,
            "midi": 50,
            "name": "D3",
            "ticks": 71040,
            "time": 44.4,
            "velocity": 0.4566929133858268
          },
          {
            "duration": 0.30000000000000426,
            "durationTicks": 480,
            "midi": 76,
            "name": "E5",
            "ticks": 71520,
            "time": 44.699999999999996,
            "velocity": 0.4645669291338583
          },
          {
            "duration": 0.30000000000000426,
            "durationTicks": 480,
            "midi": 42,
            "name": "F#2",
            "ticks": 71520,
            "time": 44.699999999999996,
            "velocity": 0.4330708661417323
          },
          {
            "duration": 0.29999999999999716,
            "durationTicks": 480,
            "midi": 74,
            "name": "D5",
            "ticks": 72000,
            "time": 45,
            "velocity": 0.4409448818897638
          },
          {
            "duration": 0.29999999999999716,
            "durationTicks": 480,
            "midi": 45,
            "name": "A2",
            "ticks": 72000,
            "time": 45,
            "velocity": 0.48031496062992124
          },
          {
            "duration": 0.30000000000000426,
            "durationTicks": 480,
            "midi": 73,
            "name": "C#5",
            "ticks": 72480,
            "time": 45.3,
            "velocity": 0.4645669291338583
          },
          {
            "duration": 0.30000000000000426,
            "durationTicks": 480,
            "midi": 50,
            "name": "D3",
            "ticks": 72480,
            "time": 45.3,
            "velocity": 0.5039370078740157
          },
          {
            "duration": 0.29999999999999716,
            "durationTicks": 480,
            "midi": 71,
            "name": "B4",
            "ticks": 72960,
            "time": 45.6,
            "velocity": 0.4566929133858268
          },
          {
            "duration": 1.1999999999999957,
            "durationTicks": 1920,
            "midi": 59,
            "name": "B3",
            "ticks": 72960,
            "time": 45.6,
            "velocity": 0.5669291338582677
          },
          {
            "duration": 0.29999999999999716,
            "durationTicks": 480,
            "midi": 55,
            "name": "G3",
            "ticks": 72960,
            "time": 45.6,
            "velocity": 0.5039370078740157
          },
          {
            "duration": 0.29999999999999716,
            "durationTicks": 480,
            "midi": 69,
            "name": "A4",
            "ticks": 73440,
            "time": 45.9,
            "velocity": 0.4330708661417323
          },
          {
            "duration": 0.29999999999999716,
            "durationTicks": 480,
            "midi": 47,
            "name": "B2",
            "ticks": 73440,
            "time": 45.9,
            "velocity": 0.4409448818897638
          },
          {
            "duration": 0.30000000000000426,
            "durationTicks": 480,
            "midi": 67,
            "name": "G4",
            "ticks": 73920,
            "time": 46.199999999999996,
            "velocity": 0.44881889763779526
          },
          {
            "duration": 0.30000000000000426,
            "durationTicks": 480,
            "midi": 50,
            "name": "D3",
            "ticks": 73920,
            "time": 46.199999999999996,
            "velocity": 0.5196850393700787
          },
          {
            "duration": 0.29999999999999716,
            "durationTicks": 480,
            "midi": 66,
            "name": "F#4",
            "ticks": 74400,
            "time": 46.5,
            "velocity": 0.47244094488188976
          },
          {
            "duration": 0.29999999999999716,
            "durationTicks": 480,
            "midi": 55,
            "name": "G3",
            "ticks": 74400,
            "time": 46.5,
            "velocity": 0.49606299212598426
          },
          {
            "duration": 0.6000000000000014,
            "durationTicks": 960,
            "midi": 64,
            "name": "E4",
            "ticks": 74880,
            "time": 46.8,
            "velocity": 0.4015748031496063
          },
          {
            "duration": 1.2000000000000028,
            "durationTicks": 1920,
            "midi": 61,
            "name": "C#4",
            "ticks": 74880,
            "time": 46.8,
            "velocity": 0.6141732283464567
          },
          {
            "duration": 0.30000000000000426,
            "durationTicks": 480,
            "midi": 57,
            "name": "A3",
            "ticks": 74880,
            "time": 46.8,
            "velocity": 0.5039370078740157
          },
          {
            "duration": 0.29999999999999716,
            "durationTicks": 480,
            "midi": 49,
            "name": "C#3",
            "ticks": 75360,
            "time": 47.1,
            "velocity": 0.4409448818897638
          },
          {
            "duration": 0.6000000000000014,
            "durationTicks": 960,
            "midi": 73,
            "name": "C#5",
            "ticks": 75840,
            "time": 47.4,
            "velocity": 0.5590551181102362
          },
          {
            "duration": 0.29999999999999716,
            "durationTicks": 480,
            "midi": 52,
            "name": "E3",
            "ticks": 75840,
            "time": 47.4,
            "velocity": 0.4881889763779528
          },
          {
            "duration": 0.30000000000000426,
            "durationTicks": 480,
            "midi": 57,
            "name": "A3",
            "ticks": 76320,
            "time": 47.699999999999996,
            "velocity": 0.5590551181102362
          },
          {
            "duration": 0.6000000000000014,
            "durationTicks": 960,
            "midi": 74,
            "name": "D5",
            "ticks": 76800,
            "time": 48,
            "velocity": 0.5039370078740157
          },
          {
            "duration": 0.29999999999999716,
            "durationTicks": 480,
            "midi": 50,
            "name": "D3",
            "ticks": 76800,
            "time": 48,
            "velocity": 0.4409448818897638
          },
          {
            "duration": 0.14999999999999858,
            "durationTicks": 240,
            "midi": 78,
            "name": "F#5",
            "ticks": 77280,
            "time": 48.3,
            "velocity": 0.5669291338582677
          },
          {
            "duration": 0.30000000000000426,
            "durationTicks": 480,
            "midi": 54,
            "name": "F#3",
            "ticks": 77280,
            "time": 48.3,
            "velocity": 0.5669291338582677
          },
          {
            "duration": 0.15000000000000568,
            "durationTicks": 240,
            "midi": 79,
            "name": "G5",
            "ticks": 77520,
            "time": 48.449999999999996,
            "velocity": 0.4566929133858268
          },
          {
            "duration": 0.29999999999999716,
            "durationTicks": 480,
            "midi": 81,
            "name": "A5",
            "ticks": 77760,
            "time": 48.6,
            "velocity": 0.48031496062992124
          },
          {
            "duration": 0.5999999999999943,
            "durationTicks": 960,
            "midi": 74,
            "name": "D5",
            "ticks": 77760,
            "time": 48.6,
            "velocity": 0.5984251968503937
          },
          {
            "duration": 0.29999999999999716,
            "durationTicks": 480,
            "midi": 57,
            "name": "A3",
            "ticks": 77760,
            "time": 48.6,
            "velocity": 0.5039370078740157
          },
          {
            "duration": 0.14999999999999858,
            "durationTicks": 240,
            "midi": 78,
            "name": "F#5",
            "ticks": 78240,
            "time": 48.9,
            "velocity": 0.4645669291338583
          },
          {
            "duration": 0.29999999999999716,
            "durationTicks": 480,
            "midi": 62,
            "name": "D4",
            "ticks": 78240,
            "time": 48.9,
            "velocity": 0.5669291338582677
          },
          {
            "duration": 0.14999999999999858,
            "durationTicks": 240,
            "midi": 79,
            "name": "G5",
            "ticks": 78480,
            "time": 49.05,
            "velocity": 0.5118110236220472
          },
          {
            "duration": 0.15000000000000568,
            "durationTicks": 240,
            "midi": 81,
            "name": "A5",
            "ticks": 78720,
            "time": 49.199999999999996,
            "velocity": 0.5196850393700787
          },
          {
            "duration": 0.6000000000000014,
            "durationTicks": 960,
            "midi": 73,
            "name": "C#5",
            "ticks": 78720,
            "time": 49.199999999999996,
            "velocity": 0.5826771653543307
          },
          {
            "duration": 0.30000000000000426,
            "durationTicks": 480,
            "midi": 45,
            "name": "A2",
            "ticks": 78720,
            "time": 49.199999999999996,
            "velocity": 0.3937007874015748
          },
          {
            "duration": 0.14999999999999858,
            "durationTicks": 240,
            "midi": 69,
            "name": "A4",
            "ticks": 78960,
            "time": 49.35,
            "velocity": 0.3543307086614173
          },
          {
            "duration": 0.14999999999999858,
            "durationTicks": 240,
            "midi": 71,
            "name": "B4",
            "ticks": 79200,
            "time": 49.5,
            "velocity": 0.47244094488188976
          },
          {
            "duration": 0.29999999999999716,
            "durationTicks": 480,
            "midi": 49,
            "name": "C#3",
            "ticks": 79200,
            "time": 49.5,
            "velocity": 0.5118110236220472
          },
          {
            "duration": 0.75,
            "durationTicks": 1200,
            "midi": 73,
            "name": "C#5",
            "ticks": 79440,
            "time": 49.65,
            "velocity": 0.5118110236220472
          },
          {
            "duration": 0.14999999999999858,
            "durationTicks": 240,
            "midi": 74,
            "name": "D5",
            "ticks": 79680,
            "time": 49.8,
            "velocity": 0.5039370078740157
          },
          {
            "duration": 0.30000000000000426,
            "durationTicks": 480,
            "midi": 52,
            "name": "E3",
            "ticks": 79680,
            "time": 49.8,
            "velocity": 0.5039370078740157
          },
          {
            "duration": 0.15000000000000568,
            "durationTicks": 240,
            "midi": 76,
            "name": "E5",
            "ticks": 79920,
            "time": 49.949999999999996,
            "velocity": 0.48031496062992124
          },
          {
            "duration": 0.14999999999999858,
            "durationTicks": 240,
            "midi": 78,
            "name": "F#5",
            "ticks": 80160,
            "time": 50.1,
            "velocity": 0.49606299212598426
          },
          {
            "duration": 0.29999999999999716,
            "durationTicks": 480,
            "midi": 57,
            "name": "A3",
            "ticks": 80160,
            "time": 50.1,
            "velocity": 0.5196850393700787
          },
          {
            "duration": 0.14999999999999858,
            "durationTicks": 240,
            "midi": 79,
            "name": "G5",
            "ticks": 80400,
            "time": 50.25,
            "velocity": 0.5354330708661418
          },
          {
            "duration": 0.29999999999999716,
            "durationTicks": 480,
            "midi": 78,
            "name": "F#5",
            "ticks": 80640,
            "time": 50.4,
            "velocity": 0.4409448818897638
          },
          {
            "duration": 0.6000000000000014,
            "durationTicks": 960,
            "midi": 71,
            "name": "B4",
            "ticks": 80640,
            "time": 50.4,
            "velocity": 0.5748031496062992
          },
          {
            "duration": 0.29999999999999716,
            "durationTicks": 480,
            "midi": 47,
            "name": "B2",
            "ticks": 80640,
            "time": 50.4,
            "velocity": 0.4094488188976378
          },
          {
            "duration": 0.15000000000000568,
            "durationTicks": 240,
            "midi": 74,
            "name": "D5",
            "ticks": 81120,
            "time": 50.699999999999996,
            "velocity": 0.4251968503937008
          },
          {
            "duration": 0.30000000000000426,
            "durationTicks": 480,
            "midi": 50,
            "name": "D3",
            "ticks": 81120,
            "time": 50.699999999999996,
            "velocity": 0.4881889763779528
          },
          {
            "duration": 0.14999999999999858,
            "durationTicks": 240,
            "midi": 76,
            "name": "E5",
            "ticks": 81360,
            "time": 50.85,
            "velocity": 0.49606299212598426
          },
          {
            "duration": 0.29999999999999716,
            "durationTicks": 480,
            "midi": 78,
            "name": "F#5",
            "ticks": 81600,
            "time": 51,
            "velocity": 0.5196850393700787
          },
          {
            "duration": 0.6000000000000014,
            "durationTicks": 960,
            "midi": 71,
            "name": "B4",
            "ticks": 81600,
            "time": 51,
            "velocity": 0.5905511811023622
          },
          {
            "duration": 0.29999999999999716,
            "durationTicks": 480,
            "midi": 54,
            "name": "F#3",
            "ticks": 81600,
            "time": 51,
            "velocity": 0.48031496062992124
          },
          {
            "duration": 0.14999999999999858,
            "durationTicks": 240,
            "midi": 66,
            "name": "F#4",
            "ticks": 82080,
            "time": 51.3,
            "velocity": 0.36220472440944884
          },
          {
            "duration": 0.30000000000000426,
            "durationTicks": 480,
            "midi": 59,
            "name": "B3",
            "ticks": 82080,
            "time": 51.3,
            "velocity": 0.5275590551181102
          },
          {
            "duration": 0.15000000000000568,
            "durationTicks": 240,
            "midi": 67,
            "name": "G4",
            "ticks": 82320,
            "time": 51.449999999999996,
            "velocity": 0.4251968503937008
          },
          {
            "duration": 0.14999999999999858,
            "durationTicks": 240,
            "midi": 69,
            "name": "A4",
            "ticks": 82560,
            "time": 51.6,
            "velocity": 0.5196850393700787
          },
          {
            "duration": 1.1999999999999957,
            "durationTicks": 1920,
            "midi": 61,
            "name": "C#4",
            "ticks": 82560,
            "time": 51.6,
            "velocity": 0.4330708661417323
          },
          {
            "duration": 0.29999999999999716,
            "durationTicks": 480,
            "midi": 42,
            "name": "F#2",
            "ticks": 82560,
            "time": 51.6,
            "velocity": 0.41732283464566927
          },
          {
            "duration": 0.14999999999999858,
            "durationTicks": 240,
            "midi": 71,
            "name": "B4",
            "ticks": 82800,
            "time": 51.75,
            "velocity": 0.5118110236220472
          },
          {
            "duration": 0.14999999999999858,
            "durationTicks": 240,
            "midi": 69,
            "name": "A4",
            "ticks": 83040,
            "time": 51.9,
            "velocity": 0.47244094488188976
          },
          {
            "duration": 0.29999999999999716,
            "durationTicks": 480,
            "midi": 45,
            "name": "A2",
            "ticks": 83040,
            "time": 51.9,
            "velocity": 0.4645669291338583
          },
          {
            "duration": 0.14999999999999858,
            "durationTicks": 240,
            "midi": 67,
            "name": "G4",
            "ticks": 83280,
            "time": 52.05,
            "velocity": 0.4566929133858268
          },
          {
            "duration": 0.15000000000000568,
            "durationTicks": 240,
            "midi": 69,
            "name": "A4",
            "ticks": 83520,
            "time": 52.199999999999996,
            "velocity": 0.5196850393700787
          },
          {
            "duration": 0.30000000000000426,
            "durationTicks": 480,
            "midi": 49,
            "name": "C#3",
            "ticks": 83520,
            "time": 52.199999999999996,
            "velocity": 0.4881889763779528
          },
          {
            "duration": 0.14999999999999858,
            "durationTicks": 240,
            "midi": 66,
            "name": "F#4",
            "ticks": 83760,
            "time": 52.35,
            "velocity": 0.4330708661417323
          },
          {
            "duration": 0.14999999999999858,
            "durationTicks": 240,
            "midi": 67,
            "name": "G4",
            "ticks": 84000,
            "time": 52.5,
            "velocity": 0.5118110236220472
          },
          {
            "duration": 0.29999999999999716,
            "durationTicks": 480,
            "midi": 54,
            "name": "F#3",
            "ticks": 84000,
            "time": 52.5,
            "velocity": 0.49606299212598426
          },
          {
            "duration": 0.14999999999999858,
            "durationTicks": 240,
            "midi": 69,
            "name": "A4",
            "ticks": 84240,
            "time": 52.65,
            "velocity": 0.5354330708661418
          },
          {
            "duration": 0.30000000000000426,
            "durationTicks": 480,
            "midi": 67,
            "name": "G4",
            "ticks": 84480,
            "time": 52.8,
            "velocity": 0.4645669291338583
          },
          {
            "duration": 0.6000000000000014,
            "durationTicks": 960,
            "midi": 59,
            "name": "B3",
            "ticks": 84480,
            "time": 52.8,
            "velocity": 0.5590551181102362
          },
          {
            "duration": 0.30000000000000426,
            "durationTicks": 480,
            "midi": 43,
            "name": "G2",
            "ticks": 84480,
            "time": 52.8,
            "velocity": 0.47244094488188976
          },
          {
            "duration": 0.14999999999999858,
            "durationTicks": 240,
            "midi": 71,
            "name": "B4",
            "ticks": 84960,
            "time": 53.1,
            "velocity": 0.5511811023622047
          },
          {
            "duration": 0.29999999999999716,
            "durationTicks": 480,
            "midi": 47,
            "name": "B2",
            "ticks": 84960,
            "time": 53.1,
            "velocity": 0.5118110236220472
          },
          {
            "duration": 0.14999999999999858,
            "durationTicks": 240,
            "midi": 69,
            "name": "A4",
            "ticks": 85200,
            "time": 53.25,
            "velocity": 0.4409448818897638
          },
          {
            "duration": 0.29999999999999716,
            "durationTicks": 480,
            "midi": 67,
            "name": "G4",
            "ticks": 85440,
            "time": 53.4,
            "velocity": 0.44881889763779526
          },
          {
            "duration": 0.6000000000000014,
            "durationTicks": 960,
            "midi": 59,
            "name": "B3",
            "ticks": 85440,
            "time": 53.4,
            "velocity": 0.5669291338582677
          },
          {
            "duration": 0.29999999999999716,
            "durationTicks": 480,
            "midi": 50,
            "name": "D3",
            "ticks": 85440,
            "time": 53.4,
            "velocity": 0.49606299212598426
          },
          {
            "duration": 0.15000000000000568,
            "durationTicks": 240,
            "midi": 66,
            "name": "F#4",
            "ticks": 85920,
            "time": 53.699999999999996,
            "velocity": 0.44881889763779526
          },
          {
            "duration": 0.30000000000000426,
            "durationTicks": 480,
            "midi": 55,
            "name": "G3",
            "ticks": 85920,
            "time": 53.699999999999996,
            "velocity": 0.5039370078740157
          },
          {
            "duration": 0.14999999999999858,
            "durationTicks": 240,
            "midi": 64,
            "name": "E4",
            "ticks": 86160,
            "time": 53.85,
            "velocity": 0.4330708661417323
          },
          {
            "duration": 0.14999999999999858,
            "durationTicks": 240,
            "midi": 66,
            "name": "F#4",
            "ticks": 86400,
            "time": 54,
            "velocity": 0.5039370078740157
          },
          {
            "duration": 1.1999999999999957,
            "durationTicks": 1920,
            "midi": 57,
            "name": "A3",
            "ticks": 86400,
            "time": 54,
            "velocity": 0.5669291338582677
          },
          {
            "duration": 0.29999999999999716,
            "durationTicks": 480,
            "midi": 38,
            "name": "D2",
            "ticks": 86400,
            "time": 54,
            "velocity": 0.44881889763779526
          },
          {
            "duration": 0.14999999999999858,
            "durationTicks": 240,
            "midi": 64,
            "name": "E4",
            "ticks": 86640,
            "time": 54.15,
            "velocity": 0.47244094488188976
          },
          {
            "duration": 0.14999999999999858,
            "durationTicks": 240,
            "midi": 62,
            "name": "D4",
            "ticks": 86880,
            "time": 54.3,
            "velocity": 0.4645669291338583
          },
          {
            "duration": 0.30000000000000426,
            "durationTicks": 480,
            "midi": 42,
            "name": "F#2",
            "ticks": 86880,
            "time": 54.3,
            "velocity": 0.5196850393700787
          },
          {
            "duration": 0.15000000000000568,
            "durationTicks": 240,
            "midi": 64,
            "name": "E4",
            "ticks": 87120,
            "time": 54.449999999999996,
            "velocity": 0.4881889763779528
          },
          {
            "duration": 0.14999999999999858,
            "durationTicks": 240,
            "midi": 66,
            "name": "F#4",
            "ticks": 87360,
            "time": 54.6,
            "velocity": 0.5039370078740157
          },
          {
            "duration": 0.29999999999999716,
            "durationTicks": 480,
            "midi": 45,
            "name": "A2",
            "ticks": 87360,
            "time": 54.6,
            "velocity": 0.4645669291338583
          },
          {
            "duration": 0.14999999999999858,
            "durationTicks": 240,
            "midi": 67,
            "name": "G4",
            "ticks": 87600,
            "time": 54.75,
            "velocity": 0.4881889763779528
          },
          {
            "duration": 0.14999999999999858,
            "durationTicks": 240,
            "midi": 69,
            "name": "A4",
            "ticks": 87840,
            "time": 54.9,
            "velocity": 0.49606299212598426
          },
          {
            "duration": 0.29999999999999716,
            "durationTicks": 480,
            "midi": 50,
            "name": "D3",
            "ticks": 87840,
            "time": 54.9,
            "velocity": 0.5196850393700787
          },
          {
            "duration": 0.14999999999999858,
            "durationTicks": 240,
            "midi": 71,
            "name": "B4",
            "ticks": 88080,
            "time": 55.05,
            "velocity": 0.5275590551181102
          },
          {
            "duration": 0.30000000000000426,
            "durationTicks": 480,
            "midi": 67,
            "name": "G4",
            "ticks": 88320,
            "time": 55.199999999999996,
            "velocity": 0.4251968503937008
          },
          {
            "duration": 0.6000000000000014,
            "durationTicks": 960,
            "midi": 59,
            "name": "B3",
            "ticks": 88320,
            "time": 55.199999999999996,
            "velocity": 0.6220472440944882
          },
          {
            "duration": 0.30000000000000426,
            "durationTicks": 480,
            "midi": 43,
            "name": "G2",
            "ticks": 88320,
            "time": 55.199999999999996,
            "velocity": 0.4409448818897638
          },
          {
            "duration": 0.14999999999999858,
            "durationTicks": 240,
            "midi": 71,
            "name": "B4",
            "ticks": 88800,
            "time": 55.5,
            "velocity": 0.5275590551181102
          },
          {
            "duration": 0.29999999999999716,
            "durationTicks": 480,
            "midi": 47,
            "name": "B2",
            "ticks": 88800,
            "time": 55.5,
            "velocity": 0.5196850393700787
          },
          {
            "duration": 0.14999999999999858,
            "durationTicks": 240,
            "midi": 69,
            "name": "A4",
            "ticks": 89040,
            "time": 55.65,
            "velocity": 0.4566929133858268
          },
          {
            "duration": 0.30000000000000426,
            "durationTicks": 480,
            "midi": 71,
            "name": "B4",
            "ticks": 89280,
            "time": 55.8,
            "velocity": 0.48031496062992124
          },
          {
            "duration": 0.6000000000000014,
            "durationTicks": 960,
            "midi": 66,
            "name": "F#4",
            "ticks": 89280,
            "time": 55.8,
            "velocity": 0.6850393700787402
          },
          {
            "duration": 0.30000000000000426,
            "durationTicks": 480,
            "midi": 50,
            "name": "D3",
            "ticks": 89280,
            "time": 55.8,
            "velocity": 0.5118110236220472
          },
          {
            "duration": 0.14999999999999858,
            "durationTicks": 240,
            "midi": 73,
            "name": "C#5",
            "ticks": 89760,
            "time": 56.1,
            "velocity": 0.5275590551181102
          },
          {
            "duration": 0.29999999999999716,
            "durationTicks": 480,
            "midi": 55,
            "name": "G3",
            "ticks": 89760,
            "time": 56.1,
            "velocity": 0.5433070866141733
          },
          {
            "duration": 0.14999999999999858,
            "durationTicks": 240,
            "midi": 74,
            "name": "D5",
            "ticks": 90000,
            "time": 56.25,
            "velocity": 0.5275590551181102
          },
          {
            "duration": 0.14999999999999858,
            "durationTicks": 240,
            "midi": 73,
            "name": "C#5",
            "ticks": 90240,
            "time": 56.4,
            "velocity": 0.4645669291338583
          },
          {
            "duration": 1.1999999999999957,
            "durationTicks": 1920,
            "midi": 64,
            "name": "E4",
            "ticks": 90240,
            "time": 56.4,
            "velocity": 0.5826771653543307
          },
          {
            "duration": 0.29999999999999716,
            "durationTicks": 480,
            "midi": 45,
            "name": "A2",
            "ticks": 90240,
            "time": 56.4,
            "velocity": 0.4015748031496063
          },
          {
            "duration": 0.14999999999999858,
            "durationTicks": 240,
            "midi": 71,
            "name": "B4",
            "ticks": 90480,
            "time": 56.55,
            "velocity": 0.4566929133858268
          },
          {
            "duration": 0.15000000000000568,
            "durationTicks": 240,
            "midi": 73,
            "name": "C#5",
            "ticks": 90720,
            "time": 56.699999999999996,
            "velocity": 0.5039370078740157
          },
          {
            "duration": 0.30000000000000426,
            "durationTicks": 480,
            "midi": 49,
            "name": "C#3",
            "ticks": 90720,
            "time": 56.699999999999996,
            "velocity": 0.5039370078740157
          },
          {
            "duration": 0.14999999999999858,
            "durationTicks": 240,
            "midi": 74,
            "name": "D5",
            "ticks": 90960,
            "time": 56.85,
            "velocity": 0.4881889763779528
          },
          {
            "duration": 0.14999999999999858,
            "durationTicks": 240,
            "midi": 76,
            "name": "E5",
            "ticks": 91200,
            "time": 57,
            "velocity": 0.49606299212598426
          },
          {
            "duration": 0.29999999999999716,
            "durationTicks": 480,
            "midi": 52,
            "name": "E3",
            "ticks": 91200,
            "time": 57,
            "velocity": 0.5118110236220472
          },
          {
            "duration": 0.14999999999999858,
            "durationTicks": 240,
            "midi": 78,
            "name": "F#5",
            "ticks": 91440,
            "time": 57.15,
            "velocity": 0.5433070866141733
          },
          {
            "duration": 0.14999999999999858,
            "durationTicks": 240,
            "midi": 79,
            "name": "G5",
            "ticks": 91680,
            "time": 57.3,
            "velocity": 0.5118110236220472
          },
          {
            "duration": 0.29999999999999716,
            "durationTicks": 480,
            "midi": 57,
            "name": "A3",
            "ticks": 91680,
            "time": 57.3,
            "velocity": 0.5039370078740157
          },
          {
            "duration": 0.14999999999999858,
            "durationTicks": 240,
            "midi": 76,
            "name": "E5",
            "ticks": 91920,
            "time": 57.449999999999996,
            "velocity": 0.4409448818897638
          },
          {
            "duration": 0.6000000000000014,
            "durationTicks": 960,
            "midi": 74,
            "name": "D5",
            "ticks": 92160,
            "time": 57.599999999999994,
            "velocity": 0.48031496062992124
          },
          {
            "duration": 0.30000000000000426,
            "durationTicks": 480,
            "midi": 50,
            "name": "D3",
            "ticks": 92160,
            "time": 57.599999999999994,
            "velocity": 0.4330708661417323
          },
          {
            "duration": 0.14999999999999858,
            "durationTicks": 240,
            "midi": 78,
            "name": "F#5",
            "ticks": 92640,
            "time": 57.9,
            "velocity": 0.5433070866141733
          },
          {
            "duration": 0.29999999999999716,
            "durationTicks": 480,
            "midi": 54,
            "name": "F#3",
            "ticks": 92640,
            "time": 57.9,
            "velocity": 0.5039370078740157
          },
          {
            "duration": 0.14999999999999858,
            "durationTicks": 240,
            "midi": 79,
            "name": "G5",
            "ticks": 92880,
            "time": 58.05,
            "velocity": 0.5118110236220472
          },
          {
            "duration": 0.30000000000000426,
            "durationTicks": 480,
            "midi": 81,
            "name": "A5",
            "ticks": 93120,
            "time": 58.199999999999996,
            "velocity": 0.5039370078740157
          },
          {
            "duration": 0.6000000000000014,
            "durationTicks": 960,
            "midi": 74,
            "name": "D5",
            "ticks": 93120,
            "time": 58.199999999999996,
            "velocity": 0.6141732283464567
          },
          {
            "duration": 0.30000000000000426,
            "durationTicks": 480,
            "midi": 57,
            "name": "A3",
            "ticks": 93120,
            "time": 58.199999999999996,
            "velocity": 0.5118110236220472
          },
          {
            "duration": 0.14999999999999858,
            "durationTicks": 240,
            "midi": 78,
            "name": "F#5",
            "ticks": 93600,
            "time": 58.5,
            "velocity": 0.4645669291338583
          },
          {
            "duration": 0.29999999999999716,
            "durationTicks": 480,
            "midi": 62,
            "name": "D4",
            "ticks": 93600,
            "time": 58.5,
            "velocity": 0.5275590551181102
          },
          {
            "duration": 0.14999999999999858,
            "durationTicks": 240,
            "midi": 79,
            "name": "G5",
            "ticks": 93840,
            "time": 58.65,
            "velocity": 0.49606299212598426
          },
          {
            "duration": 0.14999999999999858,
            "durationTicks": 240,
            "midi": 81,
            "name": "A5",
            "ticks": 94080,
            "time": 58.8,
            "velocity": 0.5275590551181102
          },
          {
            "duration": 0.6000000000000014,
            "durationTicks": 960,
            "midi": 73,
            "name": "C#5",
            "ticks": 94080,
            "time": 58.8,
            "velocity": 0.5748031496062992
          },
          {
            "duration": 0.29999999999999716,
            "durationTicks": 480,
            "midi": 45,
            "name": "A2",
            "ticks": 94080,
            "time": 58.8,
            "velocity": 0.4094488188976378
          },
          {
            "duration": 0.14999999999999858,
            "durationTicks": 240,
            "midi": 69,
            "name": "A4",
            "ticks": 94320,
            "time": 58.949999999999996,
            "velocity": 0.36220472440944884
          },
          {
            "duration": 0.15000000000000568,
            "durationTicks": 240,
            "midi": 71,
            "name": "B4",
            "ticks": 94560,
            "time": 59.099999999999994,
            "velocity": 0.49606299212598426
          },
          {
            "duration": 0.30000000000000426,
            "durationTicks": 480,
            "midi": 49,
            "name": "C#3",
            "ticks": 94560,
            "time": 59.099999999999994,
            "velocity": 0.5354330708661418
          },
          {
            "duration": 0.75,
            "durationTicks": 1200,
            "midi": 73,
            "name": "C#5",
            "ticks": 94800,
            "time": 59.25,
            "velocity": 0.5039370078740157
          },
          {
            "duration": 0.14999999999999858,
            "durationTicks": 240,
            "midi": 74,
            "name": "D5",
            "ticks": 95040,
            "time": 59.4,
            "velocity": 0.5196850393700787
          },
          {
            "duration": 0.29999999999999716,
            "durationTicks": 480,
            "midi": 52,
            "name": "E3",
            "ticks": 95040,
            "time": 59.4,
            "velocity": 0.4881889763779528
          },
          {
            "duration": 0.14999999999999858,
            "durationTicks": 240,
            "midi": 76,
            "name": "E5",
            "ticks": 95280,
            "time": 59.55,
            "velocity": 0.5275590551181102
          },
          {
            "duration": 0.14999999999999858,
            "durationTicks": 240,
            "midi": 78,
            "name": "F#5",
            "ticks": 95520,
            "time": 59.699999999999996,
            "velocity": 0.49606299212598426
          },
          {
            "duration": 0.30000000000000426,
            "durationTicks": 480,
            "midi": 57,
            "name": "A3",
            "ticks": 95520,
            "time": 59.699999999999996,
            "velocity": 0.4881889763779528
          },
          {
            "duration": 0.15000000000000568,
            "durationTicks": 240,
            "midi": 79,
            "name": "G5",
            "ticks": 95760,
            "time": 59.849999999999994,
            "velocity": 0.5196850393700787
          },
          {
            "duration": 0.29999999999999716,
            "durationTicks": 480,
            "midi": 78,
            "name": "F#5",
            "ticks": 96000,
            "time": 60,
            "velocity": 0.4251968503937008
          },
          {
            "duration": 0.5999999999999943,
            "durationTicks": 960,
            "midi": 71,
            "name": "B4",
            "ticks": 96000,
            "time": 60,
            "velocity": 0.5354330708661418
          },
          {
            "duration": 0.29999999999999716,
            "durationTicks": 480,
            "midi": 47,
            "name": "B2",
            "ticks": 96000,
            "time": 60,
            "velocity": 0.4409448818897638
          },
          {
            "duration": 0.14999999999999858,
            "durationTicks": 240,
            "midi": 74,
            "name": "D5",
            "ticks": 96480,
            "time": 60.3,
            "velocity": 0.41732283464566927
          },
          {
            "duration": 0.29999999999999716,
            "durationTicks": 480,
            "midi": 50,
            "name": "D3",
            "ticks": 96480,
            "time": 60.3,
            "velocity": 0.4566929133858268
          },
          {
            "duration": 0.14999999999999858,
            "durationTicks": 240,
            "midi": 76,
            "name": "E5",
            "ticks": 96720,
            "time": 60.449999999999996,
            "velocity": 0.5196850393700787
          },
          {
            "duration": 0.30000000000000426,
            "durationTicks": 480,
            "midi": 78,
            "name": "F#5",
            "ticks": 96960,
            "time": 60.599999999999994,
            "velocity": 0.4645669291338583
          },
          {
            "duration": 0.6000000000000014,
            "durationTicks": 960,
            "midi": 71,
            "name": "B4",
            "ticks": 96960,
            "time": 60.599999999999994,
            "velocity": 0.5984251968503937
          },
          {
            "duration": 0.30000000000000426,
            "durationTicks": 480,
            "midi": 54,
            "name": "F#3",
            "ticks": 96960,
            "time": 60.599999999999994,
            "velocity": 0.5196850393700787
          },
          {
            "duration": 0.14999999999999858,
            "durationTicks": 240,
            "midi": 66,
            "name": "F#4",
            "ticks": 97440,
            "time": 60.9,
            "velocity": 0.31496062992125984
          },
          {
            "duration": 0.29999999999999716,
            "durationTicks": 480,
            "midi": 59,
            "name": "B3",
            "ticks": 97440,
            "time": 60.9,
            "velocity": 0.5275590551181102
          },
          {
            "duration": 0.14999999999999858,
            "durationTicks": 240,
            "midi": 67,
            "name": "G4",
            "ticks": 97680,
            "time": 61.05,
            "velocity": 0.49606299212598426
          },
          {
            "duration": 0.14999999999999858,
            "durationTicks": 240,
            "midi": 69,
            "name": "A4",
            "ticks": 97920,
            "time": 61.199999999999996,
            "velocity": 0.5511811023622047
          },
          {
            "duration": 1.2000000000000028,
            "durationTicks": 1920,
            "midi": 61,
            "name": "C#4",
            "ticks": 97920,
            "time": 61.199999999999996,
            "velocity": 0.47244094488188976
          },
          {
            "duration": 0.30000000000000426,
            "durationTicks": 480,
            "midi": 42,
            "name": "F#2",
            "ticks": 97920,
            "time": 61.199999999999996,
            "velocity": 0.4094488188976378
          },
          {
            "duration": 0.15000000000000568,
            "durationTicks": 240,
            "midi": 71,
            "name": "B4",
            "ticks": 98160,
            "time": 61.349999999999994,
            "velocity": 0.5196850393700787
          },
          {
            "duration": 0.14999999999999858,
            "durationTicks": 240,
            "midi": 69,
            "name": "A4",
            "ticks": 98400,
            "time": 61.5,
            "velocity": 0.47244094488188976
          },
          {
            "duration": 0.29999999999999716,
            "durationTicks": 480,
            "midi": 45,
            "name": "A2",
            "ticks": 98400,
            "time": 61.5,
            "velocity": 0.49606299212598426
          },
          {
            "duration": 0.14999999999999858,
            "durationTicks": 240,
            "midi": 67,
            "name": "G4",
            "ticks": 98640,
            "time": 61.65,
            "velocity": 0.4330708661417323
          },
          {
            "duration": 0.14999999999999858,
            "durationTicks": 240,
            "midi": 69,
            "name": "A4",
            "ticks": 98880,
            "time": 61.8,
            "velocity": 0.4881889763779528
          },
          {
            "duration": 0.29999999999999716,
            "durationTicks": 480,
            "midi": 49,
            "name": "C#3",
            "ticks": 98880,
            "time": 61.8,
            "velocity": 0.49606299212598426
          },
          {
            "duration": 0.14999999999999858,
            "durationTicks": 240,
            "midi": 66,
            "name": "F#4",
            "ticks": 99120,
            "time": 61.949999999999996,
            "velocity": 0.44881889763779526
          },
          {
            "duration": 0.15000000000000568,
            "durationTicks": 240,
            "midi": 67,
            "name": "G4",
            "ticks": 99360,
            "time": 62.099999999999994,
            "velocity": 0.5275590551181102
          },
          {
            "duration": 0.30000000000000426,
            "durationTicks": 480,
            "midi": 54,
            "name": "F#3",
            "ticks": 99360,
            "time": 62.099999999999994,
            "velocity": 0.5196850393700787
          },
          {
            "duration": 0.14999999999999858,
            "durationTicks": 240,
            "midi": 69,
            "name": "A4",
            "ticks": 99600,
            "time": 62.25,
            "velocity": 0.4881889763779528
          },
          {
            "duration": 0.29999999999999716,
            "durationTicks": 480,
            "midi": 67,
            "name": "G4",
            "ticks": 99840,
            "time": 62.4,
            "velocity": 0.4645669291338583
          },
          {
            "duration": 0.6000000000000014,
            "durationTicks": 960,
            "midi": 59,
            "name": "B3",
            "ticks": 99840,
            "time": 62.4,
            "velocity": 0.5511811023622047
          },
          {
            "duration": 0.29999999999999716,
            "durationTicks": 480,
            "midi": 43,
            "name": "G2",
            "ticks": 99840,
            "time": 62.4,
            "velocity": 0.41732283464566927
          },
          {
            "duration": 0.14999999999999858,
            "durationTicks": 240,
            "midi": 71,
            "name": "B4",
            "ticks": 100320,
            "time": 62.699999999999996,
            "velocity": 0.5039370078740157
          },
          {
            "duration": 0.30000000000000426,
            "durationTicks": 480,
            "midi": 47,
            "name": "B2",
            "ticks": 100320,
            "time": 62.699999999999996,
            "velocity": 0.5275590551181102
          },
          {
            "duration": 0.15000000000000568,
            "durationTicks": 240,
            "midi": 69,
            "name": "A4",
            "ticks": 100560,
            "time": 62.849999999999994,
            "velocity": 0.4566929133858268
          },
          {
            "duration": 0.29999999999999716,
            "durationTicks": 480,
            "midi": 67,
            "name": "G4",
            "ticks": 100800,
            "time": 63,
            "velocity": 0.4094488188976378
          },
          {
            "duration": 0.5999999999999943,
            "durationTicks": 960,
            "midi": 59,
            "name": "B3",
            "ticks": 100800,
            "time": 63,
            "velocity": 0.5748031496062992
          },
          {
            "duration": 0.29999999999999716,
            "durationTicks": 480,
            "midi": 50,
            "name": "D3",
            "ticks": 100800,
            "time": 63,
            "velocity": 0.5275590551181102
          },
          {
            "duration": 0.14999999999999858,
            "durationTicks": 240,
            "midi": 66,
            "name": "F#4",
            "ticks": 101280,
            "time": 63.3,
            "velocity": 0.44881889763779526
          },
          {
            "duration": 0.29999999999999716,
            "durationTicks": 480,
            "midi": 55,
            "name": "G3",
            "ticks": 101280,
            "time": 63.3,
            "velocity": 0.5196850393700787
          },
          {
            "duration": 0.14999999999999858,
            "durationTicks": 240,
            "midi": 64,
            "name": "E4",
            "ticks": 101520,
            "time": 63.449999999999996,
            "velocity": 0.44881889763779526
          },
          {
            "duration": 0.15000000000000568,
            "durationTicks": 240,
            "midi": 66,
            "name": "F#4",
            "ticks": 101760,
            "time": 63.599999999999994,
            "velocity": 0.5118110236220472
          },
          {
            "duration": 1.2000000000000028,
            "durationTicks": 1920,
            "midi": 57,
            "name": "A3",
            "ticks": 101760,
            "time": 63.599999999999994,
            "velocity": 0.5826771653543307
          },
          {
            "duration": 0.30000000000000426,
            "durationTicks": 480,
            "midi": 38,
            "name": "D2",
            "ticks": 101760,
            "time": 63.599999999999994,
            "velocity": 0.4409448818897638
          },
          {
            "duration": 0.14999999999999858,
            "durationTicks": 240,
            "midi": 64,
            "name": "E4",
            "ticks": 102000,
            "time": 63.75,
            "velocity": 0.4881889763779528
          },
          {
            "duration": 0.14999999999999858,
            "durationTicks": 240,
            "midi": 62,
            "name": "D4",
            "ticks": 102240,
            "time": 63.9,
            "velocity": 0.4251968503937008
          },
          {
            "duration": 0.30000000000000426,
            "durationTicks": 480,
            "midi": 42,
            "name": "F#2",
            "ticks": 102240,
            "time": 63.9,
            "velocity": 0.4881889763779528
          },
          {
            "duration": 0.15000000000000568,
            "durationTicks": 240,
            "midi": 64,
            "name": "E4",
            "ticks": 102480,
            "time": 64.05,
            "velocity": 0.5196850393700787
          },
          {
            "duration": 0.14999999999999147,
            "durationTicks": 240,
            "midi": 66,
            "name": "F#4",
            "ticks": 102720,
            "time": 64.2,
            "velocity": 0.5196850393700787
          },
          {
            "duration": 0.29999999999999716,
            "durationTicks": 480,
            "midi": 45,
            "name": "A2",
            "ticks": 102720,
            "time": 64.2,
            "velocity": 0.5039370078740157
          },
          {
            "duration": 0.15000000000000568,
            "durationTicks": 240,
            "midi": 67,
            "name": "G4",
            "ticks": 102960,
            "time": 64.35,
            "velocity": 0.49606299212598426
          },
          {
            "duration": 0.14999999999999147,
            "durationTicks": 240,
            "midi": 69,
            "name": "A4",
            "ticks": 103200,
            "time": 64.5,
            "velocity": 0.5118110236220472
          },
          {
            "duration": 0.29999999999999716,
            "durationTicks": 480,
            "midi": 50,
            "name": "D3",
            "ticks": 103200,
            "time": 64.5,
            "velocity": 0.5433070866141733
          },
          {
            "duration": 0.15000000000000568,
            "durationTicks": 240,
            "midi": 71,
            "name": "B4",
            "ticks": 103440,
            "time": 64.64999999999999,
            "velocity": 0.5275590551181102
          },
          {
            "duration": 0.29999999999999716,
            "durationTicks": 480,
            "midi": 67,
            "name": "G4",
            "ticks": 103680,
            "time": 64.8,
            "velocity": 0.4645669291338583
          },
          {
            "duration": 0.5999999999999943,
            "durationTicks": 960,
            "midi": 59,
            "name": "B3",
            "ticks": 103680,
            "time": 64.8,
            "velocity": 0.6062992125984252
          },
          {
            "duration": 0.29999999999999716,
            "durationTicks": 480,
            "midi": 43,
            "name": "G2",
            "ticks": 103680,
            "time": 64.8,
            "velocity": 0.4094488188976378
          },
          {
            "duration": 0.15000000000000568,
            "durationTicks": 240,
            "midi": 71,
            "name": "B4",
            "ticks": 104160,
            "time": 65.1,
            "velocity": 0.5196850393700787
          },
          {
            "duration": 0.29999999999999716,
            "durationTicks": 480,
            "midi": 47,
            "name": "B2",
            "ticks": 104160,
            "time": 65.1,
            "velocity": 0.5275590551181102
          },
          {
            "duration": 0.14999999999999147,
            "durationTicks": 240,
            "midi": 69,
            "name": "A4",
            "ticks": 104400,
            "time": 65.25,
            "velocity": 0.4645669291338583
          },
          {
            "duration": 0.30000000000001137,
            "durationTicks": 480,
            "midi": 71,
            "name": "B4",
            "ticks": 104640,
            "time": 65.39999999999999,
            "velocity": 0.49606299212598426
          },
          {
            "duration": 0.6000000000000085,
            "durationTicks": 960,
            "midi": 66,
            "name": "F#4",
            "ticks": 104640,
            "time": 65.39999999999999,
            "velocity": 0.7086614173228346
          },
          {
            "duration": 0.30000000000001137,
            "durationTicks": 480,
            "midi": 50,
            "name": "D3",
            "ticks": 104640,
            "time": 65.39999999999999,
            "velocity": 0.4645669291338583
          },
          {
            "duration": 0.14999999999999147,
            "durationTicks": 240,
            "midi": 73,
            "name": "C#5",
            "ticks": 105120,
            "time": 65.7,
            "velocity": 0.5039370078740157
          },
          {
            "duration": 0.29999999999999716,
            "durationTicks": 480,
            "midi": 55,
            "name": "G3",
            "ticks": 105120,
            "time": 65.7,
            "velocity": 0.5275590551181102
          },
          {
            "duration": 0.15000000000000568,
            "durationTicks": 240,
            "midi": 74,
            "name": "D5",
            "ticks": 105360,
            "time": 65.85,
            "velocity": 0.5196850393700787
          },
          {
            "duration": 0.14999999999999147,
            "durationTicks": 240,
            "midi": 73,
            "name": "C#5",
            "ticks": 105600,
            "time": 66,
            "velocity": 0.4645669291338583
          },
          {
            "duration": 1.2000000000000028,
            "durationTicks": 1920,
            "midi": 64,
            "name": "E4",
            "ticks": 105600,
            "time": 66,
            "velocity": 0.5748031496062992
          },
          {
            "duration": 0.29999999999999716,
            "durationTicks": 480,
            "midi": 45,
            "name": "A2",
            "ticks": 105600,
            "time": 66,
            "velocity": 0.4251968503937008
          },
          {
            "duration": 0.15000000000000568,
            "durationTicks": 240,
            "midi": 71,
            "name": "B4",
            "ticks": 105840,
            "time": 66.14999999999999,
            "velocity": 0.41732283464566927
          },
          {
            "duration": 0.15000000000000568,
            "durationTicks": 240,
            "midi": 73,
            "name": "C#5",
            "ticks": 106080,
            "time": 66.3,
            "velocity": 0.5196850393700787
          },
          {
            "duration": 0.29999999999999716,
            "durationTicks": 480,
            "midi": 49,
            "name": "C#3",
            "ticks": 106080,
            "time": 66.3,
            "velocity": 0.49606299212598426
          },
          {
            "duration": 0.14999999999999147,
            "durationTicks": 240,
            "midi": 74,
            "name": "D5",
            "ticks": 106320,
            "time": 66.45,
            "velocity": 0.47244094488188976
          },
          {
            "duration": 0.15000000000000568,
            "durationTicks": 240,
            "midi": 76,
            "name": "E5",
            "ticks": 106560,
            "time": 66.6,
            "velocity": 0.5196850393700787
          },
          {
            "duration": 0.29999999999999716,
            "durationTicks": 480,
            "midi": 52,
            "name": "E3",
            "ticks": 106560,
            "time": 66.6,
            "velocity": 0.49606299212598426
          },
          {
            "duration": 0.14999999999999147,
            "durationTicks": 240,
            "midi": 78,
            "name": "F#5",
            "ticks": 106800,
            "time": 66.75,
            "velocity": 0.5039370078740157
          },
          {
            "duration": 0.15000000000000568,
            "durationTicks": 240,
            "midi": 79,
            "name": "G5",
            "ticks": 107040,
            "time": 66.89999999999999,
            "velocity": 0.5275590551181102
          },
          {
            "duration": 0.30000000000001137,
            "durationTicks": 480,
            "midi": 57,
            "name": "A3",
            "ticks": 107040,
            "time": 66.89999999999999,
            "velocity": 0.5039370078740157
          },
          {
            "duration": 0.15000000000000568,
            "durationTicks": 240,
            "midi": 76,
            "name": "E5",
            "ticks": 107280,
            "time": 67.05,
            "velocity": 0.4330708661417323
          },
          {
            "duration": 0.29999999999999716,
            "durationTicks": 480,
            "midi": 69,
            "name": "A4",
            "ticks": 107520,
            "time": 67.2,
            "velocity": 0.5039370078740157
          },
          {
            "duration": 0.29999999999999716,
            "durationTicks": 480,
            "midi": 78,
            "name": "F#5",
            "ticks": 107520,
            "time": 67.2,
            "velocity": 0.5039370078740157
          },
          {
            "duration": 0.29999999999999716,
            "durationTicks": 480,
            "midi": 50,
            "name": "D3",
            "ticks": 107520,
            "time": 67.2,
            "velocity": 0.41732283464566927
          },
          {
            "duration": 0.14999999999999147,
            "durationTicks": 240,
            "midi": 66,
            "name": "F#4",
            "ticks": 108000,
            "time": 67.5,
            "velocity": 0.41732283464566927
          },
          {
            "duration": 0.14999999999999147,
            "durationTicks": 240,
            "midi": 74,
            "name": "D5",
            "ticks": 108000,
            "time": 67.5,
            "velocity": 0.41732283464566927
          },
          {
            "duration": 0.29999999999999716,
            "durationTicks": 480,
            "midi": 54,
            "name": "F#3",
            "ticks": 108000,
            "time": 67.5,
            "velocity": 0.4645669291338583
          },
          {
            "duration": 0.15000000000000568,
            "durationTicks": 240,
            "midi": 73,
            "name": "C#5",
            "ticks": 108240,
            "time": 67.64999999999999,
            "velocity": 0.4645669291338583
          },
          {
            "duration": 0.29999999999999716,
            "durationTicks": 480,
            "midi": 66,
            "name": "F#4",
            "ticks": 108480,
            "time": 67.8,
            "velocity": 0.47244094488188976
          },
          {
            "duration": 0.29999999999999716,
            "durationTicks": 480,
            "midi": 74,
            "name": "D5",
            "ticks": 108480,
            "time": 67.8,
            "velocity": 0.47244094488188976
          },
          {
            "duration": 0.29999999999999716,
            "durationTicks": 480,
            "midi": 57,
            "name": "A3",
            "ticks": 108480,
            "time": 67.8,
            "velocity": 0.5196850393700787
          },
          {
            "duration": 0.29999999999999716,
            "durationTicks": 480,
            "midi": 66,
            "name": "F#4",
            "ticks": 108960,
            "time": 68.1,
            "velocity": 0.4251968503937008
          },
          {
            "duration": 0.29999999999999716,
            "durationTicks": 480,
            "midi": 62,
            "name": "D4",
            "ticks": 108960,
            "time": 68.1,
            "velocity": 0.5511811023622047
          },
          {
            "duration": 0.30000000000001137,
            "durationTicks": 480,
            "midi": 61,
            "name": "C#4",
            "ticks": 109440,
            "time": 68.39999999999999,
            "velocity": 0.48031496062992124
          },
          {
            "duration": 0.30000000000001137,
            "durationTicks": 480,
            "midi": 69,
            "name": "A4",
            "ticks": 109440,
            "time": 68.39999999999999,
            "velocity": 0.48031496062992124
          },
          {
            "duration": 0.30000000000001137,
            "durationTicks": 480,
            "midi": 45,
            "name": "A2",
            "ticks": 109440,
            "time": 68.39999999999999,
            "velocity": 0.4645669291338583
          },
          {
            "duration": 0.14999999999999147,
            "durationTicks": 240,
            "midi": 69,
            "name": "A4",
            "ticks": 109920,
            "time": 68.7,
            "velocity": 0.5433070866141733
          },
          {
            "duration": 0.14999999999999147,
            "durationTicks": 240,
            "midi": 73,
            "name": "C#5",
            "ticks": 109920,
            "time": 68.7,
            "velocity": 0.5433070866141733
          },
          {
            "duration": 0.29999999999999716,
            "durationTicks": 480,
            "midi": 49,
            "name": "C#3",
            "ticks": 109920,
            "time": 68.7,
            "velocity": 0.4881889763779528
          },
          {
            "duration": 0.15000000000000568,
            "durationTicks": 240,
            "midi": 71,
            "name": "B4",
            "ticks": 110160,
            "time": 68.85,
            "velocity": 0.5196850393700787
          },
          {
            "duration": 0.15000000000000568,
            "durationTicks": 240,
            "midi": 74,
            "name": "D5",
            "ticks": 110160,
            "time": 68.85,
            "velocity": 0.5196850393700787
          },
          {
            "duration": 0.29999999999999716,
            "durationTicks": 480,
            "midi": 73,
            "name": "C#5",
            "ticks": 110400,
            "time": 69,
            "velocity": 0.5275590551181102
          },
          {
            "duration": 0.29999999999999716,
            "durationTicks": 480,
            "midi": 76,
            "name": "E5",
            "ticks": 110400,
            "time": 69,
            "velocity": 0.5275590551181102
          },
          {
            "duration": 0.29999999999999716,
            "durationTicks": 480,
            "midi": 52,
            "name": "E3",
            "ticks": 110400,
            "time": 69,
            "velocity": 0.5196850393700787
          },
          {
            "duration": 0.29999999999999716,
            "durationTicks": 480,
            "midi": 69,
            "name": "A4",
            "ticks": 110880,
            "time": 69.3,
            "velocity": 0.4251968503937008
          },
          {
            "duration": 0.29999999999999716,
            "durationTicks": 480,
            "midi": 73,
            "name": "C#5",
            "ticks": 110880,
            "time": 69.3,
            "velocity": 0.4251968503937008
          },
          {
            "duration": 0.29999999999999716,
            "durationTicks": 480,
            "midi": 57,
            "name": "A3",
            "ticks": 110880,
            "time": 69.3,
            "velocity": 0.5196850393700787
          },
          {
            "duration": 0.29999999999999716,
            "durationTicks": 480,
            "midi": 62,
            "name": "D4",
            "ticks": 111360,
            "time": 69.6,
            "velocity": 0.47244094488188976
          },
          {
            "duration": 0.29999999999999716,
            "durationTicks": 480,
            "midi": 71,
            "name": "B4",
            "ticks": 111360,
            "time": 69.6,
            "velocity": 0.47244094488188976
          },
          {
            "duration": 0.29999999999999716,
            "durationTicks": 480,
            "midi": 47,
            "name": "B2",
            "ticks": 111360,
            "time": 69.6,
            "velocity": 0.41732283464566927
          },
          {
            "duration": 0.15000000000000568,
            "durationTicks": 240,
            "midi": 71,
            "name": "B4",
            "ticks": 111840,
            "time": 69.89999999999999,
            "velocity": 0.5354330708661418
          },
          {
            "duration": 0.15000000000000568,
            "durationTicks": 240,
            "midi": 74,
            "name": "D5",
            "ticks": 111840,
            "time": 69.89999999999999,
            "velocity": 0.5354330708661418
          },
          {
            "duration": 0.30000000000001137,
            "durationTicks": 480,
            "midi": 50,
            "name": "D3",
            "ticks": 111840,
            "time": 69.89999999999999,
            "velocity": 0.4881889763779528
          },
          {
            "duration": 0.15000000000000568,
            "durationTicks": 240,
            "midi": 73,
            "name": "C#5",
            "ticks": 112080,
            "time": 70.05,
            "velocity": 0.49606299212598426
          },
          {
            "duration": 0.15000000000000568,
            "durationTicks": 240,
            "midi": 76,
            "name": "E5",
            "ticks": 112080,
            "time": 70.05,
            "velocity": 0.49606299212598426
          },
          {
            "duration": 0.29999999999999716,
            "durationTicks": 480,
            "midi": 74,
            "name": "D5",
            "ticks": 112320,
            "time": 70.2,
            "velocity": 0.5039370078740157
          },
          {
            "duration": 0.29999999999999716,
            "durationTicks": 480,
            "midi": 78,
            "name": "F#5",
            "ticks": 112320,
            "time": 70.2,
            "velocity": 0.5039370078740157
          },
          {
            "duration": 0.29999999999999716,
            "durationTicks": 480,
            "midi": 54,
            "name": "F#3",
            "ticks": 112320,
            "time": 70.2,
            "velocity": 0.5118110236220472
          },
          {
            "duration": 0.29999999999999716,
            "durationTicks": 480,
            "midi": 71,
            "name": "B4",
            "ticks": 112800,
            "time": 70.5,
            "velocity": 0.41732283464566927
          },
          {
            "duration": 0.29999999999999716,
            "durationTicks": 480,
            "midi": 74,
            "name": "D5",
            "ticks": 112800,
            "time": 70.5,
            "velocity": 0.41732283464566927
          },
          {
            "duration": 0.29999999999999716,
            "durationTicks": 480,
            "midi": 59,
            "name": "B3",
            "ticks": 112800,
            "time": 70.5,
            "velocity": 0.5275590551181102
          },
          {
            "duration": 0.29999999999999716,
            "durationTicks": 480,
            "midi": 69,
            "name": "A4",
            "ticks": 113280,
            "time": 70.8,
            "velocity": 0.5433070866141733
          },
          {
            "duration": 0.29999999999999716,
            "durationTicks": 480,
            "midi": 78,
            "name": "F#5",
            "ticks": 113280,
            "time": 70.8,
            "velocity": 0.5433070866141733
          },
          {
            "duration": 0.29999999999999716,
            "durationTicks": 480,
            "midi": 42,
            "name": "F#2",
            "ticks": 113280,
            "time": 70.8,
            "velocity": 0.4566929133858268
          },
          {
            "duration": 0.15000000000000568,
            "durationTicks": 240,
            "midi": 69,
            "name": "A4",
            "ticks": 113760,
            "time": 71.1,
            "velocity": 0.4881889763779528
          },
          {
            "duration": 0.15000000000000568,
            "durationTicks": 240,
            "midi": 78,
            "name": "F#5",
            "ticks": 113760,
            "time": 71.1,
            "velocity": 0.4881889763779528
          },
          {
            "duration": 0.29999999999999716,
            "durationTicks": 480,
            "midi": 45,
            "name": "A2",
            "ticks": 113760,
            "time": 71.1,
            "velocity": 0.4566929133858268
          },
          {
            "duration": 0.14999999999999147,
            "durationTicks": 240,
            "midi": 76,
            "name": "E5",
            "ticks": 114000,
            "time": 71.25,
            "velocity": 0.47244094488188976
          },
          {
            "duration": 0.30000000000001137,
            "durationTicks": 480,
            "midi": 66,
            "name": "F#4",
            "ticks": 114240,
            "time": 71.39999999999999,
            "velocity": 0.4645669291338583
          },
          {
            "duration": 0.30000000000001137,
            "durationTicks": 480,
            "midi": 74,
            "name": "D5",
            "ticks": 114240,
            "time": 71.39999999999999,
            "velocity": 0.4645669291338583
          },
          {
            "duration": 0.30000000000001137,
            "durationTicks": 480,
            "midi": 49,
            "name": "C#3",
            "ticks": 114240,
            "time": 71.39999999999999,
            "velocity": 0.5590551181102362
          },
          {
            "duration": 0.29999999999999716,
            "durationTicks": 480,
            "midi": 73,
            "name": "C#5",
            "ticks": 114720,
            "time": 71.7,
            "velocity": 0.4881889763779528
          },
          {
            "duration": 0.29999999999999716,
            "durationTicks": 480,
            "midi": 54,
            "name": "F#3",
            "ticks": 114720,
            "time": 71.7,
            "velocity": 0.5196850393700787
          },
          {
            "duration": 0.29999999999999716,
            "durationTicks": 480,
            "midi": 67,
            "name": "G4",
            "ticks": 115200,
            "time": 72,
            "velocity": 0.4645669291338583
          },
          {
            "duration": 0.29999999999999716,
            "durationTicks": 480,
            "midi": 71,
            "name": "B4",
            "ticks": 115200,
            "time": 72,
            "velocity": 0.4645669291338583
          },
          {
            "duration": 0.29999999999999716,
            "durationTicks": 480,
            "midi": 43,
            "name": "G2",
            "ticks": 115200,
            "time": 72,
            "velocity": 0.4094488188976378
          },
          {
            "duration": 0.15000000000000568,
            "durationTicks": 240,
            "midi": 67,
            "name": "G4",
            "ticks": 115680,
            "time": 72.3,
            "velocity": 0.47244094488188976
          },
          {
            "duration": 0.15000000000000568,
            "durationTicks": 240,
            "midi": 71,
            "name": "B4",
            "ticks": 115680,
            "time": 72.3,
            "velocity": 0.47244094488188976
          },
          {
            "duration": 0.29999999999999716,
            "durationTicks": 480,
            "midi": 47,
            "name": "B2",
            "ticks": 115680,
            "time": 72.3,
            "velocity": 0.4881889763779528
          },
          {
            "duration": 0.14999999999999147,
            "durationTicks": 240,
            "midi": 69,
            "name": "A4",
            "ticks": 115920,
            "time": 72.45,
            "velocity": 0.4251968503937008
          },
          {
            "duration": 0.29999999999999716,
            "durationTicks": 480,
            "midi": 67,
            "name": "G4",
            "ticks": 116160,
            "time": 72.6,
            "velocity": 0.4881889763779528
          },
          {
            "duration": 0.29999999999999716,
            "durationTicks": 480,
            "midi": 71,
            "name": "B4",
            "ticks": 116160,
            "time": 72.6,
            "velocity": 0.4881889763779528
          },
          {
            "duration": 0.29999999999999716,
            "durationTicks": 480,
            "midi": 50,
            "name": "D3",
            "ticks": 116160,
            "time": 72.6,
            "velocity": 0.5275590551181102
          },
          {
            "duration": 0.30000000000001137,
            "durationTicks": 480,
            "midi": 73,
            "name": "C#5",
            "ticks": 116640,
            "time": 72.89999999999999,
            "velocity": 0.5433070866141733
          },
          {
            "duration": 0.30000000000001137,
            "durationTicks": 480,
            "midi": 55,
            "name": "G3",
            "ticks": 116640,
            "time": 72.89999999999999,
            "velocity": 0.5511811023622047
          },
          {
            "duration": 0.29999999999999716,
            "durationTicks": 480,
            "midi": 66,
            "name": "F#4",
            "ticks": 117120,
            "time": 73.2,
            "velocity": 0.5039370078740157
          },
          {
            "duration": 0.29999999999999716,
            "durationTicks": 480,
            "midi": 74,
            "name": "D5",
            "ticks": 117120,
            "time": 73.2,
            "velocity": 0.5039370078740157
          },
          {
            "duration": 0.29999999999999716,
            "durationTicks": 480,
            "midi": 38,
            "name": "D2",
            "ticks": 117120,
            "time": 73.2,
            "velocity": 0.4094488188976378
          },
          {
            "duration": 0.14999999999999147,
            "durationTicks": 240,
            "midi": 78,
            "name": "F#5",
            "ticks": 117600,
            "time": 73.5,
            "velocity": 0.5354330708661418
          },
          {
            "duration": 0.29999999999999716,
            "durationTicks": 480,
            "midi": 42,
            "name": "F#2",
            "ticks": 117600,
            "time": 73.5,
            "velocity": 0.47244094488188976
          },
          {
            "duration": 0.15000000000000568,
            "durationTicks": 240,
            "midi": 76,
            "name": "E5",
            "ticks": 117840,
            "time": 73.64999999999999,
            "velocity": 0.4409448818897638
          },
          {
            "duration": 0.29999999999999716,
            "durationTicks": 480,
            "midi": 74,
            "name": "D5",
            "ticks": 118080,
            "time": 73.8,
            "velocity": 0.4566929133858268
          },
          {
            "duration": 0.29999999999999716,
            "durationTicks": 480,
            "midi": 45,
            "name": "A2",
            "ticks": 118080,
            "time": 73.8,
            "velocity": 0.47244094488188976
          },
          {
            "duration": 0.29999999999999716,
            "durationTicks": 480,
            "midi": 73,
            "name": "C#5",
            "ticks": 118560,
            "time": 74.1,
            "velocity": 0.5590551181102362
          },
          {
            "duration": 0.29999999999999716,
            "durationTicks": 480,
            "midi": 81,
            "name": "A5",
            "ticks": 118560,
            "time": 74.1,
            "velocity": 0.5590551181102362
          },
          {
            "duration": 0.29999999999999716,
            "durationTicks": 480,
            "midi": 50,
            "name": "D3",
            "ticks": 118560,
            "time": 74.1,
            "velocity": 0.5354330708661418
          },
          {
            "duration": 0.30000000000001137,
            "durationTicks": 480,
            "midi": 71,
            "name": "B4",
            "ticks": 119040,
            "time": 74.39999999999999,
            "velocity": 0.5039370078740157
          },
          {
            "duration": 0.30000000000001137,
            "durationTicks": 480,
            "midi": 79,
            "name": "G5",
            "ticks": 119040,
            "time": 74.39999999999999,
            "velocity": 0.5039370078740157
          },
          {
            "duration": 0.30000000000001137,
            "durationTicks": 480,
            "midi": 43,
            "name": "G2",
            "ticks": 119040,
            "time": 74.39999999999999,
            "velocity": 0.44881889763779526
          },
          {
            "duration": 0.14999999999999147,
            "durationTicks": 240,
            "midi": 71,
            "name": "B4",
            "ticks": 119520,
            "time": 74.7,
            "velocity": 0.4094488188976378
          },
          {
            "duration": 0.14999999999999147,
            "durationTicks": 240,
            "midi": 74,
            "name": "D5",
            "ticks": 119520,
            "time": 74.7,
            "velocity": 0.4094488188976378
          },
          {
            "duration": 0.29999999999999716,
            "durationTicks": 480,
            "midi": 47,
            "name": "B2",
            "ticks": 119520,
            "time": 74.7,
            "velocity": 0.49606299212598426
          },
          {
            "duration": 0.15000000000000568,
            "durationTicks": 240,
            "midi": 69,
            "name": "A4",
            "ticks": 119760,
            "time": 74.85,
            "velocity": 0.4330708661417323
          },
          {
            "duration": 0.15000000000000568,
            "durationTicks": 240,
            "midi": 73,
            "name": "C#5",
            "ticks": 119760,
            "time": 74.85,
            "velocity": 0.4330708661417323
          },
          {
            "duration": 0.29999999999999716,
            "durationTicks": 480,
            "midi": 67,
            "name": "G4",
            "ticks": 120000,
            "time": 75,
            "velocity": 0.4251968503937008
          },
          {
            "duration": 0.29999999999999716,
            "durationTicks": 480,
            "midi": 71,
            "name": "B4",
            "ticks": 120000,
            "time": 75,
            "velocity": 0.4251968503937008
          },
          {
            "duration": 0.29999999999999716,
            "durationTicks": 480,
            "midi": 50,
            "name": "D3",
            "ticks": 120000,
            "time": 75,
            "velocity": 0.5039370078740157
          },
          {
            "duration": 0.29999999999999716,
            "durationTicks": 480,
            "midi": 67,
            "name": "G4",
            "ticks": 120480,
            "time": 75.3,
            "velocity": 0.49606299212598426
          },
          {
            "duration": 0.29999999999999716,
            "durationTicks": 480,
            "midi": 71,
            "name": "B4",
            "ticks": 120480,
            "time": 75.3,
            "velocity": 0.49606299212598426
          },
          {
            "duration": 0.29999999999999716,
            "durationTicks": 480,
            "midi": 55,
            "name": "G3",
            "ticks": 120480,
            "time": 75.3,
            "velocity": 0.5039370078740157
          },
          {
            "duration": 0.29999999999999716,
            "durationTicks": 480,
            "midi": 61,
            "name": "C#4",
            "ticks": 120960,
            "time": 75.6,
            "velocity": 0.44881889763779526
          },
          {
            "duration": 0.29999999999999716,
            "durationTicks": 480,
            "midi": 69,
            "name": "A4",
            "ticks": 120960,
            "time": 75.6,
            "velocity": 0.44881889763779526
          },
          {
            "duration": 0.29999999999999716,
            "durationTicks": 480,
            "midi": 45,
            "name": "A2",
            "ticks": 120960,
            "time": 75.6,
            "velocity": 0.4330708661417323
          },
          {
            "duration": 0.15000000000000568,
            "durationTicks": 240,
            "midi": 61,
            "name": "C#4",
            "ticks": 121440,
            "time": 75.89999999999999,
            "velocity": 0.47244094488188976
          },
          {
            "duration": 0.15000000000000568,
            "durationTicks": 240,
            "midi": 69,
            "name": "A4",
            "ticks": 121440,
            "time": 75.89999999999999,
            "velocity": 0.47244094488188976
          },
          {
            "duration": 0.30000000000001137,
            "durationTicks": 480,
            "midi": 49,
            "name": "C#3",
            "ticks": 121440,
            "time": 75.89999999999999,
            "velocity": 0.49606299212598426
          },
          {
            "duration": 0.15000000000000568,
            "durationTicks": 240,
            "midi": 67,
            "name": "G4",
            "ticks": 121680,
            "time": 76.05,
            "velocity": 0.4566929133858268
          },
          {
            "duration": 0.29999999999999716,
            "durationTicks": 480,
            "midi": 66,
            "name": "F#4",
            "ticks": 121920,
            "time": 76.2,
            "velocity": 0.4645669291338583
          },
          {
            "duration": 0.29999999999999716,
            "durationTicks": 480,
            "midi": 52,
            "name": "E3",
            "ticks": 121920,
            "time": 76.2,
            "velocity": 0.5275590551181102
          },
          {
            "duration": 0.29999999999999716,
            "durationTicks": 480,
            "midi": 61,
            "name": "C#4",
            "ticks": 122400,
            "time": 76.5,
            "velocity": 0.41732283464566927
          },
          {
            "duration": 0.29999999999999716,
            "durationTicks": 480,
            "midi": 64,
            "name": "E4",
            "ticks": 122400,
            "time": 76.5,
            "velocity": 0.41732283464566927
          },
          {
            "duration": 0.29999999999999716,
            "durationTicks": 480,
            "midi": 57,
            "name": "A3",
            "ticks": 122400,
            "time": 76.5,
            "velocity": 0.5275590551181102
          },
          {
            "duration": 0.9000000000000057,
            "durationTicks": 1440,
            "midi": 74,
            "name": "D5",
            "ticks": 122880,
            "time": 76.8,
            "velocity": 0.5669291338582677
          },
          {
            "duration": 1.2000000000000028,
            "durationTicks": 1920,
            "midi": 62,
            "name": "D4",
            "ticks": 122880,
            "time": 76.8,
            "velocity": 0.5511811023622047
          },
          {
            "duration": 0.29999999999999716,
            "durationTicks": 480,
            "midi": 50,
            "name": "D3",
            "ticks": 122880,
            "time": 76.8,
            "velocity": 0.44881889763779526
          },
          {
            "duration": 0.29999999999999716,
            "durationTicks": 480,
            "midi": 54,
            "name": "F#3",
            "ticks": 123360,
            "time": 77.1,
            "velocity": 0.47244094488188976
          },
          {
            "duration": 0.30000000000001137,
            "durationTicks": 480,
            "midi": 57,
            "name": "A3",
            "ticks": 123840,
            "time": 77.39999999999999,
            "velocity": 0.5196850393700787
          },
          {
            "duration": 0.29999999999999716,
            "durationTicks": 480,
            "midi": 78,
            "name": "F#5",
            "ticks": 124320,
            "time": 77.7,
            "velocity": 0.5354330708661418
          },
          {
            "duration": 0.29999999999999716,
            "durationTicks": 480,
            "midi": 62,
            "name": "D4",
            "ticks": 124320,
            "time": 77.7,
            "velocity": 0.5433070866141733
          },
          {
            "duration": 0.29999999999999716,
            "durationTicks": 480,
            "midi": 78,
            "name": "F#5",
            "ticks": 124800,
            "time": 78,
            "velocity": 0.48031496062992124
          },
          {
            "duration": 1.2000000000000028,
            "durationTicks": 1920,
            "midi": 73,
            "name": "C#5",
            "ticks": 124800,
            "time": 78,
            "velocity": 0.7401574803149606
          },
          {
            "duration": 0.29999999999999716,
            "durationTicks": 480,
            "midi": 45,
            "name": "A2",
            "ticks": 124800,
            "time": 78,
            "velocity": 0.44881889763779526
          },
          {
            "duration": 0.29999999999999716,
            "durationTicks": 480,
            "midi": 79,
            "name": "G5",
            "ticks": 125280,
            "time": 78.3,
            "velocity": 0.5275590551181102
          },
          {
            "duration": 0.29999999999999716,
            "durationTicks": 480,
            "midi": 49,
            "name": "C#3",
            "ticks": 125280,
            "time": 78.3,
            "velocity": 0.4881889763779528
          },
          {
            "duration": 0.29999999999999716,
            "durationTicks": 480,
            "midi": 78,
            "name": "F#5",
            "ticks": 125760,
            "time": 78.6,
            "velocity": 0.4566929133858268
          },
          {
            "duration": 0.29999999999999716,
            "durationTicks": 480,
            "midi": 52,
            "name": "E3",
            "ticks": 125760,
            "time": 78.6,
            "velocity": 0.5039370078740157
          },
          {
            "duration": 0.30000000000001137,
            "durationTicks": 480,
            "midi": 76,
            "name": "E5",
            "ticks": 126240,
            "time": 78.89999999999999,
            "velocity": 0.4094488188976378
          },
          {
            "duration": 0.30000000000001137,
            "durationTicks": 480,
            "midi": 57,
            "name": "A3",
            "ticks": 126240,
            "time": 78.89999999999999,
            "velocity": 0.49606299212598426
          },
          {
            "duration": 0.8999999999999915,
            "durationTicks": 1440,
            "midi": 74,
            "name": "D5",
            "ticks": 126720,
            "time": 79.2,
            "velocity": 0.4409448818897638
          },
          {
            "duration": 1.1999999999999886,
            "durationTicks": 1920,
            "midi": 71,
            "name": "B4",
            "ticks": 126720,
            "time": 79.2,
            "velocity": 0.5905511811023622
          },
          {
            "duration": 0.29999999999999716,
            "durationTicks": 480,
            "midi": 47,
            "name": "B2",
            "ticks": 126720,
            "time": 79.2,
            "velocity": 0.4094488188976378
          },
          {
            "duration": 0.29999999999999716,
            "durationTicks": 480,
            "midi": 50,
            "name": "D3",
            "ticks": 127200,
            "time": 79.5,
            "velocity": 0.49606299212598426
          },
          {
            "duration": 0.29999999999999716,
            "durationTicks": 480,
            "midi": 54,
            "name": "F#3",
            "ticks": 127680,
            "time": 79.8,
            "velocity": 0.48031496062992124
          },
          {
            "duration": 0.29999999999999716,
            "durationTicks": 480,
            "midi": 74,
            "name": "D5",
            "ticks": 128160,
            "time": 80.1,
            "velocity": 0.47244094488188976
          },
          {
            "duration": 0.29999999999999716,
            "durationTicks": 480,
            "midi": 59,
            "name": "B3",
            "ticks": 128160,
            "time": 80.1,
            "velocity": 0.5039370078740157
          },
          {
            "duration": 0.30000000000001137,
            "durationTicks": 480,
            "midi": 74,
            "name": "D5",
            "ticks": 128640,
            "time": 80.39999999999999,
            "velocity": 0.47244094488188976
          },
          {
            "duration": 1.2000000000000028,
            "durationTicks": 1920,
            "midi": 69,
            "name": "A4",
            "ticks": 128640,
            "time": 80.39999999999999,
            "velocity": 0.5669291338582677
          },
          {
            "duration": 0.30000000000001137,
            "durationTicks": 480,
            "midi": 42,
            "name": "F#2",
            "ticks": 128640,
            "time": 80.39999999999999,
            "velocity": 0.4330708661417323
          },
          {
            "duration": 0.29999999999999716,
            "durationTicks": 480,
            "midi": 76,
            "name": "E5",
            "ticks": 129120,
            "time": 80.7,
            "velocity": 0.4881889763779528
          },
          {
            "duration": 0.29999999999999716,
            "durationTicks": 480,
            "midi": 45,
            "name": "A2",
            "ticks": 129120,
            "time": 80.7,
            "velocity": 0.4881889763779528
          },
          {
            "duration": 0.29999999999999716,
            "durationTicks": 480,
            "midi": 74,
            "name": "D5",
            "ticks": 129600,
            "time": 81,
            "velocity": 0.4566929133858268
          },
          {
            "duration": 0.29999999999999716,
            "durationTicks": 480,
            "midi": 49,
            "name": "C#3",
            "ticks": 129600,
            "time": 81,
            "velocity": 0.5354330708661418
          },
          {
            "duration": 0.29999999999999716,
            "durationTicks": 480,
            "midi": 73,
            "name": "C#5",
            "ticks": 130080,
            "time": 81.3,
            "velocity": 0.4251968503937008
          },
          {
            "duration": 0.29999999999999716,
            "durationTicks": 480,
            "midi": 54,
            "name": "F#3",
            "ticks": 130080,
            "time": 81.3,
            "velocity": 0.5196850393700787
          },
          {
            "duration": 1.2000000000000028,
            "durationTicks": 1920,
            "midi": 71,
            "name": "B4",
            "ticks": 130560,
            "time": 81.6,
            "velocity": 0.4566929133858268
          },
          {
            "duration": 1.2000000000000028,
            "durationTicks": 1920,
            "midi": 67,
            "name": "G4",
            "ticks": 130560,
            "time": 81.6,
            "velocity": 0.5511811023622047
          },
          {
            "duration": 0.29999999999999716,
            "durationTicks": 480,
            "midi": 43,
            "name": "G2",
            "ticks": 130560,
            "time": 81.6,
            "velocity": 0.44881889763779526
          },
          {
            "duration": 0.30000000000001137,
            "durationTicks": 480,
            "midi": 47,
            "name": "B2",
            "ticks": 131040,
            "time": 81.89999999999999,
            "velocity": 0.49606299212598426
          },
          {
            "duration": 0.29999999999999716,
            "durationTicks": 480,
            "midi": 50,
            "name": "D3",
            "ticks": 131520,
            "time": 82.2,
            "velocity": 0.4881889763779528
          },
          {
            "duration": 0.29999999999999716,
            "durationTicks": 480,
            "midi": 55,
            "name": "G3",
            "ticks": 132000,
            "time": 82.5,
            "velocity": 0.5196850393700787
          },
          {
            "duration": 1.2000000000000028,
            "durationTicks": 1920,
            "midi": 74,
            "name": "D5",
            "ticks": 132480,
            "time": 82.8,
            "velocity": 0.5354330708661418
          },
          {
            "duration": 1.2000000000000028,
            "durationTicks": 1920,
            "midi": 66,
            "name": "F#4",
            "ticks": 132480,
            "time": 82.8,
            "velocity": 0.5748031496062992
          },
          {
            "duration": 0.29999999999999716,
            "durationTicks": 480,
            "midi": 38,
            "name": "D2",
            "ticks": 132480,
            "time": 82.8,
            "velocity": 0.41732283464566927
          },
          {
            "duration": 0.29999999999999716,
            "durationTicks": 480,
            "midi": 42,
            "name": "F#2",
            "ticks": 132960,
            "time": 83.1,
            "velocity": 0.5275590551181102
          },
          {
            "duration": 0.30000000000001137,
            "durationTicks": 480,
            "midi": 45,
            "name": "A2",
            "ticks": 133440,
            "time": 83.39999999999999,
            "velocity": 0.49606299212598426
          },
          {
            "duration": 0.29999999999999716,
            "durationTicks": 480,
            "midi": 50,
            "name": "D3",
            "ticks": 133920,
            "time": 83.7,
            "velocity": 0.5118110236220472
          },
          {
            "duration": 0.29999999999999716,
            "durationTicks": 480,
            "midi": 74,
            "name": "D5",
            "ticks": 134400,
            "time": 84,
            "velocity": 0.49606299212598426
          },
          {
            "duration": 1.2000000000000028,
            "durationTicks": 1920,
            "midi": 67,
            "name": "G4",
            "ticks": 134400,
            "time": 84,
            "velocity": 0.6377952755905512
          },
          {
            "duration": 0.29999999999999716,
            "durationTicks": 480,
            "midi": 43,
            "name": "G2",
            "ticks": 134400,
            "time": 84,
            "velocity": 0.4251968503937008
          },
          {
            "duration": 0.29999999999999716,
            "durationTicks": 480,
            "midi": 72,
            "name": "C5",
            "ticks": 134880,
            "time": 84.3,
            "velocity": 0.4330708661417323
          },
          {
            "duration": 0.29999999999999716,
            "durationTicks": 480,
            "midi": 47,
            "name": "B2",
            "ticks": 134880,
            "time": 84.3,
            "velocity": 0.49606299212598426
          },
          {
            "duration": 0.29999999999999716,
            "durationTicks": 480,
            "midi": 71,
            "name": "B4",
            "ticks": 135360,
            "time": 84.6,
            "velocity": 0.4566929133858268
          },
          {
            "duration": 0.29999999999999716,
            "durationTicks": 480,
            "midi": 50,
            "name": "D3",
            "ticks": 135360,
            "time": 84.6,
            "velocity": 0.5039370078740157
          },
          {
            "duration": 0.30000000000001137,
            "durationTicks": 480,
            "midi": 72,
            "name": "C5",
            "ticks": 135840,
            "time": 84.89999999999999,
            "velocity": 0.49606299212598426
          },
          {
            "duration": 0.30000000000001137,
            "durationTicks": 480,
            "midi": 55,
            "name": "G3",
            "ticks": 135840,
            "time": 84.89999999999999,
            "velocity": 0.5433070866141733
          },
          {
            "duration": 1.1999999999999886,
            "durationTicks": 1920,
            "midi": 69,
            "name": "A4",
            "ticks": 136320,
            "time": 85.2,
            "velocity": 0.4094488188976378
          },
          {
            "duration": 0.5999999999999943,
            "durationTicks": 960,
            "midi": 64,
            "name": "E4",
            "ticks": 136320,
            "time": 85.2,
            "velocity": 0.5433070866141733
          },
          {
            "duration": 0.29999999999999716,
            "durationTicks": 480,
            "midi": 45,
            "name": "A2",
            "ticks": 136320,
            "time": 85.2,
            "velocity": 0.4409448818897638
          },
          {
            "duration": 0.29999999999999716,
            "durationTicks": 480,
            "midi": 49,
            "name": "C#3",
            "ticks": 136800,
            "time": 85.5,
            "velocity": 0.5039370078740157
          },
          {
            "duration": 0.5999999999999943,
            "durationTicks": 960,
            "midi": 61,
            "name": "C#4",
            "ticks": 137280,
            "time": 85.8,
            "velocity": 0.5118110236220472
          },
          {
            "duration": 0.29999999999999716,
            "durationTicks": 480,
            "midi": 52,
            "name": "E3",
            "ticks": 137280,
            "time": 85.8,
            "velocity": 0.5118110236220472
          },
          {
            "duration": 0.29999999999999716,
            "durationTicks": 480,
            "midi": 57,
            "name": "A3",
            "ticks": 137760,
            "time": 86.1,
            "velocity": 0.5590551181102362
          },
          {
            "duration": 0.6000000000000085,
            "durationTicks": 960,
            "midi": 74,
            "name": "D5",
            "ticks": 138240,
            "time": 86.39999999999999,
            "velocity": 0.5196850393700787
          },
          {
            "duration": 1.2000000000000028,
            "durationTicks": 1920,
            "midi": 66,
            "name": "F#4",
            "ticks": 138240,
            "time": 86.39999999999999,
            "velocity": 0.6535433070866141
          },
          {
            "duration": 0.30000000000001137,
            "durationTicks": 480,
            "midi": 50,
            "name": "D3",
            "ticks": 138240,
            "time": 86.39999999999999,
            "velocity": 0.4251968503937008
          },
          {
            "duration": 0.29999999999999716,
            "durationTicks": 480,
            "midi": 54,
            "name": "F#3",
            "ticks": 138720,
            "time": 86.7,
            "velocity": 0.5039370078740157
          },
          {
            "duration": 0.29999999999999716,
            "durationTicks": 480,
            "midi": 78,
            "name": "F#5",
            "ticks": 139200,
            "time": 87,
            "velocity": 0.5354330708661418
          },
          {
            "duration": 0.29999999999999716,
            "durationTicks": 480,
            "midi": 57,
            "name": "A3",
            "ticks": 139200,
            "time": 87,
            "velocity": 0.49606299212598426
          },
          {
            "duration": 0.29999999999999716,
            "durationTicks": 480,
            "midi": 78,
            "name": "F#5",
            "ticks": 139680,
            "time": 87.3,
            "velocity": 0.5433070866141733
          },
          {
            "duration": 0.29999999999999716,
            "durationTicks": 480,
            "midi": 81,
            "name": "A5",
            "ticks": 139680,
            "time": 87.3,
            "velocity": 0.5433070866141733
          },
          {
            "duration": 0.29999999999999716,
            "durationTicks": 480,
            "midi": 62,
            "name": "D4",
            "ticks": 139680,
            "time": 87.3,
            "velocity": 0.5590551181102362
          },
          {
            "duration": 0.29999999999999716,
            "durationTicks": 480,
            "midi": 78,
            "name": "F#5",
            "ticks": 140160,
            "time": 87.6,
            "velocity": 0.47244094488188976
          },
          {
            "duration": 0.29999999999999716,
            "durationTicks": 480,
            "midi": 81,
            "name": "A5",
            "ticks": 140160,
            "time": 87.6,
            "velocity": 0.47244094488188976
          },
          {
            "duration": 1.2000000000000028,
            "durationTicks": 1920,
            "midi": 73,
            "name": "C#5",
            "ticks": 140160,
            "time": 87.6,
            "velocity": 0.7165354330708661
          },
          {
            "duration": 0.29999999999999716,
            "durationTicks": 480,
            "midi": 45,
            "name": "A2",
            "ticks": 140160,
            "time": 87.6,
            "velocity": 0.41732283464566927
          },
          {
            "duration": 0.30000000000001137,
            "durationTicks": 480,
            "midi": 79,
            "name": "G5",
            "ticks": 140640,
            "time": 87.89999999999999,
            "velocity": 0.5039370078740157
          },
          {
            "duration": 0.30000000000001137,
            "durationTicks": 480,
            "midi": 83,
            "name": "B5",
            "ticks": 140640,
            "time": 87.89999999999999,
            "velocity": 0.5039370078740157
          },
          {
            "duration": 0.30000000000001137,
            "durationTicks": 480,
            "midi": 49,
            "name": "C#3",
            "ticks": 140640,
            "time": 87.89999999999999,
            "velocity": 0.4566929133858268
          },
          {
            "duration": 0.29999999999999716,
            "durationTicks": 480,
            "midi": 78,
            "name": "F#5",
            "ticks": 141120,
            "time": 88.2,
            "velocity": 0.47244094488188976
          },
          {
            "duration": 0.29999999999999716,
            "durationTicks": 480,
            "midi": 81,
            "name": "A5",
            "ticks": 141120,
            "time": 88.2,
            "velocity": 0.47244094488188976
          },
          {
            "duration": 0.29999999999999716,
            "durationTicks": 480,
            "midi": 52,
            "name": "E3",
            "ticks": 141120,
            "time": 88.2,
            "velocity": 0.4881889763779528
          },
          {
            "duration": 0.29999999999999716,
            "durationTicks": 480,
            "midi": 76,
            "name": "E5",
            "ticks": 141600,
            "time": 88.5,
            "velocity": 0.4330708661417323
          },
          {
            "duration": 0.29999999999999716,
            "durationTicks": 480,
            "midi": 79,
            "name": "G5",
            "ticks": 141600,
            "time": 88.5,
            "velocity": 0.4330708661417323
          },
          {
            "duration": 0.29999999999999716,
            "durationTicks": 480,
            "midi": 57,
            "name": "A3",
            "ticks": 141600,
            "time": 88.5,
            "velocity": 0.49606299212598426
          },
          {
            "duration": 0.9000000000000057,
            "durationTicks": 1440,
            "midi": 74,
            "name": "D5",
            "ticks": 142080,
            "time": 88.8,
            "velocity": 0.4645669291338583
          },
          {
            "duration": 0.9000000000000057,
            "durationTicks": 1440,
            "midi": 78,
            "name": "F#5",
            "ticks": 142080,
            "time": 88.8,
            "velocity": 0.4645669291338583
          },
          {
            "duration": 1.2000000000000028,
            "durationTicks": 1920,
            "midi": 71,
            "name": "B4",
            "ticks": 142080,
            "time": 88.8,
            "velocity": 0.5748031496062992
          },
          {
            "duration": 0.29999999999999716,
            "durationTicks": 480,
            "midi": 47,
            "name": "B2",
            "ticks": 142080,
            "time": 88.8,
            "velocity": 0.44881889763779526
          },
          {
            "duration": 0.29999999999999716,
            "durationTicks": 480,
            "midi": 50,
            "name": "D3",
            "ticks": 142560,
            "time": 89.1,
            "velocity": 0.4881889763779528
          },
          {
            "duration": 0.30000000000001137,
            "durationTicks": 480,
            "midi": 54,
            "name": "F#3",
            "ticks": 143040,
            "time": 89.39999999999999,
            "velocity": 0.5118110236220472
          },
          {
            "duration": 0.29999999999999716,
            "durationTicks": 480,
            "midi": 74,
            "name": "D5",
            "ticks": 143520,
            "time": 89.7,
            "velocity": 0.5039370078740157
          },
          {
            "duration": 0.29999999999999716,
            "durationTicks": 480,
            "midi": 78,
            "name": "F#5",
            "ticks": 143520,
            "time": 89.7,
            "velocity": 0.5039370078740157
          },
          {
            "duration": 0.29999999999999716,
            "durationTicks": 480,
            "midi": 59,
            "name": "B3",
            "ticks": 143520,
            "time": 89.7,
            "velocity": 0.5275590551181102
          },
          {
            "duration": 0.29999999999999716,
            "durationTicks": 480,
            "midi": 74,
            "name": "D5",
            "ticks": 144000,
            "time": 90,
            "velocity": 0.48031496062992124
          },
          {
            "duration": 0.29999999999999716,
            "durationTicks": 480,
            "midi": 78,
            "name": "F#5",
            "ticks": 144000,
            "time": 90,
            "velocity": 0.48031496062992124
          },
          {
            "duration": 1.2000000000000028,
            "durationTicks": 1920,
            "midi": 69,
            "name": "A4",
            "ticks": 144000,
            "time": 90,
            "velocity": 0.5118110236220472
          },
          {
            "duration": 0.29999999999999716,
            "durationTicks": 480,
            "midi": 42,
            "name": "F#2",
            "ticks": 144000,
            "time": 90,
            "velocity": 0.41732283464566927
          },
          {
            "duration": 0.29999999999999716,
            "durationTicks": 480,
            "midi": 76,
            "name": "E5",
            "ticks": 144480,
            "time": 90.3,
            "velocity": 0.5275590551181102
          },
          {
            "duration": 0.29999999999999716,
            "durationTicks": 480,
            "midi": 79,
            "name": "G5",
            "ticks": 144480,
            "time": 90.3,
            "velocity": 0.5275590551181102
          },
          {
            "duration": 0.29999999999999716,
            "durationTicks": 480,
            "midi": 45,
            "name": "A2",
            "ticks": 144480,
            "time": 90.3,
            "velocity": 0.47244094488188976
          },
          {
            "duration": 0.29999999999999716,
            "durationTicks": 480,
            "midi": 74,
            "name": "D5",
            "ticks": 144960,
            "time": 90.6,
            "velocity": 0.47244094488188976
          },
          {
            "duration": 0.29999999999999716,
            "durationTicks": 480,
            "midi": 78,
            "name": "F#5",
            "ticks": 144960,
            "time": 90.6,
            "velocity": 0.47244094488188976
          },
          {
            "duration": 0.29999999999999716,
            "durationTicks": 480,
            "midi": 49,
            "name": "C#3",
            "ticks": 144960,
            "time": 90.6,
            "velocity": 0.49606299212598426
          },
          {
            "duration": 0.30000000000001137,
            "durationTicks": 480,
            "midi": 73,
            "name": "C#5",
            "ticks": 145440,
            "time": 90.89999999999999,
            "velocity": 0.47244094488188976
          },
          {
            "duration": 0.30000000000001137,
            "durationTicks": 480,
            "midi": 76,
            "name": "E5",
            "ticks": 145440,
            "time": 90.89999999999999,
            "velocity": 0.47244094488188976
          },
          {
            "duration": 0.30000000000001137,
            "durationTicks": 480,
            "midi": 54,
            "name": "F#3",
            "ticks": 145440,
            "time": 90.89999999999999,
            "velocity": 0.5039370078740157
          },
          {
            "duration": 0.29999999999999716,
            "durationTicks": 480,
            "midi": 71,
            "name": "B4",
            "ticks": 145920,
            "time": 91.2,
            "velocity": 0.41732283464566927
          },
          {
            "duration": 0.29999999999999716,
            "durationTicks": 480,
            "midi": 74,
            "name": "D5",
            "ticks": 145920,
            "time": 91.2,
            "velocity": 0.41732283464566927
          },
          {
            "duration": 0.29999999999999716,
            "durationTicks": 480,
            "midi": 43,
            "name": "G2",
            "ticks": 145920,
            "time": 91.2,
            "velocity": 0.44881889763779526
          },
          {
            "duration": 0.29999999999999716,
            "durationTicks": 480,
            "midi": 72,
            "name": "C5",
            "ticks": 146400,
            "time": 91.5,
            "velocity": 0.4330708661417323
          },
          {
            "duration": 0.29999999999999716,
            "durationTicks": 480,
            "midi": 47,
            "name": "B2",
            "ticks": 146400,
            "time": 91.5,
            "velocity": 0.5433070866141733
          },
          {
            "duration": 0.29999999999999716,
            "durationTicks": 480,
            "midi": 71,
            "name": "B4",
            "ticks": 146880,
            "time": 91.8,
            "velocity": 0.4409448818897638
          },
          {
            "duration": 0.29999999999999716,
            "durationTicks": 480,
            "midi": 50,
            "name": "D3",
            "ticks": 146880,
            "time": 91.8,
            "velocity": 0.47244094488188976
          },
          {
            "duration": 0.29999999999999716,
            "durationTicks": 480,
            "midi": 72,
            "name": "C5",
            "ticks": 147360,
            "time": 92.1,
            "velocity": 0.5039370078740157
          },
          {
            "duration": 0.29999999999999716,
            "durationTicks": 480,
            "midi": 55,
            "name": "G3",
            "ticks": 147360,
            "time": 92.1,
            "velocity": 0.48031496062992124
          },
          {
            "duration": 1.2000000000000028,
            "durationTicks": 1920,
            "midi": 74,
            "name": "D5",
            "ticks": 147840,
            "time": 92.39999999999999,
            "velocity": 0.5275590551181102
          },
          {
            "duration": 0.30000000000001137,
            "durationTicks": 480,
            "midi": 38,
            "name": "D2",
            "ticks": 147840,
            "time": 92.39999999999999,
            "velocity": 0.44881889763779526
          },
          {
            "duration": 0.29999999999999716,
            "durationTicks": 480,
            "midi": 42,
            "name": "F#2",
            "ticks": 148320,
            "time": 92.7,
            "velocity": 0.5275590551181102
          },
          {
            "duration": 0.5999999999999943,
            "durationTicks": 960,
            "midi": 69,
            "name": "A4",
            "ticks": 148800,
            "time": 93,
            "velocity": 0.5669291338582677
          },
          {
            "duration": 0.29999999999999716,
            "durationTicks": 480,
            "midi": 45,
            "name": "A2",
            "ticks": 148800,
            "time": 93,
            "velocity": 0.5275590551181102
          },
          {
            "duration": 0.29999999999999716,
            "durationTicks": 480,
            "midi": 50,
            "name": "D3",
            "ticks": 149280,
            "time": 93.3,
            "velocity": 0.5275590551181102
          },
          {
            "duration": 0.29999999999999716,
            "durationTicks": 480,
            "midi": 71,
            "name": "B4",
            "ticks": 149760,
            "time": 93.6,
            "velocity": 0.44881889763779526
          },
          {
            "duration": 0.29999999999999716,
            "durationTicks": 480,
            "midi": 74,
            "name": "D5",
            "ticks": 149760,
            "time": 93.6,
            "velocity": 0.44881889763779526
          },
          {
            "duration": 0.29999999999999716,
            "durationTicks": 480,
            "midi": 43,
            "name": "G2",
            "ticks": 149760,
            "time": 93.6,
            "velocity": 0.4566929133858268
          },
          {
            "duration": 0.30000000000001137,
            "durationTicks": 480,
            "midi": 72,
            "name": "C5",
            "ticks": 150240,
            "time": 93.89999999999999,
            "velocity": 0.44881889763779526
          },
          {
            "duration": 0.30000000000001137,
            "durationTicks": 480,
            "midi": 47,
            "name": "B2",
            "ticks": 150240,
            "time": 93.89999999999999,
            "velocity": 0.4881889763779528
          },
          {
            "duration": 0.29999999999999716,
            "durationTicks": 480,
            "midi": 71,
            "name": "B4",
            "ticks": 150720,
            "time": 94.2,
            "velocity": 0.4409448818897638
          },
          {
            "duration": 0.29999999999999716,
            "durationTicks": 480,
            "midi": 50,
            "name": "D3",
            "ticks": 150720,
            "time": 94.2,
            "velocity": 0.47244094488188976
          },
          {
            "duration": 0.29999999999999716,
            "durationTicks": 480,
            "midi": 72,
            "name": "C5",
            "ticks": 151200,
            "time": 94.5,
            "velocity": 0.4881889763779528
          },
          {
            "duration": 0.29999999999999716,
            "durationTicks": 480,
            "midi": 55,
            "name": "G3",
            "ticks": 151200,
            "time": 94.5,
            "velocity": 0.5275590551181102
          },
          {
            "duration": 0.9000000000000057,
            "durationTicks": 1440,
            "midi": 69,
            "name": "A4",
            "ticks": 151680,
            "time": 94.8,
            "velocity": 0.4881889763779528
          },
          {
            "duration": 0.9000000000000057,
            "durationTicks": 1440,
            "midi": 73,
            "name": "C#5",
            "ticks": 151680,
            "time": 94.8,
            "velocity": 0.4881889763779528
          },
          {
            "duration": 0.29999999999999716,
            "durationTicks": 480,
            "midi": 45,
            "name": "A2",
            "ticks": 151680,
            "time": 94.8,
            "velocity": 0.41732283464566927
          },
          {
            "duration": 0.29999999999999716,
            "durationTicks": 480,
            "midi": 49,
            "name": "C#3",
            "ticks": 152160,
            "time": 95.1,
            "velocity": 0.5275590551181102
          },
          {
            "duration": 0.30000000000001137,
            "durationTicks": 480,
            "midi": 52,
            "name": "E3",
            "ticks": 152640,
            "time": 95.39999999999999,
            "velocity": 0.48031496062992124
          },
          {
            "duration": 0.29999999999999716,
            "durationTicks": 480,
            "midi": 69,
            "name": "A4",
            "ticks": 153120,
            "time": 95.7,
            "velocity": 0.4566929133858268
          },
          {
            "duration": 0.29999999999999716,
            "durationTicks": 480,
            "midi": 73,
            "name": "C#5",
            "ticks": 153120,
            "time": 95.7,
            "velocity": 0.4566929133858268
          },
          {
            "duration": 0.29999999999999716,
            "durationTicks": 480,
            "midi": 57,
            "name": "A3",
            "ticks": 153120,
            "time": 95.7,
            "velocity": 0.5196850393700787
          },
          {
            "duration": 0.5999999999999943,
            "durationTicks": 960,
            "midi": 74,
            "name": "D5",
            "ticks": 153600,
            "time": 96,
            "velocity": 0.48031496062992124
          },
          {
            "duration": 1.2000000000000028,
            "durationTicks": 1920,
            "midi": 66,
            "name": "F#4",
            "ticks": 153600,
            "time": 96,
            "velocity": 0.5354330708661418
          },
          {
            "duration": 0.29999999999999716,
            "durationTicks": 480,
            "midi": 50,
            "name": "D3",
            "ticks": 153600,
            "time": 96,
            "velocity": 0.4645669291338583
          },
          {
            "duration": 0.29999999999999716,
            "durationTicks": 480,
            "midi": 54,
            "name": "F#3",
            "ticks": 154080,
            "time": 96.3,
            "velocity": 0.5275590551181102
          },
          {
            "duration": 0.29999999999999716,
            "durationTicks": 480,
            "midi": 78,
            "name": "F#5",
            "ticks": 154560,
            "time": 96.6,
            "velocity": 0.5196850393700787
          },
          {
            "duration": 0.29999999999999716,
            "durationTicks": 480,
            "midi": 57,
            "name": "A3",
            "ticks": 154560,
            "time": 96.6,
            "velocity": 0.5354330708661418
          },
          {
            "duration": 0.30000000000001137,
            "durationTicks": 480,
            "midi": 78,
            "name": "F#5",
            "ticks": 155040,
            "time": 96.89999999999999,
            "velocity": 0.5354330708661418
          },
          {
            "duration": 0.30000000000001137,
            "durationTicks": 480,
            "midi": 81,
            "name": "A5",
            "ticks": 155040,
            "time": 96.89999999999999,
            "velocity": 0.5354330708661418
          },
          {
            "duration": 0.30000000000001137,
            "durationTicks": 480,
            "midi": 62,
            "name": "D4",
            "ticks": 155040,
            "time": 96.89999999999999,
            "velocity": 0.5511811023622047
          },
          {
            "duration": 0.29999999999999716,
            "durationTicks": 480,
            "midi": 78,
            "name": "F#5",
            "ticks": 155520,
            "time": 97.2,
            "velocity": 0.5039370078740157
          },
          {
            "duration": 0.29999999999999716,
            "durationTicks": 480,
            "midi": 81,
            "name": "A5",
            "ticks": 155520,
            "time": 97.2,
            "velocity": 0.5039370078740157
          },
          {
            "duration": 1.1999999999999886,
            "durationTicks": 1920,
            "midi": 73,
            "name": "C#5",
            "ticks": 155520,
            "time": 97.2,
            "velocity": 0.6850393700787402
          },
          {
            "duration": 0.29999999999999716,
            "durationTicks": 480,
            "midi": 45,
            "name": "A2",
            "ticks": 155520,
            "time": 97.2,
            "velocity": 0.4645669291338583
          },
          {
            "duration": 0.29999999999999716,
            "durationTicks": 480,
            "midi": 79,
            "name": "G5",
            "ticks": 156000,
            "time": 97.5,
            "velocity": 0.48031496062992124
          },
          {
            "duration": 0.29999999999999716,
            "durationTicks": 480,
            "midi": 83,
            "name": "B5",
            "ticks": 156000,
            "time": 97.5,
            "velocity": 0.48031496062992124
          },
          {
            "duration": 0.29999999999999716,
            "durationTicks": 480,
            "midi": 49,
            "name": "C#3",
            "ticks": 156000,
            "time": 97.5,
            "velocity": 0.5196850393700787
          },
          {
            "duration": 0.29999999999999716,
            "durationTicks": 480,
            "midi": 78,
            "name": "F#5",
            "ticks": 156480,
            "time": 97.8,
            "velocity": 0.47244094488188976
          },
          {
            "duration": 0.29999999999999716,
            "durationTicks": 480,
            "midi": 81,
            "name": "A5",
            "ticks": 156480,
            "time": 97.8,
            "velocity": 0.47244094488188976
          },
          {
            "duration": 0.29999999999999716,
            "durationTicks": 480,
            "midi": 52,
            "name": "E3",
            "ticks": 156480,
            "time": 97.8,
            "velocity": 0.5354330708661418
          },
          {
            "duration": 0.29999999999999716,
            "durationTicks": 480,
            "midi": 76,
            "name": "E5",
            "ticks": 156960,
            "time": 98.1,
            "velocity": 0.4409448818897638
          },
          {
            "duration": 0.29999999999999716,
            "durationTicks": 480,
            "midi": 79,
            "name": "G5",
            "ticks": 156960,
            "time": 98.1,
            "velocity": 0.4409448818897638
          },
          {
            "duration": 0.29999999999999716,
            "durationTicks": 480,
            "midi": 57,
            "name": "A3",
            "ticks": 156960,
            "time": 98.1,
            "velocity": 0.49606299212598426
          },
          {
            "duration": 0.9000000000000057,
            "durationTicks": 1440,
            "midi": 74,
            "name": "D5",
            "ticks": 157440,
            "time": 98.39999999999999,
            "velocity": 0.48031496062992124
          },
          {
            "duration": 0.9000000000000057,
            "durationTicks": 1440,
            "midi": 78,
            "name": "F#5",
            "ticks": 157440,
            "time": 98.39999999999999,
            "velocity": 0.48031496062992124
          },
          {
            "duration": 1.2000000000000028,
            "durationTicks": 1920,
            "midi": 71,
            "name": "B4",
            "ticks": 157440,
            "time": 98.39999999999999,
            "velocity": 0.5905511811023622
          },
          {
            "duration": 0.30000000000001137,
            "durationTicks": 480,
            "midi": 47,
            "name": "B2",
            "ticks": 157440,
            "time": 98.39999999999999,
            "velocity": 0.44881889763779526
          },
          {
            "duration": 0.29999999999999716,
            "durationTicks": 480,
            "midi": 50,
            "name": "D3",
            "ticks": 157920,
            "time": 98.7,
            "velocity": 0.49606299212598426
          },
          {
            "duration": 0.29999999999999716,
            "durationTicks": 480,
            "midi": 54,
            "name": "F#3",
            "ticks": 158400,
            "time": 99,
            "velocity": 0.5039370078740157
          },
          {
            "duration": 0.29999999999999716,
            "durationTicks": 480,
            "midi": 74,
            "name": "D5",
            "ticks": 158880,
            "time": 99.3,
            "velocity": 0.44881889763779526
          },
          {
            "duration": 0.29999999999999716,
            "durationTicks": 480,
            "midi": 78,
            "name": "F#5",
            "ticks": 158880,
            "time": 99.3,
            "velocity": 0.44881889763779526
          },
          {
            "duration": 0.29999999999999716,
            "durationTicks": 480,
            "midi": 59,
            "name": "B3",
            "ticks": 158880,
            "time": 99.3,
            "velocity": 0.5275590551181102
          },
          {
            "duration": 0.29999999999999716,
            "durationTicks": 480,
            "midi": 74,
            "name": "D5",
            "ticks": 159360,
            "time": 99.6,
            "velocity": 0.5118110236220472
          },
          {
            "duration": 0.29999999999999716,
            "durationTicks": 480,
            "midi": 78,
            "name": "F#5",
            "ticks": 159360,
            "time": 99.6,
            "velocity": 0.5118110236220472
          },
          {
            "duration": 1.2000000000000028,
            "durationTicks": 1920,
            "midi": 69,
            "name": "A4",
            "ticks": 159360,
            "time": 99.6,
            "velocity": 0.5669291338582677
          },
          {
            "duration": 0.29999999999999716,
            "durationTicks": 480,
            "midi": 42,
            "name": "F#2",
            "ticks": 159360,
            "time": 99.6,
            "velocity": 0.4330708661417323
          },
          {
            "duration": 0.30000000000001137,
            "durationTicks": 480,
            "midi": 76,
            "name": "E5",
            "ticks": 159840,
            "time": 99.89999999999999,
            "velocity": 0.5196850393700787
          },
          {
            "duration": 0.30000000000001137,
            "durationTicks": 480,
            "midi": 79,
            "name": "G5",
            "ticks": 159840,
            "time": 99.89999999999999,
            "velocity": 0.5196850393700787
          },
          {
            "duration": 0.30000000000001137,
            "durationTicks": 480,
            "midi": 45,
            "name": "A2",
            "ticks": 159840,
            "time": 99.89999999999999,
            "velocity": 0.5039370078740157
          },
          {
            "duration": 0.29999999999999716,
            "durationTicks": 480,
            "midi": 74,
            "name": "D5",
            "ticks": 160320,
            "time": 100.2,
            "velocity": 0.47244094488188976
          },
          {
            "duration": 0.29999999999999716,
            "durationTicks": 480,
            "midi": 78,
            "name": "F#5",
            "ticks": 160320,
            "time": 100.2,
            "velocity": 0.47244094488188976
          },
          {
            "duration": 0.29999999999999716,
            "durationTicks": 480,
            "midi": 49,
            "name": "C#3",
            "ticks": 160320,
            "time": 100.2,
            "velocity": 0.5196850393700787
          },
          {
            "duration": 0.29999999999999716,
            "durationTicks": 480,
            "midi": 73,
            "name": "C#5",
            "ticks": 160800,
            "time": 100.5,
            "velocity": 0.4251968503937008
          },
          {
            "duration": 0.29999999999999716,
            "durationTicks": 480,
            "midi": 76,
            "name": "E5",
            "ticks": 160800,
            "time": 100.5,
            "velocity": 0.4251968503937008
          },
          {
            "duration": 0.29999999999999716,
            "durationTicks": 480,
            "midi": 54,
            "name": "F#3",
            "ticks": 160800,
            "time": 100.5,
            "velocity": 0.49606299212598426
          },
          {
            "duration": 0.29999999999999716,
            "durationTicks": 480,
            "midi": 71,
            "name": "B4",
            "ticks": 161280,
            "time": 100.8,
            "velocity": 0.4015748031496063
          },
          {
            "duration": 0.29999999999999716,
            "durationTicks": 480,
            "midi": 74,
            "name": "D5",
            "ticks": 161280,
            "time": 100.8,
            "velocity": 0.4015748031496063
          },
          {
            "duration": 0.29999999999999716,
            "durationTicks": 480,
            "midi": 43,
            "name": "G2",
            "ticks": 161280,
            "time": 100.8,
            "velocity": 0.4409448818897638
          },
          {
            "duration": 0.29999999999999716,
            "durationTicks": 480,
            "midi": 72,
            "name": "C5",
            "ticks": 161760,
            "time": 101.1,
            "velocity": 0.4409448818897638
          },
          {
            "duration": 0.29999999999999716,
            "durationTicks": 480,
            "midi": 47,
            "name": "B2",
            "ticks": 161760,
            "time": 101.1,
            "velocity": 0.48031496062992124
          },
          {
            "duration": 0.30000000000001137,
            "durationTicks": 480,
            "midi": 71,
            "name": "B4",
            "ticks": 162240,
            "time": 101.39999999999999,
            "velocity": 0.47244094488188976
          },
          {
            "duration": 0.30000000000001137,
            "durationTicks": 480,
            "midi": 50,
            "name": "D3",
            "ticks": 162240,
            "time": 101.39999999999999,
            "velocity": 0.5039370078740157
          },
          {
            "duration": 0.29999999999999716,
            "durationTicks": 480,
            "midi": 72,
            "name": "C5",
            "ticks": 162720,
            "time": 101.7,
            "velocity": 0.47244094488188976
          },
          {
            "duration": 0.29999999999999716,
            "durationTicks": 480,
            "midi": 55,
            "name": "G3",
            "ticks": 162720,
            "time": 101.7,
            "velocity": 0.5118110236220472
          },
          {
            "duration": 1.2000000000000028,
            "durationTicks": 1920,
            "midi": 74,
            "name": "D5",
            "ticks": 163200,
            "time": 102,
            "velocity": 0.4645669291338583
          },
          {
            "duration": 0.29999999999999716,
            "durationTicks": 480,
            "midi": 38,
            "name": "D2",
            "ticks": 163200,
            "time": 102,
            "velocity": 0.41732283464566927
          },
          {
            "duration": 0.29999999999999716,
            "durationTicks": 480,
            "midi": 42,
            "name": "F#2",
            "ticks": 163680,
            "time": 102.3,
            "velocity": 0.49606299212598426
          },
          {
            "duration": 0.6000000000000085,
            "durationTicks": 960,
            "midi": 69,
            "name": "A4",
            "ticks": 164160,
            "time": 102.6,
            "velocity": 0.5511811023622047
          },
          {
            "duration": 0.29999999999999716,
            "durationTicks": 480,
            "midi": 45,
            "name": "A2",
            "ticks": 164160,
            "time": 102.6,
            "velocity": 0.5275590551181102
          },
          {
            "duration": 0.30000000000001137,
            "durationTicks": 480,
            "midi": 50,
            "name": "D3",
            "ticks": 164640,
            "time": 102.89999999999999,
            "velocity": 0.5275590551181102
          },
          {
            "duration": 0.29999999999999716,
            "durationTicks": 480,
            "midi": 71,
            "name": "B4",
            "ticks": 165120,
            "time": 103.2,
            "velocity": 0.49606299212598426
          },
          {
            "duration": 0.29999999999999716,
            "durationTicks": 480,
            "midi": 74,
            "name": "D5",
            "ticks": 165120,
            "time": 103.2,
            "velocity": 0.49606299212598426
          },
          {
            "duration": 0.29999999999999716,
            "durationTicks": 480,
            "midi": 43,
            "name": "G2",
            "ticks": 165120,
            "time": 103.2,
            "velocity": 0.44881889763779526
          },
          {
            "duration": 0.29999999999999716,
            "durationTicks": 480,
            "midi": 72,
            "name": "C5",
            "ticks": 165600,
            "time": 103.5,
            "velocity": 0.4881889763779528
          },
          {
            "duration": 0.29999999999999716,
            "durationTicks": 480,
            "midi": 47,
            "name": "B2",
            "ticks": 165600,
            "time": 103.5,
            "velocity": 0.4566929133858268
          },
          {
            "duration": 0.29999999999999716,
            "durationTicks": 480,
            "midi": 71,
            "name": "B4",
            "ticks": 166080,
            "time": 103.8,
            "velocity": 0.4094488188976378
          },
          {
            "duration": 0.29999999999999716,
            "durationTicks": 480,
            "midi": 50,
            "name": "D3",
            "ticks": 166080,
            "time": 103.8,
            "velocity": 0.5039370078740157
          },
          {
            "duration": 0.29999999999999716,
            "durationTicks": 480,
            "midi": 72,
            "name": "C5",
            "ticks": 166560,
            "time": 104.1,
            "velocity": 0.5196850393700787
          },
          {
            "duration": 0.29999999999999716,
            "durationTicks": 480,
            "midi": 55,
            "name": "G3",
            "ticks": 166560,
            "time": 104.1,
            "velocity": 0.5118110236220472
          },
          {
            "duration": 0.9000000000000057,
            "durationTicks": 1440,
            "midi": 69,
            "name": "A4",
            "ticks": 167040,
            "time": 104.39999999999999,
            "velocity": 0.4881889763779528
          },
          {
            "duration": 0.9000000000000057,
            "durationTicks": 1440,
            "midi": 73,
            "name": "C#5",
            "ticks": 167040,
            "time": 104.39999999999999,
            "velocity": 0.4881889763779528
          },
          {
            "duration": 0.30000000000001137,
            "durationTicks": 480,
            "midi": 45,
            "name": "A2",
            "ticks": 167040,
            "time": 104.39999999999999,
            "velocity": 0.4409448818897638
          },
          {
            "duration": 0.29999999999999716,
            "durationTicks": 480,
            "midi": 49,
            "name": "C#3",
            "ticks": 167520,
            "time": 104.7,
            "velocity": 0.48031496062992124
          },
          {
            "duration": 0.29999999999999716,
            "durationTicks": 480,
            "midi": 52,
            "name": "E3",
            "ticks": 168000,
            "time": 105,
            "velocity": 0.5196850393700787
          },
          {
            "duration": 0.29999999999999716,
            "durationTicks": 480,
            "midi": 69,
            "name": "A4",
            "ticks": 168480,
            "time": 105.3,
            "velocity": 0.48031496062992124
          },
          {
            "duration": 0.29999999999999716,
            "durationTicks": 480,
            "midi": 73,
            "name": "C#5",
            "ticks": 168480,
            "time": 105.3,
            "velocity": 0.48031496062992124
          },
          {
            "duration": 0.29999999999999716,
            "durationTicks": 480,
            "midi": 57,
            "name": "A3",
            "ticks": 168480,
            "time": 105.3,
            "velocity": 0.49606299212598426
          },
          {
            "duration": 0.6000000000000085,
            "durationTicks": 960,
            "midi": 74,
            "name": "D5",
            "ticks": 168960,
            "time": 105.6,
            "velocity": 0.5275590551181102
          },
          {
            "duration": 1.2000000000000028,
            "durationTicks": 1920,
            "midi": 66,
            "name": "F#4",
            "ticks": 168960,
            "time": 105.6,
            "velocity": 0.5354330708661418
          },
          {
            "duration": 0.29999999999999716,
            "durationTicks": 480,
            "midi": 50,
            "name": "D3",
            "ticks": 168960,
            "time": 105.6,
            "velocity": 0.4566929133858268
          },
          {
            "duration": 0.30000000000001137,
            "durationTicks": 480,
            "midi": 54,
            "name": "F#3",
            "ticks": 169440,
            "time": 105.89999999999999,
            "velocity": 0.4881889763779528
          },
          {
            "duration": 0.29999999999999716,
            "durationTicks": 480,
            "midi": 78,
            "name": "F#5",
            "ticks": 169920,
            "time": 106.2,
            "velocity": 0.5275590551181102
          },
          {
            "duration": 0.29999999999999716,
            "durationTicks": 480,
            "midi": 57,
            "name": "A3",
            "ticks": 169920,
            "time": 106.2,
            "velocity": 0.5433070866141733
          },
          {
            "duration": 0.29999999999999716,
            "durationTicks": 480,
            "midi": 78,
            "name": "F#5",
            "ticks": 170400,
            "time": 106.5,
            "velocity": 0.5354330708661418
          },
          {
            "duration": 0.29999999999999716,
            "durationTicks": 480,
            "midi": 81,
            "name": "A5",
            "ticks": 170400,
            "time": 106.5,
            "velocity": 0.5354330708661418
          },
          {
            "duration": 0.29999999999999716,
            "durationTicks": 480,
            "midi": 62,
            "name": "D4",
            "ticks": 170400,
            "time": 106.5,
            "velocity": 0.5354330708661418
          },
          {
            "duration": 0.29999999999999716,
            "durationTicks": 480,
            "midi": 78,
            "name": "F#5",
            "ticks": 170880,
            "time": 106.8,
            "velocity": 0.4881889763779528
          },
          {
            "duration": 0.29999999999999716,
            "durationTicks": 480,
            "midi": 81,
            "name": "A5",
            "ticks": 170880,
            "time": 106.8,
            "velocity": 0.4881889763779528
          },
          {
            "duration": 1.2000000000000028,
            "durationTicks": 1920,
            "midi": 73,
            "name": "C#5",
            "ticks": 170880,
            "time": 106.8,
            "velocity": 0.7244094488188977
          },
          {
            "duration": 0.29999999999999716,
            "durationTicks": 480,
            "midi": 45,
            "name": "A2",
            "ticks": 170880,
            "time": 106.8,
            "velocity": 0.4251968503937008
          },
          {
            "duration": 0.29999999999999716,
            "durationTicks": 480,
            "midi": 79,
            "name": "G5",
            "ticks": 171360,
            "time": 107.1,
            "velocity": 0.5039370078740157
          },
          {
            "duration": 0.29999999999999716,
            "durationTicks": 480,
            "midi": 83,
            "name": "B5",
            "ticks": 171360,
            "time": 107.1,
            "velocity": 0.5039370078740157
          },
          {
            "duration": 0.29999999999999716,
            "durationTicks": 480,
            "midi": 49,
            "name": "C#3",
            "ticks": 171360,
            "time": 107.1,
            "velocity": 0.4645669291338583
          },
          {
            "duration": 0.30000000000001137,
            "durationTicks": 480,
            "midi": 78,
            "name": "F#5",
            "ticks": 171840,
            "time": 107.39999999999999,
            "velocity": 0.47244094488188976
          },
          {
            "duration": 0.30000000000001137,
            "durationTicks": 480,
            "midi": 81,
            "name": "A5",
            "ticks": 171840,
            "time": 107.39999999999999,
            "velocity": 0.47244094488188976
          },
          {
            "duration": 0.30000000000001137,
            "durationTicks": 480,
            "midi": 52,
            "name": "E3",
            "ticks": 171840,
            "time": 107.39999999999999,
            "velocity": 0.4881889763779528
          },
          {
            "duration": 0.29999999999999716,
            "durationTicks": 480,
            "midi": 76,
            "name": "E5",
            "ticks": 172320,
            "time": 107.7,
            "velocity": 0.4330708661417323
          },
          {
            "duration": 0.29999999999999716,
            "durationTicks": 480,
            "midi": 79,
            "name": "G5",
            "ticks": 172320,
            "time": 107.7,
            "velocity": 0.4330708661417323
          },
          {
            "duration": 0.29999999999999716,
            "durationTicks": 480,
            "midi": 57,
            "name": "A3",
            "ticks": 172320,
            "time": 107.7,
            "velocity": 0.4881889763779528
          },
          {
            "duration": 0.5999999999999943,
            "durationTicks": 960,
            "midi": 74,
            "name": "D5",
            "ticks": 172800,
            "time": 108,
            "velocity": 0.48031496062992124
          },
          {
            "duration": 0.5999999999999943,
            "durationTicks": 960,
            "midi": 78,
            "name": "F#5",
            "ticks": 172800,
            "time": 108,
            "velocity": 0.48031496062992124
          },
          {
            "duration": 0.8999999999999915,
            "durationTicks": 1440,
            "midi": 71,
            "name": "B4",
            "ticks": 172800,
            "time": 108,
            "velocity": 0.5669291338582677
          },
          {
            "duration": 0.29999999999999716,
            "durationTicks": 480,
            "midi": 47,
            "name": "B2",
            "ticks": 172800,
            "time": 108,
            "velocity": 0.4645669291338583
          },
          {
            "duration": 0.29999999999999716,
            "durationTicks": 480,
            "midi": 50,
            "name": "D3",
            "ticks": 173280,
            "time": 108.3,
            "velocity": 0.4881889763779528
          },
          {
            "duration": 1.2000000000000028,
            "durationTicks": 1920,
            "midi": 86,
            "name": "D6",
            "ticks": 173760,
            "time": 108.6,
            "velocity": 0.5433070866141733
          },
          {
            "duration": 0.29999999999999716,
            "durationTicks": 480,
            "midi": 54,
            "name": "F#3",
            "ticks": 173760,
            "time": 108.6,
            "velocity": 0.49606299212598426
          },
          {
            "duration": 0.30000000000001137,
            "durationTicks": 480,
            "midi": 78,
            "name": "F#5",
            "ticks": 174240,
            "time": 108.89999999999999,
            "velocity": 0.7244094488188977
          },
          {
            "duration": 0.30000000000001137,
            "durationTicks": 480,
            "midi": 59,
            "name": "B3",
            "ticks": 174240,
            "time": 108.89999999999999,
            "velocity": 0.5433070866141733
          },
          {
            "duration": 0.29999999999999716,
            "durationTicks": 480,
            "midi": 78,
            "name": "F#5",
            "ticks": 174720,
            "time": 109.2,
            "velocity": 0.6141732283464567
          },
          {
            "duration": 0.29999999999999716,
            "durationTicks": 480,
            "midi": 42,
            "name": "F#2",
            "ticks": 174720,
            "time": 109.2,
            "velocity": 0.4251968503937008
          },
          {
            "duration": 0.29999999999999716,
            "durationTicks": 480,
            "midi": 79,
            "name": "G5",
            "ticks": 175200,
            "time": 109.5,
            "velocity": 0.6377952755905512
          },
          {
            "duration": 0.29999999999999716,
            "durationTicks": 480,
            "midi": 45,
            "name": "A2",
            "ticks": 175200,
            "time": 109.5,
            "velocity": 0.5118110236220472
          },
          {
            "duration": 0.5999999999999943,
            "durationTicks": 960,
            "midi": 85,
            "name": "C#6",
            "ticks": 175680,
            "time": 109.8,
            "velocity": 0.4409448818897638
          },
          {
            "duration": 0.29999999999999716,
            "durationTicks": 480,
            "midi": 78,
            "name": "F#5",
            "ticks": 175680,
            "time": 109.8,
            "velocity": 0.5905511811023622
          },
          {
            "duration": 0.29999999999999716,
            "durationTicks": 480,
            "midi": 49,
            "name": "C#3",
            "ticks": 175680,
            "time": 109.8,
            "velocity": 0.5196850393700787
          },
          {
            "duration": 0.29999999999999716,
            "durationTicks": 480,
            "midi": 76,
            "name": "E5",
            "ticks": 176160,
            "time": 110.1,
            "velocity": 0.5275590551181102
          },
          {
            "duration": 0.29999999999999716,
            "durationTicks": 480,
            "midi": 54,
            "name": "F#3",
            "ticks": 176160,
            "time": 110.1,
            "velocity": 0.5039370078740157
          },
          {
            "duration": 1.2000000000000028,
            "durationTicks": 1920,
            "midi": 83,
            "name": "B5",
            "ticks": 176640,
            "time": 110.39999999999999,
            "velocity": 0.4881889763779528
          },
          {
            "duration": 0.30000000000001137,
            "durationTicks": 480,
            "midi": 74,
            "name": "D5",
            "ticks": 176640,
            "time": 110.39999999999999,
            "velocity": 0.5590551181102362
          },
          {
            "duration": 0.30000000000001137,
            "durationTicks": 480,
            "midi": 43,
            "name": "G2",
            "ticks": 176640,
            "time": 110.39999999999999,
            "velocity": 0.3858267716535433
          },
          {
            "duration": 0.29999999999999716,
            "durationTicks": 480,
            "midi": 72,
            "name": "C5",
            "ticks": 177120,
            "time": 110.7,
            "velocity": 0.5590551181102362
          },
          {
            "duration": 0.29999999999999716,
            "durationTicks": 480,
            "midi": 47,
            "name": "B2",
            "ticks": 177120,
            "time": 110.7,
            "velocity": 0.5196850393700787
          },
          {
            "duration": 0.29999999999999716,
            "durationTicks": 480,
            "midi": 71,
            "name": "B4",
            "ticks": 177600,
            "time": 111,
            "velocity": 0.5748031496062992
          },
          {
            "duration": 0.29999999999999716,
            "durationTicks": 480,
            "midi": 50,
            "name": "D3",
            "ticks": 177600,
            "time": 111,
            "velocity": 0.5039370078740157
          },
          {
            "duration": 0.29999999999999716,
            "durationTicks": 480,
            "midi": 72,
            "name": "C5",
            "ticks": 178080,
            "time": 111.3,
            "velocity": 0.6220472440944882
          },
          {
            "duration": 0.29999999999999716,
            "durationTicks": 480,
            "midi": 55,
            "name": "G3",
            "ticks": 178080,
            "time": 111.3,
            "velocity": 0.5511811023622047
          },
          {
            "duration": 1.2000000000000028,
            "durationTicks": 1920,
            "midi": 81,
            "name": "A5",
            "ticks": 178560,
            "time": 111.6,
            "velocity": 0.41732283464566927
          },
          {
            "duration": 1.2000000000000028,
            "durationTicks": 1920,
            "midi": 74,
            "name": "D5",
            "ticks": 178560,
            "time": 111.6,
            "velocity": 0.6299212598425197
          },
          {
            "duration": 0.29999999999999716,
            "durationTicks": 480,
            "midi": 38,
            "name": "D2",
            "ticks": 178560,
            "time": 111.6,
            "velocity": 0.44881889763779526
          },
          {
            "duration": 0.30000000000001137,
            "durationTicks": 480,
            "midi": 42,
            "name": "F#2",
            "ticks": 179040,
            "time": 111.89999999999999,
            "velocity": 0.5275590551181102
          },
          {
            "duration": 0.29999999999999716,
            "durationTicks": 480,
            "midi": 45,
            "name": "A2",
            "ticks": 179520,
            "time": 112.2,
            "velocity": 0.5196850393700787
          },
          {
            "duration": 0.29999999999999716,
            "durationTicks": 480,
            "midi": 50,
            "name": "D3",
            "ticks": 180000,
            "time": 112.5,
            "velocity": 0.5354330708661418
          },
          {
            "duration": 1.2000000000000028,
            "durationTicks": 1920,
            "midi": 74,
            "name": "D5",
            "ticks": 180480,
            "time": 112.8,
            "velocity": 0.5196850393700787
          },
          {
            "duration": 1.2000000000000028,
            "durationTicks": 1920,
            "midi": 83,
            "name": "B5",
            "ticks": 180480,
            "time": 112.8,
            "velocity": 0.5196850393700787
          },
          {
            "duration": 0.29999999999999716,
            "durationTicks": 480,
            "midi": 43,
            "name": "G2",
            "ticks": 180480,
            "time": 112.8,
            "velocity": 0.4330708661417323
          },
          {
            "duration": 0.29999999999999716,
            "durationTicks": 480,
            "midi": 47,
            "name": "B2",
            "ticks": 180960,
            "time": 113.1,
            "velocity": 0.5039370078740157
          },
          {
            "duration": 0.30000000000001137,
            "durationTicks": 480,
            "midi": 50,
            "name": "D3",
            "ticks": 181440,
            "time": 113.39999999999999,
            "velocity": 0.4881889763779528
          },
          {
            "duration": 0.29999999999999716,
            "durationTicks": 480,
            "midi": 55,
            "name": "G3",
            "ticks": 181920,
            "time": 113.7,
            "velocity": 0.5511811023622047
          },
          {
            "duration": 1.1999999999999886,
            "durationTicks": 1920,
            "midi": 76,
            "name": "E5",
            "ticks": 182400,
            "time": 114,
            "velocity": 0.5039370078740157
          },
          {
            "duration": 1.1999999999999886,
            "durationTicks": 1920,
            "midi": 85,
            "name": "C#6",
            "ticks": 182400,
            "time": 114,
            "velocity": 0.5039370078740157
          },
          {
            "duration": 0.29999999999999716,
            "durationTicks": 480,
            "midi": 45,
            "name": "A2",
            "ticks": 182400,
            "time": 114,
            "velocity": 0.4409448818897638
          },
          {
            "duration": 0.29999999999999716,
            "durationTicks": 480,
            "midi": 49,
            "name": "C#3",
            "ticks": 182880,
            "time": 114.3,
            "velocity": 0.5196850393700787
          },
          {
            "duration": 0.29999999999999716,
            "durationTicks": 480,
            "midi": 52,
            "name": "E3",
            "ticks": 183360,
            "time": 114.6,
            "velocity": 0.5275590551181102
          },
          {
            "duration": 0.29999999999999716,
            "durationTicks": 480,
            "midi": 57,
            "name": "A3",
            "ticks": 183840,
            "time": 114.89999999999999,
            "velocity": 0.5275590551181102
          },
          {
            "duration": 0.6000000000000085,
            "durationTicks": 960,
            "midi": 66,
            "name": "F#4",
            "ticks": 184320,
            "time": 115.19999999999999,
            "velocity": 0.36220472440944884
          },
          {
            "duration": 0.6000000000000085,
            "durationTicks": 960,
            "midi": 74,
            "name": "D5",
            "ticks": 184320,
            "time": 115.19999999999999,
            "velocity": 0.36220472440944884
          },
          {
            "duration": 0.30000000000001137,
            "durationTicks": 480,
            "midi": 50,
            "name": "D3",
            "ticks": 184320,
            "time": 115.19999999999999,
            "velocity": 0.44881889763779526
          },
          {
            "duration": 0.29999999999999716,
            "durationTicks": 480,
            "midi": 62,
            "name": "D4",
            "ticks": 184800,
            "time": 115.5,
            "velocity": 0.6141732283464567
          },
          {
            "duration": 0.29999999999999716,
            "durationTicks": 480,
            "midi": 66,
            "name": "F#4",
            "ticks": 185280,
            "time": 115.8,
            "velocity": 0.3464566929133858
          },
          {
            "duration": 0.29999999999999716,
            "durationTicks": 480,
            "midi": 69,
            "name": "A4",
            "ticks": 185760,
            "time": 116.1,
            "velocity": 0.5039370078740157
          },
          {
            "duration": 0.6000000000000085,
            "durationTicks": 960,
            "midi": 64,
            "name": "E4",
            "ticks": 186240,
            "time": 116.39999999999999,
            "velocity": 0.5354330708661418
          },
          {
            "duration": 0.6000000000000085,
            "durationTicks": 960,
            "midi": 73,
            "name": "C#5",
            "ticks": 186240,
            "time": 116.39999999999999,
            "velocity": 0.5354330708661418
          },
          {
            "duration": 0.29999999999999716,
            "durationTicks": 480,
            "midi": 45,
            "name": "A2",
            "ticks": 186240,
            "time": 116.39999999999999,
            "velocity": 0.4409448818897638
          },
          {
            "duration": 0.30000000000001137,
            "durationTicks": 480,
            "midi": 57,
            "name": "A3",
            "ticks": 186720,
            "time": 116.69999999999999,
            "velocity": 0.5118110236220472
          },
          {
            "duration": 0.29999999999999716,
            "durationTicks": 480,
            "midi": 61,
            "name": "C#4",
            "ticks": 187200,
            "time": 117,
            "velocity": 0.3937007874015748
          },
          {
            "duration": 0.29999999999999716,
            "durationTicks": 480,
            "midi": 64,
            "name": "E4",
            "ticks": 187680,
            "time": 117.3,
            "velocity": 0.47244094488188976
          },
          {
            "duration": 0.5999999999999943,
            "durationTicks": 960,
            "midi": 62,
            "name": "D4",
            "ticks": 188160,
            "time": 117.6,
            "velocity": 0.5669291338582677
          },
          {
            "duration": 0.5999999999999943,
            "durationTicks": 960,
            "midi": 71,
            "name": "B4",
            "ticks": 188160,
            "time": 117.6,
            "velocity": 0.5669291338582677
          },
          {
            "duration": 0.29999999999999716,
            "durationTicks": 480,
            "midi": 47,
            "name": "B2",
            "ticks": 188160,
            "time": 117.6,
            "velocity": 0.4094488188976378
          },
          {
            "duration": 0.29999999999999716,
            "durationTicks": 480,
            "midi": 59,
            "name": "B3",
            "ticks": 188640,
            "time": 117.89999999999999,
            "velocity": 0.5669291338582677
          },
          {
            "duration": 0.30000000000001137,
            "durationTicks": 480,
            "midi": 62,
            "name": "D4",
            "ticks": 189120,
            "time": 118.19999999999999,
            "velocity": 0.3779527559055118
          },
          {
            "duration": 0.29999999999999716,
            "durationTicks": 480,
            "midi": 66,
            "name": "F#4",
            "ticks": 189600,
            "time": 118.5,
            "velocity": 0.5275590551181102
          },
          {
            "duration": 0.5999999999999943,
            "durationTicks": 960,
            "midi": 61,
            "name": "C#4",
            "ticks": 190080,
            "time": 118.8,
            "velocity": 0.5196850393700787
          },
          {
            "duration": 0.5999999999999943,
            "durationTicks": 960,
            "midi": 69,
            "name": "A4",
            "ticks": 190080,
            "time": 118.8,
            "velocity": 0.5196850393700787
          },
          {
            "duration": 0.29999999999999716,
            "durationTicks": 480,
            "midi": 42,
            "name": "F#2",
            "ticks": 190080,
            "time": 118.8,
            "velocity": 0.4566929133858268
          },
          {
            "duration": 0.29999999999999716,
            "durationTicks": 480,
            "midi": 54,
            "name": "F#3",
            "ticks": 190560,
            "time": 119.1,
            "velocity": 0.5118110236220472
          },
          {
            "duration": 0.29999999999999716,
            "durationTicks": 480,
            "midi": 57,
            "name": "A3",
            "ticks": 191040,
            "time": 119.39999999999999,
            "velocity": 0.4330708661417323
          },
          {
            "duration": 0.30000000000001137,
            "durationTicks": 480,
            "midi": 61,
            "name": "C#4",
            "ticks": 191520,
            "time": 119.69999999999999,
            "velocity": 0.5511811023622047
          },
          {
            "duration": 0.5999999999999943,
            "durationTicks": 960,
            "midi": 59,
            "name": "B3",
            "ticks": 192000,
            "time": 120,
            "velocity": 0.5196850393700787
          },
          {
            "duration": 0.5999999999999943,
            "durationTicks": 960,
            "midi": 67,
            "name": "G4",
            "ticks": 192000,
            "time": 120,
            "velocity": 0.5196850393700787
          },
          {
            "duration": 0.29999999999999716,
            "durationTicks": 480,
            "midi": 43,
            "name": "G2",
            "ticks": 192000,
            "time": 120,
            "velocity": 0.4251968503937008
          },
          {
            "duration": 0.29999999999999716,
            "durationTicks": 480,
            "midi": 55,
            "name": "G3",
            "ticks": 192480,
            "time": 120.3,
            "velocity": 0.5354330708661418
          },
          {
            "duration": 0.29999999999999716,
            "durationTicks": 480,
            "midi": 59,
            "name": "B3",
            "ticks": 192960,
            "time": 120.6,
            "velocity": 0.4566929133858268
          },
          {
            "duration": 0.29999999999999716,
            "durationTicks": 480,
            "midi": 62,
            "name": "D4",
            "ticks": 193440,
            "time": 120.89999999999999,
            "velocity": 0.5511811023622047
          },
          {
            "duration": 0.6000000000000085,
            "durationTicks": 960,
            "midi": 62,
            "name": "D4",
            "ticks": 193920,
            "time": 121.19999999999999,
            "velocity": 0.5433070866141733
          },
          {
            "duration": 0.6000000000000085,
            "durationTicks": 960,
            "midi": 66,
            "name": "F#4",
            "ticks": 193920,
            "time": 121.19999999999999,
            "velocity": 0.5433070866141733
          },
          {
            "duration": 0.30000000000001137,
            "durationTicks": 480,
            "midi": 38,
            "name": "D2",
            "ticks": 193920,
            "time": 121.19999999999999,
            "velocity": 0.48031496062992124
          },
          {
            "duration": 0.29999999999999716,
            "durationTicks": 480,
            "midi": 50,
            "name": "D3",
            "ticks": 194400,
            "time": 121.5,
            "velocity": 0.5354330708661418
          },
          {
            "duration": 0.29999999999999716,
            "durationTicks": 480,
            "midi": 54,
            "name": "F#3",
            "ticks": 194880,
            "time": 121.8,
            "velocity": 0.4409448818897638
          },
          {
            "duration": 0.29999999999999716,
            "durationTicks": 480,
            "midi": 57,
            "name": "A3",
            "ticks": 195360,
            "time": 122.1,
            "velocity": 0.5118110236220472
          },
          {
            "duration": 0.6000000000000085,
            "durationTicks": 960,
            "midi": 59,
            "name": "B3",
            "ticks": 195840,
            "time": 122.39999999999999,
            "velocity": 0.5590551181102362
          },
          {
            "duration": 0.6000000000000085,
            "durationTicks": 960,
            "midi": 67,
            "name": "G4",
            "ticks": 195840,
            "time": 122.39999999999999,
            "velocity": 0.5590551181102362
          },
          {
            "duration": 0.29999999999999716,
            "durationTicks": 480,
            "midi": 43,
            "name": "G2",
            "ticks": 195840,
            "time": 122.39999999999999,
            "velocity": 0.4251968503937008
          },
          {
            "duration": 0.30000000000001137,
            "durationTicks": 480,
            "midi": 55,
            "name": "G3",
            "ticks": 196320,
            "time": 122.69999999999999,
            "velocity": 0.5275590551181102
          },
          {
            "duration": 0.29999999999999716,
            "durationTicks": 480,
            "midi": 59,
            "name": "B3",
            "ticks": 196800,
            "time": 123,
            "velocity": 0.48031496062992124
          },
          {
            "duration": 0.29999999999999716,
            "durationTicks": 480,
            "midi": 62,
            "name": "D4",
            "ticks": 197280,
            "time": 123.3,
            "velocity": 0.4881889763779528
          },
          {
            "duration": 0.5999999999999943,
            "durationTicks": 960,
            "midi": 61,
            "name": "C#4",
            "ticks": 197760,
            "time": 123.6,
            "velocity": 0.5433070866141733
          },
          {
            "duration": 0.5999999999999943,
            "durationTicks": 960,
            "midi": 69,
            "name": "A4",
            "ticks": 197760,
            "time": 123.6,
            "velocity": 0.5433070866141733
          },
          {
            "duration": 0.29999999999999716,
            "durationTicks": 480,
            "midi": 45,
            "name": "A2",
            "ticks": 197760,
            "time": 123.6,
            "velocity": 0.4094488188976378
          },
          {
            "duration": 0.29999999999999716,
            "durationTicks": 480,
            "midi": 57,
            "name": "A3",
            "ticks": 198240,
            "time": 123.89999999999999,
            "velocity": 0.5118110236220472
          },
          {
            "duration": 0.30000000000001137,
            "durationTicks": 480,
            "midi": 61,
            "name": "C#4",
            "ticks": 198720,
            "time": 124.19999999999999,
            "velocity": 0.4015748031496063
          },
          {
            "duration": 0.29999999999999716,
            "durationTicks": 480,
            "midi": 64,
            "name": "E4",
            "ticks": 199200,
            "time": 124.5,
            "velocity": 0.5433070866141733
          },
          {
            "duration": 1.2000000000000028,
            "durationTicks": 1920,
            "midi": 62,
            "name": "D4",
            "ticks": 199680,
            "time": 124.8,
            "velocity": 0.4881889763779528
          },
          {
            "duration": 1.2000000000000028,
            "durationTicks": 1920,
            "midi": 66,
            "name": "F#4",
            "ticks": 199680,
            "time": 124.8,
            "velocity": 0.4881889763779528
          },
          {
            "duration": 1.2000000000000028,
            "durationTicks": 1920,
            "midi": 50,
            "name": "D3",
            "ticks": 199680,
            "time": 124.8,
            "velocity": 0.4330708661417323
          },
          {
            "duration": 1.1999999999999886,
            "durationTicks": 1920,
            "midi": 61,
            "name": "C#4",
            "ticks": 201600,
            "time": 126,
            "velocity": 0.4566929133858268
          },
          {
            "duration": 1.1999999999999886,
            "durationTicks": 1920,
            "midi": 64,
            "name": "E4",
            "ticks": 201600,
            "time": 126,
            "velocity": 0.4566929133858268
          },
          {
            "duration": 1.1999999999999886,
            "durationTicks": 1920,
            "midi": 45,
            "name": "A2",
            "ticks": 201600,
            "time": 126,
            "velocity": 0.4015748031496063
          },
          {
            "duration": 1.200000000000017,
            "durationTicks": 1920,
            "midi": 59,
            "name": "B3",
            "ticks": 203520,
            "time": 127.19999999999999,
            "velocity": 0.4409448818897638
          },
          {
            "duration": 1.200000000000017,
            "durationTicks": 1920,
            "midi": 62,
            "name": "D4",
            "ticks": 203520,
            "time": 127.19999999999999,
            "velocity": 0.4409448818897638
          },
          {
            "duration": 1.200000000000017,
            "durationTicks": 1920,
            "midi": 47,
            "name": "B2",
            "ticks": 203520,
            "time": 127.19999999999999,
            "velocity": 0.49606299212598426
          },
          {
            "duration": 1.1999999999999886,
            "durationTicks": 1920,
            "midi": 57,
            "name": "A3",
            "ticks": 205440,
            "time": 128.4,
            "velocity": 0.44881889763779526
          },
          {
            "duration": 1.1999999999999886,
            "durationTicks": 1920,
            "midi": 61,
            "name": "C#4",
            "ticks": 205440,
            "time": 128.4,
            "velocity": 0.44881889763779526
          },
          {
            "duration": 1.1999999999999886,
            "durationTicks": 1920,
            "midi": 42,
            "name": "F#2",
            "ticks": 205440,
            "time": 128.4,
            "velocity": 0.4566929133858268
          },
          {
            "duration": 1.1999999999999886,
            "durationTicks": 1920,
            "midi": 55,
            "name": "G3",
            "ticks": 207360,
            "time": 129.6,
            "velocity": 0.4645669291338583
          },
          {
            "duration": 1.1999999999999886,
            "durationTicks": 1920,
            "midi": 59,
            "name": "B3",
            "ticks": 207360,
            "time": 129.6,
            "velocity": 0.4645669291338583
          },
          {
            "duration": 1.1999999999999886,
            "durationTicks": 1920,
            "midi": 43,
            "name": "G2",
            "ticks": 207360,
            "time": 129.6,
            "velocity": 0.5118110236220472
          },
          {
            "duration": 1.200000000000017,
            "durationTicks": 1920,
            "midi": 54,
            "name": "F#3",
            "ticks": 209280,
            "time": 130.79999999999998,
            "velocity": 0.4881889763779528
          },
          {
            "duration": 1.200000000000017,
            "durationTicks": 1920,
            "midi": 57,
            "name": "A3",
            "ticks": 209280,
            "time": 130.79999999999998,
            "velocity": 0.4881889763779528
          },
          {
            "duration": 1.200000000000017,
            "durationTicks": 1920,
            "midi": 38,
            "name": "D2",
            "ticks": 209280,
            "time": 130.79999999999998,
            "velocity": 0.44881889763779526
          },
          {
            "duration": 1.1999999999999886,
            "durationTicks": 1920,
            "midi": 55,
            "name": "G3",
            "ticks": 211200,
            "time": 132,
            "velocity": 0.5039370078740157
          },
          {
            "duration": 1.1999999999999886,
            "durationTicks": 1920,
            "midi": 59,
            "name": "B3",
            "ticks": 211200,
            "time": 132,
            "velocity": 0.5039370078740157
          },
          {
            "duration": 1.1999999999999886,
            "durationTicks": 1920,
            "midi": 43,
            "name": "G2",
            "ticks": 211200,
            "time": 132,
            "velocity": 0.5433070866141733
          },
          {
            "duration": 1.200000000000017,
            "durationTicks": 1920,
            "midi": 57,
            "name": "A3",
            "ticks": 213120,
            "time": 133.2,
            "velocity": 0.5196850393700787
          },
          {
            "duration": 1.200000000000017,
            "durationTicks": 1920,
            "midi": 61,
            "name": "C#4",
            "ticks": 213120,
            "time": 133.2,
            "velocity": 0.5196850393700787
          },
          {
            "duration": 1.200000000000017,
            "durationTicks": 1920,
            "midi": 45,
            "name": "A2",
            "ticks": 213120,
            "time": 133.2,
            "velocity": 0.48031496062992124
          },
          {
            "duration": 2.3999999999999773,
            "durationTicks": 3840,
            "midi": 54,
            "name": "F#3",
            "ticks": 215040,
            "time": 134.4,
            "velocity": 0.48031496062992124
          },
          {
            "duration": 2.3999999999999773,
            "durationTicks": 3840,
            "midi": 62,
            "name": "D4",
            "ticks": 215040,
            "time": 134.4,
            "velocity": 0.48031496062992124
          },
          {
            "duration": 2.3999999999999773,
            "durationTicks": 3840,
            "midi": 38,
            "name": "D2",
            "ticks": 215040,
            "time": 134.4,
            "velocity": 0.4330708661417323
          }
        ],
        "endOfTrackTicks": 218881
      }
    ]
  }