dust = {
    "header": {
      "keySignatures": [
        {
          "key": "C",
          "scale": "major",
          "ticks": 0
        }
      ],
      "meta": [],
      "name": "Dust",
      "ppq": 96,
      "tempos": [
        {
          "bpm": 93.00004185001883,
          "ticks": 0
        }
      ],
      "timeSignatures": [
        {
          "ticks": 0,
          "timeSignature": [
            4,
            4
          ],
          "measures": 0
        }
      ]
    },
    "tracks": [
      {
        "channel": 0,
        "controlChanges": {
          "1": [
            {
              "number": 1,
              "ticks": 385,
              "time": 2.5873644270833336,
              "value": 0
            }
          ],
          "7": [
            {
              "number": 7,
              "ticks": 99,
              "time": 0.66532228125,
              "value": 0.8267716535433071
            }
          ],
          "10": [
            {
              "number": 10,
              "ticks": 99,
              "time": 0.66532228125,
              "value": 0.28346456692913385
            }
          ],
          "11": [
            {
              "number": 11,
              "ticks": 99,
              "time": 0.66532228125,
              "value": 1
            }
          ],
          "91": [
            {
              "number": 91,
              "ticks": 100,
              "time": 0.6720427083333333,
              "value": 0.5511811023622047
            }
          ],
          "93": [
            {
              "number": 93,
              "ticks": 100,
              "time": 0.6720427083333333,
              "value": 0.3543307086614173
            }
          ]
        },
        "pitchBends": [
          {
            "ticks": 385,
            "time": 2.5873644270833336,
            "value": 0
          }
        ],
        "instrument": {
          "family": "guitar",
          "number": 25,
          "name": "acoustic guitar (steel)"
        },
        "name": "Dust",
        "notes": [
          {
            "duration": 0.4233869062500002,
            "durationTicks": 63,
            "midi": 48,
            "name": "C3",
            "ticks": 384,
            "time": 2.580644,
            "velocity": 0.6299212598425197
          },
          {
            "duration": 0.6989244166666664,
            "durationTicks": 104,
            "midi": 60,
            "name": "C4",
            "ticks": 384,
            "time": 2.580644,
            "velocity": 0.6771653543307087
          },
          {
            "duration": 0.38978477083333374,
            "durationTicks": 58,
            "midi": 55,
            "name": "G3",
            "ticks": 432,
            "time": 2.9032245,
            "velocity": 0.6062992125984252
          },
          {
            "duration": 0.43010733333333384,
            "durationTicks": 64,
            "midi": 48,
            "name": "C3",
            "ticks": 480,
            "time": 3.225805,
            "velocity": 0.6220472440944882
          },
          {
            "duration": 0.5443545937500001,
            "durationTicks": 81,
            "midi": 60,
            "name": "C4",
            "ticks": 504,
            "time": 3.38709525,
            "velocity": 0.6850393700787402
          },
          {
            "duration": 0.34946220833333363,
            "durationTicks": 52,
            "midi": 55,
            "name": "G3",
            "ticks": 528,
            "time": 3.5483854999999997,
            "velocity": 0.5905511811023622
          },
          {
            "duration": 0.44354818749999936,
            "durationTicks": 66,
            "midi": 48,
            "name": "C3",
            "ticks": 576,
            "time": 3.870966,
            "velocity": 0.6062992125984252
          },
          {
            "duration": 0.6787631354166663,
            "durationTicks": 101,
            "midi": 59,
            "name": "B3",
            "ticks": 576,
            "time": 3.870966,
            "velocity": 0.6220472440944882
          },
          {
            "duration": 0.3696234895833337,
            "durationTicks": 55,
            "midi": 55,
            "name": "G3",
            "ticks": 624,
            "time": 4.1935465,
            "velocity": 0.6220472440944882
          },
          {
            "duration": 0.40322562500000014,
            "durationTicks": 60,
            "midi": 48,
            "name": "C3",
            "ticks": 672,
            "time": 4.516127,
            "velocity": 0.6062992125984252
          },
          {
            "duration": 0.577956729166667,
            "durationTicks": 86,
            "midi": 59,
            "name": "B3",
            "ticks": 696,
            "time": 4.6774172499999995,
            "velocity": 0.6456692913385826
          },
          {
            "duration": 0.34946220833333275,
            "durationTicks": 52,
            "midi": 55,
            "name": "G3",
            "ticks": 720,
            "time": 4.8387075,
            "velocity": 0.6220472440944882
          },
          {
            "duration": 0.4233869062500002,
            "durationTicks": 63,
            "midi": 48,
            "name": "C3",
            "ticks": 768,
            "time": 5.161288,
            "velocity": 0.6141732283464567
          },
          {
            "duration": 0.7325265520833328,
            "durationTicks": 109,
            "midi": 62,
            "name": "D4",
            "ticks": 768,
            "time": 5.161288,
            "velocity": 0.6614173228346457
          },
          {
            "duration": 0.3696234895833328,
            "durationTicks": 55,
            "midi": 55,
            "name": "G3",
            "ticks": 816,
            "time": 5.4838685,
            "velocity": 0.6220472440944882
          },
          {
            "duration": 0.3830643437500001,
            "durationTicks": 57,
            "midi": 48,
            "name": "C3",
            "ticks": 864,
            "time": 5.806449,
            "velocity": 0.6141732283464567
          },
          {
            "duration": 0.5577954479166669,
            "durationTicks": 83,
            "midi": 62,
            "name": "D4",
            "ticks": 888,
            "time": 5.96773925,
            "velocity": 0.6535433070866141
          },
          {
            "duration": 0.3696234895833328,
            "durationTicks": 55,
            "midi": 55,
            "name": "G3",
            "ticks": 911,
            "time": 6.122309072916667,
            "velocity": 0.6299212598425197
          },
          {
            "duration": 0.4099460520833329,
            "durationTicks": 61,
            "midi": 48,
            "name": "C3",
            "ticks": 959,
            "time": 6.444889572916667,
            "velocity": 0.6220472440944882
          },
          {
            "duration": 0.70564484375,
            "durationTicks": 105,
            "midi": 60,
            "name": "C4",
            "ticks": 960,
            "time": 6.45161,
            "velocity": 0.6299212598425197
          },
          {
            "duration": 0.3830643437500001,
            "durationTicks": 57,
            "midi": 55,
            "name": "G3",
            "ticks": 1007,
            "time": 6.767470072916667,
            "velocity": 0.6141732283464567
          },
          {
            "duration": 0.43010733333333295,
            "durationTicks": 64,
            "midi": 48,
            "name": "C3",
            "ticks": 1056,
            "time": 7.0967709999999995,
            "velocity": 0.6299212598425197
          },
          {
            "duration": 0.5107524583333332,
            "durationTicks": 76,
            "midi": 60,
            "name": "C4",
            "ticks": 1080,
            "time": 7.25806125,
            "velocity": 0.7007874015748031
          },
          {
            "duration": 0.2956987916666671,
            "durationTicks": 44,
            "midi": 55,
            "name": "G3",
            "ticks": 1104,
            "time": 7.419351499999999,
            "velocity": 0.6535433070866141
          },
          {
            "duration": 0.7459674062499992,
            "durationTicks": 111,
            "midi": 59,
            "name": "B3",
            "ticks": 1152,
            "time": 7.741932,
            "velocity": 0.6299212598425197
          },
          {
            "duration": 0.37634391666666644,
            "durationTicks": 56,
            "midi": 45,
            "name": "A2",
            "ticks": 1152,
            "time": 7.741932,
            "velocity": 0.6377952755905512
          },
          {
            "duration": 0.3965051979166674,
            "durationTicks": 59,
            "midi": 52,
            "name": "E3",
            "ticks": 1200,
            "time": 8.0645125,
            "velocity": 0.6141732283464567
          },
          {
            "duration": 0.38978477083333196,
            "durationTicks": 58,
            "midi": 45,
            "name": "A2",
            "ticks": 1248,
            "time": 8.387093,
            "velocity": 0.5826771653543307
          },
          {
            "duration": 0.5443545937499987,
            "durationTicks": 81,
            "midi": 59,
            "name": "B3",
            "ticks": 1272,
            "time": 8.54838325,
            "velocity": 0.6456692913385826
          },
          {
            "duration": 0.3293009270833327,
            "durationTicks": 49,
            "midi": 52,
            "name": "E3",
            "ticks": 1296,
            "time": 8.7096735,
            "velocity": 0.6141732283464567
          },
          {
            "duration": 0.7392469791666674,
            "durationTicks": 110,
            "midi": 62,
            "name": "D4",
            "ticks": 1344,
            "time": 9.032254,
            "velocity": 0.6377952755905512
          },
          {
            "duration": 0.4099460520833329,
            "durationTicks": 61,
            "midi": 45,
            "name": "A2",
            "ticks": 1344,
            "time": 9.032254,
            "velocity": 0.5748031496062992
          },
          {
            "duration": 0.34274178125,
            "durationTicks": 51,
            "midi": 52,
            "name": "E3",
            "ticks": 1392,
            "time": 9.354834499999999,
            "velocity": 0.6062992125984252
          },
          {
            "duration": 0.450268614583333,
            "durationTicks": 67,
            "midi": 45,
            "name": "A2",
            "ticks": 1439,
            "time": 9.670694572916666,
            "velocity": 0.5905511811023622
          },
          {
            "duration": 0.5376341666666651,
            "durationTicks": 80,
            "midi": 62,
            "name": "D4",
            "ticks": 1464,
            "time": 9.83870525,
            "velocity": 0.6850393700787402
          },
          {
            "duration": 0.3494622083333354,
            "durationTicks": 52,
            "midi": 52,
            "name": "E3",
            "ticks": 1488,
            "time": 9.999995499999999,
            "velocity": 0.6062992125984252
          },
          {
            "duration": 0.4368277604166657,
            "durationTicks": 65,
            "midi": 45,
            "name": "A2",
            "ticks": 1536,
            "time": 10.322576,
            "velocity": 0.5905511811023622
          },
          {
            "duration": 0.7325265520833337,
            "durationTicks": 109,
            "midi": 60,
            "name": "C4",
            "ticks": 1536,
            "time": 10.322576,
            "velocity": 0.6220472440944882
          },
          {
            "duration": 0.35618263541666906,
            "durationTicks": 53,
            "midi": 52,
            "name": "E3",
            "ticks": 1583,
            "time": 10.638436072916665,
            "velocity": 0.6062992125984252
          },
          {
            "duration": 0.4368277604166675,
            "durationTicks": 65,
            "midi": 45,
            "name": "A2",
            "ticks": 1631,
            "time": 10.961016572916666,
            "velocity": 0.5984251968503937
          },
          {
            "duration": 0.48387074999999946,
            "durationTicks": 72,
            "midi": 60,
            "name": "C4",
            "ticks": 1656,
            "time": 11.12902725,
            "velocity": 0.6929133858267716
          },
          {
            "duration": 0.34274178125,
            "durationTicks": 51,
            "midi": 52,
            "name": "E3",
            "ticks": 1679,
            "time": 11.283597072916665,
            "velocity": 0.6141732283464567
          },
          {
            "duration": 0.4368277604166675,
            "durationTicks": 65,
            "midi": 45,
            "name": "A2",
            "ticks": 1727,
            "time": 11.606177572916666,
            "velocity": 0.5590551181102362
          },
          {
            "duration": 0.7594082604166665,
            "durationTicks": 113,
            "midi": 59,
            "name": "B3",
            "ticks": 1728,
            "time": 11.612898,
            "velocity": 0.5984251968503937
          },
          {
            "duration": 0.37634391666666467,
            "durationTicks": 56,
            "midi": 52,
            "name": "E3",
            "ticks": 1776,
            "time": 11.9354785,
            "velocity": 0.6220472440944882
          },
          {
            "duration": 0.34274178125,
            "durationTicks": 51,
            "midi": 45,
            "name": "A2",
            "ticks": 1824,
            "time": 12.258059,
            "velocity": 0.5826771653543307
          },
          {
            "duration": 0.5309137395833332,
            "durationTicks": 79,
            "midi": 59,
            "name": "B3",
            "ticks": 1848,
            "time": 12.41934925,
            "velocity": 0.6614173228346457
          },
          {
            "duration": 0.30241921875000166,
            "durationTicks": 45,
            "midi": 52,
            "name": "E3",
            "ticks": 1871,
            "time": 12.573919072916665,
            "velocity": 0.6377952755905512
          },
          {
            "duration": 0.43010733333333384,
            "durationTicks": 64,
            "midi": 48,
            "name": "C3",
            "ticks": 1919,
            "time": 12.896499572916666,
            "velocity": 0.6220472440944882
          },
          {
            "duration": 0.7526878333333347,
            "durationTicks": 112,
            "midi": 62,
            "name": "D4",
            "ticks": 1920,
            "time": 12.90322,
            "velocity": 0.6456692913385826
          },
          {
            "duration": 0.4233869062499984,
            "durationTicks": 63,
            "midi": 55,
            "name": "G3",
            "ticks": 1967,
            "time": 13.219080072916666,
            "velocity": 0.5433070866141733
          },
          {
            "duration": 0.40322562500000103,
            "durationTicks": 60,
            "midi": 48,
            "name": "C3",
            "ticks": 2016,
            "time": 13.548381,
            "velocity": 0.6141732283464567
          },
          {
            "duration": 0.5040320312500004,
            "durationTicks": 75,
            "midi": 62,
            "name": "D4",
            "ticks": 2040,
            "time": 13.70967125,
            "velocity": 0.6850393700787402
          },
          {
            "duration": 0.3763439166666682,
            "durationTicks": 56,
            "midi": 55,
            "name": "G3",
            "ticks": 2063,
            "time": 13.864241072916666,
            "velocity": 0.6141732283464567
          },
          {
            "duration": 0.39650519791666916,
            "durationTicks": 59,
            "midi": 48,
            "name": "C3",
            "ticks": 2111,
            "time": 14.186821572916665,
            "velocity": 0.6062992125984252
          },
          {
            "duration": 0.7258061250000001,
            "durationTicks": 108,
            "midi": 60,
            "name": "C4",
            "ticks": 2112,
            "time": 14.193541999999999,
            "velocity": 0.6141732283464567
          },
          {
            "duration": 0.40322562499999925,
            "durationTicks": 60,
            "midi": 55,
            "name": "G3",
            "ticks": 2159,
            "time": 14.509402072916666,
            "velocity": 0.6141732283464567
          },
          {
            "duration": 0.3763439166666682,
            "durationTicks": 56,
            "midi": 48,
            "name": "C3",
            "ticks": 2207,
            "time": 14.831982572916665,
            "velocity": 0.6141732283464567
          },
          {
            "duration": 0.5040320312500004,
            "durationTicks": 75,
            "midi": 60,
            "name": "C4",
            "ticks": 2232,
            "time": 14.99999325,
            "velocity": 0.6614173228346457
          },
          {
            "duration": 0.36290306249999915,
            "durationTicks": 54,
            "midi": 55,
            "name": "G3",
            "ticks": 2255,
            "time": 15.154563072916666,
            "velocity": 0.5826771653543307
          },
          {
            "duration": 0.38978477083333374,
            "durationTicks": 58,
            "midi": 48,
            "name": "C3",
            "ticks": 2303,
            "time": 15.477143572916665,
            "velocity": 0.6141732283464567
          },
          {
            "duration": 0.7190856979166647,
            "durationTicks": 107,
            "midi": 59,
            "name": "B3",
            "ticks": 2304,
            "time": 15.483864,
            "velocity": 0.6062992125984252
          },
          {
            "duration": 0.3830643437499983,
            "durationTicks": 57,
            "midi": 55,
            "name": "G3",
            "ticks": 2351,
            "time": 15.799724072916666,
            "velocity": 0.5826771653543307
          },
          {
            "duration": 0.3629030625000027,
            "durationTicks": 54,
            "midi": 48,
            "name": "C3",
            "ticks": 2400,
            "time": 16.129025,
            "velocity": 0.6299212598425197
          },
          {
            "duration": 0.5645158750000014,
            "durationTicks": 84,
            "midi": 59,
            "name": "B3",
            "ticks": 2424,
            "time": 16.29031525,
            "velocity": 0.6535433070866141
          },
          {
            "duration": 0.36290306249999915,
            "durationTicks": 54,
            "midi": 55,
            "name": "G3",
            "ticks": 2448,
            "time": 16.4516055,
            "velocity": 0.5984251968503937
          },
          {
            "duration": 0.7123652708333346,
            "durationTicks": 106,
            "midi": 62,
            "name": "D4",
            "ticks": 2496,
            "time": 16.774186,
            "velocity": 0.5826771653543307
          },
          {
            "duration": 0.34946220833333186,
            "durationTicks": 52,
            "midi": 48,
            "name": "C3",
            "ticks": 2496,
            "time": 16.774186,
            "velocity": 0.5905511811023622
          },
          {
            "duration": 0.3696234895833328,
            "durationTicks": 55,
            "midi": 55,
            "name": "G3",
            "ticks": 2544,
            "time": 17.0967665,
            "velocity": 0.6141732283464567
          },
          {
            "duration": 0.38978477083333374,
            "durationTicks": 58,
            "midi": 48,
            "name": "C3",
            "ticks": 2592,
            "time": 17.419347,
            "velocity": 0.6141732283464567
          },
          {
            "duration": 0.48387075000000124,
            "durationTicks": 72,
            "midi": 62,
            "name": "D4",
            "ticks": 2616,
            "time": 17.58063725,
            "velocity": 0.6535433070866141
          },
          {
            "duration": 0.32930092708333447,
            "durationTicks": 49,
            "midi": 55,
            "name": "G3",
            "ticks": 2640,
            "time": 17.7419275,
            "velocity": 0.6535433070866141
          },
          {
            "duration": 0.7728491145833338,
            "durationTicks": 115,
            "midi": 60,
            "name": "C4",
            "ticks": 2687,
            "time": 18.057787572916666,
            "velocity": 0.6456692913385826
          },
          {
            "duration": 0.4099460520833347,
            "durationTicks": 61,
            "midi": 45,
            "name": "A2",
            "ticks": 2687,
            "time": 18.057787572916666,
            "velocity": 0.6141732283464567
          },
          {
            "duration": 0.3830643437500001,
            "durationTicks": 57,
            "midi": 52,
            "name": "E3",
            "ticks": 2736,
            "time": 18.3870885,
            "velocity": 0.6062992125984252
          },
          {
            "duration": 0.4166664791666683,
            "durationTicks": 62,
            "midi": 45,
            "name": "A2",
            "ticks": 2784,
            "time": 18.709668999999998,
            "velocity": 0.5669291338582677
          },
          {
            "duration": 0.4905911770833349,
            "durationTicks": 73,
            "midi": 60,
            "name": "C4",
            "ticks": 2808,
            "time": 18.87095925,
            "velocity": 0.6692913385826772
          },
          {
            "duration": 0.3830643437500001,
            "durationTicks": 57,
            "midi": 52,
            "name": "E3",
            "ticks": 2832,
            "time": 19.0322495,
            "velocity": 0.6141732283464567
          },
          {
            "duration": 0.44354818749999936,
            "durationTicks": 66,
            "midi": 45,
            "name": "A2",
            "ticks": 2880,
            "time": 19.35483,
            "velocity": 0.5590551181102362
          },
          {
            "duration": 0.6854835625,
            "durationTicks": 102,
            "midi": 59,
            "name": "B3",
            "ticks": 2880,
            "time": 19.35483,
            "velocity": 0.5826771653543307
          },
          {
            "duration": 0.3830643437500001,
            "durationTicks": 57,
            "midi": 52,
            "name": "E3",
            "ticks": 2928,
            "time": 19.6774105,
            "velocity": 0.6062992125984252
          },
          {
            "duration": 0.45026861458333656,
            "durationTicks": 67,
            "midi": 45,
            "name": "A2",
            "ticks": 2975,
            "time": 19.993270572916664,
            "velocity": 0.6220472440944882
          },
          {
            "duration": 0.5712363020833315,
            "durationTicks": 85,
            "midi": 59,
            "name": "B3",
            "ticks": 3000,
            "time": 20.16128125,
            "velocity": 0.6220472440944882
          },
          {
            "duration": 0.4099460520833347,
            "durationTicks": 61,
            "midi": 52,
            "name": "E3",
            "ticks": 3023,
            "time": 20.315851072916665,
            "velocity": 0.5905511811023622
          },
          {
            "duration": 0.4905911770833349,
            "durationTicks": 73,
            "midi": 45,
            "name": "A2",
            "ticks": 3071,
            "time": 20.638431572916666,
            "velocity": 0.5984251968503937
          },
          {
            "duration": 0.712365270833331,
            "durationTicks": 106,
            "midi": 62,
            "name": "D4",
            "ticks": 3072,
            "time": 20.645152,
            "velocity": 0.5984251968503937
          },
          {
            "duration": 0.35618263541666906,
            "durationTicks": 53,
            "midi": 52,
            "name": "E3",
            "ticks": 3120,
            "time": 20.9677325,
            "velocity": 0.6062992125984252
          },
          {
            "duration": 0.4233869062499984,
            "durationTicks": 63,
            "midi": 45,
            "name": "A2",
            "ticks": 3167,
            "time": 21.283592572916668,
            "velocity": 0.5669291338582677
          },
          {
            "duration": 0.4569890416666702,
            "durationTicks": 68,
            "midi": 62,
            "name": "D4",
            "ticks": 3192,
            "time": 21.451603249999998,
            "velocity": 0.6456692913385826
          },
          {
            "duration": 0.4099460520833311,
            "durationTicks": 61,
            "midi": 52,
            "name": "E3",
            "ticks": 3215,
            "time": 21.60617307291667,
            "velocity": 0.5905511811023622
          },
          {
            "duration": 0.7795695416666675,
            "durationTicks": 116,
            "midi": 60,
            "name": "C4",
            "ticks": 3264,
            "time": 21.935474,
            "velocity": 0.6062992125984252
          },
          {
            "duration": 0.40322562500000103,
            "durationTicks": 60,
            "midi": 45,
            "name": "A2",
            "ticks": 3264,
            "time": 21.935474,
            "velocity": 0.5826771653543307
          },
          {
            "duration": 0.4166664791666683,
            "durationTicks": 62,
            "midi": 52,
            "name": "E3",
            "ticks": 3312,
            "time": 22.2580545,
            "velocity": 0.6141732283464567
          },
          {
            "duration": 0.39650519791666383,
            "durationTicks": 59,
            "midi": 45,
            "name": "A2",
            "ticks": 3359,
            "time": 22.573914572916667,
            "velocity": 0.6220472440944882
          },
          {
            "duration": 0.21505366666666959,
            "durationTicks": 32,
            "midi": 52,
            "name": "E3",
            "ticks": 3408,
            "time": 22.903215499999998,
            "velocity": 0.5905511811023622
          },
          {
            "duration": 0.24193537500000062,
            "durationTicks": 36,
            "midi": 62,
            "name": "D4",
            "ticks": 3408,
            "time": 22.903215499999998,
            "velocity": 0.6850393700787402
          },
          {
            "duration": 0.1612902500000004,
            "durationTicks": 24,
            "midi": 59,
            "name": "B3",
            "ticks": 3408,
            "time": 22.903215499999998,
            "velocity": 0.6850393700787402
          },
          {
            "duration": 0.7728491145833338,
            "durationTicks": 115,
            "midi": 60,
            "name": "C4",
            "ticks": 3456,
            "time": 23.225796,
            "velocity": 0.7086614173228346
          },
          {
            "duration": 0.3360213541666681,
            "durationTicks": 50,
            "midi": 48,
            "name": "C3",
            "ticks": 3456,
            "time": 23.225796,
            "velocity": 0.6614173228346457
          },
          {
            "duration": 0.3696234895833328,
            "durationTicks": 55,
            "midi": 55,
            "name": "G3",
            "ticks": 3504,
            "time": 23.5483765,
            "velocity": 0.6141732283464567
          },
          {
            "duration": 0.34946220833333186,
            "durationTicks": 52,
            "midi": 48,
            "name": "C3",
            "ticks": 3552,
            "time": 23.870957,
            "velocity": 0.6141732283464567
          },
          {
            "duration": 0.45698904166666665,
            "durationTicks": 68,
            "midi": 60,
            "name": "C4",
            "ticks": 3576,
            "time": 24.03224725,
            "velocity": 0.6929133858267716
          },
          {
            "duration": 0.35618263541666906,
            "durationTicks": 53,
            "midi": 55,
            "name": "G3",
            "ticks": 3600,
            "time": 24.193537499999998,
            "velocity": 0.6299212598425197
          },
          {
            "duration": 0.7997308229166684,
            "durationTicks": 119,
            "midi": 62,
            "name": "D4",
            "ticks": 3648,
            "time": 24.516118,
            "velocity": 0.6456692913385826
          },
          {
            "duration": 0.36290306249999915,
            "durationTicks": 54,
            "midi": 47,
            "name": "B2",
            "ticks": 3648,
            "time": 24.516118,
            "velocity": 0.5984251968503937
          },
          {
            "duration": 0.3696234895833328,
            "durationTicks": 55,
            "midi": 55,
            "name": "G3",
            "ticks": 3696,
            "time": 24.8386985,
            "velocity": 0.6377952755905512
          },
          {
            "duration": 0.3561826354166655,
            "durationTicks": 53,
            "midi": 47,
            "name": "B2",
            "ticks": 3744,
            "time": 25.161279,
            "velocity": 0.6299212598425197
          },
          {
            "duration": 0.4704298958333304,
            "durationTicks": 70,
            "midi": 62,
            "name": "D4",
            "ticks": 3768,
            "time": 25.32256925,
            "velocity": 0.6771653543307087
          },
          {
            "duration": 0.3225805000000008,
            "durationTicks": 48,
            "midi": 55,
            "name": "G3",
            "ticks": 3792,
            "time": 25.483859499999998,
            "velocity": 0.6456692913385826
          },
          {
            "duration": 0.7997308229166613,
            "durationTicks": 119,
            "midi": 60,
            "name": "C4",
            "ticks": 3839,
            "time": 25.79971957291667,
            "velocity": 0.6456692913385826
          },
          {
            "duration": 0.2956987916666698,
            "durationTicks": 44,
            "midi": 45,
            "name": "A2",
            "ticks": 3840,
            "time": 25.80644,
            "velocity": 0.6220472440944882
          },
          {
            "duration": 0.34946220833333186,
            "durationTicks": 52,
            "midi": 52,
            "name": "E3",
            "ticks": 3888,
            "time": 26.1290205,
            "velocity": 0.5905511811023622
          },
          {
            "duration": 0.3897847708333302,
            "durationTicks": 58,
            "midi": 45,
            "name": "A2",
            "ticks": 3936,
            "time": 26.451601,
            "velocity": 0.6535433070866141
          },
          {
            "duration": 1.2096768749999995,
            "durationTicks": 180,
            "midi": 60,
            "name": "C4",
            "ticks": 3961,
            "time": 26.61961167708333,
            "velocity": 0.6929133858267716
          },
          {
            "duration": 0.36962348958332925,
            "durationTicks": 55,
            "midi": 52,
            "name": "E3",
            "ticks": 3984,
            "time": 26.7741815,
            "velocity": 0.6141732283464567
          },
          {
            "duration": 0.3360213541666681,
            "durationTicks": 50,
            "midi": 45,
            "name": "A2",
            "ticks": 4032,
            "time": 27.096762,
            "velocity": 0.6141732283464567
          },
          {
            "duration": 0.35618263541666906,
            "durationTicks": 53,
            "midi": 52,
            "name": "E3",
            "ticks": 4080,
            "time": 27.4193425,
            "velocity": 0.6377952755905512
          },
          {
            "duration": 0.3360213541666681,
            "durationTicks": 50,
            "midi": 45,
            "name": "A2",
            "ticks": 4128,
            "time": 27.741923,
            "velocity": 0.5984251968503937
          },
          {
            "duration": 0.45026861458332945,
            "durationTicks": 67,
            "midi": 60,
            "name": "C4",
            "ticks": 4152,
            "time": 27.90321325,
            "velocity": 0.7165354330708661
          },
          {
            "duration": 0.32258049999999727,
            "durationTicks": 48,
            "midi": 52,
            "name": "E3",
            "ticks": 4176,
            "time": 28.0645035,
            "velocity": 0.6377952755905512
          },
          {
            "duration": 0.8064512499999985,
            "durationTicks": 120,
            "midi": 59,
            "name": "B3",
            "ticks": 4223,
            "time": 28.380363572916668,
            "velocity": 0.6220472440944882
          },
          {
            "duration": 0.34946220833333186,
            "durationTicks": 52,
            "midi": 43,
            "name": "G2",
            "ticks": 4224,
            "time": 28.387083999999998,
            "velocity": 0.5826771653543307
          },
          {
            "duration": 0.38978477083333374,
            "durationTicks": 58,
            "midi": 50,
            "name": "D3",
            "ticks": 4272,
            "time": 28.7096645,
            "velocity": 0.6535433070866141
          },
          {
            "duration": 0.3696234895833328,
            "durationTicks": 55,
            "midi": 43,
            "name": "G2",
            "ticks": 4320,
            "time": 29.032245,
            "velocity": 0.6141732283464567
          },
          {
            "duration": 0.5577954479166678,
            "durationTicks": 83,
            "midi": 59,
            "name": "B3",
            "ticks": 4344,
            "time": 29.19353525,
            "velocity": 0.6771653543307087
          },
          {
            "duration": 0.712365270833331,
            "durationTicks": 106,
            "midi": 50,
            "name": "D3",
            "ticks": 4368,
            "time": 29.3548255,
            "velocity": 0.6299212598425197
          },
          {
            "duration": 0.7526878333333329,
            "durationTicks": 112,
            "midi": 65,
            "name": "F4",
            "ticks": 4416,
            "time": 29.677405999999998,
            "velocity": 0.6692913385826772
          },
          {
            "duration": 0.3830643437500001,
            "durationTicks": 57,
            "midi": 57,
            "name": "A3",
            "ticks": 4464,
            "time": 29.9999865,
            "velocity": 0.6850393700787402
          },
          {
            "duration": 0.35618263541666906,
            "durationTicks": 53,
            "midi": 50,
            "name": "D3",
            "ticks": 4512,
            "time": 30.322567,
            "velocity": 0.6377952755905512
          },
          {
            "duration": 0.4569890416666702,
            "durationTicks": 68,
            "midi": 65,
            "name": "F4",
            "ticks": 4537,
            "time": 30.49057767708333,
            "velocity": 0.7165354330708661
          },
          {
            "duration": 0.29569879166666624,
            "durationTicks": 44,
            "midi": 57,
            "name": "A3",
            "ticks": 4560,
            "time": 30.6451475,
            "velocity": 0.6377952755905512
          },
          {
            "duration": 0.8064512499999985,
            "durationTicks": 120,
            "midi": 64,
            "name": "E4",
            "ticks": 4608,
            "time": 30.967728,
            "velocity": 0.6456692913385826
          },
          {
            "duration": 0.32258049999999727,
            "durationTicks": 48,
            "midi": 45,
            "name": "A2",
            "ticks": 4608,
            "time": 30.967728,
            "velocity": 0.6141732283464567
          },
          {
            "duration": 0.31586007291667073,
            "durationTicks": 47,
            "midi": 52,
            "name": "E3",
            "ticks": 4656,
            "time": 31.2903085,
            "velocity": 0.6062992125984252
          },
          {
            "duration": 0.3427417812499982,
            "durationTicks": 51,
            "midi": 45,
            "name": "A2",
            "ticks": 4705,
            "time": 31.619609427083333,
            "velocity": 0.6062992125984252
          },
          {
            "duration": 0.38306434374999654,
            "durationTicks": 57,
            "midi": 60,
            "name": "C4",
            "ticks": 4728,
            "time": 31.77417925,
            "velocity": 0.6771653543307087
          },
          {
            "duration": 0.2956987916666698,
            "durationTicks": 44,
            "midi": 52,
            "name": "E3",
            "ticks": 4752,
            "time": 31.9354695,
            "velocity": 0.5826771653543307
          },
          {
            "duration": 0.3225805000000008,
            "durationTicks": 48,
            "midi": 45,
            "name": "A2",
            "ticks": 4800,
            "time": 32.25805,
            "velocity": 0.6141732283464567
          },
          {
            "duration": 1.1088704687499984,
            "durationTicks": 165,
            "midi": 60,
            "name": "C4",
            "ticks": 4801,
            "time": 32.264770427083334,
            "velocity": 0.6456692913385826
          },
          {
            "duration": 0.25537622916667146,
            "durationTicks": 38,
            "midi": 52,
            "name": "E3",
            "ticks": 4848,
            "time": 32.5806305,
            "velocity": 0.6377952755905512
          },
          {
            "duration": 0.3696234895833328,
            "durationTicks": 55,
            "midi": 45,
            "name": "A2",
            "ticks": 4896,
            "time": 32.903211,
            "velocity": 0.6062992125984252
          },
          {
            "duration": 0.28897836458332904,
            "durationTicks": 43,
            "midi": 47,
            "name": "B2",
            "ticks": 4944,
            "time": 33.2257915,
            "velocity": 0.6692913385826772
          },
          {
            "duration": 0.28225793749999895,
            "durationTicks": 42,
            "midi": 62,
            "name": "D4",
            "ticks": 4944,
            "time": 33.2257915,
            "velocity": 0.6850393700787402
          },
          {
            "duration": 0.3629030624999956,
            "durationTicks": 54,
            "midi": 48,
            "name": "C3",
            "ticks": 4992,
            "time": 33.548372,
            "velocity": 0.6771653543307087
          },
          {
            "duration": 0.665322281249999,
            "durationTicks": 99,
            "midi": 60,
            "name": "C4",
            "ticks": 4993,
            "time": 33.55509242708333,
            "velocity": 0.48031496062992124
          },
          {
            "duration": 0.3629030624999956,
            "durationTicks": 54,
            "midi": 55,
            "name": "G3",
            "ticks": 5040,
            "time": 33.8709525,
            "velocity": 0.6141732283464567
          },
          {
            "duration": 0.3494622083333283,
            "durationTicks": 52,
            "midi": 48,
            "name": "C3",
            "ticks": 5088,
            "time": 34.193533,
            "velocity": 0.6614173228346457
          },
          {
            "duration": 0.49059117708333133,
            "durationTicks": 73,
            "midi": 60,
            "name": "C4",
            "ticks": 5112,
            "time": 34.35482325,
            "velocity": 0.7007874015748031
          },
          {
            "duration": 0.3427417812500053,
            "durationTicks": 51,
            "midi": 55,
            "name": "G3",
            "ticks": 5136,
            "time": 34.516113499999996,
            "velocity": 0.6535433070866141
          },
          {
            "duration": 0.7594082604166701,
            "durationTicks": 113,
            "midi": 62,
            "name": "D4",
            "ticks": 5184,
            "time": 34.838694,
            "velocity": 0.6141732283464567
          },
          {
            "duration": 0.3427417812500053,
            "durationTicks": 51,
            "midi": 47,
            "name": "B2",
            "ticks": 5184,
            "time": 34.838694,
            "velocity": 0.6220472440944882
          },
          {
            "duration": 0.3561826354166726,
            "durationTicks": 53,
            "midi": 55,
            "name": "G3",
            "ticks": 5232,
            "time": 35.1612745,
            "velocity": 0.6771653543307087
          },
          {
            "duration": 0.3225805000000008,
            "durationTicks": 48,
            "midi": 47,
            "name": "B2",
            "ticks": 5280,
            "time": 35.483855,
            "velocity": 0.6141732283464567
          },
          {
            "duration": 0.45026861458332945,
            "durationTicks": 67,
            "midi": 62,
            "name": "D4",
            "ticks": 5304,
            "time": 35.64514525,
            "velocity": 0.6850393700787402
          },
          {
            "duration": 0.3427417812499982,
            "durationTicks": 51,
            "midi": 55,
            "name": "G3",
            "ticks": 5328,
            "time": 35.8064355,
            "velocity": 0.6377952755905512
          },
          {
            "duration": 0.806451249999995,
            "durationTicks": 120,
            "midi": 60,
            "name": "C4",
            "ticks": 5375,
            "time": 36.12229557291667,
            "velocity": 0.6062992125984252
          },
          {
            "duration": 0.3494622083333283,
            "durationTicks": 52,
            "midi": 45,
            "name": "A2",
            "ticks": 5376,
            "time": 36.129016,
            "velocity": 0.6299212598425197
          },
          {
            "duration": 0.30241921874999633,
            "durationTicks": 45,
            "midi": 52,
            "name": "E3",
            "ticks": 5424,
            "time": 36.4515965,
            "velocity": 0.6062992125984252
          },
          {
            "duration": 0.3427417812499982,
            "durationTicks": 51,
            "midi": 45,
            "name": "A2",
            "ticks": 5473,
            "time": 36.78089742708333,
            "velocity": 0.6220472440944882
          },
          {
            "duration": 0.3696234895833328,
            "durationTicks": 55,
            "midi": 60,
            "name": "C4",
            "ticks": 5497,
            "time": 36.94218767708333,
            "velocity": 0.7007874015748031
          },
          {
            "duration": 0.3897847708333302,
            "durationTicks": 58,
            "midi": 52,
            "name": "E3",
            "ticks": 5520,
            "time": 37.0967575,
            "velocity": 0.6614173228346457
          },
          {
            "duration": 0.7459674062500028,
            "durationTicks": 111,
            "midi": 60,
            "name": "C4",
            "ticks": 5568,
            "time": 37.419337999999996,
            "velocity": 0.6299212598425197
          },
          {
            "duration": 0.3830643437500001,
            "durationTicks": 57,
            "midi": 45,
            "name": "A2",
            "ticks": 5568,
            "time": 37.419337999999996,
            "velocity": 0.6299212598425197
          },
          {
            "duration": 0.3629030625000027,
            "durationTicks": 54,
            "midi": 52,
            "name": "E3",
            "ticks": 5616,
            "time": 37.7419185,
            "velocity": 0.6614173228346457
          },
          {
            "duration": 0.3629030625000027,
            "durationTicks": 54,
            "midi": 45,
            "name": "A2",
            "ticks": 5664,
            "time": 38.064499,
            "velocity": 0.6141732283464567
          },
          {
            "duration": 0.49059117708333133,
            "durationTicks": 73,
            "midi": 60,
            "name": "C4",
            "ticks": 5688,
            "time": 38.22578925,
            "velocity": 0.7165354330708661
          },
          {
            "duration": 0.3360213541666681,
            "durationTicks": 50,
            "midi": 52,
            "name": "E3",
            "ticks": 5712,
            "time": 38.3870795,
            "velocity": 0.6692913385826772
          },
          {
            "duration": 0.7459674062500028,
            "durationTicks": 111,
            "midi": 59,
            "name": "B3",
            "ticks": 5760,
            "time": 38.70966,
            "velocity": 0.6299212598425197
          },
          {
            "duration": 0.3696234895833328,
            "durationTicks": 55,
            "midi": 43,
            "name": "G2",
            "ticks": 5760,
            "time": 38.70966,
            "velocity": 0.6377952755905512
          },
          {
            "duration": 0.37634391666667,
            "durationTicks": 56,
            "midi": 50,
            "name": "D3",
            "ticks": 5808,
            "time": 39.0322405,
            "velocity": 0.6535433070866141
          },
          {
            "duration": 0.3830643437500001,
            "durationTicks": 57,
            "midi": 43,
            "name": "G2",
            "ticks": 5856,
            "time": 39.354821,
            "velocity": 0.6141732283464567
          },
          {
            "duration": 0.5645158749999979,
            "durationTicks": 84,
            "midi": 59,
            "name": "B3",
            "ticks": 5880,
            "time": 39.51611125,
            "velocity": 0.6771653543307087
          },
          {
            "duration": 0.22177409374999968,
            "durationTicks": 33,
            "midi": 50,
            "name": "D3",
            "ticks": 5904,
            "time": 39.6774015,
            "velocity": 0.6535433070866141
          },
          {
            "duration": 0.7056448437500009,
            "durationTicks": 105,
            "midi": 65,
            "name": "F4",
            "ticks": 5952,
            "time": 39.999981999999996,
            "velocity": 0.6692913385826772
          },
          {
            "duration": 0.3494622083333354,
            "durationTicks": 52,
            "midi": 50,
            "name": "D3",
            "ticks": 5952,
            "time": 39.999981999999996,
            "velocity": 0.6535433070866141
          },
          {
            "duration": 0.3965051979166674,
            "durationTicks": 59,
            "midi": 57,
            "name": "A3",
            "ticks": 6000,
            "time": 40.3225625,
            "velocity": 0.5905511811023622
          },
          {
            "duration": 0.5309137395833332,
            "durationTicks": 79,
            "midi": 50,
            "name": "D3",
            "ticks": 6048,
            "time": 40.645143,
            "velocity": 0.6535433070866141
          },
          {
            "duration": 0.47042989583333394,
            "durationTicks": 70,
            "midi": 65,
            "name": "F4",
            "ticks": 6072,
            "time": 40.80643325,
            "velocity": 0.7007874015748031
          },
          {
            "duration": 0.26209665625000156,
            "durationTicks": 39,
            "midi": 57,
            "name": "A3",
            "ticks": 6096,
            "time": 40.9677235,
            "velocity": 0.6377952755905512
          },
          {
            "duration": 0.7862899687499976,
            "durationTicks": 117,
            "midi": 64,
            "name": "E4",
            "ticks": 6144,
            "time": 41.290304,
            "velocity": 0.6299212598425197
          },
          {
            "duration": 0.336021354166661,
            "durationTicks": 50,
            "midi": 45,
            "name": "A2",
            "ticks": 6144,
            "time": 41.290304,
            "velocity": 0.6141732283464567
          },
          {
            "duration": 0.3158600729166636,
            "durationTicks": 47,
            "midi": 52,
            "name": "E3",
            "ticks": 6192,
            "time": 41.6128845,
            "velocity": 0.6220472440944882
          },
          {
            "duration": 0.28225793749999895,
            "durationTicks": 42,
            "midi": 45,
            "name": "A2",
            "ticks": 6240,
            "time": 41.935465,
            "velocity": 0.6456692913385826
          },
          {
            "duration": 0.43682776041666216,
            "durationTicks": 65,
            "midi": 60,
            "name": "C4",
            "ticks": 6264,
            "time": 42.09675525,
            "velocity": 0.6614173228346457
          },
          {
            "duration": 0.30913964583333353,
            "durationTicks": 46,
            "midi": 52,
            "name": "E3",
            "ticks": 6288,
            "time": 42.2580455,
            "velocity": 0.6062992125984252
          },
          {
            "duration": 0.8131716770833322,
            "durationTicks": 121,
            "midi": 60,
            "name": "C4",
            "ticks": 6335,
            "time": 42.573905572916665,
            "velocity": 0.6299212598425197
          },
          {
            "duration": 0.3225804999999937,
            "durationTicks": 48,
            "midi": 45,
            "name": "A2",
            "ticks": 6336,
            "time": 42.580626,
            "velocity": 0.6141732283464567
          },
          {
            "duration": 0.3897847708333373,
            "durationTicks": 58,
            "midi": 52,
            "name": "E3",
            "ticks": 6384,
            "time": 42.903206499999996,
            "velocity": 0.6299212598425197
          },
          {
            "duration": 0.3494622083333425,
            "durationTicks": 52,
            "midi": 45,
            "name": "A2",
            "ticks": 6431,
            "time": 43.21906657291666,
            "velocity": 0.6377952755905512
          },
          {
            "duration": 0.44354818749999936,
            "durationTicks": 66,
            "midi": 60,
            "name": "C4",
            "ticks": 6457,
            "time": 43.393797677083334,
            "velocity": 0.7086614173228346
          },
          {
            "duration": 0.3696234895833399,
            "durationTicks": 55,
            "midi": 52,
            "name": "E3",
            "ticks": 6480,
            "time": 43.5483675,
            "velocity": 0.6535433070866141
          },
          {
            "duration": 0.3830643437500001,
            "durationTicks": 57,
            "midi": 42,
            "name": "F#2",
            "ticks": 6528,
            "time": 43.870948,
            "velocity": 0.6299212598425197
          },
          {
            "duration": 0.7997308229166649,
            "durationTicks": 119,
            "midi": 62,
            "name": "D4",
            "ticks": 6528,
            "time": 43.870948,
            "velocity": 0.6614173228346457
          },
          {
            "duration": 0.3897847708333373,
            "durationTicks": 58,
            "midi": 50,
            "name": "D3",
            "ticks": 6576,
            "time": 44.1935285,
            "velocity": 0.6299212598425197
          },
          {
            "duration": 0.4099460520833347,
            "durationTicks": 61,
            "midi": 42,
            "name": "F#2",
            "ticks": 6624,
            "time": 44.516109,
            "velocity": 0.6141732283464567
          },
          {
            "duration": 0.43682776041666216,
            "durationTicks": 65,
            "midi": 62,
            "name": "D4",
            "ticks": 6648,
            "time": 44.67739925,
            "velocity": 0.7086614173228346
          },
          {
            "duration": 0.3293009270833309,
            "durationTicks": 49,
            "midi": 50,
            "name": "D3",
            "ticks": 6672,
            "time": 44.8386895,
            "velocity": 0.6062992125984252
          },
          {
            "duration": 0.8938168020833359,
            "durationTicks": 133,
            "midi": 62,
            "name": "D4",
            "ticks": 6720,
            "time": 45.16127,
            "velocity": 0.6692913385826772
          },
          {
            "duration": 0.3629030624999956,
            "durationTicks": 54,
            "midi": 43,
            "name": "G2",
            "ticks": 6720,
            "time": 45.16127,
            "velocity": 0.6141732283464567
          },
          {
            "duration": 0.3830643437500001,
            "durationTicks": 57,
            "midi": 50,
            "name": "D3",
            "ticks": 6768,
            "time": 45.483850499999996,
            "velocity": 0.6141732283464567
          },
          {
            "duration": 0.3561826354166655,
            "durationTicks": 53,
            "midi": 43,
            "name": "G2",
            "ticks": 6816,
            "time": 45.806430999999996,
            "velocity": 0.6062992125984252
          },
          {
            "duration": 0.3360213541666681,
            "durationTicks": 50,
            "midi": 59,
            "name": "B3",
            "ticks": 6841,
            "time": 45.974441677083334,
            "velocity": 0.6220472440944882
          },
          {
            "duration": 0.3494622083333354,
            "durationTicks": 52,
            "midi": 50,
            "name": "D3",
            "ticks": 6864,
            "time": 46.1290115,
            "velocity": 0.6062992125984252
          },
          {
            "duration": 0.14784939583334022,
            "durationTicks": 22,
            "midi": 59,
            "name": "B3",
            "ticks": 6912,
            "time": 46.451592,
            "velocity": 0.6299212598425197
          },
          {
            "duration": 0.28225793749999895,
            "durationTicks": 42,
            "midi": 45,
            "name": "A2",
            "ticks": 6912,
            "time": 46.451592,
            "velocity": 0.6220472440944882
          },
          {
            "duration": 0.611558864583337,
            "durationTicks": 91,
            "midi": 60,
            "name": "C4",
            "ticks": 6936,
            "time": 46.61288225,
            "velocity": 0.6062992125984252
          },
          {
            "duration": 0.3158600729166636,
            "durationTicks": 47,
            "midi": 52,
            "name": "E3",
            "ticks": 6960,
            "time": 46.7741725,
            "velocity": 0.6141732283464567
          },
          {
            "duration": 0.336021354166661,
            "durationTicks": 50,
            "midi": 45,
            "name": "A2",
            "ticks": 7008,
            "time": 47.096753,
            "velocity": 0.6299212598425197
          },
          {
            "duration": 0.46370946874999674,
            "durationTicks": 69,
            "midi": 60,
            "name": "C4",
            "ticks": 7032,
            "time": 47.25804325,
            "velocity": 0.6692913385826772
          },
          {
            "duration": 0.3696234895833328,
            "durationTicks": 55,
            "midi": 52,
            "name": "E3",
            "ticks": 7056,
            "time": 47.4193335,
            "velocity": 0.6062992125984252
          },
          {
            "duration": 0.7795695416666604,
            "durationTicks": 116,
            "midi": 60,
            "name": "C4",
            "ticks": 7104,
            "time": 47.741914,
            "velocity": 0.6299212598425197
          },
          {
            "duration": 0.3561826354166584,
            "durationTicks": 53,
            "midi": 43,
            "name": "G2",
            "ticks": 7104,
            "time": 47.741914,
            "velocity": 0.6141732283464567
          },
          {
            "duration": 0.3763439166666629,
            "durationTicks": 56,
            "midi": 52,
            "name": "E3",
            "ticks": 7152,
            "time": 48.0644945,
            "velocity": 0.6299212598425197
          },
          {
            "duration": 0.3360213541666681,
            "durationTicks": 50,
            "midi": 43,
            "name": "G2",
            "ticks": 7200,
            "time": 48.387074999999996,
            "velocity": 0.6377952755905512
          },
          {
            "duration": 0.4032256250000046,
            "durationTicks": 60,
            "midi": 60,
            "name": "C4",
            "ticks": 7224,
            "time": 48.548365249999996,
            "velocity": 0.6850393700787402
          },
          {
            "duration": 0.3763439166666629,
            "durationTicks": 56,
            "midi": 52,
            "name": "E3",
            "ticks": 7248,
            "time": 48.7096555,
            "velocity": 0.6299212598425197
          },
          {
            "duration": 0.7997308229166649,
            "durationTicks": 119,
            "midi": 62,
            "name": "D4",
            "ticks": 7296,
            "time": 49.032236,
            "velocity": 0.6377952755905512
          },
          {
            "duration": 0.3494622083333354,
            "durationTicks": 52,
            "midi": 42,
            "name": "F#2",
            "ticks": 7296,
            "time": 49.032236,
            "velocity": 0.6299212598425197
          },
          {
            "duration": 0.3763439166666629,
            "durationTicks": 56,
            "midi": 50,
            "name": "D3",
            "ticks": 7344,
            "time": 49.3548165,
            "velocity": 0.6141732283464567
          },
          {
            "duration": 0.3763439166666629,
            "durationTicks": 56,
            "midi": 42,
            "name": "F#2",
            "ticks": 7392,
            "time": 49.677397,
            "velocity": 0.6220472440944882
          },
          {
            "duration": 0.43682776041666216,
            "durationTicks": 65,
            "midi": 62,
            "name": "D4",
            "ticks": 7416,
            "time": 49.83868725,
            "velocity": 0.7007874015748031
          },
          {
            "duration": 0.329300927083338,
            "durationTicks": 49,
            "midi": 50,
            "name": "D3",
            "ticks": 7440,
            "time": 49.9999775,
            "velocity": 0.6299212598425197
          },
          {
            "duration": 0.8602146666666641,
            "durationTicks": 128,
            "midi": 62,
            "name": "D4",
            "ticks": 7488,
            "time": 50.322558,
            "velocity": 0.6614173228346457
          },
          {
            "duration": 0.3561826354166584,
            "durationTicks": 53,
            "midi": 43,
            "name": "G2",
            "ticks": 7488,
            "time": 50.322558,
            "velocity": 0.6141732283464567
          },
          {
            "duration": 0.3965051979166603,
            "durationTicks": 59,
            "midi": 52,
            "name": "E3",
            "ticks": 7536,
            "time": 50.6451385,
            "velocity": 0.6141732283464567
          },
          {
            "duration": 0.37634391666667,
            "durationTicks": 56,
            "midi": 43,
            "name": "G2",
            "ticks": 7584,
            "time": 50.967718999999995,
            "velocity": 0.6220472440944882
          },
          {
            "duration": 0.4099460520833418,
            "durationTicks": 61,
            "midi": 59,
            "name": "B3",
            "ticks": 7608,
            "time": 51.129009249999996,
            "velocity": 0.6692913385826772
          },
          {
            "duration": 0.329300927083338,
            "durationTicks": 49,
            "midi": 52,
            "name": "E3",
            "ticks": 7632,
            "time": 51.290299499999996,
            "velocity": 0.6220472440944882
          },
          {
            "duration": 0.30241921875000344,
            "durationTicks": 45,
            "midi": 45,
            "name": "A2",
            "ticks": 7679,
            "time": 51.60615957291666,
            "velocity": 0.6299212598425197
          },
          {
            "duration": 0.14112896875000303,
            "durationTicks": 21,
            "midi": 59,
            "name": "B3",
            "ticks": 7680,
            "time": 51.61288,
            "velocity": 0.6535433070866141
          },
          {
            "duration": 0.6317201458333344,
            "durationTicks": 94,
            "midi": 60,
            "name": "C4",
            "ticks": 7704,
            "time": 51.77417025,
            "velocity": 0.6377952755905512
          },
          {
            "duration": 0.30913964583334064,
            "durationTicks": 46,
            "midi": 52,
            "name": "E3",
            "ticks": 7728,
            "time": 51.9354605,
            "velocity": 0.6220472440944882
          },
          {
            "duration": 0.3427417812499982,
            "durationTicks": 51,
            "midi": 45,
            "name": "A2",
            "ticks": 7776,
            "time": 52.258041,
            "velocity": 0.6299212598425197
          },
          {
            "duration": 0.47042989583333394,
            "durationTicks": 70,
            "midi": 60,
            "name": "C4",
            "ticks": 7800,
            "time": 52.41933125,
            "velocity": 0.6535433070866141
          },
          {
            "duration": 0.30913964583333353,
            "durationTicks": 46,
            "midi": 52,
            "name": "E3",
            "ticks": 7824,
            "time": 52.5806215,
            "velocity": 0.6141732283464567
          },
          {
            "duration": 0.3830643437500001,
            "durationTicks": 57,
            "midi": 45,
            "name": "A2",
            "ticks": 7872,
            "time": 52.903202,
            "velocity": 0.6299212598425197
          },
          {
            "duration": 0.3830643437500001,
            "durationTicks": 57,
            "midi": 60,
            "name": "C4",
            "ticks": 7872,
            "time": 52.903202,
            "velocity": 0.6929133858267716
          },
          {
            "duration": 0.611558864583337,
            "durationTicks": 91,
            "midi": 47,
            "name": "B2",
            "ticks": 7967,
            "time": 53.541642572916665,
            "velocity": 0.6535433070866141
          },
          {
            "duration": 0.5645158749999979,
            "durationTicks": 84,
            "midi": 50,
            "name": "D3",
            "ticks": 7968,
            "time": 53.548363,
            "velocity": 0.5905511811023622
          },
          {
            "duration": 0.41666647916666477,
            "durationTicks": 62,
            "midi": 62,
            "name": "D4",
            "ticks": 7969,
            "time": 53.55508342708333,
            "velocity": 0.5826771653543307
          },
          {
            "duration": 0.4032256250000046,
            "durationTicks": 60,
            "midi": 59,
            "name": "B3",
            "ticks": 7969,
            "time": 53.55508342708333,
            "velocity": 0.6614173228346457
          },
          {
            "duration": 0.7728491145833374,
            "durationTicks": 115,
            "midi": 60,
            "name": "C4",
            "ticks": 8064,
            "time": 54.193524,
            "velocity": 0.7086614173228346
          },
          {
            "duration": 0.27553751041666885,
            "durationTicks": 41,
            "midi": 48,
            "name": "C3",
            "ticks": 8064,
            "time": 54.193524,
            "velocity": 0.6614173228346457
          },
          {
            "duration": 0.3158600729166636,
            "durationTicks": 47,
            "midi": 55,
            "name": "G3",
            "ticks": 8112,
            "time": 54.5161045,
            "velocity": 0.6141732283464567
          },
          {
            "duration": 0.3494622083333354,
            "durationTicks": 52,
            "midi": 48,
            "name": "C3",
            "ticks": 8160,
            "time": 54.838685,
            "velocity": 0.6141732283464567
          },
          {
            "duration": 0.45698904166666665,
            "durationTicks": 68,
            "midi": 60,
            "name": "C4",
            "ticks": 8184,
            "time": 54.99997525,
            "velocity": 0.6929133858267716
          },
          {
            "duration": 0.7997308229166649,
            "durationTicks": 119,
            "midi": 62,
            "name": "D4",
            "ticks": 8256,
            "time": 55.483846,
            "velocity": 0.6456692913385826
          },
          {
            "duration": 0.3629030624999956,
            "durationTicks": 54,
            "midi": 47,
            "name": "B2",
            "ticks": 8256,
            "time": 55.483846,
            "velocity": 0.5984251968503937
          },
          {
            "duration": 0.3696234895833328,
            "durationTicks": 55,
            "midi": 55,
            "name": "G3",
            "ticks": 8304,
            "time": 55.8064265,
            "velocity": 0.6377952755905512
          },
          {
            "duration": 0.3561826354166584,
            "durationTicks": 53,
            "midi": 47,
            "name": "B2",
            "ticks": 8352,
            "time": 56.129007,
            "velocity": 0.6299212598425197
          },
          {
            "duration": 0.47042989583333394,
            "durationTicks": 70,
            "midi": 62,
            "name": "D4",
            "ticks": 8376,
            "time": 56.29029725,
            "velocity": 0.6771653543307087
          },
          {
            "duration": 0.3225805000000008,
            "durationTicks": 48,
            "midi": 55,
            "name": "G3",
            "ticks": 8400,
            "time": 56.451587499999995,
            "velocity": 0.6456692913385826
          },
          {
            "duration": 0.8064512500000021,
            "durationTicks": 120,
            "midi": 60,
            "name": "C4",
            "ticks": 8447,
            "time": 56.76744757291666,
            "velocity": 0.6456692913385826
          },
          {
            "duration": 0.3158600729166636,
            "durationTicks": 47,
            "midi": 45,
            "name": "A2",
            "ticks": 8448,
            "time": 56.774167999999996,
            "velocity": 0.6220472440944882
          },
          {
            "duration": 0.3158600729166636,
            "durationTicks": 47,
            "midi": 52,
            "name": "E3",
            "ticks": 8496,
            "time": 57.0967485,
            "velocity": 0.5905511811023622
          },
          {
            "duration": 0.3897847708333373,
            "durationTicks": 58,
            "midi": 45,
            "name": "A2",
            "ticks": 8544,
            "time": 57.419329,
            "velocity": 0.6535433070866141
          },
          {
            "duration": 1.2096768749999995,
            "durationTicks": 180,
            "midi": 60,
            "name": "C4",
            "ticks": 8569,
            "time": 57.587339677083335,
            "velocity": 0.6929133858267716
          },
          {
            "duration": 0.3696234895833399,
            "durationTicks": 55,
            "midi": 52,
            "name": "E3",
            "ticks": 8592,
            "time": 57.7419095,
            "velocity": 0.6141732283464567
          },
          {
            "duration": 0.336021354166661,
            "durationTicks": 50,
            "midi": 45,
            "name": "A2",
            "ticks": 8640,
            "time": 58.06449,
            "velocity": 0.6141732283464567
          },
          {
            "duration": 0.3561826354166655,
            "durationTicks": 53,
            "midi": 52,
            "name": "E3",
            "ticks": 8688,
            "time": 58.3870705,
            "velocity": 0.6377952755905512
          },
          {
            "duration": 0.336021354166661,
            "durationTicks": 50,
            "midi": 45,
            "name": "A2",
            "ticks": 8736,
            "time": 58.709651,
            "velocity": 0.5984251968503937
          },
          {
            "duration": 0.45026861458333656,
            "durationTicks": 67,
            "midi": 60,
            "name": "C4",
            "ticks": 8760,
            "time": 58.87094125,
            "velocity": 0.7165354330708661
          },
          {
            "duration": 0.3225804999999937,
            "durationTicks": 48,
            "midi": 52,
            "name": "E3",
            "ticks": 8784,
            "time": 59.0322315,
            "velocity": 0.6377952755905512
          },
          {
            "duration": 0.806451249999995,
            "durationTicks": 120,
            "midi": 59,
            "name": "B3",
            "ticks": 8831,
            "time": 59.348091572916665,
            "velocity": 0.6220472440944882
          },
          {
            "duration": 0.3494622083333425,
            "durationTicks": 52,
            "midi": 43,
            "name": "G2",
            "ticks": 8832,
            "time": 59.354811999999995,
            "velocity": 0.5826771653543307
          },
          {
            "duration": 0.3897847708333373,
            "durationTicks": 58,
            "midi": 50,
            "name": "D3",
            "ticks": 8880,
            "time": 59.677392499999996,
            "velocity": 0.6535433070866141
          },
          {
            "duration": 0.3696234895833399,
            "durationTicks": 55,
            "midi": 43,
            "name": "G2",
            "ticks": 8928,
            "time": 59.999973,
            "velocity": 0.6141732283464567
          },
          {
            "duration": 0.5577954479166678,
            "durationTicks": 83,
            "midi": 59,
            "name": "B3",
            "ticks": 8952,
            "time": 60.16126325,
            "velocity": 0.6771653543307087
          },
          {
            "duration": 0.7123652708333381,
            "durationTicks": 106,
            "midi": 50,
            "name": "D3",
            "ticks": 8976,
            "time": 60.3225535,
            "velocity": 0.6299212598425197
          },
          {
            "duration": 0.7526878333333329,
            "durationTicks": 112,
            "midi": 65,
            "name": "F4",
            "ticks": 9024,
            "time": 60.645134,
            "velocity": 0.6692913385826772
          },
          {
            "duration": 0.3830643437500001,
            "durationTicks": 57,
            "midi": 57,
            "name": "A3",
            "ticks": 9072,
            "time": 60.9677145,
            "velocity": 0.6850393700787402
          },
          {
            "duration": 0.3561826354166584,
            "durationTicks": 53,
            "midi": 50,
            "name": "D3",
            "ticks": 9120,
            "time": 61.290295,
            "velocity": 0.6377952755905512
          },
          {
            "duration": 0.45698904166665955,
            "durationTicks": 68,
            "midi": 65,
            "name": "F4",
            "ticks": 9145,
            "time": 61.45830567708334,
            "velocity": 0.7165354330708661
          },
          {
            "duration": 0.29569879166665913,
            "durationTicks": 44,
            "midi": 57,
            "name": "A3",
            "ticks": 9168,
            "time": 61.6128755,
            "velocity": 0.6377952755905512
          },
          {
            "duration": 0.806451249999995,
            "durationTicks": 120,
            "midi": 64,
            "name": "E4",
            "ticks": 9216,
            "time": 61.935456,
            "velocity": 0.6456692913385826
          },
          {
            "duration": 0.3225804999999937,
            "durationTicks": 48,
            "midi": 45,
            "name": "A2",
            "ticks": 9216,
            "time": 61.935456,
            "velocity": 0.6141732283464567
          },
          {
            "duration": 0.29569879166666624,
            "durationTicks": 44,
            "midi": 52,
            "name": "E3",
            "ticks": 9264,
            "time": 62.258036499999996,
            "velocity": 0.6062992125984252
          },
          {
            "duration": 0.28897836458333614,
            "durationTicks": 43,
            "midi": 45,
            "name": "A2",
            "ticks": 9314,
            "time": 62.594057854166664,
            "velocity": 0.6062992125984252
          },
          {
            "duration": 0.3830643437500001,
            "durationTicks": 57,
            "midi": 60,
            "name": "C4",
            "ticks": 9336,
            "time": 62.74190725,
            "velocity": 0.6771653543307087
          },
          {
            "duration": 0.30913964583334064,
            "durationTicks": 46,
            "midi": 52,
            "name": "E3",
            "ticks": 9360,
            "time": 62.9031975,
            "velocity": 0.5826771653543307
          },
          {
            "duration": 1.1088704687500055,
            "durationTicks": 165,
            "midi": 60,
            "name": "C4",
            "ticks": 9408,
            "time": 63.225778,
            "velocity": 0.6456692913385826
          },
          {
            "duration": 0.3225805000000008,
            "durationTicks": 48,
            "midi": 45,
            "name": "A2",
            "ticks": 9408,
            "time": 63.225778,
            "velocity": 0.6141732283464567
          },
          {
            "duration": 0.25537622916666436,
            "durationTicks": 38,
            "midi": 52,
            "name": "E3",
            "ticks": 9456,
            "time": 63.5483585,
            "velocity": 0.6377952755905512
          },
          {
            "duration": 0.3696234895833399,
            "durationTicks": 55,
            "midi": 45,
            "name": "A2",
            "ticks": 9504,
            "time": 63.870939,
            "velocity": 0.6062992125984252
          },
          {
            "duration": 0.28897836458334325,
            "durationTicks": 43,
            "midi": 47,
            "name": "B2",
            "ticks": 9552,
            "time": 64.1935195,
            "velocity": 0.6692913385826772
          },
          {
            "duration": 0.28225793750000605,
            "durationTicks": 42,
            "midi": 62,
            "name": "D4",
            "ticks": 9552,
            "time": 64.1935195,
            "velocity": 0.6850393700787402
          },
          {
            "duration": 0.3629030625000098,
            "durationTicks": 54,
            "midi": 48,
            "name": "C3",
            "ticks": 9600,
            "time": 64.5161,
            "velocity": 0.6771653543307087
          },
          {
            "duration": 0.6249997187500043,
            "durationTicks": 93,
            "midi": 60,
            "name": "C4",
            "ticks": 9601,
            "time": 64.52282042708333,
            "velocity": 0.48031496062992124
          },
          {
            "duration": 0.3225805000000008,
            "durationTicks": 48,
            "midi": 55,
            "name": "G3",
            "ticks": 9648,
            "time": 64.8386805,
            "velocity": 0.6141732283464567
          },
          {
            "duration": 0.30913964583334064,
            "durationTicks": 46,
            "midi": 48,
            "name": "C3",
            "ticks": 9696,
            "time": 65.161261,
            "velocity": 0.6614173228346457
          },
          {
            "duration": 0.49059117708333133,
            "durationTicks": 73,
            "midi": 60,
            "name": "C4",
            "ticks": 9720,
            "time": 65.32255125,
            "velocity": 0.7007874015748031
          },
          {
            "duration": 0.3427417812499982,
            "durationTicks": 51,
            "midi": 55,
            "name": "G3",
            "ticks": 9744,
            "time": 65.4838415,
            "velocity": 0.6535433070866141
          },
          {
            "duration": 0.759408260416663,
            "durationTicks": 113,
            "midi": 62,
            "name": "D4",
            "ticks": 9792,
            "time": 65.806422,
            "velocity": 0.6141732283464567
          },
          {
            "duration": 0.30913964583334064,
            "durationTicks": 46,
            "midi": 47,
            "name": "B2",
            "ticks": 9792,
            "time": 65.806422,
            "velocity": 0.6220472440944882
          },
          {
            "duration": 0.3561826354166584,
            "durationTicks": 53,
            "midi": 55,
            "name": "G3",
            "ticks": 9840,
            "time": 66.1290025,
            "velocity": 0.6771653543307087
          },
          {
            "duration": 0.3225805000000008,
            "durationTicks": 48,
            "midi": 47,
            "name": "B2",
            "ticks": 9888,
            "time": 66.451583,
            "velocity": 0.6141732283464567
          },
          {
            "duration": 0.45026861458333656,
            "durationTicks": 67,
            "midi": 62,
            "name": "D4",
            "ticks": 9912,
            "time": 66.61287324999999,
            "velocity": 0.6850393700787402
          },
          {
            "duration": 0.3427417812499982,
            "durationTicks": 51,
            "midi": 55,
            "name": "G3",
            "ticks": 9936,
            "time": 66.7741635,
            "velocity": 0.6377952755905512
          },
          {
            "duration": 0.6586018541666618,
            "durationTicks": 98,
            "midi": 60,
            "name": "C4",
            "ticks": 9982,
            "time": 67.08330314583334,
            "velocity": 0.6062992125984252
          },
          {
            "duration": 0.3158600729166636,
            "durationTicks": 47,
            "midi": 45,
            "name": "A2",
            "ticks": 9984,
            "time": 67.096744,
            "velocity": 0.6299212598425197
          },
          {
            "duration": 0.3225805000000008,
            "durationTicks": 48,
            "midi": 45,
            "name": "A2",
            "ticks": 10080,
            "time": 67.741905,
            "velocity": 0.6220472440944882
          },
          {
            "duration": 0.3696234895833328,
            "durationTicks": 55,
            "midi": 60,
            "name": "C4",
            "ticks": 10105,
            "time": 67.90991567708333,
            "velocity": 0.7007874015748031
          },
          {
            "duration": 0.26881708333333165,
            "durationTicks": 40,
            "midi": 52,
            "name": "E3",
            "ticks": 10130,
            "time": 68.07792635416666,
            "velocity": 0.6614173228346457
          },
          {
            "duration": 0.383064343749993,
            "durationTicks": 57,
            "midi": 45,
            "name": "A2",
            "ticks": 10176,
            "time": 68.387066,
            "velocity": 0.6299212598425197
          },
          {
            "duration": 0.7459674062499886,
            "durationTicks": 111,
            "midi": 60,
            "name": "C4",
            "ticks": 10176,
            "time": 68.387066,
            "velocity": 0.6299212598425197
          },
          {
            "duration": 0.3629030624999956,
            "durationTicks": 54,
            "midi": 52,
            "name": "E3",
            "ticks": 10224,
            "time": 68.7096465,
            "velocity": 0.6614173228346457
          },
          {
            "duration": 0.3629030625000098,
            "durationTicks": 54,
            "midi": 45,
            "name": "A2",
            "ticks": 10272,
            "time": 69.03222699999999,
            "velocity": 0.6141732283464567
          },
          {
            "duration": 0.49059117708333133,
            "durationTicks": 73,
            "midi": 60,
            "name": "C4",
            "ticks": 10296,
            "time": 69.19351725,
            "velocity": 0.7165354330708661
          },
          {
            "duration": 0.3360213541666752,
            "durationTicks": 50,
            "midi": 52,
            "name": "E3",
            "ticks": 10320,
            "time": 69.35480749999999,
            "velocity": 0.6692913385826772
          },
          {
            "duration": 0.7459674062500028,
            "durationTicks": 111,
            "midi": 59,
            "name": "B3",
            "ticks": 10368,
            "time": 69.677388,
            "velocity": 0.6299212598425197
          },
          {
            "duration": 0.369623489583347,
            "durationTicks": 55,
            "midi": 43,
            "name": "G2",
            "ticks": 10368,
            "time": 69.677388,
            "velocity": 0.6377952755905512
          },
          {
            "duration": 0.37634391666667,
            "durationTicks": 56,
            "midi": 50,
            "name": "D3",
            "ticks": 10416,
            "time": 69.9999685,
            "velocity": 0.6535433070866141
          },
          {
            "duration": 0.3830643437500072,
            "durationTicks": 57,
            "midi": 43,
            "name": "G2",
            "ticks": 10464,
            "time": 70.322549,
            "velocity": 0.6141732283464567
          },
          {
            "duration": 0.5645158749999979,
            "durationTicks": 84,
            "midi": 59,
            "name": "B3",
            "ticks": 10488,
            "time": 70.48383925,
            "velocity": 0.6771653543307087
          },
          {
            "duration": 0.22177409374999968,
            "durationTicks": 33,
            "midi": 50,
            "name": "D3",
            "ticks": 10512,
            "time": 70.6451295,
            "velocity": 0.6535433070866141
          },
          {
            "duration": 0.705644843750008,
            "durationTicks": 105,
            "midi": 65,
            "name": "F4",
            "ticks": 10560,
            "time": 70.96771,
            "velocity": 0.6692913385826772
          },
          {
            "duration": 0.3494622083333354,
            "durationTicks": 52,
            "midi": 50,
            "name": "D3",
            "ticks": 10560,
            "time": 70.96771,
            "velocity": 0.6535433070866141
          },
          {
            "duration": 0.3965051979166674,
            "durationTicks": 59,
            "midi": 57,
            "name": "A3",
            "ticks": 10608,
            "time": 71.2902905,
            "velocity": 0.5905511811023622
          },
          {
            "duration": 0.5309137395833403,
            "durationTicks": 79,
            "midi": 50,
            "name": "D3",
            "ticks": 10656,
            "time": 71.612871,
            "velocity": 0.6535433070866141
          },
          {
            "duration": 0.47042989583334816,
            "durationTicks": 70,
            "midi": 65,
            "name": "F4",
            "ticks": 10680,
            "time": 71.77416124999999,
            "velocity": 0.7007874015748031
          },
          {
            "duration": 0.26209665624999445,
            "durationTicks": 39,
            "midi": 57,
            "name": "A3",
            "ticks": 10704,
            "time": 71.9354515,
            "velocity": 0.6377952755905512
          },
          {
            "duration": 0.8938168020833359,
            "durationTicks": 133,
            "midi": 64,
            "name": "E4",
            "ticks": 10752,
            "time": 72.258032,
            "velocity": 0.6299212598425197
          },
          {
            "duration": 0.336021354166661,
            "durationTicks": 50,
            "midi": 45,
            "name": "A2",
            "ticks": 10752,
            "time": 72.258032,
            "velocity": 0.6141732283464567
          },
          {
            "duration": 0.3629030624999956,
            "durationTicks": 54,
            "midi": 52,
            "name": "E3",
            "ticks": 10800,
            "time": 72.5806125,
            "velocity": 0.6220472440944882
          },
          {
            "duration": 0.336021354166661,
            "durationTicks": 50,
            "midi": 45,
            "name": "A2",
            "ticks": 10848,
            "time": 72.903193,
            "velocity": 0.6456692913385826
          },
          {
            "duration": 0.43682776041666216,
            "durationTicks": 65,
            "midi": 60,
            "name": "C4",
            "ticks": 10872,
            "time": 73.06448325,
            "velocity": 0.6614173228346457
          },
          {
            "duration": 0.3225805000000008,
            "durationTicks": 48,
            "midi": 52,
            "name": "E3",
            "ticks": 10896,
            "time": 73.2257735,
            "velocity": 0.6062992125984252
          },
          {
            "duration": 0.7930103958333348,
            "durationTicks": 118,
            "midi": 60,
            "name": "C4",
            "ticks": 10943,
            "time": 73.54163357291667,
            "velocity": 0.6299212598425197
          },
          {
            "duration": 0.3225805000000008,
            "durationTicks": 48,
            "midi": 45,
            "name": "A2",
            "ticks": 10944,
            "time": 73.548354,
            "velocity": 0.6141732283464567
          },
          {
            "duration": 0.3158600729166636,
            "durationTicks": 47,
            "midi": 52,
            "name": "E3",
            "ticks": 10992,
            "time": 73.8709345,
            "velocity": 0.6299212598425197
          },
          {
            "duration": 0.3494622083333354,
            "durationTicks": 52,
            "midi": 45,
            "name": "A2",
            "ticks": 11039,
            "time": 74.18679457291667,
            "velocity": 0.6377952755905512
          },
          {
            "duration": 0.44354818749999936,
            "durationTicks": 66,
            "midi": 60,
            "name": "C4",
            "ticks": 11065,
            "time": 74.36152567708334,
            "velocity": 0.7086614173228346
          },
          {
            "duration": 0.369623489583347,
            "durationTicks": 55,
            "midi": 52,
            "name": "E3",
            "ticks": 11088,
            "time": 74.51609549999999,
            "velocity": 0.6535433070866141
          },
          {
            "duration": 0.3830643437500072,
            "durationTicks": 57,
            "midi": 42,
            "name": "F#2",
            "ticks": 11136,
            "time": 74.83867599999999,
            "velocity": 0.6299212598425197
          },
          {
            "duration": 0.7862899687500118,
            "durationTicks": 117,
            "midi": 62,
            "name": "D4",
            "ticks": 11136,
            "time": 74.83867599999999,
            "velocity": 0.6614173228346457
          },
          {
            "duration": 0.3158600729166636,
            "durationTicks": 47,
            "midi": 50,
            "name": "D3",
            "ticks": 11184,
            "time": 75.1612565,
            "velocity": 0.6299212598425197
          },
          {
            "duration": 0.4099460520833418,
            "durationTicks": 61,
            "midi": 42,
            "name": "F#2",
            "ticks": 11232,
            "time": 75.483837,
            "velocity": 0.6141732283464567
          },
          {
            "duration": 0.43682776041666216,
            "durationTicks": 65,
            "midi": 62,
            "name": "D4",
            "ticks": 11256,
            "time": 75.64512725,
            "velocity": 0.7086614173228346
          },
          {
            "duration": 0.30241921875000344,
            "durationTicks": 45,
            "midi": 50,
            "name": "D3",
            "ticks": 11280,
            "time": 75.8064175,
            "velocity": 0.6062992125984252
          },
          {
            "duration": 0.8938168020833359,
            "durationTicks": 133,
            "midi": 62,
            "name": "D4",
            "ticks": 11328,
            "time": 76.128998,
            "velocity": 0.6692913385826772
          },
          {
            "duration": 0.29569879166666624,
            "durationTicks": 44,
            "midi": 43,
            "name": "G2",
            "ticks": 11328,
            "time": 76.128998,
            "velocity": 0.6141732283464567
          },
          {
            "duration": 0.3830643437500072,
            "durationTicks": 57,
            "midi": 50,
            "name": "D3",
            "ticks": 11376,
            "time": 76.4515785,
            "velocity": 0.6141732283464567
          },
          {
            "duration": 0.3561826354166584,
            "durationTicks": 53,
            "midi": 43,
            "name": "G2",
            "ticks": 11424,
            "time": 76.774159,
            "velocity": 0.6062992125984252
          },
          {
            "duration": 0.3360213541666752,
            "durationTicks": 50,
            "midi": 59,
            "name": "B3",
            "ticks": 11449,
            "time": 76.94216967708333,
            "velocity": 0.6220472440944882
          },
          {
            "duration": 0.3494622083333354,
            "durationTicks": 52,
            "midi": 50,
            "name": "D3",
            "ticks": 11472,
            "time": 77.0967395,
            "velocity": 0.6062992125984252
          },
          {
            "duration": 0.14784939583333312,
            "durationTicks": 22,
            "midi": 59,
            "name": "B3",
            "ticks": 11520,
            "time": 77.41932,
            "velocity": 0.6299212598425197
          },
          {
            "duration": 0.329300927083338,
            "durationTicks": 49,
            "midi": 45,
            "name": "A2",
            "ticks": 11520,
            "time": 77.41932,
            "velocity": 0.6220472440944882
          },
          {
            "duration": 0.6384405729166645,
            "durationTicks": 95,
            "midi": 60,
            "name": "C4",
            "ticks": 11544,
            "time": 77.58061024999999,
            "velocity": 0.6062992125984252
          },
          {
            "duration": 0.30913964583334064,
            "durationTicks": 46,
            "midi": 52,
            "name": "E3",
            "ticks": 11568,
            "time": 77.7419005,
            "velocity": 0.6141732283464567
          },
          {
            "duration": 0.336021354166661,
            "durationTicks": 50,
            "midi": 45,
            "name": "A2",
            "ticks": 11616,
            "time": 78.064481,
            "velocity": 0.6299212598425197
          },
          {
            "duration": 0.47042989583333394,
            "durationTicks": 70,
            "midi": 60,
            "name": "C4",
            "ticks": 11640,
            "time": 78.22577125,
            "velocity": 0.6692913385826772
          },
          {
            "duration": 0.3696234895833328,
            "durationTicks": 55,
            "midi": 52,
            "name": "E3",
            "ticks": 11664,
            "time": 78.3870615,
            "velocity": 0.6062992125984252
          },
          {
            "duration": 0.7795695416666604,
            "durationTicks": 116,
            "midi": 60,
            "name": "C4",
            "ticks": 11712,
            "time": 78.709642,
            "velocity": 0.6299212598425197
          },
          {
            "duration": 0.3561826354166584,
            "durationTicks": 53,
            "midi": 43,
            "name": "G2",
            "ticks": 11712,
            "time": 78.709642,
            "velocity": 0.6141732283464567
          },
          {
            "duration": 0.3763439166666558,
            "durationTicks": 56,
            "midi": 52,
            "name": "E3",
            "ticks": 11760,
            "time": 79.0322225,
            "velocity": 0.6299212598425197
          },
          {
            "duration": 0.336021354166661,
            "durationTicks": 50,
            "midi": 43,
            "name": "G2",
            "ticks": 11808,
            "time": 79.354803,
            "velocity": 0.6377952755905512
          },
          {
            "duration": 0.4032256250000046,
            "durationTicks": 60,
            "midi": 60,
            "name": "C4",
            "ticks": 11832,
            "time": 79.51609325,
            "velocity": 0.6850393700787402
          },
          {
            "duration": 0.3763439166666558,
            "durationTicks": 56,
            "midi": 52,
            "name": "E3",
            "ticks": 11856,
            "time": 79.6773835,
            "velocity": 0.6299212598425197
          },
          {
            "duration": 0.799730822916672,
            "durationTicks": 119,
            "midi": 62,
            "name": "D4",
            "ticks": 11904,
            "time": 79.99996399999999,
            "velocity": 0.6377952755905512
          },
          {
            "duration": 0.3494622083333496,
            "durationTicks": 52,
            "midi": 42,
            "name": "F#2",
            "ticks": 11904,
            "time": 79.99996399999999,
            "velocity": 0.6299212598425197
          },
          {
            "duration": 0.37634391666667,
            "durationTicks": 56,
            "midi": 50,
            "name": "D3",
            "ticks": 11952,
            "time": 80.32254449999999,
            "velocity": 0.6141732283464567
          },
          {
            "duration": 0.37634391666667,
            "durationTicks": 56,
            "midi": 42,
            "name": "F#2",
            "ticks": 12000,
            "time": 80.645125,
            "velocity": 0.6220472440944882
          },
          {
            "duration": 0.43682776041666216,
            "durationTicks": 65,
            "midi": 62,
            "name": "D4",
            "ticks": 12024,
            "time": 80.80641525,
            "velocity": 0.7007874015748031
          },
          {
            "duration": 0.3158600729166636,
            "durationTicks": 47,
            "midi": 50,
            "name": "D3",
            "ticks": 12048,
            "time": 80.9677055,
            "velocity": 0.6299212598425197
          },
          {
            "duration": 0.8602146666666641,
            "durationTicks": 128,
            "midi": 62,
            "name": "D4",
            "ticks": 12096,
            "time": 81.290286,
            "velocity": 0.6614173228346457
          },
          {
            "duration": 0.3158600729166636,
            "durationTicks": 47,
            "midi": 43,
            "name": "G2",
            "ticks": 12096,
            "time": 81.290286,
            "velocity": 0.6141732283464567
          },
          {
            "duration": 0.336021354166661,
            "durationTicks": 50,
            "midi": 52,
            "name": "E3",
            "ticks": 12144,
            "time": 81.6128665,
            "velocity": 0.6141732283464567
          },
          {
            "duration": 0.28225793750000605,
            "durationTicks": 42,
            "midi": 43,
            "name": "G2",
            "ticks": 12192,
            "time": 81.935447,
            "velocity": 0.6220472440944882
          },
          {
            "duration": 0.4099460520833276,
            "durationTicks": 61,
            "midi": 59,
            "name": "B3",
            "ticks": 12216,
            "time": 82.09673725,
            "velocity": 0.6692913385826772
          },
          {
            "duration": 0.3225805000000008,
            "durationTicks": 48,
            "midi": 52,
            "name": "E3",
            "ticks": 12240,
            "time": 82.2580275,
            "velocity": 0.6220472440944882
          },
          {
            "duration": 0.30241921875000344,
            "durationTicks": 45,
            "midi": 45,
            "name": "A2",
            "ticks": 12287,
            "time": 82.57388757291666,
            "velocity": 0.6299212598425197
          },
          {
            "duration": 0.45698904166667376,
            "durationTicks": 68,
            "midi": 59,
            "name": "B3",
            "ticks": 12288,
            "time": 82.580608,
            "velocity": 0.6614173228346457
          },
          {
            "duration": 0.383064343749993,
            "durationTicks": 57,
            "midi": 52,
            "name": "E3",
            "ticks": 12336,
            "time": 82.9031885,
            "velocity": 0.6141732283464567
          },
          {
            "duration": 0.329300927083338,
            "durationTicks": 49,
            "midi": 60,
            "name": "C4",
            "ticks": 12360,
            "time": 83.06447874999999,
            "velocity": 0.5984251968503937
          },
          {
            "duration": 0.37634391666667,
            "durationTicks": 56,
            "midi": 45,
            "name": "A2",
            "ticks": 12384,
            "time": 83.225769,
            "velocity": 0.5905511811023622
          },
          {
            "duration": 0.30241921875000344,
            "durationTicks": 45,
            "midi": 59,
            "name": "B3",
            "ticks": 12408,
            "time": 83.38705925,
            "velocity": 0.6456692913385826
          },
          {
            "duration": 0.3965051979166674,
            "durationTicks": 59,
            "midi": 52,
            "name": "E3",
            "ticks": 12432,
            "time": 83.5483495,
            "velocity": 0.5984251968503937
          },
          {
            "duration": 0.14784939583333312,
            "durationTicks": 22,
            "midi": 60,
            "name": "C4",
            "ticks": 12456,
            "time": 83.70963975,
            "velocity": 0.6456692913385826
          },
          {
            "duration": 0.49731160416666853,
            "durationTicks": 74,
            "midi": 59,
            "name": "B3",
            "ticks": 12480,
            "time": 83.87093,
            "velocity": 0.6692913385826772
          },
          {
            "duration": 0.37634391666667,
            "durationTicks": 56,
            "midi": 45,
            "name": "A2",
            "ticks": 12480,
            "time": 83.87093,
            "velocity": 0.5826771653543307
          },
          {
            "duration": 0.4099460520833276,
            "durationTicks": 61,
            "midi": 52,
            "name": "E3",
            "ticks": 12528,
            "time": 84.1935105,
            "velocity": 0.5984251968503937
          },
          {
            "duration": 0.4032256250000046,
            "durationTicks": 60,
            "midi": 60,
            "name": "C4",
            "ticks": 12552,
            "time": 84.35480075,
            "velocity": 0.6299212598425197
          },
          {
            "duration": 0.3629030624999956,
            "durationTicks": 54,
            "midi": 45,
            "name": "A2",
            "ticks": 12576,
            "time": 84.516091,
            "velocity": 0.6062992125984252
          },
          {
            "duration": 0.3494622083333354,
            "durationTicks": 52,
            "midi": 59,
            "name": "B3",
            "ticks": 12600,
            "time": 84.67738125,
            "velocity": 0.6535433070866141
          },
          {
            "duration": 0.3293009270833238,
            "durationTicks": 49,
            "midi": 52,
            "name": "E3",
            "ticks": 12624,
            "time": 84.8386715,
            "velocity": 0.6062992125984252
          },
          {
            "duration": 0.22849452083332267,
            "durationTicks": 34,
            "midi": 60,
            "name": "C4",
            "ticks": 12648,
            "time": 84.99996175,
            "velocity": 0.6614173228346457
          },
          {
            "duration": 0.5174728854166659,
            "durationTicks": 77,
            "midi": 59,
            "name": "B3",
            "ticks": 12672,
            "time": 85.161252,
            "velocity": 0.6692913385826772
          },
          {
            "duration": 0.3494622083333212,
            "durationTicks": 52,
            "midi": 45,
            "name": "A2",
            "ticks": 12672,
            "time": 85.161252,
            "velocity": 0.6141732283464567
          },
          {
            "duration": 0.4099460520833276,
            "durationTicks": 61,
            "midi": 55,
            "name": "G3",
            "ticks": 12720,
            "time": 85.48383249999999,
            "velocity": 0.5433070866141733
          },
          {
            "duration": 0.3091396458333264,
            "durationTicks": 46,
            "midi": 62,
            "name": "D4",
            "ticks": 12744,
            "time": 85.64512275,
            "velocity": 0.5984251968503937
          },
          {
            "duration": 0.3360213541666752,
            "durationTicks": 50,
            "midi": 45,
            "name": "A2",
            "ticks": 12768,
            "time": 85.80641299999999,
            "velocity": 0.6220472440944882
          },
          {
            "duration": 0.29569879166666624,
            "durationTicks": 44,
            "midi": 59,
            "name": "B3",
            "ticks": 12792,
            "time": 85.96770325,
            "velocity": 0.6220472440944882
          },
          {
            "duration": 0.3091396458333264,
            "durationTicks": 46,
            "midi": 55,
            "name": "G3",
            "ticks": 12816,
            "time": 86.12899349999999,
            "velocity": 0.6220472440944882
          },
          {
            "duration": 0.15456982291667032,
            "durationTicks": 23,
            "midi": 60,
            "name": "C4",
            "ticks": 12840,
            "time": 86.29028375,
            "velocity": 0.6535433070866141
          },
          {
            "duration": 0.3360213541666752,
            "durationTicks": 50,
            "midi": 45,
            "name": "A2",
            "ticks": 12864,
            "time": 86.451574,
            "velocity": 0.6062992125984252
          },
          {
            "duration": 0.5443545937500005,
            "durationTicks": 81,
            "midi": 59,
            "name": "B3",
            "ticks": 12866,
            "time": 86.46501485416667,
            "velocity": 0.6299212598425197
          },
          {
            "duration": 0.3965051979166816,
            "durationTicks": 59,
            "midi": 55,
            "name": "G3",
            "ticks": 12912,
            "time": 86.7741545,
            "velocity": 0.6141732283464567
          },
          {
            "duration": 0.41666647916666477,
            "durationTicks": 62,
            "midi": 62,
            "name": "D4",
            "ticks": 12936,
            "time": 86.93544475,
            "velocity": 0.6377952755905512
          },
          {
            "duration": 0.3629030624999956,
            "durationTicks": 54,
            "midi": 45,
            "name": "A2",
            "ticks": 12960,
            "time": 87.096735,
            "velocity": 0.6141732283464567
          },
          {
            "duration": 0.3225805000000008,
            "durationTicks": 48,
            "midi": 59,
            "name": "B3",
            "ticks": 12984,
            "time": 87.25802525,
            "velocity": 0.6141732283464567
          },
          {
            "duration": 0.29569879166668045,
            "durationTicks": 44,
            "midi": 55,
            "name": "G3",
            "ticks": 13008,
            "time": 87.4193155,
            "velocity": 0.6141732283464567
          },
          {
            "duration": 0.1680106770833163,
            "durationTicks": 25,
            "midi": 60,
            "name": "C4",
            "ticks": 13032,
            "time": 87.58060575,
            "velocity": 0.6456692913385826
          },
          {
            "duration": 0.3696234895833328,
            "durationTicks": 55,
            "midi": 45,
            "name": "A2",
            "ticks": 13056,
            "time": 87.741896,
            "velocity": 0.6062992125984252
          },
          {
            "duration": 0.47042989583333394,
            "durationTicks": 70,
            "midi": 59,
            "name": "B3",
            "ticks": 13056,
            "time": 87.741896,
            "velocity": 0.6614173228346457
          },
          {
            "duration": 0.3091396458333264,
            "durationTicks": 46,
            "midi": 53,
            "name": "F3",
            "ticks": 13104,
            "time": 88.0644765,
            "velocity": 0.6062992125984252
          },
          {
            "duration": 0.29569879166668045,
            "durationTicks": 44,
            "midi": 60,
            "name": "C4",
            "ticks": 13128,
            "time": 88.22576674999999,
            "velocity": 0.6062992125984252
          },
          {
            "duration": 0.3629030624999956,
            "durationTicks": 54,
            "midi": 45,
            "name": "A2",
            "ticks": 13152,
            "time": 88.387057,
            "velocity": 0.5748031496062992
          },
          {
            "duration": 0.3091396458333264,
            "durationTicks": 46,
            "midi": 59,
            "name": "B3",
            "ticks": 13176,
            "time": 88.54834724999999,
            "velocity": 0.6299212598425197
          },
          {
            "duration": 0.31586007291667784,
            "durationTicks": 47,
            "midi": 53,
            "name": "F3",
            "ticks": 13200,
            "time": 88.7096375,
            "velocity": 0.6062992125984252
          },
          {
            "duration": 0.14112896875001013,
            "durationTicks": 21,
            "midi": 60,
            "name": "C4",
            "ticks": 13224,
            "time": 88.87092774999999,
            "velocity": 0.6220472440944882
          },
          {
            "duration": 0.47042989583331973,
            "durationTicks": 70,
            "midi": 59,
            "name": "B3",
            "ticks": 13248,
            "time": 89.032218,
            "velocity": 0.6456692913385826
          },
          {
            "duration": 0.3561826354166726,
            "durationTicks": 53,
            "midi": 45,
            "name": "A2",
            "ticks": 13248,
            "time": 89.032218,
            "velocity": 0.5826771653543307
          },
          {
            "duration": 0.3158600729166636,
            "durationTicks": 47,
            "midi": 53,
            "name": "F3",
            "ticks": 13296,
            "time": 89.3547985,
            "velocity": 0.5748031496062992
          },
          {
            "duration": 0.3158600729166494,
            "durationTicks": 47,
            "midi": 60,
            "name": "C4",
            "ticks": 13319,
            "time": 89.50936832291667,
            "velocity": 0.6141732283464567
          },
          {
            "duration": 0.3360213541666752,
            "durationTicks": 50,
            "midi": 45,
            "name": "A2",
            "ticks": 13344,
            "time": 89.677379,
            "velocity": 0.5826771653543307
          },
          {
            "duration": 0.3091396458333264,
            "durationTicks": 46,
            "midi": 59,
            "name": "B3",
            "ticks": 13368,
            "time": 89.83866925,
            "velocity": 0.6456692913385826
          },
          {
            "duration": 0.3091396458333264,
            "durationTicks": 46,
            "midi": 53,
            "name": "F3",
            "ticks": 13392,
            "time": 89.9999595,
            "velocity": 0.6141732283464567
          },
          {
            "duration": 0.1747311041666677,
            "durationTicks": 26,
            "midi": 60,
            "name": "C4",
            "ticks": 13416,
            "time": 90.16124975,
            "velocity": 0.6456692913385826
          },
          {
            "duration": 0.37634391666667,
            "durationTicks": 56,
            "midi": 45,
            "name": "A2",
            "ticks": 13440,
            "time": 90.32254,
            "velocity": 0.5905511811023622
          },
          {
            "duration": 0.28897836458331483,
            "durationTicks": 43,
            "midi": 59,
            "name": "B3",
            "ticks": 13440,
            "time": 90.32254,
            "velocity": 0.6535433070866141
          },
          {
            "duration": 0.3091396458333264,
            "durationTicks": 46,
            "midi": 53,
            "name": "F3",
            "ticks": 13488,
            "time": 90.6451205,
            "velocity": 0.5984251968503937
          },
          {
            "duration": 0.3091396458333264,
            "durationTicks": 46,
            "midi": 60,
            "name": "C4",
            "ticks": 13512,
            "time": 90.80641075,
            "velocity": 0.6141732283464567
          },
          {
            "duration": 0.3629030625000098,
            "durationTicks": 54,
            "midi": 45,
            "name": "A2",
            "ticks": 13536,
            "time": 90.96770099999999,
            "velocity": 0.5905511811023622
          },
          {
            "duration": 0.1680106770833305,
            "durationTicks": 25,
            "midi": 59,
            "name": "B3",
            "ticks": 13560,
            "time": 91.12899125,
            "velocity": 0.5984251968503937
          },
          {
            "duration": 0.3091396458333264,
            "durationTicks": 46,
            "midi": 53,
            "name": "F3",
            "ticks": 13584,
            "time": 91.29028149999999,
            "velocity": 0.5748031496062992
          },
          {
            "duration": 0.1612902499999933,
            "durationTicks": 24,
            "midi": 60,
            "name": "C4",
            "ticks": 13608,
            "time": 91.45157175,
            "velocity": 0.6377952755905512
          },
          {
            "duration": 0.3629030625000098,
            "durationTicks": 54,
            "midi": 45,
            "name": "A2",
            "ticks": 13632,
            "time": 91.61286199999999,
            "velocity": 0.5905511811023622
          },
          {
            "duration": 0.43682776041667637,
            "durationTicks": 65,
            "midi": 59,
            "name": "B3",
            "ticks": 13632,
            "time": 91.61286199999999,
            "velocity": 0.6535433070866141
          },
          {
            "duration": 0.29569879166668045,
            "durationTicks": 44,
            "midi": 53,
            "name": "F3",
            "ticks": 13680,
            "time": 91.9354425,
            "velocity": 0.6220472440944882
          },
          {
            "duration": 0.30241921875000344,
            "durationTicks": 45,
            "midi": 60,
            "name": "C4",
            "ticks": 13704,
            "time": 92.09673275,
            "velocity": 0.6299212598425197
          },
          {
            "duration": 0.3427417812499982,
            "durationTicks": 51,
            "midi": 45,
            "name": "A2",
            "ticks": 13728,
            "time": 92.258023,
            "velocity": 0.6299212598425197
          },
          {
            "duration": 0.29569879166666624,
            "durationTicks": 44,
            "midi": 59,
            "name": "B3",
            "ticks": 13752,
            "time": 92.41931325,
            "velocity": 0.6535433070866141
          },
          {
            "duration": 0.3225805000000008,
            "durationTicks": 48,
            "midi": 53,
            "name": "F3",
            "ticks": 13776,
            "time": 92.5806035,
            "velocity": 0.6062992125984252
          },
          {
            "duration": 0.22177409374999968,
            "durationTicks": 33,
            "midi": 60,
            "name": "C4",
            "ticks": 13800,
            "time": 92.74189375,
            "velocity": 0.6220472440944882
          },
          {
            "duration": 0.4099460520833276,
            "durationTicks": 61,
            "midi": 45,
            "name": "A2",
            "ticks": 13824,
            "time": 92.903184,
            "velocity": 0.5826771653543307
          },
          {
            "duration": 0.5309137395833261,
            "durationTicks": 79,
            "midi": 59,
            "name": "B3",
            "ticks": 13824,
            "time": 92.903184,
            "velocity": 0.6535433070866141
          },
          {
            "duration": 0.4032256250000046,
            "durationTicks": 60,
            "midi": 52,
            "name": "E3",
            "ticks": 13872,
            "time": 93.2257645,
            "velocity": 0.6062992125984252
          },
          {
            "duration": 0.3965051979166674,
            "durationTicks": 59,
            "midi": 60,
            "name": "C4",
            "ticks": 13896,
            "time": 93.38705475,
            "velocity": 0.5826771653543307
          },
          {
            "duration": 0.44354818749999936,
            "durationTicks": 66,
            "midi": 45,
            "name": "A2",
            "ticks": 13920,
            "time": 93.548345,
            "velocity": 0.5826771653543307
          },
          {
            "duration": 0.3561826354166726,
            "durationTicks": 53,
            "midi": 59,
            "name": "B3",
            "ticks": 13944,
            "time": 93.70963524999999,
            "velocity": 0.6220472440944882
          },
          {
            "duration": 0.4099460520833276,
            "durationTicks": 61,
            "midi": 52,
            "name": "E3",
            "ticks": 13968,
            "time": 93.8709255,
            "velocity": 0.5748031496062992
          },
          {
            "duration": 0.22177409374999968,
            "durationTicks": 33,
            "midi": 60,
            "name": "C4",
            "ticks": 13992,
            "time": 94.03221574999999,
            "velocity": 0.6141732283464567
          },
          {
            "duration": 0.5510750208333235,
            "durationTicks": 82,
            "midi": 59,
            "name": "B3",
            "ticks": 14016,
            "time": 94.193506,
            "velocity": 0.6614173228346457
          },
          {
            "duration": 0.37634391666667,
            "durationTicks": 56,
            "midi": 45,
            "name": "A2",
            "ticks": 14016,
            "time": 94.193506,
            "velocity": 0.6141732283464567
          },
          {
            "duration": 0.4099460520833276,
            "durationTicks": 61,
            "midi": 52,
            "name": "E3",
            "ticks": 14064,
            "time": 94.5160865,
            "velocity": 0.5590551181102362
          },
          {
            "duration": 0.3830643437500072,
            "durationTicks": 57,
            "midi": 60,
            "name": "C4",
            "ticks": 14088,
            "time": 94.67737675,
            "velocity": 0.6535433070866141
          },
          {
            "duration": 0.3629030624999956,
            "durationTicks": 54,
            "midi": 45,
            "name": "A2",
            "ticks": 14112,
            "time": 94.838667,
            "velocity": 0.6062992125984252
          },
          {
            "duration": 0.3225805000000008,
            "durationTicks": 48,
            "midi": 59,
            "name": "B3",
            "ticks": 14136,
            "time": 94.99995725,
            "velocity": 0.6141732283464567
          },
          {
            "duration": 0.3360213541666752,
            "durationTicks": 50,
            "midi": 52,
            "name": "E3",
            "ticks": 14160,
            "time": 95.1612475,
            "velocity": 0.6141732283464567
          },
          {
            "duration": 0.20833323958332528,
            "durationTicks": 31,
            "midi": 60,
            "name": "C4",
            "ticks": 14184,
            "time": 95.32253775,
            "velocity": 0.6220472440944882
          },
          {
            "duration": 0.5040320312499915,
            "durationTicks": 75,
            "midi": 59,
            "name": "B3",
            "ticks": 14208,
            "time": 95.483828,
            "velocity": 0.6614173228346457
          },
          {
            "duration": 0.4099460520833276,
            "durationTicks": 61,
            "midi": 45,
            "name": "A2",
            "ticks": 14208,
            "time": 95.483828,
            "velocity": 0.5984251968503937
          },
          {
            "duration": 0.43010733333332496,
            "durationTicks": 64,
            "midi": 55,
            "name": "G3",
            "ticks": 14256,
            "time": 95.8064085,
            "velocity": 0.5905511811023622
          },
          {
            "duration": 0.3965051979166674,
            "durationTicks": 59,
            "midi": 62,
            "name": "D4",
            "ticks": 14280,
            "time": 95.96769875,
            "velocity": 0.6299212598425197
          },
          {
            "duration": 0.383064343749993,
            "durationTicks": 57,
            "midi": 45,
            "name": "A2",
            "ticks": 14304,
            "time": 96.128989,
            "velocity": 0.6062992125984252
          },
          {
            "duration": 0.3225805000000008,
            "durationTicks": 48,
            "midi": 59,
            "name": "B3",
            "ticks": 14328,
            "time": 96.29027925,
            "velocity": 0.6299212598425197
          },
          {
            "duration": 0.3830643437500072,
            "durationTicks": 57,
            "midi": 55,
            "name": "G3",
            "ticks": 14352,
            "time": 96.45156949999999,
            "velocity": 0.5826771653543307
          },
          {
            "duration": 0.2150536666666767,
            "durationTicks": 32,
            "midi": 60,
            "name": "C4",
            "ticks": 14376,
            "time": 96.61285975,
            "velocity": 0.6456692913385826
          },
          {
            "duration": 0.5241933125000031,
            "durationTicks": 78,
            "midi": 59,
            "name": "B3",
            "ticks": 14400,
            "time": 96.77414999999999,
            "velocity": 0.6535433070866141
          },
          {
            "duration": 0.3763439166666842,
            "durationTicks": 56,
            "midi": 45,
            "name": "A2",
            "ticks": 14400,
            "time": 96.77414999999999,
            "velocity": 0.5826771653543307
          },
          {
            "duration": 0.3561826354166726,
            "durationTicks": 53,
            "midi": 55,
            "name": "G3",
            "ticks": 14448,
            "time": 97.09673049999999,
            "velocity": 0.5905511811023622
          },
          {
            "duration": 0.4099460520833276,
            "durationTicks": 61,
            "midi": 62,
            "name": "D4",
            "ticks": 14472,
            "time": 97.25802075,
            "velocity": 0.6141732283464567
          },
          {
            "duration": 0.3561826354166726,
            "durationTicks": 53,
            "midi": 45,
            "name": "A2",
            "ticks": 14496,
            "time": 97.419311,
            "velocity": 0.6220472440944882
          },
          {
            "duration": 0.3494622083333212,
            "durationTicks": 52,
            "midi": 59,
            "name": "B3",
            "ticks": 14520,
            "time": 97.58060125,
            "velocity": 0.6299212598425197
          },
          {
            "duration": 0.3091396458333264,
            "durationTicks": 46,
            "midi": 55,
            "name": "G3",
            "ticks": 14544,
            "time": 97.7418915,
            "velocity": 0.5826771653543307
          },
          {
            "duration": 0.23521494791667408,
            "durationTicks": 35,
            "midi": 60,
            "name": "C4",
            "ticks": 14568,
            "time": 97.90318175,
            "velocity": 0.6535433070866141
          },
          {
            "duration": 0.42338690625000197,
            "durationTicks": 63,
            "midi": 45,
            "name": "A2",
            "ticks": 14592,
            "time": 98.064472,
            "velocity": 0.6299212598425197
          },
          {
            "duration": 0.5174728854166801,
            "durationTicks": 77,
            "midi": 59,
            "name": "B3",
            "ticks": 14592,
            "time": 98.064472,
            "velocity": 0.6299212598425197
          },
          {
            "duration": 0.4032256250000046,
            "durationTicks": 60,
            "midi": 53,
            "name": "F3",
            "ticks": 14640,
            "time": 98.3870525,
            "velocity": 0.5748031496062992
          },
          {
            "duration": 0.4032256249999904,
            "durationTicks": 60,
            "midi": 60,
            "name": "C4",
            "ticks": 14664,
            "time": 98.54834275,
            "velocity": 0.5905511811023622
          },
          {
            "duration": 0.3629030624999956,
            "durationTicks": 54,
            "midi": 45,
            "name": "A2",
            "ticks": 14688,
            "time": 98.709633,
            "velocity": 0.5669291338582677
          },
          {
            "duration": 0.336021354166661,
            "durationTicks": 50,
            "midi": 59,
            "name": "B3",
            "ticks": 14712,
            "time": 98.87092325,
            "velocity": 0.5984251968503937
          },
          {
            "duration": 0.4032256250000046,
            "durationTicks": 60,
            "midi": 53,
            "name": "F3",
            "ticks": 14736,
            "time": 99.0322135,
            "velocity": 0.5826771653543307
          },
          {
            "duration": 0.2150536666666767,
            "durationTicks": 32,
            "midi": 60,
            "name": "C4",
            "ticks": 14760,
            "time": 99.19350374999999,
            "velocity": 0.6377952755905512
          },
          {
            "duration": 0.5443545937500005,
            "durationTicks": 81,
            "midi": 59,
            "name": "B3",
            "ticks": 14784,
            "time": 99.354794,
            "velocity": 0.6456692913385826
          },
          {
            "duration": 0.383064343749993,
            "durationTicks": 57,
            "midi": 45,
            "name": "A2",
            "ticks": 14784,
            "time": 99.354794,
            "velocity": 0.5748031496062992
          },
          {
            "duration": 0.3696234895833328,
            "durationTicks": 55,
            "midi": 53,
            "name": "F3",
            "ticks": 14832,
            "time": 99.6773745,
            "velocity": 0.6220472440944882
          },
          {
            "duration": 0.4032256250000046,
            "durationTicks": 60,
            "midi": 60,
            "name": "C4",
            "ticks": 14856,
            "time": 99.83866474999999,
            "velocity": 0.6220472440944882
          },
          {
            "duration": 0.3897847708333302,
            "durationTicks": 58,
            "midi": 45,
            "name": "A2",
            "ticks": 14880,
            "time": 99.999955,
            "velocity": 0.5905511811023622
          },
          {
            "duration": 0.3427417812499982,
            "durationTicks": 51,
            "midi": 59,
            "name": "B3",
            "ticks": 14904,
            "time": 100.16124525,
            "velocity": 0.5826771653543307
          },
          {
            "duration": 0.24193537499999707,
            "durationTicks": 36,
            "midi": 53,
            "name": "F3",
            "ticks": 14928,
            "time": 100.3225355,
            "velocity": 0.5748031496062992
          },
          {
            "duration": 0.24193537499999707,
            "durationTicks": 36,
            "midi": 60,
            "name": "C4",
            "ticks": 14952,
            "time": 100.48382575,
            "velocity": 0.6299212598425197
          },
          {
            "duration": 0.5174728854166659,
            "durationTicks": 77,
            "midi": 59,
            "name": "B3",
            "ticks": 14976,
            "time": 100.645116,
            "velocity": 0.6456692913385826
          },
          {
            "duration": 0.3696234895833186,
            "durationTicks": 55,
            "midi": 45,
            "name": "A2",
            "ticks": 14976,
            "time": 100.645116,
            "velocity": 0.6141732283464567
          },
          {
            "duration": 0.383064343749993,
            "durationTicks": 57,
            "midi": 53,
            "name": "F3",
            "ticks": 15024,
            "time": 100.9676965,
            "velocity": 0.5826771653543307
          },
          {
            "duration": 0.4032256250000046,
            "durationTicks": 60,
            "midi": 60,
            "name": "C4",
            "ticks": 15048,
            "time": 101.12898675,
            "velocity": 0.6062992125984252
          },
          {
            "duration": 0.3494622083333212,
            "durationTicks": 52,
            "midi": 45,
            "name": "A2",
            "ticks": 15072,
            "time": 101.290277,
            "velocity": 0.5905511811023622
          },
          {
            "duration": 0.3360213541666752,
            "durationTicks": 50,
            "midi": 59,
            "name": "B3",
            "ticks": 15096,
            "time": 101.45156725,
            "velocity": 0.6141732283464567
          },
          {
            "duration": 0.383064343749993,
            "durationTicks": 57,
            "midi": 53,
            "name": "F3",
            "ticks": 15120,
            "time": 101.6128575,
            "velocity": 0.5669291338582677
          },
          {
            "duration": 0.20833323958332528,
            "durationTicks": 31,
            "midi": 60,
            "name": "C4",
            "ticks": 15144,
            "time": 101.77414775,
            "velocity": 0.6220472440944882
          },
          {
            "duration": 0.3561826354166726,
            "durationTicks": 53,
            "midi": 45,
            "name": "A2",
            "ticks": 15168,
            "time": 101.93543799999999,
            "velocity": 0.5669291338582677
          },
          {
            "duration": 0.5107524583333287,
            "durationTicks": 76,
            "midi": 59,
            "name": "B3",
            "ticks": 15168,
            "time": 101.93543799999999,
            "velocity": 0.6535433070866141
          },
          {
            "duration": 0.3763439166666842,
            "durationTicks": 56,
            "midi": 53,
            "name": "F3",
            "ticks": 15216,
            "time": 102.25801849999999,
            "velocity": 0.6141732283464567
          },
          {
            "duration": 0.45026861458332235,
            "durationTicks": 67,
            "midi": 60,
            "name": "C4",
            "ticks": 15240,
            "time": 102.41930875,
            "velocity": 0.5590551181102362
          },
          {
            "duration": 0.329300927083338,
            "durationTicks": 49,
            "midi": 45,
            "name": "A2",
            "ticks": 15264,
            "time": 102.58059899999999,
            "velocity": 0.6141732283464567
          },
          {
            "duration": 0.3225805000000008,
            "durationTicks": 48,
            "midi": 59,
            "name": "B3",
            "ticks": 15289,
            "time": 102.74860967708332,
            "velocity": 0.6141732283464567
          },
          {
            "duration": 0.3360213541666752,
            "durationTicks": 50,
            "midi": 53,
            "name": "F3",
            "ticks": 15312,
            "time": 102.9031795,
            "velocity": 0.5826771653543307
          },
          {
            "duration": 0.26209665624999445,
            "durationTicks": 39,
            "midi": 60,
            "name": "C4",
            "ticks": 15336,
            "time": 103.06446975,
            "velocity": 0.6377952755905512
          },
          {
            "duration": 0.3561826354166726,
            "durationTicks": 53,
            "midi": 45,
            "name": "A2",
            "ticks": 15360,
            "time": 103.22576,
            "velocity": 0.6062992125984252
          },
          {
            "duration": 0.49059117708333133,
            "durationTicks": 73,
            "midi": 59,
            "name": "B3",
            "ticks": 15360,
            "time": 103.22576,
            "velocity": 0.6377952755905512
          },
          {
            "duration": 0.3830643437500072,
            "durationTicks": 57,
            "midi": 52,
            "name": "E3",
            "ticks": 15408,
            "time": 103.5483405,
            "velocity": 0.6141732283464567
          },
          {
            "duration": 0.4099460520833276,
            "durationTicks": 61,
            "midi": 60,
            "name": "C4",
            "ticks": 15432,
            "time": 103.70963075,
            "velocity": 0.5984251968503937
          },
          {
            "duration": 0.3427417812499982,
            "durationTicks": 51,
            "midi": 45,
            "name": "A2",
            "ticks": 15456,
            "time": 103.870921,
            "velocity": 0.5748031496062992
          },
          {
            "duration": 0.3293009270833238,
            "durationTicks": 49,
            "midi": 59,
            "name": "B3",
            "ticks": 15480,
            "time": 104.03221125,
            "velocity": 0.6377952755905512
          },
          {
            "duration": 0.37634391666667,
            "durationTicks": 56,
            "midi": 52,
            "name": "E3",
            "ticks": 15504,
            "time": 104.1935015,
            "velocity": 0.5590551181102362
          },
          {
            "duration": 0.23521494791665987,
            "durationTicks": 35,
            "midi": 60,
            "name": "C4",
            "ticks": 15528,
            "time": 104.35479175,
            "velocity": 0.6535433070866141
          },
          {
            "duration": 0.3360213541666752,
            "durationTicks": 50,
            "midi": 45,
            "name": "A2",
            "ticks": 15552,
            "time": 104.516082,
            "velocity": 0.5826771653543307
          },
          {
            "duration": 0.5040320312500057,
            "durationTicks": 75,
            "midi": 59,
            "name": "B3",
            "ticks": 15552,
            "time": 104.516082,
            "velocity": 0.6220472440944882
          },
          {
            "duration": 0.3897847708333302,
            "durationTicks": 58,
            "midi": 52,
            "name": "E3",
            "ticks": 15600,
            "time": 104.8386625,
            "velocity": 0.6220472440944882
          },
          {
            "duration": 0.4099460520833276,
            "durationTicks": 61,
            "midi": 60,
            "name": "C4",
            "ticks": 15624,
            "time": 104.99995274999999,
            "velocity": 0.5984251968503937
          },
          {
            "duration": 0.3293009270833238,
            "durationTicks": 49,
            "midi": 45,
            "name": "A2",
            "ticks": 15648,
            "time": 105.161243,
            "velocity": 0.5905511811023622
          },
          {
            "duration": 0.3225805000000008,
            "durationTicks": 48,
            "midi": 59,
            "name": "B3",
            "ticks": 15672,
            "time": 105.32253324999999,
            "velocity": 0.6456692913385826
          },
          {
            "duration": 0.3360213541666752,
            "durationTicks": 50,
            "midi": 52,
            "name": "E3",
            "ticks": 15696,
            "time": 105.4838235,
            "velocity": 0.6141732283464567
          },
          {
            "duration": 0.22177409374999968,
            "durationTicks": 33,
            "midi": 60,
            "name": "C4",
            "ticks": 15720,
            "time": 105.64511375,
            "velocity": 0.6377952755905512
          },
          {
            "duration": 0.3897847708333302,
            "durationTicks": 58,
            "midi": 45,
            "name": "A2",
            "ticks": 15744,
            "time": 105.806404,
            "velocity": 0.6141732283464567
          },
          {
            "duration": 0.49731160416666853,
            "durationTicks": 74,
            "midi": 59,
            "name": "B3",
            "ticks": 15744,
            "time": 105.806404,
            "velocity": 0.6771653543307087
          },
          {
            "duration": 0.37634391666667,
            "durationTicks": 56,
            "midi": 55,
            "name": "G3",
            "ticks": 15792,
            "time": 106.1289845,
            "velocity": 0.5905511811023622
          },
          {
            "duration": 0.3830643437500072,
            "durationTicks": 57,
            "midi": 62,
            "name": "D4",
            "ticks": 15816,
            "time": 106.29027475,
            "velocity": 0.6299212598425197
          },
          {
            "duration": 0.3494622083333212,
            "durationTicks": 52,
            "midi": 45,
            "name": "A2",
            "ticks": 15840,
            "time": 106.451565,
            "velocity": 0.6220472440944882
          },
          {
            "duration": 0.3494622083333354,
            "durationTicks": 52,
            "midi": 59,
            "name": "B3",
            "ticks": 15864,
            "time": 106.61285525,
            "velocity": 0.6299212598425197
          },
          {
            "duration": 0.3629030624999956,
            "durationTicks": 54,
            "midi": 55,
            "name": "G3",
            "ticks": 15888,
            "time": 106.7741455,
            "velocity": 0.5748031496062992
          },
          {
            "duration": 0.22849452083332267,
            "durationTicks": 34,
            "midi": 60,
            "name": "C4",
            "ticks": 15912,
            "time": 106.93543575,
            "velocity": 0.6377952755905512
          },
          {
            "duration": 0.5040320312499915,
            "durationTicks": 75,
            "midi": 59,
            "name": "B3",
            "ticks": 15936,
            "time": 107.096726,
            "velocity": 0.6614173228346457
          },
          {
            "duration": 0.3494622083333212,
            "durationTicks": 52,
            "midi": 45,
            "name": "A2",
            "ticks": 15936,
            "time": 107.096726,
            "velocity": 0.5826771653543307
          },
          {
            "duration": 0.3561826354166726,
            "durationTicks": 53,
            "midi": 55,
            "name": "G3",
            "ticks": 15984,
            "time": 107.41930649999999,
            "velocity": 0.5905511811023622
          },
          {
            "duration": 0.416666479166679,
            "durationTicks": 62,
            "midi": 62,
            "name": "D4",
            "ticks": 16008,
            "time": 107.58059675,
            "velocity": 0.5511811023622047
          },
          {
            "duration": 0.3561826354166726,
            "durationTicks": 53,
            "midi": 45,
            "name": "A2",
            "ticks": 16032,
            "time": 107.74188699999999,
            "velocity": 0.5826771653543307
          },
          {
            "duration": 0.3494622083333212,
            "durationTicks": 52,
            "midi": 59,
            "name": "B3",
            "ticks": 16056,
            "time": 107.90317725,
            "velocity": 0.6377952755905512
          },
          {
            "duration": 0.29569879166668045,
            "durationTicks": 44,
            "midi": 55,
            "name": "G3",
            "ticks": 16080,
            "time": 108.06446749999999,
            "velocity": 0.5826771653543307
          },
          {
            "duration": 0.22849452083332267,
            "durationTicks": 34,
            "midi": 60,
            "name": "C4",
            "ticks": 16104,
            "time": 108.22575775,
            "velocity": 0.6535433070866141
          },
          {
            "duration": 0.4099460520833276,
            "durationTicks": 61,
            "midi": 45,
            "name": "A2",
            "ticks": 16128,
            "time": 108.387048,
            "velocity": 0.5905511811023622
          },
          {
            "duration": 0.5040320312500057,
            "durationTicks": 75,
            "midi": 59,
            "name": "B3",
            "ticks": 16128,
            "time": 108.387048,
            "velocity": 0.6614173228346457
          },
          {
            "duration": 0.3830643437500072,
            "durationTicks": 57,
            "midi": 53,
            "name": "F3",
            "ticks": 16176,
            "time": 108.7096285,
            "velocity": 0.6141732283464567
          },
          {
            "duration": 0.4032256249999904,
            "durationTicks": 60,
            "midi": 60,
            "name": "C4",
            "ticks": 16200,
            "time": 108.87091875,
            "velocity": 0.5826771653543307
          },
          {
            "duration": 0.3494622083333354,
            "durationTicks": 52,
            "midi": 45,
            "name": "A2",
            "ticks": 16224,
            "time": 109.032209,
            "velocity": 0.6062992125984252
          },
          {
            "duration": 0.3158600729166636,
            "durationTicks": 47,
            "midi": 59,
            "name": "B3",
            "ticks": 16248,
            "time": 109.19349925,
            "velocity": 0.6377952755905512
          },
          {
            "duration": 0.37634391666667,
            "durationTicks": 56,
            "midi": 53,
            "name": "F3",
            "ticks": 16272,
            "time": 109.3547895,
            "velocity": 0.5748031496062992
          },
          {
            "duration": 0.22177409374999968,
            "durationTicks": 33,
            "midi": 60,
            "name": "C4",
            "ticks": 16295,
            "time": 109.50935932291667,
            "velocity": 0.6692913385826772
          },
          {
            "duration": 0.49731160416666853,
            "durationTicks": 74,
            "midi": 59,
            "name": "B3",
            "ticks": 16320,
            "time": 109.67737,
            "velocity": 0.6535433070866141
          },
          {
            "duration": 0.3897847708333302,
            "durationTicks": 58,
            "midi": 45,
            "name": "A2",
            "ticks": 16320,
            "time": 109.67737,
            "velocity": 0.5433070866141733
          },
          {
            "duration": 0.3965051979166674,
            "durationTicks": 59,
            "midi": 53,
            "name": "F3",
            "ticks": 16368,
            "time": 109.9999505,
            "velocity": 0.5905511811023622
          },
          {
            "duration": 0.4032256250000046,
            "durationTicks": 60,
            "midi": 60,
            "name": "C4",
            "ticks": 16391,
            "time": 110.15452032291667,
            "velocity": 0.6141732283464567
          },
          {
            "duration": 0.3897847708333302,
            "durationTicks": 58,
            "midi": 45,
            "name": "A2",
            "ticks": 16416,
            "time": 110.322531,
            "velocity": 0.6062992125984252
          },
          {
            "duration": 0.3494622083333354,
            "durationTicks": 52,
            "midi": 59,
            "name": "B3",
            "ticks": 16440,
            "time": 110.48382124999999,
            "velocity": 0.5905511811023622
          },
          {
            "duration": 0.3629030624999956,
            "durationTicks": 54,
            "midi": 53,
            "name": "F3",
            "ticks": 16464,
            "time": 110.6451115,
            "velocity": 0.5905511811023622
          },
          {
            "duration": 0.22849452083333688,
            "durationTicks": 34,
            "midi": 60,
            "name": "C4",
            "ticks": 16488,
            "time": 110.80640174999999,
            "velocity": 0.6141732283464567
          },
          {
            "duration": 0.5040320312499915,
            "durationTicks": 75,
            "midi": 59,
            "name": "B3",
            "ticks": 16512,
            "time": 110.967692,
            "velocity": 0.6456692913385826
          },
          {
            "duration": 0.383064343749993,
            "durationTicks": 57,
            "midi": 45,
            "name": "A2",
            "ticks": 16512,
            "time": 110.967692,
            "velocity": 0.6062992125984252
          },
          {
            "duration": 0.3696234895833186,
            "durationTicks": 55,
            "midi": 53,
            "name": "F3",
            "ticks": 16560,
            "time": 111.2902725,
            "velocity": 0.5748031496062992
          },
          {
            "duration": 0.42338690625000197,
            "durationTicks": 63,
            "midi": 60,
            "name": "C4",
            "ticks": 16584,
            "time": 111.45156275,
            "velocity": 0.5826771653543307
          },
          {
            "duration": 0.3561826354166726,
            "durationTicks": 53,
            "midi": 45,
            "name": "A2",
            "ticks": 16608,
            "time": 111.612853,
            "velocity": 0.5669291338582677
          },
          {
            "duration": 0.3494622083333354,
            "durationTicks": 52,
            "midi": 59,
            "name": "B3",
            "ticks": 16632,
            "time": 111.77414325,
            "velocity": 0.5905511811023622
          },
          {
            "duration": 0.4032256249999904,
            "durationTicks": 60,
            "midi": 53,
            "name": "F3",
            "ticks": 16656,
            "time": 111.9354335,
            "velocity": 0.6535433070866141
          },
          {
            "duration": 0.23521494791667408,
            "durationTicks": 35,
            "midi": 60,
            "name": "C4",
            "ticks": 16680,
            "time": 112.09672375,
            "velocity": 0.6456692913385826
          },
          {
            "duration": 0.3696234895833186,
            "durationTicks": 55,
            "midi": 45,
            "name": "A2",
            "ticks": 16704,
            "time": 112.258014,
            "velocity": 0.5669291338582677
          },
          {
            "duration": 0.45698904166667376,
            "durationTicks": 68,
            "midi": 59,
            "name": "B3",
            "ticks": 16704,
            "time": 112.258014,
            "velocity": 0.6456692913385826
          },
          {
            "duration": 0.3696234895833186,
            "durationTicks": 55,
            "midi": 53,
            "name": "F3",
            "ticks": 16752,
            "time": 112.5805945,
            "velocity": 0.6299212598425197
          },
          {
            "duration": 0.4032256249999904,
            "durationTicks": 60,
            "midi": 60,
            "name": "C4",
            "ticks": 16775,
            "time": 112.73516432291667,
            "velocity": 0.6456692913385826
          },
          {
            "duration": 0.45026861458333656,
            "durationTicks": 67,
            "midi": 45,
            "name": "A2",
            "ticks": 16800,
            "time": 112.90317499999999,
            "velocity": 0.5905511811023622
          },
          {
            "duration": 0.3561826354166726,
            "durationTicks": 53,
            "midi": 59,
            "name": "B3",
            "ticks": 16824,
            "time": 113.06446525,
            "velocity": 0.6377952755905512
          },
          {
            "duration": 0.24193537500001128,
            "durationTicks": 36,
            "midi": 53,
            "name": "F3",
            "ticks": 16848,
            "time": 113.22575549999999,
            "velocity": 0.5905511811023622
          },
          {
            "duration": 0.15456982291667032,
            "durationTicks": 23,
            "midi": 60,
            "name": "C4",
            "ticks": 16872,
            "time": 113.38704575,
            "velocity": 0.6299212598425197
          },
          {
            "duration": 0.3494622083333354,
            "durationTicks": 52,
            "midi": 48,
            "name": "C3",
            "ticks": 16896,
            "time": 113.54833599999999,
            "velocity": 0.6377952755905512
          },
          {
            "duration": 0.712365270833331,
            "durationTicks": 106,
            "midi": 60,
            "name": "C4",
            "ticks": 16896,
            "time": 113.54833599999999,
            "velocity": 0.6692913385826772
          },
          {
            "duration": 0.3965051979166816,
            "durationTicks": 59,
            "midi": 55,
            "name": "G3",
            "ticks": 16944,
            "time": 113.87091649999999,
            "velocity": 0.5590551181102362
          },
          {
            "duration": 0.3830643437500072,
            "durationTicks": 57,
            "midi": 48,
            "name": "C3",
            "ticks": 16992,
            "time": 114.193497,
            "velocity": 0.6299212598425197
          },
          {
            "duration": 0.47715032291667114,
            "durationTicks": 71,
            "midi": 60,
            "name": "C4",
            "ticks": 17016,
            "time": 114.35478725,
            "velocity": 0.7086614173228346
          },
          {
            "duration": 0.3965051979166816,
            "durationTicks": 59,
            "midi": 55,
            "name": "G3",
            "ticks": 17040,
            "time": 114.5160775,
            "velocity": 0.5984251968503937
          },
          {
            "duration": 0.7190856979166682,
            "durationTicks": 107,
            "midi": 59,
            "name": "B3",
            "ticks": 17088,
            "time": 114.838658,
            "velocity": 0.6299212598425197
          },
          {
            "duration": 0.37634391666667,
            "durationTicks": 56,
            "midi": 48,
            "name": "C3",
            "ticks": 17088,
            "time": 114.838658,
            "velocity": 0.5984251968503937
          },
          {
            "duration": 0.3965051979166674,
            "durationTicks": 59,
            "midi": 55,
            "name": "G3",
            "ticks": 17136,
            "time": 115.1612385,
            "velocity": 0.5669291338582677
          },
          {
            "duration": 0.37634391666667,
            "durationTicks": 56,
            "midi": 48,
            "name": "C3",
            "ticks": 17184,
            "time": 115.483819,
            "velocity": 0.6299212598425197
          },
          {
            "duration": 0.49059117708333133,
            "durationTicks": 73,
            "midi": 59,
            "name": "B3",
            "ticks": 17208,
            "time": 115.64510924999999,
            "velocity": 0.6614173228346457
          },
          {
            "duration": 0.4099460520833276,
            "durationTicks": 61,
            "midi": 55,
            "name": "G3",
            "ticks": 17232,
            "time": 115.8063995,
            "velocity": 0.5669291338582677
          },
          {
            "duration": 0.7392469791666656,
            "durationTicks": 110,
            "midi": 62,
            "name": "D4",
            "ticks": 17280,
            "time": 116.12898,
            "velocity": 0.5905511811023622
          },
          {
            "duration": 0.3696234895833328,
            "durationTicks": 55,
            "midi": 48,
            "name": "C3",
            "ticks": 17280,
            "time": 116.12898,
            "velocity": 0.6220472440944882
          },
          {
            "duration": 0.41666647916666477,
            "durationTicks": 62,
            "midi": 55,
            "name": "G3",
            "ticks": 17328,
            "time": 116.4515605,
            "velocity": 0.5590551181102362
          },
          {
            "duration": 0.3629030624999956,
            "durationTicks": 54,
            "midi": 48,
            "name": "C3",
            "ticks": 17376,
            "time": 116.774141,
            "velocity": 0.5905511811023622
          },
          {
            "duration": 0.5309137395833261,
            "durationTicks": 79,
            "midi": 62,
            "name": "D4",
            "ticks": 17400,
            "time": 116.93543125,
            "velocity": 0.6456692913385826
          },
          {
            "duration": 0.3897847708333302,
            "durationTicks": 58,
            "midi": 55,
            "name": "G3",
            "ticks": 17424,
            "time": 117.0967215,
            "velocity": 0.6062992125984252
          },
          {
            "duration": 0.3629030624999956,
            "durationTicks": 54,
            "midi": 48,
            "name": "C3",
            "ticks": 17472,
            "time": 117.419302,
            "velocity": 0.6299212598425197
          },
          {
            "duration": 0.6787631354166734,
            "durationTicks": 101,
            "midi": 60,
            "name": "C4",
            "ticks": 17472,
            "time": 117.419302,
            "velocity": 0.6377952755905512
          },
          {
            "duration": 0.3965051979166674,
            "durationTicks": 59,
            "midi": 55,
            "name": "G3",
            "ticks": 17520,
            "time": 117.7418825,
            "velocity": 0.6141732283464567
          },
          {
            "duration": 0.383064343749993,
            "durationTicks": 57,
            "midi": 48,
            "name": "C3",
            "ticks": 17568,
            "time": 118.064463,
            "velocity": 0.6220472440944882
          },
          {
            "duration": 0.5309137395833261,
            "durationTicks": 79,
            "midi": 60,
            "name": "C4",
            "ticks": 17592,
            "time": 118.22575325,
            "velocity": 0.6850393700787402
          },
          {
            "duration": 0.3360213541666752,
            "durationTicks": 50,
            "midi": 55,
            "name": "G3",
            "ticks": 17616,
            "time": 118.38704349999999,
            "velocity": 0.6141732283464567
          },
          {
            "duration": 0.712365270833331,
            "durationTicks": 106,
            "midi": 59,
            "name": "B3",
            "ticks": 17664,
            "time": 118.70962399999999,
            "velocity": 0.6456692913385826
          },
          {
            "duration": 0.3965051979166816,
            "durationTicks": 59,
            "midi": 45,
            "name": "A2",
            "ticks": 17664,
            "time": 118.70962399999999,
            "velocity": 0.5669291338582677
          },
          {
            "duration": 0.416666479166679,
            "durationTicks": 62,
            "midi": 52,
            "name": "E3",
            "ticks": 17712,
            "time": 119.03220449999999,
            "velocity": 0.6141732283464567
          },
          {
            "duration": 0.3897847708333302,
            "durationTicks": 58,
            "midi": 45,
            "name": "A2",
            "ticks": 17760,
            "time": 119.35478499999999,
            "velocity": 0.5669291338582677
          },
          {
            "duration": 0.46370946874999674,
            "durationTicks": 69,
            "midi": 59,
            "name": "B3",
            "ticks": 17784,
            "time": 119.51607525,
            "velocity": 0.6614173228346457
          },
          {
            "duration": 0.4032256250000046,
            "durationTicks": 60,
            "midi": 52,
            "name": "E3",
            "ticks": 17808,
            "time": 119.6773655,
            "velocity": 0.6141732283464567
          },
          {
            "duration": 0.7392469791666798,
            "durationTicks": 110,
            "midi": 62,
            "name": "D4",
            "ticks": 17856,
            "time": 119.999946,
            "velocity": 0.6220472440944882
          },
          {
            "duration": 0.3965051979166816,
            "durationTicks": 59,
            "midi": 45,
            "name": "A2",
            "ticks": 17856,
            "time": 119.999946,
            "velocity": 0.5826771653543307
          },
          {
            "duration": 0.3965051979166816,
            "durationTicks": 59,
            "midi": 52,
            "name": "E3",
            "ticks": 17904,
            "time": 120.3225265,
            "velocity": 0.5905511811023622
          },
          {
            "duration": 0.3696234895833328,
            "durationTicks": 55,
            "midi": 45,
            "name": "A2",
            "ticks": 17952,
            "time": 120.645107,
            "velocity": 0.5826771653543307
          },
          {
            "duration": 0.5510750208333235,
            "durationTicks": 82,
            "midi": 62,
            "name": "D4",
            "ticks": 17976,
            "time": 120.80639725,
            "velocity": 0.6535433070866141
          },
          {
            "duration": 0.3965051979166674,
            "durationTicks": 59,
            "midi": 52,
            "name": "E3",
            "ticks": 18000,
            "time": 120.9676875,
            "velocity": 0.5590551181102362
          },
          {
            "duration": 0.7190856979166682,
            "durationTicks": 107,
            "midi": 60,
            "name": "C4",
            "ticks": 18048,
            "time": 121.290268,
            "velocity": 0.6456692913385826
          },
          {
            "duration": 0.37634391666667,
            "durationTicks": 56,
            "midi": 45,
            "name": "A2",
            "ticks": 18048,
            "time": 121.290268,
            "velocity": 0.6141732283464567
          },
          {
            "duration": 0.43010733333332496,
            "durationTicks": 64,
            "midi": 52,
            "name": "E3",
            "ticks": 18096,
            "time": 121.6128485,
            "velocity": 0.5748031496062992
          },
          {
            "duration": 0.3696234895833186,
            "durationTicks": 55,
            "midi": 45,
            "name": "A2",
            "ticks": 18144,
            "time": 121.935429,
            "velocity": 0.5748031496062992
          },
          {
            "duration": 0.49059117708333133,
            "durationTicks": 73,
            "midi": 60,
            "name": "C4",
            "ticks": 18168,
            "time": 122.09671924999999,
            "velocity": 0.6929133858267716
          },
          {
            "duration": 0.37634391666667,
            "durationTicks": 56,
            "midi": 52,
            "name": "E3",
            "ticks": 18192,
            "time": 122.2580095,
            "velocity": 0.6220472440944882
          },
          {
            "duration": 0.7258061250000054,
            "durationTicks": 108,
            "midi": 59,
            "name": "B3",
            "ticks": 18239,
            "time": 122.57386957291666,
            "velocity": 0.6299212598425197
          },
          {
            "duration": 0.3696234895833186,
            "durationTicks": 55,
            "midi": 45,
            "name": "A2",
            "ticks": 18240,
            "time": 122.58059,
            "velocity": 0.5905511811023622
          },
          {
            "duration": 0.3696234895833186,
            "durationTicks": 55,
            "midi": 52,
            "name": "E3",
            "ticks": 18288,
            "time": 122.9031705,
            "velocity": 0.6141732283464567
          },
          {
            "duration": 0.389784770833316,
            "durationTicks": 58,
            "midi": 45,
            "name": "A2",
            "ticks": 18336,
            "time": 123.225751,
            "velocity": 0.6141732283464567
          },
          {
            "duration": 0.47715032291667114,
            "durationTicks": 71,
            "midi": 59,
            "name": "B3",
            "ticks": 18360,
            "time": 123.38704125,
            "velocity": 0.6929133858267716
          },
          {
            "duration": 0.3561826354166726,
            "durationTicks": 53,
            "midi": 52,
            "name": "E3",
            "ticks": 18384,
            "time": 123.5483315,
            "velocity": 0.6220472440944882
          },
          {
            "duration": 0.7190856979166682,
            "durationTicks": 107,
            "midi": 62,
            "name": "D4",
            "ticks": 18432,
            "time": 123.870912,
            "velocity": 0.6141732283464567
          },
          {
            "duration": 0.3696234895833186,
            "durationTicks": 55,
            "midi": 48,
            "name": "C3",
            "ticks": 18432,
            "time": 123.870912,
            "velocity": 0.6220472440944882
          },
          {
            "duration": 0.3965051979166816,
            "durationTicks": 59,
            "midi": 55,
            "name": "G3",
            "ticks": 18480,
            "time": 124.19349249999999,
            "velocity": 0.5905511811023622
          },
          {
            "duration": 0.3897847708333302,
            "durationTicks": 58,
            "midi": 48,
            "name": "C3",
            "ticks": 18528,
            "time": 124.51607299999999,
            "velocity": 0.6535433070866141
          },
          {
            "duration": 0.5577954479166749,
            "durationTicks": 83,
            "midi": 62,
            "name": "D4",
            "ticks": 18552,
            "time": 124.67736325,
            "velocity": 0.6535433070866141
          },
          {
            "duration": 0.43010733333332496,
            "durationTicks": 64,
            "midi": 55,
            "name": "G3",
            "ticks": 18576,
            "time": 124.83865349999999,
            "velocity": 0.5590551181102362
          },
          {
            "duration": 0.3965051979166816,
            "durationTicks": 59,
            "midi": 48,
            "name": "C3",
            "ticks": 18624,
            "time": 125.161234,
            "velocity": 0.6299212598425197
          },
          {
            "duration": 0.6989244166666708,
            "durationTicks": 104,
            "midi": 60,
            "name": "C4",
            "ticks": 18624,
            "time": 125.161234,
            "velocity": 0.6299212598425197
          },
          {
            "duration": 0.3897847708333302,
            "durationTicks": 58,
            "midi": 55,
            "name": "G3",
            "ticks": 18672,
            "time": 125.4838145,
            "velocity": 0.5354330708661418
          },
          {
            "duration": 0.3965051979166816,
            "durationTicks": 59,
            "midi": 48,
            "name": "C3",
            "ticks": 18720,
            "time": 125.806395,
            "velocity": 0.6377952755905512
          },
          {
            "duration": 0.49731160416666853,
            "durationTicks": 74,
            "midi": 60,
            "name": "C4",
            "ticks": 18744,
            "time": 125.96768525,
            "velocity": 0.6771653543307087
          },
          {
            "duration": 0.3965051979166674,
            "durationTicks": 59,
            "midi": 55,
            "name": "G3",
            "ticks": 18768,
            "time": 126.1289755,
            "velocity": 0.5590551181102362
          },
          {
            "duration": 0.7325265520833284,
            "durationTicks": 109,
            "midi": 59,
            "name": "B3",
            "ticks": 18816,
            "time": 126.451556,
            "velocity": 0.6535433070866141
          },
          {
            "duration": 0.3561826354166726,
            "durationTicks": 53,
            "midi": 48,
            "name": "C3",
            "ticks": 18816,
            "time": 126.451556,
            "velocity": 0.6299212598425197
          },
          {
            "duration": 0.383064343749993,
            "durationTicks": 57,
            "midi": 55,
            "name": "G3",
            "ticks": 18864,
            "time": 126.7741365,
            "velocity": 0.5433070866141733
          },
          {
            "duration": 0.3897847708333302,
            "durationTicks": 58,
            "midi": 48,
            "name": "C3",
            "ticks": 18912,
            "time": 127.096717,
            "velocity": 0.5669291338582677
          },
          {
            "duration": 0.49731160416668274,
            "durationTicks": 74,
            "midi": 59,
            "name": "B3",
            "ticks": 18936,
            "time": 127.25800724999999,
            "velocity": 0.6850393700787402
          },
          {
            "duration": 0.37634391666667,
            "durationTicks": 56,
            "midi": 55,
            "name": "G3",
            "ticks": 18960,
            "time": 127.4192975,
            "velocity": 0.5669291338582677
          },
          {
            "duration": 0.7056448437499938,
            "durationTicks": 105,
            "midi": 62,
            "name": "D4",
            "ticks": 19008,
            "time": 127.741878,
            "velocity": 0.6220472440944882
          },
          {
            "duration": 0.3696234895833328,
            "durationTicks": 55,
            "midi": 48,
            "name": "C3",
            "ticks": 19008,
            "time": 127.741878,
            "velocity": 0.6299212598425197
          },
          {
            "duration": 0.3763439166666558,
            "durationTicks": 56,
            "midi": 55,
            "name": "G3",
            "ticks": 19056,
            "time": 128.0644585,
            "velocity": 0.6141732283464567
          },
          {
            "duration": 0.4099460520833418,
            "durationTicks": 61,
            "midi": 48,
            "name": "C3",
            "ticks": 19104,
            "time": 128.387039,
            "velocity": 0.6141732283464567
          },
          {
            "duration": 0.5241933124999889,
            "durationTicks": 78,
            "midi": 62,
            "name": "D4",
            "ticks": 19128,
            "time": 128.54832925,
            "velocity": 0.6535433070866141
          },
          {
            "duration": 0.3696234895833186,
            "durationTicks": 55,
            "midi": 55,
            "name": "G3",
            "ticks": 19152,
            "time": 128.7096195,
            "velocity": 0.6377952755905512
          },
          {
            "duration": 0.7123652708333452,
            "durationTicks": 106,
            "midi": 60,
            "name": "C4",
            "ticks": 19200,
            "time": 129.0322,
            "velocity": 0.6377952755905512
          },
          {
            "duration": 0.4099460520833418,
            "durationTicks": 61,
            "midi": 45,
            "name": "A2",
            "ticks": 19200,
            "time": 129.0322,
            "velocity": 0.5905511811023622
          },
          {
            "duration": 0.4032256250000046,
            "durationTicks": 60,
            "midi": 52,
            "name": "E3",
            "ticks": 19248,
            "time": 129.3547805,
            "velocity": 0.5905511811023622
          },
          {
            "duration": 0.383064343749993,
            "durationTicks": 57,
            "midi": 45,
            "name": "A2",
            "ticks": 19296,
            "time": 129.677361,
            "velocity": 0.6062992125984252
          },
          {
            "duration": 0.5241933124999889,
            "durationTicks": 78,
            "midi": 60,
            "name": "C4",
            "ticks": 19320,
            "time": 129.83865125,
            "velocity": 0.6771653543307087
          },
          {
            "duration": 0.4032256250000046,
            "durationTicks": 60,
            "midi": 52,
            "name": "E3",
            "ticks": 19344,
            "time": 129.9999415,
            "velocity": 0.5826771653543307
          },
          {
            "duration": 0.7258061249999912,
            "durationTicks": 108,
            "midi": 59,
            "name": "B3",
            "ticks": 19392,
            "time": 130.322522,
            "velocity": 0.6220472440944882
          },
          {
            "duration": 0.3629030625000098,
            "durationTicks": 54,
            "midi": 45,
            "name": "A2",
            "ticks": 19392,
            "time": 130.322522,
            "velocity": 0.5905511811023622
          },
          {
            "duration": 0.3965051979166674,
            "durationTicks": 59,
            "midi": 52,
            "name": "E3",
            "ticks": 19440,
            "time": 130.6451025,
            "velocity": 0.6062992125984252
          },
          {
            "duration": 0.3965051979166674,
            "durationTicks": 59,
            "midi": 45,
            "name": "A2",
            "ticks": 19488,
            "time": 130.967683,
            "velocity": 0.5984251968503937
          },
          {
            "duration": 0.47042989583331973,
            "durationTicks": 70,
            "midi": 59,
            "name": "B3",
            "ticks": 19512,
            "time": 131.12897325,
            "velocity": 0.6535433070866141
          },
          {
            "duration": 0.41666647916665056,
            "durationTicks": 62,
            "midi": 52,
            "name": "E3",
            "ticks": 19536,
            "time": 131.2902635,
            "velocity": 0.5905511811023622
          },
          {
            "duration": 0.7325265520833284,
            "durationTicks": 109,
            "midi": 62,
            "name": "D4",
            "ticks": 19584,
            "time": 131.612844,
            "velocity": 0.6062992125984252
          },
          {
            "duration": 0.3763439166666842,
            "durationTicks": 56,
            "midi": 45,
            "name": "A2",
            "ticks": 19584,
            "time": 131.612844,
            "velocity": 0.5748031496062992
          },
          {
            "duration": 0.3965051979166674,
            "durationTicks": 59,
            "midi": 52,
            "name": "E3",
            "ticks": 19632,
            "time": 131.9354245,
            "velocity": 0.5590551181102362
          },
          {
            "duration": 0.3427417812499982,
            "durationTicks": 51,
            "midi": 45,
            "name": "A2",
            "ticks": 19680,
            "time": 132.258005,
            "velocity": 0.5590551181102362
          },
          {
            "duration": 0.5040320312500057,
            "durationTicks": 75,
            "midi": 62,
            "name": "D4",
            "ticks": 19704,
            "time": 132.41929525,
            "velocity": 0.6535433070866141
          },
          {
            "duration": 0.3763439166666842,
            "durationTicks": 56,
            "midi": 52,
            "name": "E3",
            "ticks": 19728,
            "time": 132.58058549999998,
            "velocity": 0.6220472440944882
          },
          {
            "duration": 0.45026861458333656,
            "durationTicks": 67,
            "midi": 60,
            "name": "C4",
            "ticks": 19776,
            "time": 132.903166,
            "velocity": 0.6299212598425197
          },
          {
            "duration": 0.3696234895833186,
            "durationTicks": 55,
            "midi": 45,
            "name": "A2",
            "ticks": 19776,
            "time": 132.903166,
            "velocity": 0.5748031496062992
          },
          {
            "duration": 0.369623489583347,
            "durationTicks": 55,
            "midi": 52,
            "name": "E3",
            "ticks": 19824,
            "time": 133.22574649999999,
            "velocity": 0.6299212598425197
          },
          {
            "duration": 0.29569879166666624,
            "durationTicks": 44,
            "midi": 45,
            "name": "A2",
            "ticks": 19872,
            "time": 133.548327,
            "velocity": 0.6220472440944882
          },
          {
            "duration": 0.1747311041666535,
            "durationTicks": 26,
            "midi": 47,
            "name": "B2",
            "ticks": 19919,
            "time": 133.86418707291668,
            "velocity": 0.7322834645669292
          },
          {
            "duration": 0.24193537499999707,
            "durationTicks": 36,
            "midi": 59,
            "name": "B3",
            "ticks": 19920,
            "time": 133.8709075,
            "velocity": 0.7007874015748031
          },
          {
            "duration": 0.24865580208333427,
            "durationTicks": 37,
            "midi": 62,
            "name": "D4",
            "ticks": 19922,
            "time": 133.88434835416666,
            "velocity": 0.7244094488188977
          },
          {
            "duration": 0.6317201458333273,
            "durationTicks": 94,
            "midi": 60,
            "name": "C4",
            "ticks": 19968,
            "time": 134.193488,
            "velocity": 0.7086614173228346
          },
          {
            "duration": 0.30241921875000344,
            "durationTicks": 45,
            "midi": 48,
            "name": "C3",
            "ticks": 19968,
            "time": 134.193488,
            "velocity": 0.6614173228346457
          },
          {
            "duration": 0.30913964583334064,
            "durationTicks": 46,
            "midi": 55,
            "name": "G3",
            "ticks": 20016,
            "time": 134.5160685,
            "velocity": 0.6141732283464567
          },
          {
            "duration": 0.29569879166666624,
            "durationTicks": 44,
            "midi": 48,
            "name": "C3",
            "ticks": 20064,
            "time": 134.838649,
            "velocity": 0.6141732283464567
          },
          {
            "duration": 0.45698904166667376,
            "durationTicks": 68,
            "midi": 60,
            "name": "C4",
            "ticks": 20088,
            "time": 134.99993924999998,
            "velocity": 0.6929133858267716
          },
          {
            "duration": 0.30913964583334064,
            "durationTicks": 46,
            "midi": 55,
            "name": "G3",
            "ticks": 20112,
            "time": 135.1612295,
            "velocity": 0.6299212598425197
          },
          {
            "duration": 0.6182792916666529,
            "durationTicks": 92,
            "midi": 62,
            "name": "D4",
            "ticks": 20160,
            "time": 135.48381,
            "velocity": 0.6456692913385826
          },
          {
            "duration": 0.28897836458332904,
            "durationTicks": 43,
            "midi": 47,
            "name": "B2",
            "ticks": 20160,
            "time": 135.48381,
            "velocity": 0.5984251968503937
          },
          {
            "duration": 0.1948923854166651,
            "durationTicks": 29,
            "midi": 55,
            "name": "G3",
            "ticks": 20211,
            "time": 135.82655178125,
            "velocity": 0.7007874015748031
          },
          {
            "duration": 0.28897836458332904,
            "durationTicks": 43,
            "midi": 47,
            "name": "B2",
            "ticks": 20256,
            "time": 136.128971,
            "velocity": 0.6299212598425197
          },
          {
            "duration": 0.47042989583334816,
            "durationTicks": 70,
            "midi": 62,
            "name": "D4",
            "ticks": 20280,
            "time": 136.29026125,
            "velocity": 0.6771653543307087
          },
          {
            "duration": 0.3293009270833238,
            "durationTicks": 49,
            "midi": 55,
            "name": "G3",
            "ticks": 20304,
            "time": 136.4515515,
            "velocity": 0.6456692913385826
          },
          {
            "duration": 0.766128687499986,
            "durationTicks": 114,
            "midi": 60,
            "name": "C4",
            "ticks": 20351,
            "time": 136.76741157291667,
            "velocity": 0.6456692913385826
          },
          {
            "duration": 0.28225793749999184,
            "durationTicks": 42,
            "midi": 45,
            "name": "A2",
            "ticks": 20352,
            "time": 136.774132,
            "velocity": 0.6220472440944882
          },
          {
            "duration": 0.30241921875000344,
            "durationTicks": 45,
            "midi": 52,
            "name": "E3",
            "ticks": 20400,
            "time": 137.0967125,
            "velocity": 0.5905511811023622
          },
          {
            "duration": 0.3158600729166494,
            "durationTicks": 47,
            "midi": 45,
            "name": "A2",
            "ticks": 20448,
            "time": 137.419293,
            "velocity": 0.6535433070866141
          },
          {
            "duration": 1.2096768749999853,
            "durationTicks": 180,
            "midi": 60,
            "name": "C4",
            "ticks": 20473,
            "time": 137.58730367708333,
            "velocity": 0.6929133858267716
          },
          {
            "duration": 0.29569879166666624,
            "durationTicks": 44,
            "midi": 52,
            "name": "E3",
            "ticks": 20496,
            "time": 137.7418735,
            "velocity": 0.6141732283464567
          },
          {
            "duration": 0.33602135416668943,
            "durationTicks": 50,
            "midi": 45,
            "name": "A2",
            "ticks": 20544,
            "time": 138.06445399999998,
            "velocity": 0.6141732283464567
          },
          {
            "duration": 0.29569879166666624,
            "durationTicks": 44,
            "midi": 52,
            "name": "E3",
            "ticks": 20592,
            "time": 138.3870345,
            "velocity": 0.6377952755905512
          },
          {
            "duration": 0.29569879166669466,
            "durationTicks": 44,
            "midi": 45,
            "name": "A2",
            "ticks": 20640,
            "time": 138.70961499999999,
            "velocity": 0.5984251968503937
          },
          {
            "duration": 0.45026861458333656,
            "durationTicks": 67,
            "midi": 60,
            "name": "C4",
            "ticks": 20664,
            "time": 138.87090525,
            "velocity": 0.7165354330708661
          },
          {
            "duration": 0.26881708333331744,
            "durationTicks": 40,
            "midi": 52,
            "name": "E3",
            "ticks": 20688,
            "time": 139.0321955,
            "velocity": 0.6377952755905512
          },
          {
            "duration": 0.8064512499999807,
            "durationTicks": 120,
            "midi": 59,
            "name": "B3",
            "ticks": 20735,
            "time": 139.34805557291668,
            "velocity": 0.6220472440944882
          },
          {
            "duration": 0.29569879166669466,
            "durationTicks": 44,
            "midi": 43,
            "name": "G2",
            "ticks": 20736,
            "time": 139.354776,
            "velocity": 0.5826771653543307
          },
          {
            "duration": 0.3225804999999866,
            "durationTicks": 48,
            "midi": 50,
            "name": "D3",
            "ticks": 20784,
            "time": 139.6773565,
            "velocity": 0.6535433070866141
          },
          {
            "duration": 0.27553751041668306,
            "durationTicks": 41,
            "midi": 43,
            "name": "G2",
            "ticks": 20832,
            "time": 139.999937,
            "velocity": 0.6141732283464567
          },
          {
            "duration": 0.5577954479166749,
            "durationTicks": 83,
            "midi": 59,
            "name": "B3",
            "ticks": 20856,
            "time": 140.16122725,
            "velocity": 0.6771653543307087
          },
          {
            "duration": 0.24865580208333427,
            "durationTicks": 37,
            "midi": 50,
            "name": "D3",
            "ticks": 20880,
            "time": 140.3225175,
            "velocity": 0.6299212598425197
          },
          {
            "duration": 0.75268783333334,
            "durationTicks": 112,
            "midi": 65,
            "name": "F4",
            "ticks": 20928,
            "time": 140.645098,
            "velocity": 0.6692913385826772
          },
          {
            "duration": 0.28225793750002026,
            "durationTicks": 42,
            "midi": 50,
            "name": "D3",
            "ticks": 20928,
            "time": 140.645098,
            "velocity": 0.6692913385826772
          },
          {
            "duration": 0.383064343749993,
            "durationTicks": 57,
            "midi": 57,
            "name": "A3",
            "ticks": 20976,
            "time": 140.9676785,
            "velocity": 0.6850393700787402
          },
          {
            "duration": 0.3561826354166726,
            "durationTicks": 53,
            "midi": 50,
            "name": "D3",
            "ticks": 21024,
            "time": 141.290259,
            "velocity": 0.6377952755905512
          },
          {
            "duration": 0.45698904166667376,
            "durationTicks": 68,
            "midi": 65,
            "name": "F4",
            "ticks": 21049,
            "time": 141.45826967708334,
            "velocity": 0.7165354330708661
          },
          {
            "duration": 0.29569879166666624,
            "durationTicks": 44,
            "midi": 57,
            "name": "A3",
            "ticks": 21072,
            "time": 141.6128395,
            "velocity": 0.6377952755905512
          },
          {
            "duration": 0.8064512500000092,
            "durationTicks": 120,
            "midi": 64,
            "name": "E4",
            "ticks": 21120,
            "time": 141.93542,
            "velocity": 0.6456692913385826
          },
          {
            "duration": 0.32258050000001504,
            "durationTicks": 48,
            "midi": 45,
            "name": "A2",
            "ticks": 21120,
            "time": 141.93542,
            "velocity": 0.6141732283464567
          },
          {
            "duration": 0.3561826354166726,
            "durationTicks": 53,
            "midi": 52,
            "name": "E3",
            "ticks": 21168,
            "time": 142.2580005,
            "velocity": 0.6062992125984252
          },
          {
            "duration": 0.3427417812499982,
            "durationTicks": 51,
            "midi": 45,
            "name": "A2",
            "ticks": 21216,
            "time": 142.580581,
            "velocity": 0.6062992125984252
          },
          {
            "duration": 0.383064343749993,
            "durationTicks": 57,
            "midi": 60,
            "name": "C4",
            "ticks": 21240,
            "time": 142.74187125,
            "velocity": 0.6771653543307087
          },
          {
            "duration": 0.3561826354166726,
            "durationTicks": 53,
            "midi": 52,
            "name": "E3",
            "ticks": 21264,
            "time": 142.9031615,
            "velocity": 0.5826771653543307
          },
          {
            "duration": 1.1088704687500126,
            "durationTicks": 165,
            "midi": 60,
            "name": "C4",
            "ticks": 21312,
            "time": 143.225742,
            "velocity": 0.6456692913385826
          },
          {
            "duration": 0.3225804999999866,
            "durationTicks": 48,
            "midi": 45,
            "name": "A2",
            "ticks": 21312,
            "time": 143.225742,
            "velocity": 0.6141732283464567
          },
          {
            "duration": 0.2553762291666999,
            "durationTicks": 38,
            "midi": 52,
            "name": "E3",
            "ticks": 21360,
            "time": 143.54832249999998,
            "velocity": 0.6377952755905512
          },
          {
            "duration": 0.3696234895833186,
            "durationTicks": 55,
            "midi": 45,
            "name": "A2",
            "ticks": 21408,
            "time": 143.870903,
            "velocity": 0.6062992125984252
          },
          {
            "duration": 0.28897836458332904,
            "durationTicks": 43,
            "midi": 47,
            "name": "B2",
            "ticks": 21456,
            "time": 144.19348349999999,
            "velocity": 0.6692913385826772
          },
          {
            "duration": 0.28225793750002026,
            "durationTicks": 42,
            "midi": 62,
            "name": "D4",
            "ticks": 21456,
            "time": 144.19348349999999,
            "velocity": 0.6850393700787402
          },
          {
            "duration": 0.3629030625000098,
            "durationTicks": 54,
            "midi": 48,
            "name": "C3",
            "ticks": 21504,
            "time": 144.516064,
            "velocity": 0.6771653543307087
          },
          {
            "duration": 0.6182792916666529,
            "durationTicks": 92,
            "midi": 60,
            "name": "C4",
            "ticks": 21505,
            "time": 144.52278442708334,
            "velocity": 0.48031496062992124
          },
          {
            "duration": 0.3293009270833238,
            "durationTicks": 49,
            "midi": 55,
            "name": "G3",
            "ticks": 21552,
            "time": 144.8386445,
            "velocity": 0.6141732283464567
          },
          {
            "duration": 0.30913964583336906,
            "durationTicks": 46,
            "midi": 48,
            "name": "C3",
            "ticks": 21601,
            "time": 145.1679454270833,
            "velocity": 0.6614173228346457
          },
          {
            "duration": 0.47042989583331973,
            "durationTicks": 70,
            "midi": 60,
            "name": "C4",
            "ticks": 21624,
            "time": 145.32251525,
            "velocity": 0.7007874015748031
          },
          {
            "duration": 0.3293009270833238,
            "durationTicks": 49,
            "midi": 55,
            "name": "G3",
            "ticks": 21648,
            "time": 145.4838055,
            "velocity": 0.6535433070866141
          },
          {
            "duration": 0.5981180104166697,
            "durationTicks": 89,
            "midi": 62,
            "name": "D4",
            "ticks": 21696,
            "time": 145.806386,
            "velocity": 0.6141732283464567
          },
          {
            "duration": 0.28897836458332904,
            "durationTicks": 43,
            "midi": 47,
            "name": "B2",
            "ticks": 21696,
            "time": 145.806386,
            "velocity": 0.6220472440944882
          },
          {
            "duration": 0.2016128125000023,
            "durationTicks": 30,
            "midi": 55,
            "name": "G3",
            "ticks": 21745,
            "time": 146.13568692708333,
            "velocity": 0.7480314960629921
          },
          {
            "duration": 0.24193537499999707,
            "durationTicks": 36,
            "midi": 47,
            "name": "B2",
            "ticks": 21793,
            "time": 146.4582674270833,
            "velocity": 0.7007874015748031
          },
          {
            "duration": 0.45026861458333656,
            "durationTicks": 67,
            "midi": 62,
            "name": "D4",
            "ticks": 21816,
            "time": 146.61283724999998,
            "velocity": 0.6850393700787402
          },
          {
            "duration": 0.3427417812499982,
            "durationTicks": 51,
            "midi": 55,
            "name": "G3",
            "ticks": 21840,
            "time": 146.7741275,
            "velocity": 0.6377952755905512
          },
          {
            "duration": 0.7795695416666604,
            "durationTicks": 116,
            "midi": 60,
            "name": "C4",
            "ticks": 21887,
            "time": 147.08998757291667,
            "velocity": 0.6062992125984252
          },
          {
            "duration": 0.30241921875000344,
            "durationTicks": 45,
            "midi": 45,
            "name": "A2",
            "ticks": 21888,
            "time": 147.096708,
            "velocity": 0.6299212598425197
          },
          {
            "duration": 0.30913964583334064,
            "durationTicks": 46,
            "midi": 52,
            "name": "E3",
            "ticks": 21936,
            "time": 147.4192885,
            "velocity": 0.6062992125984252
          },
          {
            "duration": 0.29569879166666624,
            "durationTicks": 44,
            "midi": 45,
            "name": "A2",
            "ticks": 21984,
            "time": 147.741869,
            "velocity": 0.6220472440944882
          },
          {
            "duration": 0.369623489583347,
            "durationTicks": 55,
            "midi": 60,
            "name": "C4",
            "ticks": 22009,
            "time": 147.90987967708332,
            "velocity": 0.7007874015748031
          },
          {
            "duration": 0.29569879166666624,
            "durationTicks": 44,
            "midi": 52,
            "name": "E3",
            "ticks": 22032,
            "time": 148.0644495,
            "velocity": 0.6614173228346457
          },
          {
            "duration": 0.7459674062499744,
            "durationTicks": 111,
            "midi": 60,
            "name": "C4",
            "ticks": 22080,
            "time": 148.38703,
            "velocity": 0.6299212598425197
          },
          {
            "duration": 0.383064343749993,
            "durationTicks": 57,
            "midi": 45,
            "name": "A2",
            "ticks": 22080,
            "time": 148.38703,
            "velocity": 0.6299212598425197
          },
          {
            "duration": 0.3629030625000098,
            "durationTicks": 54,
            "midi": 52,
            "name": "E3",
            "ticks": 22128,
            "time": 148.7096105,
            "velocity": 0.6614173228346457
          },
          {
            "duration": 0.3629030625000098,
            "durationTicks": 54,
            "midi": 45,
            "name": "A2",
            "ticks": 22176,
            "time": 149.03219099999998,
            "velocity": 0.6141732283464567
          },
          {
            "duration": 0.49059117708333133,
            "durationTicks": 73,
            "midi": 60,
            "name": "C4",
            "ticks": 22200,
            "time": 149.19348125,
            "velocity": 0.7165354330708661
          },
          {
            "duration": 0.336021354166661,
            "durationTicks": 50,
            "midi": 52,
            "name": "E3",
            "ticks": 22224,
            "time": 149.3547715,
            "velocity": 0.6692913385826772
          },
          {
            "duration": 0.7459674062500028,
            "durationTicks": 111,
            "midi": 59,
            "name": "B3",
            "ticks": 22272,
            "time": 149.67735199999998,
            "velocity": 0.6299212598425197
          },
          {
            "duration": 0.369623489583347,
            "durationTicks": 55,
            "midi": 43,
            "name": "G2",
            "ticks": 22272,
            "time": 149.67735199999998,
            "velocity": 0.6377952755905512
          },
          {
            "duration": 0.3763439166666558,
            "durationTicks": 56,
            "midi": 50,
            "name": "D3",
            "ticks": 22320,
            "time": 149.9999325,
            "velocity": 0.6535433070866141
          },
          {
            "duration": 0.3830643437500214,
            "durationTicks": 57,
            "midi": 43,
            "name": "G2",
            "ticks": 22368,
            "time": 150.322513,
            "velocity": 0.6141732283464567
          },
          {
            "duration": 0.5645158750000121,
            "durationTicks": 84,
            "midi": 59,
            "name": "B3",
            "ticks": 22392,
            "time": 150.48380325,
            "velocity": 0.6771653543307087
          },
          {
            "duration": 0.22177409374998547,
            "durationTicks": 33,
            "midi": 50,
            "name": "D3",
            "ticks": 22416,
            "time": 150.6450935,
            "velocity": 0.6535433070866141
          },
          {
            "duration": 0.705644843750008,
            "durationTicks": 105,
            "midi": 65,
            "name": "F4",
            "ticks": 22464,
            "time": 150.967674,
            "velocity": 0.6692913385826772
          },
          {
            "duration": 0.3494622083333354,
            "durationTicks": 52,
            "midi": 50,
            "name": "D3",
            "ticks": 22464,
            "time": 150.967674,
            "velocity": 0.6535433070866141
          },
          {
            "duration": 0.3965051979166674,
            "durationTicks": 59,
            "midi": 57,
            "name": "A3",
            "ticks": 22512,
            "time": 151.2902545,
            "velocity": 0.5905511811023622
          },
          {
            "duration": 0.5309137395833261,
            "durationTicks": 79,
            "midi": 50,
            "name": "D3",
            "ticks": 22560,
            "time": 151.612835,
            "velocity": 0.6535433070866141
          },
          {
            "duration": 0.47042989583331973,
            "durationTicks": 70,
            "midi": 65,
            "name": "F4",
            "ticks": 22584,
            "time": 151.77412525,
            "velocity": 0.7007874015748031
          },
          {
            "duration": 0.26209665624998024,
            "durationTicks": 39,
            "midi": 57,
            "name": "A3",
            "ticks": 22608,
            "time": 151.9354155,
            "velocity": 0.6377952755905512
          },
          {
            "duration": 0.7728491145833232,
            "durationTicks": 115,
            "midi": 64,
            "name": "E4",
            "ticks": 22656,
            "time": 152.257996,
            "velocity": 0.6299212598425197
          },
          {
            "duration": 0.33602135416668943,
            "durationTicks": 50,
            "midi": 45,
            "name": "A2",
            "ticks": 22656,
            "time": 152.257996,
            "velocity": 0.6141732283464567
          },
          {
            "duration": 0.3629030624999814,
            "durationTicks": 54,
            "midi": 52,
            "name": "E3",
            "ticks": 22704,
            "time": 152.5805765,
            "velocity": 0.6220472440944882
          },
          {
            "duration": 0.33602135416668943,
            "durationTicks": 50,
            "midi": 45,
            "name": "A2",
            "ticks": 22752,
            "time": 152.903157,
            "velocity": 0.6456692913385826
          },
          {
            "duration": 0.43682776041666216,
            "durationTicks": 65,
            "midi": 60,
            "name": "C4",
            "ticks": 22776,
            "time": 153.06444725,
            "velocity": 0.6614173228346457
          },
          {
            "duration": 0.26209665624998024,
            "durationTicks": 39,
            "midi": 52,
            "name": "E3",
            "ticks": 22800,
            "time": 153.2257375,
            "velocity": 0.6062992125984252
          },
          {
            "duration": 0.5309137395833261,
            "durationTicks": 79,
            "midi": 60,
            "name": "C4",
            "ticks": 22847,
            "time": 153.54159757291666,
            "velocity": 0.6299212598425197
          },
          {
            "duration": 0.24865580208333427,
            "durationTicks": 37,
            "midi": 45,
            "name": "A2",
            "ticks": 22848,
            "time": 153.548318,
            "velocity": 0.6141732283464567
          },
          {
            "duration": 0.3158600729166494,
            "durationTicks": 47,
            "midi": 52,
            "name": "E3",
            "ticks": 22896,
            "time": 153.8708985,
            "velocity": 0.6299212598425197
          },
          {
            "duration": 0.3494622083333354,
            "durationTicks": 52,
            "midi": 45,
            "name": "A2",
            "ticks": 22943,
            "time": 154.18675857291666,
            "velocity": 0.6377952755905512
          },
          {
            "duration": 0.44354818749999936,
            "durationTicks": 66,
            "midi": 60,
            "name": "C4",
            "ticks": 22969,
            "time": 154.3614896770833,
            "velocity": 0.7086614173228346
          },
          {
            "duration": 0.32258050000001504,
            "durationTicks": 48,
            "midi": 52,
            "name": "E3",
            "ticks": 22992,
            "time": 154.51605949999998,
            "velocity": 0.6535433070866141
          },
          {
            "duration": 0.7594082604166772,
            "durationTicks": 113,
            "midi": 62,
            "name": "D4",
            "ticks": 23040,
            "time": 154.83864,
            "velocity": 0.6614173228346457
          },
          {
            "duration": 0.383064343749993,
            "durationTicks": 57,
            "midi": 42,
            "name": "F#2",
            "ticks": 23040,
            "time": 154.83864,
            "velocity": 0.6299212598425197
          },
          {
            "duration": 0.3897847708333302,
            "durationTicks": 58,
            "midi": 50,
            "name": "D3",
            "ticks": 23088,
            "time": 155.16122049999998,
            "velocity": 0.6299212598425197
          },
          {
            "duration": 0.3091396458333122,
            "durationTicks": 46,
            "midi": 42,
            "name": "F#2",
            "ticks": 23136,
            "time": 155.483801,
            "velocity": 0.6141732283464567
          },
          {
            "duration": 0.43682776041666216,
            "durationTicks": 65,
            "midi": 62,
            "name": "D4",
            "ticks": 23160,
            "time": 155.64509125,
            "velocity": 0.7086614173228346
          },
          {
            "duration": 0.30241921875000344,
            "durationTicks": 45,
            "midi": 50,
            "name": "D3",
            "ticks": 23184,
            "time": 155.8063815,
            "velocity": 0.6062992125984252
          },
          {
            "duration": 0.29569879166666624,
            "durationTicks": 44,
            "midi": 43,
            "name": "G2",
            "ticks": 23232,
            "time": 156.128962,
            "velocity": 0.6141732283464567
          },
          {
            "duration": 0.7728491145833516,
            "durationTicks": 115,
            "midi": 62,
            "name": "D4",
            "ticks": 23233,
            "time": 156.1356824270833,
            "velocity": 0.6692913385826772
          },
          {
            "duration": 0.31586007291667784,
            "durationTicks": 47,
            "midi": 50,
            "name": "D3",
            "ticks": 23280,
            "time": 156.4515425,
            "velocity": 0.6141732283464567
          },
          {
            "duration": 0.28225793749999184,
            "durationTicks": 42,
            "midi": 43,
            "name": "G2",
            "ticks": 23328,
            "time": 156.774123,
            "velocity": 0.6062992125984252
          },
          {
            "duration": 0.33602135416668943,
            "durationTicks": 50,
            "midi": 59,
            "name": "B3",
            "ticks": 23353,
            "time": 156.94213367708332,
            "velocity": 0.6220472440944882
          },
          {
            "duration": 0.30913964583334064,
            "durationTicks": 46,
            "midi": 50,
            "name": "D3",
            "ticks": 23376,
            "time": 157.0967035,
            "velocity": 0.6062992125984252
          },
          {
            "duration": 0.15456982291667032,
            "durationTicks": 23,
            "midi": 59,
            "name": "B3",
            "ticks": 23424,
            "time": 157.419284,
            "velocity": 0.6299212598425197
          },
          {
            "duration": 0.27553751041665464,
            "durationTicks": 41,
            "midi": 45,
            "name": "A2",
            "ticks": 23424,
            "time": 157.419284,
            "velocity": 0.6220472440944882
          },
          {
            "duration": 0.5913975833333325,
            "durationTicks": 88,
            "midi": 60,
            "name": "C4",
            "ticks": 23448,
            "time": 157.58057424999998,
            "velocity": 0.6062992125984252
          },
          {
            "duration": 0.28225793749999184,
            "durationTicks": 42,
            "midi": 52,
            "name": "E3",
            "ticks": 23472,
            "time": 157.7418645,
            "velocity": 0.6141732283464567
          },
          {
            "duration": 0.27553751041665464,
            "durationTicks": 41,
            "midi": 45,
            "name": "A2",
            "ticks": 23520,
            "time": 158.064445,
            "velocity": 0.6299212598425197
          },
          {
            "duration": 0.4368277604166906,
            "durationTicks": 65,
            "midi": 60,
            "name": "C4",
            "ticks": 23544,
            "time": 158.22573524999999,
            "velocity": 0.6692913385826772
          },
          {
            "duration": 0.31586007291667784,
            "durationTicks": 47,
            "midi": 52,
            "name": "E3",
            "ticks": 23568,
            "time": 158.3870255,
            "velocity": 0.6062992125984252
          },
          {
            "duration": 0.7795695416666604,
            "durationTicks": 116,
            "midi": 60,
            "name": "C4",
            "ticks": 23616,
            "time": 158.709606,
            "velocity": 0.6299212598425197
          },
          {
            "duration": 0.28897836458332904,
            "durationTicks": 43,
            "midi": 43,
            "name": "G2",
            "ticks": 23616,
            "time": 158.709606,
            "velocity": 0.6141732283464567
          },
          {
            "duration": 0.29569879166666624,
            "durationTicks": 44,
            "midi": 52,
            "name": "E3",
            "ticks": 23664,
            "time": 159.0321865,
            "velocity": 0.6299212598425197
          },
          {
            "duration": 0.26881708333331744,
            "durationTicks": 40,
            "midi": 43,
            "name": "G2",
            "ticks": 23712,
            "time": 159.354767,
            "velocity": 0.6377952755905512
          },
          {
            "duration": 0.4032256250000046,
            "durationTicks": 60,
            "midi": 60,
            "name": "C4",
            "ticks": 23736,
            "time": 159.51605725,
            "velocity": 0.6850393700787402
          },
          {
            "duration": 0.3225804999999866,
            "durationTicks": 48,
            "midi": 52,
            "name": "E3",
            "ticks": 23760,
            "time": 159.6773475,
            "velocity": 0.6299212598425197
          },
          {
            "duration": 0.799730822916672,
            "durationTicks": 119,
            "midi": 62,
            "name": "D4",
            "ticks": 23808,
            "time": 159.99992799999998,
            "velocity": 0.6614173228346457
          },
          {
            "duration": 0.3494622083333354,
            "durationTicks": 52,
            "midi": 42,
            "name": "F#2",
            "ticks": 23808,
            "time": 159.99992799999998,
            "velocity": 0.6299212598425197
          },
          {
            "duration": 0.3897847708333302,
            "durationTicks": 58,
            "midi": 50,
            "name": "D3",
            "ticks": 23856,
            "time": 160.3225085,
            "velocity": 0.6299212598425197
          },
          {
            "duration": 0.4099460520833418,
            "durationTicks": 61,
            "midi": 42,
            "name": "F#2",
            "ticks": 23904,
            "time": 160.64508899999998,
            "velocity": 0.6141732283464567
          },
          {
            "duration": 0.4368277604166906,
            "durationTicks": 65,
            "midi": 62,
            "name": "D4",
            "ticks": 23928,
            "time": 160.80637925,
            "velocity": 0.7086614173228346
          },
          {
            "duration": 0.3293009270833238,
            "durationTicks": 49,
            "midi": 50,
            "name": "D3",
            "ticks": 23952,
            "time": 160.9676695,
            "velocity": 0.6062992125984252
          },
          {
            "duration": 0.8938168020833359,
            "durationTicks": 133,
            "midi": 62,
            "name": "D4",
            "ticks": 24000,
            "time": 161.29025,
            "velocity": 0.6692913385826772
          },
          {
            "duration": 0.3629030625000098,
            "durationTicks": 54,
            "midi": 43,
            "name": "G2",
            "ticks": 24000,
            "time": 161.29025,
            "velocity": 0.6141732283464567
          },
          {
            "duration": 0.383064343749993,
            "durationTicks": 57,
            "midi": 50,
            "name": "D3",
            "ticks": 24048,
            "time": 161.6128305,
            "velocity": 0.6141732283464567
          },
          {
            "duration": 0.3561826354166726,
            "durationTicks": 53,
            "midi": 43,
            "name": "G2",
            "ticks": 24096,
            "time": 161.935411,
            "velocity": 0.6062992125984252
          },
          {
            "duration": 0.336021354166661,
            "durationTicks": 50,
            "midi": 59,
            "name": "B3",
            "ticks": 24121,
            "time": 162.10342167708333,
            "velocity": 0.6220472440944882
          },
          {
            "duration": 0.31586007291667784,
            "durationTicks": 47,
            "midi": 50,
            "name": "D3",
            "ticks": 24144,
            "time": 162.2579915,
            "velocity": 0.6062992125984252
          },
          {
            "duration": 0.14112896874999592,
            "durationTicks": 21,
            "midi": 59,
            "name": "B3",
            "ticks": 24192,
            "time": 162.580572,
            "velocity": 0.6299212598425197
          },
          {
            "duration": 0.26881708333334586,
            "durationTicks": 40,
            "midi": 45,
            "name": "A2",
            "ticks": 24193,
            "time": 162.58729242708333,
            "velocity": 0.6220472440944882
          },
          {
            "duration": 0.6384405729166645,
            "durationTicks": 95,
            "midi": 60,
            "name": "C4",
            "ticks": 24216,
            "time": 162.74186225,
            "velocity": 0.6062992125984252
          },
          {
            "duration": 0.30913964583334064,
            "durationTicks": 46,
            "midi": 45,
            "name": "A2",
            "ticks": 24289,
            "time": 163.23245342708333,
            "velocity": 0.6299212598425197
          },
          {
            "duration": 0.47042989583331973,
            "durationTicks": 70,
            "midi": 60,
            "name": "C4",
            "ticks": 24312,
            "time": 163.38702325,
            "velocity": 0.6692913385826772
          },
          {
            "duration": 0.3225804999999866,
            "durationTicks": 48,
            "midi": 52,
            "name": "E3",
            "ticks": 24336,
            "time": 163.5483135,
            "velocity": 0.6062992125984252
          },
          {
            "duration": 0.7795695416666888,
            "durationTicks": 116,
            "midi": 60,
            "name": "C4",
            "ticks": 24384,
            "time": 163.870894,
            "velocity": 0.6299212598425197
          },
          {
            "duration": 0.32258050000001504,
            "durationTicks": 48,
            "midi": 43,
            "name": "G2",
            "ticks": 24384,
            "time": 163.870894,
            "velocity": 0.6141732283464567
          },
          {
            "duration": 0.3158600729166494,
            "durationTicks": 47,
            "midi": 52,
            "name": "E3",
            "ticks": 24432,
            "time": 164.1934745,
            "velocity": 0.6299212598425197
          },
          {
            "duration": 0.29569879166666624,
            "durationTicks": 44,
            "midi": 43,
            "name": "G2",
            "ticks": 24480,
            "time": 164.516055,
            "velocity": 0.6377952755905512
          },
          {
            "duration": 0.4032256250000046,
            "durationTicks": 60,
            "midi": 60,
            "name": "C4",
            "ticks": 24504,
            "time": 164.67734525,
            "velocity": 0.6850393700787402
          },
          {
            "duration": 0.3225804999999866,
            "durationTicks": 48,
            "midi": 52,
            "name": "E3",
            "ticks": 24528,
            "time": 164.8386355,
            "velocity": 0.6299212598425197
          },
          {
            "duration": 0.7795695416666604,
            "durationTicks": 116,
            "midi": 62,
            "name": "D4",
            "ticks": 24576,
            "time": 165.161216,
            "velocity": 0.6614173228346457
          },
          {
            "duration": 0.383064343749993,
            "durationTicks": 57,
            "midi": 42,
            "name": "F#2",
            "ticks": 24576,
            "time": 165.161216,
            "velocity": 0.6299212598425197
          },
          {
            "duration": 0.3897847708333586,
            "durationTicks": 58,
            "midi": 50,
            "name": "D3",
            "ticks": 24624,
            "time": 165.48379649999998,
            "velocity": 0.6299212598425197
          },
          {
            "duration": 0.4099460520833418,
            "durationTicks": 61,
            "midi": 42,
            "name": "F#2",
            "ticks": 24672,
            "time": 165.806377,
            "velocity": 0.6141732283464567
          },
          {
            "duration": 0.43682776041663374,
            "durationTicks": 65,
            "midi": 62,
            "name": "D4",
            "ticks": 24696,
            "time": 165.96766725,
            "velocity": 0.7086614173228346
          },
          {
            "duration": 0.30241921875000344,
            "durationTicks": 45,
            "midi": 50,
            "name": "D3",
            "ticks": 24720,
            "time": 166.12895749999998,
            "velocity": 0.6062992125984252
          },
          {
            "duration": 0.7459674062500028,
            "durationTicks": 111,
            "midi": 62,
            "name": "D4",
            "ticks": 24768,
            "time": 166.451538,
            "velocity": 0.6692913385826772
          },
          {
            "duration": 0.3629030625000098,
            "durationTicks": 54,
            "midi": 43,
            "name": "G2",
            "ticks": 24768,
            "time": 166.451538,
            "velocity": 0.6141732283464567
          },
          {
            "duration": 0.31586007291667784,
            "durationTicks": 47,
            "midi": 50,
            "name": "D3",
            "ticks": 24816,
            "time": 166.7741185,
            "velocity": 0.6141732283464567
          },
          {
            "duration": 0.3561826354166442,
            "durationTicks": 53,
            "midi": 43,
            "name": "G2",
            "ticks": 24864,
            "time": 167.096699,
            "velocity": 0.6062992125984252
          },
          {
            "duration": 0.336021354166661,
            "durationTicks": 50,
            "midi": 59,
            "name": "B3",
            "ticks": 24889,
            "time": 167.26470967708335,
            "velocity": 0.6220472440944882
          },
          {
            "duration": 0.34946220833336383,
            "durationTicks": 52,
            "midi": 50,
            "name": "D3",
            "ticks": 24912,
            "time": 167.4192795,
            "velocity": 0.6062992125984252
          },
          {
            "duration": 0.12768811458334994,
            "durationTicks": 19,
            "midi": 59,
            "name": "B3",
            "ticks": 24960,
            "time": 167.74186,
            "velocity": 0.6299212598425197
          },
          {
            "duration": 0.24865580208333427,
            "durationTicks": 37,
            "midi": 45,
            "name": "A2",
            "ticks": 24960,
            "time": 167.74186,
            "velocity": 0.6220472440944882
          },
          {
            "duration": 0.48387074999999413,
            "durationTicks": 72,
            "midi": 60,
            "name": "C4",
            "ticks": 24984,
            "time": 167.90315025,
            "velocity": 0.6062992125984252
          },
          {
            "duration": 0.3360213541666326,
            "durationTicks": 50,
            "midi": 45,
            "name": "A2",
            "ticks": 25056,
            "time": 168.387021,
            "velocity": 0.6299212598425197
          },
          {
            "duration": 0.43682776041666216,
            "durationTicks": 65,
            "midi": 60,
            "name": "C4",
            "ticks": 25080,
            "time": 168.54831124999998,
            "velocity": 0.6692913385826772
          },
          {
            "duration": 0.369623489583347,
            "durationTicks": 55,
            "midi": 52,
            "name": "E3",
            "ticks": 25104,
            "time": 168.7096015,
            "velocity": 0.6062992125984252
          },
          {
            "duration": 0.779569541666632,
            "durationTicks": 116,
            "midi": 60,
            "name": "C4",
            "ticks": 25152,
            "time": 169.032182,
            "velocity": 0.6299212598425197
          },
          {
            "duration": 0.3561826354166442,
            "durationTicks": 53,
            "midi": 43,
            "name": "G2",
            "ticks": 25152,
            "time": 169.032182,
            "velocity": 0.6141732283464567
          },
          {
            "duration": 0.3763439166666558,
            "durationTicks": 56,
            "midi": 52,
            "name": "E3",
            "ticks": 25200,
            "time": 169.3547625,
            "velocity": 0.6299212598425197
          },
          {
            "duration": 0.3360213541666326,
            "durationTicks": 50,
            "midi": 43,
            "name": "G2",
            "ticks": 25248,
            "time": 169.677343,
            "velocity": 0.6377952755905512
          },
          {
            "duration": 0.4032256250000046,
            "durationTicks": 60,
            "midi": 60,
            "name": "C4",
            "ticks": 25272,
            "time": 169.83863325,
            "velocity": 0.6850393700787402
          },
          {
            "duration": 0.32258050000001504,
            "durationTicks": 48,
            "midi": 52,
            "name": "E3",
            "ticks": 25296,
            "time": 169.9999235,
            "velocity": 0.6299212598425197
          },
          {
            "duration": 0.7594082604166488,
            "durationTicks": 113,
            "midi": 62,
            "name": "D4",
            "ticks": 25344,
            "time": 170.322504,
            "velocity": 0.6614173228346457
          },
          {
            "duration": 0.383064343749993,
            "durationTicks": 57,
            "midi": 42,
            "name": "F#2",
            "ticks": 25344,
            "time": 170.322504,
            "velocity": 0.6299212598425197
          },
          {
            "duration": 0.3897847708333586,
            "durationTicks": 58,
            "midi": 50,
            "name": "D3",
            "ticks": 25392,
            "time": 170.6450845,
            "velocity": 0.6299212598425197
          },
          {
            "duration": 0.4099460520833702,
            "durationTicks": 61,
            "midi": 42,
            "name": "F#2",
            "ticks": 25440,
            "time": 170.96766499999998,
            "velocity": 0.6141732283464567
          },
          {
            "duration": 0.43682776041666216,
            "durationTicks": 65,
            "midi": 62,
            "name": "D4",
            "ticks": 25464,
            "time": 171.12895525,
            "velocity": 0.7086614173228346
          },
          {
            "duration": 0.32930092708335224,
            "durationTicks": 49,
            "midi": 50,
            "name": "D3",
            "ticks": 25488,
            "time": 171.2902455,
            "velocity": 0.6062992125984252
          },
          {
            "duration": 0.8938168020833643,
            "durationTicks": 133,
            "midi": 62,
            "name": "D4",
            "ticks": 25536,
            "time": 171.61282599999998,
            "velocity": 0.6692913385826772
          },
          {
            "duration": 0.3629030625000098,
            "durationTicks": 54,
            "midi": 43,
            "name": "G2",
            "ticks": 25536,
            "time": 171.61282599999998,
            "velocity": 0.6141732283464567
          },
          {
            "duration": 0.383064343749993,
            "durationTicks": 57,
            "midi": 50,
            "name": "D3",
            "ticks": 25584,
            "time": 171.9354065,
            "velocity": 0.6141732283464567
          },
          {
            "duration": 0.3561826354166726,
            "durationTicks": 53,
            "midi": 43,
            "name": "G2",
            "ticks": 25632,
            "time": 172.25798699999999,
            "velocity": 0.6062992125984252
          },
          {
            "duration": 0.336021354166661,
            "durationTicks": 50,
            "midi": 59,
            "name": "B3",
            "ticks": 25657,
            "time": 172.42599767708333,
            "velocity": 0.6220472440944882
          },
          {
            "duration": 0.3494622083333354,
            "durationTicks": 52,
            "midi": 50,
            "name": "D3",
            "ticks": 25680,
            "time": 172.5805675,
            "velocity": 0.6062992125984252
          },
          {
            "duration": 0.18817195833335632,
            "durationTicks": 28,
            "midi": 59,
            "name": "B3",
            "ticks": 25728,
            "time": 172.903148,
            "velocity": 0.6299212598425197
          },
          {
            "duration": 0.32930092708335224,
            "durationTicks": 49,
            "midi": 45,
            "name": "A2",
            "ticks": 25728,
            "time": 172.903148,
            "velocity": 0.6220472440944882
          },
          {
            "duration": 0.6317201458333557,
            "durationTicks": 94,
            "midi": 60,
            "name": "C4",
            "ticks": 25752,
            "time": 173.06443825,
            "velocity": 0.6062992125984252
          },
          {
            "duration": 0.2956987916666378,
            "durationTicks": 44,
            "midi": 52,
            "name": "E3",
            "ticks": 25776,
            "time": 173.2257285,
            "velocity": 0.6141732283464567
          },
          {
            "duration": 0.27553751041665464,
            "durationTicks": 41,
            "midi": 45,
            "name": "A2",
            "ticks": 25824,
            "time": 173.548309,
            "velocity": 0.6299212598425197
          },
          {
            "duration": 0.45026861458333656,
            "durationTicks": 67,
            "midi": 60,
            "name": "C4",
            "ticks": 25848,
            "time": 173.70959925,
            "velocity": 0.6692913385826772
          },
          {
            "duration": 0.2956987916666378,
            "durationTicks": 44,
            "midi": 52,
            "name": "E3",
            "ticks": 25872,
            "time": 173.8708895,
            "velocity": 0.6062992125984252
          },
          {
            "duration": 0.28225793749999184,
            "durationTicks": 42,
            "midi": 43,
            "name": "G2",
            "ticks": 25920,
            "time": 174.19347,
            "velocity": 0.6141732283464567
          },
          {
            "duration": 0.7795695416666604,
            "durationTicks": 116,
            "midi": 60,
            "name": "C4",
            "ticks": 25921,
            "time": 174.20019042708333,
            "velocity": 0.6299212598425197
          },
          {
            "duration": 0.3763439166666558,
            "durationTicks": 56,
            "midi": 52,
            "name": "E3",
            "ticks": 25968,
            "time": 174.5160505,
            "velocity": 0.6299212598425197
          },
          {
            "duration": 0.336021354166661,
            "durationTicks": 50,
            "midi": 43,
            "name": "G2",
            "ticks": 26016,
            "time": 174.838631,
            "velocity": 0.6377952755905512
          },
          {
            "duration": 0.4032256250000046,
            "durationTicks": 60,
            "midi": 60,
            "name": "C4",
            "ticks": 26040,
            "time": 174.99992125,
            "velocity": 0.6850393700787402
          },
          {
            "duration": 0.3225804999999866,
            "durationTicks": 48,
            "midi": 52,
            "name": "E3",
            "ticks": 26064,
            "time": 175.1612115,
            "velocity": 0.6299212598425197
          },
          {
            "duration": 0.6989244166666424,
            "durationTicks": 104,
            "midi": 60,
            "name": "C4",
            "ticks": 26112,
            "time": 175.483792,
            "velocity": 0.6771653543307087
          },
          {
            "duration": 0.3494622083333354,
            "durationTicks": 52,
            "midi": 45,
            "name": "A2",
            "ticks": 26112,
            "time": 175.483792,
            "velocity": 0.6299212598425197
          },
          {
            "duration": 0.4099460520833418,
            "durationTicks": 61,
            "midi": 52,
            "name": "E3",
            "ticks": 26160,
            "time": 175.8063725,
            "velocity": 0.6062992125984252
          },
          {
            "duration": 0.3427417812499982,
            "durationTicks": 51,
            "midi": 45,
            "name": "A2",
            "ticks": 26208,
            "time": 176.128953,
            "velocity": 0.6220472440944882
          },
          {
            "duration": 0.5443545937500005,
            "durationTicks": 81,
            "midi": 60,
            "name": "C4",
            "ticks": 26232,
            "time": 176.29024325,
            "velocity": 0.6850393700787402
          },
          {
            "duration": 0.3897847708333586,
            "durationTicks": 58,
            "midi": 52,
            "name": "E3",
            "ticks": 26256,
            "time": 176.45153349999998,
            "velocity": 0.6614173228346457
          },
          {
            "duration": 0.383064343749993,
            "durationTicks": 57,
            "midi": 45,
            "name": "A2",
            "ticks": 26304,
            "time": 176.774114,
            "velocity": 0.6299212598425197
          },
          {
            "duration": 0.6787631354166592,
            "durationTicks": 101,
            "midi": 59,
            "name": "B3",
            "ticks": 26304,
            "time": 176.774114,
            "velocity": 0.6220472440944882
          },
          {
            "duration": 0.3629030625000098,
            "durationTicks": 54,
            "midi": 52,
            "name": "E3",
            "ticks": 26352,
            "time": 177.09669449999998,
            "velocity": 0.6614173228346457
          },
          {
            "duration": 0.3629030625000098,
            "durationTicks": 54,
            "midi": 45,
            "name": "A2",
            "ticks": 26400,
            "time": 177.419275,
            "velocity": 0.6141732283464567
          },
          {
            "duration": 0.5779567291666297,
            "durationTicks": 86,
            "midi": 59,
            "name": "B3",
            "ticks": 26424,
            "time": 177.58056525,
            "velocity": 0.6456692913385826
          },
          {
            "duration": 0.32258050000001504,
            "durationTicks": 48,
            "midi": 52,
            "name": "E3",
            "ticks": 26448,
            "time": 177.74185549999999,
            "velocity": 0.6692913385826772
          },
          {
            "duration": 0.7325265520833284,
            "durationTicks": 109,
            "midi": 62,
            "name": "D4",
            "ticks": 26496,
            "time": 178.064436,
            "velocity": 0.6614173228346457
          },
          {
            "duration": 0.3494622083333354,
            "durationTicks": 52,
            "midi": 45,
            "name": "A2",
            "ticks": 26496,
            "time": 178.064436,
            "velocity": 0.6299212598425197
          },
          {
            "duration": 0.4099460520833418,
            "durationTicks": 61,
            "midi": 52,
            "name": "E3",
            "ticks": 26544,
            "time": 178.3870165,
            "velocity": 0.6062992125984252
          },
          {
            "duration": 0.3427417812499982,
            "durationTicks": 51,
            "midi": 45,
            "name": "A2",
            "ticks": 26592,
            "time": 178.709597,
            "velocity": 0.6220472440944882
          },
          {
            "duration": 0.5577954479166465,
            "durationTicks": 83,
            "midi": 62,
            "name": "D4",
            "ticks": 26616,
            "time": 178.87088725,
            "velocity": 0.6535433070866141
          },
          {
            "duration": 0.3897847708333586,
            "durationTicks": 58,
            "midi": 52,
            "name": "E3",
            "ticks": 26640,
            "time": 179.0321775,
            "velocity": 0.6614173228346457
          },
          {
            "duration": 0.383064343749993,
            "durationTicks": 57,
            "midi": 45,
            "name": "A2",
            "ticks": 26688,
            "time": 179.354758,
            "velocity": 0.6299212598425197
          },
          {
            "duration": 0.7056448437499796,
            "durationTicks": 105,
            "midi": 60,
            "name": "C4",
            "ticks": 26688,
            "time": 179.354758,
            "velocity": 0.6299212598425197
          },
          {
            "duration": 0.3629030625000098,
            "durationTicks": 54,
            "midi": 52,
            "name": "E3",
            "ticks": 26736,
            "time": 179.6773385,
            "velocity": 0.6614173228346457
          },
          {
            "duration": 0.3629030624999814,
            "durationTicks": 54,
            "midi": 45,
            "name": "A2",
            "ticks": 26784,
            "time": 179.999919,
            "velocity": 0.6141732283464567
          },
          {
            "duration": 0.5107524583333429,
            "durationTicks": 76,
            "midi": 60,
            "name": "C4",
            "ticks": 26808,
            "time": 180.16120924999998,
            "velocity": 0.7007874015748031
          },
          {
            "duration": 0.32258050000001504,
            "durationTicks": 48,
            "midi": 52,
            "name": "E3",
            "ticks": 26832,
            "time": 180.3224995,
            "velocity": 0.6692913385826772
          },
          {
            "duration": 0.7459674062499744,
            "durationTicks": 111,
            "midi": 59,
            "name": "B3",
            "ticks": 26880,
            "time": 180.64508,
            "velocity": 0.6299212598425197
          },
          {
            "duration": 0.3494622083333354,
            "durationTicks": 52,
            "midi": 45,
            "name": "A2",
            "ticks": 26880,
            "time": 180.64508,
            "velocity": 0.6299212598425197
          },
          {
            "duration": 0.4099460520833418,
            "durationTicks": 61,
            "midi": 52,
            "name": "E3",
            "ticks": 26928,
            "time": 180.9676605,
            "velocity": 0.6062992125984252
          },
          {
            "duration": 0.3427417812499982,
            "durationTicks": 51,
            "midi": 45,
            "name": "A2",
            "ticks": 26976,
            "time": 181.290241,
            "velocity": 0.6220472440944882
          },
          {
            "duration": 0.5443545937500005,
            "durationTicks": 81,
            "midi": 59,
            "name": "B3",
            "ticks": 27000,
            "time": 181.45153125,
            "velocity": 0.6456692913385826
          },
          {
            "duration": 0.3897847708333586,
            "durationTicks": 58,
            "midi": 52,
            "name": "E3",
            "ticks": 27024,
            "time": 181.6128215,
            "velocity": 0.6614173228346457
          },
          {
            "duration": 0.7392469791666656,
            "durationTicks": 110,
            "midi": 62,
            "name": "D4",
            "ticks": 27072,
            "time": 181.93540199999998,
            "velocity": 0.6377952755905512
          },
          {
            "duration": 0.3830643437500214,
            "durationTicks": 57,
            "midi": 45,
            "name": "A2",
            "ticks": 27072,
            "time": 181.93540199999998,
            "velocity": 0.6299212598425197
          },
          {
            "duration": 0.3629030625000098,
            "durationTicks": 54,
            "midi": 52,
            "name": "E3",
            "ticks": 27120,
            "time": 182.2579825,
            "velocity": 0.6614173228346457
          },
          {
            "duration": 0.3629030625000098,
            "durationTicks": 54,
            "midi": 45,
            "name": "A2",
            "ticks": 27168,
            "time": 182.58056299999998,
            "velocity": 0.6141732283464567
          },
          {
            "duration": 0.5376341666666633,
            "durationTicks": 80,
            "midi": 62,
            "name": "D4",
            "ticks": 27192,
            "time": 182.74185325,
            "velocity": 0.6850393700787402
          },
          {
            "duration": 0.3225804999999866,
            "durationTicks": 48,
            "midi": 52,
            "name": "E3",
            "ticks": 27216,
            "time": 182.9031435,
            "velocity": 0.6692913385826772
          },
          {
            "duration": 0.7325265520833568,
            "durationTicks": 109,
            "midi": 60,
            "name": "C4",
            "ticks": 27264,
            "time": 183.22572399999999,
            "velocity": 0.6220472440944882
          },
          {
            "duration": 0.34946220833336383,
            "durationTicks": 52,
            "midi": 45,
            "name": "A2",
            "ticks": 27264,
            "time": 183.22572399999999,
            "velocity": 0.6299212598425197
          },
          {
            "duration": 0.4099460520833418,
            "durationTicks": 61,
            "midi": 52,
            "name": "E3",
            "ticks": 27312,
            "time": 183.5483045,
            "velocity": 0.6062992125984252
          },
          {
            "duration": 0.3427417812499982,
            "durationTicks": 51,
            "midi": 45,
            "name": "A2",
            "ticks": 27360,
            "time": 183.870885,
            "velocity": 0.6220472440944882
          },
          {
            "duration": 0.48387074999999413,
            "durationTicks": 72,
            "midi": 60,
            "name": "C4",
            "ticks": 27384,
            "time": 184.03217525,
            "velocity": 0.6929133858267716
          },
          {
            "duration": 0.3897847708333302,
            "durationTicks": 58,
            "midi": 52,
            "name": "E3",
            "ticks": 27408,
            "time": 184.1934655,
            "velocity": 0.6614173228346457
          },
          {
            "duration": 0.7594082604166488,
            "durationTicks": 113,
            "midi": 59,
            "name": "B3",
            "ticks": 27456,
            "time": 184.516046,
            "velocity": 0.5984251968503937
          },
          {
            "duration": 0.383064343749993,
            "durationTicks": 57,
            "midi": 45,
            "name": "A2",
            "ticks": 27456,
            "time": 184.516046,
            "velocity": 0.6299212598425197
          },
          {
            "duration": 0.3629030624999814,
            "durationTicks": 54,
            "midi": 52,
            "name": "E3",
            "ticks": 27504,
            "time": 184.8386265,
            "velocity": 0.6614173228346457
          },
          {
            "duration": 0.3629030625000098,
            "durationTicks": 54,
            "midi": 45,
            "name": "A2",
            "ticks": 27552,
            "time": 185.161207,
            "velocity": 0.6141732283464567
          },
          {
            "duration": 0.5309137395833545,
            "durationTicks": 79,
            "midi": 59,
            "name": "B3",
            "ticks": 27576,
            "time": 185.32249725,
            "velocity": 0.6614173228346457
          },
          {
            "duration": 0.3158600729166494,
            "durationTicks": 47,
            "midi": 52,
            "name": "E3",
            "ticks": 27600,
            "time": 185.4837875,
            "velocity": 0.6692913385826772
          },
          {
            "duration": 2.5806440000000066,
            "durationTicks": 384,
            "midi": 60,
            "name": "C4",
            "ticks": 27648,
            "time": 185.806368,
            "velocity": 0.6456692913385826
          },
          {
            "duration": 2.5806440000000066,
            "durationTicks": 384,
            "midi": 52,
            "name": "E3",
            "ticks": 27648,
            "time": 185.806368,
            "velocity": 0.4330708661417323
          },
          {
            "duration": 2.2580634999999916,
            "durationTicks": 336,
            "midi": 45,
            "name": "A2",
            "ticks": 27648,
            "time": 185.806368,
            "velocity": 0.6299212598425197
          }
        ],
        "endOfTrackTicks": 28032
      },
      {
        "channel": 1,
        "controlChanges": {
          "1": [
            {
              "number": 1,
              "ticks": 385,
              "time": 2.5873644270833336,
              "value": 0
            }
          ],
          "7": [
            {
              "number": 7,
              "ticks": 104,
              "time": 0.6989244166666666,
              "value": 0.8267716535433071
            }
          ],
          "10": [
            {
              "number": 10,
              "ticks": 104,
              "time": 0.6989244166666666,
              "value": 0.7244094488188977
            }
          ],
          "11": [
            {
              "number": 11,
              "ticks": 104,
              "time": 0.6989244166666666,
              "value": 1
            }
          ],
          "91": [
            {
              "number": 91,
              "ticks": 105,
              "time": 0.70564484375,
              "value": 0.47244094488188976
            }
          ],
          "93": [
            {
              "number": 93,
              "ticks": 105,
              "time": 0.70564484375,
              "value": 0.5039370078740157
            }
          ]
        },
        "pitchBends": [
          {
            "ticks": 385,
            "time": 2.5873644270833336,
            "value": 0
          }
        ],
        "instrument": {
          "family": "guitar",
          "number": 25,
          "name": "acoustic guitar (steel)"
        },
        "name": "",
        "notes": [
          {
            "duration": 0.3696234895833337,
            "durationTicks": 55,
            "midi": 48,
            "name": "C3",
            "ticks": 384,
            "time": 2.580644,
            "velocity": 0.6141732283464567
          },
          {
            "duration": 0.44354818750000025,
            "durationTicks": 66,
            "midi": 55,
            "name": "G3",
            "ticks": 431,
            "time": 2.8965040729166662,
            "velocity": 0.5826771653543307
          },
          {
            "duration": 0.32258049999999994,
            "durationTicks": 48,
            "midi": 64,
            "name": "E4",
            "ticks": 432,
            "time": 2.9032245,
            "velocity": 0.5984251968503937
          },
          {
            "duration": 0.4704298958333335,
            "durationTicks": 70,
            "midi": 67,
            "name": "G4",
            "ticks": 456,
            "time": 3.06451475,
            "velocity": 0.6299212598425197
          },
          {
            "duration": 0.40322562500000014,
            "durationTicks": 60,
            "midi": 48,
            "name": "C3",
            "ticks": 480,
            "time": 3.225805,
            "velocity": 0.6062992125984252
          },
          {
            "duration": 0.3293009270833336,
            "durationTicks": 49,
            "midi": 64,
            "name": "E4",
            "ticks": 527,
            "time": 3.5416650729166665,
            "velocity": 0.6141732283464567
          },
          {
            "duration": 0.44354818750000025,
            "durationTicks": 66,
            "midi": 60,
            "name": "C4",
            "ticks": 528,
            "time": 3.5483854999999997,
            "velocity": 0.5511811023622047
          },
          {
            "duration": 0.39650519791666694,
            "durationTicks": 59,
            "midi": 67,
            "name": "G4",
            "ticks": 551,
            "time": 3.7029553229166665,
            "velocity": 0.6220472440944882
          },
          {
            "duration": 0.34274178125,
            "durationTicks": 51,
            "midi": 48,
            "name": "C3",
            "ticks": 576,
            "time": 3.870966,
            "velocity": 0.6062992125984252
          },
          {
            "duration": 0.30913964583333353,
            "durationTicks": 46,
            "midi": 64,
            "name": "E4",
            "ticks": 624,
            "time": 4.1935465,
            "velocity": 0.6062992125984252
          },
          {
            "duration": 0.450268614583333,
            "durationTicks": 67,
            "midi": 55,
            "name": "G3",
            "ticks": 624,
            "time": 4.1935465,
            "velocity": 0.5748031496062992
          },
          {
            "duration": 0.4637094687500003,
            "durationTicks": 69,
            "midi": 67,
            "name": "G4",
            "ticks": 648,
            "time": 4.35483675,
            "velocity": 0.5748031496062992
          },
          {
            "duration": 0.40322562500000014,
            "durationTicks": 60,
            "midi": 48,
            "name": "C3",
            "ticks": 672,
            "time": 4.516127,
            "velocity": 0.5590551181102362
          },
          {
            "duration": 0.5309137395833332,
            "durationTicks": 79,
            "midi": 64,
            "name": "E4",
            "ticks": 719,
            "time": 4.831987072916666,
            "velocity": 0.5118110236220472
          },
          {
            "duration": 0.450268614583333,
            "durationTicks": 67,
            "midi": 60,
            "name": "C4",
            "ticks": 720,
            "time": 4.8387075,
            "velocity": 0.5039370078740157
          },
          {
            "duration": 0.47042989583333306,
            "durationTicks": 70,
            "midi": 67,
            "name": "G4",
            "ticks": 743,
            "time": 4.993277322916667,
            "velocity": 0.6062992125984252
          },
          {
            "duration": 0.34274178125,
            "durationTicks": 51,
            "midi": 48,
            "name": "C3",
            "ticks": 768,
            "time": 5.161288,
            "velocity": 0.6220472440944882
          },
          {
            "duration": 0.450268614583333,
            "durationTicks": 67,
            "midi": 64,
            "name": "E4",
            "ticks": 816,
            "time": 5.4838685,
            "velocity": 0.5905511811023622
          },
          {
            "duration": 0.4637094687500003,
            "durationTicks": 69,
            "midi": 55,
            "name": "G3",
            "ticks": 816,
            "time": 5.4838685,
            "velocity": 0.5433070866141733
          },
          {
            "duration": 0.4905911770833322,
            "durationTicks": 73,
            "midi": 67,
            "name": "G4",
            "ticks": 840,
            "time": 5.64515875,
            "velocity": 0.6535433070866141
          },
          {
            "duration": 0.3830643437500001,
            "durationTicks": 57,
            "midi": 48,
            "name": "C3",
            "ticks": 864,
            "time": 5.806449,
            "velocity": 0.5275590551181102
          },
          {
            "duration": 0.32258049999999994,
            "durationTicks": 48,
            "midi": 64,
            "name": "E4",
            "ticks": 911,
            "time": 6.122309072916667,
            "velocity": 0.5748031496062992
          },
          {
            "duration": 0.41666647916666744,
            "durationTicks": 62,
            "midi": 60,
            "name": "C4",
            "ticks": 912,
            "time": 6.1290295,
            "velocity": 0.5433070866141733
          },
          {
            "duration": 0.3158600729166672,
            "durationTicks": 47,
            "midi": 67,
            "name": "G4",
            "ticks": 936,
            "time": 6.29031975,
            "velocity": 0.6377952755905512
          },
          {
            "duration": 0.33602135416666723,
            "durationTicks": 50,
            "midi": 48,
            "name": "C3",
            "ticks": 960,
            "time": 6.45161,
            "velocity": 0.6141732283464567
          },
          {
            "duration": 0.3293009270833336,
            "durationTicks": 49,
            "midi": 64,
            "name": "E4",
            "ticks": 1008,
            "time": 6.7741905,
            "velocity": 0.6062992125984252
          },
          {
            "duration": 0.47042989583333306,
            "durationTicks": 70,
            "midi": 55,
            "name": "G3",
            "ticks": 1008,
            "time": 6.7741905,
            "velocity": 0.5511811023622047
          },
          {
            "duration": 0.4771503229166667,
            "durationTicks": 71,
            "midi": 67,
            "name": "G4",
            "ticks": 1032,
            "time": 6.93548075,
            "velocity": 0.6692913385826772
          },
          {
            "duration": 0.34946220833333363,
            "durationTicks": 52,
            "midi": 48,
            "name": "C3",
            "ticks": 1056,
            "time": 7.0967709999999995,
            "velocity": 0.5826771653543307
          },
          {
            "duration": 0.2620966562499998,
            "durationTicks": 39,
            "midi": 64,
            "name": "E4",
            "ticks": 1103,
            "time": 7.412631072916667,
            "velocity": 0.6141732283464567
          },
          {
            "duration": 0.2755375104166662,
            "durationTicks": 41,
            "midi": 60,
            "name": "C4",
            "ticks": 1103,
            "time": 7.412631072916667,
            "velocity": 0.5511811023622047
          },
          {
            "duration": 0.20833323958333327,
            "durationTicks": 31,
            "midi": 67,
            "name": "G4",
            "ticks": 1128,
            "time": 7.58064175,
            "velocity": 0.6535433070866141
          },
          {
            "duration": 0.41666647916666655,
            "durationTicks": 62,
            "midi": 45,
            "name": "A2",
            "ticks": 1152,
            "time": 7.741932,
            "velocity": 0.5984251968503937
          },
          {
            "duration": 0.34946220833333363,
            "durationTicks": 52,
            "midi": 64,
            "name": "E4",
            "ticks": 1200,
            "time": 8.0645125,
            "velocity": 0.6535433070866141
          },
          {
            "duration": 0.3561826354166673,
            "durationTicks": 53,
            "midi": 52,
            "name": "E3",
            "ticks": 1200,
            "time": 8.0645125,
            "velocity": 0.6220472440944882
          },
          {
            "duration": 0.49731160416666675,
            "durationTicks": 74,
            "midi": 69,
            "name": "A4",
            "ticks": 1224,
            "time": 8.22580275,
            "velocity": 0.6062992125984252
          },
          {
            "duration": 0.34274178125,
            "durationTicks": 51,
            "midi": 45,
            "name": "A2",
            "ticks": 1248,
            "time": 8.387093,
            "velocity": 0.5826771653543307
          },
          {
            "duration": 0.4099460520833329,
            "durationTicks": 61,
            "midi": 64,
            "name": "E4",
            "ticks": 1295,
            "time": 8.702953072916667,
            "velocity": 0.5669291338582677
          },
          {
            "duration": 0.41666647916666477,
            "durationTicks": 62,
            "midi": 57,
            "name": "A3",
            "ticks": 1295,
            "time": 8.702953072916667,
            "velocity": 0.5669291338582677
          },
          {
            "duration": 0.49731160416666675,
            "durationTicks": 74,
            "midi": 69,
            "name": "A4",
            "ticks": 1320,
            "time": 8.87096375,
            "velocity": 0.5748031496062992
          },
          {
            "duration": 0.3965051979166656,
            "durationTicks": 59,
            "midi": 45,
            "name": "A2",
            "ticks": 1343,
            "time": 9.025533572916666,
            "velocity": 0.5669291338582677
          },
          {
            "duration": 0.450268614583333,
            "durationTicks": 67,
            "midi": 64,
            "name": "E4",
            "ticks": 1392,
            "time": 9.354834499999999,
            "velocity": 0.6220472440944882
          },
          {
            "duration": 0.4233869062500002,
            "durationTicks": 63,
            "midi": 52,
            "name": "E3",
            "ticks": 1392,
            "time": 9.354834499999999,
            "velocity": 0.5826771653543307
          },
          {
            "duration": 0.48387074999999946,
            "durationTicks": 72,
            "midi": 69,
            "name": "A4",
            "ticks": 1416,
            "time": 9.51612475,
            "velocity": 0.6692913385826772
          },
          {
            "duration": 0.34274178125,
            "durationTicks": 51,
            "midi": 45,
            "name": "A2",
            "ticks": 1440,
            "time": 9.677415,
            "velocity": 0.5905511811023622
          },
          {
            "duration": 0.41666647916666655,
            "durationTicks": 62,
            "midi": 64,
            "name": "E4",
            "ticks": 1487,
            "time": 9.993275072916667,
            "velocity": 0.6062992125984252
          },
          {
            "duration": 0.4637094687499985,
            "durationTicks": 69,
            "midi": 57,
            "name": "A3",
            "ticks": 1487,
            "time": 9.993275072916667,
            "velocity": 0.49606299212598426
          },
          {
            "duration": 0.49731160416666675,
            "durationTicks": 74,
            "midi": 69,
            "name": "A4",
            "ticks": 1512,
            "time": 10.16128575,
            "velocity": 0.6062992125984252
          },
          {
            "duration": 0.3561826354166673,
            "durationTicks": 53,
            "midi": 45,
            "name": "A2",
            "ticks": 1535,
            "time": 10.315855572916666,
            "velocity": 0.5590551181102362
          },
          {
            "duration": 0.43010733333333384,
            "durationTicks": 64,
            "midi": 64,
            "name": "E4",
            "ticks": 1583,
            "time": 10.638436072916665,
            "velocity": 0.6062992125984252
          },
          {
            "duration": 0.40322562500000103,
            "durationTicks": 60,
            "midi": 52,
            "name": "E3",
            "ticks": 1583,
            "time": 10.638436072916665,
            "velocity": 0.5905511811023622
          },
          {
            "duration": 0.49731160416666675,
            "durationTicks": 74,
            "midi": 69,
            "name": "A4",
            "ticks": 1608,
            "time": 10.80644675,
            "velocity": 0.6692913385826772
          },
          {
            "duration": 0.3965051979166656,
            "durationTicks": 59,
            "midi": 45,
            "name": "A2",
            "ticks": 1632,
            "time": 10.967737,
            "velocity": 0.5590551181102362
          },
          {
            "duration": 0.32930092708333447,
            "durationTicks": 49,
            "midi": 64,
            "name": "E4",
            "ticks": 1679,
            "time": 11.283597072916665,
            "velocity": 0.6062992125984252
          },
          {
            "duration": 0.41666647916666477,
            "durationTicks": 62,
            "midi": 57,
            "name": "A3",
            "ticks": 1680,
            "time": 11.2903175,
            "velocity": 0.5590551181102362
          },
          {
            "duration": 0.510752458333334,
            "durationTicks": 76,
            "midi": 69,
            "name": "A4",
            "ticks": 1704,
            "time": 11.451607749999999,
            "velocity": 0.6456692913385826
          },
          {
            "duration": 0.34274178125,
            "durationTicks": 51,
            "midi": 45,
            "name": "A2",
            "ticks": 1728,
            "time": 11.612898,
            "velocity": 0.5748031496062992
          },
          {
            "duration": 0.33602135416666457,
            "durationTicks": 50,
            "midi": 64,
            "name": "E4",
            "ticks": 1776,
            "time": 11.9354785,
            "velocity": 0.5669291338582677
          },
          {
            "duration": 0.3561826354166655,
            "durationTicks": 53,
            "midi": 52,
            "name": "E3",
            "ticks": 1776,
            "time": 11.9354785,
            "velocity": 0.5905511811023622
          },
          {
            "duration": 0.4771503229166658,
            "durationTicks": 71,
            "midi": 69,
            "name": "A4",
            "ticks": 1800,
            "time": 12.096768749999999,
            "velocity": 0.6614173228346457
          },
          {
            "duration": 0.32930092708333447,
            "durationTicks": 49,
            "midi": 45,
            "name": "A2",
            "ticks": 1823,
            "time": 12.251338572916666,
            "velocity": 0.5748031496062992
          },
          {
            "duration": 0.2553762291666697,
            "durationTicks": 38,
            "midi": 64,
            "name": "E4",
            "ticks": 1871,
            "time": 12.573919072916665,
            "velocity": 0.5905511811023622
          },
          {
            "duration": 0.32258049999999905,
            "durationTicks": 48,
            "midi": 57,
            "name": "A3",
            "ticks": 1872,
            "time": 12.5806395,
            "velocity": 0.5984251968503937
          },
          {
            "duration": 0.4905911770833349,
            "durationTicks": 73,
            "midi": 69,
            "name": "A4",
            "ticks": 1896,
            "time": 12.741929749999999,
            "velocity": 0.6220472440944882
          },
          {
            "duration": 0.4099460520833347,
            "durationTicks": 61,
            "midi": 48,
            "name": "C3",
            "ticks": 1920,
            "time": 12.90322,
            "velocity": 0.5905511811023622
          },
          {
            "duration": 0.30913964583333353,
            "durationTicks": 46,
            "midi": 64,
            "name": "E4",
            "ticks": 1968,
            "time": 13.2258005,
            "velocity": 0.5748031496062992
          },
          {
            "duration": 0.37634391666666467,
            "durationTicks": 56,
            "midi": 55,
            "name": "G3",
            "ticks": 1968,
            "time": 13.2258005,
            "velocity": 0.5354330708661418
          },
          {
            "duration": 0.5040320312499986,
            "durationTicks": 75,
            "midi": 67,
            "name": "G4",
            "ticks": 1992,
            "time": 13.38709075,
            "velocity": 0.5905511811023622
          },
          {
            "duration": 0.36290306250000093,
            "durationTicks": 54,
            "midi": 48,
            "name": "C3",
            "ticks": 2016,
            "time": 13.548381,
            "velocity": 0.5669291338582677
          },
          {
            "duration": 0.3024192187499999,
            "durationTicks": 45,
            "midi": 64,
            "name": "E4",
            "ticks": 2064,
            "time": 13.8709615,
            "velocity": 0.5748031496062992
          },
          {
            "duration": 0.450268614583333,
            "durationTicks": 67,
            "midi": 60,
            "name": "C4",
            "ticks": 2064,
            "time": 13.8709615,
            "velocity": 0.5984251968503937
          },
          {
            "duration": 0.510752458333334,
            "durationTicks": 76,
            "midi": 67,
            "name": "G4",
            "ticks": 2088,
            "time": 14.03225175,
            "velocity": 0.6535433070866141
          },
          {
            "duration": 0.3494622083333354,
            "durationTicks": 52,
            "midi": 48,
            "name": "C3",
            "ticks": 2112,
            "time": 14.193541999999999,
            "velocity": 0.5984251968503937
          },
          {
            "duration": 0.5040320312499986,
            "durationTicks": 75,
            "midi": 55,
            "name": "G3",
            "ticks": 2159,
            "time": 14.509402072916666,
            "velocity": 0.5590551181102362
          },
          {
            "duration": 0.26881708333333343,
            "durationTicks": 40,
            "midi": 64,
            "name": "E4",
            "ticks": 2160,
            "time": 14.5161225,
            "velocity": 0.5748031496062992
          },
          {
            "duration": 0.4637094687499985,
            "durationTicks": 69,
            "midi": 67,
            "name": "G4",
            "ticks": 2184,
            "time": 14.67741275,
            "velocity": 0.6614173228346457
          },
          {
            "duration": 0.36290306250000093,
            "durationTicks": 54,
            "midi": 48,
            "name": "C3",
            "ticks": 2208,
            "time": 14.838702999999999,
            "velocity": 0.5984251968503937
          },
          {
            "duration": 0.450268614583333,
            "durationTicks": 67,
            "midi": 60,
            "name": "C4",
            "ticks": 2255,
            "time": 15.154563072916666,
            "velocity": 0.5826771653543307
          },
          {
            "duration": 0.22177409374999968,
            "durationTicks": 33,
            "midi": 64,
            "name": "E4",
            "ticks": 2256,
            "time": 15.1612835,
            "velocity": 0.5748031496062992
          },
          {
            "duration": 0.510752458333334,
            "durationTicks": 76,
            "midi": 67,
            "name": "G4",
            "ticks": 2280,
            "time": 15.32257375,
            "velocity": 0.6535433070866141
          },
          {
            "duration": 0.35618263541666906,
            "durationTicks": 53,
            "midi": 48,
            "name": "C3",
            "ticks": 2303,
            "time": 15.477143572916665,
            "velocity": 0.6062992125984252
          },
          {
            "duration": 0.4569890416666684,
            "durationTicks": 68,
            "midi": 55,
            "name": "G3",
            "ticks": 2351,
            "time": 15.799724072916666,
            "velocity": 0.5826771653543307
          },
          {
            "duration": 0.2486558020833325,
            "durationTicks": 37,
            "midi": 64,
            "name": "E4",
            "ticks": 2352,
            "time": 15.8064445,
            "velocity": 0.5826771653543307
          },
          {
            "duration": 0.4637094687499985,
            "durationTicks": 69,
            "midi": 67,
            "name": "G4",
            "ticks": 2376,
            "time": 15.96773475,
            "velocity": 0.6614173228346457
          },
          {
            "duration": 0.3494622083333354,
            "durationTicks": 52,
            "midi": 48,
            "name": "C3",
            "ticks": 2399,
            "time": 16.122304572916665,
            "velocity": 0.5669291338582677
          },
          {
            "duration": 0.24193537500000062,
            "durationTicks": 36,
            "midi": 64,
            "name": "E4",
            "ticks": 2447,
            "time": 16.444885072916666,
            "velocity": 0.5511811023622047
          },
          {
            "duration": 0.4905911770833349,
            "durationTicks": 73,
            "midi": 60,
            "name": "C4",
            "ticks": 2447,
            "time": 16.444885072916666,
            "velocity": 0.5826771653543307
          },
          {
            "duration": 0.5174728854166659,
            "durationTicks": 77,
            "midi": 67,
            "name": "G4",
            "ticks": 2472,
            "time": 16.61289575,
            "velocity": 0.6535433070866141
          },
          {
            "duration": 0.3696234895833328,
            "durationTicks": 55,
            "midi": 48,
            "name": "C3",
            "ticks": 2495,
            "time": 16.767465572916667,
            "velocity": 0.5748031496062992
          },
          {
            "duration": 0.25537622916666436,
            "durationTicks": 38,
            "midi": 64,
            "name": "E4",
            "ticks": 2544,
            "time": 17.0967665,
            "velocity": 0.5590551181102362
          },
          {
            "duration": 0.3158600729166636,
            "durationTicks": 47,
            "midi": 55,
            "name": "G3",
            "ticks": 2544,
            "time": 17.0967665,
            "velocity": 0.5748031496062992
          },
          {
            "duration": 0.45698904166666665,
            "durationTicks": 68,
            "midi": 67,
            "name": "G4",
            "ticks": 2568,
            "time": 17.258056749999998,
            "velocity": 0.6614173228346457
          },
          {
            "duration": 0.4435481875000029,
            "durationTicks": 66,
            "midi": 48,
            "name": "C3",
            "ticks": 2592,
            "time": 17.419347,
            "velocity": 0.6062992125984252
          },
          {
            "duration": 0.22849452083333333,
            "durationTicks": 34,
            "midi": 64,
            "name": "E4",
            "ticks": 2639,
            "time": 17.735207072916666,
            "velocity": 0.5748031496062992
          },
          {
            "duration": 0.22849452083333333,
            "durationTicks": 34,
            "midi": 60,
            "name": "C4",
            "ticks": 2639,
            "time": 17.735207072916666,
            "velocity": 0.6220472440944882
          },
          {
            "duration": 0.47042989583333394,
            "durationTicks": 70,
            "midi": 67,
            "name": "G4",
            "ticks": 2664,
            "time": 17.90321775,
            "velocity": 0.6377952755905512
          },
          {
            "duration": 0.3830643437500001,
            "durationTicks": 57,
            "midi": 45,
            "name": "A2",
            "ticks": 2688,
            "time": 18.064508,
            "velocity": 0.6456692913385826
          },
          {
            "duration": 0.2889783645833326,
            "durationTicks": 43,
            "midi": 64,
            "name": "E4",
            "ticks": 2736,
            "time": 18.3870885,
            "velocity": 0.5669291338582677
          },
          {
            "duration": 0.36290306249999915,
            "durationTicks": 54,
            "midi": 52,
            "name": "E3",
            "ticks": 2736,
            "time": 18.3870885,
            "velocity": 0.5590551181102362
          },
          {
            "duration": 0.5107524583333323,
            "durationTicks": 76,
            "midi": 69,
            "name": "A4",
            "ticks": 2760,
            "time": 18.54837875,
            "velocity": 0.5748031496062992
          },
          {
            "duration": 0.3897847708333373,
            "durationTicks": 58,
            "midi": 45,
            "name": "A2",
            "ticks": 2784,
            "time": 18.709668999999998,
            "velocity": 0.5984251968503937
          },
          {
            "duration": 0.23521494791666697,
            "durationTicks": 35,
            "midi": 64,
            "name": "E4",
            "ticks": 2832,
            "time": 19.0322495,
            "velocity": 0.5984251968503937
          },
          {
            "duration": 0.3965051979166674,
            "durationTicks": 59,
            "midi": 57,
            "name": "A3",
            "ticks": 2832,
            "time": 19.0322495,
            "velocity": 0.6220472440944882
          },
          {
            "duration": 0.5309137395833332,
            "durationTicks": 79,
            "midi": 69,
            "name": "A4",
            "ticks": 2856,
            "time": 19.19353975,
            "velocity": 0.6377952755905512
          },
          {
            "duration": 0.36290306249999915,
            "durationTicks": 54,
            "midi": 45,
            "name": "A2",
            "ticks": 2880,
            "time": 19.35483,
            "velocity": 0.5984251968503937
          },
          {
            "duration": 0.23521494791666342,
            "durationTicks": 35,
            "midi": 64,
            "name": "E4",
            "ticks": 2928,
            "time": 19.6774105,
            "velocity": 0.6377952755905512
          },
          {
            "duration": 0.3561826354166655,
            "durationTicks": 53,
            "midi": 52,
            "name": "E3",
            "ticks": 2928,
            "time": 19.6774105,
            "velocity": 0.5984251968503937
          },
          {
            "duration": 0.49059117708333133,
            "durationTicks": 73,
            "midi": 69,
            "name": "A4",
            "ticks": 2952,
            "time": 19.83870075,
            "velocity": 0.6220472440944882
          },
          {
            "duration": 0.38978477083333374,
            "durationTicks": 58,
            "midi": 45,
            "name": "A2",
            "ticks": 2975,
            "time": 19.993270572916664,
            "velocity": 0.5905511811023622
          },
          {
            "duration": 0.21505366666666603,
            "durationTicks": 32,
            "midi": 64,
            "name": "E4",
            "ticks": 3024,
            "time": 20.3225715,
            "velocity": 0.6535433070866141
          },
          {
            "duration": 0.3965051979166674,
            "durationTicks": 59,
            "midi": 57,
            "name": "A3",
            "ticks": 3024,
            "time": 20.3225715,
            "velocity": 0.6062992125984252
          },
          {
            "duration": 0.5577954479166678,
            "durationTicks": 83,
            "midi": 69,
            "name": "A4",
            "ticks": 3048,
            "time": 20.48386175,
            "velocity": 0.6220472440944882
          },
          {
            "duration": 0.3897847708333302,
            "durationTicks": 58,
            "midi": 45,
            "name": "A2",
            "ticks": 3066,
            "time": 20.6048294375,
            "velocity": 0.5826771653543307
          },
          {
            "duration": 0.4099460520833347,
            "durationTicks": 61,
            "midi": 52,
            "name": "E3",
            "ticks": 3118,
            "time": 20.954291645833333,
            "velocity": 0.6141732283464567
          },
          {
            "duration": 0.24193537500000062,
            "durationTicks": 36,
            "midi": 64,
            "name": "E4",
            "ticks": 3120,
            "time": 20.9677325,
            "velocity": 0.6062992125984252
          },
          {
            "duration": 0.4637094687500003,
            "durationTicks": 69,
            "midi": 69,
            "name": "A4",
            "ticks": 3144,
            "time": 21.12902275,
            "velocity": 0.6062992125984252
          },
          {
            "duration": 0.37634391666666644,
            "durationTicks": 56,
            "midi": 45,
            "name": "A2",
            "ticks": 3168,
            "time": 21.290313,
            "velocity": 0.5984251968503937
          },
          {
            "duration": 0.3830643437500001,
            "durationTicks": 57,
            "midi": 57,
            "name": "A3",
            "ticks": 3212,
            "time": 21.586011791666667,
            "velocity": 0.6220472440944882
          },
          {
            "duration": 0.2016128125000023,
            "durationTicks": 30,
            "midi": 64,
            "name": "E4",
            "ticks": 3216,
            "time": 21.6128935,
            "velocity": 0.6062992125984252
          },
          {
            "duration": 0.49059117708333133,
            "durationTicks": 73,
            "midi": 69,
            "name": "A4",
            "ticks": 3240,
            "time": 21.77418375,
            "velocity": 0.6456692913385826
          },
          {
            "duration": 0.35618263541666906,
            "durationTicks": 53,
            "midi": 45,
            "name": "A2",
            "ticks": 3261,
            "time": 21.91531271875,
            "velocity": 0.5669291338582677
          },
          {
            "duration": 0.3024192187499999,
            "durationTicks": 45,
            "midi": 52,
            "name": "E3",
            "ticks": 3310,
            "time": 22.244613645833333,
            "velocity": 0.6062992125984252
          },
          {
            "duration": 0.2486558020833307,
            "durationTicks": 37,
            "midi": 64,
            "name": "E4",
            "ticks": 3312,
            "time": 22.2580545,
            "velocity": 0.6220472440944882
          },
          {
            "duration": 0.4704298958333304,
            "durationTicks": 70,
            "midi": 69,
            "name": "A4",
            "ticks": 3336,
            "time": 22.41934475,
            "velocity": 0.6692913385826772
          },
          {
            "duration": 0.21505366666666603,
            "durationTicks": 32,
            "midi": 45,
            "name": "A2",
            "ticks": 3360,
            "time": 22.580635,
            "velocity": 0.5039370078740157
          },
          {
            "duration": 0.2889783645833326,
            "durationTicks": 43,
            "midi": 64,
            "name": "E4",
            "ticks": 3384,
            "time": 22.741925249999998,
            "velocity": 0.5354330708661418
          },
          {
            "duration": 0.14112896875000303,
            "durationTicks": 21,
            "midi": 67,
            "name": "G4",
            "ticks": 3408,
            "time": 22.903215499999998,
            "velocity": 0.6692913385826772
          },
          {
            "duration": 0.35618263541666906,
            "durationTicks": 53,
            "midi": 48,
            "name": "C3",
            "ticks": 3456,
            "time": 23.225796,
            "velocity": 0.5984251968503937
          },
          {
            "duration": 0.3158600729166672,
            "durationTicks": 47,
            "midi": 55,
            "name": "G3",
            "ticks": 3504,
            "time": 23.5483765,
            "velocity": 0.5826771653543307
          },
          {
            "duration": 0.28225793749999895,
            "durationTicks": 42,
            "midi": 64,
            "name": "E4",
            "ticks": 3506,
            "time": 23.561817354166667,
            "velocity": 0.6062992125984252
          },
          {
            "duration": 0.43010733333333206,
            "durationTicks": 64,
            "midi": 67,
            "name": "G4",
            "ticks": 3528,
            "time": 23.70966675,
            "velocity": 0.6456692913385826
          },
          {
            "duration": 0.34946220833333186,
            "durationTicks": 52,
            "midi": 48,
            "name": "C3",
            "ticks": 3552,
            "time": 23.870957,
            "velocity": 0.6377952755905512
          },
          {
            "duration": 0.32930092708333447,
            "durationTicks": 49,
            "midi": 64,
            "name": "E4",
            "ticks": 3600,
            "time": 24.193537499999998,
            "velocity": 0.5590551181102362
          },
          {
            "duration": 0.3225805000000008,
            "durationTicks": 48,
            "midi": 60,
            "name": "C4",
            "ticks": 3600,
            "time": 24.193537499999998,
            "velocity": 0.5984251968503937
          },
          {
            "duration": 0.4771503229166676,
            "durationTicks": 71,
            "midi": 67,
            "name": "G4",
            "ticks": 3624,
            "time": 24.35482775,
            "velocity": 0.6535433070866141
          },
          {
            "duration": 0.35618263541666906,
            "durationTicks": 53,
            "midi": 47,
            "name": "B2",
            "ticks": 3648,
            "time": 24.516118,
            "velocity": 0.6141732283464567
          },
          {
            "duration": 0.3225805000000008,
            "durationTicks": 48,
            "midi": 62,
            "name": "D4",
            "ticks": 3696,
            "time": 24.8386985,
            "velocity": 0.5826771653543307
          },
          {
            "duration": 0.3965051979166674,
            "durationTicks": 59,
            "midi": 55,
            "name": "G3",
            "ticks": 3696,
            "time": 24.8386985,
            "velocity": 0.5984251968503937
          },
          {
            "duration": 0.4166664791666683,
            "durationTicks": 62,
            "midi": 67,
            "name": "G4",
            "ticks": 3720,
            "time": 24.99998875,
            "velocity": 0.6692913385826772
          },
          {
            "duration": 0.3427417812499982,
            "durationTicks": 51,
            "midi": 47,
            "name": "B2",
            "ticks": 3744,
            "time": 25.161279,
            "velocity": 0.5590551181102362
          },
          {
            "duration": 0.34274178125000176,
            "durationTicks": 51,
            "midi": 59,
            "name": "B3",
            "ticks": 3791,
            "time": 25.477139072916668,
            "velocity": 0.5984251968503937
          },
          {
            "duration": 0.30913964583333353,
            "durationTicks": 46,
            "midi": 62,
            "name": "D4",
            "ticks": 3792,
            "time": 25.483859499999998,
            "velocity": 0.5433070866141733
          },
          {
            "duration": 0.4435481875000029,
            "durationTicks": 66,
            "midi": 67,
            "name": "G4",
            "ticks": 3816,
            "time": 25.645149749999998,
            "velocity": 0.6456692913385826
          },
          {
            "duration": 0.34946220833333186,
            "durationTicks": 52,
            "midi": 45,
            "name": "A2",
            "ticks": 3840,
            "time": 25.80644,
            "velocity": 0.6456692913385826
          },
          {
            "duration": 0.23521494791666697,
            "durationTicks": 35,
            "midi": 64,
            "name": "E4",
            "ticks": 3888,
            "time": 26.1290205,
            "velocity": 0.5905511811023622
          },
          {
            "duration": 0.3158600729166672,
            "durationTicks": 47,
            "midi": 52,
            "name": "E3",
            "ticks": 3888,
            "time": 26.1290205,
            "velocity": 0.6456692913385826
          },
          {
            "duration": 0.4637094687500003,
            "durationTicks": 69,
            "midi": 69,
            "name": "A4",
            "ticks": 3912,
            "time": 26.29031075,
            "velocity": 0.5748031496062992
          },
          {
            "duration": 0.37634391666666644,
            "durationTicks": 56,
            "midi": 45,
            "name": "A2",
            "ticks": 3936,
            "time": 26.451601,
            "velocity": 0.5984251968503937
          },
          {
            "duration": 0.2553762291666679,
            "durationTicks": 38,
            "midi": 64,
            "name": "E4",
            "ticks": 3984,
            "time": 26.7741815,
            "velocity": 0.5118110236220472
          },
          {
            "duration": 0.4301073333333285,
            "durationTicks": 64,
            "midi": 57,
            "name": "A3",
            "ticks": 3984,
            "time": 26.7741815,
            "velocity": 0.5748031496062992
          },
          {
            "duration": 0.49731160416666853,
            "durationTicks": 74,
            "midi": 69,
            "name": "A4",
            "ticks": 4008,
            "time": 26.935471749999998,
            "velocity": 0.6456692913385826
          },
          {
            "duration": 0.34946220833333186,
            "durationTicks": 52,
            "midi": 45,
            "name": "A2",
            "ticks": 4032,
            "time": 27.096762,
            "velocity": 0.5984251968503937
          },
          {
            "duration": 0.26209665625000156,
            "durationTicks": 39,
            "midi": 64,
            "name": "E4",
            "ticks": 4080,
            "time": 27.4193425,
            "velocity": 0.5669291338582677
          },
          {
            "duration": 0.43682776041666926,
            "durationTicks": 65,
            "midi": 69,
            "name": "A4",
            "ticks": 4104,
            "time": 27.58063275,
            "velocity": 0.6614173228346457
          },
          {
            "duration": 0.35618263541666906,
            "durationTicks": 53,
            "midi": 45,
            "name": "A2",
            "ticks": 4128,
            "time": 27.741923,
            "velocity": 0.5826771653543307
          },
          {
            "duration": 0.3965051979166674,
            "durationTicks": 59,
            "midi": 64,
            "name": "E4",
            "ticks": 4176,
            "time": 28.0645035,
            "velocity": 0.5590551181102362
          },
          {
            "duration": 0.28897836458332904,
            "durationTicks": 43,
            "midi": 57,
            "name": "A3",
            "ticks": 4176,
            "time": 28.0645035,
            "velocity": 0.6220472440944882
          },
          {
            "duration": 0.30913964583333353,
            "durationTicks": 46,
            "midi": 69,
            "name": "A4",
            "ticks": 4200,
            "time": 28.225793749999998,
            "velocity": 0.6220472440944882
          },
          {
            "duration": 0.31586007291667073,
            "durationTicks": 47,
            "midi": 43,
            "name": "G2",
            "ticks": 4224,
            "time": 28.387083999999998,
            "velocity": 0.5984251968503937
          },
          {
            "duration": 0.35618263541666906,
            "durationTicks": 53,
            "midi": 62,
            "name": "D4",
            "ticks": 4272,
            "time": 28.7096645,
            "velocity": 0.5433070866141733
          },
          {
            "duration": 0.34946220833333186,
            "durationTicks": 52,
            "midi": 50,
            "name": "D3",
            "ticks": 4272,
            "time": 28.7096645,
            "velocity": 0.6141732283464567
          },
          {
            "duration": 0.5040320312499986,
            "durationTicks": 75,
            "midi": 67,
            "name": "G4",
            "ticks": 4296,
            "time": 28.87095475,
            "velocity": 0.6062992125984252
          },
          {
            "duration": 0.36290306249999915,
            "durationTicks": 54,
            "midi": 43,
            "name": "G2",
            "ticks": 4320,
            "time": 29.032245,
            "velocity": 0.5433070866141733
          },
          {
            "duration": 0.3024192187499999,
            "durationTicks": 45,
            "midi": 62,
            "name": "D4",
            "ticks": 4368,
            "time": 29.3548255,
            "velocity": 0.5748031496062992
          },
          {
            "duration": 0.3024192187499999,
            "durationTicks": 45,
            "midi": 57,
            "name": "A3",
            "ticks": 4368,
            "time": 29.3548255,
            "velocity": 0.6141732283464567
          },
          {
            "duration": 0.45026861458332945,
            "durationTicks": 67,
            "midi": 67,
            "name": "G4",
            "ticks": 4392,
            "time": 29.51611575,
            "velocity": 0.6850393700787402
          },
          {
            "duration": 0.3830643437500001,
            "durationTicks": 57,
            "midi": 50,
            "name": "D3",
            "ticks": 4415,
            "time": 29.670685572916668,
            "velocity": 0.6141732283464567
          },
          {
            "duration": 0.5510750208333342,
            "durationTicks": 82,
            "midi": 65,
            "name": "F4",
            "ticks": 4464,
            "time": 29.9999865,
            "velocity": 0.6220472440944882
          },
          {
            "duration": 0.3696234895833328,
            "durationTicks": 55,
            "midi": 57,
            "name": "A3",
            "ticks": 4464,
            "time": 29.9999865,
            "velocity": 0.6220472440944882
          },
          {
            "duration": 0.3897847708333302,
            "durationTicks": 58,
            "midi": 50,
            "name": "D3",
            "ticks": 4512,
            "time": 30.322567,
            "velocity": 0.5433070866141733
          },
          {
            "duration": 0.2486558020833307,
            "durationTicks": 37,
            "midi": 64,
            "name": "E4",
            "ticks": 4536,
            "time": 30.48385725,
            "velocity": 0.5905511811023622
          },
          {
            "duration": 0.3024192187499999,
            "durationTicks": 45,
            "midi": 62,
            "name": "D4",
            "ticks": 4560,
            "time": 30.6451475,
            "velocity": 0.5433070866141733
          },
          {
            "duration": 0.23521494791666697,
            "durationTicks": 35,
            "midi": 57,
            "name": "A3",
            "ticks": 4560,
            "time": 30.6451475,
            "velocity": 0.6141732283464567
          },
          {
            "duration": 0.3427417812499982,
            "durationTicks": 51,
            "midi": 45,
            "name": "A2",
            "ticks": 4608,
            "time": 30.967728,
            "velocity": 0.6692913385826772
          },
          {
            "duration": 0.32930092708333447,
            "durationTicks": 49,
            "midi": 64,
            "name": "E4",
            "ticks": 4656,
            "time": 31.2903085,
            "velocity": 0.5118110236220472
          },
          {
            "duration": 0.3024192187499999,
            "durationTicks": 45,
            "midi": 52,
            "name": "E3",
            "ticks": 4656,
            "time": 31.2903085,
            "velocity": 0.5984251968503937
          },
          {
            "duration": 0.4569890416666702,
            "durationTicks": 68,
            "midi": 69,
            "name": "A4",
            "ticks": 4680,
            "time": 31.45159875,
            "velocity": 0.5511811023622047
          },
          {
            "duration": 0.3024192187499999,
            "durationTicks": 45,
            "midi": 45,
            "name": "A2",
            "ticks": 4704,
            "time": 31.612889,
            "velocity": 0.5826771653543307
          },
          {
            "duration": 0.32258049999999727,
            "durationTicks": 48,
            "midi": 64,
            "name": "E4",
            "ticks": 4752,
            "time": 31.9354695,
            "velocity": 0.6062992125984252
          },
          {
            "duration": 0.40322562500000103,
            "durationTicks": 60,
            "midi": 57,
            "name": "A3",
            "ticks": 4752,
            "time": 31.9354695,
            "velocity": 0.5433070866141733
          },
          {
            "duration": 0.49059117708333133,
            "durationTicks": 73,
            "midi": 69,
            "name": "A4",
            "ticks": 4776,
            "time": 32.09675975,
            "velocity": 0.6850393700787402
          },
          {
            "duration": 0.3561826354166726,
            "durationTicks": 53,
            "midi": 45,
            "name": "A2",
            "ticks": 4800,
            "time": 32.25805,
            "velocity": 0.6456692913385826
          },
          {
            "duration": 0.22849452083332977,
            "durationTicks": 34,
            "midi": 52,
            "name": "E3",
            "ticks": 4848,
            "time": 32.5806305,
            "velocity": 0.5826771653543307
          },
          {
            "duration": 0.3427417812499982,
            "durationTicks": 51,
            "midi": 45,
            "name": "A2",
            "ticks": 4896,
            "time": 32.903211,
            "velocity": 0.6692913385826772
          },
          {
            "duration": 0.3965051979166674,
            "durationTicks": 59,
            "midi": 60,
            "name": "C4",
            "ticks": 4897,
            "time": 32.90993142708333,
            "velocity": 0.6456692913385826
          },
          {
            "duration": 0.3427417812499982,
            "durationTicks": 51,
            "midi": 47,
            "name": "B2",
            "ticks": 4944,
            "time": 33.2257915,
            "velocity": 0.6535433070866141
          },
          {
            "duration": 0.3225805000000008,
            "durationTicks": 48,
            "midi": 62,
            "name": "D4",
            "ticks": 4944,
            "time": 33.2257915,
            "velocity": 0.5748031496062992
          },
          {
            "duration": 0.3360213541666681,
            "durationTicks": 50,
            "midi": 48,
            "name": "C3",
            "ticks": 4992,
            "time": 33.548372,
            "velocity": 0.6535433070866141
          },
          {
            "duration": 0.26209665624999445,
            "durationTicks": 39,
            "midi": 64,
            "name": "E4",
            "ticks": 5040,
            "time": 33.8709525,
            "velocity": 0.6456692913385826
          },
          {
            "duration": 0.3830643437500001,
            "durationTicks": 57,
            "midi": 55,
            "name": "G3",
            "ticks": 5040,
            "time": 33.8709525,
            "velocity": 0.6299212598425197
          },
          {
            "duration": 0.46370946874999674,
            "durationTicks": 69,
            "midi": 67,
            "name": "G4",
            "ticks": 5064,
            "time": 34.03224275,
            "velocity": 0.5511811023622047
          },
          {
            "duration": 0.3763439166666629,
            "durationTicks": 56,
            "midi": 48,
            "name": "C3",
            "ticks": 5087,
            "time": 34.186812572916665,
            "velocity": 0.6062992125984252
          },
          {
            "duration": 0.3225805000000008,
            "durationTicks": 48,
            "midi": 60,
            "name": "C4",
            "ticks": 5135,
            "time": 34.509393072916666,
            "velocity": 0.5826771653543307
          },
          {
            "duration": 0.29569879166667334,
            "durationTicks": 44,
            "midi": 64,
            "name": "E4",
            "ticks": 5136,
            "time": 34.516113499999996,
            "velocity": 0.6062992125984252
          },
          {
            "duration": 0.48387075000000124,
            "durationTicks": 72,
            "midi": 67,
            "name": "G4",
            "ticks": 5160,
            "time": 34.677403749999996,
            "velocity": 0.6535433070866141
          },
          {
            "duration": 0.30913964583333353,
            "durationTicks": 46,
            "midi": 47,
            "name": "B2",
            "ticks": 5184,
            "time": 34.838694,
            "velocity": 0.5984251968503937
          },
          {
            "duration": 0.31586007291667073,
            "durationTicks": 47,
            "midi": 62,
            "name": "D4",
            "ticks": 5232,
            "time": 35.1612745,
            "velocity": 0.5748031496062992
          },
          {
            "duration": 0.31586007291667073,
            "durationTicks": 47,
            "midi": 55,
            "name": "G3",
            "ticks": 5232,
            "time": 35.1612745,
            "velocity": 0.6377952755905512
          },
          {
            "duration": 0.49731160416666853,
            "durationTicks": 74,
            "midi": 67,
            "name": "G4",
            "ticks": 5256,
            "time": 35.32256475,
            "velocity": 0.6535433070866141
          },
          {
            "duration": 0.3561826354166655,
            "durationTicks": 53,
            "midi": 47,
            "name": "B2",
            "ticks": 5280,
            "time": 35.483855,
            "velocity": 0.5669291338582677
          },
          {
            "duration": 0.28897836458332904,
            "durationTicks": 43,
            "midi": 59,
            "name": "B3",
            "ticks": 5328,
            "time": 35.8064355,
            "velocity": 0.6220472440944882
          },
          {
            "duration": 0.24193537499999707,
            "durationTicks": 36,
            "midi": 62,
            "name": "D4",
            "ticks": 5328,
            "time": 35.8064355,
            "velocity": 0.5669291338582677
          },
          {
            "duration": 0.42338690625000197,
            "durationTicks": 63,
            "midi": 67,
            "name": "G4",
            "ticks": 5352,
            "time": 35.96772575,
            "velocity": 0.6692913385826772
          },
          {
            "duration": 0.29569879166666624,
            "durationTicks": 44,
            "midi": 45,
            "name": "A2",
            "ticks": 5376,
            "time": 36.129016,
            "velocity": 0.5590551181102362
          },
          {
            "duration": 0.29569879166666624,
            "durationTicks": 44,
            "midi": 64,
            "name": "E4",
            "ticks": 5424,
            "time": 36.4515965,
            "velocity": 0.5905511811023622
          },
          {
            "duration": 0.3561826354166655,
            "durationTicks": 53,
            "midi": 52,
            "name": "E3",
            "ticks": 5424,
            "time": 36.4515965,
            "velocity": 0.6220472440944882
          },
          {
            "duration": 0.45698904166666665,
            "durationTicks": 68,
            "midi": 69,
            "name": "A4",
            "ticks": 5448,
            "time": 36.61288675,
            "velocity": 0.6062992125984252
          },
          {
            "duration": 0.3830643437500001,
            "durationTicks": 57,
            "midi": 45,
            "name": "A2",
            "ticks": 5472,
            "time": 36.774177,
            "velocity": 0.6299212598425197
          },
          {
            "duration": 0.29569879166666624,
            "durationTicks": 44,
            "midi": 64,
            "name": "E4",
            "ticks": 5520,
            "time": 37.0967575,
            "velocity": 0.5669291338582677
          },
          {
            "duration": 0.6317201458333273,
            "durationTicks": 94,
            "midi": 57,
            "name": "A3",
            "ticks": 5520,
            "time": 37.0967575,
            "velocity": 0.6141732283464567
          },
          {
            "duration": 0.5040320312500057,
            "durationTicks": 75,
            "midi": 69,
            "name": "A4",
            "ticks": 5544,
            "time": 37.258047749999996,
            "velocity": 0.6062992125984252
          },
          {
            "duration": 0.329300927083338,
            "durationTicks": 49,
            "midi": 45,
            "name": "A2",
            "ticks": 5568,
            "time": 37.419337999999996,
            "velocity": 0.6062992125984252
          },
          {
            "duration": 0.3629030625000027,
            "durationTicks": 54,
            "midi": 52,
            "name": "E3",
            "ticks": 5616,
            "time": 37.7419185,
            "velocity": 0.6456692913385826
          },
          {
            "duration": 0.28225793749999895,
            "durationTicks": 42,
            "midi": 64,
            "name": "E4",
            "ticks": 5616,
            "time": 37.7419185,
            "velocity": 0.5905511811023622
          },
          {
            "duration": 0.47715032291667114,
            "durationTicks": 71,
            "midi": 69,
            "name": "A4",
            "ticks": 5640,
            "time": 37.90320875,
            "velocity": 0.6535433070866141
          },
          {
            "duration": 0.3629030625000027,
            "durationTicks": 54,
            "midi": 45,
            "name": "A2",
            "ticks": 5664,
            "time": 38.064499,
            "velocity": 0.5826771653543307
          },
          {
            "duration": 0.29569879166666624,
            "durationTicks": 44,
            "midi": 64,
            "name": "E4",
            "ticks": 5712,
            "time": 38.3870795,
            "velocity": 0.6062992125984252
          },
          {
            "duration": 0.3629030625000027,
            "durationTicks": 54,
            "midi": 57,
            "name": "A3",
            "ticks": 5712,
            "time": 38.3870795,
            "velocity": 0.6141732283464567
          },
          {
            "duration": 0.28897836458332904,
            "durationTicks": 43,
            "midi": 69,
            "name": "A4",
            "ticks": 5736,
            "time": 38.54836975,
            "velocity": 0.6299212598425197
          },
          {
            "duration": 0.3629030625000027,
            "durationTicks": 54,
            "midi": 43,
            "name": "G2",
            "ticks": 5760,
            "time": 38.70966,
            "velocity": 0.5984251968503937
          },
          {
            "duration": 0.3561826354166655,
            "durationTicks": 53,
            "midi": 50,
            "name": "D3",
            "ticks": 5808,
            "time": 39.0322405,
            "velocity": 0.5984251968503937
          },
          {
            "duration": 0.29569879166666624,
            "durationTicks": 44,
            "midi": 62,
            "name": "D4",
            "ticks": 5808,
            "time": 39.0322405,
            "velocity": 0.5669291338582677
          },
          {
            "duration": 0.48387075000000124,
            "durationTicks": 72,
            "midi": 67,
            "name": "G4",
            "ticks": 5832,
            "time": 39.19353075,
            "velocity": 0.6377952755905512
          },
          {
            "duration": 0.48387075000000124,
            "durationTicks": 72,
            "midi": 43,
            "name": "G2",
            "ticks": 5856,
            "time": 39.354821,
            "velocity": 0.6141732283464567
          },
          {
            "duration": 0.29569879166666624,
            "durationTicks": 44,
            "midi": 62,
            "name": "D4",
            "ticks": 5904,
            "time": 39.6774015,
            "velocity": 0.5669291338582677
          },
          {
            "duration": 0.3091396458333264,
            "durationTicks": 46,
            "midi": 55,
            "name": "G3",
            "ticks": 5904,
            "time": 39.6774015,
            "velocity": 0.6062992125984252
          },
          {
            "duration": 0.1545698229166632,
            "durationTicks": 23,
            "midi": 67,
            "name": "G4",
            "ticks": 5928,
            "time": 39.83869175,
            "velocity": 0.6692913385826772
          },
          {
            "duration": 0.3696234895833328,
            "durationTicks": 55,
            "midi": 50,
            "name": "D3",
            "ticks": 5952,
            "time": 39.999981999999996,
            "velocity": 0.6141732283464567
          },
          {
            "duration": 0.6586018541666689,
            "durationTicks": 98,
            "midi": 65,
            "name": "F4",
            "ticks": 5952,
            "time": 39.999981999999996,
            "velocity": 0.6299212598425197
          },
          {
            "duration": 0.4032256250000046,
            "durationTicks": 60,
            "midi": 57,
            "name": "A3",
            "ticks": 6000,
            "time": 40.3225625,
            "velocity": 0.6062992125984252
          },
          {
            "duration": 0.3494622083333354,
            "durationTicks": 52,
            "midi": 64,
            "name": "E4",
            "ticks": 6048,
            "time": 40.645143,
            "velocity": 0.5905511811023622
          },
          {
            "duration": 0.3629030625000027,
            "durationTicks": 54,
            "midi": 50,
            "name": "D3",
            "ticks": 6048,
            "time": 40.645143,
            "velocity": 0.6220472440944882
          },
          {
            "duration": 0.3561826354166655,
            "durationTicks": 53,
            "midi": 62,
            "name": "D4",
            "ticks": 6096,
            "time": 40.9677235,
            "velocity": 0.5748031496062992
          },
          {
            "duration": 0.3763439166666629,
            "durationTicks": 56,
            "midi": 57,
            "name": "A3",
            "ticks": 6096,
            "time": 40.9677235,
            "velocity": 0.6299212598425197
          },
          {
            "duration": 0.3561826354166655,
            "durationTicks": 53,
            "midi": 45,
            "name": "A2",
            "ticks": 6144,
            "time": 41.290304,
            "velocity": 0.5984251968503937
          },
          {
            "duration": 0.29569879166666624,
            "durationTicks": 44,
            "midi": 64,
            "name": "E4",
            "ticks": 6192,
            "time": 41.6128845,
            "velocity": 0.4881889763779528
          },
          {
            "duration": 0.30913964583333353,
            "durationTicks": 46,
            "midi": 52,
            "name": "E3",
            "ticks": 6192,
            "time": 41.6128845,
            "velocity": 0.6299212598425197
          },
          {
            "duration": 0.42338690625000197,
            "durationTicks": 63,
            "midi": 69,
            "name": "A4",
            "ticks": 6216,
            "time": 41.77417475,
            "velocity": 0.6535433070866141
          },
          {
            "duration": 0.37634391666667,
            "durationTicks": 56,
            "midi": 45,
            "name": "A2",
            "ticks": 6239,
            "time": 41.92874457291666,
            "velocity": 0.6299212598425197
          },
          {
            "duration": 0.4166664791666719,
            "durationTicks": 62,
            "midi": 57,
            "name": "A3",
            "ticks": 6287,
            "time": 42.251325072916664,
            "velocity": 0.5984251968503937
          },
          {
            "duration": 0.22177409374999968,
            "durationTicks": 33,
            "midi": 64,
            "name": "E4",
            "ticks": 6288,
            "time": 42.2580455,
            "velocity": 0.5748031496062992
          },
          {
            "duration": 0.4973116041666614,
            "durationTicks": 74,
            "midi": 69,
            "name": "A4",
            "ticks": 6312,
            "time": 42.41933575,
            "velocity": 0.6377952755905512
          },
          {
            "duration": 0.37634391666667,
            "durationTicks": 56,
            "midi": 45,
            "name": "A2",
            "ticks": 6335,
            "time": 42.573905572916665,
            "velocity": 0.5748031496062992
          },
          {
            "duration": 0.3427417812500053,
            "durationTicks": 51,
            "midi": 52,
            "name": "E3",
            "ticks": 6384,
            "time": 42.903206499999996,
            "velocity": 0.6220472440944882
          },
          {
            "duration": 0.3629030625000027,
            "durationTicks": 54,
            "midi": 64,
            "name": "E4",
            "ticks": 6384,
            "time": 42.903206499999996,
            "velocity": 0.5669291338582677
          },
          {
            "duration": 0.45026861458333656,
            "durationTicks": 67,
            "midi": 69,
            "name": "A4",
            "ticks": 6408,
            "time": 43.064496749999996,
            "velocity": 0.5905511811023622
          },
          {
            "duration": 0.43682776041667637,
            "durationTicks": 65,
            "midi": 45,
            "name": "A2",
            "ticks": 6431,
            "time": 43.21906657291666,
            "velocity": 0.5984251968503937
          },
          {
            "duration": 0.21505366666666248,
            "durationTicks": 32,
            "midi": 64,
            "name": "E4",
            "ticks": 6480,
            "time": 43.5483675,
            "velocity": 0.5905511811023622
          },
          {
            "duration": 0.28225793749999895,
            "durationTicks": 42,
            "midi": 57,
            "name": "A3",
            "ticks": 6480,
            "time": 43.5483675,
            "velocity": 0.6299212598425197
          },
          {
            "duration": 0.3561826354166655,
            "durationTicks": 53,
            "midi": 42,
            "name": "F#2",
            "ticks": 6528,
            "time": 43.870948,
            "velocity": 0.5984251968503937
          },
          {
            "duration": 0.28225793749999895,
            "durationTicks": 42,
            "midi": 62,
            "name": "D4",
            "ticks": 6576,
            "time": 44.1935285,
            "velocity": 0.6220472440944882
          },
          {
            "duration": 0.3561826354166655,
            "durationTicks": 53,
            "midi": 50,
            "name": "D3",
            "ticks": 6576,
            "time": 44.1935285,
            "velocity": 0.6062992125984252
          },
          {
            "duration": 0.47042989583333394,
            "durationTicks": 70,
            "midi": 69,
            "name": "A4",
            "ticks": 6600,
            "time": 44.35481875,
            "velocity": 0.5826771653543307
          },
          {
            "duration": 0.5174728854166659,
            "durationTicks": 77,
            "midi": 42,
            "name": "F#2",
            "ticks": 6624,
            "time": 44.516109,
            "velocity": 0.5748031496062992
          },
          {
            "duration": 0.23521494791665987,
            "durationTicks": 35,
            "midi": 62,
            "name": "D4",
            "ticks": 6672,
            "time": 44.8386895,
            "velocity": 0.6220472440944882
          },
          {
            "duration": 0.29569879166665913,
            "durationTicks": 44,
            "midi": 54,
            "name": "F#3",
            "ticks": 6672,
            "time": 44.8386895,
            "velocity": 0.5984251968503937
          },
          {
            "duration": 0.1612902500000004,
            "durationTicks": 24,
            "midi": 69,
            "name": "A4",
            "ticks": 6696,
            "time": 44.99997975,
            "velocity": 0.6220472440944882
          },
          {
            "duration": 0.3897847708333302,
            "durationTicks": 58,
            "midi": 43,
            "name": "G2",
            "ticks": 6720,
            "time": 45.16127,
            "velocity": 0.6062992125984252
          },
          {
            "duration": 0.27553751041666885,
            "durationTicks": 41,
            "midi": 59,
            "name": "B3",
            "ticks": 6768,
            "time": 45.483850499999996,
            "velocity": 0.6062992125984252
          },
          {
            "duration": 0.3561826354166655,
            "durationTicks": 53,
            "midi": 50,
            "name": "D3",
            "ticks": 6768,
            "time": 45.483850499999996,
            "velocity": 0.5511811023622047
          },
          {
            "duration": 0.47042989583334105,
            "durationTicks": 70,
            "midi": 67,
            "name": "G4",
            "ticks": 6792,
            "time": 45.645140749999996,
            "velocity": 0.6692913385826772
          },
          {
            "duration": 0.3897847708333373,
            "durationTicks": 58,
            "midi": 43,
            "name": "G2",
            "ticks": 6816,
            "time": 45.806430999999996,
            "velocity": 0.5984251968503937
          },
          {
            "duration": 0.26881708333333876,
            "durationTicks": 40,
            "midi": 59,
            "name": "B3",
            "ticks": 6864,
            "time": 46.1290115,
            "velocity": 0.6062992125984252
          },
          {
            "duration": 0.3158600729166636,
            "durationTicks": 47,
            "midi": 55,
            "name": "G3",
            "ticks": 6864,
            "time": 46.1290115,
            "velocity": 0.6062992125984252
          },
          {
            "duration": 0.48387075000000124,
            "durationTicks": 72,
            "midi": 67,
            "name": "G4",
            "ticks": 6888,
            "time": 46.29030175,
            "velocity": 0.6220472440944882
          },
          {
            "duration": 0.336021354166661,
            "durationTicks": 50,
            "midi": 45,
            "name": "A2",
            "ticks": 6912,
            "time": 46.451592,
            "velocity": 0.6062992125984252
          },
          {
            "duration": 0.26881708333333876,
            "durationTicks": 40,
            "midi": 64,
            "name": "E4",
            "ticks": 6960,
            "time": 46.7741725,
            "velocity": 0.6141732283464567
          },
          {
            "duration": 0.44354818749999936,
            "durationTicks": 66,
            "midi": 52,
            "name": "E3",
            "ticks": 6960,
            "time": 46.7741725,
            "velocity": 0.5905511811023622
          },
          {
            "duration": 0.47042989583333394,
            "durationTicks": 70,
            "midi": 69,
            "name": "A4",
            "ticks": 6984,
            "time": 46.93546275,
            "velocity": 0.5984251968503937
          },
          {
            "duration": 0.3494622083333354,
            "durationTicks": 52,
            "midi": 45,
            "name": "A2",
            "ticks": 7008,
            "time": 47.096753,
            "velocity": 0.6141732283464567
          },
          {
            "duration": 0.25537622916666436,
            "durationTicks": 38,
            "midi": 64,
            "name": "E4",
            "ticks": 7056,
            "time": 47.4193335,
            "velocity": 0.5433070866141733
          },
          {
            "duration": 0.3225805000000008,
            "durationTicks": 48,
            "midi": 57,
            "name": "A3",
            "ticks": 7056,
            "time": 47.4193335,
            "velocity": 0.5984251968503937
          },
          {
            "duration": 0.47715032291666404,
            "durationTicks": 71,
            "midi": 69,
            "name": "A4",
            "ticks": 7080,
            "time": 47.58062375,
            "velocity": 0.6062992125984252
          },
          {
            "duration": 0.3629030624999956,
            "durationTicks": 54,
            "midi": 43,
            "name": "G2",
            "ticks": 7104,
            "time": 47.741914,
            "velocity": 0.5669291338582677
          },
          {
            "duration": 0.26209665624999445,
            "durationTicks": 39,
            "midi": 64,
            "name": "E4",
            "ticks": 7152,
            "time": 48.0644945,
            "velocity": 0.5511811023622047
          },
          {
            "duration": 0.4099460520833347,
            "durationTicks": 61,
            "midi": 52,
            "name": "E3",
            "ticks": 7152,
            "time": 48.0644945,
            "velocity": 0.5433070866141733
          },
          {
            "duration": 0.45698904166666665,
            "durationTicks": 68,
            "midi": 69,
            "name": "A4",
            "ticks": 7176,
            "time": 48.225784749999995,
            "velocity": 0.6062992125984252
          },
          {
            "duration": 0.3427417812500053,
            "durationTicks": 51,
            "midi": 43,
            "name": "G2",
            "ticks": 7200,
            "time": 48.387074999999996,
            "velocity": 0.5669291338582677
          },
          {
            "duration": 0.3158600729166636,
            "durationTicks": 47,
            "midi": 64,
            "name": "E4",
            "ticks": 7248,
            "time": 48.7096555,
            "velocity": 0.5984251968503937
          },
          {
            "duration": 0.3225805000000008,
            "durationTicks": 48,
            "midi": 55,
            "name": "G3",
            "ticks": 7248,
            "time": 48.7096555,
            "velocity": 0.5590551181102362
          },
          {
            "duration": 0.4099460520833347,
            "durationTicks": 61,
            "midi": 69,
            "name": "A4",
            "ticks": 7272,
            "time": 48.87094575,
            "velocity": 0.6299212598425197
          },
          {
            "duration": 0.3561826354166655,
            "durationTicks": 53,
            "midi": 42,
            "name": "F#2",
            "ticks": 7296,
            "time": 49.032236,
            "velocity": 0.5826771653543307
          },
          {
            "duration": 0.29569879166666624,
            "durationTicks": 44,
            "midi": 62,
            "name": "D4",
            "ticks": 7344,
            "time": 49.3548165,
            "velocity": 0.5590551181102362
          },
          {
            "duration": 0.3427417812499982,
            "durationTicks": 51,
            "midi": 50,
            "name": "D3",
            "ticks": 7344,
            "time": 49.3548165,
            "velocity": 0.5590551181102362
          },
          {
            "duration": 0.4973116041666614,
            "durationTicks": 74,
            "midi": 69,
            "name": "A4",
            "ticks": 7368,
            "time": 49.51610675,
            "velocity": 0.5905511811023622
          },
          {
            "duration": 0.47042989583333394,
            "durationTicks": 70,
            "midi": 42,
            "name": "F#2",
            "ticks": 7391,
            "time": 49.67067657291666,
            "velocity": 0.5984251968503937
          },
          {
            "duration": 0.24865580208333427,
            "durationTicks": 37,
            "midi": 62,
            "name": "D4",
            "ticks": 7440,
            "time": 49.9999775,
            "velocity": 0.6062992125984252
          },
          {
            "duration": 0.26209665625000156,
            "durationTicks": 39,
            "midi": 54,
            "name": "F#3",
            "ticks": 7440,
            "time": 49.9999775,
            "velocity": 0.5984251968503937
          },
          {
            "duration": 0.13440854166665872,
            "durationTicks": 20,
            "midi": 69,
            "name": "A4",
            "ticks": 7464,
            "time": 50.16126775,
            "velocity": 0.6299212598425197
          },
          {
            "duration": 0.44354818749999936,
            "durationTicks": 66,
            "midi": 43,
            "name": "G2",
            "ticks": 7487,
            "time": 50.315837572916664,
            "velocity": 0.5826771653543307
          },
          {
            "duration": 0.24865580208333427,
            "durationTicks": 37,
            "midi": 59,
            "name": "B3",
            "ticks": 7536,
            "time": 50.6451385,
            "velocity": 0.5748031496062992
          },
          {
            "duration": 0.3763439166666629,
            "durationTicks": 56,
            "midi": 50,
            "name": "D3",
            "ticks": 7536,
            "time": 50.6451385,
            "velocity": 0.5984251968503937
          },
          {
            "duration": 0.45026861458333656,
            "durationTicks": 67,
            "midi": 67,
            "name": "G4",
            "ticks": 7560,
            "time": 50.80642875,
            "velocity": 0.5984251968503937
          },
          {
            "duration": 0.3830643437500001,
            "durationTicks": 57,
            "midi": 43,
            "name": "G2",
            "ticks": 7584,
            "time": 50.967718999999995,
            "velocity": 0.5511811023622047
          },
          {
            "duration": 0.23521494791666697,
            "durationTicks": 35,
            "midi": 59,
            "name": "B3",
            "ticks": 7632,
            "time": 51.290299499999996,
            "velocity": 0.5511811023622047
          },
          {
            "duration": 0.30241921875000344,
            "durationTicks": 45,
            "midi": 55,
            "name": "G3",
            "ticks": 7632,
            "time": 51.290299499999996,
            "velocity": 0.5748031496062992
          },
          {
            "duration": 0.24865580208334137,
            "durationTicks": 37,
            "midi": 67,
            "name": "G4",
            "ticks": 7656,
            "time": 51.45158975,
            "velocity": 0.6299212598425197
          },
          {
            "duration": 0.3830643437500001,
            "durationTicks": 57,
            "midi": 45,
            "name": "A2",
            "ticks": 7680,
            "time": 51.61288,
            "velocity": 0.5984251968503937
          },
          {
            "duration": 0.28225793749999895,
            "durationTicks": 42,
            "midi": 64,
            "name": "E4",
            "ticks": 7728,
            "time": 51.9354605,
            "velocity": 0.6220472440944882
          },
          {
            "duration": 0.3763439166666629,
            "durationTicks": 56,
            "midi": 52,
            "name": "E3",
            "ticks": 7728,
            "time": 51.9354605,
            "velocity": 0.5433070866141733
          },
          {
            "duration": 0.47715032291666404,
            "durationTicks": 71,
            "midi": 69,
            "name": "A4",
            "ticks": 7752,
            "time": 52.09675075,
            "velocity": 0.5511811023622047
          },
          {
            "duration": 0.3830643437500001,
            "durationTicks": 57,
            "midi": 45,
            "name": "A2",
            "ticks": 7776,
            "time": 52.258041,
            "velocity": 0.5669291338582677
          },
          {
            "duration": 0.24193537499999707,
            "durationTicks": 36,
            "midi": 64,
            "name": "E4",
            "ticks": 7824,
            "time": 52.5806215,
            "velocity": 0.5275590551181102
          },
          {
            "duration": 0.4032256249999975,
            "durationTicks": 60,
            "midi": 57,
            "name": "A3",
            "ticks": 7824,
            "time": 52.5806215,
            "velocity": 0.5905511811023622
          },
          {
            "duration": 0.5376341666666633,
            "durationTicks": 80,
            "midi": 69,
            "name": "A4",
            "ticks": 7848,
            "time": 52.74191175,
            "velocity": 0.6220472440944882
          },
          {
            "duration": 0.3494622083333354,
            "durationTicks": 52,
            "midi": 45,
            "name": "A2",
            "ticks": 7871,
            "time": 52.89648157291666,
            "velocity": 0.6141732283464567
          },
          {
            "duration": 0.5645158749999979,
            "durationTicks": 84,
            "midi": 55,
            "name": "G3",
            "ticks": 7963,
            "time": 53.51476086458334,
            "velocity": 0.6062992125984252
          },
          {
            "duration": 0.571236302083328,
            "durationTicks": 85,
            "midi": 59,
            "name": "B3",
            "ticks": 7963,
            "time": 53.51476086458334,
            "velocity": 0.6692913385826772
          },
          {
            "duration": 0.5846771562499953,
            "durationTicks": 87,
            "midi": 62,
            "name": "D4",
            "ticks": 7963,
            "time": 53.51476086458334,
            "velocity": 0.6141732283464567
          },
          {
            "duration": 0.47715032291665693,
            "durationTicks": 71,
            "midi": 47,
            "name": "B2",
            "ticks": 7968,
            "time": 53.548363,
            "velocity": 0.6141732283464567
          },
          {
            "duration": 0.3561826354166655,
            "durationTicks": 53,
            "midi": 48,
            "name": "C3",
            "ticks": 8064,
            "time": 54.193524,
            "velocity": 0.5984251968503937
          },
          {
            "duration": 0.30241921874999633,
            "durationTicks": 45,
            "midi": 55,
            "name": "G3",
            "ticks": 8066,
            "time": 54.206964854166664,
            "velocity": 0.5826771653543307
          },
          {
            "duration": 0.28225793749999895,
            "durationTicks": 42,
            "midi": 64,
            "name": "E4",
            "ticks": 8112,
            "time": 54.5161045,
            "velocity": 0.6062992125984252
          },
          {
            "duration": 0.3561826354166655,
            "durationTicks": 53,
            "midi": 67,
            "name": "G4",
            "ticks": 8136,
            "time": 54.67739475,
            "velocity": 0.6456692913385826
          },
          {
            "duration": 0.3494622083333354,
            "durationTicks": 52,
            "midi": 48,
            "name": "C3",
            "ticks": 8160,
            "time": 54.838685,
            "velocity": 0.6377952755905512
          },
          {
            "duration": 0.329300927083338,
            "durationTicks": 49,
            "midi": 64,
            "name": "E4",
            "ticks": 8208,
            "time": 55.1612655,
            "velocity": 0.5590551181102362
          },
          {
            "duration": 0.3225805000000008,
            "durationTicks": 48,
            "midi": 60,
            "name": "C4",
            "ticks": 8208,
            "time": 55.1612655,
            "velocity": 0.5984251968503937
          },
          {
            "duration": 0.47715032291666404,
            "durationTicks": 71,
            "midi": 67,
            "name": "G4",
            "ticks": 8232,
            "time": 55.32255575,
            "velocity": 0.6535433070866141
          },
          {
            "duration": 0.3561826354166655,
            "durationTicks": 53,
            "midi": 47,
            "name": "B2",
            "ticks": 8256,
            "time": 55.483846,
            "velocity": 0.6141732283464567
          },
          {
            "duration": 0.3225805000000008,
            "durationTicks": 48,
            "midi": 62,
            "name": "D4",
            "ticks": 8304,
            "time": 55.8064265,
            "velocity": 0.5826771653543307
          },
          {
            "duration": 0.3965051979166603,
            "durationTicks": 59,
            "midi": 55,
            "name": "G3",
            "ticks": 8304,
            "time": 55.8064265,
            "velocity": 0.5984251968503937
          },
          {
            "duration": 0.41666647916666477,
            "durationTicks": 62,
            "midi": 67,
            "name": "G4",
            "ticks": 8328,
            "time": 55.96771675,
            "velocity": 0.6692913385826772
          },
          {
            "duration": 0.3427417812499982,
            "durationTicks": 51,
            "midi": 47,
            "name": "B2",
            "ticks": 8352,
            "time": 56.129007,
            "velocity": 0.5590551181102362
          },
          {
            "duration": 0.3427417812499982,
            "durationTicks": 51,
            "midi": 59,
            "name": "B3",
            "ticks": 8399,
            "time": 56.444867072916665,
            "velocity": 0.5984251968503937
          },
          {
            "duration": 0.30913964583334064,
            "durationTicks": 46,
            "midi": 62,
            "name": "D4",
            "ticks": 8400,
            "time": 56.451587499999995,
            "velocity": 0.5433070866141733
          },
          {
            "duration": 0.44354818750000646,
            "durationTicks": 66,
            "midi": 67,
            "name": "G4",
            "ticks": 8424,
            "time": 56.612877749999996,
            "velocity": 0.6456692913385826
          },
          {
            "duration": 0.3494622083333425,
            "durationTicks": 52,
            "midi": 45,
            "name": "A2",
            "ticks": 8448,
            "time": 56.774167999999996,
            "velocity": 0.6456692913385826
          },
          {
            "duration": 0.23521494791666697,
            "durationTicks": 35,
            "midi": 64,
            "name": "E4",
            "ticks": 8496,
            "time": 57.0967485,
            "velocity": 0.5905511811023622
          },
          {
            "duration": 0.3830643437500001,
            "durationTicks": 57,
            "midi": 52,
            "name": "E3",
            "ticks": 8496,
            "time": 57.0967485,
            "velocity": 0.6456692913385826
          },
          {
            "duration": 0.46370946875000385,
            "durationTicks": 69,
            "midi": 69,
            "name": "A4",
            "ticks": 8520,
            "time": 57.25803875,
            "velocity": 0.5748031496062992
          },
          {
            "duration": 0.3763439166666629,
            "durationTicks": 56,
            "midi": 45,
            "name": "A2",
            "ticks": 8544,
            "time": 57.419329,
            "velocity": 0.5984251968503937
          },
          {
            "duration": 0.25537622916666436,
            "durationTicks": 38,
            "midi": 64,
            "name": "E4",
            "ticks": 8592,
            "time": 57.7419095,
            "velocity": 0.5118110236220472
          },
          {
            "duration": 0.43010733333333917,
            "durationTicks": 64,
            "midi": 57,
            "name": "A3",
            "ticks": 8592,
            "time": 57.7419095,
            "velocity": 0.5748031496062992
          },
          {
            "duration": 0.4973116041666614,
            "durationTicks": 74,
            "midi": 69,
            "name": "A4",
            "ticks": 8616,
            "time": 57.90319975,
            "velocity": 0.6456692913385826
          },
          {
            "duration": 0.3494622083333354,
            "durationTicks": 52,
            "midi": 45,
            "name": "A2",
            "ticks": 8640,
            "time": 58.06449,
            "velocity": 0.5984251968503937
          },
          {
            "duration": 0.26209665625000156,
            "durationTicks": 39,
            "midi": 64,
            "name": "E4",
            "ticks": 8688,
            "time": 58.3870705,
            "velocity": 0.5669291338582677
          },
          {
            "duration": 0.3696234895833328,
            "durationTicks": 55,
            "midi": 52,
            "name": "E3",
            "ticks": 8688,
            "time": 58.3870705,
            "velocity": 0.6456692913385826
          },
          {
            "duration": 0.43682776041666216,
            "durationTicks": 65,
            "midi": 69,
            "name": "A4",
            "ticks": 8712,
            "time": 58.54836075,
            "velocity": 0.6614173228346457
          },
          {
            "duration": 0.3561826354166584,
            "durationTicks": 53,
            "midi": 45,
            "name": "A2",
            "ticks": 8736,
            "time": 58.709651,
            "velocity": 0.5826771653543307
          },
          {
            "duration": 0.3965051979166603,
            "durationTicks": 59,
            "midi": 64,
            "name": "E4",
            "ticks": 8784,
            "time": 59.0322315,
            "velocity": 0.5590551181102362
          },
          {
            "duration": 0.28897836458333614,
            "durationTicks": 43,
            "midi": 57,
            "name": "A3",
            "ticks": 8784,
            "time": 59.0322315,
            "velocity": 0.6220472440944882
          },
          {
            "duration": 0.30913964583334064,
            "durationTicks": 46,
            "midi": 69,
            "name": "A4",
            "ticks": 8808,
            "time": 59.193521749999995,
            "velocity": 0.6220472440944882
          },
          {
            "duration": 0.3158600729166636,
            "durationTicks": 47,
            "midi": 43,
            "name": "G2",
            "ticks": 8832,
            "time": 59.354811999999995,
            "velocity": 0.5984251968503937
          },
          {
            "duration": 0.3561826354166655,
            "durationTicks": 53,
            "midi": 62,
            "name": "D4",
            "ticks": 8880,
            "time": 59.677392499999996,
            "velocity": 0.5433070866141733
          },
          {
            "duration": 0.3494622083333354,
            "durationTicks": 52,
            "midi": 50,
            "name": "D3",
            "ticks": 8880,
            "time": 59.677392499999996,
            "velocity": 0.6141732283464567
          },
          {
            "duration": 0.5040320312499986,
            "durationTicks": 75,
            "midi": 67,
            "name": "G4",
            "ticks": 8904,
            "time": 59.83868275,
            "velocity": 0.6062992125984252
          },
          {
            "duration": 0.3629030625000027,
            "durationTicks": 54,
            "midi": 43,
            "name": "G2",
            "ticks": 8928,
            "time": 59.999973,
            "velocity": 0.5433070866141733
          },
          {
            "duration": 0.30241921875000344,
            "durationTicks": 45,
            "midi": 62,
            "name": "D4",
            "ticks": 8976,
            "time": 60.3225535,
            "velocity": 0.5748031496062992
          },
          {
            "duration": 0.30241921875000344,
            "durationTicks": 45,
            "midi": 57,
            "name": "A3",
            "ticks": 8976,
            "time": 60.3225535,
            "velocity": 0.6141732283464567
          },
          {
            "duration": 0.45026861458333656,
            "durationTicks": 67,
            "midi": 67,
            "name": "G4",
            "ticks": 9000,
            "time": 60.48384375,
            "velocity": 0.6850393700787402
          },
          {
            "duration": 0.3830643437500001,
            "durationTicks": 57,
            "midi": 50,
            "name": "D3",
            "ticks": 9023,
            "time": 60.63841357291666,
            "velocity": 0.6141732283464567
          },
          {
            "duration": 0.5510750208333377,
            "durationTicks": 82,
            "midi": 65,
            "name": "F4",
            "ticks": 9072,
            "time": 60.9677145,
            "velocity": 0.6220472440944882
          },
          {
            "duration": 0.3696234895833328,
            "durationTicks": 55,
            "midi": 57,
            "name": "A3",
            "ticks": 9072,
            "time": 60.9677145,
            "velocity": 0.6220472440944882
          },
          {
            "duration": 0.3897847708333373,
            "durationTicks": 58,
            "midi": 50,
            "name": "D3",
            "ticks": 9120,
            "time": 61.290295,
            "velocity": 0.5433070866141733
          },
          {
            "duration": 0.24865580208333427,
            "durationTicks": 37,
            "midi": 64,
            "name": "E4",
            "ticks": 9144,
            "time": 61.45158525,
            "velocity": 0.5905511811023622
          },
          {
            "duration": 0.30241921874999633,
            "durationTicks": 45,
            "midi": 62,
            "name": "D4",
            "ticks": 9168,
            "time": 61.6128755,
            "velocity": 0.5433070866141733
          },
          {
            "duration": 0.23521494791665987,
            "durationTicks": 35,
            "midi": 57,
            "name": "A3",
            "ticks": 9168,
            "time": 61.6128755,
            "velocity": 0.6141732283464567
          },
          {
            "duration": 0.3427417812499982,
            "durationTicks": 51,
            "midi": 45,
            "name": "A2",
            "ticks": 9216,
            "time": 61.935456,
            "velocity": 0.6692913385826772
          },
          {
            "duration": 0.3158600729166636,
            "durationTicks": 47,
            "midi": 64,
            "name": "E4",
            "ticks": 9264,
            "time": 62.258036499999996,
            "velocity": 0.5118110236220472
          },
          {
            "duration": 0.3225805000000008,
            "durationTicks": 48,
            "midi": 52,
            "name": "E3",
            "ticks": 9264,
            "time": 62.258036499999996,
            "velocity": 0.5984251968503937
          },
          {
            "duration": 0.45698904166666665,
            "durationTicks": 68,
            "midi": 69,
            "name": "A4",
            "ticks": 9288,
            "time": 62.419326749999996,
            "velocity": 0.5511811023622047
          },
          {
            "duration": 0.3494622083333354,
            "durationTicks": 52,
            "midi": 45,
            "name": "A2",
            "ticks": 9312,
            "time": 62.580617,
            "velocity": 0.5826771653543307
          },
          {
            "duration": 0.30913964583334064,
            "durationTicks": 46,
            "midi": 57,
            "name": "A3",
            "ticks": 9360,
            "time": 62.9031975,
            "velocity": 0.5433070866141733
          },
          {
            "duration": 0.49059117708333844,
            "durationTicks": 73,
            "midi": 69,
            "name": "A4",
            "ticks": 9384,
            "time": 63.06448775,
            "velocity": 0.6850393700787402
          },
          {
            "duration": 0.3561826354166655,
            "durationTicks": 53,
            "midi": 45,
            "name": "A2",
            "ticks": 9408,
            "time": 63.225778,
            "velocity": 0.6456692913385826
          },
          {
            "duration": 0.22849452083333688,
            "durationTicks": 34,
            "midi": 52,
            "name": "E3",
            "ticks": 9456,
            "time": 63.5483585,
            "velocity": 0.5826771653543307
          },
          {
            "duration": 0.3897847708333373,
            "durationTicks": 58,
            "midi": 60,
            "name": "C4",
            "ticks": 9504,
            "time": 63.870939,
            "velocity": 0.6456692913385826
          },
          {
            "duration": 0.3427417812500053,
            "durationTicks": 51,
            "midi": 45,
            "name": "A2",
            "ticks": 9504,
            "time": 63.870939,
            "velocity": 0.6692913385826772
          },
          {
            "duration": 0.3225805000000008,
            "durationTicks": 48,
            "midi": 62,
            "name": "D4",
            "ticks": 9552,
            "time": 64.1935195,
            "velocity": 0.5748031496062992
          },
          {
            "duration": 0.3427417812499982,
            "durationTicks": 51,
            "midi": 47,
            "name": "B2",
            "ticks": 9552,
            "time": 64.1935195,
            "velocity": 0.6535433070866141
          },
          {
            "duration": 0.336021354166661,
            "durationTicks": 50,
            "midi": 48,
            "name": "C3",
            "ticks": 9600,
            "time": 64.5161,
            "velocity": 0.6535433070866141
          },
          {
            "duration": 0.26209665625000866,
            "durationTicks": 39,
            "midi": 64,
            "name": "E4",
            "ticks": 9648,
            "time": 64.8386805,
            "velocity": 0.6456692913385826
          },
          {
            "duration": 0.3830643437500072,
            "durationTicks": 57,
            "midi": 55,
            "name": "G3",
            "ticks": 9648,
            "time": 64.8386805,
            "velocity": 0.6299212598425197
          },
          {
            "duration": 0.46370946874999674,
            "durationTicks": 69,
            "midi": 67,
            "name": "G4",
            "ticks": 9672,
            "time": 64.99997075,
            "velocity": 0.5511811023622047
          },
          {
            "duration": 0.37634391666667,
            "durationTicks": 56,
            "midi": 48,
            "name": "C3",
            "ticks": 9695,
            "time": 65.15454057291666,
            "velocity": 0.6062992125984252
          },
          {
            "duration": 0.3225805000000008,
            "durationTicks": 48,
            "midi": 60,
            "name": "C4",
            "ticks": 9743,
            "time": 65.47712107291666,
            "velocity": 0.5826771653543307
          },
          {
            "duration": 0.29569879166666624,
            "durationTicks": 44,
            "midi": 64,
            "name": "E4",
            "ticks": 9744,
            "time": 65.4838415,
            "velocity": 0.6062992125984252
          },
          {
            "duration": 0.48387074999999413,
            "durationTicks": 72,
            "midi": 67,
            "name": "G4",
            "ticks": 9768,
            "time": 65.64513175,
            "velocity": 0.6535433070866141
          },
          {
            "duration": 0.3494622083333354,
            "durationTicks": 52,
            "midi": 47,
            "name": "B2",
            "ticks": 9792,
            "time": 65.806422,
            "velocity": 0.5984251968503937
          },
          {
            "duration": 0.3158600729166636,
            "durationTicks": 47,
            "midi": 62,
            "name": "D4",
            "ticks": 9840,
            "time": 66.1290025,
            "velocity": 0.5748031496062992
          },
          {
            "duration": 0.3225805000000008,
            "durationTicks": 48,
            "midi": 55,
            "name": "G3",
            "ticks": 9840,
            "time": 66.1290025,
            "velocity": 0.6377952755905512
          },
          {
            "duration": 0.49731160416666853,
            "durationTicks": 74,
            "midi": 67,
            "name": "G4",
            "ticks": 9864,
            "time": 66.29029274999999,
            "velocity": 0.6535433070866141
          },
          {
            "duration": 0.3561826354166584,
            "durationTicks": 53,
            "midi": 47,
            "name": "B2",
            "ticks": 9888,
            "time": 66.451583,
            "velocity": 0.5669291338582677
          },
          {
            "duration": 0.28897836458332904,
            "durationTicks": 43,
            "midi": 59,
            "name": "B3",
            "ticks": 9936,
            "time": 66.7741635,
            "velocity": 0.6220472440944882
          },
          {
            "duration": 0.24193537499999707,
            "durationTicks": 36,
            "midi": 62,
            "name": "D4",
            "ticks": 9936,
            "time": 66.7741635,
            "velocity": 0.5669291338582677
          },
          {
            "duration": 0.42338690625000197,
            "durationTicks": 63,
            "midi": 67,
            "name": "G4",
            "ticks": 9960,
            "time": 66.93545375,
            "velocity": 0.6692913385826772
          },
          {
            "duration": 0.3494622083333354,
            "durationTicks": 52,
            "midi": 45,
            "name": "A2",
            "ticks": 9984,
            "time": 67.096744,
            "velocity": 0.5590551181102362
          },
          {
            "duration": 0.26209665624999445,
            "durationTicks": 39,
            "midi": 64,
            "name": "E4",
            "ticks": 10032,
            "time": 67.4193245,
            "velocity": 0.5905511811023622
          },
          {
            "duration": 0.3561826354166584,
            "durationTicks": 53,
            "midi": 52,
            "name": "E3",
            "ticks": 10032,
            "time": 67.4193245,
            "velocity": 0.6220472440944882
          },
          {
            "duration": 0.45698904166667376,
            "durationTicks": 68,
            "midi": 69,
            "name": "A4",
            "ticks": 10056,
            "time": 67.58061475,
            "velocity": 0.6062992125984252
          },
          {
            "duration": 0.383064343749993,
            "durationTicks": 57,
            "midi": 45,
            "name": "A2",
            "ticks": 10080,
            "time": 67.741905,
            "velocity": 0.6299212598425197
          },
          {
            "duration": 0.295698791666652,
            "durationTicks": 44,
            "midi": 64,
            "name": "E4",
            "ticks": 10128,
            "time": 68.0644855,
            "velocity": 0.5669291338582677
          },
          {
            "duration": 0.6317201458333273,
            "durationTicks": 94,
            "midi": 57,
            "name": "A3",
            "ticks": 10128,
            "time": 68.0644855,
            "velocity": 0.6141732283464567
          },
          {
            "duration": 0.5040320312500057,
            "durationTicks": 75,
            "midi": 69,
            "name": "A4",
            "ticks": 10152,
            "time": 68.22577575,
            "velocity": 0.6062992125984252
          },
          {
            "duration": 0.3293009270833238,
            "durationTicks": 49,
            "midi": 45,
            "name": "A2",
            "ticks": 10176,
            "time": 68.387066,
            "velocity": 0.6062992125984252
          },
          {
            "duration": 0.3629030624999956,
            "durationTicks": 54,
            "midi": 52,
            "name": "E3",
            "ticks": 10224,
            "time": 68.7096465,
            "velocity": 0.6456692913385826
          },
          {
            "duration": 0.28225793749999184,
            "durationTicks": 42,
            "midi": 64,
            "name": "E4",
            "ticks": 10224,
            "time": 68.7096465,
            "velocity": 0.5905511811023622
          },
          {
            "duration": 0.47715032291665693,
            "durationTicks": 71,
            "midi": 69,
            "name": "A4",
            "ticks": 10248,
            "time": 68.87093675,
            "velocity": 0.6535433070866141
          },
          {
            "duration": 0.3629030625000098,
            "durationTicks": 54,
            "midi": 45,
            "name": "A2",
            "ticks": 10272,
            "time": 69.03222699999999,
            "velocity": 0.5826771653543307
          },
          {
            "duration": 0.29569879166666624,
            "durationTicks": 44,
            "midi": 64,
            "name": "E4",
            "ticks": 10320,
            "time": 69.35480749999999,
            "velocity": 0.6062992125984252
          },
          {
            "duration": 0.3629030625000098,
            "durationTicks": 54,
            "midi": 57,
            "name": "A3",
            "ticks": 10320,
            "time": 69.35480749999999,
            "velocity": 0.6141732283464567
          },
          {
            "duration": 0.28897836458332904,
            "durationTicks": 43,
            "midi": 69,
            "name": "A4",
            "ticks": 10344,
            "time": 69.51609775,
            "velocity": 0.6299212598425197
          },
          {
            "duration": 0.3629030625000098,
            "durationTicks": 54,
            "midi": 43,
            "name": "G2",
            "ticks": 10368,
            "time": 69.677388,
            "velocity": 0.5984251968503937
          },
          {
            "duration": 0.3561826354166726,
            "durationTicks": 53,
            "midi": 50,
            "name": "D3",
            "ticks": 10416,
            "time": 69.9999685,
            "velocity": 0.5984251968503937
          },
          {
            "duration": 0.29569879166666624,
            "durationTicks": 44,
            "midi": 62,
            "name": "D4",
            "ticks": 10416,
            "time": 69.9999685,
            "velocity": 0.5669291338582677
          },
          {
            "duration": 0.48387074999999413,
            "durationTicks": 72,
            "midi": 67,
            "name": "G4",
            "ticks": 10440,
            "time": 70.16125875,
            "velocity": 0.6377952755905512
          },
          {
            "duration": 0.48387075000000834,
            "durationTicks": 72,
            "midi": 43,
            "name": "G2",
            "ticks": 10464,
            "time": 70.322549,
            "velocity": 0.6141732283464567
          },
          {
            "duration": 0.29569879166666624,
            "durationTicks": 44,
            "midi": 62,
            "name": "D4",
            "ticks": 10512,
            "time": 70.6451295,
            "velocity": 0.5669291338582677
          },
          {
            "duration": 0.3494622083333354,
            "durationTicks": 52,
            "midi": 55,
            "name": "G3",
            "ticks": 10512,
            "time": 70.6451295,
            "velocity": 0.6062992125984252
          },
          {
            "duration": 0.22177409374999968,
            "durationTicks": 33,
            "midi": 67,
            "name": "G4",
            "ticks": 10536,
            "time": 70.80641975,
            "velocity": 0.6692913385826772
          },
          {
            "duration": 0.3696234895833328,
            "durationTicks": 55,
            "midi": 50,
            "name": "D3",
            "ticks": 10560,
            "time": 70.96771,
            "velocity": 0.6141732283464567
          },
          {
            "duration": 0.6586018541666618,
            "durationTicks": 98,
            "midi": 65,
            "name": "F4",
            "ticks": 10560,
            "time": 70.96771,
            "velocity": 0.6299212598425197
          },
          {
            "duration": 0.4032256250000046,
            "durationTicks": 60,
            "midi": 57,
            "name": "A3",
            "ticks": 10608,
            "time": 71.2902905,
            "velocity": 0.6062992125984252
          },
          {
            "duration": 0.3494622083333354,
            "durationTicks": 52,
            "midi": 64,
            "name": "E4",
            "ticks": 10656,
            "time": 71.612871,
            "velocity": 0.5905511811023622
          },
          {
            "duration": 0.3629030624999956,
            "durationTicks": 54,
            "midi": 50,
            "name": "D3",
            "ticks": 10656,
            "time": 71.612871,
            "velocity": 0.6220472440944882
          },
          {
            "duration": 0.3561826354166584,
            "durationTicks": 53,
            "midi": 62,
            "name": "D4",
            "ticks": 10704,
            "time": 71.9354515,
            "velocity": 0.5748031496062992
          },
          {
            "duration": 0.3763439166666558,
            "durationTicks": 56,
            "midi": 57,
            "name": "A3",
            "ticks": 10704,
            "time": 71.9354515,
            "velocity": 0.6299212598425197
          },
          {
            "duration": 0.3561826354166584,
            "durationTicks": 53,
            "midi": 45,
            "name": "A2",
            "ticks": 10752,
            "time": 72.258032,
            "velocity": 0.5984251968503937
          },
          {
            "duration": 0.29569879166666624,
            "durationTicks": 44,
            "midi": 64,
            "name": "E4",
            "ticks": 10800,
            "time": 72.5806125,
            "velocity": 0.4881889763779528
          },
          {
            "duration": 0.3561826354166584,
            "durationTicks": 53,
            "midi": 52,
            "name": "E3",
            "ticks": 10800,
            "time": 72.5806125,
            "velocity": 0.6299212598425197
          },
          {
            "duration": 0.42338690625000197,
            "durationTicks": 63,
            "midi": 69,
            "name": "A4",
            "ticks": 10824,
            "time": 72.74190275,
            "velocity": 0.6535433070866141
          },
          {
            "duration": 0.37634391666667,
            "durationTicks": 56,
            "midi": 45,
            "name": "A2",
            "ticks": 10847,
            "time": 72.89647257291666,
            "velocity": 0.6299212598425197
          },
          {
            "duration": 0.41666647916666477,
            "durationTicks": 62,
            "midi": 57,
            "name": "A3",
            "ticks": 10895,
            "time": 73.21905307291667,
            "velocity": 0.5984251968503937
          },
          {
            "duration": 0.22177409374999968,
            "durationTicks": 33,
            "midi": 64,
            "name": "E4",
            "ticks": 10896,
            "time": 73.2257735,
            "velocity": 0.5748031496062992
          },
          {
            "duration": 0.49731160416666853,
            "durationTicks": 74,
            "midi": 69,
            "name": "A4",
            "ticks": 10920,
            "time": 73.38706375,
            "velocity": 0.6377952755905512
          },
          {
            "duration": 0.37634391666667,
            "durationTicks": 56,
            "midi": 45,
            "name": "A2",
            "ticks": 10943,
            "time": 73.54163357291667,
            "velocity": 0.5748031496062992
          },
          {
            "duration": 0.3427417812499982,
            "durationTicks": 51,
            "midi": 52,
            "name": "E3",
            "ticks": 10992,
            "time": 73.8709345,
            "velocity": 0.6220472440944882
          },
          {
            "duration": 0.3629030624999956,
            "durationTicks": 54,
            "midi": 64,
            "name": "E4",
            "ticks": 10992,
            "time": 73.8709345,
            "velocity": 0.5669291338582677
          },
          {
            "duration": 0.45026861458333656,
            "durationTicks": 67,
            "midi": 69,
            "name": "A4",
            "ticks": 11016,
            "time": 74.03222475,
            "velocity": 0.5905511811023622
          },
          {
            "duration": 0.43682776041666216,
            "durationTicks": 65,
            "midi": 45,
            "name": "A2",
            "ticks": 11039,
            "time": 74.18679457291667,
            "velocity": 0.5984251968503937
          },
          {
            "duration": 0.2150536666666767,
            "durationTicks": 32,
            "midi": 64,
            "name": "E4",
            "ticks": 11088,
            "time": 74.51609549999999,
            "velocity": 0.5905511811023622
          },
          {
            "duration": 0.28225793750000605,
            "durationTicks": 42,
            "midi": 57,
            "name": "A3",
            "ticks": 11088,
            "time": 74.51609549999999,
            "velocity": 0.6299212598425197
          },
          {
            "duration": 0.3561826354166726,
            "durationTicks": 53,
            "midi": 42,
            "name": "F#2",
            "ticks": 11136,
            "time": 74.83867599999999,
            "velocity": 0.5984251968503937
          },
          {
            "duration": 0.28225793750000605,
            "durationTicks": 42,
            "midi": 62,
            "name": "D4",
            "ticks": 11184,
            "time": 75.1612565,
            "velocity": 0.6220472440944882
          },
          {
            "duration": 0.3561826354166726,
            "durationTicks": 53,
            "midi": 50,
            "name": "D3",
            "ticks": 11184,
            "time": 75.1612565,
            "velocity": 0.6062992125984252
          },
          {
            "duration": 0.42338690625000197,
            "durationTicks": 63,
            "midi": 69,
            "name": "A4",
            "ticks": 11208,
            "time": 75.32254675,
            "velocity": 0.5826771653543307
          },
          {
            "duration": 0.5174728854166659,
            "durationTicks": 77,
            "midi": 42,
            "name": "F#2",
            "ticks": 11232,
            "time": 75.483837,
            "velocity": 0.5748031496062992
          },
          {
            "duration": 0.29569879166666624,
            "durationTicks": 44,
            "midi": 54,
            "name": "F#3",
            "ticks": 11280,
            "time": 75.8064175,
            "velocity": 0.5984251968503937
          },
          {
            "duration": 0.1612902499999933,
            "durationTicks": 24,
            "midi": 69,
            "name": "A4",
            "ticks": 11304,
            "time": 75.96770775,
            "velocity": 0.6220472440944882
          },
          {
            "duration": 0.3897847708333444,
            "durationTicks": 58,
            "midi": 43,
            "name": "G2",
            "ticks": 11328,
            "time": 76.128998,
            "velocity": 0.6062992125984252
          },
          {
            "duration": 0.27553751041666885,
            "durationTicks": 41,
            "midi": 59,
            "name": "B3",
            "ticks": 11376,
            "time": 76.4515785,
            "velocity": 0.6062992125984252
          },
          {
            "duration": 0.3561826354166584,
            "durationTicks": 53,
            "midi": 50,
            "name": "D3",
            "ticks": 11376,
            "time": 76.4515785,
            "velocity": 0.5511811023622047
          },
          {
            "duration": 0.47042989583333394,
            "durationTicks": 70,
            "midi": 67,
            "name": "G4",
            "ticks": 11400,
            "time": 76.61286875,
            "velocity": 0.6692913385826772
          },
          {
            "duration": 0.3897847708333302,
            "durationTicks": 58,
            "midi": 43,
            "name": "G2",
            "ticks": 11424,
            "time": 76.774159,
            "velocity": 0.5984251968503937
          },
          {
            "duration": 0.26881708333333165,
            "durationTicks": 40,
            "midi": 59,
            "name": "B3",
            "ticks": 11472,
            "time": 77.0967395,
            "velocity": 0.6062992125984252
          },
          {
            "duration": 0.3158600729166636,
            "durationTicks": 47,
            "midi": 55,
            "name": "G3",
            "ticks": 11472,
            "time": 77.0967395,
            "velocity": 0.6062992125984252
          },
          {
            "duration": 0.48387075000000834,
            "durationTicks": 72,
            "midi": 67,
            "name": "G4",
            "ticks": 11496,
            "time": 77.25802974999999,
            "velocity": 0.6220472440944882
          },
          {
            "duration": 0.336021354166661,
            "durationTicks": 50,
            "midi": 45,
            "name": "A2",
            "ticks": 11520,
            "time": 77.41932,
            "velocity": 0.6062992125984252
          },
          {
            "duration": 0.26881708333333165,
            "durationTicks": 40,
            "midi": 64,
            "name": "E4",
            "ticks": 11568,
            "time": 77.7419005,
            "velocity": 0.6141732283464567
          },
          {
            "duration": 0.44354818749999936,
            "durationTicks": 66,
            "midi": 52,
            "name": "E3",
            "ticks": 11568,
            "time": 77.7419005,
            "velocity": 0.5905511811023622
          },
          {
            "duration": 0.47042989583334816,
            "durationTicks": 70,
            "midi": 69,
            "name": "A4",
            "ticks": 11592,
            "time": 77.90319075,
            "velocity": 0.5984251968503937
          },
          {
            "duration": 0.3494622083333354,
            "durationTicks": 52,
            "midi": 45,
            "name": "A2",
            "ticks": 11616,
            "time": 78.064481,
            "velocity": 0.6141732283464567
          },
          {
            "duration": 0.25537622916665725,
            "durationTicks": 38,
            "midi": 64,
            "name": "E4",
            "ticks": 11664,
            "time": 78.3870615,
            "velocity": 0.5433070866141733
          },
          {
            "duration": 0.3225805000000008,
            "durationTicks": 48,
            "midi": 57,
            "name": "A3",
            "ticks": 11664,
            "time": 78.3870615,
            "velocity": 0.5984251968503937
          },
          {
            "duration": 0.47715032291667114,
            "durationTicks": 71,
            "midi": 69,
            "name": "A4",
            "ticks": 11688,
            "time": 78.54835175,
            "velocity": 0.6062992125984252
          },
          {
            "duration": 0.3629030624999956,
            "durationTicks": 54,
            "midi": 43,
            "name": "G2",
            "ticks": 11712,
            "time": 78.709642,
            "velocity": 0.5669291338582677
          },
          {
            "duration": 0.26209665624999445,
            "durationTicks": 39,
            "midi": 64,
            "name": "E4",
            "ticks": 11760,
            "time": 79.0322225,
            "velocity": 0.5511811023622047
          },
          {
            "duration": 0.4099460520833276,
            "durationTicks": 61,
            "midi": 52,
            "name": "E3",
            "ticks": 11760,
            "time": 79.0322225,
            "velocity": 0.5433070866141733
          },
          {
            "duration": 0.45698904166665955,
            "durationTicks": 68,
            "midi": 69,
            "name": "A4",
            "ticks": 11784,
            "time": 79.19351275,
            "velocity": 0.6062992125984252
          },
          {
            "duration": 0.3427417812499982,
            "durationTicks": 51,
            "midi": 43,
            "name": "G2",
            "ticks": 11808,
            "time": 79.354803,
            "velocity": 0.5669291338582677
          },
          {
            "duration": 0.3158600729166636,
            "durationTicks": 47,
            "midi": 64,
            "name": "E4",
            "ticks": 11856,
            "time": 79.6773835,
            "velocity": 0.5984251968503937
          },
          {
            "duration": 0.3225804999999866,
            "durationTicks": 48,
            "midi": 55,
            "name": "G3",
            "ticks": 11856,
            "time": 79.6773835,
            "velocity": 0.5590551181102362
          },
          {
            "duration": 0.4099460520833418,
            "durationTicks": 61,
            "midi": 69,
            "name": "A4",
            "ticks": 11880,
            "time": 79.83867375,
            "velocity": 0.6299212598425197
          },
          {
            "duration": 0.3561826354166726,
            "durationTicks": 53,
            "midi": 42,
            "name": "F#2",
            "ticks": 11904,
            "time": 79.99996399999999,
            "velocity": 0.5826771653543307
          },
          {
            "duration": 0.29569879166666624,
            "durationTicks": 44,
            "midi": 62,
            "name": "D4",
            "ticks": 11952,
            "time": 80.32254449999999,
            "velocity": 0.5590551181102362
          },
          {
            "duration": 0.3427417812500124,
            "durationTicks": 51,
            "midi": 50,
            "name": "D3",
            "ticks": 11952,
            "time": 80.32254449999999,
            "velocity": 0.5590551181102362
          },
          {
            "duration": 0.49731160416666853,
            "durationTicks": 74,
            "midi": 69,
            "name": "A4",
            "ticks": 11976,
            "time": 80.48383475,
            "velocity": 0.5905511811023622
          },
          {
            "duration": 0.47042989583334816,
            "durationTicks": 70,
            "midi": 42,
            "name": "F#2",
            "ticks": 11999,
            "time": 80.63840457291666,
            "velocity": 0.5984251968503937
          },
          {
            "duration": 0.24865580208333427,
            "durationTicks": 37,
            "midi": 62,
            "name": "D4",
            "ticks": 12048,
            "time": 80.9677055,
            "velocity": 0.6062992125984252
          },
          {
            "duration": 0.26209665625000866,
            "durationTicks": 39,
            "midi": 54,
            "name": "F#3",
            "ticks": 12048,
            "time": 80.9677055,
            "velocity": 0.5984251968503937
          },
          {
            "duration": 0.13440854166665872,
            "durationTicks": 20,
            "midi": 69,
            "name": "A4",
            "ticks": 12072,
            "time": 81.12899575,
            "velocity": 0.6299212598425197
          },
          {
            "duration": 0.44354818749999936,
            "durationTicks": 66,
            "midi": 43,
            "name": "G2",
            "ticks": 12095,
            "time": 81.28356557291666,
            "velocity": 0.5826771653543307
          },
          {
            "duration": 0.24865580208333427,
            "durationTicks": 37,
            "midi": 59,
            "name": "B3",
            "ticks": 12144,
            "time": 81.6128665,
            "velocity": 0.5748031496062992
          },
          {
            "duration": 0.37634391666667,
            "durationTicks": 56,
            "midi": 50,
            "name": "D3",
            "ticks": 12144,
            "time": 81.6128665,
            "velocity": 0.5984251968503937
          },
          {
            "duration": 0.45026861458333656,
            "durationTicks": 67,
            "midi": 67,
            "name": "G4",
            "ticks": 12168,
            "time": 81.77415675,
            "velocity": 0.5984251968503937
          },
          {
            "duration": 0.3830643437500072,
            "durationTicks": 57,
            "midi": 43,
            "name": "G2",
            "ticks": 12192,
            "time": 81.935447,
            "velocity": 0.5511811023622047
          },
          {
            "duration": 0.23521494791665987,
            "durationTicks": 35,
            "midi": 59,
            "name": "B3",
            "ticks": 12240,
            "time": 82.2580275,
            "velocity": 0.5511811023622047
          },
          {
            "duration": 0.30241921875000344,
            "durationTicks": 45,
            "midi": 55,
            "name": "G3",
            "ticks": 12240,
            "time": 82.2580275,
            "velocity": 0.5748031496062992
          },
          {
            "duration": 0.1612902499999933,
            "durationTicks": 24,
            "midi": 67,
            "name": "G4",
            "ticks": 12264,
            "time": 82.41931775,
            "velocity": 0.6299212598425197
          },
          {
            "duration": 0.48387074999999413,
            "durationTicks": 72,
            "midi": 71,
            "name": "B4",
            "ticks": 12288,
            "time": 82.580608,
            "velocity": 0.6692913385826772
          },
          {
            "duration": 0.3427417812499982,
            "durationTicks": 51,
            "midi": 57,
            "name": "A3",
            "ticks": 12288,
            "time": 82.580608,
            "velocity": 0.6535433070866141
          },
          {
            "duration": 0.3091396458333264,
            "durationTicks": 46,
            "midi": 64,
            "name": "E4",
            "ticks": 12336,
            "time": 82.9031885,
            "velocity": 0.6141732283464567
          },
          {
            "duration": 0.3225805000000008,
            "durationTicks": 48,
            "midi": 72,
            "name": "C5",
            "ticks": 12360,
            "time": 83.06447874999999,
            "velocity": 0.6220472440944882
          },
          {
            "duration": 0.3225805000000008,
            "durationTicks": 48,
            "midi": 57,
            "name": "A3",
            "ticks": 12384,
            "time": 83.225769,
            "velocity": 0.5984251968503937
          },
          {
            "duration": 0.3360213541666752,
            "durationTicks": 50,
            "midi": 71,
            "name": "B4",
            "ticks": 12408,
            "time": 83.38705925,
            "velocity": 0.6062992125984252
          },
          {
            "duration": 0.3629030624999956,
            "durationTicks": 54,
            "midi": 64,
            "name": "E4",
            "ticks": 12432,
            "time": 83.5483495,
            "velocity": 0.6141732283464567
          },
          {
            "duration": 0.16129025000000752,
            "durationTicks": 24,
            "midi": 72,
            "name": "C5",
            "ticks": 12456,
            "time": 83.70963975,
            "velocity": 0.6299212598425197
          },
          {
            "duration": 0.3427417812500124,
            "durationTicks": 51,
            "midi": 57,
            "name": "A3",
            "ticks": 12479,
            "time": 83.86420957291666,
            "velocity": 0.5669291338582677
          },
          {
            "duration": 0.5577954479166749,
            "durationTicks": 83,
            "midi": 71,
            "name": "B4",
            "ticks": 12480,
            "time": 83.87093,
            "velocity": 0.6377952755905512
          },
          {
            "duration": 0.4032256249999904,
            "durationTicks": 60,
            "midi": 64,
            "name": "E4",
            "ticks": 12528,
            "time": 84.1935105,
            "velocity": 0.6062992125984252
          },
          {
            "duration": 0.3427417812500124,
            "durationTicks": 51,
            "midi": 72,
            "name": "C5",
            "ticks": 12553,
            "time": 84.36152117708332,
            "velocity": 0.6299212598425197
          },
          {
            "duration": 0.3696234895833186,
            "durationTicks": 55,
            "midi": 57,
            "name": "A3",
            "ticks": 12576,
            "time": 84.516091,
            "velocity": 0.5354330708661418
          },
          {
            "duration": 0.3293009270833238,
            "durationTicks": 49,
            "midi": 71,
            "name": "B4",
            "ticks": 12600,
            "time": 84.67738125,
            "velocity": 0.5669291338582677
          },
          {
            "duration": 0.3494622083333212,
            "durationTicks": 52,
            "midi": 64,
            "name": "E4",
            "ticks": 12624,
            "time": 84.8386715,
            "velocity": 0.6141732283464567
          },
          {
            "duration": 0.1814515312500049,
            "durationTicks": 27,
            "midi": 72,
            "name": "C5",
            "ticks": 12648,
            "time": 84.99996175,
            "velocity": 0.5984251968503937
          },
          {
            "duration": 0.3561826354166726,
            "durationTicks": 53,
            "midi": 57,
            "name": "A3",
            "ticks": 12672,
            "time": 85.161252,
            "velocity": 0.6456692913385826
          },
          {
            "duration": 0.47042989583331973,
            "durationTicks": 70,
            "midi": 71,
            "name": "B4",
            "ticks": 12672,
            "time": 85.161252,
            "velocity": 0.6220472440944882
          },
          {
            "duration": 0.31586007291667784,
            "durationTicks": 47,
            "midi": 67,
            "name": "G4",
            "ticks": 12720,
            "time": 85.48383249999999,
            "velocity": 0.5984251968503937
          },
          {
            "duration": 0.3091396458333264,
            "durationTicks": 46,
            "midi": 74,
            "name": "D5",
            "ticks": 12744,
            "time": 85.64512275,
            "velocity": 0.6456692913385826
          },
          {
            "duration": 0.3091396458333264,
            "durationTicks": 46,
            "midi": 57,
            "name": "A3",
            "ticks": 12768,
            "time": 85.80641299999999,
            "velocity": 0.5984251968503937
          },
          {
            "duration": 0.3091396458333264,
            "durationTicks": 46,
            "midi": 67,
            "name": "G4",
            "ticks": 12816,
            "time": 86.12899349999999,
            "velocity": 0.5984251968503937
          },
          {
            "duration": 0.1612902499999933,
            "durationTicks": 24,
            "midi": 72,
            "name": "C5",
            "ticks": 12840,
            "time": 86.29028375,
            "velocity": 0.6299212598425197
          },
          {
            "duration": 0.3494622083333354,
            "durationTicks": 52,
            "midi": 57,
            "name": "A3",
            "ticks": 12864,
            "time": 86.451574,
            "velocity": 0.6299212598425197
          },
          {
            "duration": 0.5241933125000031,
            "durationTicks": 78,
            "midi": 71,
            "name": "B4",
            "ticks": 12864,
            "time": 86.451574,
            "velocity": 0.6456692913385826
          },
          {
            "duration": 0.3561826354166726,
            "durationTicks": 53,
            "midi": 67,
            "name": "G4",
            "ticks": 12912,
            "time": 86.7741545,
            "velocity": 0.5826771653543307
          },
          {
            "duration": 0.383064343749993,
            "durationTicks": 57,
            "midi": 74,
            "name": "D5",
            "ticks": 12936,
            "time": 86.93544475,
            "velocity": 0.6614173228346457
          },
          {
            "duration": 0.3494622083333354,
            "durationTicks": 52,
            "midi": 57,
            "name": "A3",
            "ticks": 12960,
            "time": 87.096735,
            "velocity": 0.5748031496062992
          },
          {
            "duration": 0.3024192187499892,
            "durationTicks": 45,
            "midi": 71,
            "name": "B4",
            "ticks": 12984,
            "time": 87.25802525,
            "velocity": 0.6062992125984252
          },
          {
            "duration": 0.3427417812499982,
            "durationTicks": 51,
            "midi": 67,
            "name": "G4",
            "ticks": 13008,
            "time": 87.4193155,
            "velocity": 0.6141732283464567
          },
          {
            "duration": 0.1948923854166651,
            "durationTicks": 29,
            "midi": 72,
            "name": "C5",
            "ticks": 13032,
            "time": 87.58060575,
            "velocity": 0.5669291338582677
          },
          {
            "duration": 0.3696234895833186,
            "durationTicks": 55,
            "midi": 57,
            "name": "A3",
            "ticks": 13055,
            "time": 87.73517557291667,
            "velocity": 0.6220472440944882
          },
          {
            "duration": 0.45026861458332235,
            "durationTicks": 67,
            "midi": 71,
            "name": "B4",
            "ticks": 13056,
            "time": 87.741896,
            "velocity": 0.6377952755905512
          },
          {
            "duration": 0.3091396458333264,
            "durationTicks": 46,
            "midi": 65,
            "name": "F4",
            "ticks": 13104,
            "time": 88.0644765,
            "velocity": 0.6141732283464567
          },
          {
            "duration": 0.29569879166668045,
            "durationTicks": 44,
            "midi": 72,
            "name": "C5",
            "ticks": 13128,
            "time": 88.22576674999999,
            "velocity": 0.6299212598425197
          },
          {
            "duration": 0.3696234895833328,
            "durationTicks": 55,
            "midi": 57,
            "name": "A3",
            "ticks": 13152,
            "time": 88.387057,
            "velocity": 0.5905511811023622
          },
          {
            "duration": 0.30241921875000344,
            "durationTicks": 45,
            "midi": 65,
            "name": "F4",
            "ticks": 13200,
            "time": 88.7096375,
            "velocity": 0.5984251968503937
          },
          {
            "duration": 0.13440854166667293,
            "durationTicks": 20,
            "midi": 72,
            "name": "C5",
            "ticks": 13224,
            "time": 88.87092774999999,
            "velocity": 0.6220472440944882
          },
          {
            "duration": 0.37634391666667,
            "durationTicks": 56,
            "midi": 57,
            "name": "A3",
            "ticks": 13248,
            "time": 89.032218,
            "velocity": 0.6456692913385826
          },
          {
            "duration": 0.46370946874999674,
            "durationTicks": 69,
            "midi": 71,
            "name": "B4",
            "ticks": 13250,
            "time": 89.04565885416667,
            "velocity": 0.6535433070866141
          },
          {
            "duration": 0.3091396458333264,
            "durationTicks": 46,
            "midi": 65,
            "name": "F4",
            "ticks": 13296,
            "time": 89.3547985,
            "velocity": 0.6141732283464567
          },
          {
            "duration": 0.30241921875000344,
            "durationTicks": 45,
            "midi": 72,
            "name": "C5",
            "ticks": 13320,
            "time": 89.51608875,
            "velocity": 0.6220472440944882
          },
          {
            "duration": 0.3561826354166726,
            "durationTicks": 53,
            "midi": 57,
            "name": "A3",
            "ticks": 13344,
            "time": 89.677379,
            "velocity": 0.6062992125984252
          },
          {
            "duration": 0.28897836458332904,
            "durationTicks": 43,
            "midi": 71,
            "name": "B4",
            "ticks": 13368,
            "time": 89.83866925,
            "velocity": 0.6062992125984252
          },
          {
            "duration": 0.3091396458333264,
            "durationTicks": 46,
            "midi": 65,
            "name": "F4",
            "ticks": 13392,
            "time": 89.9999595,
            "velocity": 0.5826771653543307
          },
          {
            "duration": 0.12768811458333573,
            "durationTicks": 19,
            "midi": 72,
            "name": "C5",
            "ticks": 13416,
            "time": 90.16124975,
            "velocity": 0.6062992125984252
          },
          {
            "duration": 0.3696234895833186,
            "durationTicks": 55,
            "midi": 57,
            "name": "A3",
            "ticks": 13440,
            "time": 90.32254,
            "velocity": 0.5905511811023622
          },
          {
            "duration": 0.3427417812499982,
            "durationTicks": 51,
            "midi": 71,
            "name": "B4",
            "ticks": 13440,
            "time": 90.32254,
            "velocity": 0.6614173228346457
          },
          {
            "duration": 0.3158600729166636,
            "durationTicks": 47,
            "midi": 65,
            "name": "F4",
            "ticks": 13488,
            "time": 90.6451205,
            "velocity": 0.5984251968503937
          },
          {
            "duration": 0.31586007291667784,
            "durationTicks": 47,
            "midi": 72,
            "name": "C5",
            "ticks": 13512,
            "time": 90.80641075,
            "velocity": 0.6220472440944882
          },
          {
            "duration": 0.28225793750000605,
            "durationTicks": 42,
            "midi": 57,
            "name": "A3",
            "ticks": 13536,
            "time": 90.96770099999999,
            "velocity": 0.5984251968503937
          },
          {
            "duration": 0.29569879166666624,
            "durationTicks": 44,
            "midi": 71,
            "name": "B4",
            "ticks": 13560,
            "time": 91.12899125,
            "velocity": 0.5669291338582677
          },
          {
            "duration": 0.29569879166668045,
            "durationTicks": 44,
            "midi": 65,
            "name": "F4",
            "ticks": 13584,
            "time": 91.29028149999999,
            "velocity": 0.5984251968503937
          },
          {
            "duration": 0.1478493958333189,
            "durationTicks": 22,
            "midi": 72,
            "name": "C5",
            "ticks": 13608,
            "time": 91.45157175,
            "velocity": 0.6456692913385826
          },
          {
            "duration": 0.28225793750000605,
            "durationTicks": 42,
            "midi": 57,
            "name": "A3",
            "ticks": 13632,
            "time": 91.61286199999999,
            "velocity": 0.6299212598425197
          },
          {
            "duration": 0.5309137395833261,
            "durationTicks": 79,
            "midi": 71,
            "name": "B4",
            "ticks": 13632,
            "time": 91.61286199999999,
            "velocity": 0.6220472440944882
          },
          {
            "duration": 0.30241921875000344,
            "durationTicks": 45,
            "midi": 65,
            "name": "F4",
            "ticks": 13680,
            "time": 91.9354425,
            "velocity": 0.6141732283464567
          },
          {
            "duration": 0.4099460520833276,
            "durationTicks": 61,
            "midi": 72,
            "name": "C5",
            "ticks": 13704,
            "time": 92.09673275,
            "velocity": 0.6220472440944882
          },
          {
            "duration": 0.28897836458332904,
            "durationTicks": 43,
            "midi": 57,
            "name": "A3",
            "ticks": 13728,
            "time": 92.258023,
            "velocity": 0.6220472440944882
          },
          {
            "duration": 0.3696234895833186,
            "durationTicks": 55,
            "midi": 71,
            "name": "B4",
            "ticks": 13752,
            "time": 92.41931325,
            "velocity": 0.5748031496062992
          },
          {
            "duration": 0.3427417812499982,
            "durationTicks": 51,
            "midi": 65,
            "name": "F4",
            "ticks": 13776,
            "time": 92.5806035,
            "velocity": 0.6299212598425197
          },
          {
            "duration": 0.1881719583333279,
            "durationTicks": 28,
            "midi": 72,
            "name": "C5",
            "ticks": 13800,
            "time": 92.74189375,
            "velocity": 0.6220472440944882
          },
          {
            "duration": 0.3830643437500072,
            "durationTicks": 57,
            "midi": 57,
            "name": "A3",
            "ticks": 13824,
            "time": 92.903184,
            "velocity": 0.6141732283464567
          },
          {
            "duration": 0.5712363020833351,
            "durationTicks": 85,
            "midi": 71,
            "name": "B4",
            "ticks": 13824,
            "time": 92.903184,
            "velocity": 0.6456692913385826
          },
          {
            "duration": 0.3965051979166674,
            "durationTicks": 59,
            "midi": 64,
            "name": "E4",
            "ticks": 13872,
            "time": 93.2257645,
            "velocity": 0.5984251968503937
          },
          {
            "duration": 0.37634391666667,
            "durationTicks": 56,
            "midi": 72,
            "name": "C5",
            "ticks": 13896,
            "time": 93.38705475,
            "velocity": 0.6062992125984252
          },
          {
            "duration": 0.3494622083333212,
            "durationTicks": 52,
            "midi": 57,
            "name": "A3",
            "ticks": 13920,
            "time": 93.548345,
            "velocity": 0.5984251968503937
          },
          {
            "duration": 0.3561826354166726,
            "durationTicks": 53,
            "midi": 71,
            "name": "B4",
            "ticks": 13944,
            "time": 93.70963524999999,
            "velocity": 0.5905511811023622
          },
          {
            "duration": 0.3897847708333302,
            "durationTicks": 58,
            "midi": 64,
            "name": "E4",
            "ticks": 13968,
            "time": 93.8709255,
            "velocity": 0.5984251968503937
          },
          {
            "duration": 0.2016128125000023,
            "durationTicks": 30,
            "midi": 72,
            "name": "C5",
            "ticks": 13992,
            "time": 94.03221574999999,
            "velocity": 0.6377952755905512
          },
          {
            "duration": 0.5174728854166659,
            "durationTicks": 77,
            "midi": 71,
            "name": "B4",
            "ticks": 14016,
            "time": 94.193506,
            "velocity": 0.6062992125984252
          },
          {
            "duration": 0.3494622083333212,
            "durationTicks": 52,
            "midi": 57,
            "name": "A3",
            "ticks": 14016,
            "time": 94.193506,
            "velocity": 0.6220472440944882
          },
          {
            "duration": 0.3897847708333302,
            "durationTicks": 58,
            "midi": 64,
            "name": "E4",
            "ticks": 14064,
            "time": 94.5160865,
            "velocity": 0.5748031496062992
          },
          {
            "duration": 0.3897847708333302,
            "durationTicks": 58,
            "midi": 72,
            "name": "C5",
            "ticks": 14088,
            "time": 94.67737675,
            "velocity": 0.6062992125984252
          },
          {
            "duration": 0.3293009270833238,
            "durationTicks": 49,
            "midi": 57,
            "name": "A3",
            "ticks": 14112,
            "time": 94.838667,
            "velocity": 0.5669291338582677
          },
          {
            "duration": 0.3561826354166726,
            "durationTicks": 53,
            "midi": 71,
            "name": "B4",
            "ticks": 14136,
            "time": 94.99995725,
            "velocity": 0.5433070866141733
          },
          {
            "duration": 0.3561826354166726,
            "durationTicks": 53,
            "midi": 64,
            "name": "E4",
            "ticks": 14160,
            "time": 95.1612475,
            "velocity": 0.6062992125984252
          },
          {
            "duration": 0.1881719583333279,
            "durationTicks": 28,
            "midi": 72,
            "name": "C5",
            "ticks": 14184,
            "time": 95.32253775,
            "velocity": 0.6062992125984252
          },
          {
            "duration": 0.5443545937500005,
            "durationTicks": 81,
            "midi": 71,
            "name": "B4",
            "ticks": 14208,
            "time": 95.483828,
            "velocity": 0.6299212598425197
          },
          {
            "duration": 0.336021354166661,
            "durationTicks": 50,
            "midi": 57,
            "name": "A3",
            "ticks": 14208,
            "time": 95.483828,
            "velocity": 0.6220472440944882
          },
          {
            "duration": 0.3561826354166726,
            "durationTicks": 53,
            "midi": 67,
            "name": "G4",
            "ticks": 14256,
            "time": 95.8064085,
            "velocity": 0.6062992125984252
          },
          {
            "duration": 0.3427417812499982,
            "durationTicks": 51,
            "midi": 74,
            "name": "D5",
            "ticks": 14280,
            "time": 95.96769875,
            "velocity": 0.6062992125984252
          },
          {
            "duration": 0.3494622083333212,
            "durationTicks": 52,
            "midi": 57,
            "name": "A3",
            "ticks": 14304,
            "time": 96.128989,
            "velocity": 0.5826771653543307
          },
          {
            "duration": 0.3293009270833238,
            "durationTicks": 49,
            "midi": 71,
            "name": "B4",
            "ticks": 14328,
            "time": 96.29027925,
            "velocity": 0.6299212598425197
          },
          {
            "duration": 0.3696234895833328,
            "durationTicks": 55,
            "midi": 67,
            "name": "G4",
            "ticks": 14352,
            "time": 96.45156949999999,
            "velocity": 0.6141732283464567
          },
          {
            "duration": 0.22177409374999968,
            "durationTicks": 33,
            "midi": 72,
            "name": "C5",
            "ticks": 14376,
            "time": 96.61285975,
            "velocity": 0.6220472440944882
          },
          {
            "duration": 0.3965051979166532,
            "durationTicks": 59,
            "midi": 57,
            "name": "A3",
            "ticks": 14399,
            "time": 96.76742957291667,
            "velocity": 0.5748031496062992
          },
          {
            "duration": 0.5510750208333377,
            "durationTicks": 82,
            "midi": 71,
            "name": "B4",
            "ticks": 14400,
            "time": 96.77414999999999,
            "velocity": 0.6456692913385826
          },
          {
            "duration": 0.3763439166666842,
            "durationTicks": 56,
            "midi": 67,
            "name": "G4",
            "ticks": 14448,
            "time": 97.09673049999999,
            "velocity": 0.5826771653543307
          },
          {
            "duration": 0.3965051979166674,
            "durationTicks": 59,
            "midi": 74,
            "name": "D5",
            "ticks": 14472,
            "time": 97.25802075,
            "velocity": 0.6062992125984252
          },
          {
            "duration": 0.3629030625000098,
            "durationTicks": 54,
            "midi": 57,
            "name": "A3",
            "ticks": 14496,
            "time": 97.419311,
            "velocity": 0.5984251968503937
          },
          {
            "duration": 0.3427417812499982,
            "durationTicks": 51,
            "midi": 71,
            "name": "B4",
            "ticks": 14520,
            "time": 97.58060125,
            "velocity": 0.6220472440944882
          },
          {
            "duration": 0.28897836458332904,
            "durationTicks": 43,
            "midi": 67,
            "name": "G4",
            "ticks": 14544,
            "time": 97.7418915,
            "velocity": 0.5984251968503937
          },
          {
            "duration": 0.21505366666666248,
            "durationTicks": 32,
            "midi": 72,
            "name": "C5",
            "ticks": 14568,
            "time": 97.90318175,
            "velocity": 0.6220472440944882
          },
          {
            "duration": 0.3897847708333302,
            "durationTicks": 58,
            "midi": 57,
            "name": "A3",
            "ticks": 14591,
            "time": 98.05775157291667,
            "velocity": 0.6141732283464567
          },
          {
            "duration": 0.5577954479166749,
            "durationTicks": 83,
            "midi": 71,
            "name": "B4",
            "ticks": 14592,
            "time": 98.064472,
            "velocity": 0.6535433070866141
          },
          {
            "duration": 0.3830643437500072,
            "durationTicks": 57,
            "midi": 65,
            "name": "F4",
            "ticks": 14640,
            "time": 98.3870525,
            "velocity": 0.5984251968503937
          },
          {
            "duration": 0.3965051979166674,
            "durationTicks": 59,
            "midi": 72,
            "name": "C5",
            "ticks": 14664,
            "time": 98.54834275,
            "velocity": 0.5984251968503937
          },
          {
            "duration": 0.3696234895833328,
            "durationTicks": 55,
            "midi": 57,
            "name": "A3",
            "ticks": 14688,
            "time": 98.709633,
            "velocity": 0.5984251968503937
          },
          {
            "duration": 0.3494622083333212,
            "durationTicks": 52,
            "midi": 71,
            "name": "B4",
            "ticks": 14712,
            "time": 98.87092325,
            "velocity": 0.6062992125984252
          },
          {
            "duration": 0.4099460520833276,
            "durationTicks": 61,
            "midi": 65,
            "name": "F4",
            "ticks": 14736,
            "time": 99.0322135,
            "velocity": 0.5984251968503937
          },
          {
            "duration": 0.2016128125000023,
            "durationTicks": 30,
            "midi": 72,
            "name": "C5",
            "ticks": 14760,
            "time": 99.19350374999999,
            "velocity": 0.6377952755905512
          },
          {
            "duration": 0.5443545937500005,
            "durationTicks": 81,
            "midi": 71,
            "name": "B4",
            "ticks": 14784,
            "time": 99.354794,
            "velocity": 0.6535433070866141
          },
          {
            "duration": 0.3965051979166674,
            "durationTicks": 59,
            "midi": 57,
            "name": "A3",
            "ticks": 14784,
            "time": 99.354794,
            "velocity": 0.5748031496062992
          },
          {
            "duration": 0.3965051979166674,
            "durationTicks": 59,
            "midi": 65,
            "name": "F4",
            "ticks": 14832,
            "time": 99.6773745,
            "velocity": 0.5984251968503937
          },
          {
            "duration": 0.43682776041667637,
            "durationTicks": 65,
            "midi": 72,
            "name": "C5",
            "ticks": 14856,
            "time": 99.83866474999999,
            "velocity": 0.6220472440944882
          },
          {
            "duration": 0.3561826354166726,
            "durationTicks": 53,
            "midi": 57,
            "name": "A3",
            "ticks": 14880,
            "time": 99.999955,
            "velocity": 0.5984251968503937
          },
          {
            "duration": 0.3225805000000008,
            "durationTicks": 48,
            "midi": 71,
            "name": "B4",
            "ticks": 14904,
            "time": 100.16124525,
            "velocity": 0.5826771653543307
          },
          {
            "duration": 0.37634391666667,
            "durationTicks": 56,
            "midi": 65,
            "name": "F4",
            "ticks": 14928,
            "time": 100.3225355,
            "velocity": 0.5590551181102362
          },
          {
            "duration": 0.2150536666666767,
            "durationTicks": 32,
            "midi": 72,
            "name": "C5",
            "ticks": 14952,
            "time": 100.48382575,
            "velocity": 0.6299212598425197
          },
          {
            "duration": 0.5645158749999979,
            "durationTicks": 84,
            "midi": 71,
            "name": "B4",
            "ticks": 14976,
            "time": 100.645116,
            "velocity": 0.6062992125984252
          },
          {
            "duration": 0.3360213541666752,
            "durationTicks": 50,
            "midi": 57,
            "name": "A3",
            "ticks": 14976,
            "time": 100.645116,
            "velocity": 0.5984251968503937
          },
          {
            "duration": 0.37634391666667,
            "durationTicks": 56,
            "midi": 65,
            "name": "F4",
            "ticks": 15024,
            "time": 100.9676965,
            "velocity": 0.5984251968503937
          },
          {
            "duration": 0.3830643437500072,
            "durationTicks": 57,
            "midi": 72,
            "name": "C5",
            "ticks": 15048,
            "time": 101.12898675,
            "velocity": 0.6299212598425197
          },
          {
            "duration": 0.3763439166666558,
            "durationTicks": 56,
            "midi": 57,
            "name": "A3",
            "ticks": 15071,
            "time": 101.28355657291667,
            "velocity": 0.5984251968503937
          },
          {
            "duration": 0.3696234895833328,
            "durationTicks": 55,
            "midi": 71,
            "name": "B4",
            "ticks": 15096,
            "time": 101.45156725,
            "velocity": 0.5748031496062992
          },
          {
            "duration": 0.3696234895833186,
            "durationTicks": 55,
            "midi": 65,
            "name": "F4",
            "ticks": 15120,
            "time": 101.6128575,
            "velocity": 0.6456692913385826
          },
          {
            "duration": 0.22177409374999968,
            "durationTicks": 33,
            "midi": 72,
            "name": "C5",
            "ticks": 15144,
            "time": 101.77414775,
            "velocity": 0.6299212598425197
          },
          {
            "duration": 0.3763439166666842,
            "durationTicks": 56,
            "midi": 57,
            "name": "A3",
            "ticks": 15168,
            "time": 101.93543799999999,
            "velocity": 0.5748031496062992
          },
          {
            "duration": 0.49731160416666853,
            "durationTicks": 74,
            "midi": 71,
            "name": "B4",
            "ticks": 15169,
            "time": 101.94215842708333,
            "velocity": 0.6220472440944882
          },
          {
            "duration": 0.3897847708333302,
            "durationTicks": 58,
            "midi": 65,
            "name": "F4",
            "ticks": 15216,
            "time": 102.25801849999999,
            "velocity": 0.5984251968503937
          },
          {
            "duration": 0.3494622083333212,
            "durationTicks": 52,
            "midi": 72,
            "name": "C5",
            "ticks": 15240,
            "time": 102.41930875,
            "velocity": 0.6456692913385826
          },
          {
            "duration": 0.3763439166666842,
            "durationTicks": 56,
            "midi": 57,
            "name": "A3",
            "ticks": 15264,
            "time": 102.58059899999999,
            "velocity": 0.5984251968503937
          },
          {
            "duration": 0.3696234895833186,
            "durationTicks": 55,
            "midi": 71,
            "name": "B4",
            "ticks": 15288,
            "time": 102.74188925,
            "velocity": 0.5669291338582677
          },
          {
            "duration": 0.329300927083338,
            "durationTicks": 49,
            "midi": 65,
            "name": "F4",
            "ticks": 15312,
            "time": 102.9031795,
            "velocity": 0.6220472440944882
          },
          {
            "duration": 0.1881719583333279,
            "durationTicks": 28,
            "midi": 72,
            "name": "C5",
            "ticks": 15336,
            "time": 103.06446975,
            "velocity": 0.6299212598425197
          },
          {
            "duration": 0.5779567291666723,
            "durationTicks": 86,
            "midi": 71,
            "name": "B4",
            "ticks": 15360,
            "time": 103.22576,
            "velocity": 0.6062992125984252
          },
          {
            "duration": 0.3696234895833328,
            "durationTicks": 55,
            "midi": 57,
            "name": "A3",
            "ticks": 15360,
            "time": 103.22576,
            "velocity": 0.6220472440944882
          },
          {
            "duration": 0.3897847708333302,
            "durationTicks": 58,
            "midi": 64,
            "name": "E4",
            "ticks": 15408,
            "time": 103.5483405,
            "velocity": 0.6141732283464567
          },
          {
            "duration": 0.3629030624999956,
            "durationTicks": 54,
            "midi": 72,
            "name": "C5",
            "ticks": 15432,
            "time": 103.70963075,
            "velocity": 0.5905511811023622
          },
          {
            "duration": 0.37634391666667,
            "durationTicks": 56,
            "midi": 57,
            "name": "A3",
            "ticks": 15456,
            "time": 103.870921,
            "velocity": 0.5748031496062992
          },
          {
            "duration": 0.3629030624999956,
            "durationTicks": 54,
            "midi": 71,
            "name": "B4",
            "ticks": 15480,
            "time": 104.03221125,
            "velocity": 0.6220472440944882
          },
          {
            "duration": 0.3897847708333302,
            "durationTicks": 58,
            "midi": 64,
            "name": "E4",
            "ticks": 15504,
            "time": 104.1935015,
            "velocity": 0.5590551181102362
          },
          {
            "duration": 0.22177409374999968,
            "durationTicks": 33,
            "midi": 72,
            "name": "C5",
            "ticks": 15528,
            "time": 104.35479175,
            "velocity": 0.6299212598425197
          },
          {
            "duration": 0.3830643437500072,
            "durationTicks": 57,
            "midi": 57,
            "name": "A3",
            "ticks": 15552,
            "time": 104.516082,
            "velocity": 0.6220472440944882
          },
          {
            "duration": 0.5443545937500005,
            "durationTicks": 81,
            "midi": 71,
            "name": "B4",
            "ticks": 15552,
            "time": 104.516082,
            "velocity": 0.6299212598425197
          },
          {
            "duration": 0.4032256250000046,
            "durationTicks": 60,
            "midi": 64,
            "name": "E4",
            "ticks": 15600,
            "time": 104.8386625,
            "velocity": 0.5748031496062992
          },
          {
            "duration": 0.3965051979166816,
            "durationTicks": 59,
            "midi": 72,
            "name": "C5",
            "ticks": 15624,
            "time": 104.99995274999999,
            "velocity": 0.6062992125984252
          },
          {
            "duration": 0.3561826354166726,
            "durationTicks": 53,
            "midi": 57,
            "name": "A3",
            "ticks": 15648,
            "time": 105.161243,
            "velocity": 0.5905511811023622
          },
          {
            "duration": 0.31586007291667784,
            "durationTicks": 47,
            "midi": 71,
            "name": "B4",
            "ticks": 15672,
            "time": 105.32253324999999,
            "velocity": 0.6220472440944882
          },
          {
            "duration": 0.3360213541666752,
            "durationTicks": 50,
            "midi": 64,
            "name": "E4",
            "ticks": 15696,
            "time": 105.4838235,
            "velocity": 0.5984251968503937
          },
          {
            "duration": 0.20833323958332528,
            "durationTicks": 31,
            "midi": 72,
            "name": "C5",
            "ticks": 15720,
            "time": 105.64511375,
            "velocity": 0.6377952755905512
          },
          {
            "duration": 0.5376341666666633,
            "durationTicks": 80,
            "midi": 71,
            "name": "B4",
            "ticks": 15744,
            "time": 105.806404,
            "velocity": 0.6220472440944882
          },
          {
            "duration": 0.3561826354166726,
            "durationTicks": 53,
            "midi": 57,
            "name": "A3",
            "ticks": 15744,
            "time": 105.806404,
            "velocity": 0.6456692913385826
          },
          {
            "duration": 0.3897847708333302,
            "durationTicks": 58,
            "midi": 67,
            "name": "G4",
            "ticks": 15792,
            "time": 106.1289845,
            "velocity": 0.5984251968503937
          },
          {
            "duration": 0.3561826354166726,
            "durationTicks": 53,
            "midi": 74,
            "name": "D5",
            "ticks": 15816,
            "time": 106.29027475,
            "velocity": 0.6692913385826772
          },
          {
            "duration": 0.4032256250000046,
            "durationTicks": 60,
            "midi": 57,
            "name": "A3",
            "ticks": 15839,
            "time": 106.44484457291667,
            "velocity": 0.5669291338582677
          },
          {
            "duration": 0.3225805000000008,
            "durationTicks": 48,
            "midi": 71,
            "name": "B4",
            "ticks": 15864,
            "time": 106.61285525,
            "velocity": 0.6062992125984252
          },
          {
            "duration": 0.3696234895833186,
            "durationTicks": 55,
            "midi": 67,
            "name": "G4",
            "ticks": 15888,
            "time": 106.7741455,
            "velocity": 0.5826771653543307
          },
          {
            "duration": 0.20833323958332528,
            "durationTicks": 31,
            "midi": 72,
            "name": "C5",
            "ticks": 15912,
            "time": 106.93543575,
            "velocity": 0.6062992125984252
          },
          {
            "duration": 0.5309137395833261,
            "durationTicks": 79,
            "midi": 71,
            "name": "B4",
            "ticks": 15936,
            "time": 107.096726,
            "velocity": 0.6535433070866141
          },
          {
            "duration": 0.383064343749993,
            "durationTicks": 57,
            "midi": 57,
            "name": "A3",
            "ticks": 15936,
            "time": 107.096726,
            "velocity": 0.6062992125984252
          },
          {
            "duration": 0.3629030625000098,
            "durationTicks": 54,
            "midi": 67,
            "name": "G4",
            "ticks": 15984,
            "time": 107.41930649999999,
            "velocity": 0.5984251968503937
          },
          {
            "duration": 0.383064343749993,
            "durationTicks": 57,
            "midi": 74,
            "name": "D5",
            "ticks": 16008,
            "time": 107.58059675,
            "velocity": 0.6062992125984252
          },
          {
            "duration": 0.3629030625000098,
            "durationTicks": 54,
            "midi": 57,
            "name": "A3",
            "ticks": 16032,
            "time": 107.74188699999999,
            "velocity": 0.5984251968503937
          },
          {
            "duration": 0.3494622083333212,
            "durationTicks": 52,
            "midi": 71,
            "name": "B4",
            "ticks": 16056,
            "time": 107.90317725,
            "velocity": 0.6220472440944882
          },
          {
            "duration": 0.3091396458333264,
            "durationTicks": 46,
            "midi": 67,
            "name": "G4",
            "ticks": 16080,
            "time": 108.06446749999999,
            "velocity": 0.6456692913385826
          },
          {
            "duration": 0.22177409374999968,
            "durationTicks": 33,
            "midi": 72,
            "name": "C5",
            "ticks": 16104,
            "time": 108.22575775,
            "velocity": 0.6062992125984252
          },
          {
            "duration": 0.3763439166666842,
            "durationTicks": 56,
            "midi": 57,
            "name": "A3",
            "ticks": 16128,
            "time": 108.387048,
            "velocity": 0.6141732283464567
          },
          {
            "duration": 0.5510750208333377,
            "durationTicks": 82,
            "midi": 71,
            "name": "B4",
            "ticks": 16128,
            "time": 108.387048,
            "velocity": 0.6377952755905512
          },
          {
            "duration": 0.3830643437500072,
            "durationTicks": 57,
            "midi": 65,
            "name": "F4",
            "ticks": 16176,
            "time": 108.7096285,
            "velocity": 0.5905511811023622
          },
          {
            "duration": 0.383064343749993,
            "durationTicks": 57,
            "midi": 72,
            "name": "C5",
            "ticks": 16200,
            "time": 108.87091875,
            "velocity": 0.6062992125984252
          },
          {
            "duration": 0.3830643437500072,
            "durationTicks": 57,
            "midi": 57,
            "name": "A3",
            "ticks": 16224,
            "time": 109.032209,
            "velocity": 0.5984251968503937
          },
          {
            "duration": 0.3293009270833238,
            "durationTicks": 49,
            "midi": 71,
            "name": "B4",
            "ticks": 16248,
            "time": 109.19349925,
            "velocity": 0.5590551181102362
          },
          {
            "duration": 0.3629030624999956,
            "durationTicks": 54,
            "midi": 65,
            "name": "F4",
            "ticks": 16272,
            "time": 109.3547895,
            "velocity": 0.5984251968503937
          },
          {
            "duration": 0.20833323958332528,
            "durationTicks": 31,
            "midi": 72,
            "name": "C5",
            "ticks": 16296,
            "time": 109.51607975,
            "velocity": 0.6062992125984252
          },
          {
            "duration": 0.5645158749999979,
            "durationTicks": 84,
            "midi": 71,
            "name": "B4",
            "ticks": 16320,
            "time": 109.67737,
            "velocity": 0.6220472440944882
          },
          {
            "duration": 0.3427417812499982,
            "durationTicks": 51,
            "midi": 57,
            "name": "A3",
            "ticks": 16320,
            "time": 109.67737,
            "velocity": 0.5984251968503937
          },
          {
            "duration": 0.3696234895833328,
            "durationTicks": 55,
            "midi": 65,
            "name": "F4",
            "ticks": 16368,
            "time": 109.9999505,
            "velocity": 0.5748031496062992
          },
          {
            "duration": 0.3965051979166816,
            "durationTicks": 59,
            "midi": 72,
            "name": "C5",
            "ticks": 16392,
            "time": 110.16124074999999,
            "velocity": 0.5984251968503937
          },
          {
            "duration": 0.383064343749993,
            "durationTicks": 57,
            "midi": 57,
            "name": "A3",
            "ticks": 16416,
            "time": 110.322531,
            "velocity": 0.5590551181102362
          },
          {
            "duration": 0.3427417812500124,
            "durationTicks": 51,
            "midi": 71,
            "name": "B4",
            "ticks": 16440,
            "time": 110.48382124999999,
            "velocity": 0.6062992125984252
          },
          {
            "duration": 0.3965051979166674,
            "durationTicks": 59,
            "midi": 65,
            "name": "F4",
            "ticks": 16464,
            "time": 110.6451115,
            "velocity": 0.5748031496062992
          },
          {
            "duration": 0.2016128125000023,
            "durationTicks": 30,
            "midi": 72,
            "name": "C5",
            "ticks": 16488,
            "time": 110.80640174999999,
            "velocity": 0.6141732283464567
          },
          {
            "duration": 0.5376341666666775,
            "durationTicks": 80,
            "midi": 71,
            "name": "B4",
            "ticks": 16512,
            "time": 110.967692,
            "velocity": 0.6299212598425197
          },
          {
            "duration": 0.37634391666667,
            "durationTicks": 56,
            "midi": 57,
            "name": "A3",
            "ticks": 16512,
            "time": 110.967692,
            "velocity": 0.5984251968503937
          },
          {
            "duration": 0.3696234895833186,
            "durationTicks": 55,
            "midi": 65,
            "name": "F4",
            "ticks": 16560,
            "time": 111.2902725,
            "velocity": 0.5984251968503937
          },
          {
            "duration": 0.43010733333332496,
            "durationTicks": 64,
            "midi": 72,
            "name": "C5",
            "ticks": 16584,
            "time": 111.45156275,
            "velocity": 0.6141732283464567
          },
          {
            "duration": 0.3629030624999956,
            "durationTicks": 54,
            "midi": 57,
            "name": "A3",
            "ticks": 16608,
            "time": 111.612853,
            "velocity": 0.5984251968503937
          },
          {
            "duration": 0.3427417812499982,
            "durationTicks": 51,
            "midi": 71,
            "name": "B4",
            "ticks": 16632,
            "time": 111.77414325,
            "velocity": 0.5433070866141733
          },
          {
            "duration": 0.3696234895833186,
            "durationTicks": 55,
            "midi": 65,
            "name": "F4",
            "ticks": 16656,
            "time": 111.9354335,
            "velocity": 0.5826771653543307
          },
          {
            "duration": 0.20833323958332528,
            "durationTicks": 31,
            "midi": 72,
            "name": "C5",
            "ticks": 16680,
            "time": 112.09672375,
            "velocity": 0.6062992125984252
          },
          {
            "duration": 0.389784770833316,
            "durationTicks": 58,
            "midi": 57,
            "name": "A3",
            "ticks": 16704,
            "time": 112.258014,
            "velocity": 0.5984251968503937
          },
          {
            "duration": 0.5309137395833261,
            "durationTicks": 79,
            "midi": 71,
            "name": "B4",
            "ticks": 16704,
            "time": 112.258014,
            "velocity": 0.6299212598425197
          },
          {
            "duration": 0.3629030624999956,
            "durationTicks": 54,
            "midi": 65,
            "name": "F4",
            "ticks": 16752,
            "time": 112.5805945,
            "velocity": 0.5669291338582677
          },
          {
            "duration": 0.3897847708333302,
            "durationTicks": 58,
            "midi": 72,
            "name": "C5",
            "ticks": 16776,
            "time": 112.74188475,
            "velocity": 0.6220472440944882
          },
          {
            "duration": 0.3629030625000098,
            "durationTicks": 54,
            "midi": 57,
            "name": "A3",
            "ticks": 16800,
            "time": 112.90317499999999,
            "velocity": 0.6141732283464567
          },
          {
            "duration": 0.27553751041666885,
            "durationTicks": 41,
            "midi": 71,
            "name": "B4",
            "ticks": 16824,
            "time": 113.06446525,
            "velocity": 0.6614173228346457
          },
          {
            "duration": 0.3225805000000008,
            "durationTicks": 48,
            "midi": 65,
            "name": "F4",
            "ticks": 16848,
            "time": 113.22575549999999,
            "velocity": 0.5905511811023622
          },
          {
            "duration": 0.3696234895833328,
            "durationTicks": 55,
            "midi": 48,
            "name": "C3",
            "ticks": 16896,
            "time": 113.54833599999999,
            "velocity": 0.6377952755905512
          },
          {
            "duration": 0.44354818749999936,
            "durationTicks": 66,
            "midi": 55,
            "name": "G3",
            "ticks": 16943,
            "time": 113.86419607291667,
            "velocity": 0.5984251968503937
          },
          {
            "duration": 0.3225805000000008,
            "durationTicks": 48,
            "midi": 64,
            "name": "E4",
            "ticks": 16944,
            "time": 113.87091649999999,
            "velocity": 0.5984251968503937
          },
          {
            "duration": 0.47042989583331973,
            "durationTicks": 70,
            "midi": 67,
            "name": "G4",
            "ticks": 16968,
            "time": 114.03220675,
            "velocity": 0.6299212598425197
          },
          {
            "duration": 0.4032256250000046,
            "durationTicks": 60,
            "midi": 48,
            "name": "C3",
            "ticks": 16992,
            "time": 114.193497,
            "velocity": 0.6299212598425197
          },
          {
            "duration": 0.3293009270833238,
            "durationTicks": 49,
            "midi": 64,
            "name": "E4",
            "ticks": 17039,
            "time": 114.50935707291667,
            "velocity": 0.6141732283464567
          },
          {
            "duration": 0.44354818749999936,
            "durationTicks": 66,
            "midi": 60,
            "name": "C4",
            "ticks": 17040,
            "time": 114.5160775,
            "velocity": 0.5748031496062992
          },
          {
            "duration": 0.3965051979166532,
            "durationTicks": 59,
            "midi": 67,
            "name": "G4",
            "ticks": 17063,
            "time": 114.67064732291666,
            "velocity": 0.6220472440944882
          },
          {
            "duration": 0.3427417812499982,
            "durationTicks": 51,
            "midi": 48,
            "name": "C3",
            "ticks": 17088,
            "time": 114.838658,
            "velocity": 0.6299212598425197
          },
          {
            "duration": 0.3091396458333264,
            "durationTicks": 46,
            "midi": 64,
            "name": "E4",
            "ticks": 17136,
            "time": 115.1612385,
            "velocity": 0.6062992125984252
          },
          {
            "duration": 0.45026861458332235,
            "durationTicks": 67,
            "midi": 55,
            "name": "G3",
            "ticks": 17136,
            "time": 115.1612385,
            "velocity": 0.5984251968503937
          },
          {
            "duration": 0.46370946874999674,
            "durationTicks": 69,
            "midi": 67,
            "name": "G4",
            "ticks": 17160,
            "time": 115.32252875,
            "velocity": 0.5748031496062992
          },
          {
            "duration": 0.4032256250000046,
            "durationTicks": 60,
            "midi": 48,
            "name": "C3",
            "ticks": 17184,
            "time": 115.483819,
            "velocity": 0.5826771653543307
          },
          {
            "duration": 0.5309137395833261,
            "durationTicks": 79,
            "midi": 64,
            "name": "E4",
            "ticks": 17231,
            "time": 115.79967907291667,
            "velocity": 0.5118110236220472
          },
          {
            "duration": 0.45026861458332235,
            "durationTicks": 67,
            "midi": 60,
            "name": "C4",
            "ticks": 17232,
            "time": 115.8063995,
            "velocity": 0.5275590551181102
          },
          {
            "duration": 0.47042989583333394,
            "durationTicks": 70,
            "midi": 67,
            "name": "G4",
            "ticks": 17255,
            "time": 115.96096932291667,
            "velocity": 0.6062992125984252
          },
          {
            "duration": 0.3427417812499982,
            "durationTicks": 51,
            "midi": 48,
            "name": "C3",
            "ticks": 17280,
            "time": 116.12898,
            "velocity": 0.6456692913385826
          },
          {
            "duration": 0.45026861458332235,
            "durationTicks": 67,
            "midi": 64,
            "name": "E4",
            "ticks": 17328,
            "time": 116.4515605,
            "velocity": 0.5905511811023622
          },
          {
            "duration": 0.46370946874999674,
            "durationTicks": 69,
            "midi": 55,
            "name": "G3",
            "ticks": 17328,
            "time": 116.4515605,
            "velocity": 0.5669291338582677
          },
          {
            "duration": 0.49059117708333133,
            "durationTicks": 73,
            "midi": 67,
            "name": "G4",
            "ticks": 17352,
            "time": 116.61285074999999,
            "velocity": 0.6535433070866141
          },
          {
            "duration": 0.383064343749993,
            "durationTicks": 57,
            "midi": 48,
            "name": "C3",
            "ticks": 17376,
            "time": 116.774141,
            "velocity": 0.5511811023622047
          },
          {
            "duration": 0.3225805000000008,
            "durationTicks": 48,
            "midi": 64,
            "name": "E4",
            "ticks": 17423,
            "time": 117.09000107291666,
            "velocity": 0.5748031496062992
          },
          {
            "duration": 0.41666647916666477,
            "durationTicks": 62,
            "midi": 60,
            "name": "C4",
            "ticks": 17424,
            "time": 117.0967215,
            "velocity": 0.5669291338582677
          },
          {
            "duration": 0.31586007291667784,
            "durationTicks": 47,
            "midi": 67,
            "name": "G4",
            "ticks": 17448,
            "time": 117.25801175,
            "velocity": 0.6377952755905512
          },
          {
            "duration": 0.336021354166661,
            "durationTicks": 50,
            "midi": 48,
            "name": "C3",
            "ticks": 17472,
            "time": 117.419302,
            "velocity": 0.6377952755905512
          },
          {
            "duration": 0.3293009270833238,
            "durationTicks": 49,
            "midi": 64,
            "name": "E4",
            "ticks": 17520,
            "time": 117.7418825,
            "velocity": 0.6062992125984252
          },
          {
            "duration": 0.47042989583331973,
            "durationTicks": 70,
            "midi": 55,
            "name": "G3",
            "ticks": 17520,
            "time": 117.7418825,
            "velocity": 0.5748031496062992
          },
          {
            "duration": 0.47715032291667114,
            "durationTicks": 71,
            "midi": 67,
            "name": "G4",
            "ticks": 17544,
            "time": 117.90317275,
            "velocity": 0.6692913385826772
          },
          {
            "duration": 0.3494622083333212,
            "durationTicks": 52,
            "midi": 48,
            "name": "C3",
            "ticks": 17568,
            "time": 118.064463,
            "velocity": 0.5984251968503937
          },
          {
            "duration": 0.26209665625000866,
            "durationTicks": 39,
            "midi": 64,
            "name": "E4",
            "ticks": 17615,
            "time": 118.38032307291667,
            "velocity": 0.6141732283464567
          },
          {
            "duration": 0.27553751041665464,
            "durationTicks": 41,
            "midi": 60,
            "name": "C4",
            "ticks": 17615,
            "time": 118.38032307291667,
            "velocity": 0.5748031496062992
          },
          {
            "duration": 0.20833323958332528,
            "durationTicks": 31,
            "midi": 67,
            "name": "G4",
            "ticks": 17640,
            "time": 118.54833375,
            "velocity": 0.6535433070866141
          },
          {
            "duration": 0.416666479166679,
            "durationTicks": 62,
            "midi": 45,
            "name": "A2",
            "ticks": 17664,
            "time": 118.70962399999999,
            "velocity": 0.6141732283464567
          },
          {
            "duration": 0.3494622083333354,
            "durationTicks": 52,
            "midi": 64,
            "name": "E4",
            "ticks": 17712,
            "time": 119.03220449999999,
            "velocity": 0.6535433070866141
          },
          {
            "duration": 0.3561826354166726,
            "durationTicks": 53,
            "midi": 52,
            "name": "E3",
            "ticks": 17712,
            "time": 119.03220449999999,
            "velocity": 0.6456692913385826
          },
          {
            "duration": 0.49731160416666853,
            "durationTicks": 74,
            "midi": 69,
            "name": "A4",
            "ticks": 17736,
            "time": 119.19349475,
            "velocity": 0.6062992125984252
          },
          {
            "duration": 0.3427417812499982,
            "durationTicks": 51,
            "midi": 45,
            "name": "A2",
            "ticks": 17760,
            "time": 119.35478499999999,
            "velocity": 0.5984251968503937
          },
          {
            "duration": 0.4099460520833276,
            "durationTicks": 61,
            "midi": 64,
            "name": "E4",
            "ticks": 17807,
            "time": 119.67064507291667,
            "velocity": 0.5669291338582677
          },
          {
            "duration": 0.41666647916665056,
            "durationTicks": 62,
            "midi": 57,
            "name": "A3",
            "ticks": 17807,
            "time": 119.67064507291667,
            "velocity": 0.5905511811023622
          },
          {
            "duration": 0.49731160416666853,
            "durationTicks": 74,
            "midi": 69,
            "name": "A4",
            "ticks": 17832,
            "time": 119.83865575,
            "velocity": 0.5748031496062992
          },
          {
            "duration": 0.3965051979166532,
            "durationTicks": 59,
            "midi": 45,
            "name": "A2",
            "ticks": 17855,
            "time": 119.99322557291667,
            "velocity": 0.5905511811023622
          },
          {
            "duration": 0.45026861458332235,
            "durationTicks": 67,
            "midi": 64,
            "name": "E4",
            "ticks": 17904,
            "time": 120.3225265,
            "velocity": 0.6220472440944882
          },
          {
            "duration": 0.42338690625000197,
            "durationTicks": 63,
            "midi": 52,
            "name": "E3",
            "ticks": 17904,
            "time": 120.3225265,
            "velocity": 0.5984251968503937
          },
          {
            "duration": 0.48387074999999413,
            "durationTicks": 72,
            "midi": 69,
            "name": "A4",
            "ticks": 17928,
            "time": 120.48381675,
            "velocity": 0.6692913385826772
          },
          {
            "duration": 0.3427417812499982,
            "durationTicks": 51,
            "midi": 45,
            "name": "A2",
            "ticks": 17952,
            "time": 120.645107,
            "velocity": 0.6062992125984252
          },
          {
            "duration": 0.41666647916665056,
            "durationTicks": 62,
            "midi": 64,
            "name": "E4",
            "ticks": 17999,
            "time": 120.96096707291667,
            "velocity": 0.6062992125984252
          },
          {
            "duration": 0.46370946874999674,
            "durationTicks": 69,
            "midi": 57,
            "name": "A3",
            "ticks": 17999,
            "time": 120.96096707291667,
            "velocity": 0.5196850393700787
          },
          {
            "duration": 0.49731160416668274,
            "durationTicks": 74,
            "midi": 69,
            "name": "A4",
            "ticks": 18024,
            "time": 121.12897774999999,
            "velocity": 0.6062992125984252
          },
          {
            "duration": 0.3561826354166442,
            "durationTicks": 53,
            "midi": 45,
            "name": "A2",
            "ticks": 18047,
            "time": 121.28354757291667,
            "velocity": 0.5826771653543307
          },
          {
            "duration": 0.43010733333332496,
            "durationTicks": 64,
            "midi": 64,
            "name": "E4",
            "ticks": 18095,
            "time": 121.60612807291668,
            "velocity": 0.6062992125984252
          },
          {
            "duration": 0.4032256249999904,
            "durationTicks": 60,
            "midi": 52,
            "name": "E3",
            "ticks": 18095,
            "time": 121.60612807291668,
            "velocity": 0.6062992125984252
          },
          {
            "duration": 0.49731160416668274,
            "durationTicks": 74,
            "midi": 69,
            "name": "A4",
            "ticks": 18120,
            "time": 121.77413874999999,
            "velocity": 0.6692913385826772
          },
          {
            "duration": 0.3965051979166674,
            "durationTicks": 59,
            "midi": 45,
            "name": "A2",
            "ticks": 18144,
            "time": 121.935429,
            "velocity": 0.5826771653543307
          },
          {
            "duration": 0.329300927083338,
            "durationTicks": 49,
            "midi": 64,
            "name": "E4",
            "ticks": 18191,
            "time": 122.25128907291666,
            "velocity": 0.6062992125984252
          },
          {
            "duration": 0.41666647916666477,
            "durationTicks": 62,
            "midi": 57,
            "name": "A3",
            "ticks": 18192,
            "time": 122.2580095,
            "velocity": 0.5826771653543307
          },
          {
            "duration": 0.5107524583333287,
            "durationTicks": 76,
            "midi": 69,
            "name": "A4",
            "ticks": 18216,
            "time": 122.41929975,
            "velocity": 0.6456692913385826
          },
          {
            "duration": 0.3427417812499982,
            "durationTicks": 51,
            "midi": 45,
            "name": "A2",
            "ticks": 18240,
            "time": 122.58059,
            "velocity": 0.5984251968503937
          },
          {
            "duration": 0.3360213541666752,
            "durationTicks": 50,
            "midi": 64,
            "name": "E4",
            "ticks": 18288,
            "time": 122.9031705,
            "velocity": 0.5669291338582677
          },
          {
            "duration": 0.3561826354166726,
            "durationTicks": 53,
            "midi": 52,
            "name": "E3",
            "ticks": 18288,
            "time": 122.9031705,
            "velocity": 0.6062992125984252
          },
          {
            "duration": 0.47715032291667114,
            "durationTicks": 71,
            "midi": 69,
            "name": "A4",
            "ticks": 18312,
            "time": 123.06446075,
            "velocity": 0.6614173228346457
          },
          {
            "duration": 0.329300927083338,
            "durationTicks": 49,
            "midi": 45,
            "name": "A2",
            "ticks": 18335,
            "time": 123.21903057291667,
            "velocity": 0.5984251968503937
          },
          {
            "duration": 0.25537622916665725,
            "durationTicks": 38,
            "midi": 64,
            "name": "E4",
            "ticks": 18383,
            "time": 123.54161107291667,
            "velocity": 0.5905511811023622
          },
          {
            "duration": 0.3225805000000008,
            "durationTicks": 48,
            "midi": 57,
            "name": "A3",
            "ticks": 18384,
            "time": 123.5483315,
            "velocity": 0.6220472440944882
          },
          {
            "duration": 0.49059117708333133,
            "durationTicks": 73,
            "midi": 69,
            "name": "A4",
            "ticks": 18408,
            "time": 123.70962175,
            "velocity": 0.6220472440944882
          },
          {
            "duration": 0.40994605208331336,
            "durationTicks": 61,
            "midi": 48,
            "name": "C3",
            "ticks": 18432,
            "time": 123.870912,
            "velocity": 0.6062992125984252
          },
          {
            "duration": 0.3091396458333264,
            "durationTicks": 46,
            "midi": 64,
            "name": "E4",
            "ticks": 18480,
            "time": 124.19349249999999,
            "velocity": 0.5748031496062992
          },
          {
            "duration": 0.3763439166666842,
            "durationTicks": 56,
            "midi": 55,
            "name": "G3",
            "ticks": 18480,
            "time": 124.19349249999999,
            "velocity": 0.5590551181102362
          },
          {
            "duration": 0.5040320312500057,
            "durationTicks": 75,
            "midi": 67,
            "name": "G4",
            "ticks": 18504,
            "time": 124.35478275,
            "velocity": 0.5905511811023622
          },
          {
            "duration": 0.3629030625000098,
            "durationTicks": 54,
            "midi": 48,
            "name": "C3",
            "ticks": 18528,
            "time": 124.51607299999999,
            "velocity": 0.5905511811023622
          },
          {
            "duration": 0.30241921875000344,
            "durationTicks": 45,
            "midi": 64,
            "name": "E4",
            "ticks": 18576,
            "time": 124.83865349999999,
            "velocity": 0.5748031496062992
          },
          {
            "duration": 0.45026861458333656,
            "durationTicks": 67,
            "midi": 60,
            "name": "C4",
            "ticks": 18576,
            "time": 124.83865349999999,
            "velocity": 0.6220472440944882
          },
          {
            "duration": 0.5107524583333287,
            "durationTicks": 76,
            "midi": 67,
            "name": "G4",
            "ticks": 18600,
            "time": 124.99994375,
            "velocity": 0.6535433070866141
          },
          {
            "duration": 0.3494622083333354,
            "durationTicks": 52,
            "midi": 48,
            "name": "C3",
            "ticks": 18624,
            "time": 125.161234,
            "velocity": 0.6141732283464567
          },
          {
            "duration": 0.5040320312500057,
            "durationTicks": 75,
            "midi": 55,
            "name": "G3",
            "ticks": 18671,
            "time": 125.47709407291667,
            "velocity": 0.5826771653543307
          },
          {
            "duration": 0.26881708333333165,
            "durationTicks": 40,
            "midi": 64,
            "name": "E4",
            "ticks": 18672,
            "time": 125.4838145,
            "velocity": 0.5748031496062992
          },
          {
            "duration": 0.46370946874999674,
            "durationTicks": 69,
            "midi": 67,
            "name": "G4",
            "ticks": 18696,
            "time": 125.64510475,
            "velocity": 0.6614173228346457
          },
          {
            "duration": 0.3629030624999956,
            "durationTicks": 54,
            "midi": 48,
            "name": "C3",
            "ticks": 18720,
            "time": 125.806395,
            "velocity": 0.6220472440944882
          },
          {
            "duration": 0.45026861458332235,
            "durationTicks": 67,
            "midi": 60,
            "name": "C4",
            "ticks": 18767,
            "time": 126.12225507291667,
            "velocity": 0.5984251968503937
          },
          {
            "duration": 0.22177409374999968,
            "durationTicks": 33,
            "midi": 64,
            "name": "E4",
            "ticks": 18768,
            "time": 126.1289755,
            "velocity": 0.5748031496062992
          },
          {
            "duration": 0.5107524583333145,
            "durationTicks": 76,
            "midi": 67,
            "name": "G4",
            "ticks": 18792,
            "time": 126.29026575,
            "velocity": 0.6535433070866141
          },
          {
            "duration": 0.3561826354166442,
            "durationTicks": 53,
            "midi": 48,
            "name": "C3",
            "ticks": 18815,
            "time": 126.44483557291667,
            "velocity": 0.6299212598425197
          },
          {
            "duration": 0.45698904166664533,
            "durationTicks": 68,
            "midi": 55,
            "name": "G3",
            "ticks": 18863,
            "time": 126.76741607291667,
            "velocity": 0.5984251968503937
          },
          {
            "duration": 0.24865580208332005,
            "durationTicks": 37,
            "midi": 64,
            "name": "E4",
            "ticks": 18864,
            "time": 126.7741365,
            "velocity": 0.5826771653543307
          },
          {
            "duration": 0.46370946875001096,
            "durationTicks": 69,
            "midi": 67,
            "name": "G4",
            "ticks": 18888,
            "time": 126.93542674999999,
            "velocity": 0.6614173228346457
          },
          {
            "duration": 0.3494622083333212,
            "durationTicks": 52,
            "midi": 48,
            "name": "C3",
            "ticks": 18911,
            "time": 127.08999657291668,
            "velocity": 0.5905511811023622
          },
          {
            "duration": 0.24193537499999707,
            "durationTicks": 36,
            "midi": 64,
            "name": "E4",
            "ticks": 18959,
            "time": 127.41257707291668,
            "velocity": 0.5511811023622047
          },
          {
            "duration": 0.4905911770833171,
            "durationTicks": 73,
            "midi": 60,
            "name": "C4",
            "ticks": 18959,
            "time": 127.41257707291668,
            "velocity": 0.5984251968503937
          },
          {
            "duration": 0.5174728854166659,
            "durationTicks": 77,
            "midi": 67,
            "name": "G4",
            "ticks": 18984,
            "time": 127.58058774999999,
            "velocity": 0.6535433070866141
          },
          {
            "duration": 0.3696234895833328,
            "durationTicks": 55,
            "midi": 48,
            "name": "C3",
            "ticks": 19007,
            "time": 127.73515757291666,
            "velocity": 0.5984251968503937
          },
          {
            "duration": 0.25537622916667146,
            "durationTicks": 38,
            "midi": 64,
            "name": "E4",
            "ticks": 19056,
            "time": 128.0644585,
            "velocity": 0.5590551181102362
          },
          {
            "duration": 0.31586007291667784,
            "durationTicks": 47,
            "midi": 55,
            "name": "G3",
            "ticks": 19056,
            "time": 128.0644585,
            "velocity": 0.5984251968503937
          },
          {
            "duration": 0.45698904166667376,
            "durationTicks": 68,
            "midi": 67,
            "name": "G4",
            "ticks": 19080,
            "time": 128.22574875,
            "velocity": 0.6614173228346457
          },
          {
            "duration": 0.44354818749999936,
            "durationTicks": 66,
            "midi": 48,
            "name": "C3",
            "ticks": 19104,
            "time": 128.387039,
            "velocity": 0.6299212598425197
          },
          {
            "duration": 0.22849452083332267,
            "durationTicks": 34,
            "midi": 64,
            "name": "E4",
            "ticks": 19151,
            "time": 128.70289907291667,
            "velocity": 0.5748031496062992
          },
          {
            "duration": 0.22849452083332267,
            "durationTicks": 34,
            "midi": 60,
            "name": "C4",
            "ticks": 19151,
            "time": 128.70289907291667,
            "velocity": 0.6456692913385826
          },
          {
            "duration": 0.47042989583331973,
            "durationTicks": 70,
            "midi": 67,
            "name": "G4",
            "ticks": 19176,
            "time": 128.87090975,
            "velocity": 0.6377952755905512
          },
          {
            "duration": 0.3830643437500214,
            "durationTicks": 57,
            "midi": 45,
            "name": "A2",
            "ticks": 19200,
            "time": 129.0322,
            "velocity": 0.6692913385826772
          },
          {
            "duration": 0.28897836458332904,
            "durationTicks": 43,
            "midi": 64,
            "name": "E4",
            "ticks": 19248,
            "time": 129.3547805,
            "velocity": 0.5669291338582677
          },
          {
            "duration": 0.3629030624999814,
            "durationTicks": 54,
            "midi": 52,
            "name": "E3",
            "ticks": 19248,
            "time": 129.3547805,
            "velocity": 0.5826771653543307
          },
          {
            "duration": 0.5107524583333429,
            "durationTicks": 76,
            "midi": 69,
            "name": "A4",
            "ticks": 19272,
            "time": 129.51607074999998,
            "velocity": 0.5748031496062992
          },
          {
            "duration": 0.3897847708333302,
            "durationTicks": 58,
            "midi": 45,
            "name": "A2",
            "ticks": 19296,
            "time": 129.677361,
            "velocity": 0.6141732283464567
          },
          {
            "duration": 0.23521494791665987,
            "durationTicks": 35,
            "midi": 64,
            "name": "E4",
            "ticks": 19344,
            "time": 129.9999415,
            "velocity": 0.5984251968503937
          },
          {
            "duration": 0.3965051979166674,
            "durationTicks": 59,
            "midi": 57,
            "name": "A3",
            "ticks": 19344,
            "time": 129.9999415,
            "velocity": 0.6456692913385826
          },
          {
            "duration": 0.5309137395833261,
            "durationTicks": 79,
            "midi": 69,
            "name": "A4",
            "ticks": 19368,
            "time": 130.16123174999998,
            "velocity": 0.6377952755905512
          },
          {
            "duration": 0.3629030625000098,
            "durationTicks": 54,
            "midi": 45,
            "name": "A2",
            "ticks": 19392,
            "time": 130.322522,
            "velocity": 0.6141732283464567
          },
          {
            "duration": 0.23521494791665987,
            "durationTicks": 35,
            "midi": 64,
            "name": "E4",
            "ticks": 19440,
            "time": 130.6451025,
            "velocity": 0.6377952755905512
          },
          {
            "duration": 0.3561826354166726,
            "durationTicks": 53,
            "midi": 52,
            "name": "E3",
            "ticks": 19440,
            "time": 130.6451025,
            "velocity": 0.6220472440944882
          },
          {
            "duration": 0.49059117708333133,
            "durationTicks": 73,
            "midi": 69,
            "name": "A4",
            "ticks": 19464,
            "time": 130.80639275,
            "velocity": 0.6220472440944882
          },
          {
            "duration": 0.3897847708333302,
            "durationTicks": 58,
            "midi": 45,
            "name": "A2",
            "ticks": 19487,
            "time": 130.96096257291666,
            "velocity": 0.6062992125984252
          },
          {
            "duration": 0.21505366666664827,
            "durationTicks": 32,
            "midi": 64,
            "name": "E4",
            "ticks": 19536,
            "time": 131.2902635,
            "velocity": 0.6535433070866141
          },
          {
            "duration": 0.3965051979166674,
            "durationTicks": 59,
            "midi": 57,
            "name": "A3",
            "ticks": 19536,
            "time": 131.2902635,
            "velocity": 0.6299212598425197
          },
          {
            "duration": 0.5577954479166749,
            "durationTicks": 83,
            "midi": 69,
            "name": "A4",
            "ticks": 19560,
            "time": 131.45155375,
            "velocity": 0.6220472440944882
          },
          {
            "duration": 0.3897847708333302,
            "durationTicks": 58,
            "midi": 45,
            "name": "A2",
            "ticks": 19578,
            "time": 131.5725214375,
            "velocity": 0.5984251968503937
          },
          {
            "duration": 0.4099460520833418,
            "durationTicks": 61,
            "midi": 52,
            "name": "E3",
            "ticks": 19630,
            "time": 131.92198364583334,
            "velocity": 0.6377952755905512
          },
          {
            "duration": 0.24193537499999707,
            "durationTicks": 36,
            "midi": 64,
            "name": "E4",
            "ticks": 19632,
            "time": 131.9354245,
            "velocity": 0.6062992125984252
          },
          {
            "duration": 0.46370946875001096,
            "durationTicks": 69,
            "midi": 69,
            "name": "A4",
            "ticks": 19656,
            "time": 132.09671475,
            "velocity": 0.6062992125984252
          },
          {
            "duration": 0.3763439166666842,
            "durationTicks": 56,
            "midi": 45,
            "name": "A2",
            "ticks": 19680,
            "time": 132.258005,
            "velocity": 0.6141732283464567
          },
          {
            "duration": 0.383064343749993,
            "durationTicks": 57,
            "midi": 57,
            "name": "A3",
            "ticks": 19724,
            "time": 132.55370379166666,
            "velocity": 0.6456692913385826
          },
          {
            "duration": 0.2016128125000023,
            "durationTicks": 30,
            "midi": 64,
            "name": "E4",
            "ticks": 19728,
            "time": 132.58058549999998,
            "velocity": 0.6062992125984252
          },
          {
            "duration": 0.49059117708333133,
            "durationTicks": 73,
            "midi": 69,
            "name": "A4",
            "ticks": 19752,
            "time": 132.74187575,
            "velocity": 0.6456692913385826
          },
          {
            "duration": 0.3561826354166726,
            "durationTicks": 53,
            "midi": 45,
            "name": "A2",
            "ticks": 19773,
            "time": 132.88300471875,
            "velocity": 0.5905511811023622
          },
          {
            "duration": 0.30241921875000344,
            "durationTicks": 45,
            "midi": 52,
            "name": "E3",
            "ticks": 19822,
            "time": 133.2123056458333,
            "velocity": 0.6299212598425197
          },
          {
            "duration": 0.24865580208333427,
            "durationTicks": 37,
            "midi": 64,
            "name": "E4",
            "ticks": 19824,
            "time": 133.22574649999999,
            "velocity": 0.6220472440944882
          },
          {
            "duration": 0.3965051979166674,
            "durationTicks": 59,
            "midi": 69,
            "name": "A4",
            "ticks": 19848,
            "time": 133.38703675,
            "velocity": 0.6692913385826772
          },
          {
            "duration": 0.2150536666666767,
            "durationTicks": 32,
            "midi": 45,
            "name": "A2",
            "ticks": 19872,
            "time": 133.548327,
            "velocity": 0.5275590551181102
          },
          {
            "duration": 0.2150536666666767,
            "durationTicks": 32,
            "midi": 71,
            "name": "B4",
            "ticks": 19920,
            "time": 133.8709075,
            "velocity": 0.7480314960629921
          },
          {
            "duration": 0.12768811458334994,
            "durationTicks": 19,
            "midi": 47,
            "name": "B2",
            "ticks": 19920,
            "time": 133.8709075,
            "velocity": 0.7401574803149606
          },
          {
            "duration": 0.29569879166666624,
            "durationTicks": 44,
            "midi": 48,
            "name": "C3",
            "ticks": 19968,
            "time": 134.193488,
            "velocity": 0.5984251968503937
          },
          {
            "duration": 0.28225793750002026,
            "durationTicks": 42,
            "midi": 64,
            "name": "E4",
            "ticks": 20016,
            "time": 134.5160685,
            "velocity": 0.6062992125984252
          },
          {
            "duration": 0.43010733333332496,
            "durationTicks": 64,
            "midi": 67,
            "name": "G4",
            "ticks": 20040,
            "time": 134.67735875,
            "velocity": 0.6456692913385826
          },
          {
            "duration": 0.31586007291667784,
            "durationTicks": 47,
            "midi": 48,
            "name": "C3",
            "ticks": 20064,
            "time": 134.838649,
            "velocity": 0.6377952755905512
          },
          {
            "duration": 0.3293009270833238,
            "durationTicks": 49,
            "midi": 64,
            "name": "E4",
            "ticks": 20112,
            "time": 135.1612295,
            "velocity": 0.5590551181102362
          },
          {
            "duration": 0.32258050000001504,
            "durationTicks": 48,
            "midi": 60,
            "name": "C4",
            "ticks": 20112,
            "time": 135.1612295,
            "velocity": 0.5984251968503937
          },
          {
            "duration": 0.40994605208331336,
            "durationTicks": 61,
            "midi": 67,
            "name": "G4",
            "ticks": 20136,
            "time": 135.32251975,
            "velocity": 0.6535433070866141
          },
          {
            "duration": 0.30241921875000344,
            "durationTicks": 45,
            "midi": 47,
            "name": "B2",
            "ticks": 20160,
            "time": 135.48381,
            "velocity": 0.6141732283464567
          },
          {
            "duration": 0.30913964583334064,
            "durationTicks": 46,
            "midi": 55,
            "name": "G3",
            "ticks": 20208,
            "time": 135.8063905,
            "velocity": 0.5984251968503937
          },
          {
            "duration": 0.416666479166679,
            "durationTicks": 62,
            "midi": 67,
            "name": "G4",
            "ticks": 20232,
            "time": 135.96768075,
            "velocity": 0.6692913385826772
          },
          {
            "duration": 0.27553751041665464,
            "durationTicks": 41,
            "midi": 47,
            "name": "B2",
            "ticks": 20256,
            "time": 136.128971,
            "velocity": 0.5590551181102362
          },
          {
            "duration": 0.31586007291667784,
            "durationTicks": 47,
            "midi": 59,
            "name": "B3",
            "ticks": 20303,
            "time": 136.44483107291666,
            "velocity": 0.5984251968503937
          },
          {
            "duration": 0.30913964583334064,
            "durationTicks": 46,
            "midi": 62,
            "name": "D4",
            "ticks": 20304,
            "time": 136.4515515,
            "velocity": 0.5433070866141733
          },
          {
            "duration": 0.4032256250000046,
            "durationTicks": 60,
            "midi": 67,
            "name": "G4",
            "ticks": 20328,
            "time": 136.61284175,
            "velocity": 0.6456692913385826
          },
          {
            "duration": 0.349462208333307,
            "durationTicks": 52,
            "midi": 45,
            "name": "A2",
            "ticks": 20352,
            "time": 136.774132,
            "velocity": 0.6456692913385826
          },
          {
            "duration": 0.2352149479166883,
            "durationTicks": 35,
            "midi": 64,
            "name": "E4",
            "ticks": 20400,
            "time": 137.0967125,
            "velocity": 0.5905511811023622
          },
          {
            "duration": 0.28897836458332904,
            "durationTicks": 43,
            "midi": 52,
            "name": "E3",
            "ticks": 20400,
            "time": 137.0967125,
            "velocity": 0.6456692913385826
          },
          {
            "duration": 0.46370946874998253,
            "durationTicks": 69,
            "midi": 69,
            "name": "A4",
            "ticks": 20424,
            "time": 137.25800275,
            "velocity": 0.5748031496062992
          },
          {
            "duration": 0.3763439166666558,
            "durationTicks": 56,
            "midi": 45,
            "name": "A2",
            "ticks": 20448,
            "time": 137.419293,
            "velocity": 0.5984251968503937
          },
          {
            "duration": 0.25537622916667146,
            "durationTicks": 38,
            "midi": 64,
            "name": "E4",
            "ticks": 20496,
            "time": 137.7418735,
            "velocity": 0.5118110236220472
          },
          {
            "duration": 0.43010733333332496,
            "durationTicks": 64,
            "midi": 57,
            "name": "A3",
            "ticks": 20496,
            "time": 137.7418735,
            "velocity": 0.5748031496062992
          },
          {
            "duration": 0.49731160416666853,
            "durationTicks": 74,
            "midi": 69,
            "name": "A4",
            "ticks": 20520,
            "time": 137.90316375,
            "velocity": 0.6456692913385826
          },
          {
            "duration": 0.3494622083333354,
            "durationTicks": 52,
            "midi": 45,
            "name": "A2",
            "ticks": 20544,
            "time": 138.06445399999998,
            "velocity": 0.5984251968503937
          },
          {
            "duration": 0.26209665625000866,
            "durationTicks": 39,
            "midi": 64,
            "name": "E4",
            "ticks": 20592,
            "time": 138.3870345,
            "velocity": 0.5669291338582677
          },
          {
            "duration": 0.3696234895833186,
            "durationTicks": 55,
            "midi": 52,
            "name": "E3",
            "ticks": 20592,
            "time": 138.3870345,
            "velocity": 0.6456692913385826
          },
          {
            "duration": 0.43682776041666216,
            "durationTicks": 65,
            "midi": 69,
            "name": "A4",
            "ticks": 20616,
            "time": 138.54832475,
            "velocity": 0.6614173228346457
          },
          {
            "duration": 0.3561826354166726,
            "durationTicks": 53,
            "midi": 45,
            "name": "A2",
            "ticks": 20640,
            "time": 138.70961499999999,
            "velocity": 0.5826771653543307
          },
          {
            "duration": 0.3965051979166674,
            "durationTicks": 59,
            "midi": 64,
            "name": "E4",
            "ticks": 20688,
            "time": 139.0321955,
            "velocity": 0.5590551181102362
          },
          {
            "duration": 0.28897836458332904,
            "durationTicks": 43,
            "midi": 57,
            "name": "A3",
            "ticks": 20688,
            "time": 139.0321955,
            "velocity": 0.6220472440944882
          },
          {
            "duration": 0.3091396458333122,
            "durationTicks": 46,
            "midi": 69,
            "name": "A4",
            "ticks": 20712,
            "time": 139.19348575,
            "velocity": 0.6220472440944882
          },
          {
            "duration": 0.31586007291667784,
            "durationTicks": 47,
            "midi": 43,
            "name": "G2",
            "ticks": 20736,
            "time": 139.354776,
            "velocity": 0.5984251968503937
          },
          {
            "duration": 0.3561826354166726,
            "durationTicks": 53,
            "midi": 62,
            "name": "D4",
            "ticks": 20784,
            "time": 139.6773565,
            "velocity": 0.5433070866141733
          },
          {
            "duration": 0.3494622083333354,
            "durationTicks": 52,
            "midi": 50,
            "name": "D3",
            "ticks": 20784,
            "time": 139.6773565,
            "velocity": 0.6141732283464567
          },
          {
            "duration": 0.5040320312499773,
            "durationTicks": 75,
            "midi": 67,
            "name": "G4",
            "ticks": 20808,
            "time": 139.83864675,
            "velocity": 0.6062992125984252
          },
          {
            "duration": 0.3629030625000098,
            "durationTicks": 54,
            "midi": 43,
            "name": "G2",
            "ticks": 20832,
            "time": 139.999937,
            "velocity": 0.5433070866141733
          },
          {
            "duration": 0.30241921875000344,
            "durationTicks": 45,
            "midi": 62,
            "name": "D4",
            "ticks": 20880,
            "time": 140.3225175,
            "velocity": 0.5748031496062992
          },
          {
            "duration": 0.30241921875000344,
            "durationTicks": 45,
            "midi": 57,
            "name": "A3",
            "ticks": 20880,
            "time": 140.3225175,
            "velocity": 0.6141732283464567
          },
          {
            "duration": 0.45026861458333656,
            "durationTicks": 67,
            "midi": 67,
            "name": "G4",
            "ticks": 20904,
            "time": 140.48380774999998,
            "velocity": 0.6850393700787402
          },
          {
            "duration": 0.383064343749993,
            "durationTicks": 57,
            "midi": 50,
            "name": "D3",
            "ticks": 20927,
            "time": 140.63837757291668,
            "velocity": 0.6141732283464567
          },
          {
            "duration": 0.5510750208333093,
            "durationTicks": 82,
            "midi": 65,
            "name": "F4",
            "ticks": 20976,
            "time": 140.9676785,
            "velocity": 0.6220472440944882
          },
          {
            "duration": 0.3696234895833186,
            "durationTicks": 55,
            "midi": 57,
            "name": "A3",
            "ticks": 20976,
            "time": 140.9676785,
            "velocity": 0.6220472440944882
          },
          {
            "duration": 0.3897847708333302,
            "durationTicks": 58,
            "midi": 50,
            "name": "D3",
            "ticks": 21024,
            "time": 141.290259,
            "velocity": 0.5433070866141733
          },
          {
            "duration": 0.24865580208333427,
            "durationTicks": 37,
            "midi": 64,
            "name": "E4",
            "ticks": 21048,
            "time": 141.45154925,
            "velocity": 0.5905511811023622
          },
          {
            "duration": 0.30241921875000344,
            "durationTicks": 45,
            "midi": 62,
            "name": "D4",
            "ticks": 21072,
            "time": 141.6128395,
            "velocity": 0.5433070866141733
          },
          {
            "duration": 0.23521494791665987,
            "durationTicks": 35,
            "midi": 57,
            "name": "A3",
            "ticks": 21072,
            "time": 141.6128395,
            "velocity": 0.6141732283464567
          },
          {
            "duration": 0.3427417812499982,
            "durationTicks": 51,
            "midi": 45,
            "name": "A2",
            "ticks": 21120,
            "time": 141.93542,
            "velocity": 0.6692913385826772
          },
          {
            "duration": 0.3293009270833238,
            "durationTicks": 49,
            "midi": 64,
            "name": "E4",
            "ticks": 21168,
            "time": 142.2580005,
            "velocity": 0.5118110236220472
          },
          {
            "duration": 0.383064343749993,
            "durationTicks": 57,
            "midi": 52,
            "name": "E3",
            "ticks": 21168,
            "time": 142.2580005,
            "velocity": 0.5984251968503937
          },
          {
            "duration": 0.45698904166667376,
            "durationTicks": 68,
            "midi": 69,
            "name": "A4",
            "ticks": 21192,
            "time": 142.41929075,
            "velocity": 0.5511811023622047
          },
          {
            "duration": 0.3494622083333354,
            "durationTicks": 52,
            "midi": 45,
            "name": "A2",
            "ticks": 21216,
            "time": 142.580581,
            "velocity": 0.5826771653543307
          },
          {
            "duration": 0.3225804999999866,
            "durationTicks": 48,
            "midi": 64,
            "name": "E4",
            "ticks": 21264,
            "time": 142.9031615,
            "velocity": 0.6062992125984252
          },
          {
            "duration": 0.40322562499997616,
            "durationTicks": 60,
            "midi": 57,
            "name": "A3",
            "ticks": 21264,
            "time": 142.9031615,
            "velocity": 0.5433070866141733
          },
          {
            "duration": 0.49059117708333133,
            "durationTicks": 73,
            "midi": 69,
            "name": "A4",
            "ticks": 21288,
            "time": 143.06445175,
            "velocity": 0.6850393700787402
          },
          {
            "duration": 0.3561826354166726,
            "durationTicks": 53,
            "midi": 45,
            "name": "A2",
            "ticks": 21312,
            "time": 143.225742,
            "velocity": 0.6456692913385826
          },
          {
            "duration": 0.2284945208333511,
            "durationTicks": 34,
            "midi": 52,
            "name": "E3",
            "ticks": 21360,
            "time": 143.54832249999998,
            "velocity": 0.5826771653543307
          },
          {
            "duration": 0.3897847708333302,
            "durationTicks": 58,
            "midi": 60,
            "name": "C4",
            "ticks": 21408,
            "time": 143.870903,
            "velocity": 0.6456692913385826
          },
          {
            "duration": 0.3427417812499982,
            "durationTicks": 51,
            "midi": 45,
            "name": "A2",
            "ticks": 21408,
            "time": 143.870903,
            "velocity": 0.6692913385826772
          },
          {
            "duration": 0.32258050000001504,
            "durationTicks": 48,
            "midi": 62,
            "name": "D4",
            "ticks": 21456,
            "time": 144.19348349999999,
            "velocity": 0.5748031496062992
          },
          {
            "duration": 0.3427417812499982,
            "durationTicks": 51,
            "midi": 47,
            "name": "B2",
            "ticks": 21456,
            "time": 144.19348349999999,
            "velocity": 0.6535433070866141
          },
          {
            "duration": 0.336021354166661,
            "durationTicks": 50,
            "midi": 48,
            "name": "C3",
            "ticks": 21504,
            "time": 144.516064,
            "velocity": 0.6535433070866141
          },
          {
            "duration": 0.26209665625000866,
            "durationTicks": 39,
            "midi": 64,
            "name": "E4",
            "ticks": 21552,
            "time": 144.8386445,
            "velocity": 0.6456692913385826
          },
          {
            "duration": 0.3830643437500214,
            "durationTicks": 57,
            "midi": 55,
            "name": "G3",
            "ticks": 21552,
            "time": 144.8386445,
            "velocity": 0.6299212598425197
          },
          {
            "duration": 0.46370946875001096,
            "durationTicks": 69,
            "midi": 67,
            "name": "G4",
            "ticks": 21576,
            "time": 144.99993475,
            "velocity": 0.5511811023622047
          },
          {
            "duration": 0.3763439166666558,
            "durationTicks": 56,
            "midi": 48,
            "name": "C3",
            "ticks": 21599,
            "time": 145.15450457291666,
            "velocity": 0.6062992125984252
          },
          {
            "duration": 0.3225804999999866,
            "durationTicks": 48,
            "midi": 60,
            "name": "C4",
            "ticks": 21647,
            "time": 145.47708507291668,
            "velocity": 0.5826771653543307
          },
          {
            "duration": 0.29569879166669466,
            "durationTicks": 44,
            "midi": 64,
            "name": "E4",
            "ticks": 21648,
            "time": 145.4838055,
            "velocity": 0.6062992125984252
          },
          {
            "duration": 0.23521494791665987,
            "durationTicks": 35,
            "midi": 67,
            "name": "G4",
            "ticks": 21672,
            "time": 145.64509575,
            "velocity": 0.6535433070866141
          },
          {
            "duration": 0.27553751041665464,
            "durationTicks": 41,
            "midi": 47,
            "name": "B2",
            "ticks": 21696,
            "time": 145.806386,
            "velocity": 0.5984251968503937
          },
          {
            "duration": 0.3293009270833238,
            "durationTicks": 49,
            "midi": 55,
            "name": "G3",
            "ticks": 21746,
            "time": 146.14240735416666,
            "velocity": 0.6377952755905512
          },
          {
            "duration": 0.49731160416666853,
            "durationTicks": 74,
            "midi": 67,
            "name": "G4",
            "ticks": 21768,
            "time": 146.29025675,
            "velocity": 0.6535433070866141
          },
          {
            "duration": 0.28897836458332904,
            "durationTicks": 43,
            "midi": 47,
            "name": "B2",
            "ticks": 21792,
            "time": 146.451547,
            "velocity": 0.5669291338582677
          },
          {
            "duration": 0.28897836458332904,
            "durationTicks": 43,
            "midi": 59,
            "name": "B3",
            "ticks": 21840,
            "time": 146.7741275,
            "velocity": 0.6220472440944882
          },
          {
            "duration": 0.24193537499999707,
            "durationTicks": 36,
            "midi": 62,
            "name": "D4",
            "ticks": 21840,
            "time": 146.7741275,
            "velocity": 0.5669291338582677
          },
          {
            "duration": 0.42338690624998776,
            "durationTicks": 63,
            "midi": 67,
            "name": "G4",
            "ticks": 21864,
            "time": 146.93541775,
            "velocity": 0.6692913385826772
          },
          {
            "duration": 0.349462208333307,
            "durationTicks": 52,
            "midi": 45,
            "name": "A2",
            "ticks": 21888,
            "time": 147.096708,
            "velocity": 0.5590551181102362
          },
          {
            "duration": 0.33602135416668943,
            "durationTicks": 50,
            "midi": 64,
            "name": "E4",
            "ticks": 21936,
            "time": 147.4192885,
            "velocity": 0.5905511811023622
          },
          {
            "duration": 0.3561826354166726,
            "durationTicks": 53,
            "midi": 52,
            "name": "E3",
            "ticks": 21936,
            "time": 147.4192885,
            "velocity": 0.6220472440944882
          },
          {
            "duration": 0.45698904166667376,
            "durationTicks": 68,
            "midi": 69,
            "name": "A4",
            "ticks": 21960,
            "time": 147.58057875,
            "velocity": 0.6062992125984252
          },
          {
            "duration": 0.383064343749993,
            "durationTicks": 57,
            "midi": 45,
            "name": "A2",
            "ticks": 21984,
            "time": 147.741869,
            "velocity": 0.6299212598425197
          },
          {
            "duration": 0.29569879166666624,
            "durationTicks": 44,
            "midi": 64,
            "name": "E4",
            "ticks": 22032,
            "time": 148.0644495,
            "velocity": 0.5669291338582677
          },
          {
            "duration": 0.6317201458333273,
            "durationTicks": 94,
            "midi": 57,
            "name": "A3",
            "ticks": 22032,
            "time": 148.0644495,
            "velocity": 0.6141732283464567
          },
          {
            "duration": 0.5040320312500057,
            "durationTicks": 75,
            "midi": 69,
            "name": "A4",
            "ticks": 22056,
            "time": 148.22573975,
            "velocity": 0.6062992125984252
          },
          {
            "duration": 0.3293009270833238,
            "durationTicks": 49,
            "midi": 45,
            "name": "A2",
            "ticks": 22080,
            "time": 148.38703,
            "velocity": 0.6062992125984252
          },
          {
            "duration": 0.3629030625000098,
            "durationTicks": 54,
            "midi": 52,
            "name": "E3",
            "ticks": 22128,
            "time": 148.7096105,
            "velocity": 0.6456692913385826
          },
          {
            "duration": 0.28225793749999184,
            "durationTicks": 42,
            "midi": 64,
            "name": "E4",
            "ticks": 22128,
            "time": 148.7096105,
            "velocity": 0.5905511811023622
          },
          {
            "duration": 0.47715032291665693,
            "durationTicks": 71,
            "midi": 69,
            "name": "A4",
            "ticks": 22152,
            "time": 148.87090075,
            "velocity": 0.6535433070866141
          },
          {
            "duration": 0.3629030625000098,
            "durationTicks": 54,
            "midi": 45,
            "name": "A2",
            "ticks": 22176,
            "time": 149.03219099999998,
            "velocity": 0.5826771653543307
          },
          {
            "duration": 0.29569879166666624,
            "durationTicks": 44,
            "midi": 64,
            "name": "E4",
            "ticks": 22224,
            "time": 149.3547715,
            "velocity": 0.6062992125984252
          },
          {
            "duration": 0.3629030625000098,
            "durationTicks": 54,
            "midi": 57,
            "name": "A3",
            "ticks": 22224,
            "time": 149.3547715,
            "velocity": 0.6141732283464567
          },
          {
            "duration": 0.28897836458332904,
            "durationTicks": 43,
            "midi": 69,
            "name": "A4",
            "ticks": 22248,
            "time": 149.51606175,
            "velocity": 0.6299212598425197
          },
          {
            "duration": 0.3629030625000098,
            "durationTicks": 54,
            "midi": 43,
            "name": "G2",
            "ticks": 22272,
            "time": 149.67735199999998,
            "velocity": 0.5984251968503937
          },
          {
            "duration": 0.3561826354166726,
            "durationTicks": 53,
            "midi": 50,
            "name": "D3",
            "ticks": 22320,
            "time": 149.9999325,
            "velocity": 0.5984251968503937
          },
          {
            "duration": 0.29569879166666624,
            "durationTicks": 44,
            "midi": 62,
            "name": "D4",
            "ticks": 22320,
            "time": 149.9999325,
            "velocity": 0.5669291338582677
          },
          {
            "duration": 0.48387074999999413,
            "durationTicks": 72,
            "midi": 67,
            "name": "G4",
            "ticks": 22344,
            "time": 150.16122275,
            "velocity": 0.6377952755905512
          },
          {
            "duration": 0.48387075000002255,
            "durationTicks": 72,
            "midi": 43,
            "name": "G2",
            "ticks": 22368,
            "time": 150.322513,
            "velocity": 0.6141732283464567
          },
          {
            "duration": 0.29569879166666624,
            "durationTicks": 44,
            "midi": 62,
            "name": "D4",
            "ticks": 22416,
            "time": 150.6450935,
            "velocity": 0.5669291338582677
          },
          {
            "duration": 0.3494622083333354,
            "durationTicks": 52,
            "midi": 55,
            "name": "G3",
            "ticks": 22416,
            "time": 150.6450935,
            "velocity": 0.6062992125984252
          },
          {
            "duration": 0.22177409374998547,
            "durationTicks": 33,
            "midi": 67,
            "name": "G4",
            "ticks": 22440,
            "time": 150.80638375,
            "velocity": 0.6692913385826772
          },
          {
            "duration": 0.369623489583347,
            "durationTicks": 55,
            "midi": 50,
            "name": "D3",
            "ticks": 22464,
            "time": 150.967674,
            "velocity": 0.6141732283464567
          },
          {
            "duration": 0.658601854166676,
            "durationTicks": 98,
            "midi": 65,
            "name": "F4",
            "ticks": 22464,
            "time": 150.967674,
            "velocity": 0.6299212598425197
          },
          {
            "duration": 0.4032256250000046,
            "durationTicks": 60,
            "midi": 57,
            "name": "A3",
            "ticks": 22512,
            "time": 151.2902545,
            "velocity": 0.6062992125984252
          },
          {
            "duration": 0.3494622083333354,
            "durationTicks": 52,
            "midi": 64,
            "name": "E4",
            "ticks": 22560,
            "time": 151.612835,
            "velocity": 0.5905511811023622
          },
          {
            "duration": 0.3629030625000098,
            "durationTicks": 54,
            "midi": 50,
            "name": "D3",
            "ticks": 22560,
            "time": 151.612835,
            "velocity": 0.6220472440944882
          },
          {
            "duration": 0.3561826354166726,
            "durationTicks": 53,
            "midi": 62,
            "name": "D4",
            "ticks": 22608,
            "time": 151.9354155,
            "velocity": 0.5748031496062992
          },
          {
            "duration": 0.3763439166666558,
            "durationTicks": 56,
            "midi": 57,
            "name": "A3",
            "ticks": 22608,
            "time": 151.9354155,
            "velocity": 0.6299212598425197
          },
          {
            "duration": 0.3561826354166726,
            "durationTicks": 53,
            "midi": 45,
            "name": "A2",
            "ticks": 22656,
            "time": 152.257996,
            "velocity": 0.5984251968503937
          },
          {
            "duration": 0.29569879166666624,
            "durationTicks": 44,
            "midi": 64,
            "name": "E4",
            "ticks": 22704,
            "time": 152.5805765,
            "velocity": 0.4881889763779528
          },
          {
            "duration": 0.3561826354166726,
            "durationTicks": 53,
            "midi": 52,
            "name": "E3",
            "ticks": 22704,
            "time": 152.5805765,
            "velocity": 0.6299212598425197
          },
          {
            "duration": 0.4233869062500162,
            "durationTicks": 63,
            "midi": 69,
            "name": "A4",
            "ticks": 22728,
            "time": 152.74186674999999,
            "velocity": 0.6535433070866141
          },
          {
            "duration": 0.3763439166666558,
            "durationTicks": 56,
            "midi": 45,
            "name": "A2",
            "ticks": 22751,
            "time": 152.89643657291666,
            "velocity": 0.6299212598425197
          },
          {
            "duration": 0.3225804999999866,
            "durationTicks": 48,
            "midi": 57,
            "name": "A3",
            "ticks": 22799,
            "time": 153.21901707291667,
            "velocity": 0.5984251968503937
          },
          {
            "duration": 0.22177409374998547,
            "durationTicks": 33,
            "midi": 64,
            "name": "E4",
            "ticks": 22800,
            "time": 153.2257375,
            "velocity": 0.5748031496062992
          },
          {
            "duration": 0.49731160416666853,
            "durationTicks": 74,
            "midi": 69,
            "name": "A4",
            "ticks": 22824,
            "time": 153.38702775,
            "velocity": 0.6377952755905512
          },
          {
            "duration": 0.3763439166666558,
            "durationTicks": 56,
            "midi": 45,
            "name": "A2",
            "ticks": 22847,
            "time": 153.54159757291666,
            "velocity": 0.5748031496062992
          },
          {
            "duration": 0.3427417812499982,
            "durationTicks": 51,
            "midi": 52,
            "name": "E3",
            "ticks": 22896,
            "time": 153.8708985,
            "velocity": 0.6220472440944882
          },
          {
            "duration": 0.45026861458333656,
            "durationTicks": 67,
            "midi": 69,
            "name": "A4",
            "ticks": 22920,
            "time": 154.03218875,
            "velocity": 0.5905511811023622
          },
          {
            "duration": 0.43682776041666216,
            "durationTicks": 65,
            "midi": 45,
            "name": "A2",
            "ticks": 22943,
            "time": 154.18675857291666,
            "velocity": 0.5984251968503937
          },
          {
            "duration": 0.2150536666666767,
            "durationTicks": 32,
            "midi": 64,
            "name": "E4",
            "ticks": 22992,
            "time": 154.51605949999998,
            "velocity": 0.5905511811023622
          },
          {
            "duration": 0.28225793750002026,
            "durationTicks": 42,
            "midi": 57,
            "name": "A3",
            "ticks": 22992,
            "time": 154.51605949999998,
            "velocity": 0.6299212598425197
          },
          {
            "duration": 0.3561826354166726,
            "durationTicks": 53,
            "midi": 42,
            "name": "F#2",
            "ticks": 23040,
            "time": 154.83864,
            "velocity": 0.5984251968503937
          },
          {
            "duration": 0.28225793750002026,
            "durationTicks": 42,
            "midi": 62,
            "name": "D4",
            "ticks": 23088,
            "time": 155.16122049999998,
            "velocity": 0.6220472440944882
          },
          {
            "duration": 0.3561826354166726,
            "durationTicks": 53,
            "midi": 50,
            "name": "D3",
            "ticks": 23088,
            "time": 155.16122049999998,
            "velocity": 0.6062992125984252
          },
          {
            "duration": 0.4099460520833418,
            "durationTicks": 61,
            "midi": 69,
            "name": "A4",
            "ticks": 23112,
            "time": 155.32251075,
            "velocity": 0.5826771653543307
          },
          {
            "duration": 0.5174728854166801,
            "durationTicks": 77,
            "midi": 42,
            "name": "F#2",
            "ticks": 23136,
            "time": 155.483801,
            "velocity": 0.5748031496062992
          },
          {
            "duration": 0.29569879166669466,
            "durationTicks": 44,
            "midi": 54,
            "name": "F#3",
            "ticks": 23184,
            "time": 155.8063815,
            "velocity": 0.5984251968503937
          },
          {
            "duration": 0.3897847708333302,
            "durationTicks": 58,
            "midi": 43,
            "name": "G2",
            "ticks": 23232,
            "time": 156.128962,
            "velocity": 0.6062992125984252
          },
          {
            "duration": 0.27553751041668306,
            "durationTicks": 41,
            "midi": 59,
            "name": "B3",
            "ticks": 23280,
            "time": 156.4515425,
            "velocity": 0.6062992125984252
          },
          {
            "duration": 0.3561826354166726,
            "durationTicks": 53,
            "midi": 50,
            "name": "D3",
            "ticks": 23280,
            "time": 156.4515425,
            "velocity": 0.5511811023622047
          },
          {
            "duration": 0.47042989583331973,
            "durationTicks": 70,
            "midi": 67,
            "name": "G4",
            "ticks": 23304,
            "time": 156.61283275,
            "velocity": 0.6692913385826772
          },
          {
            "duration": 0.3897847708333302,
            "durationTicks": 58,
            "midi": 43,
            "name": "G2",
            "ticks": 23328,
            "time": 156.774123,
            "velocity": 0.5984251968503937
          },
          {
            "duration": 0.26881708333334586,
            "durationTicks": 40,
            "midi": 59,
            "name": "B3",
            "ticks": 23376,
            "time": 157.0967035,
            "velocity": 0.6062992125984252
          },
          {
            "duration": 0.31586007291667784,
            "durationTicks": 47,
            "midi": 55,
            "name": "G3",
            "ticks": 23376,
            "time": 157.0967035,
            "velocity": 0.6062992125984252
          },
          {
            "duration": 0.48387074999999413,
            "durationTicks": 72,
            "midi": 67,
            "name": "G4",
            "ticks": 23400,
            "time": 157.25799375,
            "velocity": 0.6220472440944882
          },
          {
            "duration": 0.336021354166661,
            "durationTicks": 50,
            "midi": 45,
            "name": "A2",
            "ticks": 23424,
            "time": 157.419284,
            "velocity": 0.6062992125984252
          },
          {
            "duration": 0.26881708333334586,
            "durationTicks": 40,
            "midi": 64,
            "name": "E4",
            "ticks": 23472,
            "time": 157.7418645,
            "velocity": 0.6141732283464567
          },
          {
            "duration": 0.44354818749999936,
            "durationTicks": 66,
            "midi": 52,
            "name": "E3",
            "ticks": 23472,
            "time": 157.7418645,
            "velocity": 0.5905511811023622
          },
          {
            "duration": 0.47042989583331973,
            "durationTicks": 70,
            "midi": 69,
            "name": "A4",
            "ticks": 23496,
            "time": 157.90315475,
            "velocity": 0.5984251968503937
          },
          {
            "duration": 0.349462208333307,
            "durationTicks": 52,
            "midi": 45,
            "name": "A2",
            "ticks": 23520,
            "time": 158.064445,
            "velocity": 0.6141732283464567
          },
          {
            "duration": 0.25537622916667146,
            "durationTicks": 38,
            "midi": 64,
            "name": "E4",
            "ticks": 23568,
            "time": 158.3870255,
            "velocity": 0.5433070866141733
          },
          {
            "duration": 0.32258050000001504,
            "durationTicks": 48,
            "midi": 57,
            "name": "A3",
            "ticks": 23568,
            "time": 158.3870255,
            "velocity": 0.5984251968503937
          },
          {
            "duration": 0.47715032291665693,
            "durationTicks": 71,
            "midi": 69,
            "name": "A4",
            "ticks": 23592,
            "time": 158.54831575,
            "velocity": 0.6062992125984252
          },
          {
            "duration": 0.3629030624999814,
            "durationTicks": 54,
            "midi": 43,
            "name": "G2",
            "ticks": 23616,
            "time": 158.709606,
            "velocity": 0.5669291338582677
          },
          {
            "duration": 0.26209665625000866,
            "durationTicks": 39,
            "midi": 64,
            "name": "E4",
            "ticks": 23664,
            "time": 159.0321865,
            "velocity": 0.5511811023622047
          },
          {
            "duration": 0.4099460520833418,
            "durationTicks": 61,
            "midi": 52,
            "name": "E3",
            "ticks": 23664,
            "time": 159.0321865,
            "velocity": 0.5433070866141733
          },
          {
            "duration": 0.45698904166667376,
            "durationTicks": 68,
            "midi": 69,
            "name": "A4",
            "ticks": 23688,
            "time": 159.19347675,
            "velocity": 0.6062992125984252
          },
          {
            "duration": 0.3427417812499982,
            "durationTicks": 51,
            "midi": 43,
            "name": "G2",
            "ticks": 23712,
            "time": 159.354767,
            "velocity": 0.5669291338582677
          },
          {
            "duration": 0.31586007291667784,
            "durationTicks": 47,
            "midi": 64,
            "name": "E4",
            "ticks": 23760,
            "time": 159.6773475,
            "velocity": 0.5984251968503937
          },
          {
            "duration": 0.3225804999999866,
            "durationTicks": 48,
            "midi": 55,
            "name": "G3",
            "ticks": 23760,
            "time": 159.6773475,
            "velocity": 0.5590551181102362
          },
          {
            "duration": 0.1612902499999791,
            "durationTicks": 24,
            "midi": 69,
            "name": "A4",
            "ticks": 23784,
            "time": 159.83863775,
            "velocity": 0.6299212598425197
          },
          {
            "duration": 0.3561826354166726,
            "durationTicks": 53,
            "midi": 42,
            "name": "F#2",
            "ticks": 23808,
            "time": 159.99992799999998,
            "velocity": 0.5984251968503937
          },
          {
            "duration": 0.28225793749999184,
            "durationTicks": 42,
            "midi": 62,
            "name": "D4",
            "ticks": 23856,
            "time": 160.3225085,
            "velocity": 0.6220472440944882
          },
          {
            "duration": 0.3561826354166726,
            "durationTicks": 53,
            "midi": 50,
            "name": "D3",
            "ticks": 23856,
            "time": 160.3225085,
            "velocity": 0.6062992125984252
          },
          {
            "duration": 0.47042989583331973,
            "durationTicks": 70,
            "midi": 69,
            "name": "A4",
            "ticks": 23880,
            "time": 160.48379875,
            "velocity": 0.5826771653543307
          },
          {
            "duration": 0.5174728854166801,
            "durationTicks": 77,
            "midi": 42,
            "name": "F#2",
            "ticks": 23904,
            "time": 160.64508899999998,
            "velocity": 0.5748031496062992
          },
          {
            "duration": 0.23521494791665987,
            "durationTicks": 35,
            "midi": 62,
            "name": "D4",
            "ticks": 23952,
            "time": 160.9676695,
            "velocity": 0.6220472440944882
          },
          {
            "duration": 0.29569879166666624,
            "durationTicks": 44,
            "midi": 54,
            "name": "F#3",
            "ticks": 23952,
            "time": 160.9676695,
            "velocity": 0.5984251968503937
          },
          {
            "duration": 0.1612902499999791,
            "durationTicks": 24,
            "midi": 69,
            "name": "A4",
            "ticks": 23976,
            "time": 161.12895975,
            "velocity": 0.6220472440944882
          },
          {
            "duration": 0.3897847708333302,
            "durationTicks": 58,
            "midi": 43,
            "name": "G2",
            "ticks": 24000,
            "time": 161.29025,
            "velocity": 0.6062992125984252
          },
          {
            "duration": 0.27553751041665464,
            "durationTicks": 41,
            "midi": 59,
            "name": "B3",
            "ticks": 24048,
            "time": 161.6128305,
            "velocity": 0.6062992125984252
          },
          {
            "duration": 0.3561826354166726,
            "durationTicks": 53,
            "midi": 50,
            "name": "D3",
            "ticks": 24048,
            "time": 161.6128305,
            "velocity": 0.5511811023622047
          },
          {
            "duration": 0.47042989583331973,
            "durationTicks": 70,
            "midi": 67,
            "name": "G4",
            "ticks": 24072,
            "time": 161.77412075,
            "velocity": 0.6692913385826772
          },
          {
            "duration": 0.3897847708333302,
            "durationTicks": 58,
            "midi": 43,
            "name": "G2",
            "ticks": 24096,
            "time": 161.935411,
            "velocity": 0.5984251968503937
          },
          {
            "duration": 0.26881708333331744,
            "durationTicks": 40,
            "midi": 59,
            "name": "B3",
            "ticks": 24144,
            "time": 162.2579915,
            "velocity": 0.6062992125984252
          },
          {
            "duration": 0.31586007291667784,
            "durationTicks": 47,
            "midi": 55,
            "name": "G3",
            "ticks": 24144,
            "time": 162.2579915,
            "velocity": 0.6062992125984252
          },
          {
            "duration": 0.4301073333333534,
            "durationTicks": 64,
            "midi": 67,
            "name": "G4",
            "ticks": 24168,
            "time": 162.41928174999998,
            "velocity": 0.6220472440944882
          },
          {
            "duration": 0.33602135416668943,
            "durationTicks": 50,
            "midi": 45,
            "name": "A2",
            "ticks": 24192,
            "time": 162.580572,
            "velocity": 0.6062992125984252
          },
          {
            "duration": 0.26881708333331744,
            "durationTicks": 40,
            "midi": 64,
            "name": "E4",
            "ticks": 24240,
            "time": 162.9031525,
            "velocity": 0.6141732283464567
          },
          {
            "duration": 0.31586007291667784,
            "durationTicks": 47,
            "midi": 52,
            "name": "E3",
            "ticks": 24240,
            "time": 162.9031525,
            "velocity": 0.5905511811023622
          },
          {
            "duration": 0.47042989583334816,
            "durationTicks": 70,
            "midi": 69,
            "name": "A4",
            "ticks": 24264,
            "time": 163.06444274999998,
            "velocity": 0.5984251968503937
          },
          {
            "duration": 0.3494622083333354,
            "durationTicks": 52,
            "midi": 45,
            "name": "A2",
            "ticks": 24288,
            "time": 163.225733,
            "velocity": 0.6141732283464567
          },
          {
            "duration": 0.3225804999999866,
            "durationTicks": 48,
            "midi": 57,
            "name": "A3",
            "ticks": 24336,
            "time": 163.5483135,
            "velocity": 0.5984251968503937
          },
          {
            "duration": 0.47715032291668535,
            "durationTicks": 71,
            "midi": 69,
            "name": "A4",
            "ticks": 24360,
            "time": 163.70960374999999,
            "velocity": 0.6062992125984252
          },
          {
            "duration": 0.3629030625000098,
            "durationTicks": 54,
            "midi": 43,
            "name": "G2",
            "ticks": 24384,
            "time": 163.870894,
            "velocity": 0.5669291338582677
          },
          {
            "duration": 0.26209665624998024,
            "durationTicks": 39,
            "midi": 64,
            "name": "E4",
            "ticks": 24432,
            "time": 164.1934745,
            "velocity": 0.5511811023622047
          },
          {
            "duration": 0.40994605208331336,
            "durationTicks": 61,
            "midi": 52,
            "name": "E3",
            "ticks": 24432,
            "time": 164.1934745,
            "velocity": 0.5433070866141733
          },
          {
            "duration": 0.45698904166667376,
            "durationTicks": 68,
            "midi": 69,
            "name": "A4",
            "ticks": 24456,
            "time": 164.35476475,
            "velocity": 0.6062992125984252
          },
          {
            "duration": 0.3427417812499982,
            "durationTicks": 51,
            "midi": 43,
            "name": "G2",
            "ticks": 24480,
            "time": 164.516055,
            "velocity": 0.5669291338582677
          },
          {
            "duration": 0.3158600729166494,
            "durationTicks": 47,
            "midi": 64,
            "name": "E4",
            "ticks": 24528,
            "time": 164.8386355,
            "velocity": 0.5984251968503937
          },
          {
            "duration": 0.3225804999999866,
            "durationTicks": 48,
            "midi": 55,
            "name": "G3",
            "ticks": 24528,
            "time": 164.8386355,
            "velocity": 0.5590551181102362
          },
          {
            "duration": 0.16129025000000752,
            "durationTicks": 24,
            "midi": 69,
            "name": "A4",
            "ticks": 24552,
            "time": 164.99992575,
            "velocity": 0.6299212598425197
          },
          {
            "duration": 0.3561826354166442,
            "durationTicks": 53,
            "midi": 42,
            "name": "F#2",
            "ticks": 24576,
            "time": 165.161216,
            "velocity": 0.5984251968503937
          },
          {
            "duration": 0.28225793750002026,
            "durationTicks": 42,
            "midi": 62,
            "name": "D4",
            "ticks": 24624,
            "time": 165.48379649999998,
            "velocity": 0.6220472440944882
          },
          {
            "duration": 0.32258050000001504,
            "durationTicks": 48,
            "midi": 50,
            "name": "D3",
            "ticks": 24624,
            "time": 165.48379649999998,
            "velocity": 0.6062992125984252
          },
          {
            "duration": 0.369623489583347,
            "durationTicks": 55,
            "midi": 69,
            "name": "A4",
            "ticks": 24648,
            "time": 165.64508675,
            "velocity": 0.5826771653543307
          },
          {
            "duration": 0.5174728854166517,
            "durationTicks": 77,
            "midi": 42,
            "name": "F#2",
            "ticks": 24672,
            "time": 165.806377,
            "velocity": 0.5748031496062992
          },
          {
            "duration": 0.29569879166666624,
            "durationTicks": 44,
            "midi": 54,
            "name": "F#3",
            "ticks": 24720,
            "time": 166.12895749999998,
            "velocity": 0.5984251968503937
          },
          {
            "duration": 0.16129025000000752,
            "durationTicks": 24,
            "midi": 69,
            "name": "A4",
            "ticks": 24744,
            "time": 166.29024775,
            "velocity": 0.6220472440944882
          },
          {
            "duration": 0.3897847708333302,
            "durationTicks": 58,
            "midi": 43,
            "name": "G2",
            "ticks": 24768,
            "time": 166.451538,
            "velocity": 0.6062992125984252
          },
          {
            "duration": 0.27553751041665464,
            "durationTicks": 41,
            "midi": 59,
            "name": "B3",
            "ticks": 24816,
            "time": 166.7741185,
            "velocity": 0.6062992125984252
          },
          {
            "duration": 0.3561826354166726,
            "durationTicks": 53,
            "midi": 50,
            "name": "D3",
            "ticks": 24816,
            "time": 166.7741185,
            "velocity": 0.5511811023622047
          },
          {
            "duration": 0.47042989583334816,
            "durationTicks": 70,
            "midi": 67,
            "name": "G4",
            "ticks": 24840,
            "time": 166.93540875,
            "velocity": 0.6692913385826772
          },
          {
            "duration": 0.3897847708333302,
            "durationTicks": 58,
            "midi": 43,
            "name": "G2",
            "ticks": 24864,
            "time": 167.096699,
            "velocity": 0.5984251968503937
          },
          {
            "duration": 0.26881708333334586,
            "durationTicks": 40,
            "midi": 59,
            "name": "B3",
            "ticks": 24912,
            "time": 167.4192795,
            "velocity": 0.6062992125984252
          },
          {
            "duration": 0.3158600729166494,
            "durationTicks": 47,
            "midi": 55,
            "name": "G3",
            "ticks": 24912,
            "time": 167.4192795,
            "velocity": 0.6062992125984252
          },
          {
            "duration": 0.48387074999999413,
            "durationTicks": 72,
            "midi": 67,
            "name": "G4",
            "ticks": 24936,
            "time": 167.58056975,
            "velocity": 0.6220472440944882
          },
          {
            "duration": 0.336021354166661,
            "durationTicks": 50,
            "midi": 45,
            "name": "A2",
            "ticks": 24960,
            "time": 167.74186,
            "velocity": 0.6062992125984252
          },
          {
            "duration": 0.26881708333334586,
            "durationTicks": 40,
            "midi": 64,
            "name": "E4",
            "ticks": 25008,
            "time": 168.0644405,
            "velocity": 0.6141732283464567
          },
          {
            "duration": 0.44354818749999936,
            "durationTicks": 66,
            "midi": 52,
            "name": "E3",
            "ticks": 25008,
            "time": 168.0644405,
            "velocity": 0.5905511811023622
          },
          {
            "duration": 0.47042989583334816,
            "durationTicks": 70,
            "midi": 69,
            "name": "A4",
            "ticks": 25032,
            "time": 168.22573075,
            "velocity": 0.5984251968503937
          },
          {
            "duration": 0.3494622083333354,
            "durationTicks": 52,
            "midi": 45,
            "name": "A2",
            "ticks": 25056,
            "time": 168.387021,
            "velocity": 0.6141732283464567
          },
          {
            "duration": 0.25537622916667146,
            "durationTicks": 38,
            "midi": 64,
            "name": "E4",
            "ticks": 25104,
            "time": 168.7096015,
            "velocity": 0.5433070866141733
          },
          {
            "duration": 0.32258050000001504,
            "durationTicks": 48,
            "midi": 57,
            "name": "A3",
            "ticks": 25104,
            "time": 168.7096015,
            "velocity": 0.5984251968503937
          },
          {
            "duration": 0.47715032291665693,
            "durationTicks": 71,
            "midi": 69,
            "name": "A4",
            "ticks": 25128,
            "time": 168.87089175,
            "velocity": 0.6062992125984252
          },
          {
            "duration": 0.3629030624999814,
            "durationTicks": 54,
            "midi": 43,
            "name": "G2",
            "ticks": 25152,
            "time": 169.032182,
            "velocity": 0.5669291338582677
          },
          {
            "duration": 0.26209665625000866,
            "durationTicks": 39,
            "midi": 64,
            "name": "E4",
            "ticks": 25200,
            "time": 169.3547625,
            "velocity": 0.5511811023622047
          },
          {
            "duration": 0.4099460520833418,
            "durationTicks": 61,
            "midi": 52,
            "name": "E3",
            "ticks": 25200,
            "time": 169.3547625,
            "velocity": 0.5433070866141733
          },
          {
            "duration": 0.45698904166664533,
            "durationTicks": 68,
            "midi": 69,
            "name": "A4",
            "ticks": 25224,
            "time": 169.51605275,
            "velocity": 0.6062992125984252
          },
          {
            "duration": 0.3427417812499982,
            "durationTicks": 51,
            "midi": 43,
            "name": "G2",
            "ticks": 25248,
            "time": 169.677343,
            "velocity": 0.5669291338582677
          },
          {
            "duration": 0.3158600729166494,
            "durationTicks": 47,
            "midi": 64,
            "name": "E4",
            "ticks": 25296,
            "time": 169.9999235,
            "velocity": 0.5984251968503937
          },
          {
            "duration": 0.32258050000001504,
            "durationTicks": 48,
            "midi": 55,
            "name": "G3",
            "ticks": 25296,
            "time": 169.9999235,
            "velocity": 0.5590551181102362
          },
          {
            "duration": 0.16129025000000752,
            "durationTicks": 24,
            "midi": 69,
            "name": "A4",
            "ticks": 25320,
            "time": 170.16121375,
            "velocity": 0.6299212598425197
          },
          {
            "duration": 0.3561826354166442,
            "durationTicks": 53,
            "midi": 42,
            "name": "F#2",
            "ticks": 25344,
            "time": 170.322504,
            "velocity": 0.5984251968503937
          },
          {
            "duration": 0.28225793749999184,
            "durationTicks": 42,
            "midi": 62,
            "name": "D4",
            "ticks": 25392,
            "time": 170.6450845,
            "velocity": 0.6220472440944882
          },
          {
            "duration": 0.3561826354166442,
            "durationTicks": 53,
            "midi": 50,
            "name": "D3",
            "ticks": 25392,
            "time": 170.6450845,
            "velocity": 0.6062992125984252
          },
          {
            "duration": 0.47042989583334816,
            "durationTicks": 70,
            "midi": 69,
            "name": "A4",
            "ticks": 25416,
            "time": 170.80637475,
            "velocity": 0.5826771653543307
          },
          {
            "duration": 0.5174728854166801,
            "durationTicks": 77,
            "midi": 42,
            "name": "F#2",
            "ticks": 25440,
            "time": 170.96766499999998,
            "velocity": 0.5748031496062992
          },
          {
            "duration": 0.23521494791665987,
            "durationTicks": 35,
            "midi": 62,
            "name": "D4",
            "ticks": 25488,
            "time": 171.2902455,
            "velocity": 0.6220472440944882
          },
          {
            "duration": 0.29569879166666624,
            "durationTicks": 44,
            "midi": 54,
            "name": "F#3",
            "ticks": 25488,
            "time": 171.2902455,
            "velocity": 0.5984251968503937
          },
          {
            "duration": 0.1612902499999791,
            "durationTicks": 24,
            "midi": 69,
            "name": "A4",
            "ticks": 25512,
            "time": 171.45153575,
            "velocity": 0.6220472440944882
          },
          {
            "duration": 0.3897847708333586,
            "durationTicks": 58,
            "midi": 43,
            "name": "G2",
            "ticks": 25536,
            "time": 171.61282599999998,
            "velocity": 0.6062992125984252
          },
          {
            "duration": 0.27553751041665464,
            "durationTicks": 41,
            "midi": 59,
            "name": "B3",
            "ticks": 25584,
            "time": 171.9354065,
            "velocity": 0.6062992125984252
          },
          {
            "duration": 0.3561826354166442,
            "durationTicks": 53,
            "midi": 50,
            "name": "D3",
            "ticks": 25584,
            "time": 171.9354065,
            "velocity": 0.5511811023622047
          },
          {
            "duration": 0.47042989583334816,
            "durationTicks": 70,
            "midi": 67,
            "name": "G4",
            "ticks": 25608,
            "time": 172.09669675,
            "velocity": 0.6692913385826772
          },
          {
            "duration": 0.3897847708333586,
            "durationTicks": 58,
            "midi": 43,
            "name": "G2",
            "ticks": 25632,
            "time": 172.25798699999999,
            "velocity": 0.5984251968503937
          },
          {
            "duration": 0.26881708333334586,
            "durationTicks": 40,
            "midi": 59,
            "name": "B3",
            "ticks": 25680,
            "time": 172.5805675,
            "velocity": 0.6062992125984252
          },
          {
            "duration": 0.3158600729166494,
            "durationTicks": 47,
            "midi": 55,
            "name": "G3",
            "ticks": 25680,
            "time": 172.5805675,
            "velocity": 0.6062992125984252
          },
          {
            "duration": 0.48387074999999413,
            "durationTicks": 72,
            "midi": 67,
            "name": "G4",
            "ticks": 25704,
            "time": 172.74185775,
            "velocity": 0.6220472440944882
          },
          {
            "duration": 0.336021354166661,
            "durationTicks": 50,
            "midi": 45,
            "name": "A2",
            "ticks": 25728,
            "time": 172.903148,
            "velocity": 0.6062992125984252
          },
          {
            "duration": 0.26881708333334586,
            "durationTicks": 40,
            "midi": 64,
            "name": "E4",
            "ticks": 25776,
            "time": 173.2257285,
            "velocity": 0.6141732283464567
          },
          {
            "duration": 0.44354818749999936,
            "durationTicks": 66,
            "midi": 52,
            "name": "E3",
            "ticks": 25776,
            "time": 173.2257285,
            "velocity": 0.5905511811023622
          },
          {
            "duration": 0.47042989583331973,
            "durationTicks": 70,
            "midi": 69,
            "name": "A4",
            "ticks": 25800,
            "time": 173.38701875,
            "velocity": 0.5984251968503937
          },
          {
            "duration": 0.34946220833336383,
            "durationTicks": 52,
            "midi": 45,
            "name": "A2",
            "ticks": 25824,
            "time": 173.548309,
            "velocity": 0.6141732283464567
          },
          {
            "duration": 0.25537622916664304,
            "durationTicks": 38,
            "midi": 64,
            "name": "E4",
            "ticks": 25872,
            "time": 173.8708895,
            "velocity": 0.5433070866141733
          },
          {
            "duration": 0.28897836458332904,
            "durationTicks": 43,
            "midi": 57,
            "name": "A3",
            "ticks": 25872,
            "time": 173.8708895,
            "velocity": 0.5984251968503937
          },
          {
            "duration": 0.29569879166666624,
            "durationTicks": 44,
            "midi": 43,
            "name": "G2",
            "ticks": 25920,
            "time": 174.19347,
            "velocity": 0.5669291338582677
          },
          {
            "duration": 0.14784939583333312,
            "durationTicks": 22,
            "midi": 64,
            "name": "E4",
            "ticks": 25968,
            "time": 174.5160505,
            "velocity": 0.5511811023622047
          },
          {
            "duration": 0.45698904166667376,
            "durationTicks": 68,
            "midi": 69,
            "name": "A4",
            "ticks": 25992,
            "time": 174.67734074999998,
            "velocity": 0.6062992125984252
          },
          {
            "duration": 0.2486558020833627,
            "durationTicks": 37,
            "midi": 43,
            "name": "G2",
            "ticks": 26016,
            "time": 174.838631,
            "velocity": 0.5669291338582677
          },
          {
            "duration": 0.3158600729166494,
            "durationTicks": 47,
            "midi": 64,
            "name": "E4",
            "ticks": 26064,
            "time": 175.1612115,
            "velocity": 0.5984251968503937
          },
          {
            "duration": 0.3225804999999866,
            "durationTicks": 48,
            "midi": 55,
            "name": "G3",
            "ticks": 26064,
            "time": 175.1612115,
            "velocity": 0.5590551181102362
          },
          {
            "duration": 0.16129025000000752,
            "durationTicks": 24,
            "midi": 69,
            "name": "A4",
            "ticks": 26088,
            "time": 175.32250175,
            "velocity": 0.6299212598425197
          },
          {
            "duration": 0.26209665625000866,
            "durationTicks": 39,
            "midi": 67,
            "name": "G4",
            "ticks": 26112,
            "time": 175.483792,
            "velocity": 0.6692913385826772
          },
          {
            "duration": 0.3494622083333354,
            "durationTicks": 52,
            "midi": 45,
            "name": "A2",
            "ticks": 26112,
            "time": 175.483792,
            "velocity": 0.5590551181102362
          },
          {
            "duration": 0.16129025000000752,
            "durationTicks": 24,
            "midi": 69,
            "name": "A4",
            "ticks": 26136,
            "time": 175.64508225,
            "velocity": 0.5669291338582677
          },
          {
            "duration": 0.3360213541666326,
            "durationTicks": 50,
            "midi": 64,
            "name": "E4",
            "ticks": 26160,
            "time": 175.8063725,
            "velocity": 0.5905511811023622
          },
          {
            "duration": 0.3561826354166442,
            "durationTicks": 53,
            "midi": 52,
            "name": "E3",
            "ticks": 26160,
            "time": 175.8063725,
            "velocity": 0.6220472440944882
          },
          {
            "duration": 0.45698904166667376,
            "durationTicks": 68,
            "midi": 69,
            "name": "A4",
            "ticks": 26184,
            "time": 175.96766275,
            "velocity": 0.6062992125984252
          },
          {
            "duration": 0.383064343749993,
            "durationTicks": 57,
            "midi": 45,
            "name": "A2",
            "ticks": 26208,
            "time": 176.128953,
            "velocity": 0.6299212598425197
          },
          {
            "duration": 0.29569879166666624,
            "durationTicks": 44,
            "midi": 64,
            "name": "E4",
            "ticks": 26256,
            "time": 176.45153349999998,
            "velocity": 0.5669291338582677
          },
          {
            "duration": 0.6317201458333557,
            "durationTicks": 94,
            "midi": 57,
            "name": "A3",
            "ticks": 26256,
            "time": 176.45153349999998,
            "velocity": 0.6141732283464567
          },
          {
            "duration": 0.5040320312500057,
            "durationTicks": 75,
            "midi": 69,
            "name": "A4",
            "ticks": 26280,
            "time": 176.61282375,
            "velocity": 0.6062992125984252
          },
          {
            "duration": 0.32930092708335224,
            "durationTicks": 49,
            "midi": 45,
            "name": "A2",
            "ticks": 26304,
            "time": 176.774114,
            "velocity": 0.6062992125984252
          },
          {
            "duration": 0.3629030625000098,
            "durationTicks": 54,
            "midi": 52,
            "name": "E3",
            "ticks": 26352,
            "time": 177.09669449999998,
            "velocity": 0.6456692913385826
          },
          {
            "duration": 0.28225793750002026,
            "durationTicks": 42,
            "midi": 64,
            "name": "E4",
            "ticks": 26352,
            "time": 177.09669449999998,
            "velocity": 0.5905511811023622
          },
          {
            "duration": 0.47715032291665693,
            "durationTicks": 71,
            "midi": 69,
            "name": "A4",
            "ticks": 26376,
            "time": 177.25798475,
            "velocity": 0.6535433070866141
          },
          {
            "duration": 0.3629030625000098,
            "durationTicks": 54,
            "midi": 45,
            "name": "A2",
            "ticks": 26400,
            "time": 177.419275,
            "velocity": 0.5826771653543307
          },
          {
            "duration": 0.29569879166666624,
            "durationTicks": 44,
            "midi": 64,
            "name": "E4",
            "ticks": 26448,
            "time": 177.74185549999999,
            "velocity": 0.6062992125984252
          },
          {
            "duration": 0.32258050000001504,
            "durationTicks": 48,
            "midi": 57,
            "name": "A3",
            "ticks": 26448,
            "time": 177.74185549999999,
            "velocity": 0.6141732283464567
          },
          {
            "duration": 0.16129025000000752,
            "durationTicks": 24,
            "midi": 69,
            "name": "A4",
            "ticks": 26472,
            "time": 177.90314575,
            "velocity": 0.6299212598425197
          },
          {
            "duration": 0.26209665625000866,
            "durationTicks": 39,
            "midi": 67,
            "name": "G4",
            "ticks": 26496,
            "time": 178.064436,
            "velocity": 0.6692913385826772
          },
          {
            "duration": 0.3494622083333354,
            "durationTicks": 52,
            "midi": 45,
            "name": "A2",
            "ticks": 26496,
            "time": 178.064436,
            "velocity": 0.5590551181102362
          },
          {
            "duration": 0.1612902499999791,
            "durationTicks": 24,
            "midi": 69,
            "name": "A4",
            "ticks": 26520,
            "time": 178.22572625,
            "velocity": 0.5669291338582677
          },
          {
            "duration": 0.336021354166661,
            "durationTicks": 50,
            "midi": 64,
            "name": "E4",
            "ticks": 26544,
            "time": 178.3870165,
            "velocity": 0.5905511811023622
          },
          {
            "duration": 0.3561826354166726,
            "durationTicks": 53,
            "midi": 52,
            "name": "E3",
            "ticks": 26544,
            "time": 178.3870165,
            "velocity": 0.6220472440944882
          },
          {
            "duration": 0.45698904166664533,
            "durationTicks": 68,
            "midi": 69,
            "name": "A4",
            "ticks": 26568,
            "time": 178.54830675,
            "velocity": 0.6062992125984252
          },
          {
            "duration": 0.383064343749993,
            "durationTicks": 57,
            "midi": 45,
            "name": "A2",
            "ticks": 26592,
            "time": 178.709597,
            "velocity": 0.6299212598425197
          },
          {
            "duration": 0.29569879166666624,
            "durationTicks": 44,
            "midi": 64,
            "name": "E4",
            "ticks": 26640,
            "time": 179.0321775,
            "velocity": 0.5669291338582677
          },
          {
            "duration": 0.6317201458333557,
            "durationTicks": 94,
            "midi": 57,
            "name": "A3",
            "ticks": 26640,
            "time": 179.0321775,
            "velocity": 0.6141732283464567
          },
          {
            "duration": 0.5040320312500057,
            "durationTicks": 75,
            "midi": 69,
            "name": "A4",
            "ticks": 26664,
            "time": 179.19346775,
            "velocity": 0.6062992125984252
          },
          {
            "duration": 0.3293009270833238,
            "durationTicks": 49,
            "midi": 45,
            "name": "A2",
            "ticks": 26688,
            "time": 179.354758,
            "velocity": 0.6062992125984252
          },
          {
            "duration": 0.3629030625000098,
            "durationTicks": 54,
            "midi": 52,
            "name": "E3",
            "ticks": 26736,
            "time": 179.6773385,
            "velocity": 0.6456692913385826
          },
          {
            "duration": 0.28225793749999184,
            "durationTicks": 42,
            "midi": 64,
            "name": "E4",
            "ticks": 26736,
            "time": 179.6773385,
            "velocity": 0.5905511811023622
          },
          {
            "duration": 0.47715032291665693,
            "durationTicks": 71,
            "midi": 69,
            "name": "A4",
            "ticks": 26760,
            "time": 179.83862875,
            "velocity": 0.6535433070866141
          },
          {
            "duration": 0.3629030624999814,
            "durationTicks": 54,
            "midi": 45,
            "name": "A2",
            "ticks": 26784,
            "time": 179.999919,
            "velocity": 0.5826771653543307
          },
          {
            "duration": 0.29569879166666624,
            "durationTicks": 44,
            "midi": 64,
            "name": "E4",
            "ticks": 26832,
            "time": 180.3224995,
            "velocity": 0.6062992125984252
          },
          {
            "duration": 0.32258050000001504,
            "durationTicks": 48,
            "midi": 57,
            "name": "A3",
            "ticks": 26832,
            "time": 180.3224995,
            "velocity": 0.6141732283464567
          },
          {
            "duration": 0.16129025000000752,
            "durationTicks": 24,
            "midi": 69,
            "name": "A4",
            "ticks": 26856,
            "time": 180.48378975,
            "velocity": 0.6299212598425197
          },
          {
            "duration": 0.26209665624998024,
            "durationTicks": 39,
            "midi": 67,
            "name": "G4",
            "ticks": 26880,
            "time": 180.64508,
            "velocity": 0.6692913385826772
          },
          {
            "duration": 0.3494622083333354,
            "durationTicks": 52,
            "midi": 45,
            "name": "A2",
            "ticks": 26880,
            "time": 180.64508,
            "velocity": 0.5590551181102362
          },
          {
            "duration": 0.18817195833335632,
            "durationTicks": 28,
            "midi": 69,
            "name": "A4",
            "ticks": 26904,
            "time": 180.80637025,
            "velocity": 0.5669291338582677
          },
          {
            "duration": 0.336021354166661,
            "durationTicks": 50,
            "midi": 64,
            "name": "E4",
            "ticks": 26928,
            "time": 180.9676605,
            "velocity": 0.5905511811023622
          },
          {
            "duration": 0.3561826354166442,
            "durationTicks": 53,
            "midi": 52,
            "name": "E3",
            "ticks": 26928,
            "time": 180.9676605,
            "velocity": 0.6220472440944882
          },
          {
            "duration": 0.45698904166664533,
            "durationTicks": 68,
            "midi": 69,
            "name": "A4",
            "ticks": 26952,
            "time": 181.12895075,
            "velocity": 0.6062992125984252
          },
          {
            "duration": 0.383064343749993,
            "durationTicks": 57,
            "midi": 45,
            "name": "A2",
            "ticks": 26976,
            "time": 181.290241,
            "velocity": 0.6299212598425197
          },
          {
            "duration": 0.29569879166666624,
            "durationTicks": 44,
            "midi": 64,
            "name": "E4",
            "ticks": 27024,
            "time": 181.6128215,
            "velocity": 0.5669291338582677
          },
          {
            "duration": 0.6317201458333557,
            "durationTicks": 94,
            "midi": 57,
            "name": "A3",
            "ticks": 27024,
            "time": 181.6128215,
            "velocity": 0.6141732283464567
          },
          {
            "duration": 0.5040320312500057,
            "durationTicks": 75,
            "midi": 69,
            "name": "A4",
            "ticks": 27048,
            "time": 181.77411175,
            "velocity": 0.6062992125984252
          },
          {
            "duration": 0.32930092708335224,
            "durationTicks": 49,
            "midi": 45,
            "name": "A2",
            "ticks": 27072,
            "time": 181.93540199999998,
            "velocity": 0.6062992125984252
          },
          {
            "duration": 0.3629030625000098,
            "durationTicks": 54,
            "midi": 52,
            "name": "E3",
            "ticks": 27120,
            "time": 182.2579825,
            "velocity": 0.6456692913385826
          },
          {
            "duration": 0.28225793749999184,
            "durationTicks": 42,
            "midi": 64,
            "name": "E4",
            "ticks": 27120,
            "time": 182.2579825,
            "velocity": 0.5905511811023622
          },
          {
            "duration": 0.47715032291665693,
            "durationTicks": 71,
            "midi": 69,
            "name": "A4",
            "ticks": 27144,
            "time": 182.41927275,
            "velocity": 0.6535433070866141
          },
          {
            "duration": 0.3629030625000098,
            "durationTicks": 54,
            "midi": 45,
            "name": "A2",
            "ticks": 27168,
            "time": 182.58056299999998,
            "velocity": 0.5826771653543307
          },
          {
            "duration": 0.2956987916666378,
            "durationTicks": 44,
            "midi": 64,
            "name": "E4",
            "ticks": 27216,
            "time": 182.9031435,
            "velocity": 0.6062992125984252
          },
          {
            "duration": 0.3225804999999866,
            "durationTicks": 48,
            "midi": 57,
            "name": "A3",
            "ticks": 27216,
            "time": 182.9031435,
            "velocity": 0.6141732283464567
          },
          {
            "duration": 0.1612902499999791,
            "durationTicks": 24,
            "midi": 69,
            "name": "A4",
            "ticks": 27240,
            "time": 183.06443375,
            "velocity": 0.6299212598425197
          },
          {
            "duration": 0.26209665625000866,
            "durationTicks": 39,
            "midi": 67,
            "name": "G4",
            "ticks": 27264,
            "time": 183.22572399999999,
            "velocity": 0.6692913385826772
          },
          {
            "duration": 0.34946220833336383,
            "durationTicks": 52,
            "midi": 45,
            "name": "A2",
            "ticks": 27264,
            "time": 183.22572399999999,
            "velocity": 0.5590551181102362
          },
          {
            "duration": 0.16129025000000752,
            "durationTicks": 24,
            "midi": 69,
            "name": "A4",
            "ticks": 27288,
            "time": 183.38701425,
            "velocity": 0.5669291338582677
          },
          {
            "duration": 0.336021354166661,
            "durationTicks": 50,
            "midi": 64,
            "name": "E4",
            "ticks": 27312,
            "time": 183.5483045,
            "velocity": 0.5905511811023622
          },
          {
            "duration": 0.3561826354166442,
            "durationTicks": 53,
            "midi": 52,
            "name": "E3",
            "ticks": 27312,
            "time": 183.5483045,
            "velocity": 0.6220472440944882
          },
          {
            "duration": 0.45698904166664533,
            "durationTicks": 68,
            "midi": 69,
            "name": "A4",
            "ticks": 27336,
            "time": 183.70959475,
            "velocity": 0.6062992125984252
          },
          {
            "duration": 0.3830643437500214,
            "durationTicks": 57,
            "midi": 45,
            "name": "A2",
            "ticks": 27360,
            "time": 183.870885,
            "velocity": 0.6299212598425197
          },
          {
            "duration": 0.2956987916666378,
            "durationTicks": 44,
            "midi": 64,
            "name": "E4",
            "ticks": 27408,
            "time": 184.1934655,
            "velocity": 0.5669291338582677
          },
          {
            "duration": 0.6317201458333273,
            "durationTicks": 94,
            "midi": 57,
            "name": "A3",
            "ticks": 27408,
            "time": 184.1934655,
            "velocity": 0.6141732283464567
          },
          {
            "duration": 0.4771503229166285,
            "durationTicks": 71,
            "midi": 69,
            "name": "A4",
            "ticks": 27432,
            "time": 184.35475575,
            "velocity": 0.6062992125984252
          },
          {
            "duration": 0.32930092708335224,
            "durationTicks": 49,
            "midi": 45,
            "name": "A2",
            "ticks": 27456,
            "time": 184.516046,
            "velocity": 0.6062992125984252
          },
          {
            "duration": 0.2083332395833395,
            "durationTicks": 31,
            "midi": 72,
            "name": "C5",
            "ticks": 27456,
            "time": 184.516046,
            "velocity": 0.7007874015748031
          },
          {
            "duration": 0.1747311041666535,
            "durationTicks": 26,
            "midi": 74,
            "name": "D5",
            "ticks": 27480,
            "time": 184.67733625,
            "velocity": 0.7165354330708661
          },
          {
            "duration": 0.24193537499999707,
            "durationTicks": 36,
            "midi": 69,
            "name": "A4",
            "ticks": 27504,
            "time": 184.8386265,
            "velocity": 0.6456692913385826
          },
          {
            "duration": 0.3629030624999814,
            "durationTicks": 54,
            "midi": 52,
            "name": "E3",
            "ticks": 27504,
            "time": 184.8386265,
            "velocity": 0.6456692913385826
          },
          {
            "duration": 0.31586007291667784,
            "durationTicks": 47,
            "midi": 71,
            "name": "B4",
            "ticks": 27528,
            "time": 184.99991674999998,
            "velocity": 0.7559055118110236
          },
          {
            "duration": 0.3629030625000098,
            "durationTicks": 54,
            "midi": 45,
            "name": "A2",
            "ticks": 27552,
            "time": 185.161207,
            "velocity": 0.5826771653543307
          },
          {
            "duration": 0.21505366666664827,
            "durationTicks": 32,
            "midi": 64,
            "name": "E4",
            "ticks": 27576,
            "time": 185.32249725,
            "velocity": 0.6614173228346457
          },
          {
            "duration": 0.369623489583347,
            "durationTicks": 55,
            "midi": 67,
            "name": "G4",
            "ticks": 27600,
            "time": 185.4837875,
            "velocity": 0.6377952755905512
          },
          {
            "duration": 0.3225804999999866,
            "durationTicks": 48,
            "midi": 57,
            "name": "A3",
            "ticks": 27600,
            "time": 185.4837875,
            "velocity": 0.6141732283464567
          },
          {
            "duration": 1.5255369479166632,
            "durationTicks": 227,
            "midi": 69,
            "name": "A4",
            "ticks": 27648,
            "time": 185.806368,
            "velocity": 0.5669291338582677
          },
          {
            "duration": 2.2580634999999916,
            "durationTicks": 336,
            "midi": 45,
            "name": "A2",
            "ticks": 27648,
            "time": 185.806368,
            "velocity": 0.5590551181102362
          }
        ]
      },
      {
        "channel": 2,
        "controlChanges": {
          "1": [
            {
              "number": 1,
              "ticks": 3403,
              "time": 22.86961336458333,
              "value": 0
            }
          ],
          "7": [
            {
              "number": 7,
              "ticks": 109,
              "time": 0.7325265520833334,
              "value": 0.7874015748031497
            }
          ],
          "10": [
            {
              "number": 10,
              "ticks": 109,
              "time": 0.7325265520833334,
              "value": 0.4881889763779528
            }
          ],
          "11": [
            {
              "number": 11,
              "ticks": 109,
              "time": 0.7325265520833334,
              "value": 1
            }
          ],
          "91": [
            {
              "number": 91,
              "ticks": 110,
              "time": 0.7392469791666666,
              "value": 0.4330708661417323
            }
          ],
          "93": [
            {
              "number": 93,
              "ticks": 110,
              "time": 0.7392469791666666,
              "value": 0.15748031496062992
            }
          ]
        },
        "pitchBends": [
          {
            "ticks": 3403,
            "time": 22.86961336458333,
            "value": 0
          }
        ],
        "instrument": {
          "family": "pipe",
          "number": 73,
          "name": "flute"
        },
        "name": "",
        "notes": [
          {
            "duration": 0.21505366666666603,
            "durationTicks": 32,
            "midi": 71,
            "name": "B4",
            "ticks": 3402,
            "time": 22.8628929375,
            "velocity": 0.8031496062992126
          },
          {
            "duration": 1.330644562499998,
            "durationTicks": 198,
            "midi": 72,
            "name": "C5",
            "ticks": 3454,
            "time": 23.21235514583333,
            "velocity": 0.6771653543307087
          },
          {
            "duration": 1.2701607187500024,
            "durationTicks": 189,
            "midi": 74,
            "name": "D5",
            "ticks": 3650,
            "time": 24.529558854166666,
            "velocity": 0.6141732283464567
          },
          {
            "duration": 1.9556442812499988,
            "durationTicks": 291,
            "midi": 76,
            "name": "E5",
            "ticks": 3837,
            "time": 25.78627871875,
            "velocity": 0.6456692913385826
          },
          {
            "duration": 0.2956987916666698,
            "durationTicks": 44,
            "midi": 79,
            "name": "G5",
            "ticks": 4224,
            "time": 28.387083999999998,
            "velocity": 0.6929133858267716
          },
          {
            "duration": 0.22177409374999968,
            "durationTicks": 33,
            "midi": 79,
            "name": "G5",
            "ticks": 4273,
            "time": 28.716384927083332,
            "velocity": 0.6456692913385826
          },
          {
            "duration": 0.28897836458333614,
            "durationTicks": 43,
            "midi": 79,
            "name": "G5",
            "ticks": 4318,
            "time": 29.018804145833332,
            "velocity": 0.5905511811023622
          },
          {
            "duration": 0.13440854166666583,
            "durationTicks": 20,
            "midi": 79,
            "name": "G5",
            "ticks": 4368,
            "time": 29.3548255,
            "velocity": 0.6614173228346457
          },
          {
            "duration": 0.4905911770833349,
            "durationTicks": 73,
            "midi": 79,
            "name": "G5",
            "ticks": 4393,
            "time": 29.52283617708333,
            "velocity": 0.6771653543307087
          },
          {
            "duration": 0.19489238541666154,
            "durationTicks": 29,
            "midi": 77,
            "name": "F5",
            "ticks": 4463,
            "time": 29.99326607291667,
            "velocity": 0.6456692913385826
          },
          {
            "duration": 0.3293009270833309,
            "durationTicks": 49,
            "midi": 76,
            "name": "E5",
            "ticks": 4514,
            "time": 30.336007854166667,
            "velocity": 0.6141732283464567
          },
          {
            "duration": 0.19489238541666865,
            "durationTicks": 29,
            "midi": 74,
            "name": "D5",
            "ticks": 4558,
            "time": 30.63170664583333,
            "velocity": 0.5511811023622047
          },
          {
            "duration": 0.3830643437500001,
            "durationTicks": 57,
            "midi": 74,
            "name": "D5",
            "ticks": 4610,
            "time": 30.98116885416667,
            "velocity": 0.6141732283464567
          },
          {
            "duration": 0.2553762291666608,
            "durationTicks": 38,
            "midi": 76,
            "name": "E5",
            "ticks": 4658,
            "time": 31.30374935416667,
            "velocity": 0.6141732283464567
          },
          {
            "duration": 1.1962360208333287,
            "durationTicks": 178,
            "midi": 76,
            "name": "E5",
            "ticks": 4704,
            "time": 31.612889,
            "velocity": 0.6614173228346457
          },
          {
            "duration": 1.2701607187499988,
            "durationTicks": 189,
            "midi": 72,
            "name": "C5",
            "ticks": 4993,
            "time": 33.55509242708333,
            "velocity": 0.7559055118110236
          },
          {
            "duration": 1.3172037083333308,
            "durationTicks": 196,
            "midi": 74,
            "name": "D5",
            "ticks": 5180,
            "time": 34.81181229166667,
            "velocity": 0.6614173228346457
          },
          {
            "duration": 1.3508058437500026,
            "durationTicks": 201,
            "midi": 76,
            "name": "E5",
            "ticks": 5371,
            "time": 36.09541386458333,
            "velocity": 0.6299212598425197
          },
          {
            "duration": 0.26881708333333165,
            "durationTicks": 40,
            "midi": 79,
            "name": "G5",
            "ticks": 5760,
            "time": 38.70966,
            "velocity": 0.7795275590551181
          },
          {
            "duration": 0.13440854166666583,
            "durationTicks": 20,
            "midi": 79,
            "name": "G5",
            "ticks": 5802,
            "time": 38.9919179375,
            "velocity": 0.5511811023622047
          },
          {
            "duration": 0.45026861458333656,
            "durationTicks": 67,
            "midi": 79,
            "name": "G5",
            "ticks": 5830,
            "time": 39.18008989583333,
            "velocity": 0.6771653543307087
          },
          {
            "duration": 0.1814515312499978,
            "durationTicks": 27,
            "midi": 79,
            "name": "G5",
            "ticks": 5900,
            "time": 39.65051979166667,
            "velocity": 0.7401574803149606
          },
          {
            "duration": 0.47042989583334105,
            "durationTicks": 70,
            "midi": 79,
            "name": "G5",
            "ticks": 5950,
            "time": 39.98654114583333,
            "velocity": 0.6929133858267716
          },
          {
            "duration": 0.1612902499999933,
            "durationTicks": 24,
            "midi": 77,
            "name": "F5",
            "ticks": 6025,
            "time": 40.490573177083334,
            "velocity": 0.7086614173228346
          },
          {
            "duration": 0.3225805000000008,
            "durationTicks": 48,
            "midi": 76,
            "name": "E5",
            "ticks": 6048,
            "time": 40.645143,
            "velocity": 0.6692913385826772
          },
          {
            "duration": 0.14784939583333312,
            "durationTicks": 22,
            "midi": 74,
            "name": "D5",
            "ticks": 6094,
            "time": 40.95428264583333,
            "velocity": 0.6456692913385826
          },
          {
            "duration": 0.3561826354166655,
            "durationTicks": 53,
            "midi": 74,
            "name": "D5",
            "ticks": 6143,
            "time": 41.28358357291667,
            "velocity": 0.7086614173228346
          },
          {
            "duration": 0.10080640625000115,
            "durationTicks": 15,
            "midi": 76,
            "name": "E5",
            "ticks": 6193,
            "time": 41.61960492708334,
            "velocity": 0.6614173228346457
          },
          {
            "duration": 1.2163973020833296,
            "durationTicks": 181,
            "midi": 76,
            "name": "E5",
            "ticks": 6220,
            "time": 41.801056458333335,
            "velocity": 0.6141732283464567
          },
          {
            "duration": 1.3104832812500007,
            "durationTicks": 195,
            "midi": 74,
            "name": "D5",
            "ticks": 6624,
            "time": 44.516109,
            "velocity": 0.6929133858267716
          },
          {
            "duration": 0.3293009270833238,
            "durationTicks": 49,
            "midi": 72,
            "name": "C5",
            "ticks": 6814,
            "time": 45.792990145833336,
            "velocity": 0.6299212598425197
          },
          {
            "duration": 0.3696234895833328,
            "durationTicks": 55,
            "midi": 71,
            "name": "B4",
            "ticks": 6861,
            "time": 46.10885021875,
            "velocity": 0.5826771653543307
          },
          {
            "duration": 1.3575262708333398,
            "durationTicks": 202,
            "midi": 69,
            "name": "A4",
            "ticks": 6911,
            "time": 46.44487157291666,
            "velocity": 0.6141732283464567
          },
          {
            "duration": 0.26209665625000156,
            "durationTicks": 39,
            "midi": 74,
            "name": "D5",
            "ticks": 7297,
            "time": 49.038956427083335,
            "velocity": 0.7244094488188977
          },
          {
            "duration": 0.11424726041667554,
            "durationTicks": 17,
            "midi": 74,
            "name": "D5",
            "ticks": 7343,
            "time": 49.34809607291666,
            "velocity": 0.5984251968503937
          },
          {
            "duration": 0.3965051979166603,
            "durationTicks": 59,
            "midi": 74,
            "name": "D5",
            "ticks": 7369,
            "time": 49.522827177083336,
            "velocity": 0.6929133858267716
          },
          {
            "duration": 0.1680106770833305,
            "durationTicks": 25,
            "midi": 74,
            "name": "D5",
            "ticks": 7435,
            "time": 49.966375364583335,
            "velocity": 0.7086614173228346
          },
          {
            "duration": 0.5309137395833332,
            "durationTicks": 79,
            "midi": 74,
            "name": "D5",
            "ticks": 7487,
            "time": 50.315837572916664,
            "velocity": 0.7244094488188977
          },
          {
            "duration": 0.49059117708333844,
            "durationTicks": 73,
            "midi": 72,
            "name": "C5",
            "ticks": 7562,
            "time": 50.81986960416666,
            "velocity": 0.6929133858267716
          },
          {
            "duration": 0.31586007291667784,
            "durationTicks": 47,
            "midi": 71,
            "name": "B4",
            "ticks": 7631,
            "time": 51.28357907291666,
            "velocity": 0.6614173228346457
          },
          {
            "duration": 1.3575262708333256,
            "durationTicks": 202,
            "midi": 69,
            "name": "A4",
            "ticks": 7678,
            "time": 51.59943914583334,
            "velocity": 0.5669291338582677
          },
          {
            "duration": 1.3172037083333379,
            "durationTicks": 196,
            "midi": 72,
            "name": "C5",
            "ticks": 8060,
            "time": 54.16664229166666,
            "velocity": 0.7716535433070866
          },
          {
            "duration": 1.2903219999999962,
            "durationTicks": 192,
            "midi": 74,
            "name": "D5",
            "ticks": 8256,
            "time": 55.483846,
            "velocity": 0.7244094488188977
          },
          {
            "duration": 1.5255369479166703,
            "durationTicks": 227,
            "midi": 76,
            "name": "E5",
            "ticks": 8444,
            "time": 56.74728629166666,
            "velocity": 0.6929133858267716
          },
          {
            "duration": 0.28897836458333614,
            "durationTicks": 43,
            "midi": 79,
            "name": "G5",
            "ticks": 8832,
            "time": 59.354811999999995,
            "velocity": 0.8188976377952756
          },
          {
            "duration": 0.26881708333333165,
            "durationTicks": 40,
            "midi": 79,
            "name": "G5",
            "ticks": 8881,
            "time": 59.68411292708333,
            "velocity": 0.6299212598425197
          },
          {
            "duration": 0.25537622916666436,
            "durationTicks": 38,
            "midi": 79,
            "name": "G5",
            "ticks": 8929,
            "time": 60.006693427083334,
            "velocity": 0.6929133858267716
          },
          {
            "duration": 0.08064512500000376,
            "durationTicks": 12,
            "midi": 79,
            "name": "G5",
            "ticks": 8975,
            "time": 60.31583307291666,
            "velocity": 0.6929133858267716
          },
          {
            "duration": 0.44354818749999936,
            "durationTicks": 66,
            "midi": 79,
            "name": "G5",
            "ticks": 8999,
            "time": 60.47712332291666,
            "velocity": 0.7244094488188977
          },
          {
            "duration": 0.12096768750000564,
            "durationTicks": 18,
            "midi": 77,
            "name": "F5",
            "ticks": 9069,
            "time": 60.947553218749995,
            "velocity": 0.7086614173228346
          },
          {
            "duration": 0.3696234895833399,
            "durationTicks": 55,
            "midi": 76,
            "name": "E5",
            "ticks": 9116,
            "time": 61.26341329166666,
            "velocity": 0.6771653543307087
          },
          {
            "duration": 0.1680106770833305,
            "durationTicks": 25,
            "midi": 74,
            "name": "D5",
            "ticks": 9166,
            "time": 61.599434645833334,
            "velocity": 0.6299212598425197
          },
          {
            "duration": 0.4032256249999975,
            "durationTicks": 60,
            "midi": 74,
            "name": "D5",
            "ticks": 9214,
            "time": 61.922015145833335,
            "velocity": 0.6456692913385826
          },
          {
            "duration": 0.20833323958333239,
            "durationTicks": 31,
            "midi": 76,
            "name": "E5",
            "ticks": 9266,
            "time": 62.27147735416666,
            "velocity": 0.5984251968503937
          },
          {
            "duration": 1.182795166666665,
            "durationTicks": 176,
            "midi": 76,
            "name": "E5",
            "ticks": 9312,
            "time": 62.580617,
            "velocity": 0.6929133858267716
          },
          {
            "duration": 1.2634402916666687,
            "durationTicks": 188,
            "midi": 72,
            "name": "C5",
            "ticks": 9605,
            "time": 64.54970213541667,
            "velocity": 0.8031496062992126
          },
          {
            "duration": 1.2567198645833315,
            "durationTicks": 187,
            "midi": 74,
            "name": "D5",
            "ticks": 9791,
            "time": 65.79970157291666,
            "velocity": 0.7952755905511811
          },
          {
            "duration": 1.3440854166666725,
            "durationTicks": 200,
            "midi": 76,
            "name": "E5",
            "ticks": 9976,
            "time": 67.04298058333333,
            "velocity": 0.6771653543307087
          },
          {
            "duration": 0.24193537499999707,
            "durationTicks": 36,
            "midi": 79,
            "name": "G5",
            "ticks": 10371,
            "time": 69.69754928125,
            "velocity": 0.5984251968503937
          },
          {
            "duration": 0.26881708333334586,
            "durationTicks": 40,
            "midi": 79,
            "name": "G5",
            "ticks": 10415,
            "time": 69.99324807291666,
            "velocity": 0.5826771653543307
          },
          {
            "duration": 0.28225793750000605,
            "durationTicks": 42,
            "midi": 79,
            "name": "G5",
            "ticks": 10464,
            "time": 70.322549,
            "velocity": 0.6299212598425197
          },
          {
            "duration": 0.1680106770833305,
            "durationTicks": 25,
            "midi": 79,
            "name": "G5",
            "ticks": 10507,
            "time": 70.61152736458334,
            "velocity": 0.5826771653543307
          },
          {
            "duration": 0.3158600729166636,
            "durationTicks": 47,
            "midi": 79,
            "name": "G5",
            "ticks": 10536,
            "time": 70.80641975,
            "velocity": 0.5826771653543307
          },
          {
            "duration": 0.22849452083333688,
            "durationTicks": 34,
            "midi": 77,
            "name": "F5",
            "ticks": 10604,
            "time": 71.26340879166666,
            "velocity": 0.6456692913385826
          },
          {
            "duration": 0.3494622083333354,
            "durationTicks": 52,
            "midi": 76,
            "name": "E5",
            "ticks": 10655,
            "time": 71.60615057291666,
            "velocity": 0.6299212598425197
          },
          {
            "duration": 0.2016128125000023,
            "durationTicks": 30,
            "midi": 74,
            "name": "D5",
            "ticks": 10703,
            "time": 71.92873107291666,
            "velocity": 0.6141732283464567
          },
          {
            "duration": 0.37634391666667,
            "durationTicks": 56,
            "midi": 74,
            "name": "D5",
            "ticks": 10751,
            "time": 72.25131157291666,
            "velocity": 0.6614173228346457
          },
          {
            "duration": 0.1747311041666535,
            "durationTicks": 26,
            "midi": 76,
            "name": "E5",
            "ticks": 10801,
            "time": 72.58733292708334,
            "velocity": 0.6614173228346457
          },
          {
            "duration": 1.659945489583336,
            "durationTicks": 247,
            "midi": 76,
            "name": "E5",
            "ticks": 10848,
            "time": 72.903193,
            "velocity": 0.5826771653543307
          },
          {
            "duration": 1.3575262708333327,
            "durationTicks": 202,
            "midi": 74,
            "name": "D5",
            "ticks": 11229,
            "time": 75.46367571875,
            "velocity": 0.6771653543307087
          },
          {
            "duration": 0.30913964583334064,
            "durationTicks": 46,
            "midi": 72,
            "name": "C5",
            "ticks": 11424,
            "time": 76.774159,
            "velocity": 0.6456692913385826
          },
          {
            "duration": 0.3561826354166726,
            "durationTicks": 53,
            "midi": 71,
            "name": "B4",
            "ticks": 11468,
            "time": 77.06985779166666,
            "velocity": 0.6141732283464567
          },
          {
            "duration": 1.5994616458333297,
            "durationTicks": 238,
            "midi": 69,
            "name": "A4",
            "ticks": 11521,
            "time": 77.42604042708334,
            "velocity": 0.6299212598425197
          },
          {
            "duration": 0.24865580208334848,
            "durationTicks": 37,
            "midi": 74,
            "name": "D5",
            "ticks": 11904,
            "time": 79.99996399999999,
            "velocity": 0.7795275590551181
          },
          {
            "duration": 0.10080640625000115,
            "durationTicks": 15,
            "midi": 74,
            "name": "D5",
            "ticks": 11950,
            "time": 80.30910364583333,
            "velocity": 0.5669291338582677
          },
          {
            "duration": 0.3494622083333354,
            "durationTicks": 52,
            "midi": 74,
            "name": "D5",
            "ticks": 11976,
            "time": 80.48383475,
            "velocity": 0.6299212598425197
          },
          {
            "duration": 0.11424726041667554,
            "durationTicks": 17,
            "midi": 74,
            "name": "D5",
            "ticks": 12044,
            "time": 80.94082379166666,
            "velocity": 0.6141732283464567
          },
          {
            "duration": 0.5107524583333429,
            "durationTicks": 76,
            "midi": 74,
            "name": "D5",
            "ticks": 12093,
            "time": 81.27012471875,
            "velocity": 0.7244094488188977
          },
          {
            "duration": 0.6989244166666566,
            "durationTicks": 104,
            "midi": 72,
            "name": "C5",
            "ticks": 12168,
            "time": 81.77415675,
            "velocity": 0.6614173228346457
          },
          {
            "duration": 0.1680106770833305,
            "durationTicks": 25,
            "midi": 74,
            "name": "D5",
            "ticks": 12268,
            "time": 82.44619945833334,
            "velocity": 0.6299212598425197
          },
          {
            "duration": 2.0967732499999983,
            "durationTicks": 312,
            "midi": 76,
            "name": "E5",
            "ticks": 12294,
            "time": 82.62093056249999,
            "velocity": 0.5905511811023622
          },
          {
            "duration": 0.3427417812499982,
            "durationTicks": 51,
            "midi": 76,
            "name": "E5",
            "ticks": 12620,
            "time": 84.81178979166667,
            "velocity": 0.6141732283464567
          },
          {
            "duration": 0.4905911770833171,
            "durationTicks": 73,
            "midi": 76,
            "name": "E5",
            "ticks": 12672,
            "time": 85.161252,
            "velocity": 0.6456692913385826
          },
          {
            "duration": 1.5860207916666695,
            "durationTicks": 236,
            "midi": 74,
            "name": "D5",
            "ticks": 12742,
            "time": 85.63168189583332,
            "velocity": 0.6141732283464567
          },
          {
            "duration": 1.9153217187500076,
            "durationTicks": 285,
            "midi": 77,
            "name": "F5",
            "ticks": 13056,
            "time": 87.741896,
            "velocity": 0.7952755905511811
          },
          {
            "duration": 0.6182792916666671,
            "durationTicks": 92,
            "midi": 79,
            "name": "G5",
            "ticks": 13345,
            "time": 89.68409942708332,
            "velocity": 0.7952755905511811
          },
          {
            "duration": 2.4798375937499912,
            "durationTicks": 369,
            "midi": 81,
            "name": "A5",
            "ticks": 13438,
            "time": 90.30909914583333,
            "velocity": 0.8031496062992126
          },
          {
            "duration": 1.3172037083333237,
            "durationTicks": 196,
            "midi": 72,
            "name": "C5",
            "ticks": 19968,
            "time": 134.193488,
            "velocity": 0.7716535433070866
          },
          {
            "duration": 1.276881145833329,
            "durationTicks": 190,
            "midi": 74,
            "name": "D5",
            "ticks": 20160,
            "time": 135.48381,
            "velocity": 0.7401574803149606
          },
          {
            "duration": 0.7190856979166824,
            "durationTicks": 107,
            "midi": 76,
            "name": "E5",
            "ticks": 20349,
            "time": 136.75397071875,
            "velocity": 0.7086614173228346
          },
          {
            "duration": 1.4516122500000108,
            "durationTicks": 216,
            "midi": 69,
            "name": "A4",
            "ticks": 20444,
            "time": 137.39241129166666,
            "velocity": 0.5511811023622047
          },
          {
            "duration": 0.2419353750000255,
            "durationTicks": 36,
            "midi": 79,
            "name": "G5",
            "ticks": 20734,
            "time": 139.3413351458333,
            "velocity": 0.6299212598425197
          },
          {
            "duration": 0.2016128125000023,
            "durationTicks": 30,
            "midi": 79,
            "name": "G5",
            "ticks": 20784,
            "time": 139.6773565,
            "velocity": 0.6141732283464567
          },
          {
            "duration": 0.22849452083332267,
            "durationTicks": 34,
            "midi": 79,
            "name": "G5",
            "ticks": 20832,
            "time": 139.999937,
            "velocity": 0.6614173228346457
          },
          {
            "duration": 0.1881719583333279,
            "durationTicks": 28,
            "midi": 81,
            "name": "A5",
            "ticks": 20880,
            "time": 140.3225175,
            "velocity": 0.6614173228346457
          },
          {
            "duration": 0.3494622083333354,
            "durationTicks": 52,
            "midi": 79,
            "name": "G5",
            "ticks": 20904,
            "time": 140.48380774999998,
            "velocity": 0.7007874015748031
          },
          {
            "duration": 0.3427417812499982,
            "durationTicks": 51,
            "midi": 77,
            "name": "F5",
            "ticks": 20952,
            "time": 140.80638825,
            "velocity": 0.6614173228346457
          },
          {
            "duration": 0.369623489583347,
            "durationTicks": 55,
            "midi": 76,
            "name": "E5",
            "ticks": 21022,
            "time": 141.27681814583332,
            "velocity": 0.5511811023622047
          },
          {
            "duration": 0.2016128125000023,
            "durationTicks": 30,
            "midi": 74,
            "name": "D5",
            "ticks": 21068,
            "time": 141.58595779166666,
            "velocity": 0.5669291338582677
          },
          {
            "duration": 0.3629030624999814,
            "durationTicks": 54,
            "midi": 74,
            "name": "D5",
            "ticks": 21117,
            "time": 141.91525871875,
            "velocity": 0.6299212598425197
          },
          {
            "duration": 0.336021354166661,
            "durationTicks": 50,
            "midi": 77,
            "name": "F5",
            "ticks": 21164,
            "time": 142.23111879166666,
            "velocity": 0.5984251968503937
          },
          {
            "duration": 1.2231177291666597,
            "durationTicks": 182,
            "midi": 76,
            "name": "E5",
            "ticks": 21212,
            "time": 142.55369929166667,
            "velocity": 0.6929133858267716
          },
          {
            "duration": 0.34274178125002663,
            "durationTicks": 51,
            "midi": 71,
            "name": "B4",
            "ticks": 21454,
            "time": 144.1800426458333,
            "velocity": 0.7401574803149606
          },
          {
            "duration": 1.2634402916666545,
            "durationTicks": 188,
            "midi": 72,
            "name": "C5",
            "ticks": 21505,
            "time": 144.52278442708334,
            "velocity": 0.6456692913385826
          },
          {
            "duration": 1.310483281250015,
            "durationTicks": 195,
            "midi": 74,
            "name": "D5",
            "ticks": 21691,
            "time": 145.77278386458332,
            "velocity": 0.7086614173228346
          },
          {
            "duration": 0.49731160416666853,
            "durationTicks": 74,
            "midi": 76,
            "name": "E5",
            "ticks": 21886,
            "time": 147.08326714583333,
            "velocity": 0.6929133858267716
          },
          {
            "duration": 0.2016128125000023,
            "durationTicks": 30,
            "midi": 74,
            "name": "D5",
            "ticks": 21954,
            "time": 147.5402561875,
            "velocity": 0.5984251968503937
          },
          {
            "duration": 1.1290317499999958,
            "durationTicks": 168,
            "midi": 72,
            "name": "C5",
            "ticks": 21985,
            "time": 147.74858942708332,
            "velocity": 0.5669291338582677
          },
          {
            "duration": 0.3225804999999866,
            "durationTicks": 48,
            "midi": 76,
            "name": "E5",
            "ticks": 22220,
            "time": 149.32788979166668,
            "velocity": 0.6614173228346457
          },
          {
            "duration": 0.3897847708333302,
            "durationTicks": 58,
            "midi": 79,
            "name": "G5",
            "ticks": 22271,
            "time": 149.67063157291668,
            "velocity": 0.7952755905511811
          },
          {
            "duration": 0.16129025000000752,
            "durationTicks": 24,
            "midi": 81,
            "name": "A5",
            "ticks": 22322,
            "time": 150.01337335416667,
            "velocity": 0.7244094488188977
          },
          {
            "duration": 0.22849452083332267,
            "durationTicks": 34,
            "midi": 79,
            "name": "G5",
            "ticks": 22371,
            "time": 150.34267428125,
            "velocity": 0.8031496062992126
          },
          {
            "duration": 0.2016128125000023,
            "durationTicks": 30,
            "midi": 77,
            "name": "F5",
            "ticks": 22399,
            "time": 150.53084623958333,
            "velocity": 0.6771653543307087
          },
          {
            "duration": 0.3629030624999814,
            "durationTicks": 54,
            "midi": 77,
            "name": "F5",
            "ticks": 22461,
            "time": 150.94751271875,
            "velocity": 0.7086614173228346
          },
          {
            "duration": 0.2083332395833395,
            "durationTicks": 31,
            "midi": 76,
            "name": "E5",
            "ticks": 22507,
            "time": 151.25665236458332,
            "velocity": 0.6614173228346457
          },
          {
            "duration": 0.3494622083333354,
            "durationTicks": 52,
            "midi": 76,
            "name": "E5",
            "ticks": 22560,
            "time": 151.612835,
            "velocity": 0.6771653543307087
          },
          {
            "duration": 0.1747311041666535,
            "durationTicks": 26,
            "midi": 74,
            "name": "D5",
            "ticks": 22606,
            "time": 151.92197464583333,
            "velocity": 0.6141732283464567
          },
          {
            "duration": 0.22849452083332267,
            "durationTicks": 34,
            "midi": 74,
            "name": "D5",
            "ticks": 22653,
            "time": 152.23783471875,
            "velocity": 0.6771653543307087
          },
          {
            "duration": 0.25537622916664304,
            "durationTicks": 38,
            "midi": 76,
            "name": "E5",
            "ticks": 22682,
            "time": 152.43272710416667,
            "velocity": 0.7559055118110236
          },
          {
            "duration": 0.5107524583333145,
            "durationTicks": 76,
            "midi": 76,
            "name": "E5",
            "ticks": 22733,
            "time": 152.77546888541667,
            "velocity": 0.7086614173228346
          },
          {
            "duration": 1.5456982291666463,
            "durationTicks": 230,
            "midi": 81,
            "name": "A5",
            "ticks": 22802,
            "time": 153.23917835416668,
            "velocity": 0.4881889763779528
          },
          {
            "duration": 0.9677415000000167,
            "durationTicks": 144,
            "midi": 72,
            "name": "C5",
            "ticks": 23184,
            "time": 155.8063815,
            "velocity": 0.6062992125984252
          },
          {
            "duration": 0.32930092708335224,
            "durationTicks": 49,
            "midi": 71,
            "name": "B4",
            "ticks": 23329,
            "time": 156.7808434270833,
            "velocity": 0.6614173228346457
          },
          {
            "duration": 0.349462208333307,
            "durationTicks": 52,
            "midi": 69,
            "name": "A4",
            "ticks": 23373,
            "time": 157.07654221875,
            "velocity": 0.6456692913385826
          },
          {
            "duration": 2.540321437500012,
            "durationTicks": 378,
            "midi": 76,
            "name": "E5",
            "ticks": 23425,
            "time": 157.4260044270833,
            "velocity": 0.6299212598425197
          },
          {
            "duration": 0.26209665625000866,
            "durationTicks": 39,
            "midi": 74,
            "name": "D5",
            "ticks": 23808,
            "time": 159.99992799999998,
            "velocity": 0.5669291338582677
          },
          {
            "duration": 0.12096768749998432,
            "durationTicks": 18,
            "midi": 74,
            "name": "D5",
            "ticks": 23856,
            "time": 160.3225085,
            "velocity": 0.5275590551181102
          },
          {
            "duration": 0.4099460520833418,
            "durationTicks": 61,
            "midi": 74,
            "name": "D5",
            "ticks": 23883,
            "time": 160.50396003125,
            "velocity": 0.6929133858267716
          },
          {
            "duration": 0.14112896874999592,
            "durationTicks": 21,
            "midi": 74,
            "name": "D5",
            "ticks": 23948,
            "time": 160.94078779166668,
            "velocity": 0.6299212598425197
          },
          {
            "duration": 0.45698904166667376,
            "durationTicks": 68,
            "midi": 74,
            "name": "D5",
            "ticks": 23998,
            "time": 161.2768091458333,
            "velocity": 0.6929133858267716
          },
          {
            "duration": 0.47042989583334816,
            "durationTicks": 70,
            "midi": 76,
            "name": "E5",
            "ticks": 24070,
            "time": 161.76067989583333,
            "velocity": 0.6929133858267716
          },
          {
            "duration": 0.3427417812499982,
            "durationTicks": 51,
            "midi": 77,
            "name": "F5",
            "ticks": 24141,
            "time": 162.23783021875,
            "velocity": 0.5669291338582677
          },
          {
            "duration": 1.216397302083351,
            "durationTicks": 181,
            "midi": 76,
            "name": "E5",
            "ticks": 24193,
            "time": 162.58729242708333,
            "velocity": 0.5984251968503937
          },
          {
            "duration": 1.3373649895833069,
            "durationTicks": 199,
            "midi": 72,
            "name": "C5",
            "ticks": 24670,
            "time": 165.79293614583335,
            "velocity": 0.6771653543307087
          },
          {
            "duration": 0.3561826354166442,
            "durationTicks": 53,
            "midi": 71,
            "name": "B4",
            "ticks": 24862,
            "time": 167.08325814583336,
            "velocity": 0.5826771653543307
          },
          {
            "duration": 0.4099460520833418,
            "durationTicks": 61,
            "midi": 69,
            "name": "A4",
            "ticks": 24909,
            "time": 167.39911821875,
            "velocity": 0.6141732283464567
          },
          {
            "duration": 1.3911284062500044,
            "durationTicks": 207,
            "midi": 76,
            "name": "E5",
            "ticks": 24960,
            "time": 167.74186,
            "velocity": 0.5669291338582677
          },
          {
            "duration": 0.26881708333331744,
            "durationTicks": 40,
            "midi": 74,
            "name": "D5",
            "ticks": 25342,
            "time": 170.30906314583333,
            "velocity": 0.6299212598425197
          },
          {
            "duration": 0.10080640625000115,
            "durationTicks": 15,
            "midi": 74,
            "name": "D5",
            "ticks": 25389,
            "time": 170.62492321874998,
            "velocity": 0.6141732283464567
          },
          {
            "duration": 0.3696234895833186,
            "durationTicks": 55,
            "midi": 74,
            "name": "D5",
            "ticks": 25411,
            "time": 170.77277261458335,
            "velocity": 0.6141732283464567
          },
          {
            "duration": 0.14784939583336154,
            "durationTicks": 22,
            "midi": 74,
            "name": "D5",
            "ticks": 25485,
            "time": 171.27008421875,
            "velocity": 0.5984251968503937
          },
          {
            "duration": 0.5779567291666581,
            "durationTicks": 86,
            "midi": 74,
            "name": "D5",
            "ticks": 25533,
            "time": 171.59266471875,
            "velocity": 0.6929133858267716
          },
          {
            "duration": 0.3494622083333354,
            "durationTicks": 52,
            "midi": 64,
            "name": "E4",
            "ticks": 25631,
            "time": 172.25126657291665,
            "velocity": 0.5669291338582677
          },
          {
            "duration": 0.3561826354166442,
            "durationTicks": 53,
            "midi": 67,
            "name": "G4",
            "ticks": 25680,
            "time": 172.5805675,
            "velocity": 0.5669291338582677
          },
          {
            "duration": 1.9422034270832853,
            "durationTicks": 289,
            "midi": 69,
            "name": "A4",
            "ticks": 25729,
            "time": 172.90986842708335,
            "velocity": 0.5354330708661418
          }
        ]
      },
      {
        "channel": 3,
        "controlChanges": {
          "1": [
            {
              "number": 1,
              "ticks": 8065,
              "time": 54.200244427083334,
              "value": 0
            }
          ],
          "7": [
            {
              "number": 7,
              "ticks": 114,
              "time": 0.7661286875,
              "value": 0.7874015748031497
            }
          ],
          "10": [
            {
              "number": 10,
              "ticks": 114,
              "time": 0.7661286875,
              "value": 0.4566929133858268
            }
          ],
          "11": [
            {
              "number": 11,
              "ticks": 114,
              "time": 0.7661286875,
              "value": 1
            }
          ],
          "91": [
            {
              "number": 91,
              "ticks": 115,
              "time": 0.7728491145833334,
              "value": 0.47244094488188976
            }
          ],
          "93": [
            {
              "number": 93,
              "ticks": 115,
              "time": 0.7728491145833334,
              "value": 0.11811023622047244
            }
          ]
        },
        "pitchBends": [
          {
            "ticks": 8065,
            "time": 54.200244427083334,
            "value": 0
          }
        ],
        "instrument": {
          "family": "pipe",
          "number": 74,
          "name": "recorder"
        },
        "name": "",
        "notes": [
          {
            "duration": 1.276881145833336,
            "durationTicks": 190,
            "midi": 72,
            "name": "C5",
            "ticks": 8064,
            "time": 54.193524,
            "velocity": 0.8031496062992126
          },
          {
            "duration": 1.2903219999999962,
            "durationTicks": 192,
            "midi": 71,
            "name": "B4",
            "ticks": 8257,
            "time": 55.49056642708334,
            "velocity": 0.7401574803149606
          },
          {
            "duration": 1.935483000000005,
            "durationTicks": 288,
            "midi": 69,
            "name": "A4",
            "ticks": 8449,
            "time": 56.78088842708333,
            "velocity": 0.7086614173228346
          },
          {
            "duration": 0.30241921875000344,
            "durationTicks": 45,
            "midi": 71,
            "name": "B4",
            "ticks": 8832,
            "time": 59.354811999999995,
            "velocity": 0.7086614173228346
          },
          {
            "duration": 0.29569879166665913,
            "durationTicks": 44,
            "midi": 71,
            "name": "B4",
            "ticks": 8878,
            "time": 59.663951645833336,
            "velocity": 0.6456692913385826
          },
          {
            "duration": 0.3629030625000027,
            "durationTicks": 54,
            "midi": 71,
            "name": "B4",
            "ticks": 8923,
            "time": 59.96637086458333,
            "velocity": 0.5511811023622047
          },
          {
            "duration": 0.1680106770833305,
            "durationTicks": 25,
            "midi": 71,
            "name": "B4",
            "ticks": 8978,
            "time": 60.335994354166665,
            "velocity": 0.5039370078740157
          },
          {
            "duration": 0.43010733333333206,
            "durationTicks": 64,
            "midi": 71,
            "name": "B4",
            "ticks": 9004,
            "time": 60.51072545833333,
            "velocity": 0.7086614173228346
          },
          {
            "duration": 0.3293009270833309,
            "durationTicks": 49,
            "midi": 69,
            "name": "A4",
            "ticks": 9068,
            "time": 60.940832791666665,
            "velocity": 0.5354330708661418
          },
          {
            "duration": 0.28897836458333614,
            "durationTicks": 43,
            "midi": 67,
            "name": "G4",
            "ticks": 9117,
            "time": 61.270133718749996,
            "velocity": 0.4566929133858268
          },
          {
            "duration": 0.3830643437500001,
            "durationTicks": 57,
            "midi": 65,
            "name": "F4",
            "ticks": 9160,
            "time": 61.55911208333333,
            "velocity": 0.3937007874015748
          },
          {
            "duration": 0.3091396458333264,
            "durationTicks": 46,
            "midi": 71,
            "name": "B4",
            "ticks": 9217,
            "time": 61.94217642708333,
            "velocity": 0.6062992125984252
          },
          {
            "duration": 0.3225805000000008,
            "durationTicks": 48,
            "midi": 72,
            "name": "C5",
            "ticks": 9263,
            "time": 62.25131607291666,
            "velocity": 0.6141732283464567
          },
          {
            "duration": 1.3037628541666635,
            "durationTicks": 194,
            "midi": 72,
            "name": "C5",
            "ticks": 9312,
            "time": 62.580617,
            "velocity": 0.5511811023622047
          },
          {
            "duration": 1.229838156249997,
            "durationTicks": 183,
            "midi": 72,
            "name": "C5",
            "ticks": 9605,
            "time": 64.54970213541667,
            "velocity": 0.6929133858267716
          },
          {
            "duration": 1.2768811458333431,
            "durationTicks": 190,
            "midi": 71,
            "name": "B4",
            "ticks": 9794,
            "time": 65.81986285416666,
            "velocity": 0.7874015748031497
          },
          {
            "duration": 1.9758055624999997,
            "durationTicks": 294,
            "midi": 69,
            "name": "A4",
            "ticks": 9986,
            "time": 67.11018485416666,
            "velocity": 0.6614173228346457
          },
          {
            "duration": 0.29569879166666624,
            "durationTicks": 44,
            "midi": 71,
            "name": "B4",
            "ticks": 10368,
            "time": 69.677388,
            "velocity": 0.6614173228346457
          },
          {
            "duration": 0.3225805000000008,
            "durationTicks": 48,
            "midi": 71,
            "name": "B4",
            "ticks": 10413,
            "time": 69.97980721875,
            "velocity": 0.5826771653543307
          },
          {
            "duration": 0.30241921875000344,
            "durationTicks": 45,
            "midi": 71,
            "name": "B4",
            "ticks": 10462,
            "time": 70.30910814583333,
            "velocity": 0.6771653543307087
          },
          {
            "duration": 0.1747311041666677,
            "durationTicks": 26,
            "midi": 71,
            "name": "B4",
            "ticks": 10508,
            "time": 70.61824779166666,
            "velocity": 0.5826771653543307
          },
          {
            "duration": 0.43682776041666216,
            "durationTicks": 65,
            "midi": 71,
            "name": "B4",
            "ticks": 10535,
            "time": 70.79969932291667,
            "velocity": 0.6456692913385826
          },
          {
            "duration": 0.3494622083333354,
            "durationTicks": 52,
            "midi": 69,
            "name": "A4",
            "ticks": 10600,
            "time": 71.23652708333333,
            "velocity": 0.6771653543307087
          },
          {
            "duration": 0.3225805000000008,
            "durationTicks": 48,
            "midi": 67,
            "name": "G4",
            "ticks": 10652,
            "time": 71.58598929166666,
            "velocity": 0.5196850393700787
          },
          {
            "duration": 0.3494622083333354,
            "durationTicks": 52,
            "midi": 65,
            "name": "F4",
            "ticks": 10700,
            "time": 71.90856979166666,
            "velocity": 0.5511811023622047
          },
          {
            "duration": 0.3225805000000008,
            "durationTicks": 48,
            "midi": 71,
            "name": "B4",
            "ticks": 10752,
            "time": 72.258032,
            "velocity": 0.6141732283464567
          },
          {
            "duration": 0.29569879166666624,
            "durationTicks": 44,
            "midi": 72,
            "name": "C5",
            "ticks": 10800,
            "time": 72.5806125,
            "velocity": 0.6456692913385826
          },
          {
            "duration": 1.653225062499999,
            "durationTicks": 246,
            "midi": 72,
            "name": "C5",
            "ticks": 10845,
            "time": 72.88303171875,
            "velocity": 0.4409448818897638
          },
          {
            "duration": 0.29569879166666624,
            "durationTicks": 44,
            "midi": 69,
            "name": "A4",
            "ticks": 11904,
            "time": 79.99996399999999,
            "velocity": 0.7401574803149606
          },
          {
            "duration": 0.16129025000000752,
            "durationTicks": 24,
            "midi": 69,
            "name": "A4",
            "ticks": 11949,
            "time": 80.30238321875,
            "velocity": 0.6299212598425197
          },
          {
            "duration": 0.45698904166667376,
            "durationTicks": 68,
            "midi": 69,
            "name": "A4",
            "ticks": 11975,
            "time": 80.47711432291666,
            "velocity": 0.6929133858267716
          },
          {
            "duration": 0.3494622083333354,
            "durationTicks": 52,
            "midi": 69,
            "name": "A4",
            "ticks": 12044,
            "time": 80.94082379166666,
            "velocity": 0.6299212598425197
          },
          {
            "duration": 0.49731160416666853,
            "durationTicks": 74,
            "midi": 71,
            "name": "B4",
            "ticks": 12096,
            "time": 81.290286,
            "velocity": 0.6141732283464567
          },
          {
            "duration": 0.6384405729166645,
            "durationTicks": 95,
            "midi": 69,
            "name": "A4",
            "ticks": 12170,
            "time": 81.78759760416666,
            "velocity": 0.7401574803149606
          },
          {
            "duration": 0.1814515312499907,
            "durationTicks": 27,
            "midi": 71,
            "name": "B4",
            "ticks": 12265,
            "time": 82.42603817708333,
            "velocity": 0.5354330708661418
          },
          {
            "duration": 2.204300083333351,
            "durationTicks": 328,
            "midi": 72,
            "name": "C5",
            "ticks": 12292,
            "time": 82.60748970833332,
            "velocity": 0.6771653543307087
          },
          {
            "duration": 0.3427417812499982,
            "durationTicks": 51,
            "midi": 72,
            "name": "C5",
            "ticks": 12623,
            "time": 84.83195107291667,
            "velocity": 0.6614173228346457
          },
          {
            "duration": 0.43010733333332496,
            "durationTicks": 64,
            "midi": 72,
            "name": "C5",
            "ticks": 12675,
            "time": 85.18141328125,
            "velocity": 0.6456692913385826
          },
          {
            "duration": 1.7271497604166797,
            "durationTicks": 257,
            "midi": 71,
            "name": "B4",
            "ticks": 12742,
            "time": 85.63168189583332,
            "velocity": 0.6220472440944882
          }
        ]
      },
      {
        "channel": 4,
        "controlChanges": {
          "1": [
            {
              "number": 1,
              "ticks": 11137,
              "time": 74.84539642708333,
              "value": 0
            }
          ],
          "7": [
            {
              "number": 7,
              "ticks": 119,
              "time": 0.7997308229166666,
              "value": 0.7874015748031497
            }
          ],
          "10": [
            {
              "number": 10,
              "ticks": 119,
              "time": 0.7997308229166666,
              "value": 0.4566929133858268
            }
          ],
          "11": [
            {
              "number": 11,
              "ticks": 119,
              "time": 0.7997308229166666,
              "value": 1
            }
          ],
          "91": [
            {
              "number": 91,
              "ticks": 120,
              "time": 0.80645125,
              "value": 0.47244094488188976
            }
          ],
          "93": [
            {
              "number": 93,
              "ticks": 120,
              "time": 0.80645125,
              "value": 0.11811023622047244
            }
          ]
        },
        "pitchBends": [
          {
            "ticks": 11137,
            "time": 74.84539642708333,
            "value": 0
          }
        ],
        "instrument": {
          "family": "pipe",
          "number": 74,
          "name": "recorder"
        },
        "name": "",
        "notes": [
          {
            "duration": 1.2432790104166713,
            "durationTicks": 185,
            "midi": 66,
            "name": "F#4",
            "ticks": 11136,
            "time": 74.83867599999999,
            "velocity": 0.5118110236220472
          },
          {
            "duration": 1.2634402916666687,
            "durationTicks": 188,
            "midi": 69,
            "name": "A4",
            "ticks": 11136,
            "time": 74.83867599999999,
            "velocity": 0.6141732283464567
          },
          {
            "duration": 1.2499994374999943,
            "durationTicks": 186,
            "midi": 67,
            "name": "G4",
            "ticks": 11324,
            "time": 76.10211629166666,
            "velocity": 0.5275590551181102
          },
          {
            "duration": 1.2499994374999943,
            "durationTicks": 186,
            "midi": 71,
            "name": "B4",
            "ticks": 11326,
            "time": 76.11555714583334,
            "velocity": 0.6220472440944882
          },
          {
            "duration": 1.9623647083333395,
            "durationTicks": 292,
            "midi": 69,
            "name": "A4",
            "ticks": 11511,
            "time": 77.35883615624999,
            "velocity": 0.5433070866141733
          },
          {
            "duration": 1.9489238541666651,
            "durationTicks": 290,
            "midi": 72,
            "name": "C5",
            "ticks": 11513,
            "time": 77.37227701041667,
            "velocity": 0.5669291338582677
          },
          {
            "duration": 0.30241921875000344,
            "durationTicks": 45,
            "midi": 72,
            "name": "C5",
            "ticks": 24192,
            "time": 162.580572,
            "velocity": 0.7165354330708661
          },
          {
            "duration": 0.1612902499999791,
            "durationTicks": 24,
            "midi": 72,
            "name": "C5",
            "ticks": 24238,
            "time": 162.88971164583333,
            "velocity": 0.6614173228346457
          },
          {
            "duration": 0.46370946874998253,
            "durationTicks": 69,
            "midi": 72,
            "name": "C5",
            "ticks": 24263,
            "time": 163.05772232291667,
            "velocity": 0.6771653543307087
          },
          {
            "duration": 0.336021354166661,
            "durationTicks": 50,
            "midi": 72,
            "name": "C5",
            "ticks": 24333,
            "time": 163.52815221875,
            "velocity": 0.6692913385826772
          },
          {
            "duration": 0.47042989583331973,
            "durationTicks": 70,
            "midi": 72,
            "name": "C5",
            "ticks": 24384,
            "time": 163.870894,
            "velocity": 0.7086614173228346
          },
          {
            "duration": 0.47042989583334816,
            "durationTicks": 70,
            "midi": 71,
            "name": "B4",
            "ticks": 24454,
            "time": 164.3413238958333,
            "velocity": 0.7086614173228346
          },
          {
            "duration": 0.32258050000001504,
            "durationTicks": 48,
            "midi": 69,
            "name": "A4",
            "ticks": 24524,
            "time": 164.81175379166666,
            "velocity": 0.6299212598425197
          },
          {
            "duration": 1.364246697916684,
            "durationTicks": 203,
            "midi": 69,
            "name": "A4",
            "ticks": 24574,
            "time": 165.14777514583332,
            "velocity": 0.5984251968503937
          },
          {
            "duration": 0.3091396458333122,
            "durationTicks": 46,
            "midi": 72,
            "name": "C5",
            "ticks": 24961,
            "time": 167.74858042708334,
            "velocity": 0.7244094488188977
          },
          {
            "duration": 0.1747311041666535,
            "durationTicks": 26,
            "midi": 72,
            "name": "C5",
            "ticks": 25008,
            "time": 168.0644405,
            "velocity": 0.6299212598425197
          },
          {
            "duration": 0.42338690624998776,
            "durationTicks": 63,
            "midi": 72,
            "name": "C5",
            "ticks": 25035,
            "time": 168.24589203125,
            "velocity": 0.6929133858267716
          },
          {
            "duration": 0.3427417812499982,
            "durationTicks": 51,
            "midi": 72,
            "name": "C5",
            "ticks": 25099,
            "time": 168.67599936458333,
            "velocity": 0.6141732283464567
          },
          {
            "duration": 0.46370946875001096,
            "durationTicks": 69,
            "midi": 72,
            "name": "C5",
            "ticks": 25151,
            "time": 169.02546157291664,
            "velocity": 0.7086614173228346
          },
          {
            "duration": 0.46370946875001096,
            "durationTicks": 69,
            "midi": 71,
            "name": "B4",
            "ticks": 25221,
            "time": 169.49589146875,
            "velocity": 0.6771653543307087
          },
          {
            "duration": 0.3561826354166442,
            "durationTicks": 53,
            "midi": 69,
            "name": "A4",
            "ticks": 25290,
            "time": 169.9596009375,
            "velocity": 0.7086614173228346
          },
          {
            "duration": 1.4516122499999824,
            "durationTicks": 216,
            "midi": 69,
            "name": "A4",
            "ticks": 25344,
            "time": 170.322504,
            "velocity": 0.6299212598425197
          }
        ]
      },
      {
        "channel": 5,
        "controlChanges": {
          "1": [
            {
              "number": 1,
              "ticks": 14401,
              "time": 96.78087042708333,
              "value": 0
            }
          ],
          "7": [
            {
              "number": 7,
              "ticks": 124,
              "time": 0.8333329583333333,
              "value": 0.8267716535433071
            }
          ],
          "10": [
            {
              "number": 10,
              "ticks": 124,
              "time": 0.8333329583333333,
              "value": 0.7874015748031497
            }
          ],
          "11": [
            {
              "number": 11,
              "ticks": 124,
              "time": 0.8333329583333333,
              "value": 1
            }
          ],
          "91": [
            {
              "number": 91,
              "ticks": 125,
              "time": 0.8400533854166666,
              "value": 0.6299212598425197
            }
          ],
          "93": [
            {
              "number": 93,
              "ticks": 125,
              "time": 0.8400533854166666,
              "value": 0
            }
          ]
        },
        "pitchBends": [
          {
            "ticks": 14401,
            "time": 96.78087042708333,
            "value": 0
          }
        ],
        "instrument": {
          "family": "strings",
          "number": 40,
          "name": "violin"
        },
        "name": "",
        "notes": [
          {
            "duration": 0.12096768750001274,
            "durationTicks": 18,
            "midi": 67,
            "name": "G4",
            "ticks": 14400,
            "time": 96.77414999999999,
            "velocity": 0.7007874015748031
          },
          {
            "duration": 0.12768811458332152,
            "durationTicks": 19,
            "midi": 69,
            "name": "A4",
            "ticks": 14424,
            "time": 96.93544025,
            "velocity": 0.6299212598425197
          },
          {
            "duration": 0.12768811458333573,
            "durationTicks": 19,
            "midi": 71,
            "name": "B4",
            "ticks": 14448,
            "time": 97.09673049999999,
            "velocity": 0.6850393700787402
          },
          {
            "duration": 0.10752683333332413,
            "durationTicks": 16,
            "midi": 72,
            "name": "C5",
            "ticks": 14472,
            "time": 97.25802075,
            "velocity": 0.5984251968503937
          },
          {
            "duration": 0.6518814270833246,
            "durationTicks": 97,
            "midi": 74,
            "name": "D5",
            "ticks": 14496,
            "time": 97.419311,
            "velocity": 0.6771653543307087
          },
          {
            "duration": 0.10080640625000115,
            "durationTicks": 15,
            "midi": 65,
            "name": "F4",
            "ticks": 14783,
            "time": 99.34807357291668,
            "velocity": 0.6614173228346457
          },
          {
            "duration": 0.10752683333332413,
            "durationTicks": 16,
            "midi": 67,
            "name": "G4",
            "ticks": 14807,
            "time": 99.50936382291667,
            "velocity": 0.4566929133858268
          },
          {
            "duration": 0.10752683333332413,
            "durationTicks": 16,
            "midi": 69,
            "name": "A4",
            "ticks": 14832,
            "time": 99.6773745,
            "velocity": 0.5984251968503937
          },
          {
            "duration": 0.10752683333332413,
            "durationTicks": 16,
            "midi": 71,
            "name": "B4",
            "ticks": 14855,
            "time": 99.83194432291667,
            "velocity": 0.36220472440944884
          },
          {
            "duration": 0.5577954479166465,
            "durationTicks": 83,
            "midi": 72,
            "name": "C5",
            "ticks": 14879,
            "time": 99.99323457291668,
            "velocity": 0.5984251968503937
          },
          {
            "duration": 0.1948923854166793,
            "durationTicks": 29,
            "midi": 71,
            "name": "B4",
            "ticks": 14952,
            "time": 100.48382575,
            "velocity": 0.5511811023622047
          },
          {
            "duration": 1.1088704687499984,
            "durationTicks": 165,
            "midi": 69,
            "name": "A4",
            "ticks": 14976,
            "time": 100.645116,
            "velocity": 0.5669291338582677
          },
          {
            "duration": 0.12768811458332152,
            "durationTicks": 19,
            "midi": 71,
            "name": "B4",
            "ticks": 15143,
            "time": 101.76742732291667,
            "velocity": 0.5354330708661418
          },
          {
            "duration": 0.13440854166667293,
            "durationTicks": 20,
            "midi": 72,
            "name": "C5",
            "ticks": 15168,
            "time": 101.93543799999999,
            "velocity": 0.6141732283464567
          },
          {
            "duration": 0.12768811458332152,
            "durationTicks": 19,
            "midi": 71,
            "name": "B4",
            "ticks": 15192,
            "time": 102.09672825,
            "velocity": 0.5826771653543307
          },
          {
            "duration": 0.10080640625000115,
            "durationTicks": 15,
            "midi": 69,
            "name": "A4",
            "ticks": 15216,
            "time": 102.25801849999999,
            "velocity": 0.5511811023622047
          },
          {
            "duration": 0.12096768749999853,
            "durationTicks": 18,
            "midi": 67,
            "name": "G4",
            "ticks": 15239,
            "time": 102.41258832291668,
            "velocity": 0.5669291338582677
          },
          {
            "duration": 0.14784939583333312,
            "durationTicks": 22,
            "midi": 69,
            "name": "A4",
            "ticks": 15264,
            "time": 102.58059899999999,
            "velocity": 0.5196850393700787
          },
          {
            "duration": 0.12096768749999853,
            "durationTicks": 18,
            "midi": 67,
            "name": "G4",
            "ticks": 15287,
            "time": 102.73516882291668,
            "velocity": 0.4881889763779528
          },
          {
            "duration": 0.14112896875001013,
            "durationTicks": 21,
            "midi": 64,
            "name": "E4",
            "ticks": 15312,
            "time": 102.9031795,
            "velocity": 0.5196850393700787
          },
          {
            "duration": 0.22849452083332267,
            "durationTicks": 34,
            "midi": 62,
            "name": "D4",
            "ticks": 15336,
            "time": 103.06446975,
            "velocity": 0.6141732283464567
          },
          {
            "duration": 2.284945208333326,
            "durationTicks": 340,
            "midi": 64,
            "name": "E4",
            "ticks": 15360,
            "time": 103.22576,
            "velocity": 0.47244094488188976
          },
          {
            "duration": 0.10752683333332413,
            "durationTicks": 16,
            "midi": 67,
            "name": "G4",
            "ticks": 15936,
            "time": 107.096726,
            "velocity": 0.7007874015748031
          },
          {
            "duration": 0.10752683333332413,
            "durationTicks": 16,
            "midi": 69,
            "name": "A4",
            "ticks": 15960,
            "time": 107.25801625,
            "velocity": 0.6850393700787402
          },
          {
            "duration": 0.10752683333333835,
            "durationTicks": 16,
            "midi": 71,
            "name": "B4",
            "ticks": 15984,
            "time": 107.41930649999999,
            "velocity": 0.7007874015748031
          },
          {
            "duration": 0.11424726041667554,
            "durationTicks": 17,
            "midi": 72,
            "name": "C5",
            "ticks": 16008,
            "time": 107.58059675,
            "velocity": 0.6299212598425197
          },
          {
            "duration": 0.5846771562500095,
            "durationTicks": 87,
            "midi": 74,
            "name": "D5",
            "ticks": 16032,
            "time": 107.74188699999999,
            "velocity": 0.6929133858267716
          },
          {
            "duration": 0.09408597916664974,
            "durationTicks": 14,
            "midi": 65,
            "name": "F4",
            "ticks": 16319,
            "time": 109.67064957291667,
            "velocity": 0.7007874015748031
          },
          {
            "duration": 0.11424726041666133,
            "durationTicks": 17,
            "midi": 67,
            "name": "G4",
            "ticks": 16343,
            "time": 109.83193982291667,
            "velocity": 0.6850393700787402
          },
          {
            "duration": 0.11424726041664712,
            "durationTicks": 17,
            "midi": 69,
            "name": "A4",
            "ticks": 16367,
            "time": 109.99323007291667,
            "velocity": 0.7007874015748031
          },
          {
            "duration": 0.12096768749999853,
            "durationTicks": 18,
            "midi": 71,
            "name": "B4",
            "ticks": 16391,
            "time": 110.15452032291667,
            "velocity": 0.5196850393700787
          },
          {
            "duration": 0.46370946874999674,
            "durationTicks": 69,
            "midi": 72,
            "name": "C5",
            "ticks": 16416,
            "time": 110.322531,
            "velocity": 0.6850393700787402
          },
          {
            "duration": 0.2150536666666767,
            "durationTicks": 32,
            "midi": 71,
            "name": "B4",
            "ticks": 16488,
            "time": 110.80640174999999,
            "velocity": 0.7007874015748031
          },
          {
            "duration": 0.9543006458333281,
            "durationTicks": 142,
            "midi": 69,
            "name": "A4",
            "ticks": 16512,
            "time": 110.967692,
            "velocity": 0.7007874015748031
          },
          {
            "duration": 0.12768811458332152,
            "durationTicks": 19,
            "midi": 71,
            "name": "B4",
            "ticks": 16679,
            "time": 112.09000332291667,
            "velocity": 0.7007874015748031
          },
          {
            "duration": 0.14112896875001013,
            "durationTicks": 21,
            "midi": 72,
            "name": "C5",
            "ticks": 16703,
            "time": 112.25129357291667,
            "velocity": 0.6456692913385826
          },
          {
            "duration": 0.12096768749999853,
            "durationTicks": 18,
            "midi": 71,
            "name": "B4",
            "ticks": 16727,
            "time": 112.41258382291667,
            "velocity": 0.6141732283464567
          },
          {
            "duration": 0.13440854166665872,
            "durationTicks": 20,
            "midi": 69,
            "name": "A4",
            "ticks": 16751,
            "time": 112.57387407291667,
            "velocity": 0.6141732283464567
          },
          {
            "duration": 0.1478493958333189,
            "durationTicks": 22,
            "midi": 71,
            "name": "B4",
            "ticks": 16775,
            "time": 112.73516432291667,
            "velocity": 0.5196850393700787
          },
          {
            "duration": 0.12768811458333573,
            "durationTicks": 19,
            "midi": 72,
            "name": "C5",
            "ticks": 16799,
            "time": 112.89645457291667,
            "velocity": 0.5511811023622047
          },
          {
            "duration": 0.14784939583333312,
            "durationTicks": 22,
            "midi": 74,
            "name": "D5",
            "ticks": 16824,
            "time": 113.06446525,
            "velocity": 0.5669291338582677
          },
          {
            "duration": 0.14784939583333312,
            "durationTicks": 22,
            "midi": 76,
            "name": "E5",
            "ticks": 16848,
            "time": 113.22575549999999,
            "velocity": 0.7007874015748031
          },
          {
            "duration": 0.13440854166667293,
            "durationTicks": 20,
            "midi": 77,
            "name": "F5",
            "ticks": 16872,
            "time": 113.38704575,
            "velocity": 0.6850393700787402
          },
          {
            "duration": 1.270160718750006,
            "durationTicks": 189,
            "midi": 79,
            "name": "G5",
            "ticks": 16896,
            "time": 113.54833599999999,
            "velocity": 0.7007874015748031
          },
          {
            "duration": 1.1088704687499984,
            "durationTicks": 165,
            "midi": 79,
            "name": "G5",
            "ticks": 17088,
            "time": 114.838658,
            "velocity": 0.5826771653543307
          },
          {
            "duration": 0.12768811458332152,
            "durationTicks": 19,
            "midi": 79,
            "name": "G5",
            "ticks": 17280,
            "time": 116.12898,
            "velocity": 0.7007874015748031
          },
          {
            "duration": 0.11424726041667554,
            "durationTicks": 17,
            "midi": 81,
            "name": "A5",
            "ticks": 17304,
            "time": 116.29027024999999,
            "velocity": 0.6141732283464567
          },
          {
            "duration": 0.11424726041667554,
            "durationTicks": 17,
            "midi": 79,
            "name": "G5",
            "ticks": 17328,
            "time": 116.4515605,
            "velocity": 0.5984251968503937
          },
          {
            "duration": 0.12096768749999853,
            "durationTicks": 18,
            "midi": 77,
            "name": "F5",
            "ticks": 17352,
            "time": 116.61285074999999,
            "velocity": 0.6771653543307087
          },
          {
            "duration": 0.12096768749999853,
            "durationTicks": 18,
            "midi": 79,
            "name": "G5",
            "ticks": 17376,
            "time": 116.774141,
            "velocity": 0.7007874015748031
          },
          {
            "duration": 0.11424726041667554,
            "durationTicks": 17,
            "midi": 77,
            "name": "F5",
            "ticks": 17400,
            "time": 116.93543125,
            "velocity": 0.5826771653543307
          },
          {
            "duration": 0.10752683333332413,
            "durationTicks": 16,
            "midi": 76,
            "name": "E5",
            "ticks": 17424,
            "time": 117.0967215,
            "velocity": 0.5669291338582677
          },
          {
            "duration": 0.09408597916667816,
            "durationTicks": 14,
            "midi": 77,
            "name": "F5",
            "ticks": 17448,
            "time": 117.25801175,
            "velocity": 0.5669291338582677
          },
          {
            "duration": 0.12768811458332152,
            "durationTicks": 19,
            "midi": 76,
            "name": "E5",
            "ticks": 17472,
            "time": 117.419302,
            "velocity": 0.6141732283464567
          },
          {
            "duration": 0.10752683333332413,
            "durationTicks": 16,
            "midi": 74,
            "name": "D5",
            "ticks": 17496,
            "time": 117.58059225,
            "velocity": 0.6929133858267716
          },
          {
            "duration": 0.08736555208332675,
            "durationTicks": 13,
            "midi": 76,
            "name": "E5",
            "ticks": 17520,
            "time": 117.7418825,
            "velocity": 0.6771653543307087
          },
          {
            "duration": 0.11424726041664712,
            "durationTicks": 17,
            "midi": 74,
            "name": "D5",
            "ticks": 17543,
            "time": 117.89645232291667,
            "velocity": 0.6299212598425197
          },
          {
            "duration": 0.11424726041666133,
            "durationTicks": 17,
            "midi": 72,
            "name": "C5",
            "ticks": 17567,
            "time": 118.05774257291667,
            "velocity": 0.7007874015748031
          },
          {
            "duration": 0.10752683333332413,
            "durationTicks": 16,
            "midi": 74,
            "name": "D5",
            "ticks": 17591,
            "time": 118.21903282291667,
            "velocity": 0.6299212598425197
          },
          {
            "duration": 0.09408597916666395,
            "durationTicks": 14,
            "midi": 72,
            "name": "C5",
            "ticks": 17615,
            "time": 118.38032307291667,
            "velocity": 0.6299212598425197
          },
          {
            "duration": 0.13440854166667293,
            "durationTicks": 20,
            "midi": 71,
            "name": "B4",
            "ticks": 17640,
            "time": 118.54833375,
            "velocity": 0.7007874015748031
          },
          {
            "duration": 1.276881145833329,
            "durationTicks": 190,
            "midi": 69,
            "name": "A4",
            "ticks": 17664,
            "time": 118.70962399999999,
            "velocity": 0.5511811023622047
          },
          {
            "duration": 1.1827951666666792,
            "durationTicks": 176,
            "midi": 69,
            "name": "A4",
            "ticks": 17856,
            "time": 119.999946,
            "velocity": 0.5511811023622047
          },
          {
            "duration": 0.12768811458332152,
            "durationTicks": 19,
            "midi": 69,
            "name": "A4",
            "ticks": 18047,
            "time": 121.28354757291667,
            "velocity": 0.5748031496062992
          },
          {
            "duration": 0.12096768749999853,
            "durationTicks": 18,
            "midi": 71,
            "name": "B4",
            "ticks": 18071,
            "time": 121.44483782291667,
            "velocity": 0.5669291338582677
          },
          {
            "duration": 0.12096768749999853,
            "durationTicks": 18,
            "midi": 72,
            "name": "C5",
            "ticks": 18096,
            "time": 121.6128485,
            "velocity": 0.5826771653543307
          },
          {
            "duration": 0.13440854166667293,
            "durationTicks": 20,
            "midi": 69,
            "name": "A4",
            "ticks": 18120,
            "time": 121.77413874999999,
            "velocity": 0.5669291338582677
          },
          {
            "duration": 0.11424726041667554,
            "durationTicks": 17,
            "midi": 71,
            "name": "B4",
            "ticks": 18144,
            "time": 121.935429,
            "velocity": 0.5984251968503937
          },
          {
            "duration": 0.10080640625000115,
            "durationTicks": 15,
            "midi": 72,
            "name": "C5",
            "ticks": 18168,
            "time": 122.09671924999999,
            "velocity": 0.5826771653543307
          },
          {
            "duration": 0.08736555208334096,
            "durationTicks": 13,
            "midi": 74,
            "name": "D5",
            "ticks": 18191,
            "time": 122.25128907291666,
            "velocity": 0.6220472440944882
          },
          {
            "duration": 0.12768811458332152,
            "durationTicks": 19,
            "midi": 76,
            "name": "E5",
            "ticks": 18215,
            "time": 122.41257932291667,
            "velocity": 0.6771653543307087
          },
          {
            "duration": 0.16129025000000752,
            "durationTicks": 24,
            "midi": 72,
            "name": "C5",
            "ticks": 18239,
            "time": 122.57386957291666,
            "velocity": 0.6141732283464567
          },
          {
            "duration": 0.12096768749999853,
            "durationTicks": 18,
            "midi": 74,
            "name": "D5",
            "ticks": 18263,
            "time": 122.73515982291667,
            "velocity": 0.6456692913385826
          },
          {
            "duration": 0.10752683333333835,
            "durationTicks": 16,
            "midi": 76,
            "name": "E5",
            "ticks": 18287,
            "time": 122.89645007291666,
            "velocity": 0.7007874015748031
          },
          {
            "duration": 0.11424726041667554,
            "durationTicks": 17,
            "midi": 72,
            "name": "C5",
            "ticks": 18312,
            "time": 123.06446075,
            "velocity": 0.6929133858267716
          },
          {
            "duration": 0.1680106770833305,
            "durationTicks": 25,
            "midi": 74,
            "name": "D5",
            "ticks": 18335,
            "time": 123.21903057291667,
            "velocity": 0.6771653543307087
          },
          {
            "duration": 0.12096768749999853,
            "durationTicks": 18,
            "midi": 76,
            "name": "E5",
            "ticks": 18360,
            "time": 123.38704125,
            "velocity": 0.6692913385826772
          },
          {
            "duration": 0.12096768749999853,
            "durationTicks": 18,
            "midi": 77,
            "name": "F5",
            "ticks": 18384,
            "time": 123.5483315,
            "velocity": 0.6929133858267716
          },
          {
            "duration": 0.15456982291667032,
            "durationTicks": 23,
            "midi": 81,
            "name": "A5",
            "ticks": 18408,
            "time": 123.70962175,
            "velocity": 0.7007874015748031
          },
          {
            "duration": 1.2163973020833225,
            "durationTicks": 181,
            "midi": 79,
            "name": "G5",
            "ticks": 18432,
            "time": 123.870912,
            "velocity": 0.7007874015748031
          },
          {
            "duration": 1.23655858333332,
            "durationTicks": 184,
            "midi": 79,
            "name": "G5",
            "ticks": 18623,
            "time": 125.15451357291667,
            "velocity": 0.6299212598425197
          },
          {
            "duration": 0.10080640625000115,
            "durationTicks": 15,
            "midi": 79,
            "name": "G5",
            "ticks": 18816,
            "time": 126.451556,
            "velocity": 0.7007874015748031
          },
          {
            "duration": 0.12768811458333573,
            "durationTicks": 19,
            "midi": 81,
            "name": "A5",
            "ticks": 18839,
            "time": 126.60612582291667,
            "velocity": 0.7007874015748031
          },
          {
            "duration": 0.12096768749999853,
            "durationTicks": 18,
            "midi": 79,
            "name": "G5",
            "ticks": 18863,
            "time": 126.76741607291667,
            "velocity": 0.7007874015748031
          },
          {
            "duration": 0.11424726041666133,
            "durationTicks": 17,
            "midi": 77,
            "name": "F5",
            "ticks": 18887,
            "time": 126.92870632291667,
            "velocity": 0.7007874015748031
          },
          {
            "duration": 0.12096768749999853,
            "durationTicks": 18,
            "midi": 79,
            "name": "G5",
            "ticks": 18911,
            "time": 127.08999657291668,
            "velocity": 0.7007874015748031
          },
          {
            "duration": 0.10752683333332413,
            "durationTicks": 16,
            "midi": 77,
            "name": "F5",
            "ticks": 18935,
            "time": 127.25128682291667,
            "velocity": 0.6771653543307087
          },
          {
            "duration": 0.12096768749999853,
            "durationTicks": 18,
            "midi": 76,
            "name": "E5",
            "ticks": 18959,
            "time": 127.41257707291668,
            "velocity": 0.5826771653543307
          },
          {
            "duration": 0.10752683333332413,
            "durationTicks": 16,
            "midi": 77,
            "name": "F5",
            "ticks": 18983,
            "time": 127.57386732291667,
            "velocity": 0.5984251968503937
          },
          {
            "duration": 0.10080640625000115,
            "durationTicks": 15,
            "midi": 76,
            "name": "E5",
            "ticks": 19007,
            "time": 127.73515757291666,
            "velocity": 0.6299212598425197
          },
          {
            "duration": 0.10752683333332413,
            "durationTicks": 16,
            "midi": 74,
            "name": "D5",
            "ticks": 19031,
            "time": 127.89644782291667,
            "velocity": 0.5984251968503937
          },
          {
            "duration": 0.11424726041664712,
            "durationTicks": 17,
            "midi": 76,
            "name": "E5",
            "ticks": 19055,
            "time": 128.05773807291666,
            "velocity": 0.5826771653543307
          },
          {
            "duration": 0.12096768750001274,
            "durationTicks": 18,
            "midi": 74,
            "name": "D5",
            "ticks": 19079,
            "time": 128.21902832291667,
            "velocity": 0.6141732283464567
          },
          {
            "duration": 0.11424726041664712,
            "durationTicks": 17,
            "midi": 72,
            "name": "C5",
            "ticks": 19103,
            "time": 128.38031857291668,
            "velocity": 0.5984251968503937
          },
          {
            "duration": 0.11424726041667554,
            "durationTicks": 17,
            "midi": 74,
            "name": "D5",
            "ticks": 19127,
            "time": 128.54160882291666,
            "velocity": 0.6456692913385826
          },
          {
            "duration": 0.10752683333333835,
            "durationTicks": 16,
            "midi": 72,
            "name": "C5",
            "ticks": 19151,
            "time": 128.70289907291667,
            "velocity": 0.5826771653543307
          },
          {
            "duration": 0.12768811458332152,
            "durationTicks": 19,
            "midi": 71,
            "name": "B4",
            "ticks": 19175,
            "time": 128.86418932291667,
            "velocity": 0.6299212598425197
          },
          {
            "duration": 1.2499994375000085,
            "durationTicks": 186,
            "midi": 69,
            "name": "A4",
            "ticks": 19200,
            "time": 129.0322,
            "velocity": 0.5354330708661418
          },
          {
            "duration": 1.243279010416643,
            "durationTicks": 185,
            "midi": 69,
            "name": "A4",
            "ticks": 19391,
            "time": 130.31580157291668,
            "velocity": 0.5039370078740157
          },
          {
            "duration": 2.157257093750019,
            "durationTicks": 321,
            "midi": 69,
            "name": "A4",
            "ticks": 19583,
            "time": 131.60612357291666,
            "velocity": 0.3543307086614173
          },
          {
            "duration": 0.10080640625000115,
            "durationTicks": 15,
            "midi": 67,
            "name": "G4",
            "ticks": 19912,
            "time": 133.81714408333332,
            "velocity": 0.47244094488188976
          },
          {
            "duration": 1.3172037083333237,
            "durationTicks": 196,
            "midi": 64,
            "name": "E4",
            "ticks": 19962,
            "time": 134.1531654375,
            "velocity": 0.44881889763779526
          },
          {
            "duration": 1.2634402916666545,
            "durationTicks": 188,
            "midi": 62,
            "name": "D4",
            "ticks": 20160,
            "time": 135.48381,
            "velocity": 0.4566929133858268
          },
          {
            "duration": 2.553762291666658,
            "durationTicks": 380,
            "midi": 60,
            "name": "C4",
            "ticks": 20351,
            "time": 136.76741157291667,
            "velocity": 0.4566929133858268
          },
          {
            "duration": 2.211020510416688,
            "durationTicks": 329,
            "midi": 62,
            "name": "D4",
            "ticks": 20734,
            "time": 139.3413351458333,
            "velocity": 0.47244094488188976
          },
          {
            "duration": 0.3494622083333354,
            "durationTicks": 52,
            "midi": 60,
            "name": "C4",
            "ticks": 21063,
            "time": 141.55235565625,
            "velocity": 0.4566929133858268
          },
          {
            "duration": 2.217740937499997,
            "durationTicks": 330,
            "midi": 57,
            "name": "A3",
            "ticks": 21116,
            "time": 141.90853829166667,
            "velocity": 0.4409448818897638
          },
          {
            "duration": 0.18145153125001912,
            "durationTicks": 27,
            "midi": 62,
            "name": "D4",
            "ticks": 21454,
            "time": 144.1800426458333,
            "velocity": 0.4566929133858268
          },
          {
            "duration": 1.263440291666683,
            "durationTicks": 188,
            "midi": 64,
            "name": "E4",
            "ticks": 21504,
            "time": 144.516064,
            "velocity": 0.4881889763779528
          },
          {
            "duration": 1.2903220000000033,
            "durationTicks": 192,
            "midi": 62,
            "name": "D4",
            "ticks": 21693,
            "time": 145.78622471875,
            "velocity": 0.4409448818897638
          },
          {
            "duration": 2.4865580208333142,
            "durationTicks": 370,
            "midi": 60,
            "name": "C4",
            "ticks": 21887,
            "time": 147.08998757291667,
            "velocity": 0.4645669291338583
          },
          {
            "duration": 2.3319881979166723,
            "durationTicks": 347,
            "midi": 62,
            "name": "D4",
            "ticks": 22261,
            "time": 149.60342730208333,
            "velocity": 0.4409448818897638
          },
          {
            "duration": 0.3225804999999866,
            "durationTicks": 48,
            "midi": 60,
            "name": "C4",
            "ticks": 22606,
            "time": 151.92197464583333,
            "velocity": 0.48031496062992124
          },
          {
            "duration": 2.5134397291666346,
            "durationTicks": 374,
            "midi": 57,
            "name": "A3",
            "ticks": 22655,
            "time": 152.25127557291668,
            "velocity": 0.4251968503937008
          },
          {
            "duration": 1.3037628541666777,
            "durationTicks": 194,
            "midi": 57,
            "name": "A3",
            "ticks": 23040,
            "time": 154.83864,
            "velocity": 0.4566929133858268
          },
          {
            "duration": 1.2499994375000085,
            "durationTicks": 186,
            "midi": 55,
            "name": "G3",
            "ticks": 23230,
            "time": 156.11552114583333,
            "velocity": 0.4251968503937008
          },
          {
            "duration": 1.283601572916666,
            "durationTicks": 191,
            "midi": 57,
            "name": "A3",
            "ticks": 23419,
            "time": 157.38568186458332,
            "velocity": 0.4566929133858268
          },
          {
            "duration": 1.283601572916666,
            "durationTicks": 191,
            "midi": 57,
            "name": "A3",
            "ticks": 23613,
            "time": 158.68944471875,
            "velocity": 0.4409448818897638
          },
          {
            "duration": 1.276881145833329,
            "durationTicks": 190,
            "midi": 57,
            "name": "A3",
            "ticks": 23810,
            "time": 160.01336885416666,
            "velocity": 0.4566929133858268
          },
          {
            "duration": 1.2701607187500201,
            "durationTicks": 189,
            "midi": 55,
            "name": "G3",
            "ticks": 23998,
            "time": 161.2768091458333,
            "velocity": 0.4330708661417323
          },
          {
            "duration": 1.2903220000000033,
            "durationTicks": 192,
            "midi": 57,
            "name": "A3",
            "ticks": 24189,
            "time": 162.56041071875,
            "velocity": 0.4409448818897638
          },
          {
            "duration": 1.2365585833333341,
            "durationTicks": 184,
            "midi": 57,
            "name": "A3",
            "ticks": 24386,
            "time": 163.88433485416667,
            "velocity": 0.4330708661417323
          },
          {
            "duration": 1.3037628541666777,
            "durationTicks": 194,
            "midi": 57,
            "name": "A3",
            "ticks": 24572,
            "time": 165.13433429166668,
            "velocity": 0.4566929133858268
          },
          {
            "duration": 1.263440291666683,
            "durationTicks": 188,
            "midi": 55,
            "name": "G3",
            "ticks": 24764,
            "time": 166.42465629166665,
            "velocity": 0.4409448818897638
          },
          {
            "duration": 1.3104832812499865,
            "durationTicks": 195,
            "midi": 57,
            "name": "A3",
            "ticks": 24954,
            "time": 167.7015374375,
            "velocity": 0.4330708661417323
          },
          {
            "duration": 1.276881145833329,
            "durationTicks": 190,
            "midi": 57,
            "name": "A3",
            "ticks": 25150,
            "time": 169.01874114583333,
            "velocity": 0.4330708661417323
          },
          {
            "duration": 1.3239241354166325,
            "durationTicks": 197,
            "midi": 57,
            "name": "A3",
            "ticks": 25344,
            "time": 170.322504,
            "velocity": 0.4409448818897638
          },
          {
            "duration": 1.283601572916666,
            "durationTicks": 191,
            "midi": 55,
            "name": "G3",
            "ticks": 25534,
            "time": 171.59938514583334,
            "velocity": 0.3937007874015748
          },
          {
            "duration": 1.2701607187500201,
            "durationTicks": 189,
            "midi": 57,
            "name": "A3",
            "ticks": 25724,
            "time": 172.87626629166664,
            "velocity": 0.3858267716535433
          },
          {
            "duration": 1.2836015729166377,
            "durationTicks": 191,
            "midi": 57,
            "name": "A3",
            "ticks": 25917,
            "time": 174.17330871875,
            "velocity": 0.3543307086614173
          }
        ]
      },
      {
        "channel": 6,
        "controlChanges": {
          "1": [
            {
              "number": 1,
              "ticks": 13826,
              "time": 92.91662485416667,
              "value": 0
            }
          ],
          "7": [
            {
              "number": 7,
              "ticks": 129,
              "time": 0.86693509375,
              "value": 0.8267716535433071
            }
          ],
          "10": [
            {
              "number": 10,
              "ticks": 129,
              "time": 0.86693509375,
              "value": 0.2047244094488189
            }
          ],
          "11": [
            {
              "number": 11,
              "ticks": 129,
              "time": 0.86693509375,
              "value": 1
            }
          ],
          "91": [
            {
              "number": 91,
              "ticks": 130,
              "time": 0.8736555208333333,
              "value": 0.5905511811023622
            }
          ],
          "93": [
            {
              "number": 93,
              "ticks": 130,
              "time": 0.8736555208333333,
              "value": 0
            }
          ]
        },
        "pitchBends": [
          {
            "ticks": 13826,
            "time": 92.91662485416667,
            "value": 0
          }
        ],
        "instrument": {
          "family": "strings",
          "number": 42,
          "name": "cello"
        },
        "name": "",
        "notes": [
          {
            "duration": 1.2499994375000085,
            "durationTicks": 186,
            "midi": 64,
            "name": "E4",
            "ticks": 13825,
            "time": 92.90990442708332,
            "velocity": 0.7007874015748031
          },
          {
            "duration": 1.3104832812500007,
            "durationTicks": 195,
            "midi": 64,
            "name": "E4",
            "ticks": 14012,
            "time": 94.16662429166666,
            "velocity": 0.6692913385826772
          },
          {
            "duration": 0.24865580208334848,
            "durationTicks": 37,
            "midi": 62,
            "name": "D4",
            "ticks": 14209,
            "time": 95.49054842708333,
            "velocity": 0.7952755905511811
          },
          {
            "duration": 0.13440854166665872,
            "durationTicks": 20,
            "midi": 60,
            "name": "C4",
            "ticks": 14252,
            "time": 95.77952679166667,
            "velocity": 0.7795275590551181
          },
          {
            "duration": 0.24865580208332005,
            "durationTicks": 37,
            "midi": 59,
            "name": "B3",
            "ticks": 14279,
            "time": 95.96097832291667,
            "velocity": 0.7637795275590551
          },
          {
            "duration": 0.11424726041667554,
            "durationTicks": 17,
            "midi": 60,
            "name": "C4",
            "ticks": 14325,
            "time": 96.27011796875,
            "velocity": 0.8110236220472441
          },
          {
            "duration": 1.3373649895833353,
            "durationTicks": 199,
            "midi": 62,
            "name": "D4",
            "ticks": 14350,
            "time": 96.43812864583333,
            "velocity": 0.8110236220472441
          },
          {
            "duration": 0.27553751041666885,
            "durationTicks": 41,
            "midi": 60,
            "name": "C4",
            "ticks": 14589,
            "time": 98.04431071875,
            "velocity": 0.7795275590551181
          },
          {
            "duration": 0.14112896875001013,
            "durationTicks": 21,
            "midi": 59,
            "name": "B3",
            "ticks": 14638,
            "time": 98.37361164583332,
            "velocity": 0.7322834645669292
          },
          {
            "duration": 0.25537622916667146,
            "durationTicks": 38,
            "midi": 57,
            "name": "A3",
            "ticks": 14664,
            "time": 98.54834275,
            "velocity": 0.7637795275590551
          },
          {
            "duration": 0.11424726041667554,
            "durationTicks": 17,
            "midi": 59,
            "name": "B3",
            "ticks": 14709,
            "time": 98.85076196874999,
            "velocity": 0.7795275590551181
          },
          {
            "duration": 1.2970424270833405,
            "durationTicks": 193,
            "midi": 60,
            "name": "C4",
            "ticks": 14734,
            "time": 99.01877264583332,
            "velocity": 0.7795275590551181
          },
          {
            "duration": 0.3225805000000008,
            "durationTicks": 48,
            "midi": 59,
            "name": "B3",
            "ticks": 14929,
            "time": 100.32925592708332,
            "velocity": 0.7795275590551181
          },
          {
            "duration": 2.271504354166666,
            "durationTicks": 338,
            "midi": 57,
            "name": "A3",
            "ticks": 14977,
            "time": 100.65183642708332,
            "velocity": 0.7322834645669292
          },
          {
            "duration": 1.2836015729166803,
            "durationTicks": 191,
            "midi": 64,
            "name": "E4",
            "ticks": 15360,
            "time": 103.22576,
            "velocity": 0.6850393700787402
          },
          {
            "duration": 1.2970424270833263,
            "durationTicks": 193,
            "midi": 64,
            "name": "E4",
            "ticks": 15552,
            "time": 104.516082,
            "velocity": 0.6377952755905512
          },
          {
            "duration": 0.26209665624999445,
            "durationTicks": 39,
            "midi": 62,
            "name": "D4",
            "ticks": 15741,
            "time": 105.78624271875,
            "velocity": 0.7795275590551181
          },
          {
            "duration": 0.12768811458333573,
            "durationTicks": 19,
            "midi": 60,
            "name": "C4",
            "ticks": 15788,
            "time": 106.10210279166667,
            "velocity": 0.7244094488188977
          },
          {
            "duration": 0.26881708333334586,
            "durationTicks": 40,
            "midi": 59,
            "name": "B3",
            "ticks": 15814,
            "time": 106.27683389583332,
            "velocity": 0.7322834645669292
          },
          {
            "duration": 0.11424726041667554,
            "durationTicks": 17,
            "midi": 60,
            "name": "C4",
            "ticks": 15859,
            "time": 106.57925311458332,
            "velocity": 0.7637795275590551
          },
          {
            "duration": 1.4516122500000108,
            "durationTicks": 216,
            "midi": 62,
            "name": "D4",
            "ticks": 15885,
            "time": 106.75398421874999,
            "velocity": 0.7874015748031497
          },
          {
            "duration": 0.25537622916665725,
            "durationTicks": 38,
            "midi": 60,
            "name": "C4",
            "ticks": 16127,
            "time": 108.38032757291667,
            "velocity": 0.8031496062992126
          },
          {
            "duration": 0.15456982291667032,
            "durationTicks": 23,
            "midi": 59,
            "name": "B3",
            "ticks": 16173,
            "time": 108.68946721875,
            "velocity": 0.7007874015748031
          },
          {
            "duration": 0.24193537499999707,
            "durationTicks": 36,
            "midi": 57,
            "name": "A3",
            "ticks": 16200,
            "time": 108.87091875,
            "velocity": 0.6929133858267716
          },
          {
            "duration": 0.11424726041666133,
            "durationTicks": 17,
            "midi": 59,
            "name": "B3",
            "ticks": 16244,
            "time": 109.16661754166667,
            "velocity": 0.7007874015748031
          },
          {
            "duration": 1.3104832812500007,
            "durationTicks": 195,
            "midi": 60,
            "name": "C4",
            "ticks": 16269,
            "time": 109.33462821875,
            "velocity": 0.7480314960629921
          },
          {
            "duration": 0.336021354166661,
            "durationTicks": 50,
            "midi": 59,
            "name": "B3",
            "ticks": 16460,
            "time": 110.61822979166666,
            "velocity": 0.7559055118110236
          },
          {
            "duration": 2.271504354166666,
            "durationTicks": 338,
            "midi": 57,
            "name": "A3",
            "ticks": 16508,
            "time": 110.94081029166666,
            "velocity": 0.7480314960629921
          },
          {
            "duration": 0.3494622083333212,
            "durationTicks": 52,
            "midi": 55,
            "name": "G3",
            "ticks": 16844,
            "time": 113.19887379166667,
            "velocity": 0.6850393700787402
          },
          {
            "duration": 1.270160718750006,
            "durationTicks": 189,
            "midi": 52,
            "name": "E3",
            "ticks": 16896,
            "time": 113.54833599999999,
            "velocity": 0.6929133858267716
          },
          {
            "duration": 1.3172037083333237,
            "durationTicks": 196,
            "midi": 52,
            "name": "E3",
            "ticks": 17087,
            "time": 114.83193757291667,
            "velocity": 0.6614173228346457
          },
          {
            "duration": 1.2163973020833225,
            "durationTicks": 181,
            "midi": 52,
            "name": "E3",
            "ticks": 17285,
            "time": 116.16258213541667,
            "velocity": 0.5905511811023622
          },
          {
            "duration": 1.2903220000000033,
            "durationTicks": 192,
            "midi": 52,
            "name": "E3",
            "ticks": 17471,
            "time": 117.41258157291666,
            "velocity": 0.6535433070866141
          },
          {
            "duration": 1.3642466979166556,
            "durationTicks": 203,
            "midi": 59,
            "name": "B3",
            "ticks": 17660,
            "time": 118.68274229166667,
            "velocity": 0.6220472440944882
          },
          {
            "duration": 1.2836015729166803,
            "durationTicks": 191,
            "midi": 52,
            "name": "E3",
            "ticks": 17851,
            "time": 119.96634386458332,
            "velocity": 0.6377952755905512
          },
          {
            "duration": 1.3037628541666777,
            "durationTicks": 194,
            "midi": 52,
            "name": "E3",
            "ticks": 18043,
            "time": 121.25666586458333,
            "velocity": 0.6535433070866141
          },
          {
            "duration": 0.7392469791666656,
            "durationTicks": 110,
            "midi": 59,
            "name": "B3",
            "ticks": 18235,
            "time": 122.54698786458333,
            "velocity": 0.5905511811023622
          },
          {
            "duration": 1.9287625729166678,
            "durationTicks": 287,
            "midi": 52,
            "name": "E3",
            "ticks": 18334,
            "time": 123.21231014583333,
            "velocity": 0.6535433070866141
          },
          {
            "duration": 1.2432790104166713,
            "durationTicks": 185,
            "midi": 52,
            "name": "E3",
            "ticks": 18622,
            "time": 125.14779314583332,
            "velocity": 0.6456692913385826
          },
          {
            "duration": 1.3104832812500007,
            "durationTicks": 195,
            "midi": 52,
            "name": "E3",
            "ticks": 18808,
            "time": 126.39779258333333,
            "velocity": 0.6535433070866141
          },
          {
            "duration": 1.2970424270833405,
            "durationTicks": 193,
            "midi": 52,
            "name": "E3",
            "ticks": 19004,
            "time": 127.71499629166667,
            "velocity": 0.6535433070866141
          },
          {
            "duration": 1.2365585833333625,
            "durationTicks": 184,
            "midi": 52,
            "name": "E3",
            "ticks": 19198,
            "time": 129.01875914583331,
            "velocity": 0.6535433070866141
          },
          {
            "duration": 1.276881145833329,
            "durationTicks": 190,
            "midi": 52,
            "name": "E3",
            "ticks": 19389,
            "time": 130.30236071875,
            "velocity": 0.6377952755905512
          },
          {
            "duration": 1.2836015729166377,
            "durationTicks": 191,
            "midi": 52,
            "name": "E3",
            "ticks": 19580,
            "time": 131.58596229166668,
            "velocity": 0.6062992125984252
          },
          {
            "duration": 0.8534942395833127,
            "durationTicks": 127,
            "midi": 52,
            "name": "E3",
            "ticks": 19772,
            "time": 132.87628429166668,
            "velocity": 0.5905511811023622
          },
          {
            "duration": 1.3575262708333184,
            "durationTicks": 202,
            "midi": 64,
            "name": "E4",
            "ticks": 19968,
            "time": 134.193488,
            "velocity": 0.5748031496062992
          },
          {
            "duration": 1.3104832812499865,
            "durationTicks": 195,
            "midi": 62,
            "name": "D4",
            "ticks": 20160,
            "time": 135.48381,
            "velocity": 0.5905511811023622
          },
          {
            "duration": 2.6612891250000246,
            "durationTicks": 396,
            "midi": 60,
            "name": "C4",
            "ticks": 20346,
            "time": 136.73380943749999,
            "velocity": 0.5905511811023622
          },
          {
            "duration": 2.291665635416649,
            "durationTicks": 341,
            "midi": 62,
            "name": "D4",
            "ticks": 20735,
            "time": 139.34805557291668,
            "velocity": 0.48031496062992124
          },
          {
            "duration": 0.43010733333332496,
            "durationTicks": 64,
            "midi": 60,
            "name": "C4",
            "ticks": 21063,
            "time": 141.55235565625,
            "velocity": 0.5984251968503937
          },
          {
            "duration": 2.217740937499997,
            "durationTicks": 330,
            "midi": 57,
            "name": "A3",
            "ticks": 21116,
            "time": 141.90853829166667,
            "velocity": 0.5590551181102362
          },
          {
            "duration": 0.18145153125001912,
            "durationTicks": 27,
            "midi": 62,
            "name": "D4",
            "ticks": 21454,
            "time": 144.1800426458333,
            "velocity": 0.5984251968503937
          },
          {
            "duration": 1.263440291666683,
            "durationTicks": 188,
            "midi": 64,
            "name": "E4",
            "ticks": 21504,
            "time": 144.516064,
            "velocity": 0.6377952755905512
          },
          {
            "duration": 1.2903220000000033,
            "durationTicks": 192,
            "midi": 62,
            "name": "D4",
            "ticks": 21693,
            "time": 145.78622471875,
            "velocity": 0.5669291338582677
          },
          {
            "duration": 2.6209665625000014,
            "durationTicks": 390,
            "midi": 60,
            "name": "C4",
            "ticks": 21887,
            "time": 147.08998757291667,
            "velocity": 0.6062992125984252
          },
          {
            "duration": 2.372310760416667,
            "durationTicks": 353,
            "midi": 62,
            "name": "D4",
            "ticks": 22261,
            "time": 149.60342730208333,
            "velocity": 0.5590551181102362
          },
          {
            "duration": 0.383064343749993,
            "durationTicks": 57,
            "midi": 60,
            "name": "C4",
            "ticks": 22606,
            "time": 151.92197464583333,
            "velocity": 0.6299212598425197
          },
          {
            "duration": 2.5134397291666346,
            "durationTicks": 374,
            "midi": 57,
            "name": "A3",
            "ticks": 22655,
            "time": 152.25127557291668,
            "velocity": 0.5354330708661418
          },
          {
            "duration": 1.3440854166666725,
            "durationTicks": 200,
            "midi": 57,
            "name": "A3",
            "ticks": 23040,
            "time": 154.83864,
            "velocity": 0.5905511811023622
          },
          {
            "duration": 1.2903220000000033,
            "durationTicks": 192,
            "midi": 55,
            "name": "G3",
            "ticks": 23230,
            "time": 156.11552114583333,
            "velocity": 0.5354330708661418
          },
          {
            "duration": 1.283601572916666,
            "durationTicks": 191,
            "midi": 57,
            "name": "A3",
            "ticks": 23419,
            "time": 157.38568186458332,
            "velocity": 0.5905511811023622
          },
          {
            "duration": 1.3172037083333237,
            "durationTicks": 196,
            "midi": 57,
            "name": "A3",
            "ticks": 23613,
            "time": 158.68944471875,
            "velocity": 0.5590551181102362
          },
          {
            "duration": 1.310483281250015,
            "durationTicks": 195,
            "midi": 57,
            "name": "A3",
            "ticks": 23810,
            "time": 160.01336885416666,
            "velocity": 0.5905511811023622
          },
          {
            "duration": 1.3037628541666777,
            "durationTicks": 194,
            "midi": 55,
            "name": "G3",
            "ticks": 23998,
            "time": 161.2768091458333,
            "velocity": 0.5433070866141733
          },
          {
            "duration": 1.3104832812499865,
            "durationTicks": 195,
            "midi": 57,
            "name": "A3",
            "ticks": 24189,
            "time": 162.56041071875,
            "velocity": 0.5669291338582677
          },
          {
            "duration": 1.243279010416643,
            "durationTicks": 185,
            "midi": 57,
            "name": "A3",
            "ticks": 24386,
            "time": 163.88433485416667,
            "velocity": 0.5433070866141733
          },
          {
            "duration": 1.3508058437499812,
            "durationTicks": 201,
            "midi": 57,
            "name": "A3",
            "ticks": 24572,
            "time": 165.13433429166668,
            "velocity": 0.5905511811023622
          },
          {
            "duration": 1.2970424270833405,
            "durationTicks": 193,
            "midi": 55,
            "name": "G3",
            "ticks": 24764,
            "time": 166.42465629166665,
            "velocity": 0.5590551181102362
          },
          {
            "duration": 1.3104832812499865,
            "durationTicks": 195,
            "midi": 57,
            "name": "A3",
            "ticks": 24954,
            "time": 167.7015374375,
            "velocity": 0.5433070866141733
          },
          {
            "duration": 1.297042427083312,
            "durationTicks": 193,
            "midi": 57,
            "name": "A3",
            "ticks": 25150,
            "time": 169.01874114583333,
            "velocity": 0.5433070866141733
          },
          {
            "duration": 1.3239241354166325,
            "durationTicks": 197,
            "midi": 57,
            "name": "A3",
            "ticks": 25344,
            "time": 170.322504,
            "velocity": 0.5590551181102362
          },
          {
            "duration": 1.283601572916666,
            "durationTicks": 191,
            "midi": 55,
            "name": "G3",
            "ticks": 25534,
            "time": 171.59938514583334,
            "velocity": 0.48031496062992124
          },
          {
            "duration": 1.2903220000000033,
            "durationTicks": 192,
            "midi": 57,
            "name": "A3",
            "ticks": 25724,
            "time": 172.87626629166664,
            "velocity": 0.4645669291338583
          },
          {
            "duration": 1.2836015729166377,
            "durationTicks": 191,
            "midi": 57,
            "name": "A3",
            "ticks": 25917,
            "time": 174.17330871875,
            "velocity": 0.4094488188976378
          }
        ]
      }
    ]
  }