{
    "header": {
      "keySignatures": [
        {
          "key": "G",
          "scale": "major",
          "ticks": 0
        }
      ],
      "meta": [],
      "name": "",
      "ppq": 960,
      "tempos": [
        {
          "bpm": 80,
          "ticks": 0
        },
        {
          "bpm": 80,
          "ticks": 167280
        },
        {
          "bpm": 120,
          "ticks": 167280
        },
        {
          "bpm": 100,
          "ticks": 167280
        },
        {
          "bpm": 100,
          "ticks": 294240
        },
        {
          "bpm": 120,
          "ticks": 294240
        },
        {
          "bpm": 80,
          "ticks": 294240
        },
        {
          "bpm": 80,
          "ticks": 346080
        },
        {
          "bpm": 120,
          "ticks": 346080
        },
        {
          "bpm": 80,
          "ticks": 346080
        },
        {
          "bpm": 80,
          "ticks": 470880
        },
        {
          "bpm": 50,
          "ticks": 470880
        },
        {
          "bpm": 50,
          "ticks": 493920
        },
        {
          "bpm": 50,
          "ticks": 493920
        },
        {
          "bpm": 50,
          "ticks": 543840
        },
        {
          "bpm": 100,
          "ticks": 543840
        },
        {
          "bpm": 100,
          "ticks": 566880
        },
        {
          "bpm": 100,
          "ticks": 566880
        },
        {
          "bpm": 100,
          "ticks": 778080
        },
        {
          "bpm": 120,
          "ticks": 778080
        },
        {
          "bpm": 120,
          "ticks": 812640
        },
        {
          "bpm": 120,
          "ticks": 812640
        }
      ],
      "timeSignatures": [
        {
          "ticks": 0,
          "timeSignature": [
            4,
            4
          ],
          "measures": 0
        },
        {
          "ticks": 80640,
          "timeSignature": [
            17,
            16
          ],
          "measures": 21
        },
        {
          "ticks": 84720,
          "timeSignature": [
            4,
            4
          ],
          "measures": 21.0625
        },
        {
          "ticks": 157680,
          "timeSignature": [
            10,
            4
          ],
          "measures": 40.0625
        },
        {
          "ticks": 167280,
          "timeSignature": [
            4,
            4
          ],
          "measures": 41.0625
        },
        {
          "ticks": 167280,
          "timeSignature": [
            1,
            16
          ],
          "measures": 41.0625
        },
        {
          "ticks": 167520,
          "timeSignature": [
            4,
            4
          ],
          "measures": 41.125
        },
        {
          "ticks": 286560,
          "timeSignature": [
            8,
            4
          ],
          "measures": 72.125
        },
        {
          "ticks": 294240,
          "timeSignature": [
            3,
            4
          ],
          "measures": 73.125
        },
        {
          "ticks": 294240,
          "timeSignature": [
            1,
            8
          ],
          "measures": 73.125
        },
        {
          "ticks": 294720,
          "timeSignature": [
            3,
            4
          ],
          "measures": 73.375
        },
        {
          "ticks": 343680,
          "timeSignature": [
            5,
            8
          ],
          "measures": 90.375
        },
        {
          "ticks": 346080,
          "timeSignature": [
            3,
            4
          ],
          "measures": 90.625
        },
        {
          "ticks": 346080,
          "timeSignature": [
            1,
            8
          ],
          "measures": 90.625
        },
        {
          "ticks": 346560,
          "timeSignature": [
            3,
            4
          ],
          "measures": 90.875
        },
        {
          "ticks": 395520,
          "timeSignature": [
            5,
            8
          ],
          "measures": 107.875
        },
        {
          "ticks": 397920,
          "timeSignature": [
            1,
            8
          ],
          "measures": 108.125
        },
        {
          "ticks": 398400,
          "timeSignature": [
            3,
            4
          ],
          "measures": 108.375
        },
        {
          "ticks": 464640,
          "timeSignature": [
            13,
            8
          ],
          "measures": 131.375
        },
        {
          "ticks": 470880,
          "timeSignature": [
            3,
            4
          ],
          "measures": 131.625
        },
        {
          "ticks": 537120,
          "timeSignature": [
            7,
            4
          ],
          "measures": 154.625
        },
        {
          "ticks": 543840,
          "timeSignature": [
            3,
            4
          ],
          "measures": 155.625
        },
        {
          "ticks": 771360,
          "timeSignature": [
            7,
            4
          ],
          "measures": 234.625
        },
        {
          "ticks": 778080,
          "timeSignature": [
            6,
            8
          ],
          "measures": 235.625
        },
        {
          "ticks": 778080,
          "timeSignature": [
            1,
            8
          ],
          "measures": 235.625
        },
        {
          "ticks": 778560,
          "timeSignature": [
            3,
            4
          ],
          "measures": 235.875
        },
        {
          "ticks": 810240,
          "timeSignature": [
            5,
            8
          ],
          "measures": 246.875
        },
        {
          "ticks": 812640,
          "timeSignature": [
            6,
            8
          ],
          "measures": 247.125
        },
        {
          "ticks": 812640,
          "timeSignature": [
            1,
            8
          ],
          "measures": 247.125
        },
        {
          "ticks": 813120,
          "timeSignature": [
            3,
            4
          ],
          "measures": 247.375
        },
        {
          "ticks": 844800,
          "timeSignature": [
            5,
            8
          ],
          "measures": 258.375
        },
        {
          "ticks": 847200,
          "timeSignature": [
            1,
            8
          ],
          "measures": 258.625
        },
        {
          "ticks": 847680,
          "timeSignature": [
            3,
            4
          ],
          "measures": 258.875
        },
        {
          "ticks": 911040,
          "timeSignature": [
            6,
            8
          ],
          "measures": 280.875
        },
        {
          "ticks": 911040,
          "timeSignature": [
            1,
            8
          ],
          "measures": 280.875
        },
        {
          "ticks": 911520,
          "timeSignature": [
            3,
            4
          ],
          "measures": 281.125
        }
      ]
    },
    "tracks": [
      {
        "channel": 0,
        "controlChanges": {
          "7": [
            {
              "number": 7,
              "ticks": 0,
              "time": 0,
              "value": 0.8110236220472441
            }
          ],
          "10": [
            {
              "number": 10,
              "ticks": 0,
              "time": 0,
              "value": 0.7480314960629921
            }
          ],
          "64": [
            {
              "number": 64,
              "ticks": 0,
              "time": 0,
              "value": 0
            }
          ],
          "91": [
            {
              "number": 91,
              "ticks": 0,
              "time": 0,
              "value": 0.47244094488188976
            }
          ],
          "121": [
            {
              "number": 121,
              "ticks": 0,
              "time": 0,
              "value": 0
            }
          ]
        },
        "pitchBends": [],
        "instrument": {
          "family": "strings",
          "number": 42,
          "name": "cello"
        },
        "name": "Violoncello",
        "notes": [
          {
            "duration": 0.190625,
            "durationTicks": 244,
            "midi": 43,
            "name": "G2",
            "ticks": 0,
            "time": 0,
            "velocity": 0.5118110236220472
          },
          {
            "duration": 0.190625,
            "durationTicks": 244,
            "midi": 50,
            "name": "D3",
            "ticks": 240,
            "time": 0.1875,
            "velocity": 0.6299212598425197
          },
          {
            "duration": 0.17578125,
            "durationTicks": 225,
            "midi": 59,
            "name": "B3",
            "ticks": 480,
            "time": 0.375,
            "velocity": 0.7007874015748031
          },
          {
            "duration": 0.1875,
            "durationTicks": 240,
            "midi": 57,
            "name": "A3",
            "ticks": 720,
            "time": 0.5625,
            "velocity": 0.6062992125984252
          },
          {
            "duration": 0.1875,
            "durationTicks": 240,
            "midi": 59,
            "name": "B3",
            "ticks": 960,
            "time": 0.75,
            "velocity": 0.5826771653543307
          },
          {
            "duration": 0.1875,
            "durationTicks": 240,
            "midi": 50,
            "name": "D3",
            "ticks": 1200,
            "time": 0.9375,
            "velocity": 0.5433070866141733
          },
          {
            "duration": 0.1875,
            "durationTicks": 240,
            "midi": 59,
            "name": "B3",
            "ticks": 1440,
            "time": 1.125,
            "velocity": 0.6692913385826772
          },
          {
            "duration": 0.1875,
            "durationTicks": 240,
            "midi": 50,
            "name": "D3",
            "ticks": 1680,
            "time": 1.3125,
            "velocity": 0.5275590551181102
          },
          {
            "duration": 0.19062500000000027,
            "durationTicks": 244,
            "midi": 43,
            "name": "G2",
            "ticks": 1920,
            "time": 1.5,
            "velocity": 0.5118110236220472
          },
          {
            "duration": 0.19062500000000027,
            "durationTicks": 244,
            "midi": 50,
            "name": "D3",
            "ticks": 2160,
            "time": 1.6875,
            "velocity": 0.6771653543307087
          },
          {
            "duration": 0.17578125,
            "durationTicks": 225,
            "midi": 59,
            "name": "B3",
            "ticks": 2400,
            "time": 1.875,
            "velocity": 0.6692913385826772
          },
          {
            "duration": 0.1875,
            "durationTicks": 240,
            "midi": 57,
            "name": "A3",
            "ticks": 2640,
            "time": 2.0625,
            "velocity": 0.5748031496062992
          },
          {
            "duration": 0.1875,
            "durationTicks": 240,
            "midi": 59,
            "name": "B3",
            "ticks": 2880,
            "time": 2.25,
            "velocity": 0.6377952755905512
          },
          {
            "duration": 0.1875,
            "durationTicks": 240,
            "midi": 50,
            "name": "D3",
            "ticks": 3120,
            "time": 2.4375,
            "velocity": 0.5196850393700787
          },
          {
            "duration": 0.1875,
            "durationTicks": 240,
            "midi": 59,
            "name": "B3",
            "ticks": 3360,
            "time": 2.625,
            "velocity": 0.6692913385826772
          },
          {
            "duration": 0.1875,
            "durationTicks": 240,
            "midi": 50,
            "name": "D3",
            "ticks": 3600,
            "time": 2.8125,
            "velocity": 0.5118110236220472
          },
          {
            "duration": 0.19062499999999982,
            "durationTicks": 244,
            "midi": 43,
            "name": "G2",
            "ticks": 3840,
            "time": 3,
            "velocity": 0.5275590551181102
          },
          {
            "duration": 0.19062499999999982,
            "durationTicks": 244,
            "midi": 52,
            "name": "E3",
            "ticks": 4080,
            "time": 3.1875,
            "velocity": 0.6771653543307087
          },
          {
            "duration": 0.17578125,
            "durationTicks": 225,
            "midi": 60,
            "name": "C4",
            "ticks": 4320,
            "time": 3.375,
            "velocity": 0.7086614173228346
          },
          {
            "duration": 0.1875,
            "durationTicks": 240,
            "midi": 59,
            "name": "B3",
            "ticks": 4560,
            "time": 3.5625,
            "velocity": 0.6141732283464567
          },
          {
            "duration": 0.1875,
            "durationTicks": 240,
            "midi": 60,
            "name": "C4",
            "ticks": 4800,
            "time": 3.75,
            "velocity": 0.6062992125984252
          },
          {
            "duration": 0.1875,
            "durationTicks": 240,
            "midi": 52,
            "name": "E3",
            "ticks": 5040,
            "time": 3.9375,
            "velocity": 0.5433070866141733
          },
          {
            "duration": 0.1875,
            "durationTicks": 240,
            "midi": 60,
            "name": "C4",
            "ticks": 5280,
            "time": 4.125,
            "velocity": 0.7244094488188977
          },
          {
            "duration": 0.1875,
            "durationTicks": 240,
            "midi": 52,
            "name": "E3",
            "ticks": 5520,
            "time": 4.3125,
            "velocity": 0.5669291338582677
          },
          {
            "duration": 0.19062499999999982,
            "durationTicks": 244,
            "midi": 43,
            "name": "G2",
            "ticks": 5760,
            "time": 4.5,
            "velocity": 0.5433070866141733
          },
          {
            "duration": 0.19062499999999982,
            "durationTicks": 244,
            "midi": 52,
            "name": "E3",
            "ticks": 6000,
            "time": 4.6875,
            "velocity": 0.6614173228346457
          },
          {
            "duration": 0.17578125,
            "durationTicks": 225,
            "midi": 60,
            "name": "C4",
            "ticks": 6240,
            "time": 4.875,
            "velocity": 0.7480314960629921
          },
          {
            "duration": 0.1875,
            "durationTicks": 240,
            "midi": 59,
            "name": "B3",
            "ticks": 6480,
            "time": 5.0625,
            "velocity": 0.5748031496062992
          },
          {
            "duration": 0.1875,
            "durationTicks": 240,
            "midi": 60,
            "name": "C4",
            "ticks": 6720,
            "time": 5.25,
            "velocity": 0.6456692913385826
          },
          {
            "duration": 0.1875,
            "durationTicks": 240,
            "midi": 52,
            "name": "E3",
            "ticks": 6960,
            "time": 5.4375,
            "velocity": 0.5826771653543307
          },
          {
            "duration": 0.1875,
            "durationTicks": 240,
            "midi": 60,
            "name": "C4",
            "ticks": 7200,
            "time": 5.625,
            "velocity": 0.7007874015748031
          },
          {
            "duration": 0.1875,
            "durationTicks": 240,
            "midi": 52,
            "name": "E3",
            "ticks": 7440,
            "time": 5.8125,
            "velocity": 0.5826771653543307
          },
          {
            "duration": 0.19062499999999982,
            "durationTicks": 244,
            "midi": 43,
            "name": "G2",
            "ticks": 7680,
            "time": 6,
            "velocity": 0.5275590551181102
          },
          {
            "duration": 0.19062499999999982,
            "durationTicks": 244,
            "midi": 54,
            "name": "F#3",
            "ticks": 7920,
            "time": 6.1875,
            "velocity": 0.6771653543307087
          },
          {
            "duration": 0.17578125,
            "durationTicks": 225,
            "midi": 60,
            "name": "C4",
            "ticks": 8160,
            "time": 6.375,
            "velocity": 0.6771653543307087
          },
          {
            "duration": 0.1875,
            "durationTicks": 240,
            "midi": 59,
            "name": "B3",
            "ticks": 8400,
            "time": 6.5625,
            "velocity": 0.5826771653543307
          },
          {
            "duration": 0.1875,
            "durationTicks": 240,
            "midi": 60,
            "name": "C4",
            "ticks": 8640,
            "time": 6.75,
            "velocity": 0.6377952755905512
          },
          {
            "duration": 0.1875,
            "durationTicks": 240,
            "midi": 54,
            "name": "F#3",
            "ticks": 8880,
            "time": 6.9375,
            "velocity": 0.5511811023622047
          },
          {
            "duration": 0.1875,
            "durationTicks": 240,
            "midi": 60,
            "name": "C4",
            "ticks": 9120,
            "time": 7.125,
            "velocity": 0.6771653543307087
          },
          {
            "duration": 0.1875,
            "durationTicks": 240,
            "midi": 54,
            "name": "F#3",
            "ticks": 9360,
            "time": 7.3125,
            "velocity": 0.5433070866141733
          },
          {
            "duration": 0.19062499999999982,
            "durationTicks": 244,
            "midi": 43,
            "name": "G2",
            "ticks": 9600,
            "time": 7.5,
            "velocity": 0.5590551181102362
          },
          {
            "duration": 0.19062499999999982,
            "durationTicks": 244,
            "midi": 54,
            "name": "F#3",
            "ticks": 9840,
            "time": 7.6875,
            "velocity": 0.6850393700787402
          },
          {
            "duration": 0.17578125,
            "durationTicks": 225,
            "midi": 60,
            "name": "C4",
            "ticks": 10080,
            "time": 7.875,
            "velocity": 0.6929133858267716
          },
          {
            "duration": 0.1875,
            "durationTicks": 240,
            "midi": 59,
            "name": "B3",
            "ticks": 10320,
            "time": 8.0625,
            "velocity": 0.5826771653543307
          },
          {
            "duration": 0.1875,
            "durationTicks": 240,
            "midi": 60,
            "name": "C4",
            "ticks": 10560,
            "time": 8.25,
            "velocity": 0.6535433070866141
          },
          {
            "duration": 0.1875,
            "durationTicks": 240,
            "midi": 54,
            "name": "F#3",
            "ticks": 10800,
            "time": 8.4375,
            "velocity": 0.5669291338582677
          },
          {
            "duration": 0.1875,
            "durationTicks": 240,
            "midi": 60,
            "name": "C4",
            "ticks": 11040,
            "time": 8.625,
            "velocity": 0.6692913385826772
          },
          {
            "duration": 0.1875,
            "durationTicks": 240,
            "midi": 54,
            "name": "F#3",
            "ticks": 11280,
            "time": 8.8125,
            "velocity": 0.5511811023622047
          },
          {
            "duration": 0.1906250000000007,
            "durationTicks": 244,
            "midi": 43,
            "name": "G2",
            "ticks": 11520,
            "time": 9,
            "velocity": 0.49606299212598426
          },
          {
            "duration": 0.1906250000000007,
            "durationTicks": 244,
            "midi": 55,
            "name": "G3",
            "ticks": 11760,
            "time": 9.1875,
            "velocity": 0.6771653543307087
          },
          {
            "duration": 0.17578125,
            "durationTicks": 225,
            "midi": 59,
            "name": "B3",
            "ticks": 12000,
            "time": 9.375,
            "velocity": 0.6535433070866141
          },
          {
            "duration": 0.1875,
            "durationTicks": 240,
            "midi": 57,
            "name": "A3",
            "ticks": 12240,
            "time": 9.5625,
            "velocity": 0.5669291338582677
          },
          {
            "duration": 0.1875,
            "durationTicks": 240,
            "midi": 59,
            "name": "B3",
            "ticks": 12480,
            "time": 9.75,
            "velocity": 0.6220472440944882
          },
          {
            "duration": 0.1875,
            "durationTicks": 240,
            "midi": 55,
            "name": "G3",
            "ticks": 12720,
            "time": 9.9375,
            "velocity": 0.5748031496062992
          },
          {
            "duration": 0.1875,
            "durationTicks": 240,
            "midi": 59,
            "name": "B3",
            "ticks": 12960,
            "time": 10.125,
            "velocity": 0.6220472440944882
          },
          {
            "duration": 0.1875,
            "durationTicks": 240,
            "midi": 55,
            "name": "G3",
            "ticks": 13200,
            "time": 10.3125,
            "velocity": 0.5984251968503937
          },
          {
            "duration": 0.1906250000000007,
            "durationTicks": 244,
            "midi": 43,
            "name": "G2",
            "ticks": 13440,
            "time": 10.5,
            "velocity": 0.5275590551181102
          },
          {
            "duration": 0.1906250000000007,
            "durationTicks": 244,
            "midi": 55,
            "name": "G3",
            "ticks": 13680,
            "time": 10.6875,
            "velocity": 0.6850393700787402
          },
          {
            "duration": 0.17578125,
            "durationTicks": 225,
            "midi": 59,
            "name": "B3",
            "ticks": 13920,
            "time": 10.875,
            "velocity": 0.5826771653543307
          },
          {
            "duration": 0.1875,
            "durationTicks": 240,
            "midi": 57,
            "name": "A3",
            "ticks": 14160,
            "time": 11.0625,
            "velocity": 0.5590551181102362
          },
          {
            "duration": 0.1875,
            "durationTicks": 240,
            "midi": 59,
            "name": "B3",
            "ticks": 14400,
            "time": 11.25,
            "velocity": 0.6062992125984252
          },
          {
            "duration": 0.1875,
            "durationTicks": 240,
            "midi": 55,
            "name": "G3",
            "ticks": 14640,
            "time": 11.4375,
            "velocity": 0.5748031496062992
          },
          {
            "duration": 0.1875,
            "durationTicks": 240,
            "midi": 59,
            "name": "B3",
            "ticks": 14880,
            "time": 11.625,
            "velocity": 0.6535433070866141
          },
          {
            "duration": 0.1875,
            "durationTicks": 240,
            "midi": 54,
            "name": "F#3",
            "ticks": 15120,
            "time": 11.8125,
            "velocity": 0.5748031496062992
          },
          {
            "duration": 0.1906250000000007,
            "durationTicks": 244,
            "midi": 43,
            "name": "G2",
            "ticks": 15360,
            "time": 12,
            "velocity": 0.49606299212598426
          },
          {
            "duration": 0.1906250000000007,
            "durationTicks": 244,
            "midi": 52,
            "name": "E3",
            "ticks": 15600,
            "time": 12.1875,
            "velocity": 0.6850393700787402
          },
          {
            "duration": 0.17578125,
            "durationTicks": 225,
            "midi": 59,
            "name": "B3",
            "ticks": 15840,
            "time": 12.375,
            "velocity": 0.6456692913385826
          },
          {
            "duration": 0.1875,
            "durationTicks": 240,
            "midi": 57,
            "name": "A3",
            "ticks": 16080,
            "time": 12.5625,
            "velocity": 0.5748031496062992
          },
          {
            "duration": 0.1875,
            "durationTicks": 240,
            "midi": 59,
            "name": "B3",
            "ticks": 16320,
            "time": 12.75,
            "velocity": 0.5984251968503937
          },
          {
            "duration": 0.1875,
            "durationTicks": 240,
            "midi": 55,
            "name": "G3",
            "ticks": 16560,
            "time": 12.9375,
            "velocity": 0.5905511811023622
          },
          {
            "duration": 0.1875,
            "durationTicks": 240,
            "midi": 54,
            "name": "F#3",
            "ticks": 16800,
            "time": 13.125,
            "velocity": 0.5354330708661418
          },
          {
            "duration": 0.1875,
            "durationTicks": 240,
            "midi": 55,
            "name": "G3",
            "ticks": 17040,
            "time": 13.3125,
            "velocity": 0.5984251968503937
          },
          {
            "duration": 0.1875,
            "durationTicks": 240,
            "midi": 52,
            "name": "E3",
            "ticks": 17280,
            "time": 13.5,
            "velocity": 0.5669291338582677
          },
          {
            "duration": 0.1875,
            "durationTicks": 240,
            "midi": 55,
            "name": "G3",
            "ticks": 17520,
            "time": 13.6875,
            "velocity": 0.6141732283464567
          },
          {
            "duration": 0.1875,
            "durationTicks": 240,
            "midi": 54,
            "name": "F#3",
            "ticks": 17760,
            "time": 13.875,
            "velocity": 0.5669291338582677
          },
          {
            "duration": 0.1875,
            "durationTicks": 240,
            "midi": 55,
            "name": "G3",
            "ticks": 18000,
            "time": 14.0625,
            "velocity": 0.6062992125984252
          },
          {
            "duration": 0.1875,
            "durationTicks": 240,
            "midi": 47,
            "name": "B2",
            "ticks": 18240,
            "time": 14.25,
            "velocity": 0.4881889763779528
          },
          {
            "duration": 0.1875,
            "durationTicks": 240,
            "midi": 50,
            "name": "D3",
            "ticks": 18480,
            "time": 14.4375,
            "velocity": 0.6141732283464567
          },
          {
            "duration": 0.1875,
            "durationTicks": 240,
            "midi": 49,
            "name": "C#3",
            "ticks": 18720,
            "time": 14.625,
            "velocity": 0.5984251968503937
          },
          {
            "duration": 0.1875,
            "durationTicks": 240,
            "midi": 47,
            "name": "B2",
            "ticks": 18960,
            "time": 14.8125,
            "velocity": 0.5748031496062992
          },
          {
            "duration": 0.1906250000000007,
            "durationTicks": 244,
            "midi": 49,
            "name": "C#3",
            "ticks": 19200,
            "time": 15,
            "velocity": 0.6062992125984252
          },
          {
            "duration": 0.1906250000000007,
            "durationTicks": 244,
            "midi": 55,
            "name": "G3",
            "ticks": 19440,
            "time": 15.1875,
            "velocity": 0.6535433070866141
          },
          {
            "duration": 0.17578125,
            "durationTicks": 225,
            "midi": 57,
            "name": "A3",
            "ticks": 19680,
            "time": 15.375,
            "velocity": 0.6141732283464567
          },
          {
            "duration": 0.1875,
            "durationTicks": 240,
            "midi": 55,
            "name": "G3",
            "ticks": 19920,
            "time": 15.5625,
            "velocity": 0.5590551181102362
          },
          {
            "duration": 0.1875,
            "durationTicks": 240,
            "midi": 57,
            "name": "A3",
            "ticks": 20160,
            "time": 15.75,
            "velocity": 0.6456692913385826
          },
          {
            "duration": 0.1875,
            "durationTicks": 240,
            "midi": 55,
            "name": "G3",
            "ticks": 20400,
            "time": 15.9375,
            "velocity": 0.5511811023622047
          },
          {
            "duration": 0.1875,
            "durationTicks": 240,
            "midi": 57,
            "name": "A3",
            "ticks": 20640,
            "time": 16.125,
            "velocity": 0.6614173228346457
          },
          {
            "duration": 0.1875,
            "durationTicks": 240,
            "midi": 55,
            "name": "G3",
            "ticks": 20880,
            "time": 16.3125,
            "velocity": 0.6062992125984252
          },
          {
            "duration": 0.1906250000000007,
            "durationTicks": 244,
            "midi": 49,
            "name": "C#3",
            "ticks": 21120,
            "time": 16.5,
            "velocity": 0.5433070866141733
          },
          {
            "duration": 0.1906250000000007,
            "durationTicks": 244,
            "midi": 55,
            "name": "G3",
            "ticks": 21360,
            "time": 16.6875,
            "velocity": 0.6456692913385826
          },
          {
            "duration": 0.17578125,
            "durationTicks": 225,
            "midi": 57,
            "name": "A3",
            "ticks": 21600,
            "time": 16.875,
            "velocity": 0.6456692913385826
          },
          {
            "duration": 0.1875,
            "durationTicks": 240,
            "midi": 55,
            "name": "G3",
            "ticks": 21840,
            "time": 17.0625,
            "velocity": 0.5511811023622047
          },
          {
            "duration": 0.1875,
            "durationTicks": 240,
            "midi": 57,
            "name": "A3",
            "ticks": 22080,
            "time": 17.25,
            "velocity": 0.6220472440944882
          },
          {
            "duration": 0.1875,
            "durationTicks": 240,
            "midi": 55,
            "name": "G3",
            "ticks": 22320,
            "time": 17.4375,
            "velocity": 0.5905511811023622
          },
          {
            "duration": 0.1875,
            "durationTicks": 240,
            "midi": 57,
            "name": "A3",
            "ticks": 22560,
            "time": 17.625,
            "velocity": 0.6220472440944882
          },
          {
            "duration": 0.1875,
            "durationTicks": 240,
            "midi": 55,
            "name": "G3",
            "ticks": 22800,
            "time": 17.8125,
            "velocity": 0.6062992125984252
          },
          {
            "duration": 0.1906250000000007,
            "durationTicks": 244,
            "midi": 54,
            "name": "F#3",
            "ticks": 23040,
            "time": 18,
            "velocity": 0.6220472440944882
          },
          {
            "duration": 0.1906250000000007,
            "durationTicks": 244,
            "midi": 57,
            "name": "A3",
            "ticks": 23280,
            "time": 18.1875,
            "velocity": 0.5905511811023622
          },
          {
            "duration": 0.17578125,
            "durationTicks": 225,
            "midi": 62,
            "name": "D4",
            "ticks": 23520,
            "time": 18.375,
            "velocity": 0.7165354330708661
          },
          {
            "duration": 0.1875,
            "durationTicks": 240,
            "midi": 61,
            "name": "C#4",
            "ticks": 23760,
            "time": 18.5625,
            "velocity": 0.5590551181102362
          },
          {
            "duration": 0.1875,
            "durationTicks": 240,
            "midi": 62,
            "name": "D4",
            "ticks": 24000,
            "time": 18.75,
            "velocity": 0.6535433070866141
          },
          {
            "duration": 0.1875,
            "durationTicks": 240,
            "midi": 57,
            "name": "A3",
            "ticks": 24240,
            "time": 18.9375,
            "velocity": 0.5748031496062992
          },
          {
            "duration": 0.1875,
            "durationTicks": 240,
            "midi": 55,
            "name": "G3",
            "ticks": 24480,
            "time": 19.125,
            "velocity": 0.5905511811023622
          },
          {
            "duration": 0.1875,
            "durationTicks": 240,
            "midi": 57,
            "name": "A3",
            "ticks": 24720,
            "time": 19.3125,
            "velocity": 0.6456692913385826
          },
          {
            "duration": 0.1875,
            "durationTicks": 240,
            "midi": 54,
            "name": "F#3",
            "ticks": 24960,
            "time": 19.5,
            "velocity": 0.5669291338582677
          },
          {
            "duration": 0.1875,
            "durationTicks": 240,
            "midi": 57,
            "name": "A3",
            "ticks": 25200,
            "time": 19.6875,
            "velocity": 0.6141732283464567
          },
          {
            "duration": 0.1875,
            "durationTicks": 240,
            "midi": 55,
            "name": "G3",
            "ticks": 25440,
            "time": 19.875,
            "velocity": 0.6062992125984252
          },
          {
            "duration": 0.1875,
            "durationTicks": 240,
            "midi": 57,
            "name": "A3",
            "ticks": 25680,
            "time": 20.0625,
            "velocity": 0.6062992125984252
          },
          {
            "duration": 0.1875,
            "durationTicks": 240,
            "midi": 50,
            "name": "D3",
            "ticks": 25920,
            "time": 20.25,
            "velocity": 0.5669291338582677
          },
          {
            "duration": 0.1875,
            "durationTicks": 240,
            "midi": 54,
            "name": "F#3",
            "ticks": 26160,
            "time": 20.4375,
            "velocity": 0.6535433070866141
          },
          {
            "duration": 0.1875,
            "durationTicks": 240,
            "midi": 52,
            "name": "E3",
            "ticks": 26400,
            "time": 20.625,
            "velocity": 0.5748031496062992
          },
          {
            "duration": 0.1875,
            "durationTicks": 240,
            "midi": 50,
            "name": "D3",
            "ticks": 26640,
            "time": 20.8125,
            "velocity": 0.5984251968503937
          },
          {
            "duration": 0.1906250000000007,
            "durationTicks": 244,
            "midi": 40,
            "name": "E2",
            "ticks": 26880,
            "time": 21,
            "velocity": 0.5118110236220472
          },
          {
            "duration": 0.1906250000000007,
            "durationTicks": 244,
            "midi": 47,
            "name": "B2",
            "ticks": 27120,
            "time": 21.1875,
            "velocity": 0.6614173228346457
          },
          {
            "duration": 0.17578125,
            "durationTicks": 225,
            "midi": 55,
            "name": "G3",
            "ticks": 27360,
            "time": 21.375,
            "velocity": 0.6299212598425197
          },
          {
            "duration": 0.1875,
            "durationTicks": 240,
            "midi": 54,
            "name": "F#3",
            "ticks": 27600,
            "time": 21.5625,
            "velocity": 0.5984251968503937
          },
          {
            "duration": 0.1875,
            "durationTicks": 240,
            "midi": 55,
            "name": "G3",
            "ticks": 27840,
            "time": 21.75,
            "velocity": 0.6141732283464567
          },
          {
            "duration": 0.1875,
            "durationTicks": 240,
            "midi": 47,
            "name": "B2",
            "ticks": 28080,
            "time": 21.9375,
            "velocity": 0.5669291338582677
          },
          {
            "duration": 0.1875,
            "durationTicks": 240,
            "midi": 55,
            "name": "G3",
            "ticks": 28320,
            "time": 22.125,
            "velocity": 0.6535433070866141
          },
          {
            "duration": 0.1875,
            "durationTicks": 240,
            "midi": 47,
            "name": "B2",
            "ticks": 28560,
            "time": 22.3125,
            "velocity": 0.5669291338582677
          },
          {
            "duration": 0.1906250000000007,
            "durationTicks": 244,
            "midi": 40,
            "name": "E2",
            "ticks": 28800,
            "time": 22.5,
            "velocity": 0.5590551181102362
          },
          {
            "duration": 0.1906250000000007,
            "durationTicks": 244,
            "midi": 47,
            "name": "B2",
            "ticks": 29040,
            "time": 22.6875,
            "velocity": 0.6535433070866141
          },
          {
            "duration": 0.17578125,
            "durationTicks": 225,
            "midi": 55,
            "name": "G3",
            "ticks": 29280,
            "time": 22.875,
            "velocity": 0.6771653543307087
          },
          {
            "duration": 0.1875,
            "durationTicks": 240,
            "midi": 54,
            "name": "F#3",
            "ticks": 29520,
            "time": 23.0625,
            "velocity": 0.5984251968503937
          },
          {
            "duration": 0.1875,
            "durationTicks": 240,
            "midi": 55,
            "name": "G3",
            "ticks": 29760,
            "time": 23.25,
            "velocity": 0.6220472440944882
          },
          {
            "duration": 0.1875,
            "durationTicks": 240,
            "midi": 47,
            "name": "B2",
            "ticks": 30000,
            "time": 23.4375,
            "velocity": 0.5433070866141733
          },
          {
            "duration": 0.1875,
            "durationTicks": 240,
            "midi": 55,
            "name": "G3",
            "ticks": 30240,
            "time": 23.625,
            "velocity": 0.6614173228346457
          },
          {
            "duration": 0.1875,
            "durationTicks": 240,
            "midi": 47,
            "name": "B2",
            "ticks": 30480,
            "time": 23.8125,
            "velocity": 0.5669291338582677
          },
          {
            "duration": 0.19062500000000426,
            "durationTicks": 244,
            "midi": 40,
            "name": "E2",
            "ticks": 30720,
            "time": 24,
            "velocity": 0.5275590551181102
          },
          {
            "duration": 0.19062500000000426,
            "durationTicks": 244,
            "midi": 49,
            "name": "C#3",
            "ticks": 30960,
            "time": 24.1875,
            "velocity": 0.6456692913385826
          },
          {
            "duration": 0.17578125,
            "durationTicks": 225,
            "midi": 50,
            "name": "D3",
            "ticks": 31200,
            "time": 24.375,
            "velocity": 0.5984251968503937
          },
          {
            "duration": 0.1875,
            "durationTicks": 240,
            "midi": 52,
            "name": "E3",
            "ticks": 31440,
            "time": 24.5625,
            "velocity": 0.6535433070866141
          },
          {
            "duration": 0.1875,
            "durationTicks": 240,
            "midi": 50,
            "name": "D3",
            "ticks": 31680,
            "time": 24.75,
            "velocity": 0.5984251968503937
          },
          {
            "duration": 0.1875,
            "durationTicks": 240,
            "midi": 49,
            "name": "C#3",
            "ticks": 31920,
            "time": 24.9375,
            "velocity": 0.5590551181102362
          },
          {
            "duration": 0.1875,
            "durationTicks": 240,
            "midi": 47,
            "name": "B2",
            "ticks": 32160,
            "time": 25.125,
            "velocity": 0.6141732283464567
          },
          {
            "duration": 0.1875,
            "durationTicks": 240,
            "midi": 45,
            "name": "A2",
            "ticks": 32400,
            "time": 25.3125,
            "velocity": 0.5748031496062992
          },
          {
            "duration": 0.19062500000000426,
            "durationTicks": 244,
            "midi": 55,
            "name": "G3",
            "ticks": 32640,
            "time": 25.5,
            "velocity": 0.6614173228346457
          },
          {
            "duration": 0.19062500000000426,
            "durationTicks": 244,
            "midi": 54,
            "name": "F#3",
            "ticks": 32880,
            "time": 25.6875,
            "velocity": 0.5511811023622047
          },
          {
            "duration": 0.17578125,
            "durationTicks": 225,
            "midi": 52,
            "name": "E3",
            "ticks": 33120,
            "time": 25.875,
            "velocity": 0.5669291338582677
          },
          {
            "duration": 0.1875,
            "durationTicks": 240,
            "midi": 62,
            "name": "D4",
            "ticks": 33360,
            "time": 26.0625,
            "velocity": 0.7401574803149606
          },
          {
            "duration": 0.1875,
            "durationTicks": 240,
            "midi": 61,
            "name": "C#4",
            "ticks": 33600,
            "time": 26.25,
            "velocity": 0.5905511811023622
          },
          {
            "duration": 0.1875,
            "durationTicks": 240,
            "midi": 59,
            "name": "B3",
            "ticks": 33840,
            "time": 26.4375,
            "velocity": 0.5905511811023622
          },
          {
            "duration": 0.1875,
            "durationTicks": 240,
            "midi": 57,
            "name": "A3",
            "ticks": 34080,
            "time": 26.625,
            "velocity": 0.5826771653543307
          },
          {
            "duration": 0.1875,
            "durationTicks": 240,
            "midi": 55,
            "name": "G3",
            "ticks": 34320,
            "time": 26.8125,
            "velocity": 0.5748031496062992
          },
          {
            "duration": 0.19062500000000426,
            "durationTicks": 244,
            "midi": 54,
            "name": "F#3",
            "ticks": 34560,
            "time": 27,
            "velocity": 0.5748031496062992
          },
          {
            "duration": 0.19062500000000426,
            "durationTicks": 244,
            "midi": 52,
            "name": "E3",
            "ticks": 34800,
            "time": 27.1875,
            "velocity": 0.5748031496062992
          },
          {
            "duration": 0.17578125,
            "durationTicks": 225,
            "midi": 50,
            "name": "D3",
            "ticks": 35040,
            "time": 27.375,
            "velocity": 0.5905511811023622
          },
          {
            "duration": 0.1875,
            "durationTicks": 240,
            "midi": 62,
            "name": "D4",
            "ticks": 35280,
            "time": 27.5625,
            "velocity": 0.8031496062992126
          },
          {
            "duration": 0.1875,
            "durationTicks": 240,
            "midi": 57,
            "name": "A3",
            "ticks": 35520,
            "time": 27.75,
            "velocity": 0.6141732283464567
          },
          {
            "duration": 0.1875,
            "durationTicks": 240,
            "midi": 62,
            "name": "D4",
            "ticks": 35760,
            "time": 27.9375,
            "velocity": 0.6771653543307087
          },
          {
            "duration": 0.1875,
            "durationTicks": 240,
            "midi": 54,
            "name": "F#3",
            "ticks": 36000,
            "time": 28.125,
            "velocity": 0.5511811023622047
          },
          {
            "duration": 0.1875,
            "durationTicks": 240,
            "midi": 57,
            "name": "A3",
            "ticks": 36240,
            "time": 28.3125,
            "velocity": 0.6220472440944882
          },
          {
            "duration": 0.19062500000000426,
            "durationTicks": 244,
            "midi": 50,
            "name": "D3",
            "ticks": 36480,
            "time": 28.5,
            "velocity": 0.5354330708661418
          },
          {
            "duration": 0.19062500000000426,
            "durationTicks": 244,
            "midi": 52,
            "name": "E3",
            "ticks": 36720,
            "time": 28.6875,
            "velocity": 0.6141732283464567
          },
          {
            "duration": 0.17578125,
            "durationTicks": 225,
            "midi": 54,
            "name": "F#3",
            "ticks": 36960,
            "time": 28.875,
            "velocity": 0.6062992125984252
          },
          {
            "duration": 0.1875,
            "durationTicks": 240,
            "midi": 57,
            "name": "A3",
            "ticks": 37200,
            "time": 29.0625,
            "velocity": 0.6220472440944882
          },
          {
            "duration": 0.1875,
            "durationTicks": 240,
            "midi": 55,
            "name": "G3",
            "ticks": 37440,
            "time": 29.25,
            "velocity": 0.5984251968503937
          },
          {
            "duration": 0.1875,
            "durationTicks": 240,
            "midi": 54,
            "name": "F#3",
            "ticks": 37680,
            "time": 29.4375,
            "velocity": 0.6141732283464567
          },
          {
            "duration": 0.1875,
            "durationTicks": 240,
            "midi": 52,
            "name": "E3",
            "ticks": 37920,
            "time": 29.625,
            "velocity": 0.5590551181102362
          },
          {
            "duration": 0.1875,
            "durationTicks": 240,
            "midi": 50,
            "name": "D3",
            "ticks": 38160,
            "time": 29.8125,
            "velocity": 0.5511811023622047
          },
          {
            "duration": 0.1875,
            "durationTicks": 240,
            "midi": 56,
            "name": "G#3",
            "ticks": 38400,
            "time": 30,
            "velocity": 0.6614173228346457
          },
          {
            "duration": 0.19062500000000426,
            "durationTicks": 244,
            "midi": 50,
            "name": "D3",
            "ticks": 38640,
            "time": 30.1875,
            "velocity": 0.5433070866141733
          },
          {
            "duration": 0.19062500000000426,
            "durationTicks": 244,
            "midi": 53,
            "name": "F3",
            "ticks": 38880,
            "time": 30.375,
            "velocity": 0.6456692913385826
          },
          {
            "duration": 0.17578125,
            "durationTicks": 225,
            "midi": 52,
            "name": "E3",
            "ticks": 39120,
            "time": 30.5625,
            "velocity": 0.5826771653543307
          },
          {
            "duration": 0.1875,
            "durationTicks": 240,
            "midi": 53,
            "name": "F3",
            "ticks": 39360,
            "time": 30.75,
            "velocity": 0.6141732283464567
          },
          {
            "duration": 0.1875,
            "durationTicks": 240,
            "midi": 50,
            "name": "D3",
            "ticks": 39600,
            "time": 30.9375,
            "velocity": 0.5669291338582677
          },
          {
            "duration": 0.1875,
            "durationTicks": 240,
            "midi": 56,
            "name": "G#3",
            "ticks": 39840,
            "time": 31.125,
            "velocity": 0.6299212598425197
          },
          {
            "duration": 0.1875,
            "durationTicks": 240,
            "midi": 50,
            "name": "D3",
            "ticks": 40080,
            "time": 31.3125,
            "velocity": 0.5433070866141733
          },
          {
            "duration": 0.1875,
            "durationTicks": 240,
            "midi": 59,
            "name": "B3",
            "ticks": 40320,
            "time": 31.5,
            "velocity": 0.6535433070866141
          },
          {
            "duration": 0.19062500000000426,
            "durationTicks": 244,
            "midi": 50,
            "name": "D3",
            "ticks": 40560,
            "time": 31.6875,
            "velocity": 0.5039370078740157
          },
          {
            "duration": 0.19062500000000426,
            "durationTicks": 244,
            "midi": 53,
            "name": "F3",
            "ticks": 40800,
            "time": 31.875,
            "velocity": 0.6141732283464567
          },
          {
            "duration": 0.17578125,
            "durationTicks": 225,
            "midi": 52,
            "name": "E3",
            "ticks": 41040,
            "time": 32.0625,
            "velocity": 0.5905511811023622
          },
          {
            "duration": 0.1875,
            "durationTicks": 240,
            "midi": 53,
            "name": "F3",
            "ticks": 41280,
            "time": 32.25,
            "velocity": 0.6062992125984252
          },
          {
            "duration": 0.1875,
            "durationTicks": 240,
            "midi": 50,
            "name": "D3",
            "ticks": 41520,
            "time": 32.4375,
            "velocity": 0.5669291338582677
          },
          {
            "duration": 0.1875,
            "durationTicks": 240,
            "midi": 56,
            "name": "G#3",
            "ticks": 41760,
            "time": 32.625,
            "velocity": 0.6377952755905512
          },
          {
            "duration": 0.1875,
            "durationTicks": 240,
            "midi": 50,
            "name": "D3",
            "ticks": 42000,
            "time": 32.8125,
            "velocity": 0.5511811023622047
          },
          {
            "duration": 0.19062500000000426,
            "durationTicks": 244,
            "midi": 48,
            "name": "C3",
            "ticks": 42240,
            "time": 33,
            "velocity": 0.5590551181102362
          },
          {
            "duration": 0.19062500000000426,
            "durationTicks": 244,
            "midi": 52,
            "name": "E3",
            "ticks": 42480,
            "time": 33.1875,
            "velocity": 0.6692913385826772
          },
          {
            "duration": 0.17578125,
            "durationTicks": 225,
            "midi": 57,
            "name": "A3",
            "ticks": 42720,
            "time": 33.375,
            "velocity": 0.6377952755905512
          },
          {
            "duration": 0.1875,
            "durationTicks": 240,
            "midi": 59,
            "name": "B3",
            "ticks": 42960,
            "time": 33.5625,
            "velocity": 0.6141732283464567
          },
          {
            "duration": 0.1875,
            "durationTicks": 240,
            "midi": 60,
            "name": "C4",
            "ticks": 43200,
            "time": 33.75,
            "velocity": 0.6220472440944882
          },
          {
            "duration": 0.1875,
            "durationTicks": 240,
            "midi": 57,
            "name": "A3",
            "ticks": 43440,
            "time": 33.9375,
            "velocity": 0.5905511811023622
          },
          {
            "duration": 0.1875,
            "durationTicks": 240,
            "midi": 52,
            "name": "E3",
            "ticks": 43680,
            "time": 34.125,
            "velocity": 0.5511811023622047
          },
          {
            "duration": 0.1875,
            "durationTicks": 240,
            "midi": 50,
            "name": "D3",
            "ticks": 43920,
            "time": 34.3125,
            "velocity": 0.5669291338582677
          },
          {
            "duration": 0.19062500000000426,
            "durationTicks": 244,
            "midi": 48,
            "name": "C3",
            "ticks": 44160,
            "time": 34.5,
            "velocity": 0.5590551181102362
          },
          {
            "duration": 0.19062500000000426,
            "durationTicks": 244,
            "midi": 52,
            "name": "E3",
            "ticks": 44400,
            "time": 34.6875,
            "velocity": 0.6299212598425197
          },
          {
            "duration": 0.17578125,
            "durationTicks": 225,
            "midi": 57,
            "name": "A3",
            "ticks": 44640,
            "time": 34.875,
            "velocity": 0.6456692913385826
          },
          {
            "duration": 0.1875,
            "durationTicks": 240,
            "midi": 59,
            "name": "B3",
            "ticks": 44880,
            "time": 35.0625,
            "velocity": 0.6141732283464567
          },
          {
            "duration": 0.1875,
            "durationTicks": 240,
            "midi": 60,
            "name": "C4",
            "ticks": 45120,
            "time": 35.25,
            "velocity": 0.6220472440944882
          },
          {
            "duration": 0.1875,
            "durationTicks": 240,
            "midi": 57,
            "name": "A3",
            "ticks": 45360,
            "time": 35.4375,
            "velocity": 0.5984251968503937
          },
          {
            "duration": 0.1875,
            "durationTicks": 240,
            "midi": 54,
            "name": "F#3",
            "ticks": 45600,
            "time": 35.625,
            "velocity": 0.5511811023622047
          },
          {
            "duration": 0.1875,
            "durationTicks": 240,
            "midi": 52,
            "name": "E3",
            "ticks": 45840,
            "time": 35.8125,
            "velocity": 0.6141732283464567
          },
          {
            "duration": 0.19062500000000426,
            "durationTicks": 244,
            "midi": 51,
            "name": "D#3",
            "ticks": 46080,
            "time": 36,
            "velocity": 0.5905511811023622
          },
          {
            "duration": 0.19062500000000426,
            "durationTicks": 244,
            "midi": 54,
            "name": "F#3",
            "ticks": 46320,
            "time": 36.1875,
            "velocity": 0.6220472440944882
          },
          {
            "duration": 0.17578125,
            "durationTicks": 225,
            "midi": 51,
            "name": "D#3",
            "ticks": 46560,
            "time": 36.375,
            "velocity": 0.5669291338582677
          },
          {
            "duration": 0.1875,
            "durationTicks": 240,
            "midi": 54,
            "name": "F#3",
            "ticks": 46800,
            "time": 36.5625,
            "velocity": 0.6062992125984252
          },
          {
            "duration": 0.1875,
            "durationTicks": 240,
            "midi": 57,
            "name": "A3",
            "ticks": 47040,
            "time": 36.75,
            "velocity": 0.6062992125984252
          },
          {
            "duration": 0.1875,
            "durationTicks": 240,
            "midi": 54,
            "name": "F#3",
            "ticks": 47280,
            "time": 36.9375,
            "velocity": 0.5590551181102362
          },
          {
            "duration": 0.1875,
            "durationTicks": 240,
            "midi": 57,
            "name": "A3",
            "ticks": 47520,
            "time": 37.125,
            "velocity": 0.6299212598425197
          },
          {
            "duration": 0.1875,
            "durationTicks": 240,
            "midi": 54,
            "name": "F#3",
            "ticks": 47760,
            "time": 37.3125,
            "velocity": 0.5984251968503937
          },
          {
            "duration": 0.19062500000000426,
            "durationTicks": 244,
            "midi": 51,
            "name": "D#3",
            "ticks": 48000,
            "time": 37.5,
            "velocity": 0.5669291338582677
          },
          {
            "duration": 0.19062500000000426,
            "durationTicks": 244,
            "midi": 54,
            "name": "F#3",
            "ticks": 48240,
            "time": 37.6875,
            "velocity": 0.5984251968503937
          },
          {
            "duration": 0.17578125,
            "durationTicks": 225,
            "midi": 51,
            "name": "D#3",
            "ticks": 48480,
            "time": 37.875,
            "velocity": 0.5748031496062992
          },
          {
            "duration": 0.1875,
            "durationTicks": 240,
            "midi": 54,
            "name": "F#3",
            "ticks": 48720,
            "time": 38.0625,
            "velocity": 0.5984251968503937
          },
          {
            "duration": 0.1875,
            "durationTicks": 240,
            "midi": 57,
            "name": "A3",
            "ticks": 48960,
            "time": 38.25,
            "velocity": 0.6141732283464567
          },
          {
            "duration": 0.1875,
            "durationTicks": 240,
            "midi": 54,
            "name": "F#3",
            "ticks": 49200,
            "time": 38.4375,
            "velocity": 0.5826771653543307
          },
          {
            "duration": 0.1875,
            "durationTicks": 240,
            "midi": 57,
            "name": "A3",
            "ticks": 49440,
            "time": 38.625,
            "velocity": 0.6692913385826772
          },
          {
            "duration": 0.1875,
            "durationTicks": 240,
            "midi": 54,
            "name": "F#3",
            "ticks": 49680,
            "time": 38.8125,
            "velocity": 0.5511811023622047
          },
          {
            "duration": 0.19062500000000426,
            "durationTicks": 244,
            "midi": 55,
            "name": "G3",
            "ticks": 49920,
            "time": 39,
            "velocity": 0.5826771653543307
          },
          {
            "duration": 0.19062500000000426,
            "durationTicks": 244,
            "midi": 54,
            "name": "F#3",
            "ticks": 50160,
            "time": 39.1875,
            "velocity": 0.5511811023622047
          },
          {
            "duration": 0.17578125,
            "durationTicks": 225,
            "midi": 52,
            "name": "E3",
            "ticks": 50400,
            "time": 39.375,
            "velocity": 0.5433070866141733
          },
          {
            "duration": 0.1875,
            "durationTicks": 240,
            "midi": 55,
            "name": "G3",
            "ticks": 50640,
            "time": 39.5625,
            "velocity": 0.6141732283464567
          },
          {
            "duration": 0.1875,
            "durationTicks": 240,
            "midi": 54,
            "name": "F#3",
            "ticks": 50880,
            "time": 39.75,
            "velocity": 0.5826771653543307
          },
          {
            "duration": 0.1875,
            "durationTicks": 240,
            "midi": 55,
            "name": "G3",
            "ticks": 51120,
            "time": 39.9375,
            "velocity": 0.6220472440944882
          },
          {
            "duration": 0.1875,
            "durationTicks": 240,
            "midi": 57,
            "name": "A3",
            "ticks": 51360,
            "time": 40.125,
            "velocity": 0.6692913385826772
          },
          {
            "duration": 0.1875,
            "durationTicks": 240,
            "midi": 54,
            "name": "F#3",
            "ticks": 51600,
            "time": 40.3125,
            "velocity": 0.5354330708661418
          },
          {
            "duration": 0.1875,
            "durationTicks": 240,
            "midi": 55,
            "name": "G3",
            "ticks": 51840,
            "time": 40.5,
            "velocity": 0.6220472440944882
          },
          {
            "duration": 0.1875,
            "durationTicks": 240,
            "midi": 54,
            "name": "F#3",
            "ticks": 52080,
            "time": 40.6875,
            "velocity": 0.6062992125984252
          },
          {
            "duration": 0.1875,
            "durationTicks": 240,
            "midi": 52,
            "name": "E3",
            "ticks": 52320,
            "time": 40.875,
            "velocity": 0.5826771653543307
          },
          {
            "duration": 0.1875,
            "durationTicks": 240,
            "midi": 50,
            "name": "D3",
            "ticks": 52560,
            "time": 41.0625,
            "velocity": 0.5669291338582677
          },
          {
            "duration": 0.1875,
            "durationTicks": 240,
            "midi": 48,
            "name": "C3",
            "ticks": 52800,
            "time": 41.25,
            "velocity": 0.5826771653543307
          },
          {
            "duration": 0.1875,
            "durationTicks": 240,
            "midi": 47,
            "name": "B2",
            "ticks": 53040,
            "time": 41.4375,
            "velocity": 0.5905511811023622
          },
          {
            "duration": 0.1875,
            "durationTicks": 240,
            "midi": 45,
            "name": "A2",
            "ticks": 53280,
            "time": 41.625,
            "velocity": 0.5511811023622047
          },
          {
            "duration": 0.1875,
            "durationTicks": 240,
            "midi": 43,
            "name": "G2",
            "ticks": 53520,
            "time": 41.8125,
            "velocity": 0.5905511811023622
          },
          {
            "duration": 0.19062500000000426,
            "durationTicks": 244,
            "midi": 42,
            "name": "F#2",
            "ticks": 53760,
            "time": 42,
            "velocity": 0.6220472440944882
          },
          {
            "duration": 0.19062500000000426,
            "durationTicks": 244,
            "midi": 48,
            "name": "C3",
            "ticks": 54000,
            "time": 42.1875,
            "velocity": 0.6614173228346457
          },
          {
            "duration": 0.17578125,
            "durationTicks": 225,
            "midi": 50,
            "name": "D3",
            "ticks": 54240,
            "time": 42.375,
            "velocity": 0.6141732283464567
          },
          {
            "duration": 0.1875,
            "durationTicks": 240,
            "midi": 48,
            "name": "C3",
            "ticks": 54480,
            "time": 42.5625,
            "velocity": 0.5826771653543307
          },
          {
            "duration": 0.1875,
            "durationTicks": 240,
            "midi": 50,
            "name": "D3",
            "ticks": 54720,
            "time": 42.75,
            "velocity": 0.5984251968503937
          },
          {
            "duration": 0.1875,
            "durationTicks": 240,
            "midi": 48,
            "name": "C3",
            "ticks": 54960,
            "time": 42.9375,
            "velocity": 0.5826771653543307
          },
          {
            "duration": 0.1875,
            "durationTicks": 240,
            "midi": 50,
            "name": "D3",
            "ticks": 55200,
            "time": 43.125,
            "velocity": 0.6614173228346457
          },
          {
            "duration": 0.1875,
            "durationTicks": 240,
            "midi": 48,
            "name": "C3",
            "ticks": 55440,
            "time": 43.3125,
            "velocity": 0.5590551181102362
          },
          {
            "duration": 0.19062500000000426,
            "durationTicks": 244,
            "midi": 42,
            "name": "F#2",
            "ticks": 55680,
            "time": 43.5,
            "velocity": 0.5590551181102362
          },
          {
            "duration": 0.19062500000000426,
            "durationTicks": 244,
            "midi": 48,
            "name": "C3",
            "ticks": 55920,
            "time": 43.6875,
            "velocity": 0.6614173228346457
          },
          {
            "duration": 0.17578125,
            "durationTicks": 225,
            "midi": 50,
            "name": "D3",
            "ticks": 56160,
            "time": 43.875,
            "velocity": 0.6220472440944882
          },
          {
            "duration": 0.1875,
            "durationTicks": 240,
            "midi": 48,
            "name": "C3",
            "ticks": 56400,
            "time": 44.0625,
            "velocity": 0.5905511811023622
          },
          {
            "duration": 0.1875,
            "durationTicks": 240,
            "midi": 50,
            "name": "D3",
            "ticks": 56640,
            "time": 44.25,
            "velocity": 0.6377952755905512
          },
          {
            "duration": 0.1875,
            "durationTicks": 240,
            "midi": 48,
            "name": "C3",
            "ticks": 56880,
            "time": 44.4375,
            "velocity": 0.5826771653543307
          },
          {
            "duration": 0.1875,
            "durationTicks": 240,
            "midi": 50,
            "name": "D3",
            "ticks": 57120,
            "time": 44.625,
            "velocity": 0.6141732283464567
          },
          {
            "duration": 0.1875,
            "durationTicks": 240,
            "midi": 48,
            "name": "C3",
            "ticks": 57360,
            "time": 44.8125,
            "velocity": 0.5590551181102362
          },
          {
            "duration": 0.19062500000000426,
            "durationTicks": 244,
            "midi": 43,
            "name": "G2",
            "ticks": 57600,
            "time": 45,
            "velocity": 0.5433070866141733
          },
          {
            "duration": 0.19062500000000426,
            "durationTicks": 244,
            "midi": 47,
            "name": "B2",
            "ticks": 57840,
            "time": 45.1875,
            "velocity": 0.6614173228346457
          },
          {
            "duration": 0.17578125,
            "durationTicks": 225,
            "midi": 53,
            "name": "F3",
            "ticks": 58080,
            "time": 45.375,
            "velocity": 0.6614173228346457
          },
          {
            "duration": 0.1875,
            "durationTicks": 240,
            "midi": 52,
            "name": "E3",
            "ticks": 58320,
            "time": 45.5625,
            "velocity": 0.5905511811023622
          },
          {
            "duration": 0.1875,
            "durationTicks": 240,
            "midi": 53,
            "name": "F3",
            "ticks": 58560,
            "time": 45.75,
            "velocity": 0.6614173228346457
          },
          {
            "duration": 0.1875,
            "durationTicks": 240,
            "midi": 47,
            "name": "B2",
            "ticks": 58800,
            "time": 45.9375,
            "velocity": 0.5511811023622047
          },
          {
            "duration": 0.1875,
            "durationTicks": 240,
            "midi": 53,
            "name": "F3",
            "ticks": 59040,
            "time": 46.125,
            "velocity": 0.6377952755905512
          },
          {
            "duration": 0.1875,
            "durationTicks": 240,
            "midi": 47,
            "name": "B2",
            "ticks": 59280,
            "time": 46.3125,
            "velocity": 0.5433070866141733
          },
          {
            "duration": 0.19062500000000426,
            "durationTicks": 244,
            "midi": 43,
            "name": "G2",
            "ticks": 59520,
            "time": 46.5,
            "velocity": 0.5984251968503937
          },
          {
            "duration": 0.19062500000000426,
            "durationTicks": 244,
            "midi": 47,
            "name": "B2",
            "ticks": 59760,
            "time": 46.6875,
            "velocity": 0.6220472440944882
          },
          {
            "duration": 0.17578125,
            "durationTicks": 225,
            "midi": 53,
            "name": "F3",
            "ticks": 60000,
            "time": 46.875,
            "velocity": 0.6299212598425197
          },
          {
            "duration": 0.1875,
            "durationTicks": 240,
            "midi": 52,
            "name": "E3",
            "ticks": 60240,
            "time": 47.0625,
            "velocity": 0.5905511811023622
          },
          {
            "duration": 0.1875,
            "durationTicks": 240,
            "midi": 53,
            "name": "F3",
            "ticks": 60480,
            "time": 47.25,
            "velocity": 0.6062992125984252
          },
          {
            "duration": 0.1875,
            "durationTicks": 240,
            "midi": 47,
            "name": "B2",
            "ticks": 60720,
            "time": 47.4375,
            "velocity": 0.5590551181102362
          },
          {
            "duration": 0.1875,
            "durationTicks": 240,
            "midi": 53,
            "name": "F3",
            "ticks": 60960,
            "time": 47.625,
            "velocity": 0.6299212598425197
          },
          {
            "duration": 0.1875,
            "durationTicks": 240,
            "midi": 47,
            "name": "B2",
            "ticks": 61200,
            "time": 47.8125,
            "velocity": 0.5669291338582677
          },
          {
            "duration": 0.19062499999999716,
            "durationTicks": 244,
            "midi": 43,
            "name": "G2",
            "ticks": 61440,
            "time": 48,
            "velocity": 0.5905511811023622
          },
          {
            "duration": 0.19062499999999716,
            "durationTicks": 244,
            "midi": 48,
            "name": "C3",
            "ticks": 61680,
            "time": 48.1875,
            "velocity": 0.6456692913385826
          },
          {
            "duration": 0.17578125,
            "durationTicks": 225,
            "midi": 52,
            "name": "E3",
            "ticks": 61920,
            "time": 48.375,
            "velocity": 0.6141732283464567
          },
          {
            "duration": 0.1875,
            "durationTicks": 240,
            "midi": 50,
            "name": "D3",
            "ticks": 62160,
            "time": 48.5625,
            "velocity": 0.5984251968503937
          },
          {
            "duration": 0.1875,
            "durationTicks": 240,
            "midi": 52,
            "name": "E3",
            "ticks": 62400,
            "time": 48.75,
            "velocity": 0.6141732283464567
          },
          {
            "duration": 0.1875,
            "durationTicks": 240,
            "midi": 48,
            "name": "C3",
            "ticks": 62640,
            "time": 48.9375,
            "velocity": 0.5669291338582677
          },
          {
            "duration": 0.1875,
            "durationTicks": 240,
            "midi": 52,
            "name": "E3",
            "ticks": 62880,
            "time": 49.125,
            "velocity": 0.6299212598425197
          },
          {
            "duration": 0.1875,
            "durationTicks": 240,
            "midi": 48,
            "name": "C3",
            "ticks": 63120,
            "time": 49.3125,
            "velocity": 0.5826771653543307
          },
          {
            "duration": 0.19062499999999716,
            "durationTicks": 244,
            "midi": 43,
            "name": "G2",
            "ticks": 63360,
            "time": 49.5,
            "velocity": 0.5669291338582677
          },
          {
            "duration": 0.19062499999999716,
            "durationTicks": 244,
            "midi": 48,
            "name": "C3",
            "ticks": 63600,
            "time": 49.6875,
            "velocity": 0.6614173228346457
          },
          {
            "duration": 0.17578125,
            "durationTicks": 225,
            "midi": 52,
            "name": "E3",
            "ticks": 63840,
            "time": 49.875,
            "velocity": 0.6456692913385826
          },
          {
            "duration": 0.1875,
            "durationTicks": 240,
            "midi": 50,
            "name": "D3",
            "ticks": 64080,
            "time": 50.0625,
            "velocity": 0.5984251968503937
          },
          {
            "duration": 0.1875,
            "durationTicks": 240,
            "midi": 52,
            "name": "E3",
            "ticks": 64320,
            "time": 50.25,
            "velocity": 0.6377952755905512
          },
          {
            "duration": 0.1875,
            "durationTicks": 240,
            "midi": 48,
            "name": "C3",
            "ticks": 64560,
            "time": 50.4375,
            "velocity": 0.5433070866141733
          },
          {
            "duration": 0.1875,
            "durationTicks": 240,
            "midi": 52,
            "name": "E3",
            "ticks": 64800,
            "time": 50.625,
            "velocity": 0.6535433070866141
          },
          {
            "duration": 0.1875,
            "durationTicks": 240,
            "midi": 48,
            "name": "C3",
            "ticks": 65040,
            "time": 50.8125,
            "velocity": 0.5511811023622047
          },
          {
            "duration": 0.19062499999999716,
            "durationTicks": 244,
            "midi": 43,
            "name": "G2",
            "ticks": 65280,
            "time": 51,
            "velocity": 0.6062992125984252
          },
          {
            "duration": 0.19062499999999716,
            "durationTicks": 244,
            "midi": 54,
            "name": "F#3",
            "ticks": 65520,
            "time": 51.1875,
            "velocity": 0.6456692913385826
          },
          {
            "duration": 0.17578125,
            "durationTicks": 225,
            "midi": 60,
            "name": "C4",
            "ticks": 65760,
            "time": 51.375,
            "velocity": 0.7086614173228346
          },
          {
            "duration": 0.1875,
            "durationTicks": 240,
            "midi": 59,
            "name": "B3",
            "ticks": 66000,
            "time": 51.5625,
            "velocity": 0.5748031496062992
          },
          {
            "duration": 0.1875,
            "durationTicks": 240,
            "midi": 60,
            "name": "C4",
            "ticks": 66240,
            "time": 51.75,
            "velocity": 0.6220472440944882
          },
          {
            "duration": 0.1875,
            "durationTicks": 240,
            "midi": 54,
            "name": "F#3",
            "ticks": 66480,
            "time": 51.9375,
            "velocity": 0.5511811023622047
          },
          {
            "duration": 0.1875,
            "durationTicks": 240,
            "midi": 60,
            "name": "C4",
            "ticks": 66720,
            "time": 52.125,
            "velocity": 0.6929133858267716
          },
          {
            "duration": 0.1875,
            "durationTicks": 240,
            "midi": 54,
            "name": "F#3",
            "ticks": 66960,
            "time": 52.3125,
            "velocity": 0.5748031496062992
          },
          {
            "duration": 0.19062499999999716,
            "durationTicks": 244,
            "midi": 43,
            "name": "G2",
            "ticks": 67200,
            "time": 52.5,
            "velocity": 0.5118110236220472
          },
          {
            "duration": 0.19062499999999716,
            "durationTicks": 244,
            "midi": 54,
            "name": "F#3",
            "ticks": 67440,
            "time": 52.6875,
            "velocity": 0.6850393700787402
          },
          {
            "duration": 0.17578125,
            "durationTicks": 225,
            "midi": 60,
            "name": "C4",
            "ticks": 67680,
            "time": 52.875,
            "velocity": 0.7007874015748031
          },
          {
            "duration": 0.1875,
            "durationTicks": 240,
            "midi": 59,
            "name": "B3",
            "ticks": 67920,
            "time": 53.0625,
            "velocity": 0.5826771653543307
          },
          {
            "duration": 0.1875,
            "durationTicks": 240,
            "midi": 60,
            "name": "C4",
            "ticks": 68160,
            "time": 53.25,
            "velocity": 0.6141732283464567
          },
          {
            "duration": 0.1875,
            "durationTicks": 240,
            "midi": 54,
            "name": "F#3",
            "ticks": 68400,
            "time": 53.4375,
            "velocity": 0.5433070866141733
          },
          {
            "duration": 0.1875,
            "durationTicks": 240,
            "midi": 60,
            "name": "C4",
            "ticks": 68640,
            "time": 53.625,
            "velocity": 0.7007874015748031
          },
          {
            "duration": 0.1875,
            "durationTicks": 240,
            "midi": 54,
            "name": "F#3",
            "ticks": 68880,
            "time": 53.8125,
            "velocity": 0.5905511811023622
          },
          {
            "duration": 0.19062499999999716,
            "durationTicks": 244,
            "midi": 43,
            "name": "G2",
            "ticks": 69120,
            "time": 54,
            "velocity": 0.5196850393700787
          },
          {
            "duration": 0.19062499999999716,
            "durationTicks": 244,
            "midi": 50,
            "name": "D3",
            "ticks": 69360,
            "time": 54.1875,
            "velocity": 0.6692913385826772
          },
          {
            "duration": 0.17578125,
            "durationTicks": 225,
            "midi": 59,
            "name": "B3",
            "ticks": 69600,
            "time": 54.375,
            "velocity": 0.6929133858267716
          },
          {
            "duration": 0.1875,
            "durationTicks": 240,
            "midi": 57,
            "name": "A3",
            "ticks": 69840,
            "time": 54.5625,
            "velocity": 0.5905511811023622
          },
          {
            "duration": 0.1875,
            "durationTicks": 240,
            "midi": 59,
            "name": "B3",
            "ticks": 70080,
            "time": 54.75,
            "velocity": 0.6456692913385826
          },
          {
            "duration": 0.1875,
            "durationTicks": 240,
            "midi": 55,
            "name": "G3",
            "ticks": 70320,
            "time": 54.9375,
            "velocity": 0.5590551181102362
          },
          {
            "duration": 0.1875,
            "durationTicks": 240,
            "midi": 54,
            "name": "F#3",
            "ticks": 70560,
            "time": 55.125,
            "velocity": 0.5511811023622047
          },
          {
            "duration": 0.1875,
            "durationTicks": 240,
            "midi": 52,
            "name": "E3",
            "ticks": 70800,
            "time": 55.3125,
            "velocity": 0.5669291338582677
          },
          {
            "duration": 0.1875,
            "durationTicks": 240,
            "midi": 50,
            "name": "D3",
            "ticks": 71040,
            "time": 55.5,
            "velocity": 0.6062992125984252
          },
          {
            "duration": 0.1875,
            "durationTicks": 240,
            "midi": 48,
            "name": "C3",
            "ticks": 71280,
            "time": 55.6875,
            "velocity": 0.5748031496062992
          },
          {
            "duration": 0.1875,
            "durationTicks": 240,
            "midi": 47,
            "name": "B2",
            "ticks": 71520,
            "time": 55.875,
            "velocity": 0.5905511811023622
          },
          {
            "duration": 0.1875,
            "durationTicks": 240,
            "midi": 45,
            "name": "A2",
            "ticks": 71760,
            "time": 56.0625,
            "velocity": 0.5590551181102362
          },
          {
            "duration": 0.1875,
            "durationTicks": 240,
            "midi": 43,
            "name": "G2",
            "ticks": 72000,
            "time": 56.25,
            "velocity": 0.5590551181102362
          },
          {
            "duration": 0.1875,
            "durationTicks": 240,
            "midi": 42,
            "name": "F#2",
            "ticks": 72240,
            "time": 56.4375,
            "velocity": 0.5984251968503937
          },
          {
            "duration": 0.1875,
            "durationTicks": 240,
            "midi": 40,
            "name": "E2",
            "ticks": 72480,
            "time": 56.625,
            "velocity": 0.5354330708661418
          },
          {
            "duration": 0.1875,
            "durationTicks": 240,
            "midi": 38,
            "name": "D2",
            "ticks": 72720,
            "time": 56.8125,
            "velocity": 0.5826771653543307
          },
          {
            "duration": 0.19062499999999716,
            "durationTicks": 244,
            "midi": 37,
            "name": "C#2",
            "ticks": 72960,
            "time": 57,
            "velocity": 0.5590551181102362
          },
          {
            "duration": 0.19062499999999716,
            "durationTicks": 244,
            "midi": 45,
            "name": "A2",
            "ticks": 73200,
            "time": 57.1875,
            "velocity": 0.6535433070866141
          },
          {
            "duration": 0.17578125,
            "durationTicks": 225,
            "midi": 52,
            "name": "E3",
            "ticks": 73440,
            "time": 57.375,
            "velocity": 0.6614173228346457
          },
          {
            "duration": 0.1875,
            "durationTicks": 240,
            "midi": 54,
            "name": "F#3",
            "ticks": 73680,
            "time": 57.5625,
            "velocity": 0.6377952755905512
          },
          {
            "duration": 0.1875,
            "durationTicks": 240,
            "midi": 55,
            "name": "G3",
            "ticks": 73920,
            "time": 57.75,
            "velocity": 0.6141732283464567
          },
          {
            "duration": 0.1875,
            "durationTicks": 240,
            "midi": 52,
            "name": "E3",
            "ticks": 74160,
            "time": 57.9375,
            "velocity": 0.6062992125984252
          },
          {
            "duration": 0.1875,
            "durationTicks": 240,
            "midi": 54,
            "name": "F#3",
            "ticks": 74400,
            "time": 58.125,
            "velocity": 0.5748031496062992
          },
          {
            "duration": 0.1875,
            "durationTicks": 240,
            "midi": 55,
            "name": "G3",
            "ticks": 74640,
            "time": 58.3125,
            "velocity": 0.6141732283464567
          },
          {
            "duration": 0.19062499999999716,
            "durationTicks": 244,
            "midi": 37,
            "name": "C#2",
            "ticks": 74880,
            "time": 58.5,
            "velocity": 0.5354330708661418
          },
          {
            "duration": 0.19062499999999716,
            "durationTicks": 244,
            "midi": 45,
            "name": "A2",
            "ticks": 75120,
            "time": 58.6875,
            "velocity": 0.6377952755905512
          },
          {
            "duration": 0.17578125,
            "durationTicks": 225,
            "midi": 52,
            "name": "E3",
            "ticks": 75360,
            "time": 58.875,
            "velocity": 0.6220472440944882
          },
          {
            "duration": 0.1875,
            "durationTicks": 240,
            "midi": 54,
            "name": "F#3",
            "ticks": 75600,
            "time": 59.0625,
            "velocity": 0.6377952755905512
          },
          {
            "duration": 0.1875,
            "durationTicks": 240,
            "midi": 55,
            "name": "G3",
            "ticks": 75840,
            "time": 59.25,
            "velocity": 0.6377952755905512
          },
          {
            "duration": 0.1875,
            "durationTicks": 240,
            "midi": 52,
            "name": "E3",
            "ticks": 76080,
            "time": 59.4375,
            "velocity": 0.5748031496062992
          },
          {
            "duration": 0.1875,
            "durationTicks": 240,
            "midi": 54,
            "name": "F#3",
            "ticks": 76320,
            "time": 59.625,
            "velocity": 0.6220472440944882
          },
          {
            "duration": 0.1875,
            "durationTicks": 240,
            "midi": 55,
            "name": "G3",
            "ticks": 76560,
            "time": 59.8125,
            "velocity": 0.5826771653543307
          },
          {
            "duration": 0.1875,
            "durationTicks": 240,
            "midi": 36,
            "name": "C2",
            "ticks": 76800,
            "time": 60,
            "velocity": 0.5275590551181102
          },
          {
            "duration": 0.19062499999999716,
            "durationTicks": 244,
            "midi": 45,
            "name": "A2",
            "ticks": 77040,
            "time": 60.1875,
            "velocity": 0.6614173228346457
          },
          {
            "duration": 0.19062499999999716,
            "durationTicks": 244,
            "midi": 50,
            "name": "D3",
            "ticks": 77280,
            "time": 60.375,
            "velocity": 0.6535433070866141
          },
          {
            "duration": 0.17578125,
            "durationTicks": 225,
            "midi": 52,
            "name": "E3",
            "ticks": 77520,
            "time": 60.5625,
            "velocity": 0.6692913385826772
          },
          {
            "duration": 0.1875,
            "durationTicks": 240,
            "midi": 54,
            "name": "F#3",
            "ticks": 77760,
            "time": 60.75,
            "velocity": 0.6220472440944882
          },
          {
            "duration": 0.1875,
            "durationTicks": 240,
            "midi": 50,
            "name": "D3",
            "ticks": 78000,
            "time": 60.9375,
            "velocity": 0.5984251968503937
          },
          {
            "duration": 0.1875,
            "durationTicks": 240,
            "midi": 52,
            "name": "E3",
            "ticks": 78240,
            "time": 61.125,
            "velocity": 0.6456692913385826
          },
          {
            "duration": 0.1875,
            "durationTicks": 240,
            "midi": 54,
            "name": "F#3",
            "ticks": 78480,
            "time": 61.3125,
            "velocity": 0.6062992125984252
          },
          {
            "duration": 0.1875,
            "durationTicks": 240,
            "midi": 36,
            "name": "C2",
            "ticks": 78720,
            "time": 61.5,
            "velocity": 0.5118110236220472
          },
          {
            "duration": 0.19062499999999716,
            "durationTicks": 244,
            "midi": 45,
            "name": "A2",
            "ticks": 78960,
            "time": 61.6875,
            "velocity": 0.6850393700787402
          },
          {
            "duration": 0.19062499999999716,
            "durationTicks": 244,
            "midi": 50,
            "name": "D3",
            "ticks": 79200,
            "time": 61.875,
            "velocity": 0.6377952755905512
          },
          {
            "duration": 0.17578125,
            "durationTicks": 225,
            "midi": 52,
            "name": "E3",
            "ticks": 79440,
            "time": 62.0625,
            "velocity": 0.6220472440944882
          },
          {
            "duration": 0.1875,
            "durationTicks": 240,
            "midi": 54,
            "name": "F#3",
            "ticks": 79680,
            "time": 62.25,
            "velocity": 0.6299212598425197
          },
          {
            "duration": 0.1875,
            "durationTicks": 240,
            "midi": 50,
            "name": "D3",
            "ticks": 79920,
            "time": 62.4375,
            "velocity": 0.5826771653543307
          },
          {
            "duration": 0.1875,
            "durationTicks": 240,
            "midi": 52,
            "name": "E3",
            "ticks": 80160,
            "time": 62.625,
            "velocity": 0.6062992125984252
          },
          {
            "duration": 0.1875,
            "durationTicks": 240,
            "midi": 54,
            "name": "F#3",
            "ticks": 80400,
            "time": 62.8125,
            "velocity": 0.6141732283464567
          },
          {
            "duration": 0.1875,
            "durationTicks": 240,
            "midi": 36,
            "name": "C2",
            "ticks": 80640,
            "time": 63,
            "velocity": 0.4881889763779528
          },
          {
            "duration": 0.19062499999999716,
            "durationTicks": 244,
            "midi": 45,
            "name": "A2",
            "ticks": 80880,
            "time": 63.1875,
            "velocity": 0.6535433070866141
          },
          {
            "duration": 0.19062499999999716,
            "durationTicks": 244,
            "midi": 50,
            "name": "D3",
            "ticks": 81120,
            "time": 63.375,
            "velocity": 0.6299212598425197
          },
          {
            "duration": 0.17578125,
            "durationTicks": 225,
            "midi": 54,
            "name": "F#3",
            "ticks": 81360,
            "time": 63.5625,
            "velocity": 0.6062992125984252
          },
          {
            "duration": 0.1875,
            "durationTicks": 240,
            "midi": 57,
            "name": "A3",
            "ticks": 81600,
            "time": 63.75,
            "velocity": 0.6456692913385826
          },
          {
            "duration": 0.1875,
            "durationTicks": 240,
            "midi": 61,
            "name": "C#4",
            "ticks": 81840,
            "time": 63.9375,
            "velocity": 0.6535433070866141
          },
          {
            "duration": 0.75,
            "durationTicks": 960,
            "midi": 62,
            "name": "D4",
            "ticks": 82080,
            "time": 64.125,
            "velocity": 0.6299212598425197
          },
          {
            "duration": 0.1875,
            "durationTicks": 240,
            "midi": 45,
            "name": "A2",
            "ticks": 83040,
            "time": 64.875,
            "velocity": 0.5196850393700787
          },
          {
            "duration": 0.1875,
            "durationTicks": 240,
            "midi": 47,
            "name": "B2",
            "ticks": 83280,
            "time": 65.0625,
            "velocity": 0.6299212598425197
          },
          {
            "duration": 0.1875,
            "durationTicks": 240,
            "midi": 48,
            "name": "C3",
            "ticks": 83520,
            "time": 65.25,
            "velocity": 0.6377952755905512
          },
          {
            "duration": 0.1875,
            "durationTicks": 240,
            "midi": 50,
            "name": "D3",
            "ticks": 83760,
            "time": 65.4375,
            "velocity": 0.6062992125984252
          },
          {
            "duration": 0.1875,
            "durationTicks": 240,
            "midi": 52,
            "name": "E3",
            "ticks": 84000,
            "time": 65.625,
            "velocity": 0.6299212598425197
          },
          {
            "duration": 0.1875,
            "durationTicks": 240,
            "midi": 54,
            "name": "F#3",
            "ticks": 84240,
            "time": 65.8125,
            "velocity": 0.6062992125984252
          },
          {
            "duration": 0.1875,
            "durationTicks": 240,
            "midi": 55,
            "name": "G3",
            "ticks": 84480,
            "time": 66,
            "velocity": 0.5826771653543307
          },
          {
            "duration": 0.1875,
            "durationTicks": 240,
            "midi": 57,
            "name": "A3",
            "ticks": 84720,
            "time": 66.1875,
            "velocity": 0.6535433070866141
          },
          {
            "duration": 0.1875,
            "durationTicks": 240,
            "midi": 54,
            "name": "F#3",
            "ticks": 84960,
            "time": 66.375,
            "velocity": 0.6062992125984252
          },
          {
            "duration": 0.1875,
            "durationTicks": 240,
            "midi": 50,
            "name": "D3",
            "ticks": 85200,
            "time": 66.5625,
            "velocity": 0.5433070866141733
          },
          {
            "duration": 0.1875,
            "durationTicks": 240,
            "midi": 52,
            "name": "E3",
            "ticks": 85440,
            "time": 66.75,
            "velocity": 0.5905511811023622
          },
          {
            "duration": 0.1875,
            "durationTicks": 240,
            "midi": 54,
            "name": "F#3",
            "ticks": 85680,
            "time": 66.9375,
            "velocity": 0.6377952755905512
          },
          {
            "duration": 0.1875,
            "durationTicks": 240,
            "midi": 55,
            "name": "G3",
            "ticks": 85920,
            "time": 67.125,
            "velocity": 0.5748031496062992
          },
          {
            "duration": 0.1875,
            "durationTicks": 240,
            "midi": 57,
            "name": "A3",
            "ticks": 86160,
            "time": 67.3125,
            "velocity": 0.6299212598425197
          },
          {
            "duration": 0.1875,
            "durationTicks": 240,
            "midi": 59,
            "name": "B3",
            "ticks": 86400,
            "time": 67.5,
            "velocity": 0.6220472440944882
          },
          {
            "duration": 0.1875,
            "durationTicks": 240,
            "midi": 60,
            "name": "C4",
            "ticks": 86640,
            "time": 67.6875,
            "velocity": 0.6220472440944882
          },
          {
            "duration": 0.1875,
            "durationTicks": 240,
            "midi": 57,
            "name": "A3",
            "ticks": 86880,
            "time": 67.875,
            "velocity": 0.5669291338582677
          },
          {
            "duration": 0.1875,
            "durationTicks": 240,
            "midi": 54,
            "name": "F#3",
            "ticks": 87120,
            "time": 68.0625,
            "velocity": 0.5826771653543307
          },
          {
            "duration": 0.1875,
            "durationTicks": 240,
            "midi": 55,
            "name": "G3",
            "ticks": 87360,
            "time": 68.25,
            "velocity": 0.6220472440944882
          },
          {
            "duration": 0.1875,
            "durationTicks": 240,
            "midi": 57,
            "name": "A3",
            "ticks": 87600,
            "time": 68.4375,
            "velocity": 0.6377952755905512
          },
          {
            "duration": 0.1875,
            "durationTicks": 240,
            "midi": 59,
            "name": "B3",
            "ticks": 87840,
            "time": 68.625,
            "velocity": 0.6062992125984252
          },
          {
            "duration": 0.1875,
            "durationTicks": 240,
            "midi": 60,
            "name": "C4",
            "ticks": 88080,
            "time": 68.8125,
            "velocity": 0.6614173228346457
          },
          {
            "duration": 0.1875,
            "durationTicks": 240,
            "midi": 62,
            "name": "D4",
            "ticks": 88320,
            "time": 69,
            "velocity": 0.6456692913385826
          },
          {
            "duration": 0.19062499999999716,
            "durationTicks": 244,
            "midi": 63,
            "name": "D#4",
            "ticks": 88560,
            "time": 69.1875,
            "velocity": 0.5984251968503937
          },
          {
            "duration": 0.19062499999999716,
            "durationTicks": 244,
            "midi": 62,
            "name": "D4",
            "ticks": 88800,
            "time": 69.375,
            "velocity": 0.5905511811023622
          },
          {
            "duration": 0.19062499999999716,
            "durationTicks": 244,
            "midi": 61,
            "name": "C#4",
            "ticks": 89040,
            "time": 69.5625,
            "velocity": 0.5905511811023622
          },
          {
            "duration": 0.17578125,
            "durationTicks": 225,
            "midi": 62,
            "name": "D4",
            "ticks": 89280,
            "time": 69.75,
            "velocity": 0.6299212598425197
          },
          {
            "duration": 0.19062499999999716,
            "durationTicks": 244,
            "midi": 62,
            "name": "D4",
            "ticks": 89520,
            "time": 69.9375,
            "velocity": 0.6141732283464567
          },
          {
            "duration": 0.19062499999999716,
            "durationTicks": 244,
            "midi": 60,
            "name": "C4",
            "ticks": 89760,
            "time": 70.125,
            "velocity": 0.5354330708661418
          },
          {
            "duration": 0.19062499999999716,
            "durationTicks": 244,
            "midi": 59,
            "name": "B3",
            "ticks": 90000,
            "time": 70.3125,
            "velocity": 0.5669291338582677
          },
          {
            "duration": 0.17578125,
            "durationTicks": 225,
            "midi": 60,
            "name": "C4",
            "ticks": 90240,
            "time": 70.5,
            "velocity": 0.6614173228346457
          },
          {
            "duration": 0.1875,
            "durationTicks": 240,
            "midi": 60,
            "name": "C4",
            "ticks": 90480,
            "time": 70.6875,
            "velocity": 0.6062992125984252
          },
          {
            "duration": 0.1875,
            "durationTicks": 240,
            "midi": 57,
            "name": "A3",
            "ticks": 90720,
            "time": 70.875,
            "velocity": 0.5826771653543307
          },
          {
            "duration": 0.1875,
            "durationTicks": 240,
            "midi": 54,
            "name": "F#3",
            "ticks": 90960,
            "time": 71.0625,
            "velocity": 0.5748031496062992
          },
          {
            "duration": 0.1875,
            "durationTicks": 240,
            "midi": 52,
            "name": "E3",
            "ticks": 91200,
            "time": 71.25,
            "velocity": 0.5826771653543307
          },
          {
            "duration": 0.1875,
            "durationTicks": 240,
            "midi": 50,
            "name": "D3",
            "ticks": 91440,
            "time": 71.4375,
            "velocity": 0.5511811023622047
          },
          {
            "duration": 0.1875,
            "durationTicks": 240,
            "midi": 45,
            "name": "A2",
            "ticks": 91680,
            "time": 71.625,
            "velocity": 0.5354330708661418
          },
          {
            "duration": 0.1875,
            "durationTicks": 240,
            "midi": 47,
            "name": "B2",
            "ticks": 91920,
            "time": 71.8125,
            "velocity": 0.6141732283464567
          },
          {
            "duration": 0.1875,
            "durationTicks": 240,
            "midi": 48,
            "name": "C3",
            "ticks": 92160,
            "time": 72,
            "velocity": 0.6220472440944882
          },
          {
            "duration": 0.19062499999999716,
            "durationTicks": 244,
            "midi": 38,
            "name": "D2",
            "ticks": 92400,
            "time": 72.1875,
            "velocity": 0.5354330708661418
          },
          {
            "duration": 0.19062499999999716,
            "durationTicks": 244,
            "midi": 45,
            "name": "A2",
            "ticks": 92640,
            "time": 72.375,
            "velocity": 0.6456692913385826
          },
          {
            "duration": 0.17578125,
            "durationTicks": 225,
            "midi": 50,
            "name": "D3",
            "ticks": 92880,
            "time": 72.5625,
            "velocity": 0.6141732283464567
          },
          {
            "duration": 0.1875,
            "durationTicks": 240,
            "midi": 54,
            "name": "F#3",
            "ticks": 93120,
            "time": 72.75,
            "velocity": 0.6141732283464567
          },
          {
            "duration": 0.1875,
            "durationTicks": 240,
            "midi": 57,
            "name": "A3",
            "ticks": 93360,
            "time": 72.9375,
            "velocity": 0.6377952755905512
          },
          {
            "duration": 0.1875,
            "durationTicks": 240,
            "midi": 59,
            "name": "B3",
            "ticks": 93600,
            "time": 73.125,
            "velocity": 0.6141732283464567
          },
          {
            "duration": 0.1875,
            "durationTicks": 240,
            "midi": 60,
            "name": "C4",
            "ticks": 93840,
            "time": 73.3125,
            "velocity": 0.6220472440944882
          },
          {
            "duration": 0.1875,
            "durationTicks": 240,
            "midi": 57,
            "name": "A3",
            "ticks": 94080,
            "time": 73.5,
            "velocity": 0.5669291338582677
          },
          {
            "duration": 0.1875,
            "durationTicks": 240,
            "midi": 59,
            "name": "B3",
            "ticks": 94320,
            "time": 73.6875,
            "velocity": 0.5748031496062992
          },
          {
            "duration": 0.1875,
            "durationTicks": 240,
            "midi": 55,
            "name": "G3",
            "ticks": 94560,
            "time": 73.875,
            "velocity": 0.5905511811023622
          },
          {
            "duration": 0.1875,
            "durationTicks": 240,
            "midi": 50,
            "name": "D3",
            "ticks": 94800,
            "time": 74.0625,
            "velocity": 0.5748031496062992
          },
          {
            "duration": 0.1875,
            "durationTicks": 240,
            "midi": 48,
            "name": "C3",
            "ticks": 95040,
            "time": 74.25,
            "velocity": 0.5354330708661418
          },
          {
            "duration": 0.1875,
            "durationTicks": 240,
            "midi": 47,
            "name": "B2",
            "ticks": 95280,
            "time": 74.4375,
            "velocity": 0.5669291338582677
          },
          {
            "duration": 0.1875,
            "durationTicks": 240,
            "midi": 43,
            "name": "G2",
            "ticks": 95520,
            "time": 74.625,
            "velocity": 0.5748031496062992
          },
          {
            "duration": 0.1875,
            "durationTicks": 240,
            "midi": 45,
            "name": "A2",
            "ticks": 95760,
            "time": 74.8125,
            "velocity": 0.6220472440944882
          },
          {
            "duration": 0.1875,
            "durationTicks": 240,
            "midi": 47,
            "name": "B2",
            "ticks": 96000,
            "time": 75,
            "velocity": 0.6299212598425197
          },
          {
            "duration": 0.19062499999999716,
            "durationTicks": 244,
            "midi": 38,
            "name": "D2",
            "ticks": 96240,
            "time": 75.1875,
            "velocity": 0.5354330708661418
          },
          {
            "duration": 0.19062499999999716,
            "durationTicks": 244,
            "midi": 43,
            "name": "G2",
            "ticks": 96480,
            "time": 75.375,
            "velocity": 0.6220472440944882
          },
          {
            "duration": 0.17578125,
            "durationTicks": 225,
            "midi": 47,
            "name": "B2",
            "ticks": 96720,
            "time": 75.5625,
            "velocity": 0.6220472440944882
          },
          {
            "duration": 0.1875,
            "durationTicks": 240,
            "midi": 50,
            "name": "D3",
            "ticks": 96960,
            "time": 75.75,
            "velocity": 0.6220472440944882
          },
          {
            "duration": 0.1875,
            "durationTicks": 240,
            "midi": 55,
            "name": "G3",
            "ticks": 97200,
            "time": 75.9375,
            "velocity": 0.6535433070866141
          },
          {
            "duration": 0.1875,
            "durationTicks": 240,
            "midi": 57,
            "name": "A3",
            "ticks": 97440,
            "time": 76.125,
            "velocity": 0.6299212598425197
          },
          {
            "duration": 0.1875,
            "durationTicks": 240,
            "midi": 59,
            "name": "B3",
            "ticks": 97680,
            "time": 76.3125,
            "velocity": 0.6220472440944882
          },
          {
            "duration": 0.1875,
            "durationTicks": 240,
            "midi": 55,
            "name": "G3",
            "ticks": 97920,
            "time": 76.5,
            "velocity": 0.5433070866141733
          },
          {
            "duration": 0.19062499999999716,
            "durationTicks": 244,
            "midi": 61,
            "name": "C#4",
            "ticks": 98160,
            "time": 76.6875,
            "velocity": 0.6771653543307087
          },
          {
            "duration": 0.19062499999999716,
            "durationTicks": 244,
            "midi": 58,
            "name": "A#3",
            "ticks": 98400,
            "time": 76.875,
            "velocity": 0.5984251968503937
          },
          {
            "duration": 0.19062499999999716,
            "durationTicks": 244,
            "midi": 57,
            "name": "A3",
            "ticks": 98640,
            "time": 77.0625,
            "velocity": 0.5826771653543307
          },
          {
            "duration": 0.17578125,
            "durationTicks": 225,
            "midi": 58,
            "name": "A#3",
            "ticks": 98880,
            "time": 77.25,
            "velocity": 0.6141732283464567
          },
          {
            "duration": 0.19062499999999716,
            "durationTicks": 244,
            "midi": 58,
            "name": "A#3",
            "ticks": 99120,
            "time": 77.4375,
            "velocity": 0.5196850393700787
          },
          {
            "duration": 0.19062499999999716,
            "durationTicks": 244,
            "midi": 57,
            "name": "A3",
            "ticks": 99360,
            "time": 77.625,
            "velocity": 0.5669291338582677
          },
          {
            "duration": 0.19062499999999716,
            "durationTicks": 244,
            "midi": 56,
            "name": "G#3",
            "ticks": 99600,
            "time": 77.8125,
            "velocity": 0.5669291338582677
          },
          {
            "duration": 0.17578125,
            "durationTicks": 225,
            "midi": 57,
            "name": "A3",
            "ticks": 99840,
            "time": 78,
            "velocity": 0.6456692913385826
          },
          {
            "duration": 0.19062499999999716,
            "durationTicks": 244,
            "midi": 57,
            "name": "A3",
            "ticks": 100080,
            "time": 78.1875,
            "velocity": 0.6614173228346457
          },
          {
            "duration": 0.19062499999999716,
            "durationTicks": 244,
            "midi": 55,
            "name": "G3",
            "ticks": 100320,
            "time": 78.375,
            "velocity": 0.6456692913385826
          },
          {
            "duration": 0.19062499999999716,
            "durationTicks": 244,
            "midi": 54,
            "name": "F#3",
            "ticks": 100560,
            "time": 78.5625,
            "velocity": 0.6535433070866141
          },
          {
            "duration": 0.17578125,
            "durationTicks": 225,
            "midi": 55,
            "name": "G3",
            "ticks": 100800,
            "time": 78.75,
            "velocity": 0.6771653543307087
          },
          {
            "duration": 0.19062499999999716,
            "durationTicks": 244,
            "midi": 55,
            "name": "G3",
            "ticks": 101040,
            "time": 78.9375,
            "velocity": 0.6377952755905512
          },
          {
            "duration": 0.19062499999999716,
            "durationTicks": 244,
            "midi": 52,
            "name": "E3",
            "ticks": 101280,
            "time": 79.125,
            "velocity": 0.6141732283464567
          },
          {
            "duration": 0.19062499999999716,
            "durationTicks": 244,
            "midi": 49,
            "name": "C#3",
            "ticks": 101520,
            "time": 79.3125,
            "velocity": 0.6220472440944882
          },
          {
            "duration": 0.17578125,
            "durationTicks": 225,
            "midi": 47,
            "name": "B2",
            "ticks": 101760,
            "time": 79.5,
            "velocity": 0.6535433070866141
          },
          {
            "duration": 0.1875,
            "durationTicks": 240,
            "midi": 45,
            "name": "A2",
            "ticks": 102000,
            "time": 79.6875,
            "velocity": 0.6456692913385826
          },
          {
            "duration": 0.1875,
            "durationTicks": 240,
            "midi": 49,
            "name": "C#3",
            "ticks": 102240,
            "time": 79.875,
            "velocity": 0.6692913385826772
          },
          {
            "duration": 0.1875,
            "durationTicks": 240,
            "midi": 52,
            "name": "E3",
            "ticks": 102480,
            "time": 80.0625,
            "velocity": 0.6692913385826772
          },
          {
            "duration": 0.1875,
            "durationTicks": 240,
            "midi": 55,
            "name": "G3",
            "ticks": 102720,
            "time": 80.25,
            "velocity": 0.6771653543307087
          },
          {
            "duration": 0.1875,
            "durationTicks": 240,
            "midi": 57,
            "name": "A3",
            "ticks": 102960,
            "time": 80.4375,
            "velocity": 0.6692913385826772
          },
          {
            "duration": 0.1875,
            "durationTicks": 240,
            "midi": 61,
            "name": "C#4",
            "ticks": 103200,
            "time": 80.625,
            "velocity": 0.7322834645669292
          },
          {
            "duration": 0.1875,
            "durationTicks": 240,
            "midi": 62,
            "name": "D4",
            "ticks": 103440,
            "time": 80.8125,
            "velocity": 0.7086614173228346
          },
          {
            "duration": 0.1875,
            "durationTicks": 240,
            "midi": 61,
            "name": "C#4",
            "ticks": 103680,
            "time": 81,
            "velocity": 0.6771653543307087
          },
          {
            "duration": 0.19062499999999716,
            "durationTicks": 244,
            "midi": 62,
            "name": "D4",
            "ticks": 103920,
            "time": 81.1875,
            "velocity": 0.8031496062992126
          },
          {
            "duration": 0.19062499999999716,
            "durationTicks": 244,
            "midi": 57,
            "name": "A3",
            "ticks": 104160,
            "time": 81.375,
            "velocity": 0.7401574803149606
          },
          {
            "duration": 0.17578125,
            "durationTicks": 225,
            "midi": 54,
            "name": "F#3",
            "ticks": 104400,
            "time": 81.5625,
            "velocity": 0.7559055118110236
          },
          {
            "duration": 0.1875,
            "durationTicks": 240,
            "midi": 52,
            "name": "E3",
            "ticks": 104640,
            "time": 81.75,
            "velocity": 0.7244094488188977
          },
          {
            "duration": 0.1875,
            "durationTicks": 240,
            "midi": 54,
            "name": "F#3",
            "ticks": 104880,
            "time": 81.9375,
            "velocity": 0.7952755905511811
          },
          {
            "duration": 0.1875,
            "durationTicks": 240,
            "midi": 57,
            "name": "A3",
            "ticks": 105120,
            "time": 82.125,
            "velocity": 0.8110236220472441
          },
          {
            "duration": 0.1875,
            "durationTicks": 240,
            "midi": 50,
            "name": "D3",
            "ticks": 105360,
            "time": 82.3125,
            "velocity": 0.7244094488188977
          },
          {
            "duration": 0.1875,
            "durationTicks": 240,
            "midi": 54,
            "name": "F#3",
            "ticks": 105600,
            "time": 82.5,
            "velocity": 0.7952755905511811
          },
          {
            "duration": 0.1875,
            "durationTicks": 240,
            "midi": 45,
            "name": "A2",
            "ticks": 105840,
            "time": 82.6875,
            "velocity": 0.6692913385826772
          },
          {
            "duration": 0.1875,
            "durationTicks": 240,
            "midi": 50,
            "name": "D3",
            "ticks": 106080,
            "time": 82.875,
            "velocity": 0.8031496062992126
          },
          {
            "duration": 0.1875,
            "durationTicks": 240,
            "midi": 49,
            "name": "C#3",
            "ticks": 106320,
            "time": 83.0625,
            "velocity": 0.7559055118110236
          },
          {
            "duration": 0.1875,
            "durationTicks": 240,
            "midi": 47,
            "name": "B2",
            "ticks": 106560,
            "time": 83.25,
            "velocity": 0.7480314960629921
          },
          {
            "duration": 0.1875,
            "durationTicks": 240,
            "midi": 45,
            "name": "A2",
            "ticks": 106800,
            "time": 83.4375,
            "velocity": 0.7559055118110236
          },
          {
            "duration": 0.1875,
            "durationTicks": 240,
            "midi": 43,
            "name": "G2",
            "ticks": 107040,
            "time": 83.625,
            "velocity": 0.7480314960629921
          },
          {
            "duration": 0.1875,
            "durationTicks": 240,
            "midi": 42,
            "name": "F#2",
            "ticks": 107280,
            "time": 83.8125,
            "velocity": 0.7559055118110236
          },
          {
            "duration": 0.1875,
            "durationTicks": 240,
            "midi": 40,
            "name": "E2",
            "ticks": 107520,
            "time": 84,
            "velocity": 0.7322834645669292
          },
          {
            "duration": 0.375,
            "durationTicks": 480,
            "midi": 38,
            "name": "D2",
            "ticks": 107760,
            "time": 84.1875,
            "velocity": 0.7401574803149606
          },
          {
            "duration": 0.17031250000000853,
            "durationTicks": 218,
            "midi": 60,
            "name": "C4",
            "ticks": 108240,
            "time": 84.5625,
            "velocity": 0.889763779527559
          },
          {
            "duration": 0.19062499999999716,
            "durationTicks": 244,
            "midi": 59,
            "name": "B3",
            "ticks": 108480,
            "time": 84.75,
            "velocity": 0.7795275590551181
          },
          {
            "duration": 0.19062499999999716,
            "durationTicks": 244,
            "midi": 57,
            "name": "A3",
            "ticks": 108720,
            "time": 84.9375,
            "velocity": 0.7165354330708661
          },
          {
            "duration": 0.19062499999999716,
            "durationTicks": 244,
            "midi": 55,
            "name": "G3",
            "ticks": 108960,
            "time": 85.125,
            "velocity": 0.7559055118110236
          },
          {
            "duration": 0.19062499999999716,
            "durationTicks": 244,
            "midi": 54,
            "name": "F#3",
            "ticks": 109200,
            "time": 85.3125,
            "velocity": 0.7559055118110236
          },
          {
            "duration": 0.19062499999999716,
            "durationTicks": 244,
            "midi": 52,
            "name": "E3",
            "ticks": 109440,
            "time": 85.5,
            "velocity": 0.7401574803149606
          },
          {
            "duration": 0.17578125,
            "durationTicks": 225,
            "midi": 50,
            "name": "D3",
            "ticks": 109680,
            "time": 85.6875,
            "velocity": 0.7637795275590551
          },
          {
            "duration": 0.19062499999999716,
            "durationTicks": 244,
            "midi": 60,
            "name": "C4",
            "ticks": 109920,
            "time": 85.875,
            "velocity": 0.9212598425196851
          },
          {
            "duration": 0.19062499999999716,
            "durationTicks": 244,
            "midi": 59,
            "name": "B3",
            "ticks": 110160,
            "time": 86.0625,
            "velocity": 0.7874015748031497
          },
          {
            "duration": 0.19062499999999716,
            "durationTicks": 244,
            "midi": 57,
            "name": "A3",
            "ticks": 110400,
            "time": 86.25,
            "velocity": 0.7401574803149606
          },
          {
            "duration": 0.19062499999999716,
            "durationTicks": 244,
            "midi": 55,
            "name": "G3",
            "ticks": 110640,
            "time": 86.4375,
            "velocity": 0.7795275590551181
          },
          {
            "duration": 0.19062499999999716,
            "durationTicks": 244,
            "midi": 54,
            "name": "F#3",
            "ticks": 110880,
            "time": 86.625,
            "velocity": 0.7716535433070866
          },
          {
            "duration": 0.19062499999999716,
            "durationTicks": 244,
            "midi": 52,
            "name": "E3",
            "ticks": 111120,
            "time": 86.8125,
            "velocity": 0.7165354330708661
          },
          {
            "duration": 0.19062499999999716,
            "durationTicks": 244,
            "midi": 50,
            "name": "D3",
            "ticks": 111360,
            "time": 87,
            "velocity": 0.7165354330708661
          },
          {
            "duration": 0.17578125,
            "durationTicks": 225,
            "midi": 48,
            "name": "C3",
            "ticks": 111600,
            "time": 87.1875,
            "velocity": 0.7322834645669292
          },
          {
            "duration": 0.19062499999999716,
            "durationTicks": 244,
            "midi": 59,
            "name": "B3",
            "ticks": 111840,
            "time": 87.375,
            "velocity": 0.8503937007874016
          },
          {
            "duration": 0.19062499999999716,
            "durationTicks": 244,
            "midi": 57,
            "name": "A3",
            "ticks": 112080,
            "time": 87.5625,
            "velocity": 0.7480314960629921
          },
          {
            "duration": 0.19062499999999716,
            "durationTicks": 244,
            "midi": 55,
            "name": "G3",
            "ticks": 112320,
            "time": 87.75,
            "velocity": 0.7322834645669292
          },
          {
            "duration": 0.19062499999999716,
            "durationTicks": 244,
            "midi": 54,
            "name": "F#3",
            "ticks": 112560,
            "time": 87.9375,
            "velocity": 0.7716535433070866
          },
          {
            "duration": 0.19062499999999716,
            "durationTicks": 244,
            "midi": 52,
            "name": "E3",
            "ticks": 112800,
            "time": 88.125,
            "velocity": 0.7874015748031497
          },
          {
            "duration": 0.19062499999999716,
            "durationTicks": 244,
            "midi": 50,
            "name": "D3",
            "ticks": 113040,
            "time": 88.3125,
            "velocity": 0.7322834645669292
          },
          {
            "duration": 0.19062499999999716,
            "durationTicks": 244,
            "midi": 48,
            "name": "C3",
            "ticks": 113280,
            "time": 88.5,
            "velocity": 0.7637795275590551
          },
          {
            "duration": 0.17578125,
            "durationTicks": 225,
            "midi": 47,
            "name": "B2",
            "ticks": 113520,
            "time": 88.6875,
            "velocity": 0.7559055118110236
          },
          {
            "duration": 0.19062499999999716,
            "durationTicks": 244,
            "midi": 57,
            "name": "A3",
            "ticks": 113760,
            "time": 88.875,
            "velocity": 0.8740157480314961
          },
          {
            "duration": 0.19062499999999716,
            "durationTicks": 244,
            "midi": 55,
            "name": "G3",
            "ticks": 114000,
            "time": 89.0625,
            "velocity": 0.7637795275590551
          },
          {
            "duration": 0.19062499999999716,
            "durationTicks": 244,
            "midi": 54,
            "name": "F#3",
            "ticks": 114240,
            "time": 89.25,
            "velocity": 0.7559055118110236
          },
          {
            "duration": 0.19062499999999716,
            "durationTicks": 244,
            "midi": 52,
            "name": "E3",
            "ticks": 114480,
            "time": 89.4375,
            "velocity": 0.7322834645669292
          },
          {
            "duration": 0.19062499999999716,
            "durationTicks": 244,
            "midi": 50,
            "name": "D3",
            "ticks": 114720,
            "time": 89.625,
            "velocity": 0.7401574803149606
          },
          {
            "duration": 0.19062499999999716,
            "durationTicks": 244,
            "midi": 48,
            "name": "C3",
            "ticks": 114960,
            "time": 89.8125,
            "velocity": 0.7244094488188977
          },
          {
            "duration": 0.19062499999999716,
            "durationTicks": 244,
            "midi": 47,
            "name": "B2",
            "ticks": 115200,
            "time": 90,
            "velocity": 0.7952755905511811
          },
          {
            "duration": 0.17578125,
            "durationTicks": 225,
            "midi": 45,
            "name": "A2",
            "ticks": 115440,
            "time": 90.1875,
            "velocity": 0.7401574803149606
          },
          {
            "duration": 0.17031250000000853,
            "durationTicks": 218,
            "midi": 55,
            "name": "G3",
            "ticks": 115680,
            "time": 90.375,
            "velocity": 0.8267716535433071
          },
          {
            "duration": 0.19062499999999716,
            "durationTicks": 244,
            "midi": 54,
            "name": "F#3",
            "ticks": 115920,
            "time": 90.5625,
            "velocity": 0.7716535433070866
          },
          {
            "duration": 0.17578125,
            "durationTicks": 225,
            "midi": 52,
            "name": "E3",
            "ticks": 116160,
            "time": 90.75,
            "velocity": 0.7401574803149606
          },
          {
            "duration": 0.19062499999999716,
            "durationTicks": 244,
            "midi": 54,
            "name": "F#3",
            "ticks": 116400,
            "time": 90.9375,
            "velocity": 0.8661417322834646
          },
          {
            "duration": 0.17578125,
            "durationTicks": 225,
            "midi": 57,
            "name": "A3",
            "ticks": 116640,
            "time": 91.125,
            "velocity": 0.8267716535433071
          },
          {
            "duration": 0.1875,
            "durationTicks": 240,
            "midi": 50,
            "name": "D3",
            "ticks": 116880,
            "time": 91.3125,
            "velocity": 0.6535433070866141
          },
          {
            "duration": 0.1875,
            "durationTicks": 240,
            "midi": 57,
            "name": "A3",
            "ticks": 117120,
            "time": 91.5,
            "velocity": 0.8188976377952756
          },
          {
            "duration": 0.1875,
            "durationTicks": 240,
            "midi": 52,
            "name": "E3",
            "ticks": 117360,
            "time": 91.6875,
            "velocity": 0.7086614173228346
          },
          {
            "duration": 0.1875,
            "durationTicks": 240,
            "midi": 57,
            "name": "A3",
            "ticks": 117600,
            "time": 91.875,
            "velocity": 0.8346456692913385
          },
          {
            "duration": 0.1875,
            "durationTicks": 240,
            "midi": 54,
            "name": "F#3",
            "ticks": 117840,
            "time": 92.0625,
            "velocity": 0.7322834645669292
          },
          {
            "duration": 0.1875,
            "durationTicks": 240,
            "midi": 57,
            "name": "A3",
            "ticks": 118080,
            "time": 92.25,
            "velocity": 0.8110236220472441
          },
          {
            "duration": 0.1875,
            "durationTicks": 240,
            "midi": 55,
            "name": "G3",
            "ticks": 118320,
            "time": 92.4375,
            "velocity": 0.7401574803149606
          },
          {
            "duration": 0.1875,
            "durationTicks": 240,
            "midi": 57,
            "name": "A3",
            "ticks": 118560,
            "time": 92.625,
            "velocity": 0.8582677165354331
          },
          {
            "duration": 0.1875,
            "durationTicks": 240,
            "midi": 52,
            "name": "E3",
            "ticks": 118800,
            "time": 92.8125,
            "velocity": 0.7086614173228346
          },
          {
            "duration": 0.1875,
            "durationTicks": 240,
            "midi": 57,
            "name": "A3",
            "ticks": 119040,
            "time": 93,
            "velocity": 0.8031496062992126
          },
          {
            "duration": 0.1875,
            "durationTicks": 240,
            "midi": 54,
            "name": "F#3",
            "ticks": 119280,
            "time": 93.1875,
            "velocity": 0.7716535433070866
          },
          {
            "duration": 0.1875,
            "durationTicks": 240,
            "midi": 57,
            "name": "A3",
            "ticks": 119520,
            "time": 93.375,
            "velocity": 0.7874015748031497
          },
          {
            "duration": 0.1875,
            "durationTicks": 240,
            "midi": 50,
            "name": "D3",
            "ticks": 119760,
            "time": 93.5625,
            "velocity": 0.7007874015748031
          },
          {
            "duration": 0.1875,
            "durationTicks": 240,
            "midi": 57,
            "name": "A3",
            "ticks": 120000,
            "time": 93.75,
            "velocity": 0.8582677165354331
          },
          {
            "duration": 0.1875,
            "durationTicks": 240,
            "midi": 55,
            "name": "G3",
            "ticks": 120240,
            "time": 93.9375,
            "velocity": 0.7244094488188977
          },
          {
            "duration": 0.1875,
            "durationTicks": 240,
            "midi": 57,
            "name": "A3",
            "ticks": 120480,
            "time": 94.125,
            "velocity": 0.7874015748031497
          },
          {
            "duration": 0.1875,
            "durationTicks": 240,
            "midi": 52,
            "name": "E3",
            "ticks": 120720,
            "time": 94.3125,
            "velocity": 0.7401574803149606
          },
          {
            "duration": 0.1875,
            "durationTicks": 240,
            "midi": 57,
            "name": "A3",
            "ticks": 120960,
            "time": 94.5,
            "velocity": 0.8110236220472441
          },
          {
            "duration": 0.1875,
            "durationTicks": 240,
            "midi": 54,
            "name": "F#3",
            "ticks": 121200,
            "time": 94.6875,
            "velocity": 0.7322834645669292
          },
          {
            "duration": 0.1875,
            "durationTicks": 240,
            "midi": 57,
            "name": "A3",
            "ticks": 121440,
            "time": 94.875,
            "velocity": 0.8267716535433071
          },
          {
            "duration": 0.1875,
            "durationTicks": 240,
            "midi": 50,
            "name": "D3",
            "ticks": 121680,
            "time": 95.0625,
            "velocity": 0.7165354330708661
          },
          {
            "duration": 0.1875,
            "durationTicks": 240,
            "midi": 57,
            "name": "A3",
            "ticks": 121920,
            "time": 95.25,
            "velocity": 0.8110236220472441
          },
          {
            "duration": 0.1875,
            "durationTicks": 240,
            "midi": 55,
            "name": "G3",
            "ticks": 122160,
            "time": 95.4375,
            "velocity": 0.7244094488188977
          },
          {
            "duration": 0.1875,
            "durationTicks": 240,
            "midi": 57,
            "name": "A3",
            "ticks": 122400,
            "time": 95.625,
            "velocity": 0.7637795275590551
          },
          {
            "duration": 0.1875,
            "durationTicks": 240,
            "midi": 52,
            "name": "E3",
            "ticks": 122640,
            "time": 95.8125,
            "velocity": 0.7322834645669292
          },
          {
            "duration": 0.1875,
            "durationTicks": 240,
            "midi": 57,
            "name": "A3",
            "ticks": 122880,
            "time": 96,
            "velocity": 0.7716535433070866
          },
          {
            "duration": 0.1875,
            "durationTicks": 240,
            "midi": 54,
            "name": "F#3",
            "ticks": 123120,
            "time": 96.1875,
            "velocity": 0.5118110236220472
          },
          {
            "duration": 0.1875,
            "durationTicks": 240,
            "midi": 57,
            "name": "A3",
            "ticks": 123360,
            "time": 96.375,
            "velocity": 0.6062992125984252
          },
          {
            "duration": 0.1875,
            "durationTicks": 240,
            "midi": 50,
            "name": "D3",
            "ticks": 123600,
            "time": 96.5625,
            "velocity": 0.5590551181102362
          },
          {
            "duration": 0.1875,
            "durationTicks": 240,
            "midi": 57,
            "name": "A3",
            "ticks": 123840,
            "time": 96.75,
            "velocity": 0.6456692913385826
          },
          {
            "duration": 0.1875,
            "durationTicks": 240,
            "midi": 52,
            "name": "E3",
            "ticks": 124080,
            "time": 96.9375,
            "velocity": 0.5826771653543307
          },
          {
            "duration": 0.1875,
            "durationTicks": 240,
            "midi": 57,
            "name": "A3",
            "ticks": 124320,
            "time": 97.125,
            "velocity": 0.6299212598425197
          },
          {
            "duration": 0.1875,
            "durationTicks": 240,
            "midi": 54,
            "name": "F#3",
            "ticks": 124560,
            "time": 97.3125,
            "velocity": 0.6220472440944882
          },
          {
            "duration": 0.1875,
            "durationTicks": 240,
            "midi": 57,
            "name": "A3",
            "ticks": 124800,
            "time": 97.5,
            "velocity": 0.6141732283464567
          },
          {
            "duration": 0.1875,
            "durationTicks": 240,
            "midi": 55,
            "name": "G3",
            "ticks": 125040,
            "time": 97.6875,
            "velocity": 0.5905511811023622
          },
          {
            "duration": 0.1875,
            "durationTicks": 240,
            "midi": 57,
            "name": "A3",
            "ticks": 125280,
            "time": 97.875,
            "velocity": 0.6850393700787402
          },
          {
            "duration": 0.1875,
            "durationTicks": 240,
            "midi": 57,
            "name": "A3",
            "ticks": 125520,
            "time": 98.0625,
            "velocity": 0.5590551181102362
          },
          {
            "duration": 0.1875,
            "durationTicks": 240,
            "midi": 57,
            "name": "A3",
            "ticks": 125760,
            "time": 98.25,
            "velocity": 0.6692913385826772
          },
          {
            "duration": 0.1875,
            "durationTicks": 240,
            "midi": 59,
            "name": "B3",
            "ticks": 126000,
            "time": 98.4375,
            "velocity": 0.5511811023622047
          },
          {
            "duration": 0.1875,
            "durationTicks": 240,
            "midi": 57,
            "name": "A3",
            "ticks": 126240,
            "time": 98.625,
            "velocity": 0.6771653543307087
          },
          {
            "duration": 0.1875,
            "durationTicks": 240,
            "midi": 50,
            "name": "D3",
            "ticks": 126480,
            "time": 98.8125,
            "velocity": 0.5039370078740157
          },
          {
            "duration": 0.1875,
            "durationTicks": 240,
            "midi": 57,
            "name": "A3",
            "ticks": 126720,
            "time": 99,
            "velocity": 0.6850393700787402
          },
          {
            "duration": 0.1875,
            "durationTicks": 240,
            "midi": 57,
            "name": "A3",
            "ticks": 126960,
            "time": 99.1875,
            "velocity": 0.5433070866141733
          },
          {
            "duration": 0.1875,
            "durationTicks": 240,
            "midi": 57,
            "name": "A3",
            "ticks": 127200,
            "time": 99.375,
            "velocity": 0.6929133858267716
          },
          {
            "duration": 0.1875,
            "durationTicks": 240,
            "midi": 59,
            "name": "B3",
            "ticks": 127440,
            "time": 99.5625,
            "velocity": 0.5433070866141733
          },
          {
            "duration": 0.1875,
            "durationTicks": 240,
            "midi": 57,
            "name": "A3",
            "ticks": 127680,
            "time": 99.75,
            "velocity": 0.7007874015748031
          },
          {
            "duration": 0.1875,
            "durationTicks": 240,
            "midi": 60,
            "name": "C4",
            "ticks": 127920,
            "time": 99.9375,
            "velocity": 0.5748031496062992
          },
          {
            "duration": 0.1875,
            "durationTicks": 240,
            "midi": 57,
            "name": "A3",
            "ticks": 128160,
            "time": 100.125,
            "velocity": 0.6850393700787402
          },
          {
            "duration": 0.1875,
            "durationTicks": 240,
            "midi": 50,
            "name": "D3",
            "ticks": 128400,
            "time": 100.3125,
            "velocity": 0.5196850393700787
          },
          {
            "duration": 0.1875,
            "durationTicks": 240,
            "midi": 57,
            "name": "A3",
            "ticks": 128640,
            "time": 100.5,
            "velocity": 0.6771653543307087
          },
          {
            "duration": 0.1875,
            "durationTicks": 240,
            "midi": 59,
            "name": "B3",
            "ticks": 128880,
            "time": 100.6875,
            "velocity": 0.5275590551181102
          },
          {
            "duration": 0.1875,
            "durationTicks": 240,
            "midi": 57,
            "name": "A3",
            "ticks": 129120,
            "time": 100.875,
            "velocity": 0.6771653543307087
          },
          {
            "duration": 0.1875,
            "durationTicks": 240,
            "midi": 60,
            "name": "C4",
            "ticks": 129360,
            "time": 101.0625,
            "velocity": 0.5275590551181102
          },
          {
            "duration": 0.1875,
            "durationTicks": 240,
            "midi": 57,
            "name": "A3",
            "ticks": 129600,
            "time": 101.25,
            "velocity": 0.6929133858267716
          },
          {
            "duration": 0.1875,
            "durationTicks": 240,
            "midi": 62,
            "name": "D4",
            "ticks": 129840,
            "time": 101.4375,
            "velocity": 0.5275590551181102
          },
          {
            "duration": 0.1875,
            "durationTicks": 240,
            "midi": 57,
            "name": "A3",
            "ticks": 130080,
            "time": 101.625,
            "velocity": 0.6850393700787402
          },
          {
            "duration": 0.1875,
            "durationTicks": 240,
            "midi": 59,
            "name": "B3",
            "ticks": 130320,
            "time": 101.8125,
            "velocity": 0.5354330708661418
          },
          {
            "duration": 0.1875,
            "durationTicks": 240,
            "midi": 57,
            "name": "A3",
            "ticks": 130560,
            "time": 102,
            "velocity": 0.6929133858267716
          },
          {
            "duration": 0.1875,
            "durationTicks": 240,
            "midi": 60,
            "name": "C4",
            "ticks": 130800,
            "time": 102.1875,
            "velocity": 0.5590551181102362
          },
          {
            "duration": 0.1875,
            "durationTicks": 240,
            "midi": 57,
            "name": "A3",
            "ticks": 131040,
            "time": 102.375,
            "velocity": 0.6850393700787402
          },
          {
            "duration": 0.1875,
            "durationTicks": 240,
            "midi": 59,
            "name": "B3",
            "ticks": 131280,
            "time": 102.5625,
            "velocity": 0.5354330708661418
          },
          {
            "duration": 0.1875,
            "durationTicks": 240,
            "midi": 57,
            "name": "A3",
            "ticks": 131520,
            "time": 102.75,
            "velocity": 0.6614173228346457
          },
          {
            "duration": 0.1875,
            "durationTicks": 240,
            "midi": 60,
            "name": "C4",
            "ticks": 131760,
            "time": 102.9375,
            "velocity": 0.5118110236220472
          },
          {
            "duration": 0.1875,
            "durationTicks": 240,
            "midi": 57,
            "name": "A3",
            "ticks": 132000,
            "time": 103.125,
            "velocity": 0.6929133858267716
          },
          {
            "duration": 0.1875,
            "durationTicks": 240,
            "midi": 57,
            "name": "A3",
            "ticks": 132240,
            "time": 103.3125,
            "velocity": 0.5669291338582677
          },
          {
            "duration": 0.1875,
            "durationTicks": 240,
            "midi": 57,
            "name": "A3",
            "ticks": 132480,
            "time": 103.5,
            "velocity": 0.6614173228346457
          },
          {
            "duration": 0.1875,
            "durationTicks": 240,
            "midi": 59,
            "name": "B3",
            "ticks": 132720,
            "time": 103.6875,
            "velocity": 0.5196850393700787
          },
          {
            "duration": 0.1875,
            "durationTicks": 240,
            "midi": 57,
            "name": "A3",
            "ticks": 132960,
            "time": 103.875,
            "velocity": 0.6771653543307087
          },
          {
            "duration": 0.1875,
            "durationTicks": 240,
            "midi": 57,
            "name": "A3",
            "ticks": 133200,
            "time": 104.0625,
            "velocity": 0.5354330708661418
          },
          {
            "duration": 0.1875,
            "durationTicks": 240,
            "midi": 57,
            "name": "A3",
            "ticks": 133440,
            "time": 104.25,
            "velocity": 0.7244094488188977
          },
          {
            "duration": 0.1875,
            "durationTicks": 240,
            "midi": 59,
            "name": "B3",
            "ticks": 133680,
            "time": 104.4375,
            "velocity": 0.5511811023622047
          },
          {
            "duration": 0.1875,
            "durationTicks": 240,
            "midi": 57,
            "name": "A3",
            "ticks": 133920,
            "time": 104.625,
            "velocity": 0.6771653543307087
          },
          {
            "duration": 0.1875,
            "durationTicks": 240,
            "midi": 55,
            "name": "G3",
            "ticks": 134160,
            "time": 104.8125,
            "velocity": 0.5590551181102362
          },
          {
            "duration": 0.1875,
            "durationTicks": 240,
            "midi": 57,
            "name": "A3",
            "ticks": 134400,
            "time": 105,
            "velocity": 0.6850393700787402
          },
          {
            "duration": 0.1875,
            "durationTicks": 240,
            "midi": 57,
            "name": "A3",
            "ticks": 134640,
            "time": 105.1875,
            "velocity": 0.5433070866141733
          },
          {
            "duration": 0.1875,
            "durationTicks": 240,
            "midi": 57,
            "name": "A3",
            "ticks": 134880,
            "time": 105.375,
            "velocity": 0.7244094488188977
          },
          {
            "duration": 0.1875,
            "durationTicks": 240,
            "midi": 55,
            "name": "G3",
            "ticks": 135120,
            "time": 105.5625,
            "velocity": 0.5433070866141733
          },
          {
            "duration": 0.1875,
            "durationTicks": 240,
            "midi": 57,
            "name": "A3",
            "ticks": 135360,
            "time": 105.75,
            "velocity": 0.7086614173228346
          },
          {
            "duration": 0.1875,
            "durationTicks": 240,
            "midi": 57,
            "name": "A3",
            "ticks": 135600,
            "time": 105.9375,
            "velocity": 0.5275590551181102
          },
          {
            "duration": 0.1875,
            "durationTicks": 240,
            "midi": 57,
            "name": "A3",
            "ticks": 135840,
            "time": 106.125,
            "velocity": 0.6929133858267716
          },
          {
            "duration": 0.1875,
            "durationTicks": 240,
            "midi": 54,
            "name": "F#3",
            "ticks": 136080,
            "time": 106.3125,
            "velocity": 0.5196850393700787
          },
          {
            "duration": 0.1875,
            "durationTicks": 240,
            "midi": 57,
            "name": "A3",
            "ticks": 136320,
            "time": 106.5,
            "velocity": 0.7322834645669292
          },
          {
            "duration": 0.1875,
            "durationTicks": 240,
            "midi": 55,
            "name": "G3",
            "ticks": 136560,
            "time": 106.6875,
            "velocity": 0.7086614173228346
          },
          {
            "duration": 0.1875,
            "durationTicks": 240,
            "midi": 57,
            "name": "A3",
            "ticks": 136800,
            "time": 106.875,
            "velocity": 0.7795275590551181
          },
          {
            "duration": 0.1875,
            "durationTicks": 240,
            "midi": 54,
            "name": "F#3",
            "ticks": 137040,
            "time": 107.0625,
            "velocity": 0.7480314960629921
          },
          {
            "duration": 0.1875,
            "durationTicks": 240,
            "midi": 57,
            "name": "A3",
            "ticks": 137280,
            "time": 107.25,
            "velocity": 0.7795275590551181
          },
          {
            "duration": 0.1875,
            "durationTicks": 240,
            "midi": 55,
            "name": "G3",
            "ticks": 137520,
            "time": 107.4375,
            "velocity": 0.7480314960629921
          },
          {
            "duration": 0.1875,
            "durationTicks": 240,
            "midi": 57,
            "name": "A3",
            "ticks": 137760,
            "time": 107.625,
            "velocity": 0.8110236220472441
          },
          {
            "duration": 0.1875,
            "durationTicks": 240,
            "midi": 52,
            "name": "E3",
            "ticks": 138000,
            "time": 107.8125,
            "velocity": 0.6692913385826772
          },
          {
            "duration": 0.1875,
            "durationTicks": 240,
            "midi": 57,
            "name": "A3",
            "ticks": 138240,
            "time": 108,
            "velocity": 0.8031496062992126
          },
          {
            "duration": 0.16718749999999716,
            "durationTicks": 214,
            "midi": 54,
            "name": "F#3",
            "ticks": 138480,
            "time": 108.1875,
            "velocity": 0.7007874015748031
          },
          {
            "duration": 0.1875,
            "durationTicks": 240,
            "midi": 57,
            "name": "A3",
            "ticks": 138720,
            "time": 108.375,
            "velocity": 0.8346456692913385
          },
          {
            "duration": 0.19062499999999716,
            "durationTicks": 244,
            "midi": 50,
            "name": "D3",
            "ticks": 138960,
            "time": 108.5625,
            "velocity": 0.6929133858267716
          },
          {
            "duration": 0.17578125,
            "durationTicks": 225,
            "midi": 52,
            "name": "E3",
            "ticks": 139200,
            "time": 108.75,
            "velocity": 0.7874015748031497
          },
          {
            "duration": 0.1875,
            "durationTicks": 240,
            "midi": 53,
            "name": "F3",
            "ticks": 139440,
            "time": 108.9375,
            "velocity": 0.8582677165354331
          },
          {
            "duration": 0.1875,
            "durationTicks": 240,
            "midi": 50,
            "name": "D3",
            "ticks": 139680,
            "time": 109.125,
            "velocity": 0.7480314960629921
          },
          {
            "duration": 0.1875,
            "durationTicks": 240,
            "midi": 54,
            "name": "F#3",
            "ticks": 139920,
            "time": 109.3125,
            "velocity": 0.7952755905511811
          },
          {
            "duration": 0.1875,
            "durationTicks": 240,
            "midi": 50,
            "name": "D3",
            "ticks": 140160,
            "time": 109.5,
            "velocity": 0.7480314960629921
          },
          {
            "duration": 0.1875,
            "durationTicks": 240,
            "midi": 55,
            "name": "G3",
            "ticks": 140400,
            "time": 109.6875,
            "velocity": 0.7952755905511811
          },
          {
            "duration": 0.1875,
            "durationTicks": 240,
            "midi": 50,
            "name": "D3",
            "ticks": 140640,
            "time": 109.875,
            "velocity": 0.7480314960629921
          },
          {
            "duration": 0.1875,
            "durationTicks": 240,
            "midi": 56,
            "name": "G#3",
            "ticks": 140880,
            "time": 110.0625,
            "velocity": 0.8346456692913385
          },
          {
            "duration": 0.1875,
            "durationTicks": 240,
            "midi": 50,
            "name": "D3",
            "ticks": 141120,
            "time": 110.25,
            "velocity": 0.7086614173228346
          },
          {
            "duration": 0.1875,
            "durationTicks": 240,
            "midi": 57,
            "name": "A3",
            "ticks": 141360,
            "time": 110.4375,
            "velocity": 0.84251968503937
          },
          {
            "duration": 0.1875,
            "durationTicks": 240,
            "midi": 50,
            "name": "D3",
            "ticks": 141600,
            "time": 110.625,
            "velocity": 0.7165354330708661
          },
          {
            "duration": 0.1875,
            "durationTicks": 240,
            "midi": 58,
            "name": "A#3",
            "ticks": 141840,
            "time": 110.8125,
            "velocity": 0.8346456692913385
          },
          {
            "duration": 0.1875,
            "durationTicks": 240,
            "midi": 50,
            "name": "D3",
            "ticks": 142080,
            "time": 111,
            "velocity": 0.7165354330708661
          },
          {
            "duration": 0.1875,
            "durationTicks": 240,
            "midi": 59,
            "name": "B3",
            "ticks": 142320,
            "time": 111.1875,
            "velocity": 0.8267716535433071
          },
          {
            "duration": 0.1875,
            "durationTicks": 240,
            "midi": 50,
            "name": "D3",
            "ticks": 142560,
            "time": 111.375,
            "velocity": 0.7244094488188977
          },
          {
            "duration": 0.1875,
            "durationTicks": 240,
            "midi": 60,
            "name": "C4",
            "ticks": 142800,
            "time": 111.5625,
            "velocity": 0.9133858267716536
          },
          {
            "duration": 0.1875,
            "durationTicks": 240,
            "midi": 50,
            "name": "D3",
            "ticks": 143040,
            "time": 111.75,
            "velocity": 0.7480314960629921
          },
          {
            "duration": 0.1875,
            "durationTicks": 240,
            "midi": 61,
            "name": "C#4",
            "ticks": 143280,
            "time": 111.9375,
            "velocity": 0.968503937007874
          },
          {
            "duration": 0.1875,
            "durationTicks": 240,
            "midi": 50,
            "name": "D3",
            "ticks": 143520,
            "time": 112.125,
            "velocity": 0.6929133858267716
          },
          {
            "duration": 0.1875,
            "durationTicks": 240,
            "midi": 62,
            "name": "D4",
            "ticks": 143760,
            "time": 112.3125,
            "velocity": 0.9606299212598425
          },
          {
            "duration": 0.1875,
            "durationTicks": 240,
            "midi": 50,
            "name": "D3",
            "ticks": 144000,
            "time": 112.5,
            "velocity": 0.6929133858267716
          },
          {
            "duration": 0.1875,
            "durationTicks": 240,
            "midi": 63,
            "name": "D#4",
            "ticks": 144240,
            "time": 112.6875,
            "velocity": 0.9606299212598425
          },
          {
            "duration": 0.1875,
            "durationTicks": 240,
            "midi": 50,
            "name": "D3",
            "ticks": 144480,
            "time": 112.875,
            "velocity": 0.6850393700787402
          },
          {
            "duration": 0.1875,
            "durationTicks": 240,
            "midi": 64,
            "name": "E4",
            "ticks": 144720,
            "time": 113.0625,
            "velocity": 0.9448818897637795
          },
          {
            "duration": 0.1875,
            "durationTicks": 240,
            "midi": 50,
            "name": "D3",
            "ticks": 144960,
            "time": 113.25,
            "velocity": 0.7007874015748031
          },
          {
            "duration": 0.1875,
            "durationTicks": 240,
            "midi": 65,
            "name": "F4",
            "ticks": 145200,
            "time": 113.4375,
            "velocity": 0.952755905511811
          },
          {
            "duration": 0.1875,
            "durationTicks": 240,
            "midi": 50,
            "name": "D3",
            "ticks": 145440,
            "time": 113.625,
            "velocity": 0.6535433070866141
          },
          {
            "duration": 0.1875,
            "durationTicks": 240,
            "midi": 66,
            "name": "F#4",
            "ticks": 145680,
            "time": 113.8125,
            "velocity": 1
          },
          {
            "duration": 0.1875,
            "durationTicks": 240,
            "midi": 50,
            "name": "D3",
            "ticks": 145920,
            "time": 114,
            "velocity": 0.7007874015748031
          },
          {
            "duration": 0.1875,
            "durationTicks": 240,
            "midi": 67,
            "name": "G4",
            "ticks": 146160,
            "time": 114.1875,
            "velocity": 0.984251968503937
          },
          {
            "duration": 0.19062499999999716,
            "durationTicks": 244,
            "midi": 59,
            "name": "B3",
            "ticks": 146400,
            "time": 114.375,
            "velocity": 0.7322834645669292
          },
          {
            "duration": 0.19062499999999716,
            "durationTicks": 244,
            "midi": 50,
            "name": "D3",
            "ticks": 146640,
            "time": 114.5625,
            "velocity": 0.6614173228346457
          },
          {
            "duration": 0.17578125,
            "durationTicks": 225,
            "midi": 59,
            "name": "B3",
            "ticks": 146880,
            "time": 114.75,
            "velocity": 0.8503937007874016
          },
          {
            "duration": 0.1875,
            "durationTicks": 240,
            "midi": 67,
            "name": "G4",
            "ticks": 147120,
            "time": 114.9375,
            "velocity": 0.937007874015748
          },
          {
            "duration": 0.1875,
            "durationTicks": 240,
            "midi": 59,
            "name": "B3",
            "ticks": 147360,
            "time": 115.125,
            "velocity": 0.7480314960629921
          },
          {
            "duration": 0.1875,
            "durationTicks": 240,
            "midi": 67,
            "name": "G4",
            "ticks": 147600,
            "time": 115.3125,
            "velocity": 0.9448818897637795
          },
          {
            "duration": 0.1875,
            "durationTicks": 240,
            "midi": 59,
            "name": "B3",
            "ticks": 147840,
            "time": 115.5,
            "velocity": 0.6692913385826772
          },
          {
            "duration": 0.1875,
            "durationTicks": 240,
            "midi": 67,
            "name": "G4",
            "ticks": 148080,
            "time": 115.6875,
            "velocity": 0.8976377952755905
          },
          {
            "duration": 0.1875,
            "durationTicks": 240,
            "midi": 59,
            "name": "B3",
            "ticks": 148320,
            "time": 115.875,
            "velocity": 0.7401574803149606
          },
          {
            "duration": 0.1875,
            "durationTicks": 240,
            "midi": 50,
            "name": "D3",
            "ticks": 148560,
            "time": 116.0625,
            "velocity": 0.7086614173228346
          },
          {
            "duration": 0.1875,
            "durationTicks": 240,
            "midi": 59,
            "name": "B3",
            "ticks": 148800,
            "time": 116.25,
            "velocity": 0.8346456692913385
          },
          {
            "duration": 0.1875,
            "durationTicks": 240,
            "midi": 67,
            "name": "G4",
            "ticks": 149040,
            "time": 116.4375,
            "velocity": 0.937007874015748
          },
          {
            "duration": 0.1875,
            "durationTicks": 240,
            "midi": 59,
            "name": "B3",
            "ticks": 149280,
            "time": 116.625,
            "velocity": 0.7401574803149606
          },
          {
            "duration": 0.1875,
            "durationTicks": 240,
            "midi": 67,
            "name": "G4",
            "ticks": 149520,
            "time": 116.8125,
            "velocity": 0.9448818897637795
          },
          {
            "duration": 0.1875,
            "durationTicks": 240,
            "midi": 59,
            "name": "B3",
            "ticks": 149760,
            "time": 117,
            "velocity": 0.7401574803149606
          },
          {
            "duration": 0.1875,
            "durationTicks": 240,
            "midi": 67,
            "name": "G4",
            "ticks": 150000,
            "time": 117.1875,
            "velocity": 0.9212598425196851
          },
          {
            "duration": 0.19062499999999716,
            "durationTicks": 244,
            "midi": 57,
            "name": "A3",
            "ticks": 150240,
            "time": 117.375,
            "velocity": 0.7007874015748031
          },
          {
            "duration": 0.19062499999999716,
            "durationTicks": 244,
            "midi": 50,
            "name": "D3",
            "ticks": 150480,
            "time": 117.5625,
            "velocity": 0.6850393700787402
          },
          {
            "duration": 0.17578125,
            "durationTicks": 225,
            "midi": 57,
            "name": "A3",
            "ticks": 150720,
            "time": 117.75,
            "velocity": 0.7716535433070866
          },
          {
            "duration": 0.1875,
            "durationTicks": 240,
            "midi": 67,
            "name": "G4",
            "ticks": 150960,
            "time": 117.9375,
            "velocity": 0.968503937007874
          },
          {
            "duration": 0.1875,
            "durationTicks": 240,
            "midi": 57,
            "name": "A3",
            "ticks": 151200,
            "time": 118.125,
            "velocity": 0.6771653543307087
          },
          {
            "duration": 0.1875,
            "durationTicks": 240,
            "midi": 67,
            "name": "G4",
            "ticks": 151440,
            "time": 118.3125,
            "velocity": 0.952755905511811
          },
          {
            "duration": 0.1875,
            "durationTicks": 240,
            "midi": 57,
            "name": "A3",
            "ticks": 151680,
            "time": 118.5,
            "velocity": 0.6929133858267716
          },
          {
            "duration": 0.1875,
            "durationTicks": 240,
            "midi": 67,
            "name": "G4",
            "ticks": 151920,
            "time": 118.6875,
            "velocity": 0.952755905511811
          },
          {
            "duration": 0.1875,
            "durationTicks": 240,
            "midi": 57,
            "name": "A3",
            "ticks": 152160,
            "time": 118.875,
            "velocity": 0.7086614173228346
          },
          {
            "duration": 0.1875,
            "durationTicks": 240,
            "midi": 50,
            "name": "D3",
            "ticks": 152400,
            "time": 119.0625,
            "velocity": 0.7007874015748031
          },
          {
            "duration": 0.1875,
            "durationTicks": 240,
            "midi": 57,
            "name": "A3",
            "ticks": 152640,
            "time": 119.25,
            "velocity": 0.8031496062992126
          },
          {
            "duration": 0.1875,
            "durationTicks": 240,
            "midi": 67,
            "name": "G4",
            "ticks": 152880,
            "time": 119.4375,
            "velocity": 0.968503937007874
          },
          {
            "duration": 0.1875,
            "durationTicks": 240,
            "midi": 57,
            "name": "A3",
            "ticks": 153120,
            "time": 119.625,
            "velocity": 0.7244094488188977
          },
          {
            "duration": 0.1875,
            "durationTicks": 240,
            "midi": 67,
            "name": "G4",
            "ticks": 153360,
            "time": 119.8125,
            "velocity": 0.937007874015748
          },
          {
            "duration": 0.1875,
            "durationTicks": 240,
            "midi": 57,
            "name": "A3",
            "ticks": 153600,
            "time": 120,
            "velocity": 0.7244094488188977
          },
          {
            "duration": 0.1875,
            "durationTicks": 240,
            "midi": 66,
            "name": "F#4",
            "ticks": 153840,
            "time": 120.1875,
            "velocity": 0.9291338582677166
          },
          {
            "duration": 0.19062499999999716,
            "durationTicks": 244,
            "midi": 60,
            "name": "C4",
            "ticks": 154080,
            "time": 120.375,
            "velocity": 0.6535433070866141
          },
          {
            "duration": 0.19062499999999716,
            "durationTicks": 244,
            "midi": 50,
            "name": "D3",
            "ticks": 154320,
            "time": 120.5625,
            "velocity": 0.6456692913385826
          },
          {
            "duration": 0.17578125,
            "durationTicks": 225,
            "midi": 60,
            "name": "C4",
            "ticks": 154560,
            "time": 120.75,
            "velocity": 0.9212598425196851
          },
          {
            "duration": 0.1875,
            "durationTicks": 240,
            "midi": 66,
            "name": "F#4",
            "ticks": 154800,
            "time": 120.9375,
            "velocity": 0.9133858267716536
          },
          {
            "duration": 0.1875,
            "durationTicks": 240,
            "midi": 60,
            "name": "C4",
            "ticks": 155040,
            "time": 121.125,
            "velocity": 0.7007874015748031
          },
          {
            "duration": 0.1875,
            "durationTicks": 240,
            "midi": 66,
            "name": "F#4",
            "ticks": 155280,
            "time": 121.3125,
            "velocity": 0.8661417322834646
          },
          {
            "duration": 0.1875,
            "durationTicks": 240,
            "midi": 60,
            "name": "C4",
            "ticks": 155520,
            "time": 121.5,
            "velocity": 0.6771653543307087
          },
          {
            "duration": 0.1875,
            "durationTicks": 240,
            "midi": 66,
            "name": "F#4",
            "ticks": 155760,
            "time": 121.6875,
            "velocity": 0.905511811023622
          },
          {
            "duration": 0.1875,
            "durationTicks": 240,
            "midi": 60,
            "name": "C4",
            "ticks": 156000,
            "time": 121.875,
            "velocity": 0.6535433070866141
          },
          {
            "duration": 0.1875,
            "durationTicks": 240,
            "midi": 50,
            "name": "D3",
            "ticks": 156240,
            "time": 122.0625,
            "velocity": 0.6456692913385826
          },
          {
            "duration": 0.1875,
            "durationTicks": 240,
            "midi": 60,
            "name": "C4",
            "ticks": 156480,
            "time": 122.25,
            "velocity": 0.8976377952755905
          },
          {
            "duration": 0.1875,
            "durationTicks": 240,
            "midi": 66,
            "name": "F#4",
            "ticks": 156720,
            "time": 122.4375,
            "velocity": 0.937007874015748
          },
          {
            "duration": 0.1875,
            "durationTicks": 240,
            "midi": 60,
            "name": "C4",
            "ticks": 156960,
            "time": 122.625,
            "velocity": 0.6614173228346457
          },
          {
            "duration": 0.1875,
            "durationTicks": 240,
            "midi": 66,
            "name": "F#4",
            "ticks": 157200,
            "time": 122.8125,
            "velocity": 0.84251968503937
          },
          {
            "duration": 0.1875,
            "durationTicks": 240,
            "midi": 60,
            "name": "C4",
            "ticks": 157440,
            "time": 123,
            "velocity": 0.7086614173228346
          },
          {
            "duration": 4.5,
            "durationTicks": 5760,
            "midi": 43,
            "name": "G2",
            "ticks": 157680,
            "time": 123.1875,
            "velocity": 0.889763779527559
          },
          {
            "duration": 4.5,
            "durationTicks": 5760,
            "midi": 59,
            "name": "B3",
            "ticks": 157680,
            "time": 123.1875,
            "velocity": 0.889763779527559
          },
          {
            "duration": 4.5,
            "durationTicks": 5760,
            "midi": 67,
            "name": "G4",
            "ticks": 157680,
            "time": 123.1875,
            "velocity": 0.889763779527559
          },
          {
            "duration": 0.15000000000000568,
            "durationTicks": 240,
            "midi": 59,
            "name": "B3",
            "ticks": 167280,
            "time": 130.6875,
            "velocity": 0.7007874015748031
          },
          {
            "duration": 0.5999999999999943,
            "durationTicks": 960,
            "midi": 43,
            "name": "G2",
            "ticks": 167520,
            "time": 130.8375,
            "velocity": 0.7637795275590551
          },
          {
            "duration": 0.5999999999999943,
            "durationTicks": 960,
            "midi": 50,
            "name": "D3",
            "ticks": 167520,
            "time": 130.8375,
            "velocity": 0.7637795275590551
          },
          {
            "duration": 0.75,
            "durationTicks": 1200,
            "midi": 59,
            "name": "B3",
            "ticks": 167520,
            "time": 130.8375,
            "velocity": 0.7637795275590551
          },
          {
            "duration": 0.1525000000000034,
            "durationTicks": 244,
            "midi": 57,
            "name": "A3",
            "ticks": 168720,
            "time": 131.5875,
            "velocity": 0.7795275590551181
          },
          {
            "duration": 0.152499999999975,
            "durationTicks": 244,
            "midi": 55,
            "name": "G3",
            "ticks": 168960,
            "time": 131.7375,
            "velocity": 0.7480314960629921
          },
          {
            "duration": 0.140625,
            "durationTicks": 225,
            "midi": 54,
            "name": "F#3",
            "ticks": 169200,
            "time": 131.8875,
            "velocity": 0.7559055118110236
          },
          {
            "duration": 0.1525000000000034,
            "durationTicks": 244,
            "midi": 55,
            "name": "G3",
            "ticks": 169440,
            "time": 132.0375,
            "velocity": 0.8188976377952756
          },
          {
            "duration": 0.1525000000000034,
            "durationTicks": 244,
            "midi": 50,
            "name": "D3",
            "ticks": 169680,
            "time": 132.1875,
            "velocity": 0.7401574803149606
          },
          {
            "duration": 0.1525000000000034,
            "durationTicks": 244,
            "midi": 52,
            "name": "E3",
            "ticks": 169920,
            "time": 132.3375,
            "velocity": 0.7716535433070866
          },
          {
            "duration": 0.140625,
            "durationTicks": 225,
            "midi": 54,
            "name": "F#3",
            "ticks": 170160,
            "time": 132.4875,
            "velocity": 0.7795275590551181
          },
          {
            "duration": 0.1525000000000034,
            "durationTicks": 244,
            "midi": 55,
            "name": "G3",
            "ticks": 170400,
            "time": 132.6375,
            "velocity": 0.8110236220472441
          },
          {
            "duration": 0.1525000000000034,
            "durationTicks": 244,
            "midi": 57,
            "name": "A3",
            "ticks": 170640,
            "time": 132.7875,
            "velocity": 0.7874015748031497
          },
          {
            "duration": 0.1525000000000034,
            "durationTicks": 244,
            "midi": 59,
            "name": "B3",
            "ticks": 170880,
            "time": 132.9375,
            "velocity": 0.7874015748031497
          },
          {
            "duration": 0.140625,
            "durationTicks": 225,
            "midi": 60,
            "name": "C4",
            "ticks": 171120,
            "time": 133.0875,
            "velocity": 0.7952755905511811
          },
          {
            "duration": 0.14999999999997726,
            "durationTicks": 240,
            "midi": 62,
            "name": "D4",
            "ticks": 171360,
            "time": 133.2375,
            "velocity": 0.8188976377952756
          },
          {
            "duration": 0.15000000000000568,
            "durationTicks": 240,
            "midi": 59,
            "name": "B3",
            "ticks": 171600,
            "time": 133.3875,
            "velocity": 0.7559055118110236
          },
          {
            "duration": 0.1525000000000034,
            "durationTicks": 244,
            "midi": 55,
            "name": "G3",
            "ticks": 171840,
            "time": 133.5375,
            "velocity": 0.7086614173228346
          },
          {
            "duration": 0.1525000000000034,
            "durationTicks": 244,
            "midi": 54,
            "name": "F#3",
            "ticks": 172080,
            "time": 133.6875,
            "velocity": 0.7559055118110236
          },
          {
            "duration": 0.140625,
            "durationTicks": 225,
            "midi": 55,
            "name": "G3",
            "ticks": 172320,
            "time": 133.8375,
            "velocity": 0.7716535433070866
          },
          {
            "duration": 0.14999999999997726,
            "durationTicks": 240,
            "midi": 52,
            "name": "E3",
            "ticks": 172560,
            "time": 133.9875,
            "velocity": 0.7480314960629921
          },
          {
            "duration": 0.15000000000000568,
            "durationTicks": 240,
            "midi": 50,
            "name": "D3",
            "ticks": 172800,
            "time": 134.1375,
            "velocity": 0.7716535433070866
          },
          {
            "duration": 0.15000000000000568,
            "durationTicks": 240,
            "midi": 48,
            "name": "C3",
            "ticks": 173040,
            "time": 134.2875,
            "velocity": 0.7559055118110236
          },
          {
            "duration": 0.1525000000000034,
            "durationTicks": 244,
            "midi": 47,
            "name": "B2",
            "ticks": 173280,
            "time": 134.4375,
            "velocity": 0.7637795275590551
          },
          {
            "duration": 0.1525000000000034,
            "durationTicks": 244,
            "midi": 48,
            "name": "C3",
            "ticks": 173520,
            "time": 134.5875,
            "velocity": 0.8188976377952756
          },
          {
            "duration": 0.152499999999975,
            "durationTicks": 244,
            "midi": 50,
            "name": "D3",
            "ticks": 173760,
            "time": 134.7375,
            "velocity": 0.7795275590551181
          },
          {
            "duration": 0.140625,
            "durationTicks": 225,
            "midi": 52,
            "name": "E3",
            "ticks": 174000,
            "time": 134.8875,
            "velocity": 0.7874015748031497
          },
          {
            "duration": 0.1525000000000034,
            "durationTicks": 244,
            "midi": 54,
            "name": "F#3",
            "ticks": 174240,
            "time": 135.0375,
            "velocity": 0.7559055118110236
          },
          {
            "duration": 0.1525000000000034,
            "durationTicks": 244,
            "midi": 55,
            "name": "G3",
            "ticks": 174480,
            "time": 135.1875,
            "velocity": 0.8188976377952756
          },
          {
            "duration": 0.1525000000000034,
            "durationTicks": 244,
            "midi": 57,
            "name": "A3",
            "ticks": 174720,
            "time": 135.3375,
            "velocity": 0.7637795275590551
          },
          {
            "duration": 0.140625,
            "durationTicks": 225,
            "midi": 59,
            "name": "B3",
            "ticks": 174960,
            "time": 135.4875,
            "velocity": 0.8031496062992126
          },
          {
            "duration": 0.15000000000000568,
            "durationTicks": 240,
            "midi": 60,
            "name": "C4",
            "ticks": 175200,
            "time": 135.6375,
            "velocity": 0.8346456692913385
          },
          {
            "duration": 0.15000000000000568,
            "durationTicks": 240,
            "midi": 57,
            "name": "A3",
            "ticks": 175440,
            "time": 135.7875,
            "velocity": 0.7165354330708661
          },
          {
            "duration": 0.1525000000000034,
            "durationTicks": 244,
            "midi": 55,
            "name": "G3",
            "ticks": 175680,
            "time": 135.9375,
            "velocity": 0.7244094488188977
          },
          {
            "duration": 0.1525000000000034,
            "durationTicks": 244,
            "midi": 54,
            "name": "F#3",
            "ticks": 175920,
            "time": 136.0875,
            "velocity": 0.7480314960629921
          },
          {
            "duration": 0.140625,
            "durationTicks": 225,
            "midi": 55,
            "name": "G3",
            "ticks": 176160,
            "time": 136.2375,
            "velocity": 0.8110236220472441
          },
          {
            "duration": 0.15000000000000568,
            "durationTicks": 240,
            "midi": 52,
            "name": "E3",
            "ticks": 176400,
            "time": 136.3875,
            "velocity": 0.7952755905511811
          },
          {
            "duration": 0.15000000000000568,
            "durationTicks": 240,
            "midi": 54,
            "name": "F#3",
            "ticks": 176640,
            "time": 136.5375,
            "velocity": 0.7716535433070866
          },
          {
            "duration": 0.15000000000000568,
            "durationTicks": 240,
            "midi": 55,
            "name": "G3",
            "ticks": 176880,
            "time": 136.6875,
            "velocity": 0.7795275590551181
          },
          {
            "duration": 0.15000000000000568,
            "durationTicks": 240,
            "midi": 45,
            "name": "A2",
            "ticks": 177120,
            "time": 136.8375,
            "velocity": 0.6929133858267716
          },
          {
            "duration": 0.152499999999975,
            "durationTicks": 244,
            "midi": 50,
            "name": "D3",
            "ticks": 177360,
            "time": 136.9875,
            "velocity": 0.7952755905511811
          },
          {
            "duration": 0.1525000000000034,
            "durationTicks": 244,
            "midi": 54,
            "name": "F#3",
            "ticks": 177600,
            "time": 137.1375,
            "velocity": 0.8110236220472441
          },
          {
            "duration": 0.140625,
            "durationTicks": 225,
            "midi": 55,
            "name": "G3",
            "ticks": 177840,
            "time": 137.2875,
            "velocity": 0.7795275590551181
          },
          {
            "duration": 0.15000000000000568,
            "durationTicks": 240,
            "midi": 57,
            "name": "A3",
            "ticks": 178080,
            "time": 137.4375,
            "velocity": 0.7795275590551181
          },
          {
            "duration": 0.15000000000000568,
            "durationTicks": 240,
            "midi": 59,
            "name": "B3",
            "ticks": 178320,
            "time": 137.5875,
            "velocity": 0.7716535433070866
          },
          {
            "duration": 0.14999999999997726,
            "durationTicks": 240,
            "midi": 60,
            "name": "C4",
            "ticks": 178560,
            "time": 137.7375,
            "velocity": 0.8346456692913385
          },
          {
            "duration": 0.15000000000000568,
            "durationTicks": 240,
            "midi": 57,
            "name": "A3",
            "ticks": 178800,
            "time": 137.8875,
            "velocity": 0.7480314960629921
          },
          {
            "duration": 0.1525000000000034,
            "durationTicks": 244,
            "midi": 59,
            "name": "B3",
            "ticks": 179040,
            "time": 138.0375,
            "velocity": 0.7952755905511811
          },
          {
            "duration": 0.140625,
            "durationTicks": 225,
            "midi": 55,
            "name": "G3",
            "ticks": 179280,
            "time": 138.1875,
            "velocity": 0.7244094488188977
          },
          {
            "duration": 0.1525000000000034,
            "durationTicks": 244,
            "midi": 55,
            "name": "G3",
            "ticks": 179520,
            "time": 138.3375,
            "velocity": 0.7559055118110236
          },
          {
            "duration": 0.140625,
            "durationTicks": 225,
            "midi": 50,
            "name": "D3",
            "ticks": 179760,
            "time": 138.4875,
            "velocity": 0.7244094488188977
          },
          {
            "duration": 0.1525000000000034,
            "durationTicks": 244,
            "midi": 50,
            "name": "D3",
            "ticks": 180000,
            "time": 138.6375,
            "velocity": 0.7559055118110236
          },
          {
            "duration": 0.140625,
            "durationTicks": 225,
            "midi": 47,
            "name": "B2",
            "ticks": 180240,
            "time": 138.7875,
            "velocity": 0.7401574803149606
          },
          {
            "duration": 0.1525000000000034,
            "durationTicks": 244,
            "midi": 47,
            "name": "B2",
            "ticks": 180480,
            "time": 138.9375,
            "velocity": 0.7795275590551181
          },
          {
            "duration": 0.07499999999998863,
            "durationTicks": 120,
            "midi": 43,
            "name": "G2",
            "ticks": 180720,
            "time": 139.0875,
            "velocity": 0.7637795275590551
          },
          {
            "duration": 0.44999999999998863,
            "durationTicks": 720,
            "midi": 43,
            "name": "G2",
            "ticks": 180960,
            "time": 139.2375,
            "velocity": 0.7716535433070866
          },
          {
            "duration": 0.15000000000000568,
            "durationTicks": 240,
            "midi": 59,
            "name": "B3",
            "ticks": 181680,
            "time": 139.6875,
            "velocity": 0.8818897637795275
          },
          {
            "duration": 0.15000000000000568,
            "durationTicks": 240,
            "midi": 60,
            "name": "C4",
            "ticks": 181920,
            "time": 139.8375,
            "velocity": 0.8267716535433071
          },
          {
            "duration": 0.14999999999997726,
            "durationTicks": 240,
            "midi": 59,
            "name": "B3",
            "ticks": 182160,
            "time": 139.9875,
            "velocity": 0.7559055118110236
          },
          {
            "duration": 0.15000000000000568,
            "durationTicks": 240,
            "midi": 57,
            "name": "A3",
            "ticks": 182400,
            "time": 140.1375,
            "velocity": 0.7795275590551181
          },
          {
            "duration": 0.15000000000000568,
            "durationTicks": 240,
            "midi": 55,
            "name": "G3",
            "ticks": 182640,
            "time": 140.2875,
            "velocity": 0.7401574803149606
          },
          {
            "duration": 0.1525000000000034,
            "durationTicks": 244,
            "midi": 57,
            "name": "A3",
            "ticks": 182880,
            "time": 140.4375,
            "velocity": 0.8188976377952756
          },
          {
            "duration": 0.1525000000000034,
            "durationTicks": 244,
            "midi": 59,
            "name": "B3",
            "ticks": 183120,
            "time": 140.5875,
            "velocity": 0.7480314960629921
          },
          {
            "duration": 0.140625,
            "durationTicks": 225,
            "midi": 60,
            "name": "C4",
            "ticks": 183360,
            "time": 140.7375,
            "velocity": 0.8188976377952756
          },
          {
            "duration": 0.15000000000000568,
            "durationTicks": 240,
            "midi": 57,
            "name": "A3",
            "ticks": 183600,
            "time": 140.8875,
            "velocity": 0.7165354330708661
          },
          {
            "duration": 0.1525000000000034,
            "durationTicks": 244,
            "midi": 55,
            "name": "G3",
            "ticks": 183840,
            "time": 141.0375,
            "velocity": 0.7322834645669292
          },
          {
            "duration": 0.1525000000000034,
            "durationTicks": 244,
            "midi": 54,
            "name": "F#3",
            "ticks": 184080,
            "time": 141.1875,
            "velocity": 0.7401574803149606
          },
          {
            "duration": 0.140625,
            "durationTicks": 225,
            "midi": 55,
            "name": "G3",
            "ticks": 184320,
            "time": 141.3375,
            "velocity": 0.7874015748031497
          },
          {
            "duration": 0.14999999999997726,
            "durationTicks": 240,
            "midi": 57,
            "name": "A3",
            "ticks": 184560,
            "time": 141.4875,
            "velocity": 0.7952755905511811
          },
          {
            "duration": 0.07062500000000682,
            "durationTicks": 113,
            "midi": 51,
            "name": "D#3",
            "ticks": 184800,
            "time": 141.6375,
            "velocity": 0.7165354330708661
          },
          {
            "duration": 0.06562499999998295,
            "durationTicks": 105,
            "midi": 52,
            "name": "E3",
            "ticks": 184935,
            "time": 141.721875,
            "velocity": 0.7165354330708661
          },
          {
            "duration": 0.060625000000015916,
            "durationTicks": 97,
            "midi": 51,
            "name": "D#3",
            "ticks": 185059,
            "time": 141.799375,
            "velocity": 0.7165354330708661
          },
          {
            "duration": 0.056250000000005684,
            "durationTicks": 90,
            "midi": 52,
            "name": "E3",
            "ticks": 185175,
            "time": 141.871875,
            "velocity": 0.7165354330708661
          },
          {
            "duration": 0.060624999999987494,
            "durationTicks": 97,
            "midi": 51,
            "name": "D#3",
            "ticks": 185299,
            "time": 141.949375,
            "velocity": 0.7165354330708661
          },
          {
            "duration": 0.05125000000001023,
            "durationTicks": 82,
            "midi": 52,
            "name": "E3",
            "ticks": 185434,
            "time": 142.03375,
            "velocity": 0.7165354330708661
          },
          {
            "duration": 0.15000000000000568,
            "durationTicks": 240,
            "midi": 60,
            "name": "C4",
            "ticks": 185520,
            "time": 142.0875,
            "velocity": 0.8976377952755905
          },
          {
            "duration": 0.14999999999997726,
            "durationTicks": 240,
            "midi": 59,
            "name": "B3",
            "ticks": 185760,
            "time": 142.2375,
            "velocity": 0.8110236220472441
          },
          {
            "duration": 0.15000000000000568,
            "durationTicks": 240,
            "midi": 57,
            "name": "A3",
            "ticks": 186000,
            "time": 142.3875,
            "velocity": 0.7244094488188977
          },
          {
            "duration": 0.15000000000000568,
            "durationTicks": 240,
            "midi": 55,
            "name": "G3",
            "ticks": 186240,
            "time": 142.5375,
            "velocity": 0.7716535433070866
          },
          {
            "duration": 0.15000000000000568,
            "durationTicks": 240,
            "midi": 54,
            "name": "F#3",
            "ticks": 186480,
            "time": 142.6875,
            "velocity": 0.7244094488188977
          },
          {
            "duration": 0.1525000000000034,
            "durationTicks": 244,
            "midi": 55,
            "name": "G3",
            "ticks": 186720,
            "time": 142.8375,
            "velocity": 0.7874015748031497
          },
          {
            "duration": 0.140625,
            "durationTicks": 225,
            "midi": 52,
            "name": "E3",
            "ticks": 186960,
            "time": 142.9875,
            "velocity": 0.7401574803149606
          },
          {
            "duration": 0.1525000000000034,
            "durationTicks": 244,
            "midi": 52,
            "name": "E3",
            "ticks": 187200,
            "time": 143.1375,
            "velocity": 0.7874015748031497
          },
          {
            "duration": 0.140625,
            "durationTicks": 225,
            "midi": 47,
            "name": "B2",
            "ticks": 187440,
            "time": 143.2875,
            "velocity": 0.7165354330708661
          },
          {
            "duration": 0.1525000000000034,
            "durationTicks": 244,
            "midi": 47,
            "name": "B2",
            "ticks": 187680,
            "time": 143.4375,
            "velocity": 0.7716535433070866
          },
          {
            "duration": 0.140625,
            "durationTicks": 225,
            "midi": 43,
            "name": "G2",
            "ticks": 187920,
            "time": 143.5875,
            "velocity": 0.7086614173228346
          },
          {
            "duration": 0.152499999999975,
            "durationTicks": 244,
            "midi": 43,
            "name": "G2",
            "ticks": 188160,
            "time": 143.7375,
            "velocity": 0.7716535433070866
          },
          {
            "duration": 0.140625,
            "durationTicks": 225,
            "midi": 40,
            "name": "E2",
            "ticks": 188400,
            "time": 143.8875,
            "velocity": 0.7401574803149606
          },
          {
            "duration": 0.45000000000001705,
            "durationTicks": 720,
            "midi": 40,
            "name": "E2",
            "ticks": 188640,
            "time": 144.0375,
            "velocity": 0.7952755905511811
          },
          {
            "duration": 0.14999999999997726,
            "durationTicks": 240,
            "midi": 47,
            "name": "B2",
            "ticks": 189360,
            "time": 144.4875,
            "velocity": 0.8031496062992126
          },
          {
            "duration": 0.15000000000000568,
            "durationTicks": 240,
            "midi": 52,
            "name": "E3",
            "ticks": 189600,
            "time": 144.6375,
            "velocity": 0.8188976377952756
          },
          {
            "duration": 0.15000000000000568,
            "durationTicks": 240,
            "midi": 55,
            "name": "G3",
            "ticks": 189840,
            "time": 144.7875,
            "velocity": 0.8346456692913385
          },
          {
            "duration": 0.15000000000000568,
            "durationTicks": 240,
            "midi": 54,
            "name": "F#3",
            "ticks": 190080,
            "time": 144.9375,
            "velocity": 0.7637795275590551
          },
          {
            "duration": 0.15000000000000568,
            "durationTicks": 240,
            "midi": 57,
            "name": "A3",
            "ticks": 190320,
            "time": 145.0875,
            "velocity": 0.8031496062992126
          },
          {
            "duration": 0.152499999999975,
            "durationTicks": 244,
            "midi": 55,
            "name": "G3",
            "ticks": 190560,
            "time": 145.2375,
            "velocity": 0.7637795275590551
          },
          {
            "duration": 0.1525000000000034,
            "durationTicks": 244,
            "midi": 54,
            "name": "F#3",
            "ticks": 190800,
            "time": 145.3875,
            "velocity": 0.7952755905511811
          },
          {
            "duration": 0.140625,
            "durationTicks": 225,
            "midi": 52,
            "name": "E3",
            "ticks": 191040,
            "time": 145.5375,
            "velocity": 0.7559055118110236
          },
          {
            "duration": 0.15000000000000568,
            "durationTicks": 240,
            "midi": 54,
            "name": "F#3",
            "ticks": 191280,
            "time": 145.6875,
            "velocity": 0.7952755905511811
          },
          {
            "duration": 0.15000000000000568,
            "durationTicks": 240,
            "midi": 55,
            "name": "G3",
            "ticks": 191520,
            "time": 145.8375,
            "velocity": 0.7874015748031497
          },
          {
            "duration": 0.14999999999997726,
            "durationTicks": 240,
            "midi": 61,
            "name": "C#4",
            "ticks": 191760,
            "time": 145.9875,
            "velocity": 0.9212598425196851
          },
          {
            "duration": 0.1525000000000034,
            "durationTicks": 244,
            "midi": 55,
            "name": "G3",
            "ticks": 192000,
            "time": 146.1375,
            "velocity": 0.7165354330708661
          },
          {
            "duration": 0.1525000000000034,
            "durationTicks": 244,
            "midi": 54,
            "name": "F#3",
            "ticks": 192240,
            "time": 146.2875,
            "velocity": 0.7637795275590551
          },
          {
            "duration": 0.140625,
            "durationTicks": 225,
            "midi": 55,
            "name": "G3",
            "ticks": 192480,
            "time": 146.4375,
            "velocity": 0.8031496062992126
          },
          {
            "duration": 0.15000000000000568,
            "durationTicks": 240,
            "midi": 61,
            "name": "C#4",
            "ticks": 192720,
            "time": 146.5875,
            "velocity": 0.889763779527559
          },
          {
            "duration": 0.152499999999975,
            "durationTicks": 244,
            "midi": 52,
            "name": "E3",
            "ticks": 192960,
            "time": 146.7375,
            "velocity": 0.7007874015748031
          },
          {
            "duration": 0.1525000000000034,
            "durationTicks": 244,
            "midi": 54,
            "name": "F#3",
            "ticks": 193200,
            "time": 146.8875,
            "velocity": 0.8110236220472441
          },
          {
            "duration": 0.140625,
            "durationTicks": 225,
            "midi": 55,
            "name": "G3",
            "ticks": 193440,
            "time": 147.0375,
            "velocity": 0.7716535433070866
          },
          {
            "duration": 0.15000000000000568,
            "durationTicks": 240,
            "midi": 52,
            "name": "E3",
            "ticks": 193680,
            "time": 147.1875,
            "velocity": 0.7637795275590551
          },
          {
            "duration": 0.15000000000000568,
            "durationTicks": 240,
            "midi": 45,
            "name": "A2",
            "ticks": 193920,
            "time": 147.3375,
            "velocity": 0.6771653543307087
          },
          {
            "duration": 0.14999999999997726,
            "durationTicks": 240,
            "midi": 55,
            "name": "G3",
            "ticks": 194160,
            "time": 147.4875,
            "velocity": 0.889763779527559
          },
          {
            "duration": 0.30000000000001137,
            "durationTicks": 480,
            "midi": 54,
            "name": "F#3",
            "ticks": 194400,
            "time": 147.6375,
            "velocity": 0.7637795275590551
          },
          {
            "duration": 0.1525000000000034,
            "durationTicks": 244,
            "midi": 50,
            "name": "D3",
            "ticks": 194880,
            "time": 147.9375,
            "velocity": 0.7401574803149606
          },
          {
            "duration": 0.140625,
            "durationTicks": 225,
            "midi": 52,
            "name": "E3",
            "ticks": 195120,
            "time": 148.0875,
            "velocity": 0.7716535433070866
          },
          {
            "duration": 0.14999999999997726,
            "durationTicks": 240,
            "midi": 54,
            "name": "F#3",
            "ticks": 195360,
            "time": 148.2375,
            "velocity": 0.8110236220472441
          },
          {
            "duration": 0.15000000000000568,
            "durationTicks": 240,
            "midi": 50,
            "name": "D3",
            "ticks": 195600,
            "time": 148.3875,
            "velocity": 0.7086614173228346
          },
          {
            "duration": 0.15000000000000568,
            "durationTicks": 240,
            "midi": 55,
            "name": "G3",
            "ticks": 195840,
            "time": 148.5375,
            "velocity": 0.8031496062992126
          },
          {
            "duration": 0.15000000000000568,
            "durationTicks": 240,
            "midi": 52,
            "name": "E3",
            "ticks": 196080,
            "time": 148.6875,
            "velocity": 0.7401574803149606
          },
          {
            "duration": 0.15000000000000568,
            "durationTicks": 240,
            "midi": 54,
            "name": "F#3",
            "ticks": 196320,
            "time": 148.8375,
            "velocity": 0.8110236220472441
          },
          {
            "duration": 0.152499999999975,
            "durationTicks": 244,
            "midi": 50,
            "name": "D3",
            "ticks": 196560,
            "time": 148.9875,
            "velocity": 0.7559055118110236
          },
          {
            "duration": 0.1525000000000034,
            "durationTicks": 244,
            "midi": 54,
            "name": "F#3",
            "ticks": 196800,
            "time": 149.1375,
            "velocity": 0.8031496062992126
          },
          {
            "duration": 0.140625,
            "durationTicks": 225,
            "midi": 55,
            "name": "G3",
            "ticks": 197040,
            "time": 149.2875,
            "velocity": 0.7480314960629921
          },
          {
            "duration": 0.15000000000000568,
            "durationTicks": 240,
            "midi": 57,
            "name": "A3",
            "ticks": 197280,
            "time": 149.4375,
            "velocity": 0.7716535433070866
          },
          {
            "duration": 0.15000000000000568,
            "durationTicks": 240,
            "midi": 59,
            "name": "B3",
            "ticks": 197520,
            "time": 149.5875,
            "velocity": 0.7874015748031497
          },
          {
            "duration": 0.14999999999997726,
            "durationTicks": 240,
            "midi": 60,
            "name": "C4",
            "ticks": 197760,
            "time": 149.7375,
            "velocity": 0.7952755905511811
          },
          {
            "duration": 0.15000000000000568,
            "durationTicks": 240,
            "midi": 57,
            "name": "A3",
            "ticks": 198000,
            "time": 149.8875,
            "velocity": 0.7322834645669292
          },
          {
            "duration": 0.1525000000000034,
            "durationTicks": 244,
            "midi": 59,
            "name": "B3",
            "ticks": 198240,
            "time": 150.0375,
            "velocity": 0.8346456692913385
          },
          {
            "duration": 0.1525000000000034,
            "durationTicks": 244,
            "midi": 50,
            "name": "D3",
            "ticks": 198480,
            "time": 150.1875,
            "velocity": 0.6535433070866141
          },
          {
            "duration": 0.140625,
            "durationTicks": 225,
            "midi": 43,
            "name": "G2",
            "ticks": 198720,
            "time": 150.3375,
            "velocity": 0.6535433070866141
          },
          {
            "duration": 0.14999999999997726,
            "durationTicks": 240,
            "midi": 50,
            "name": "D3",
            "ticks": 198960,
            "time": 150.4875,
            "velocity": 0.84251968503937
          },
          {
            "duration": 0.15000000000000568,
            "durationTicks": 240,
            "midi": 59,
            "name": "B3",
            "ticks": 199200,
            "time": 150.6375,
            "velocity": 0.8740157480314961
          },
          {
            "duration": 0.15000000000000568,
            "durationTicks": 240,
            "midi": 55,
            "name": "G3",
            "ticks": 199440,
            "time": 150.7875,
            "velocity": 0.7795275590551181
          },
          {
            "duration": 0.15000000000000568,
            "durationTicks": 240,
            "midi": 57,
            "name": "A3",
            "ticks": 199680,
            "time": 150.9375,
            "velocity": 0.7637795275590551
          },
          {
            "duration": 0.15000000000000568,
            "durationTicks": 240,
            "midi": 54,
            "name": "F#3",
            "ticks": 199920,
            "time": 151.0875,
            "velocity": 0.7874015748031497
          },
          {
            "duration": 0.14999999999997726,
            "durationTicks": 240,
            "midi": 55,
            "name": "G3",
            "ticks": 200160,
            "time": 151.2375,
            "velocity": 0.7716535433070866
          },
          {
            "duration": 0.1525000000000034,
            "durationTicks": 244,
            "midi": 52,
            "name": "E3",
            "ticks": 200400,
            "time": 151.3875,
            "velocity": 0.7165354330708661
          },
          {
            "duration": 0.1525000000000034,
            "durationTicks": 244,
            "midi": 55,
            "name": "G3",
            "ticks": 200640,
            "time": 151.5375,
            "velocity": 0.8031496062992126
          },
          {
            "duration": 0.140625,
            "durationTicks": 225,
            "midi": 57,
            "name": "A3",
            "ticks": 200880,
            "time": 151.6875,
            "velocity": 0.7559055118110236
          },
          {
            "duration": 0.15000000000000568,
            "durationTicks": 240,
            "midi": 59,
            "name": "B3",
            "ticks": 201120,
            "time": 151.8375,
            "velocity": 0.7874015748031497
          },
          {
            "duration": 0.14999999999997726,
            "durationTicks": 240,
            "midi": 61,
            "name": "C#4",
            "ticks": 201360,
            "time": 151.9875,
            "velocity": 0.7952755905511811
          },
          {
            "duration": 0.15000000000000568,
            "durationTicks": 240,
            "midi": 62,
            "name": "D4",
            "ticks": 201600,
            "time": 152.1375,
            "velocity": 0.7952755905511811
          },
          {
            "duration": 0.15000000000000568,
            "durationTicks": 240,
            "midi": 59,
            "name": "B3",
            "ticks": 201840,
            "time": 152.2875,
            "velocity": 0.7716535433070866
          },
          {
            "duration": 0.1525000000000034,
            "durationTicks": 244,
            "midi": 61,
            "name": "C#4",
            "ticks": 202080,
            "time": 152.4375,
            "velocity": 0.8267716535433071
          },
          {
            "duration": 0.1525000000000034,
            "durationTicks": 244,
            "midi": 52,
            "name": "E3",
            "ticks": 202320,
            "time": 152.5875,
            "velocity": 0.6771653543307087
          },
          {
            "duration": 0.140625,
            "durationTicks": 225,
            "midi": 43,
            "name": "G2",
            "ticks": 202560,
            "time": 152.7375,
            "velocity": 0.6771653543307087
          },
          {
            "duration": 0.15000000000000568,
            "durationTicks": 240,
            "midi": 52,
            "name": "E3",
            "ticks": 202800,
            "time": 152.8875,
            "velocity": 0.8740157480314961
          },
          {
            "duration": 0.15000000000000568,
            "durationTicks": 240,
            "midi": 61,
            "name": "C#4",
            "ticks": 203040,
            "time": 153.0375,
            "velocity": 0.984251968503937
          },
          {
            "duration": 0.15000000000000568,
            "durationTicks": 240,
            "midi": 57,
            "name": "A3",
            "ticks": 203280,
            "time": 153.1875,
            "velocity": 0.7637795275590551
          },
          {
            "duration": 0.15000000000000568,
            "durationTicks": 240,
            "midi": 59,
            "name": "B3",
            "ticks": 203520,
            "time": 153.3375,
            "velocity": 0.8110236220472441
          },
          {
            "duration": 0.14999999999997726,
            "durationTicks": 240,
            "midi": 62,
            "name": "D4",
            "ticks": 203760,
            "time": 153.4875,
            "velocity": 0.8661417322834646
          },
          {
            "duration": 0.15000000000000568,
            "durationTicks": 240,
            "midi": 61,
            "name": "C#4",
            "ticks": 204000,
            "time": 153.6375,
            "velocity": 0.7795275590551181
          },
          {
            "duration": 0.15000000000000568,
            "durationTicks": 240,
            "midi": 57,
            "name": "A3",
            "ticks": 204240,
            "time": 153.7875,
            "velocity": 0.7007874015748031
          },
          {
            "duration": 0.15000000000000568,
            "durationTicks": 240,
            "midi": 62,
            "name": "D4",
            "ticks": 204480,
            "time": 153.9375,
            "velocity": 0.8582677165354331
          },
          {
            "duration": 0.15000000000000568,
            "durationTicks": 240,
            "midi": 59,
            "name": "B3",
            "ticks": 204720,
            "time": 154.0875,
            "velocity": 0.7401574803149606
          },
          {
            "duration": 0.14999999999997726,
            "durationTicks": 240,
            "midi": 61,
            "name": "C#4",
            "ticks": 204960,
            "time": 154.2375,
            "velocity": 0.84251968503937
          },
          {
            "duration": 0.15000000000000568,
            "durationTicks": 240,
            "midi": 57,
            "name": "A3",
            "ticks": 205200,
            "time": 154.3875,
            "velocity": 0.7322834645669292
          },
          {
            "duration": 0.15000000000000568,
            "durationTicks": 240,
            "midi": 64,
            "name": "E4",
            "ticks": 205440,
            "time": 154.5375,
            "velocity": 0.9133858267716536
          },
          {
            "duration": 0.15000000000000568,
            "durationTicks": 240,
            "midi": 55,
            "name": "G3",
            "ticks": 205680,
            "time": 154.6875,
            "velocity": 0.7322834645669292
          },
          {
            "duration": 0.0706249999999784,
            "durationTicks": 113,
            "midi": 54,
            "name": "F#3",
            "ticks": 205920,
            "time": 154.8375,
            "velocity": 0.7322834645669292
          },
          {
            "duration": 0.06562500000001137,
            "durationTicks": 105,
            "midi": 55,
            "name": "G3",
            "ticks": 206055,
            "time": 154.921875,
            "velocity": 0.7322834645669292
          },
          {
            "duration": 0.060625000000015916,
            "durationTicks": 97,
            "midi": 54,
            "name": "F#3",
            "ticks": 206179,
            "time": 154.999375,
            "velocity": 0.7322834645669292
          },
          {
            "duration": 0.056250000000005684,
            "durationTicks": 90,
            "midi": 55,
            "name": "G3",
            "ticks": 206295,
            "time": 155.071875,
            "velocity": 0.7322834645669292
          },
          {
            "duration": 0.060625000000015916,
            "durationTicks": 97,
            "midi": 54,
            "name": "F#3",
            "ticks": 206419,
            "time": 155.149375,
            "velocity": 0.7322834645669292
          },
          {
            "duration": 0.05125000000001023,
            "durationTicks": 82,
            "midi": 55,
            "name": "G3",
            "ticks": 206554,
            "time": 155.23375,
            "velocity": 0.7322834645669292
          },
          {
            "duration": 0.15000000000000568,
            "durationTicks": 240,
            "midi": 62,
            "name": "D4",
            "ticks": 206640,
            "time": 155.2875,
            "velocity": 0.937007874015748
          },
          {
            "duration": 0.1525000000000034,
            "durationTicks": 244,
            "midi": 57,
            "name": "A3",
            "ticks": 206880,
            "time": 155.4375,
            "velocity": 0.7244094488188977
          },
          {
            "duration": 0.140625,
            "durationTicks": 225,
            "midi": 55,
            "name": "G3",
            "ticks": 207120,
            "time": 155.5875,
            "velocity": 0.7244094488188977
          },
          {
            "duration": 0.152499999999975,
            "durationTicks": 244,
            "midi": 54,
            "name": "F#3",
            "ticks": 207360,
            "time": 155.7375,
            "velocity": 0.7165354330708661
          },
          {
            "duration": 0.140625,
            "durationTicks": 225,
            "midi": 52,
            "name": "E3",
            "ticks": 207600,
            "time": 155.8875,
            "velocity": 0.7480314960629921
          },
          {
            "duration": 0.15000000000000568,
            "durationTicks": 240,
            "midi": 50,
            "name": "D3",
            "ticks": 207840,
            "time": 156.0375,
            "velocity": 0.7401574803149606
          },
          {
            "duration": 0.15000000000000568,
            "durationTicks": 240,
            "midi": 57,
            "name": "A3",
            "ticks": 208080,
            "time": 156.1875,
            "velocity": 0.84251968503937
          },
          {
            "duration": 0.15000000000000568,
            "durationTicks": 240,
            "midi": 55,
            "name": "G3",
            "ticks": 208320,
            "time": 156.3375,
            "velocity": 0.7559055118110236
          },
          {
            "duration": 0.14999999999997726,
            "durationTicks": 240,
            "midi": 52,
            "name": "E3",
            "ticks": 208560,
            "time": 156.4875,
            "velocity": 0.7401574803149606
          },
          {
            "duration": 0.15000000000000568,
            "durationTicks": 240,
            "midi": 54,
            "name": "F#3",
            "ticks": 208800,
            "time": 156.6375,
            "velocity": 0.7874015748031497
          },
          {
            "duration": 0.15000000000000568,
            "durationTicks": 240,
            "midi": 50,
            "name": "D3",
            "ticks": 209040,
            "time": 156.7875,
            "velocity": 0.7244094488188977
          },
          {
            "duration": 0.15000000000000568,
            "durationTicks": 240,
            "midi": 57,
            "name": "A3",
            "ticks": 209280,
            "time": 156.9375,
            "velocity": 0.8188976377952756
          },
          {
            "duration": 0.15000000000000568,
            "durationTicks": 240,
            "midi": 48,
            "name": "C3",
            "ticks": 209520,
            "time": 157.0875,
            "velocity": 0.7165354330708661
          },
          {
            "duration": 0.0706249999999784,
            "durationTicks": 113,
            "midi": 47,
            "name": "B2",
            "ticks": 209760,
            "time": 157.2375,
            "velocity": 0.7480314960629921
          },
          {
            "duration": 0.06562499999998295,
            "durationTicks": 105,
            "midi": 48,
            "name": "C3",
            "ticks": 209895,
            "time": 157.321875,
            "velocity": 0.7480314960629921
          },
          {
            "duration": 0.060625000000015916,
            "durationTicks": 97,
            "midi": 47,
            "name": "B2",
            "ticks": 210019,
            "time": 157.399375,
            "velocity": 0.7480314960629921
          },
          {
            "duration": 0.05624999999997726,
            "durationTicks": 90,
            "midi": 48,
            "name": "C3",
            "ticks": 210135,
            "time": 157.471875,
            "velocity": 0.7480314960629921
          },
          {
            "duration": 0.060624999999987494,
            "durationTicks": 97,
            "midi": 47,
            "name": "B2",
            "ticks": 210259,
            "time": 157.549375,
            "velocity": 0.7480314960629921
          },
          {
            "duration": 0.05125000000001023,
            "durationTicks": 82,
            "midi": 48,
            "name": "C3",
            "ticks": 210394,
            "time": 157.63375,
            "velocity": 0.7480314960629921
          },
          {
            "duration": 0.15000000000000568,
            "durationTicks": 240,
            "midi": 55,
            "name": "G3",
            "ticks": 210480,
            "time": 157.6875,
            "velocity": 0.8661417322834646
          },
          {
            "duration": 0.1525000000000034,
            "durationTicks": 244,
            "midi": 50,
            "name": "D3",
            "ticks": 210720,
            "time": 157.8375,
            "velocity": 0.7795275590551181
          },
          {
            "duration": 0.140625,
            "durationTicks": 225,
            "midi": 48,
            "name": "C3",
            "ticks": 210960,
            "time": 157.9875,
            "velocity": 0.7165354330708661
          },
          {
            "duration": 0.1525000000000034,
            "durationTicks": 244,
            "midi": 47,
            "name": "B2",
            "ticks": 211200,
            "time": 158.1375,
            "velocity": 0.8110236220472441
          },
          {
            "duration": 0.140625,
            "durationTicks": 225,
            "midi": 45,
            "name": "A2",
            "ticks": 211440,
            "time": 158.2875,
            "velocity": 0.7952755905511811
          },
          {
            "duration": 0.15000000000000568,
            "durationTicks": 240,
            "midi": 43,
            "name": "G2",
            "ticks": 211680,
            "time": 158.4375,
            "velocity": 0.7322834645669292
          },
          {
            "duration": 0.15000000000000568,
            "durationTicks": 240,
            "midi": 50,
            "name": "D3",
            "ticks": 211920,
            "time": 158.5875,
            "velocity": 0.8582677165354331
          },
          {
            "duration": 0.14999999999997726,
            "durationTicks": 240,
            "midi": 48,
            "name": "C3",
            "ticks": 212160,
            "time": 158.7375,
            "velocity": 0.7480314960629921
          },
          {
            "duration": 0.15000000000000568,
            "durationTicks": 240,
            "midi": 45,
            "name": "A2",
            "ticks": 212400,
            "time": 158.8875,
            "velocity": 0.7086614173228346
          },
          {
            "duration": 0.15000000000000568,
            "durationTicks": 240,
            "midi": 47,
            "name": "B2",
            "ticks": 212640,
            "time": 159.0375,
            "velocity": 0.7795275590551181
          },
          {
            "duration": 0.15000000000000568,
            "durationTicks": 240,
            "midi": 43,
            "name": "G2",
            "ticks": 212880,
            "time": 159.1875,
            "velocity": 0.7401574803149606
          },
          {
            "duration": 0.15000000000000568,
            "durationTicks": 240,
            "midi": 50,
            "name": "D3",
            "ticks": 213120,
            "time": 159.3375,
            "velocity": 0.8188976377952756
          },
          {
            "duration": 0.14999999999997726,
            "durationTicks": 240,
            "midi": 42,
            "name": "F#2",
            "ticks": 213360,
            "time": 159.4875,
            "velocity": 0.6614173228346457
          },
          {
            "duration": 0.15000000000000568,
            "durationTicks": 240,
            "midi": 40,
            "name": "E2",
            "ticks": 213600,
            "time": 159.6375,
            "velocity": 0.8031496062992126
          },
          {
            "duration": 0.1525000000000034,
            "durationTicks": 244,
            "midi": 43,
            "name": "G2",
            "ticks": 213840,
            "time": 159.7875,
            "velocity": 0.84251968503937
          },
          {
            "duration": 0.1525000000000034,
            "durationTicks": 244,
            "midi": 45,
            "name": "A2",
            "ticks": 214080,
            "time": 159.9375,
            "velocity": 0.7874015748031497
          },
          {
            "duration": 0.140625,
            "durationTicks": 225,
            "midi": 47,
            "name": "B2",
            "ticks": 214320,
            "time": 160.0875,
            "velocity": 0.8188976377952756
          },
          {
            "duration": 0.13624999999998977,
            "durationTicks": 218,
            "midi": 49,
            "name": "C#3",
            "ticks": 214560,
            "time": 160.2375,
            "velocity": 0.7401574803149606
          },
          {
            "duration": 0.1525000000000034,
            "durationTicks": 244,
            "midi": 50,
            "name": "D3",
            "ticks": 214800,
            "time": 160.3875,
            "velocity": 0.7795275590551181
          },
          {
            "duration": 0.1525000000000034,
            "durationTicks": 244,
            "midi": 52,
            "name": "E3",
            "ticks": 215040,
            "time": 160.5375,
            "velocity": 0.8110236220472441
          },
          {
            "duration": 0.140625,
            "durationTicks": 225,
            "midi": 54,
            "name": "F#3",
            "ticks": 215280,
            "time": 160.6875,
            "velocity": 0.7874015748031497
          },
          {
            "duration": 0.1525000000000034,
            "durationTicks": 244,
            "midi": 55,
            "name": "G3",
            "ticks": 215520,
            "time": 160.8375,
            "velocity": 0.8503937007874016
          },
          {
            "duration": 0.152499999999975,
            "durationTicks": 244,
            "midi": 57,
            "name": "A3",
            "ticks": 215760,
            "time": 160.9875,
            "velocity": 0.8031496062992126
          },
          {
            "duration": 0.1525000000000034,
            "durationTicks": 244,
            "midi": 61,
            "name": "C#4",
            "ticks": 216000,
            "time": 161.1375,
            "velocity": 0.8267716535433071
          },
          {
            "duration": 0.140625,
            "durationTicks": 225,
            "midi": 62,
            "name": "D4",
            "ticks": 216240,
            "time": 161.2875,
            "velocity": 0.8267716535433071
          },
          {
            "duration": 0.13624999999998977,
            "durationTicks": 218,
            "midi": 64,
            "name": "E4",
            "ticks": 216480,
            "time": 161.4375,
            "velocity": 0.7716535433070866
          },
          {
            "duration": 0.1525000000000034,
            "durationTicks": 244,
            "midi": 57,
            "name": "A3",
            "ticks": 216720,
            "time": 161.5875,
            "velocity": 0.7401574803149606
          },
          {
            "duration": 0.2837499999999977,
            "durationTicks": 454,
            "midi": 67,
            "name": "G4",
            "ticks": 216960,
            "time": 161.7375,
            "velocity": 0.9291338582677166
          },
          {
            "duration": 0.15000000000000568,
            "durationTicks": 240,
            "midi": 50,
            "name": "D3",
            "ticks": 217440,
            "time": 162.0375,
            "velocity": 0.7165354330708661
          },
          {
            "duration": 0.1525000000000034,
            "durationTicks": 244,
            "midi": 67,
            "name": "G4",
            "ticks": 217680,
            "time": 162.1875,
            "velocity": 1
          },
          {
            "duration": 0.1525000000000034,
            "durationTicks": 244,
            "midi": 66,
            "name": "F#4",
            "ticks": 217920,
            "time": 162.3375,
            "velocity": 0.7874015748031497
          },
          {
            "duration": 0.140625,
            "durationTicks": 225,
            "midi": 64,
            "name": "E4",
            "ticks": 218160,
            "time": 162.4875,
            "velocity": 0.7244094488188977
          },
          {
            "duration": 0.15000000000000568,
            "durationTicks": 240,
            "midi": 66,
            "name": "F#4",
            "ticks": 218400,
            "time": 162.6375,
            "velocity": 0.8031496062992126
          },
          {
            "duration": 0.15000000000000568,
            "durationTicks": 240,
            "midi": 62,
            "name": "D4",
            "ticks": 218640,
            "time": 162.7875,
            "velocity": 0.6535433070866141
          },
          {
            "duration": 0.15000000000000568,
            "durationTicks": 240,
            "midi": 57,
            "name": "A3",
            "ticks": 218880,
            "time": 162.9375,
            "velocity": 0.6929133858267716
          },
          {
            "duration": 0.15000000000000568,
            "durationTicks": 240,
            "midi": 62,
            "name": "D4",
            "ticks": 219120,
            "time": 163.0875,
            "velocity": 0.8661417322834646
          },
          {
            "duration": 0.152499999999975,
            "durationTicks": 244,
            "midi": 50,
            "name": "D3",
            "ticks": 219360,
            "time": 163.2375,
            "velocity": 0.6771653543307087
          },
          {
            "duration": 0.1525000000000034,
            "durationTicks": 244,
            "midi": 54,
            "name": "F#3",
            "ticks": 219600,
            "time": 163.3875,
            "velocity": 0.8110236220472441
          },
          {
            "duration": 0.140625,
            "durationTicks": 225,
            "midi": 57,
            "name": "A3",
            "ticks": 219840,
            "time": 163.5375,
            "velocity": 0.8346456692913385
          },
          {
            "duration": 0.15000000000000568,
            "durationTicks": 240,
            "midi": 60,
            "name": "C4",
            "ticks": 220080,
            "time": 163.6875,
            "velocity": 0.84251968503937
          },
          {
            "duration": 0.0706249999999784,
            "durationTicks": 113,
            "midi": 59,
            "name": "B3",
            "ticks": 220320,
            "time": 163.8375,
            "velocity": 0.7637795275590551
          },
          {
            "duration": 0.06562500000001137,
            "durationTicks": 105,
            "midi": 60,
            "name": "C4",
            "ticks": 220455,
            "time": 163.921875,
            "velocity": 0.7637795275590551
          },
          {
            "duration": 0.060625000000015916,
            "durationTicks": 97,
            "midi": 59,
            "name": "B3",
            "ticks": 220579,
            "time": 163.999375,
            "velocity": 0.7637795275590551
          },
          {
            "duration": 0.056250000000005684,
            "durationTicks": 90,
            "midi": 60,
            "name": "C4",
            "ticks": 220695,
            "time": 164.071875,
            "velocity": 0.7637795275590551
          },
          {
            "duration": 0.060624999999987494,
            "durationTicks": 97,
            "midi": 59,
            "name": "B3",
            "ticks": 220819,
            "time": 164.149375,
            "velocity": 0.7637795275590551
          },
          {
            "duration": 0.05125000000001023,
            "durationTicks": 82,
            "midi": 60,
            "name": "C4",
            "ticks": 220954,
            "time": 164.23375,
            "velocity": 0.7637795275590551
          },
          {
            "duration": 0.15000000000000568,
            "durationTicks": 240,
            "midi": 57,
            "name": "A3",
            "ticks": 221040,
            "time": 164.2875,
            "velocity": 0.7480314960629921
          },
          {
            "duration": 0.44999999999998863,
            "durationTicks": 720,
            "midi": 43,
            "name": "G2",
            "ticks": 221280,
            "time": 164.4375,
            "velocity": 0.7874015748031497
          },
          {
            "duration": 0.44999999999998863,
            "durationTicks": 720,
            "midi": 50,
            "name": "D3",
            "ticks": 221280,
            "time": 164.4375,
            "velocity": 0.7874015748031497
          },
          {
            "duration": 0.44999999999998863,
            "durationTicks": 720,
            "midi": 59,
            "name": "B3",
            "ticks": 221280,
            "time": 164.4375,
            "velocity": 0.7874015748031497
          },
          {
            "duration": 0.15000000000000568,
            "durationTicks": 240,
            "midi": 57,
            "name": "A3",
            "ticks": 222000,
            "time": 164.8875,
            "velocity": 0.7637795275590551
          },
          {
            "duration": 0.1525000000000034,
            "durationTicks": 244,
            "midi": 55,
            "name": "G3",
            "ticks": 222240,
            "time": 165.0375,
            "velocity": 0.7401574803149606
          },
          {
            "duration": 0.1525000000000034,
            "durationTicks": 244,
            "midi": 54,
            "name": "F#3",
            "ticks": 222480,
            "time": 165.1875,
            "velocity": 0.7559055118110236
          },
          {
            "duration": 0.140625,
            "durationTicks": 225,
            "midi": 52,
            "name": "E3",
            "ticks": 222720,
            "time": 165.3375,
            "velocity": 0.7559055118110236
          },
          {
            "duration": 0.14999999999997726,
            "durationTicks": 240,
            "midi": 62,
            "name": "D4",
            "ticks": 222960,
            "time": 165.4875,
            "velocity": 0.937007874015748
          },
          {
            "duration": 0.15000000000000568,
            "durationTicks": 240,
            "midi": 61,
            "name": "C#4",
            "ticks": 223200,
            "time": 165.6375,
            "velocity": 0.7007874015748031
          },
          {
            "duration": 0.15000000000000568,
            "durationTicks": 240,
            "midi": 64,
            "name": "E4",
            "ticks": 223440,
            "time": 165.7875,
            "velocity": 0.8661417322834646
          },
          {
            "duration": 0.15000000000000568,
            "durationTicks": 240,
            "midi": 57,
            "name": "A3",
            "ticks": 223680,
            "time": 165.9375,
            "velocity": 0.7322834645669292
          },
          {
            "duration": 0.15000000000000568,
            "durationTicks": 240,
            "midi": 55,
            "name": "G3",
            "ticks": 223920,
            "time": 166.0875,
            "velocity": 0.7559055118110236
          },
          {
            "duration": 0.14999999999997726,
            "durationTicks": 240,
            "midi": 54,
            "name": "F#3",
            "ticks": 224160,
            "time": 166.2375,
            "velocity": 0.7480314960629921
          },
          {
            "duration": 0.15000000000000568,
            "durationTicks": 240,
            "midi": 50,
            "name": "D3",
            "ticks": 224400,
            "time": 166.3875,
            "velocity": 0.7165354330708661
          },
          {
            "duration": 0.15000000000000568,
            "durationTicks": 240,
            "midi": 45,
            "name": "A2",
            "ticks": 224640,
            "time": 166.5375,
            "velocity": 0.7559055118110236
          },
          {
            "duration": 0.15000000000000568,
            "durationTicks": 240,
            "midi": 49,
            "name": "C#3",
            "ticks": 224880,
            "time": 166.6875,
            "velocity": 0.8346456692913385
          },
          {
            "duration": 0.44999999999998863,
            "durationTicks": 720,
            "midi": 38,
            "name": "D2",
            "ticks": 225120,
            "time": 166.8375,
            "velocity": 0.7244094488188977
          },
          {
            "duration": 0.15000000000000568,
            "durationTicks": 240,
            "midi": 45,
            "name": "A2",
            "ticks": 225840,
            "time": 167.2875,
            "velocity": 0.8267716535433071
          },
          {
            "duration": 0.15000000000000568,
            "durationTicks": 240,
            "midi": 50,
            "name": "D3",
            "ticks": 226080,
            "time": 167.4375,
            "velocity": 0.8188976377952756
          },
          {
            "duration": 0.15000000000000568,
            "durationTicks": 240,
            "midi": 54,
            "name": "F#3",
            "ticks": 226320,
            "time": 167.5875,
            "velocity": 0.8188976377952756
          },
          {
            "duration": 0.14999999999997726,
            "durationTicks": 240,
            "midi": 57,
            "name": "A3",
            "ticks": 226560,
            "time": 167.7375,
            "velocity": 0.8267716535433071
          },
          {
            "duration": 0.15000000000000568,
            "durationTicks": 240,
            "midi": 61,
            "name": "C#4",
            "ticks": 226800,
            "time": 167.8875,
            "velocity": 0.8582677165354331
          },
          {
            "duration": 0.15000000000000568,
            "durationTicks": 240,
            "midi": 62,
            "name": "D4",
            "ticks": 227040,
            "time": 168.0375,
            "velocity": 0.8267716535433071
          },
          {
            "duration": 0.15000000000000568,
            "durationTicks": 240,
            "midi": 57,
            "name": "A3",
            "ticks": 227280,
            "time": 168.1875,
            "velocity": 0.7637795275590551
          },
          {
            "duration": 0.15000000000000568,
            "durationTicks": 240,
            "midi": 54,
            "name": "F#3",
            "ticks": 227520,
            "time": 168.3375,
            "velocity": 0.7007874015748031
          },
          {
            "duration": 0.14999999999997726,
            "durationTicks": 240,
            "midi": 50,
            "name": "D3",
            "ticks": 227760,
            "time": 168.4875,
            "velocity": 0.6929133858267716
          },
          {
            "duration": 0.45000000000001705,
            "durationTicks": 720,
            "midi": 38,
            "name": "D2",
            "ticks": 228000,
            "time": 168.6375,
            "velocity": 0.6850393700787402
          },
          {
            "duration": 0.15000000000000568,
            "durationTicks": 240,
            "midi": 57,
            "name": "A3",
            "ticks": 228720,
            "time": 169.0875,
            "velocity": 0.8976377952755905
          },
          {
            "duration": 0.5999999999999943,
            "durationTicks": 960,
            "midi": 50,
            "name": "D3",
            "ticks": 228960,
            "time": 169.2375,
            "velocity": 0.84251968503937
          },
          {
            "duration": 0.75,
            "durationTicks": 1200,
            "midi": 57,
            "name": "A3",
            "ticks": 228960,
            "time": 169.2375,
            "velocity": 0.84251968503937
          },
          {
            "duration": 0.152499999999975,
            "durationTicks": 244,
            "midi": 54,
            "name": "F#3",
            "ticks": 230160,
            "time": 169.9875,
            "velocity": 0.7559055118110236
          },
          {
            "duration": 0.1525000000000034,
            "durationTicks": 244,
            "midi": 55,
            "name": "G3",
            "ticks": 230400,
            "time": 170.1375,
            "velocity": 0.7716535433070866
          },
          {
            "duration": 0.140625,
            "durationTicks": 225,
            "midi": 57,
            "name": "A3",
            "ticks": 230640,
            "time": 170.2875,
            "velocity": 0.8031496062992126
          },
          {
            "duration": 0.1525000000000034,
            "durationTicks": 244,
            "midi": 50,
            "name": "D3",
            "ticks": 230880,
            "time": 170.4375,
            "velocity": 0.7165354330708661
          },
          {
            "duration": 0.1525000000000034,
            "durationTicks": 244,
            "midi": 52,
            "name": "E3",
            "ticks": 231120,
            "time": 170.5875,
            "velocity": 0.7874015748031497
          },
          {
            "duration": 0.152499999999975,
            "durationTicks": 244,
            "midi": 54,
            "name": "F#3",
            "ticks": 231360,
            "time": 170.7375,
            "velocity": 0.7795275590551181
          },
          {
            "duration": 0.140625,
            "durationTicks": 225,
            "midi": 55,
            "name": "G3",
            "ticks": 231600,
            "time": 170.8875,
            "velocity": 0.7795275590551181
          },
          {
            "duration": 0.15000000000000568,
            "durationTicks": 240,
            "midi": 57,
            "name": "A3",
            "ticks": 231840,
            "time": 171.0375,
            "velocity": 0.7952755905511811
          },
          {
            "duration": 0.15000000000000568,
            "durationTicks": 240,
            "midi": 54,
            "name": "F#3",
            "ticks": 232080,
            "time": 171.1875,
            "velocity": 0.7322834645669292
          },
          {
            "duration": 0.1525000000000034,
            "durationTicks": 244,
            "midi": 50,
            "name": "D3",
            "ticks": 232320,
            "time": 171.3375,
            "velocity": 0.7165354330708661
          },
          {
            "duration": 0.140625,
            "durationTicks": 225,
            "midi": 48,
            "name": "C3",
            "ticks": 232560,
            "time": 171.4875,
            "velocity": 0.7165354330708661
          },
          {
            "duration": 0.15000000000000568,
            "durationTicks": 240,
            "midi": 47,
            "name": "B2",
            "ticks": 232800,
            "time": 171.6375,
            "velocity": 0.7559055118110236
          },
          {
            "duration": 0.1362500000000182,
            "durationTicks": 218,
            "midi": 50,
            "name": "D3",
            "ticks": 233040,
            "time": 171.7875,
            "velocity": 0.7637795275590551
          },
          {
            "duration": 0.1525000000000034,
            "durationTicks": 244,
            "midi": 55,
            "name": "G3",
            "ticks": 233280,
            "time": 171.9375,
            "velocity": 0.8503937007874016
          },
          {
            "duration": 0.140625,
            "durationTicks": 225,
            "midi": 54,
            "name": "F#3",
            "ticks": 233520,
            "time": 172.0875,
            "velocity": 0.7795275590551181
          },
          {
            "duration": 0.14999999999997726,
            "durationTicks": 240,
            "midi": 55,
            "name": "G3",
            "ticks": 233760,
            "time": 172.2375,
            "velocity": 0.7795275590551181
          },
          {
            "duration": 0.15000000000000568,
            "durationTicks": 240,
            "midi": 57,
            "name": "A3",
            "ticks": 234000,
            "time": 172.3875,
            "velocity": 0.7874015748031497
          },
          {
            "duration": 0.15000000000000568,
            "durationTicks": 240,
            "midi": 59,
            "name": "B3",
            "ticks": 234240,
            "time": 172.5375,
            "velocity": 0.8267716535433071
          },
          {
            "duration": 0.15000000000000568,
            "durationTicks": 240,
            "midi": 60,
            "name": "C4",
            "ticks": 234480,
            "time": 172.6875,
            "velocity": 0.7795275590551181
          },
          {
            "duration": 0.15000000000000568,
            "durationTicks": 240,
            "midi": 62,
            "name": "D4",
            "ticks": 234720,
            "time": 172.8375,
            "velocity": 0.8346456692913385
          },
          {
            "duration": 0.14999999999997726,
            "durationTicks": 240,
            "midi": 59,
            "name": "B3",
            "ticks": 234960,
            "time": 172.9875,
            "velocity": 0.7480314960629921
          },
          {
            "duration": 0.15000000000000568,
            "durationTicks": 240,
            "midi": 57,
            "name": "A3",
            "ticks": 235200,
            "time": 173.1375,
            "velocity": 0.7244094488188977
          },
          {
            "duration": 0.15000000000000568,
            "durationTicks": 240,
            "midi": 55,
            "name": "G3",
            "ticks": 235440,
            "time": 173.2875,
            "velocity": 0.7480314960629921
          },
          {
            "duration": 0.1525000000000034,
            "durationTicks": 244,
            "midi": 53,
            "name": "F3",
            "ticks": 235680,
            "time": 173.4375,
            "velocity": 0.7322834645669292
          },
          {
            "duration": 0.1525000000000034,
            "durationTicks": 244,
            "midi": 52,
            "name": "E3",
            "ticks": 235920,
            "time": 173.5875,
            "velocity": 0.7007874015748031
          },
          {
            "duration": 0.140625,
            "durationTicks": 225,
            "midi": 53,
            "name": "F3",
            "ticks": 236160,
            "time": 173.7375,
            "velocity": 0.7874015748031497
          },
          {
            "duration": 0.15000000000000568,
            "durationTicks": 240,
            "midi": 62,
            "name": "D4",
            "ticks": 236400,
            "time": 173.8875,
            "velocity": 0.9212598425196851
          },
          {
            "duration": 0.07062500000000682,
            "durationTicks": 113,
            "midi": 52,
            "name": "E3",
            "ticks": 236640,
            "time": 174.0375,
            "velocity": 0.7401574803149606
          },
          {
            "duration": 0.060624999999987494,
            "durationTicks": 97,
            "midi": 54,
            "name": "F#3",
            "ticks": 236764,
            "time": 174.115,
            "velocity": 0.7401574803149606
          },
          {
            "duration": 0.05875000000000341,
            "durationTicks": 94,
            "midi": 52,
            "name": "E3",
            "ticks": 236884,
            "time": 174.19,
            "velocity": 0.7401574803149606
          },
          {
            "duration": 0.01187500000000341,
            "durationTicks": 19,
            "midi": 54,
            "name": "F#3",
            "ticks": 237019,
            "time": 174.274375,
            "velocity": 0.7401574803149606
          },
          {
            "duration": 0.049374999999997726,
            "durationTicks": 79,
            "midi": 50,
            "name": "D3",
            "ticks": 237041,
            "time": 174.288125,
            "velocity": 0.7165354330708661
          },
          {
            "duration": 0.2837499999999977,
            "durationTicks": 454,
            "midi": 48,
            "name": "C3",
            "ticks": 237120,
            "time": 174.3375,
            "velocity": 0.7322834645669292
          },
          {
            "duration": 0.15000000000000568,
            "durationTicks": 240,
            "midi": 60,
            "name": "C4",
            "ticks": 237600,
            "time": 174.6375,
            "velocity": 0.984251968503937
          },
          {
            "duration": 0.15000000000000568,
            "durationTicks": 240,
            "midi": 45,
            "name": "A2",
            "ticks": 237840,
            "time": 174.7875,
            "velocity": 0.6850393700787402
          },
          {
            "duration": 0.15000000000000568,
            "durationTicks": 240,
            "midi": 47,
            "name": "B2",
            "ticks": 238080,
            "time": 174.9375,
            "velocity": 0.8031496062992126
          },
          {
            "duration": 0.15000000000000568,
            "durationTicks": 240,
            "midi": 48,
            "name": "C3",
            "ticks": 238320,
            "time": 175.0875,
            "velocity": 0.8267716535433071
          },
          {
            "duration": 0.14999999999997726,
            "durationTicks": 240,
            "midi": 38,
            "name": "D2",
            "ticks": 238560,
            "time": 175.2375,
            "velocity": 0.6850393700787402
          },
          {
            "duration": 0.1525000000000034,
            "durationTicks": 244,
            "midi": 60,
            "name": "C4",
            "ticks": 238800,
            "time": 175.3875,
            "velocity": 0.9448818897637795
          },
          {
            "duration": 0.1525000000000034,
            "durationTicks": 244,
            "midi": 59,
            "name": "B3",
            "ticks": 239040,
            "time": 175.5375,
            "velocity": 0.7952755905511811
          },
          {
            "duration": 0.140625,
            "durationTicks": 225,
            "midi": 60,
            "name": "C4",
            "ticks": 239280,
            "time": 175.6875,
            "velocity": 0.8188976377952756
          },
          {
            "duration": 0.15000000000000568,
            "durationTicks": 240,
            "midi": 62,
            "name": "D4",
            "ticks": 239520,
            "time": 175.8375,
            "velocity": 0.7952755905511811
          },
          {
            "duration": 0.14999999999997726,
            "durationTicks": 240,
            "midi": 59,
            "name": "B3",
            "ticks": 239760,
            "time": 175.9875,
            "velocity": 0.7244094488188977
          },
          {
            "duration": 0.15000000000000568,
            "durationTicks": 240,
            "midi": 60,
            "name": "C4",
            "ticks": 240000,
            "time": 176.1375,
            "velocity": 0.8346456692913385
          },
          {
            "duration": 0.15000000000000568,
            "durationTicks": 240,
            "midi": 57,
            "name": "A3",
            "ticks": 240240,
            "time": 176.2875,
            "velocity": 0.7480314960629921
          },
          {
            "duration": 0.07062500000000682,
            "durationTicks": 113,
            "midi": 56,
            "name": "G#3",
            "ticks": 240480,
            "time": 176.4375,
            "velocity": 0.7716535433070866
          },
          {
            "duration": 0.060625000000015916,
            "durationTicks": 97,
            "midi": 57,
            "name": "A3",
            "ticks": 240604,
            "time": 176.515,
            "velocity": 0.7716535433070866
          },
          {
            "duration": 0.05875000000000341,
            "durationTicks": 94,
            "midi": 56,
            "name": "G#3",
            "ticks": 240724,
            "time": 176.59,
            "velocity": 0.7716535433070866
          },
          {
            "duration": 0.01187500000000341,
            "durationTicks": 19,
            "midi": 57,
            "name": "A3",
            "ticks": 240859,
            "time": 176.674375,
            "velocity": 0.7716535433070866
          },
          {
            "duration": 0.049374999999997726,
            "durationTicks": 79,
            "midi": 54,
            "name": "F#3",
            "ticks": 240881,
            "time": 176.688125,
            "velocity": 0.7401574803149606
          },
          {
            "duration": 0.2837499999999977,
            "durationTicks": 454,
            "midi": 52,
            "name": "E3",
            "ticks": 240960,
            "time": 176.7375,
            "velocity": 0.7637795275590551
          },
          {
            "duration": 0.15000000000000568,
            "durationTicks": 240,
            "midi": 59,
            "name": "B3",
            "ticks": 241440,
            "time": 177.0375,
            "velocity": 0.8740157480314961
          },
          {
            "duration": 0.15000000000000568,
            "durationTicks": 240,
            "midi": 50,
            "name": "D3",
            "ticks": 241680,
            "time": 177.1875,
            "velocity": 0.6850393700787402
          },
          {
            "duration": 0.15000000000000568,
            "durationTicks": 240,
            "midi": 48,
            "name": "C3",
            "ticks": 241920,
            "time": 177.3375,
            "velocity": 0.7322834645669292
          },
          {
            "duration": 0.14999999999997726,
            "durationTicks": 240,
            "midi": 47,
            "name": "B2",
            "ticks": 242160,
            "time": 177.4875,
            "velocity": 0.7637795275590551
          },
          {
            "duration": 0.15000000000000568,
            "durationTicks": 240,
            "midi": 48,
            "name": "C3",
            "ticks": 242400,
            "time": 177.6375,
            "velocity": 0.8031496062992126
          },
          {
            "duration": 0.15000000000000568,
            "durationTicks": 240,
            "midi": 52,
            "name": "E3",
            "ticks": 242640,
            "time": 177.7875,
            "velocity": 0.84251968503937
          },
          {
            "duration": 0.15000000000000568,
            "durationTicks": 240,
            "midi": 54,
            "name": "F#3",
            "ticks": 242880,
            "time": 177.9375,
            "velocity": 0.7795275590551181
          },
          {
            "duration": 0.15000000000000568,
            "durationTicks": 240,
            "midi": 56,
            "name": "G#3",
            "ticks": 243120,
            "time": 178.0875,
            "velocity": 0.8110236220472441
          },
          {
            "duration": 0.14999999999997726,
            "durationTicks": 240,
            "midi": 57,
            "name": "A3",
            "ticks": 243360,
            "time": 178.2375,
            "velocity": 0.8031496062992126
          },
          {
            "duration": 0.1525000000000034,
            "durationTicks": 244,
            "midi": 60,
            "name": "C4",
            "ticks": 243600,
            "time": 178.3875,
            "velocity": 0.8267716535433071
          },
          {
            "duration": 0.1525000000000034,
            "durationTicks": 244,
            "midi": 59,
            "name": "B3",
            "ticks": 243840,
            "time": 178.5375,
            "velocity": 0.7716535433070866
          },
          {
            "duration": 0.140625,
            "durationTicks": 225,
            "midi": 57,
            "name": "A3",
            "ticks": 244080,
            "time": 178.6875,
            "velocity": 0.7637795275590551
          },
          {
            "duration": 0.29999999999998295,
            "durationTicks": 480,
            "midi": 62,
            "name": "D4",
            "ticks": 244320,
            "time": 178.8375,
            "velocity": 0.8976377952755905
          },
          {
            "duration": 0.1525000000000034,
            "durationTicks": 244,
            "midi": 47,
            "name": "B2",
            "ticks": 244800,
            "time": 179.1375,
            "velocity": 0.6929133858267716
          },
          {
            "duration": 0.140625,
            "durationTicks": 225,
            "midi": 48,
            "name": "C3",
            "ticks": 245040,
            "time": 179.2875,
            "velocity": 0.7795275590551181
          },
          {
            "duration": 0.1525000000000034,
            "durationTicks": 244,
            "midi": 50,
            "name": "D3",
            "ticks": 245280,
            "time": 179.4375,
            "velocity": 0.7952755905511811
          },
          {
            "duration": 0.1525000000000034,
            "durationTicks": 244,
            "midi": 52,
            "name": "E3",
            "ticks": 245520,
            "time": 179.5875,
            "velocity": 0.7716535433070866
          },
          {
            "duration": 0.140625,
            "durationTicks": 225,
            "midi": 53,
            "name": "F3",
            "ticks": 245760,
            "time": 179.7375,
            "velocity": 0.7874015748031497
          },
          {
            "duration": 0.15000000000000568,
            "durationTicks": 240,
            "midi": 45,
            "name": "A2",
            "ticks": 246000,
            "time": 179.8875,
            "velocity": 0.7480314960629921
          },
          {
            "duration": 0.07062500000000682,
            "durationTicks": 113,
            "midi": 44,
            "name": "G#2",
            "ticks": 246240,
            "time": 180.0375,
            "velocity": 0.7795275590551181
          },
          {
            "duration": 0.06562500000001137,
            "durationTicks": 105,
            "midi": 45,
            "name": "A2",
            "ticks": 246375,
            "time": 180.121875,
            "velocity": 0.7795275590551181
          },
          {
            "duration": 0.060624999999987494,
            "durationTicks": 97,
            "midi": 44,
            "name": "G#2",
            "ticks": 246499,
            "time": 180.199375,
            "velocity": 0.7795275590551181
          },
          {
            "duration": 0.056250000000005684,
            "durationTicks": 90,
            "midi": 45,
            "name": "A2",
            "ticks": 246615,
            "time": 180.271875,
            "velocity": 0.7795275590551181
          },
          {
            "duration": 0.060624999999987494,
            "durationTicks": 97,
            "midi": 44,
            "name": "G#2",
            "ticks": 246739,
            "time": 180.349375,
            "velocity": 0.7795275590551181
          },
          {
            "duration": 0.05125000000001023,
            "durationTicks": 82,
            "midi": 45,
            "name": "A2",
            "ticks": 246874,
            "time": 180.43375,
            "velocity": 0.7795275590551181
          },
          {
            "duration": 0.14999999999997726,
            "durationTicks": 240,
            "midi": 52,
            "name": "E3",
            "ticks": 246960,
            "time": 180.4875,
            "velocity": 0.8031496062992126
          },
          {
            "duration": 0.15000000000000568,
            "durationTicks": 240,
            "midi": 59,
            "name": "B3",
            "ticks": 247200,
            "time": 180.6375,
            "velocity": 0.84251968503937
          },
          {
            "duration": 0.15000000000000568,
            "durationTicks": 240,
            "midi": 62,
            "name": "D4",
            "ticks": 247440,
            "time": 180.7875,
            "velocity": 0.8582677165354331
          },
          {
            "duration": 0.15000000000000568,
            "durationTicks": 240,
            "midi": 60,
            "name": "C4",
            "ticks": 247680,
            "time": 180.9375,
            "velocity": 0.7244094488188977
          },
          {
            "duration": 0.15000000000000568,
            "durationTicks": 240,
            "midi": 59,
            "name": "B3",
            "ticks": 247920,
            "time": 181.0875,
            "velocity": 0.7559055118110236
          },
          {
            "duration": 0.44999999999998863,
            "durationTicks": 720,
            "midi": 45,
            "name": "A2",
            "ticks": 248160,
            "time": 181.2375,
            "velocity": 0.8031496062992126
          },
          {
            "duration": 0.44999999999998863,
            "durationTicks": 720,
            "midi": 52,
            "name": "E3",
            "ticks": 248160,
            "time": 181.2375,
            "velocity": 0.8031496062992126
          },
          {
            "duration": 0.44999999999998863,
            "durationTicks": 720,
            "midi": 60,
            "name": "C4",
            "ticks": 248160,
            "time": 181.2375,
            "velocity": 0.8031496062992126
          },
          {
            "duration": 0.15000000000000568,
            "durationTicks": 240,
            "midi": 59,
            "name": "B3",
            "ticks": 248880,
            "time": 181.6875,
            "velocity": 0.7795275590551181
          },
          {
            "duration": 0.15000000000000568,
            "durationTicks": 240,
            "midi": 57,
            "name": "A3",
            "ticks": 249120,
            "time": 181.8375,
            "velocity": 0.7559055118110236
          },
          {
            "duration": 0.14999999999997726,
            "durationTicks": 240,
            "midi": 55,
            "name": "G3",
            "ticks": 249360,
            "time": 181.9875,
            "velocity": 0.7401574803149606
          },
          {
            "duration": 0.15000000000000568,
            "durationTicks": 240,
            "midi": 53,
            "name": "F3",
            "ticks": 249600,
            "time": 182.1375,
            "velocity": 0.7480314960629921
          },
          {
            "duration": 0.15000000000000568,
            "durationTicks": 240,
            "midi": 52,
            "name": "E3",
            "ticks": 249840,
            "time": 182.2875,
            "velocity": 0.7401574803149606
          },
          {
            "duration": 0.15000000000000568,
            "durationTicks": 240,
            "midi": 53,
            "name": "F3",
            "ticks": 250080,
            "time": 182.4375,
            "velocity": 0.7716535433070866
          },
          {
            "duration": 0.15000000000000568,
            "durationTicks": 240,
            "midi": 50,
            "name": "D3",
            "ticks": 250320,
            "time": 182.5875,
            "velocity": 0.7401574803149606
          },
          {
            "duration": 0.14999999999997726,
            "durationTicks": 240,
            "midi": 58,
            "name": "A#3",
            "ticks": 250560,
            "time": 182.7375,
            "velocity": 0.8661417322834646
          },
          {
            "duration": 0.15000000000000568,
            "durationTicks": 240,
            "midi": 57,
            "name": "A3",
            "ticks": 250800,
            "time": 182.8875,
            "velocity": 0.7952755905511811
          },
          {
            "duration": 0.1525000000000034,
            "durationTicks": 244,
            "midi": 58,
            "name": "A#3",
            "ticks": 251040,
            "time": 183.0375,
            "velocity": 0.8110236220472441
          },
          {
            "duration": 0.1525000000000034,
            "durationTicks": 244,
            "midi": 60,
            "name": "C4",
            "ticks": 251280,
            "time": 183.1875,
            "velocity": 0.8346456692913385
          },
          {
            "duration": 0.140625,
            "durationTicks": 225,
            "midi": 62,
            "name": "D4",
            "ticks": 251520,
            "time": 183.3375,
            "velocity": 0.84251968503937
          },
          {
            "duration": 0.14999999999997726,
            "durationTicks": 240,
            "midi": 57,
            "name": "A3",
            "ticks": 251760,
            "time": 183.4875,
            "velocity": 0.7165354330708661
          },
          {
            "duration": 0.1525000000000034,
            "durationTicks": 244,
            "midi": 56,
            "name": "G#3",
            "ticks": 252000,
            "time": 183.6375,
            "velocity": 0.7795275590551181
          },
          {
            "duration": 0.1525000000000034,
            "durationTicks": 244,
            "midi": 57,
            "name": "A3",
            "ticks": 252240,
            "time": 183.7875,
            "velocity": 0.8110236220472441
          },
          {
            "duration": 0.140625,
            "durationTicks": 225,
            "midi": 59,
            "name": "B3",
            "ticks": 252480,
            "time": 183.9375,
            "velocity": 0.8110236220472441
          },
          {
            "duration": 0.15000000000000568,
            "durationTicks": 240,
            "midi": 52,
            "name": "E3",
            "ticks": 252720,
            "time": 184.0875,
            "velocity": 0.7322834645669292
          },
          {
            "duration": 0.14999999999997726,
            "durationTicks": 240,
            "midi": 53,
            "name": "F3",
            "ticks": 252960,
            "time": 184.2375,
            "velocity": 0.7716535433070866
          },
          {
            "duration": 0.1525000000000034,
            "durationTicks": 244,
            "midi": 50,
            "name": "D3",
            "ticks": 253200,
            "time": 184.3875,
            "velocity": 0.7716535433070866
          },
          {
            "duration": 0.1525000000000034,
            "durationTicks": 244,
            "midi": 48,
            "name": "C3",
            "ticks": 253440,
            "time": 184.5375,
            "velocity": 0.7244094488188977
          },
          {
            "duration": 0.140625,
            "durationTicks": 225,
            "midi": 47,
            "name": "B2",
            "ticks": 253680,
            "time": 184.6875,
            "velocity": 0.7716535433070866
          },
          {
            "duration": 0.15000000000000568,
            "durationTicks": 240,
            "midi": 48,
            "name": "C3",
            "ticks": 253920,
            "time": 184.8375,
            "velocity": 0.7874015748031497
          },
          {
            "duration": 0.14999999999997726,
            "durationTicks": 240,
            "midi": 52,
            "name": "E3",
            "ticks": 254160,
            "time": 184.9875,
            "velocity": 0.8110236220472441
          },
          {
            "duration": 0.15000000000000568,
            "durationTicks": 240,
            "midi": 57,
            "name": "A3",
            "ticks": 254400,
            "time": 185.1375,
            "velocity": 0.8188976377952756
          },
          {
            "duration": 0.15000000000000568,
            "durationTicks": 240,
            "midi": 59,
            "name": "B3",
            "ticks": 254640,
            "time": 185.2875,
            "velocity": 0.7952755905511811
          },
          {
            "duration": 0.07062500000000682,
            "durationTicks": 113,
            "midi": 52,
            "name": "E3",
            "ticks": 254880,
            "time": 185.4375,
            "velocity": 0.7795275590551181
          },
          {
            "duration": 0.07062500000000682,
            "durationTicks": 113,
            "midi": 59,
            "name": "B3",
            "ticks": 254880,
            "time": 185.4375,
            "velocity": 0.7795275590551181
          },
          {
            "duration": 0.06562500000001137,
            "durationTicks": 105,
            "midi": 53,
            "name": "F3",
            "ticks": 255015,
            "time": 185.521875,
            "velocity": 0.7795275590551181
          },
          {
            "duration": 0.06562500000001137,
            "durationTicks": 105,
            "midi": 60,
            "name": "C4",
            "ticks": 255015,
            "time": 185.521875,
            "velocity": 0.7795275590551181
          },
          {
            "duration": 0.060624999999987494,
            "durationTicks": 97,
            "midi": 52,
            "name": "E3",
            "ticks": 255139,
            "time": 185.599375,
            "velocity": 0.7795275590551181
          },
          {
            "duration": 0.060624999999987494,
            "durationTicks": 97,
            "midi": 59,
            "name": "B3",
            "ticks": 255139,
            "time": 185.599375,
            "velocity": 0.7795275590551181
          },
          {
            "duration": 0.056250000000005684,
            "durationTicks": 90,
            "midi": 53,
            "name": "F3",
            "ticks": 255255,
            "time": 185.671875,
            "velocity": 0.7795275590551181
          },
          {
            "duration": 0.056250000000005684,
            "durationTicks": 90,
            "midi": 60,
            "name": "C4",
            "ticks": 255255,
            "time": 185.671875,
            "velocity": 0.7795275590551181
          },
          {
            "duration": 0.060625000000015916,
            "durationTicks": 97,
            "midi": 52,
            "name": "E3",
            "ticks": 255379,
            "time": 185.749375,
            "velocity": 0.7795275590551181
          },
          {
            "duration": 0.060625000000015916,
            "durationTicks": 97,
            "midi": 59,
            "name": "B3",
            "ticks": 255379,
            "time": 185.749375,
            "velocity": 0.7795275590551181
          },
          {
            "duration": 0.05124999999998181,
            "durationTicks": 82,
            "midi": 53,
            "name": "F3",
            "ticks": 255514,
            "time": 185.83375,
            "velocity": 0.7795275590551181
          },
          {
            "duration": 0.05124999999998181,
            "durationTicks": 82,
            "midi": 60,
            "name": "C4",
            "ticks": 255514,
            "time": 185.83375,
            "velocity": 0.7795275590551181
          },
          {
            "duration": 0.15000000000000568,
            "durationTicks": 240,
            "midi": 57,
            "name": "A3",
            "ticks": 255600,
            "time": 185.8875,
            "velocity": 0.7086614173228346
          },
          {
            "duration": 0.45000000000001705,
            "durationTicks": 720,
            "midi": 45,
            "name": "A2",
            "ticks": 255840,
            "time": 186.0375,
            "velocity": 0.7795275590551181
          },
          {
            "duration": 0.45000000000001705,
            "durationTicks": 720,
            "midi": 52,
            "name": "E3",
            "ticks": 255840,
            "time": 186.0375,
            "velocity": 0.7795275590551181
          },
          {
            "duration": 0.45000000000001705,
            "durationTicks": 720,
            "midi": 57,
            "name": "A3",
            "ticks": 255840,
            "time": 186.0375,
            "velocity": 0.7795275590551181
          },
          {
            "duration": 0.14999999999997726,
            "durationTicks": 240,
            "midi": 59,
            "name": "B3",
            "ticks": 256560,
            "time": 186.4875,
            "velocity": 0.7637795275590551
          },
          {
            "duration": 0.1525000000000034,
            "durationTicks": 244,
            "midi": 60,
            "name": "C4",
            "ticks": 256800,
            "time": 186.6375,
            "velocity": 0.8031496062992126
          },
          {
            "duration": 0.1525000000000034,
            "durationTicks": 244,
            "midi": 59,
            "name": "B3",
            "ticks": 257040,
            "time": 186.7875,
            "velocity": 0.7716535433070866
          },
          {
            "duration": 0.140625,
            "durationTicks": 225,
            "midi": 60,
            "name": "C4",
            "ticks": 257280,
            "time": 186.9375,
            "velocity": 0.8110236220472441
          },
          {
            "duration": 0.15000000000000568,
            "durationTicks": 240,
            "midi": 55,
            "name": "G3",
            "ticks": 257520,
            "time": 187.0875,
            "velocity": 0.7165354330708661
          },
          {
            "duration": 0.152499999999975,
            "durationTicks": 244,
            "midi": 54,
            "name": "F#3",
            "ticks": 257760,
            "time": 187.2375,
            "velocity": 0.7637795275590551
          },
          {
            "duration": 0.1525000000000034,
            "durationTicks": 244,
            "midi": 55,
            "name": "G3",
            "ticks": 258000,
            "time": 187.3875,
            "velocity": 0.7874015748031497
          },
          {
            "duration": 0.140625,
            "durationTicks": 225,
            "midi": 57,
            "name": "A3",
            "ticks": 258240,
            "time": 187.5375,
            "velocity": 0.7874015748031497
          },
          {
            "duration": 0.15000000000000568,
            "durationTicks": 240,
            "midi": 52,
            "name": "E3",
            "ticks": 258480,
            "time": 187.6875,
            "velocity": 0.7322834645669292
          },
          {
            "duration": 0.15000000000000568,
            "durationTicks": 240,
            "midi": 50,
            "name": "D3",
            "ticks": 258720,
            "time": 187.8375,
            "velocity": 0.7244094488188977
          },
          {
            "duration": 0.14999999999997726,
            "durationTicks": 240,
            "midi": 48,
            "name": "C3",
            "ticks": 258960,
            "time": 187.9875,
            "velocity": 0.7637795275590551
          },
          {
            "duration": 0.15000000000000568,
            "durationTicks": 240,
            "midi": 47,
            "name": "B2",
            "ticks": 259200,
            "time": 188.1375,
            "velocity": 0.7559055118110236
          },
          {
            "duration": 0.15000000000000568,
            "durationTicks": 240,
            "midi": 45,
            "name": "A2",
            "ticks": 259440,
            "time": 188.2875,
            "velocity": 0.7716535433070866
          },
          {
            "duration": 0.15000000000000568,
            "durationTicks": 240,
            "midi": 43,
            "name": "G2",
            "ticks": 259680,
            "time": 188.4375,
            "velocity": 0.7874015748031497
          },
          {
            "duration": 0.1525000000000034,
            "durationTicks": 244,
            "midi": 50,
            "name": "D3",
            "ticks": 259920,
            "time": 188.5875,
            "velocity": 0.84251968503937
          },
          {
            "duration": 0.152499999999975,
            "durationTicks": 244,
            "midi": 54,
            "name": "F#3",
            "ticks": 260160,
            "time": 188.7375,
            "velocity": 0.8031496062992126
          },
          {
            "duration": 0.140625,
            "durationTicks": 225,
            "midi": 60,
            "name": "C4",
            "ticks": 260400,
            "time": 188.8875,
            "velocity": 0.8740157480314961
          },
          {
            "duration": 0.15000000000000568,
            "durationTicks": 240,
            "midi": 59,
            "name": "B3",
            "ticks": 260640,
            "time": 189.0375,
            "velocity": 0.7795275590551181
          },
          {
            "duration": 0.15000000000000568,
            "durationTicks": 240,
            "midi": 57,
            "name": "A3",
            "ticks": 260880,
            "time": 189.1875,
            "velocity": 0.7637795275590551
          },
          {
            "duration": 0.15000000000000568,
            "durationTicks": 240,
            "midi": 55,
            "name": "G3",
            "ticks": 261120,
            "time": 189.3375,
            "velocity": 0.7480314960629921
          },
          {
            "duration": 0.14999999999997726,
            "durationTicks": 240,
            "midi": 57,
            "name": "A3",
            "ticks": 261360,
            "time": 189.4875,
            "velocity": 0.7795275590551181
          },
          {
            "duration": 0.15000000000000568,
            "durationTicks": 240,
            "midi": 59,
            "name": "B3",
            "ticks": 261600,
            "time": 189.6375,
            "velocity": 0.7952755905511811
          },
          {
            "duration": 0.15000000000000568,
            "durationTicks": 240,
            "midi": 60,
            "name": "C4",
            "ticks": 261840,
            "time": 189.7875,
            "velocity": 0.8346456692913385
          },
          {
            "duration": 0.15000000000000568,
            "durationTicks": 240,
            "midi": 62,
            "name": "D4",
            "ticks": 262080,
            "time": 189.9375,
            "velocity": 0.8110236220472441
          },
          {
            "duration": 0.15000000000000568,
            "durationTicks": 240,
            "midi": 64,
            "name": "E4",
            "ticks": 262320,
            "time": 190.0875,
            "velocity": 0.8110236220472441
          },
          {
            "duration": 0.14999999999997726,
            "durationTicks": 240,
            "midi": 62,
            "name": "D4",
            "ticks": 262560,
            "time": 190.2375,
            "velocity": 0.7244094488188977
          },
          {
            "duration": 0.15000000000000568,
            "durationTicks": 240,
            "midi": 64,
            "name": "E4",
            "ticks": 262800,
            "time": 190.3875,
            "velocity": 0.8346456692913385
          },
          {
            "duration": 0.15000000000000568,
            "durationTicks": 240,
            "midi": 65,
            "name": "F4",
            "ticks": 263040,
            "time": 190.5375,
            "velocity": 0.8188976377952756
          },
          {
            "duration": 0.15000000000000568,
            "durationTicks": 240,
            "midi": 62,
            "name": "D4",
            "ticks": 263280,
            "time": 190.6875,
            "velocity": 0.7165354330708661
          },
          {
            "duration": 0.29999999999998295,
            "durationTicks": 480,
            "midi": 64,
            "name": "E4",
            "ticks": 263520,
            "time": 190.8375,
            "velocity": 0.7716535433070866
          },
          {
            "duration": 0.30000000000001137,
            "durationTicks": 480,
            "midi": 55,
            "name": "G3",
            "ticks": 264000,
            "time": 191.1375,
            "velocity": 0.6771653543307087
          },
          {
            "duration": 0.15000000000000568,
            "durationTicks": 240,
            "midi": 48,
            "name": "C3",
            "ticks": 264480,
            "time": 191.4375,
            "velocity": 0.6456692913385826
          },
          {
            "duration": 0.1525000000000034,
            "durationTicks": 244,
            "midi": 62,
            "name": "D4",
            "ticks": 264720,
            "time": 191.5875,
            "velocity": 0.968503937007874
          },
          {
            "duration": 0.152499999999975,
            "durationTicks": 244,
            "midi": 60,
            "name": "C4",
            "ticks": 264960,
            "time": 191.7375,
            "velocity": 0.8031496062992126
          },
          {
            "duration": 0.140625,
            "durationTicks": 225,
            "midi": 59,
            "name": "B3",
            "ticks": 265200,
            "time": 191.8875,
            "velocity": 0.7637795275590551
          },
          {
            "duration": 0.1525000000000034,
            "durationTicks": 244,
            "midi": 57,
            "name": "A3",
            "ticks": 265440,
            "time": 192.0375,
            "velocity": 0.7716535433070866
          },
          {
            "duration": 0.1525000000000034,
            "durationTicks": 244,
            "midi": 59,
            "name": "B3",
            "ticks": 265680,
            "time": 192.1875,
            "velocity": 0.7874015748031497
          },
          {
            "duration": 0.140625,
            "durationTicks": 225,
            "midi": 60,
            "name": "C4",
            "ticks": 265920,
            "time": 192.3375,
            "velocity": 0.8188976377952756
          },
          {
            "duration": 0.14999999999997726,
            "durationTicks": 240,
            "midi": 64,
            "name": "E4",
            "ticks": 266160,
            "time": 192.4875,
            "velocity": 0.8582677165354331
          },
          {
            "duration": 0.45000000000001705,
            "durationTicks": 720,
            "midi": 62,
            "name": "D4",
            "ticks": 266400,
            "time": 192.6375,
            "velocity": 0.7322834645669292
          },
          {
            "duration": 0.15000000000000568,
            "durationTicks": 240,
            "midi": 60,
            "name": "C4",
            "ticks": 267120,
            "time": 193.0875,
            "velocity": 0.7086614173228346
          },
          {
            "duration": 0.29999999999998295,
            "durationTicks": 480,
            "midi": 62,
            "name": "D4",
            "ticks": 267360,
            "time": 193.2375,
            "velocity": 0.8346456692913385
          },
          {
            "duration": 0.30000000000001137,
            "durationTicks": 480,
            "midi": 57,
            "name": "A3",
            "ticks": 267840,
            "time": 193.5375,
            "velocity": 0.7559055118110236
          },
          {
            "duration": 0.15000000000000568,
            "durationTicks": 240,
            "midi": 47,
            "name": "B2",
            "ticks": 268320,
            "time": 193.8375,
            "velocity": 0.6771653543307087
          },
          {
            "duration": 0.152499999999975,
            "durationTicks": 244,
            "midi": 60,
            "name": "C4",
            "ticks": 268560,
            "time": 193.9875,
            "velocity": 0.9291338582677166
          },
          {
            "duration": 0.1525000000000034,
            "durationTicks": 244,
            "midi": 59,
            "name": "B3",
            "ticks": 268800,
            "time": 194.1375,
            "velocity": 0.7559055118110236
          },
          {
            "duration": 0.140625,
            "durationTicks": 225,
            "midi": 57,
            "name": "A3",
            "ticks": 269040,
            "time": 194.2875,
            "velocity": 0.7559055118110236
          },
          {
            "duration": 0.1525000000000034,
            "durationTicks": 244,
            "midi": 55,
            "name": "G3",
            "ticks": 269280,
            "time": 194.4375,
            "velocity": 0.7559055118110236
          },
          {
            "duration": 0.1525000000000034,
            "durationTicks": 244,
            "midi": 54,
            "name": "F#3",
            "ticks": 269520,
            "time": 194.5875,
            "velocity": 0.7480314960629921
          },
          {
            "duration": 0.140625,
            "durationTicks": 225,
            "midi": 52,
            "name": "E3",
            "ticks": 269760,
            "time": 194.7375,
            "velocity": 0.7559055118110236
          },
          {
            "duration": 0.15000000000000568,
            "durationTicks": 240,
            "midi": 55,
            "name": "G3",
            "ticks": 270000,
            "time": 194.8875,
            "velocity": 0.7795275590551181
          },
          {
            "duration": 0.15000000000000568,
            "durationTicks": 240,
            "midi": 59,
            "name": "B3",
            "ticks": 270240,
            "time": 195.0375,
            "velocity": 0.7716535433070866
          },
          {
            "duration": 0.14999999999997726,
            "durationTicks": 240,
            "midi": 62,
            "name": "D4",
            "ticks": 270480,
            "time": 195.1875,
            "velocity": 0.8267716535433071
          },
          {
            "duration": 0.1500000000000341,
            "durationTicks": 240,
            "midi": 60,
            "name": "C4",
            "ticks": 270720,
            "time": 195.33749999999998,
            "velocity": 0.7086614173228346
          },
          {
            "duration": 0.14999999999997726,
            "durationTicks": 240,
            "midi": 59,
            "name": "B3",
            "ticks": 270960,
            "time": 195.4875,
            "velocity": 0.7716535433070866
          },
          {
            "duration": 0.30000000000001137,
            "durationTicks": 480,
            "midi": 60,
            "name": "C4",
            "ticks": 271200,
            "time": 195.6375,
            "velocity": 0.7874015748031497
          },
          {
            "duration": 0.30000000000001137,
            "durationTicks": 480,
            "midi": 55,
            "name": "G3",
            "ticks": 271680,
            "time": 195.9375,
            "velocity": 0.7559055118110236
          },
          {
            "duration": 0.14999999999997726,
            "durationTicks": 240,
            "midi": 45,
            "name": "A2",
            "ticks": 272160,
            "time": 196.2375,
            "velocity": 0.7007874015748031
          },
          {
            "duration": 0.1525000000000034,
            "durationTicks": 244,
            "midi": 52,
            "name": "E3",
            "ticks": 272400,
            "time": 196.3875,
            "velocity": 0.8188976377952756
          },
          {
            "duration": 0.1525000000000034,
            "durationTicks": 244,
            "midi": 54,
            "name": "F#3",
            "ticks": 272640,
            "time": 196.5375,
            "velocity": 0.8110236220472441
          },
          {
            "duration": 0.140625,
            "durationTicks": 225,
            "midi": 55,
            "name": "G3",
            "ticks": 272880,
            "time": 196.6875,
            "velocity": 0.8110236220472441
          },
          {
            "duration": 0.1500000000000341,
            "durationTicks": 240,
            "midi": 54,
            "name": "F#3",
            "ticks": 273120,
            "time": 196.83749999999998,
            "velocity": 0.7322834645669292
          },
          {
            "duration": 0.152499999999975,
            "durationTicks": 244,
            "midi": 57,
            "name": "A3",
            "ticks": 273360,
            "time": 196.9875,
            "velocity": 0.7559055118110236
          },
          {
            "duration": 0.1525000000000034,
            "durationTicks": 244,
            "midi": 59,
            "name": "B3",
            "ticks": 273600,
            "time": 197.1375,
            "velocity": 0.7637795275590551
          },
          {
            "duration": 0.140625,
            "durationTicks": 225,
            "midi": 60,
            "name": "C4",
            "ticks": 273840,
            "time": 197.2875,
            "velocity": 0.7874015748031497
          },
          {
            "duration": 0.14999999999997726,
            "durationTicks": 240,
            "midi": 50,
            "name": "D3",
            "ticks": 274080,
            "time": 197.4375,
            "velocity": 0.6535433070866141
          },
          {
            "duration": 0.1500000000000341,
            "durationTicks": 240,
            "midi": 48,
            "name": "C3",
            "ticks": 274320,
            "time": 197.58749999999998,
            "velocity": 0.7559055118110236
          },
          {
            "duration": 0.14999999999997726,
            "durationTicks": 240,
            "midi": 47,
            "name": "B2",
            "ticks": 274560,
            "time": 197.7375,
            "velocity": 0.7244094488188977
          },
          {
            "duration": 0.15000000000000568,
            "durationTicks": 240,
            "midi": 45,
            "name": "A2",
            "ticks": 274800,
            "time": 197.8875,
            "velocity": 0.7559055118110236
          },
          {
            "duration": 0.15000000000000568,
            "durationTicks": 240,
            "midi": 43,
            "name": "G2",
            "ticks": 275040,
            "time": 198.0375,
            "velocity": 0.7480314960629921
          },
          {
            "duration": 0.152499999999975,
            "durationTicks": 244,
            "midi": 50,
            "name": "D3",
            "ticks": 275280,
            "time": 198.1875,
            "velocity": 0.8503937007874016
          },
          {
            "duration": 0.15250000000003183,
            "durationTicks": 244,
            "midi": 54,
            "name": "F#3",
            "ticks": 275520,
            "time": 198.33749999999998,
            "velocity": 0.8110236220472441
          },
          {
            "duration": 0.140625,
            "durationTicks": 225,
            "midi": 57,
            "name": "A3",
            "ticks": 275760,
            "time": 198.4875,
            "velocity": 0.8110236220472441
          },
          {
            "duration": 0.15000000000000568,
            "durationTicks": 240,
            "midi": 60,
            "name": "C4",
            "ticks": 276000,
            "time": 198.6375,
            "velocity": 0.8346456692913385
          },
          {
            "duration": 0.15000000000000568,
            "durationTicks": 240,
            "midi": 57,
            "name": "A3",
            "ticks": 276240,
            "time": 198.7875,
            "velocity": 0.7637795275590551
          },
          {
            "duration": 0.14999999999997726,
            "durationTicks": 240,
            "midi": 54,
            "name": "F#3",
            "ticks": 276480,
            "time": 198.9375,
            "velocity": 0.7559055118110236
          },
          {
            "duration": 0.1500000000000341,
            "durationTicks": 240,
            "midi": 50,
            "name": "D3",
            "ticks": 276720,
            "time": 199.08749999999998,
            "velocity": 0.7401574803149606
          },
          {
            "duration": 0.44999999999998863,
            "durationTicks": 720,
            "midi": 43,
            "name": "G2",
            "ticks": 276960,
            "time": 199.2375,
            "velocity": 0.84251968503937
          },
          {
            "duration": 0.44999999999998863,
            "durationTicks": 720,
            "midi": 50,
            "name": "D3",
            "ticks": 276960,
            "time": 199.2375,
            "velocity": 0.84251968503937
          },
          {
            "duration": 0.44999999999998863,
            "durationTicks": 720,
            "midi": 59,
            "name": "B3",
            "ticks": 276960,
            "time": 199.2375,
            "velocity": 0.84251968503937
          },
          {
            "duration": 0.14999999999997726,
            "durationTicks": 240,
            "midi": 50,
            "name": "D3",
            "ticks": 277680,
            "time": 199.6875,
            "velocity": 0.6771653543307087
          },
          {
            "duration": 0.1500000000000341,
            "durationTicks": 240,
            "midi": 52,
            "name": "E3",
            "ticks": 277920,
            "time": 199.83749999999998,
            "velocity": 0.8031496062992126
          },
          {
            "duration": 0.14999999999997726,
            "durationTicks": 240,
            "midi": 55,
            "name": "G3",
            "ticks": 278160,
            "time": 199.9875,
            "velocity": 0.8110236220472441
          },
          {
            "duration": 0.15000000000000568,
            "durationTicks": 240,
            "midi": 57,
            "name": "A3",
            "ticks": 278400,
            "time": 200.1375,
            "velocity": 0.8110236220472441
          },
          {
            "duration": 0.15000000000000568,
            "durationTicks": 240,
            "midi": 61,
            "name": "C#4",
            "ticks": 278640,
            "time": 200.2875,
            "velocity": 0.8346456692913385
          },
          {
            "duration": 0.14999999999997726,
            "durationTicks": 240,
            "midi": 62,
            "name": "D4",
            "ticks": 278880,
            "time": 200.4375,
            "velocity": 0.8031496062992126
          },
          {
            "duration": 0.15250000000003183,
            "durationTicks": 244,
            "midi": 57,
            "name": "A3",
            "ticks": 279120,
            "time": 200.58749999999998,
            "velocity": 0.7322834645669292
          },
          {
            "duration": 0.152499999999975,
            "durationTicks": 244,
            "midi": 54,
            "name": "F#3",
            "ticks": 279360,
            "time": 200.7375,
            "velocity": 0.7480314960629921
          },
          {
            "duration": 0.140625,
            "durationTicks": 225,
            "midi": 52,
            "name": "E3",
            "ticks": 279600,
            "time": 200.8875,
            "velocity": 0.7559055118110236
          },
          {
            "duration": 0.15000000000000568,
            "durationTicks": 240,
            "midi": 50,
            "name": "D3",
            "ticks": 279840,
            "time": 201.0375,
            "velocity": 0.7480314960629921
          },
          {
            "duration": 0.14999999999997726,
            "durationTicks": 240,
            "midi": 53,
            "name": "F3",
            "ticks": 280080,
            "time": 201.1875,
            "velocity": 0.7559055118110236
          },
          {
            "duration": 0.1500000000000341,
            "durationTicks": 240,
            "midi": 55,
            "name": "G3",
            "ticks": 280320,
            "time": 201.33749999999998,
            "velocity": 0.7874015748031497
          },
          {
            "duration": 0.14999999999997726,
            "durationTicks": 240,
            "midi": 59,
            "name": "B3",
            "ticks": 280560,
            "time": 201.4875,
            "velocity": 0.8188976377952756
          },
          {
            "duration": 0.15000000000000568,
            "durationTicks": 240,
            "midi": 60,
            "name": "C4",
            "ticks": 280800,
            "time": 201.6375,
            "velocity": 0.8110236220472441
          },
          {
            "duration": 0.1525000000000034,
            "durationTicks": 244,
            "midi": 55,
            "name": "G3",
            "ticks": 281040,
            "time": 201.7875,
            "velocity": 0.7559055118110236
          },
          {
            "duration": 0.152499999999975,
            "durationTicks": 244,
            "midi": 52,
            "name": "E3",
            "ticks": 281280,
            "time": 201.9375,
            "velocity": 0.7244094488188977
          },
          {
            "duration": 0.140625,
            "durationTicks": 225,
            "midi": 50,
            "name": "D3",
            "ticks": 281520,
            "time": 202.08749999999998,
            "velocity": 0.7716535433070866
          },
          {
            "duration": 0.14999999999997726,
            "durationTicks": 240,
            "midi": 48,
            "name": "C3",
            "ticks": 281760,
            "time": 202.2375,
            "velocity": 0.7165354330708661
          },
          {
            "duration": 0.15000000000000568,
            "durationTicks": 240,
            "midi": 52,
            "name": "E3",
            "ticks": 282000,
            "time": 202.3875,
            "velocity": 0.8110236220472441
          },
          {
            "duration": 0.15000000000000568,
            "durationTicks": 240,
            "midi": 57,
            "name": "A3",
            "ticks": 282240,
            "time": 202.5375,
            "velocity": 0.7716535433070866
          },
          {
            "duration": 0.14999999999997726,
            "durationTicks": 240,
            "midi": 60,
            "name": "C4",
            "ticks": 282480,
            "time": 202.6875,
            "velocity": 0.8661417322834646
          },
          {
            "duration": 0.1500000000000341,
            "durationTicks": 240,
            "midi": 54,
            "name": "F#3",
            "ticks": 282720,
            "time": 202.83749999999998,
            "velocity": 0.7007874015748031
          },
          {
            "duration": 0.14999999999997726,
            "durationTicks": 240,
            "midi": 57,
            "name": "A3",
            "ticks": 282960,
            "time": 202.9875,
            "velocity": 0.7637795275590551
          },
          {
            "duration": 0.15000000000000568,
            "durationTicks": 240,
            "midi": 60,
            "name": "C4",
            "ticks": 283200,
            "time": 203.1375,
            "velocity": 0.8110236220472441
          },
          {
            "duration": 0.15000000000000568,
            "durationTicks": 240,
            "midi": 64,
            "name": "E4",
            "ticks": 283440,
            "time": 203.2875,
            "velocity": 0.889763779527559
          },
          {
            "duration": 0.44999999999998863,
            "durationTicks": 720,
            "midi": 62,
            "name": "D4",
            "ticks": 283680,
            "time": 203.4375,
            "velocity": 0.7165354330708661
          },
          {
            "duration": 0.15000000000000568,
            "durationTicks": 240,
            "midi": 48,
            "name": "C3",
            "ticks": 284400,
            "time": 203.8875,
            "velocity": 0.6692913385826772
          },
          {
            "duration": 0.15000000000000568,
            "durationTicks": 240,
            "midi": 47,
            "name": "B2",
            "ticks": 284640,
            "time": 204.0375,
            "velocity": 0.7244094488188977
          },
          {
            "duration": 0.14999999999997726,
            "durationTicks": 240,
            "midi": 55,
            "name": "G3",
            "ticks": 284880,
            "time": 204.1875,
            "velocity": 0.84251968503937
          },
          {
            "duration": 0.1500000000000341,
            "durationTicks": 240,
            "midi": 45,
            "name": "A2",
            "ticks": 285120,
            "time": 204.33749999999998,
            "velocity": 0.6771653543307087
          },
          {
            "duration": 0.14999999999997726,
            "durationTicks": 240,
            "midi": 43,
            "name": "G2",
            "ticks": 285360,
            "time": 204.4875,
            "velocity": 0.7637795275590551
          },
          {
            "duration": 0.15000000000000568,
            "durationTicks": 240,
            "midi": 38,
            "name": "D2",
            "ticks": 285600,
            "time": 204.6375,
            "velocity": 0.7086614173228346
          },
          {
            "duration": 0.15000000000000568,
            "durationTicks": 240,
            "midi": 45,
            "name": "A2",
            "ticks": 285840,
            "time": 204.7875,
            "velocity": 0.84251968503937
          },
          {
            "duration": 0.14999999999997726,
            "durationTicks": 240,
            "midi": 55,
            "name": "G3",
            "ticks": 286080,
            "time": 204.9375,
            "velocity": 0.889763779527559
          },
          {
            "duration": 0.1500000000000341,
            "durationTicks": 240,
            "midi": 54,
            "name": "F#3",
            "ticks": 286320,
            "time": 205.08749999999998,
            "velocity": 0.7795275590551181
          },
          {
            "duration": 0.14999999999997726,
            "durationTicks": 240,
            "midi": 55,
            "name": "G3",
            "ticks": 286560,
            "time": 205.2375,
            "velocity": 0.7874015748031497
          },
          {
            "duration": 0.15000000000000568,
            "durationTicks": 240,
            "midi": 43,
            "name": "G2",
            "ticks": 286800,
            "time": 205.3875,
            "velocity": 0.6614173228346457
          },
          {
            "duration": 0.15000000000000568,
            "durationTicks": 240,
            "midi": 47,
            "name": "B2",
            "ticks": 287040,
            "time": 205.5375,
            "velocity": 0.7637795275590551
          },
          {
            "duration": 0.14999999999997726,
            "durationTicks": 240,
            "midi": 50,
            "name": "D3",
            "ticks": 287280,
            "time": 205.6875,
            "velocity": 0.7952755905511811
          },
          {
            "duration": 0.1500000000000341,
            "durationTicks": 240,
            "midi": 55,
            "name": "G3",
            "ticks": 287520,
            "time": 205.83749999999998,
            "velocity": 0.8188976377952756
          },
          {
            "duration": 0.14999999999997726,
            "durationTicks": 240,
            "midi": 59,
            "name": "B3",
            "ticks": 287760,
            "time": 205.9875,
            "velocity": 0.8267716535433071
          },
          {
            "duration": 0.15000000000000568,
            "durationTicks": 240,
            "midi": 62,
            "name": "D4",
            "ticks": 288000,
            "time": 206.1375,
            "velocity": 0.84251968503937
          },
          {
            "duration": 0.15000000000000568,
            "durationTicks": 240,
            "midi": 66,
            "name": "F#4",
            "ticks": 288240,
            "time": 206.2875,
            "velocity": 0.8661417322834646
          },
          {
            "duration": 0.14999999999997726,
            "durationTicks": 240,
            "midi": 67,
            "name": "G4",
            "ticks": 288480,
            "time": 206.4375,
            "velocity": 0.8267716535433071
          },
          {
            "duration": 0.1500000000000341,
            "durationTicks": 240,
            "midi": 62,
            "name": "D4",
            "ticks": 288720,
            "time": 206.58749999999998,
            "velocity": 0.7244094488188977
          },
          {
            "duration": 0.14999999999997726,
            "durationTicks": 240,
            "midi": 59,
            "name": "B3",
            "ticks": 288960,
            "time": 206.7375,
            "velocity": 0.7480314960629921
          },
          {
            "duration": 0.15000000000000568,
            "durationTicks": 240,
            "midi": 55,
            "name": "G3",
            "ticks": 289200,
            "time": 206.8875,
            "velocity": 0.6929133858267716
          },
          {
            "duration": 0.45000000000001705,
            "durationTicks": 720,
            "midi": 43,
            "name": "G2",
            "ticks": 289440,
            "time": 207.0375,
            "velocity": 0.6535433070866141
          },
          {
            "duration": 0.375,
            "durationTicks": 480,
            "midi": 55,
            "name": "G3",
            "ticks": 294240,
            "time": 210.0375,
            "velocity": 0.7007874015748031
          },
          {
            "duration": 0.375,
            "durationTicks": 480,
            "midi": 55,
            "name": "G3",
            "ticks": 294720,
            "time": 210.4125,
            "velocity": 0.7559055118110236
          },
          {
            "duration": 0.375,
            "durationTicks": 480,
            "midi": 50,
            "name": "D3",
            "ticks": 295200,
            "time": 210.7875,
            "velocity": 0.7086614173228346
          },
          {
            "duration": 0.375,
            "durationTicks": 480,
            "midi": 43,
            "name": "G2",
            "ticks": 295680,
            "time": 211.1625,
            "velocity": 0.7086614173228346
          },
          {
            "duration": 0.19062500000001137,
            "durationTicks": 244,
            "midi": 59,
            "name": "B3",
            "ticks": 296160,
            "time": 211.5375,
            "velocity": 0.84251968503937
          },
          {
            "duration": 0.19062500000001137,
            "durationTicks": 244,
            "midi": 60,
            "name": "C4",
            "ticks": 296400,
            "time": 211.725,
            "velocity": 0.8740157480314961
          },
          {
            "duration": 0.19062500000001137,
            "durationTicks": 244,
            "midi": 62,
            "name": "D4",
            "ticks": 296640,
            "time": 211.9125,
            "velocity": 0.8188976377952756
          },
          {
            "duration": 0.19062500000001137,
            "durationTicks": 244,
            "midi": 60,
            "name": "C4",
            "ticks": 296880,
            "time": 212.1,
            "velocity": 0.7165354330708661
          },
          {
            "duration": 0.19062500000001137,
            "durationTicks": 244,
            "midi": 59,
            "name": "B3",
            "ticks": 297120,
            "time": 212.2875,
            "velocity": 0.7559055118110236
          },
          {
            "duration": 0.17578125,
            "durationTicks": 225,
            "midi": 57,
            "name": "A3",
            "ticks": 297360,
            "time": 212.475,
            "velocity": 0.7716535433070866
          },
          {
            "duration": 0.375,
            "durationTicks": 480,
            "midi": 59,
            "name": "B3",
            "ticks": 297600,
            "time": 212.6625,
            "velocity": 0.8110236220472441
          },
          {
            "duration": 0.375,
            "durationTicks": 480,
            "midi": 50,
            "name": "D3",
            "ticks": 298080,
            "time": 213.0375,
            "velocity": 0.6929133858267716
          },
          {
            "duration": 0.375,
            "durationTicks": 480,
            "midi": 43,
            "name": "G2",
            "ticks": 298560,
            "time": 213.4125,
            "velocity": 0.7086614173228346
          },
          {
            "duration": 0.19062500000001137,
            "durationTicks": 244,
            "midi": 55,
            "name": "G3",
            "ticks": 299040,
            "time": 213.7875,
            "velocity": 0.8818897637795275
          },
          {
            "duration": 0.17578125,
            "durationTicks": 225,
            "midi": 57,
            "name": "A3",
            "ticks": 299280,
            "time": 213.975,
            "velocity": 0.8031496062992126
          },
          {
            "duration": 0.375,
            "durationTicks": 480,
            "midi": 59,
            "name": "B3",
            "ticks": 299520,
            "time": 214.1625,
            "velocity": 0.7952755905511811
          },
          {
            "duration": 0.375,
            "durationTicks": 480,
            "midi": 55,
            "name": "G3",
            "ticks": 300000,
            "time": 214.5375,
            "velocity": 0.7165354330708661
          },
          {
            "duration": 0.375,
            "durationTicks": 480,
            "midi": 52,
            "name": "E3",
            "ticks": 300480,
            "time": 214.9125,
            "velocity": 0.7007874015748031
          },
          {
            "duration": 0.375,
            "durationTicks": 480,
            "midi": 48,
            "name": "C3",
            "ticks": 300960,
            "time": 215.2875,
            "velocity": 0.6929133858267716
          },
          {
            "duration": 0.375,
            "durationTicks": 480,
            "midi": 36,
            "name": "C2",
            "ticks": 301440,
            "time": 215.6625,
            "velocity": 0.7244094488188977
          },
          {
            "duration": 0.19062500000001137,
            "durationTicks": 244,
            "midi": 57,
            "name": "A3",
            "ticks": 301920,
            "time": 216.0375,
            "velocity": 0.8661417322834646
          },
          {
            "duration": 0.19062500000001137,
            "durationTicks": 244,
            "midi": 59,
            "name": "B3",
            "ticks": 302160,
            "time": 216.225,
            "velocity": 0.7874015748031497
          },
          {
            "duration": 0.19062500000001137,
            "durationTicks": 244,
            "midi": 60,
            "name": "C4",
            "ticks": 302400,
            "time": 216.4125,
            "velocity": 0.8267716535433071
          },
          {
            "duration": 0.19062500000001137,
            "durationTicks": 244,
            "midi": 59,
            "name": "B3",
            "ticks": 302640,
            "time": 216.6,
            "velocity": 0.7322834645669292
          },
          {
            "duration": 0.19062500000001137,
            "durationTicks": 244,
            "midi": 57,
            "name": "A3",
            "ticks": 302880,
            "time": 216.7875,
            "velocity": 0.7401574803149606
          },
          {
            "duration": 0.17578125,
            "durationTicks": 225,
            "midi": 55,
            "name": "G3",
            "ticks": 303120,
            "time": 216.975,
            "velocity": 0.7637795275590551
          },
          {
            "duration": 0.375,
            "durationTicks": 480,
            "midi": 54,
            "name": "F#3",
            "ticks": 303360,
            "time": 217.1625,
            "velocity": 0.7559055118110236
          },
          {
            "duration": 0.375,
            "durationTicks": 480,
            "midi": 50,
            "name": "D3",
            "ticks": 303840,
            "time": 217.5375,
            "velocity": 0.7559055118110236
          },
          {
            "duration": 0.375,
            "durationTicks": 480,
            "midi": 38,
            "name": "D2",
            "ticks": 304320,
            "time": 217.9125,
            "velocity": 0.6377952755905512
          },
          {
            "duration": 0.19062500000001137,
            "durationTicks": 244,
            "midi": 50,
            "name": "D3",
            "ticks": 304800,
            "time": 218.2875,
            "velocity": 0.8661417322834646
          },
          {
            "duration": 0.19062500000001137,
            "durationTicks": 244,
            "midi": 52,
            "name": "E3",
            "ticks": 305040,
            "time": 218.475,
            "velocity": 0.84251968503937
          },
          {
            "duration": 0.19062500000001137,
            "durationTicks": 244,
            "midi": 54,
            "name": "F#3",
            "ticks": 305280,
            "time": 218.6625,
            "velocity": 0.7952755905511811
          },
          {
            "duration": 0.19062500000001137,
            "durationTicks": 244,
            "midi": 55,
            "name": "G3",
            "ticks": 305520,
            "time": 218.85,
            "velocity": 0.7716535433070866
          },
          {
            "duration": 0.19062500000001137,
            "durationTicks": 244,
            "midi": 57,
            "name": "A3",
            "ticks": 305760,
            "time": 219.0375,
            "velocity": 0.7952755905511811
          },
          {
            "duration": 0.17578125,
            "durationTicks": 225,
            "midi": 59,
            "name": "B3",
            "ticks": 306000,
            "time": 219.225,
            "velocity": 0.7952755905511811
          },
          {
            "duration": 0.19062500000001137,
            "durationTicks": 244,
            "midi": 60,
            "name": "C4",
            "ticks": 306240,
            "time": 219.4125,
            "velocity": 0.7874015748031497
          },
          {
            "duration": 0.19062500000001137,
            "durationTicks": 244,
            "midi": 59,
            "name": "B3",
            "ticks": 306480,
            "time": 219.6,
            "velocity": 0.7244094488188977
          },
          {
            "duration": 0.17578125,
            "durationTicks": 225,
            "midi": 60,
            "name": "C4",
            "ticks": 306720,
            "time": 219.7875,
            "velocity": 0.8110236220472441
          },
          {
            "duration": 0.1875,
            "durationTicks": 240,
            "midi": 57,
            "name": "A3",
            "ticks": 306960,
            "time": 219.975,
            "velocity": 0.7716535433070866
          },
          {
            "duration": 0.19062500000001137,
            "durationTicks": 244,
            "midi": 60,
            "name": "C4",
            "ticks": 307200,
            "time": 220.1625,
            "velocity": 0.8188976377952756
          },
          {
            "duration": 0.19062500000001137,
            "durationTicks": 244,
            "midi": 59,
            "name": "B3",
            "ticks": 307440,
            "time": 220.35,
            "velocity": 0.7401574803149606
          },
          {
            "duration": 0.17578125,
            "durationTicks": 225,
            "midi": 60,
            "name": "C4",
            "ticks": 307680,
            "time": 220.5375,
            "velocity": 0.8031496062992126
          },
          {
            "duration": 0.1875,
            "durationTicks": 240,
            "midi": 57,
            "name": "A3",
            "ticks": 307920,
            "time": 220.725,
            "velocity": 0.7165354330708661
          },
          {
            "duration": 0.1875,
            "durationTicks": 240,
            "midi": 50,
            "name": "D3",
            "ticks": 308160,
            "time": 220.9125,
            "velocity": 0.7086614173228346
          },
          {
            "duration": 0.1875,
            "durationTicks": 240,
            "midi": 60,
            "name": "C4",
            "ticks": 308400,
            "time": 221.1,
            "velocity": 0.9448818897637795
          },
          {
            "duration": 0.1875,
            "durationTicks": 240,
            "midi": 59,
            "name": "B3",
            "ticks": 308640,
            "time": 221.2875,
            "velocity": 0.7874015748031497
          },
          {
            "duration": 0.1875,
            "durationTicks": 240,
            "midi": 57,
            "name": "A3",
            "ticks": 308880,
            "time": 221.475,
            "velocity": 0.7165354330708661
          },
          {
            "duration": 0.19062500000001137,
            "durationTicks": 244,
            "midi": 59,
            "name": "B3",
            "ticks": 309120,
            "time": 221.6625,
            "velocity": 0.7795275590551181
          },
          {
            "duration": 0.19062500000001137,
            "durationTicks": 244,
            "midi": 57,
            "name": "A3",
            "ticks": 309360,
            "time": 221.85,
            "velocity": 0.7322834645669292
          },
          {
            "duration": 0.17578125,
            "durationTicks": 225,
            "midi": 59,
            "name": "B3",
            "ticks": 309600,
            "time": 222.0375,
            "velocity": 0.8188976377952756
          },
          {
            "duration": 0.1875,
            "durationTicks": 240,
            "midi": 55,
            "name": "G3",
            "ticks": 309840,
            "time": 222.225,
            "velocity": 0.7480314960629921
          },
          {
            "duration": 0.19062500000001137,
            "durationTicks": 244,
            "midi": 59,
            "name": "B3",
            "ticks": 310080,
            "time": 222.4125,
            "velocity": 0.8031496062992126
          },
          {
            "duration": 0.19062500000001137,
            "durationTicks": 244,
            "midi": 57,
            "name": "A3",
            "ticks": 310320,
            "time": 222.6,
            "velocity": 0.7559055118110236
          },
          {
            "duration": 0.17578125,
            "durationTicks": 225,
            "midi": 59,
            "name": "B3",
            "ticks": 310560,
            "time": 222.7875,
            "velocity": 0.8031496062992126
          },
          {
            "duration": 0.1875,
            "durationTicks": 240,
            "midi": 55,
            "name": "G3",
            "ticks": 310800,
            "time": 222.975,
            "velocity": 0.7086614173228346
          },
          {
            "duration": 0.1875,
            "durationTicks": 240,
            "midi": 48,
            "name": "C3",
            "ticks": 311040,
            "time": 223.1625,
            "velocity": 0.7244094488188977
          },
          {
            "duration": 0.1875,
            "durationTicks": 240,
            "midi": 59,
            "name": "B3",
            "ticks": 311280,
            "time": 223.35,
            "velocity": 0.8582677165354331
          },
          {
            "duration": 0.1875,
            "durationTicks": 240,
            "midi": 57,
            "name": "A3",
            "ticks": 311520,
            "time": 223.5375,
            "velocity": 0.7795275590551181
          },
          {
            "duration": 0.1875,
            "durationTicks": 240,
            "midi": 55,
            "name": "G3",
            "ticks": 311760,
            "time": 223.725,
            "velocity": 0.7795275590551181
          },
          {
            "duration": 0.1875,
            "durationTicks": 240,
            "midi": 54,
            "name": "F#3",
            "ticks": 312000,
            "time": 223.9125,
            "velocity": 0.7637795275590551
          },
          {
            "duration": 0.1875,
            "durationTicks": 240,
            "midi": 57,
            "name": "A3",
            "ticks": 312240,
            "time": 224.1,
            "velocity": 0.8031496062992126
          },
          {
            "duration": 0.1875,
            "durationTicks": 240,
            "midi": 62,
            "name": "D4",
            "ticks": 312480,
            "time": 224.2875,
            "velocity": 0.8661417322834646
          },
          {
            "duration": 0.1875,
            "durationTicks": 240,
            "midi": 50,
            "name": "D3",
            "ticks": 312720,
            "time": 224.475,
            "velocity": 0.7165354330708661
          },
          {
            "duration": 0.375,
            "durationTicks": 480,
            "midi": 55,
            "name": "G3",
            "ticks": 312960,
            "time": 224.6625,
            "velocity": 0.7874015748031497
          },
          {
            "duration": 0.375,
            "durationTicks": 480,
            "midi": 47,
            "name": "B2",
            "ticks": 313440,
            "time": 225.0375,
            "velocity": 0.7165354330708661
          },
          {
            "duration": 0.375,
            "durationTicks": 480,
            "midi": 38,
            "name": "D2",
            "ticks": 313920,
            "time": 225.4125,
            "velocity": 0.6929133858267716
          },
          {
            "duration": 0.375,
            "durationTicks": 480,
            "midi": 54,
            "name": "F#3",
            "ticks": 314400,
            "time": 225.7875,
            "velocity": 0.8818897637795275
          },
          {
            "duration": 1.125,
            "durationTicks": 1440,
            "midi": 43,
            "name": "G2",
            "ticks": 314880,
            "time": 226.1625,
            "velocity": 0.8110236220472441
          },
          {
            "duration": 1.125,
            "durationTicks": 1440,
            "midi": 55,
            "name": "G3",
            "ticks": 314880,
            "time": 226.1625,
            "velocity": 0.8110236220472441
          },
          {
            "duration": 0.19062500000001137,
            "durationTicks": 244,
            "midi": 59,
            "name": "B3",
            "ticks": 316320,
            "time": 227.2875,
            "velocity": 0.8267716535433071
          },
          {
            "duration": 0.19062500000001137,
            "durationTicks": 244,
            "midi": 57,
            "name": "A3",
            "ticks": 316560,
            "time": 227.475,
            "velocity": 0.7322834645669292
          },
          {
            "duration": 0.19062500000001137,
            "durationTicks": 244,
            "midi": 55,
            "name": "G3",
            "ticks": 316800,
            "time": 227.6625,
            "velocity": 0.7480314960629921
          },
          {
            "duration": 0.19062500000001137,
            "durationTicks": 244,
            "midi": 54,
            "name": "F#3",
            "ticks": 317040,
            "time": 227.85,
            "velocity": 0.7244094488188977
          },
          {
            "duration": 0.19062500000001137,
            "durationTicks": 244,
            "midi": 52,
            "name": "E3",
            "ticks": 317280,
            "time": 228.0375,
            "velocity": 0.7637795275590551
          },
          {
            "duration": 0.17578125,
            "durationTicks": 225,
            "midi": 50,
            "name": "D3",
            "ticks": 317520,
            "time": 228.225,
            "velocity": 0.7559055118110236
          },
          {
            "duration": 0.375,
            "durationTicks": 480,
            "midi": 64,
            "name": "E4",
            "ticks": 317760,
            "time": 228.4125,
            "velocity": 0.9606299212598425
          },
          {
            "duration": 0.375,
            "durationTicks": 480,
            "midi": 61,
            "name": "C#4",
            "ticks": 318240,
            "time": 228.7875,
            "velocity": 0.7322834645669292
          },
          {
            "duration": 0.375,
            "durationTicks": 480,
            "midi": 57,
            "name": "A3",
            "ticks": 318720,
            "time": 229.1625,
            "velocity": 0.7007874015748031
          },
          {
            "duration": 0.19062500000001137,
            "durationTicks": 244,
            "midi": 59,
            "name": "B3",
            "ticks": 319200,
            "time": 229.5375,
            "velocity": 0.7716535433070866
          },
          {
            "duration": 0.17578125,
            "durationTicks": 225,
            "midi": 61,
            "name": "C#4",
            "ticks": 319440,
            "time": 229.725,
            "velocity": 0.8346456692913385
          },
          {
            "duration": 0.1875,
            "durationTicks": 240,
            "midi": 62,
            "name": "D4",
            "ticks": 319680,
            "time": 229.9125,
            "velocity": 0.7874015748031497
          },
          {
            "duration": 0.19062500000001137,
            "durationTicks": 244,
            "midi": 54,
            "name": "F#3",
            "ticks": 319920,
            "time": 230.1,
            "velocity": 0.6850393700787402
          },
          {
            "duration": 0.19062500000001137,
            "durationTicks": 244,
            "midi": 52,
            "name": "E3",
            "ticks": 320160,
            "time": 230.2875,
            "velocity": 0.7165354330708661
          },
          {
            "duration": 0.17578125,
            "durationTicks": 225,
            "midi": 50,
            "name": "D3",
            "ticks": 320400,
            "time": 230.475,
            "velocity": 0.7086614173228346
          },
          {
            "duration": 0.375,
            "durationTicks": 480,
            "midi": 45,
            "name": "A2",
            "ticks": 320640,
            "time": 230.6625,
            "velocity": 0.7165354330708661
          },
          {
            "duration": 0.375,
            "durationTicks": 480,
            "midi": 62,
            "name": "D4",
            "ticks": 321120,
            "time": 231.0375,
            "velocity": 0.968503937007874
          },
          {
            "duration": 0.0703125,
            "durationTicks": 90,
            "midi": 61,
            "name": "C#4",
            "ticks": 321600,
            "time": 231.4125,
            "velocity": 0.7716535433070866
          },
          {
            "duration": 0.06484374999999432,
            "durationTicks": 83,
            "midi": 62,
            "name": "D4",
            "ticks": 321705,
            "time": 231.49453125,
            "velocity": 0.7716535433070866
          },
          {
            "duration": 0.05859375,
            "durationTicks": 75,
            "midi": 61,
            "name": "C#4",
            "ticks": 321803,
            "time": 231.57109375,
            "velocity": 0.7716535433070866
          },
          {
            "duration": 0.05859375,
            "durationTicks": 75,
            "midi": 62,
            "name": "D4",
            "ticks": 321900,
            "time": 231.646875,
            "velocity": 0.7716535433070866
          },
          {
            "duration": 0.05546874999998863,
            "durationTicks": 71,
            "midi": 61,
            "name": "C#4",
            "ticks": 322005,
            "time": 231.72890625,
            "velocity": 0.7716535433070866
          },
          {
            "duration": 0.19062500000001137,
            "durationTicks": 244,
            "midi": 59,
            "name": "B3",
            "ticks": 322080,
            "time": 231.7875,
            "velocity": 0.7559055118110236
          },
          {
            "duration": 0.17578125,
            "durationTicks": 225,
            "midi": 57,
            "name": "A3",
            "ticks": 322320,
            "time": 231.975,
            "velocity": 0.7480314960629921
          },
          {
            "duration": 0.1875,
            "durationTicks": 240,
            "midi": 62,
            "name": "D4",
            "ticks": 322560,
            "time": 232.1625,
            "velocity": 0.937007874015748
          },
          {
            "duration": 0.1875,
            "durationTicks": 240,
            "midi": 57,
            "name": "A3",
            "ticks": 322800,
            "time": 232.35,
            "velocity": 0.7480314960629921
          },
          {
            "duration": 0.1875,
            "durationTicks": 240,
            "midi": 59,
            "name": "B3",
            "ticks": 323040,
            "time": 232.5375,
            "velocity": 0.7716535433070866
          },
          {
            "duration": 0.1875,
            "durationTicks": 240,
            "midi": 54,
            "name": "F#3",
            "ticks": 323280,
            "time": 232.725,
            "velocity": 0.7244094488188977
          },
          {
            "duration": 0.19062500000001137,
            "durationTicks": 244,
            "midi": 55,
            "name": "G3",
            "ticks": 323520,
            "time": 232.9125,
            "velocity": 0.8031496062992126
          },
          {
            "duration": 0.19062500000001137,
            "durationTicks": 244,
            "midi": 54,
            "name": "F#3",
            "ticks": 323760,
            "time": 233.1,
            "velocity": 0.7322834645669292
          },
          {
            "duration": 0.17578125,
            "durationTicks": 225,
            "midi": 55,
            "name": "G3",
            "ticks": 324000,
            "time": 233.2875,
            "velocity": 0.7952755905511811
          },
          {
            "duration": 0.1875,
            "durationTicks": 240,
            "midi": 52,
            "name": "E3",
            "ticks": 324240,
            "time": 233.475,
            "velocity": 0.7086614173228346
          },
          {
            "duration": 0.19062500000001137,
            "durationTicks": 244,
            "midi": 55,
            "name": "G3",
            "ticks": 324480,
            "time": 233.6625,
            "velocity": 0.7874015748031497
          },
          {
            "duration": 0.19062500000001137,
            "durationTicks": 244,
            "midi": 54,
            "name": "F#3",
            "ticks": 324720,
            "time": 233.85,
            "velocity": 0.7637795275590551
          },
          {
            "duration": 0.17578125,
            "durationTicks": 225,
            "midi": 55,
            "name": "G3",
            "ticks": 324960,
            "time": 234.0375,
            "velocity": 0.7795275590551181
          },
          {
            "duration": 0.1875,
            "durationTicks": 240,
            "midi": 52,
            "name": "E3",
            "ticks": 325200,
            "time": 234.225,
            "velocity": 0.7559055118110236
          },
          {
            "duration": 0.1875,
            "durationTicks": 240,
            "midi": 45,
            "name": "A2",
            "ticks": 325440,
            "time": 234.4125,
            "velocity": 0.7007874015748031
          },
          {
            "duration": 0.1875,
            "durationTicks": 240,
            "midi": 55,
            "name": "G3",
            "ticks": 325680,
            "time": 234.6,
            "velocity": 0.8188976377952756
          },
          {
            "duration": 0.1875,
            "durationTicks": 240,
            "midi": 54,
            "name": "F#3",
            "ticks": 325920,
            "time": 234.7875,
            "velocity": 0.7480314960629921
          },
          {
            "duration": 0.1875,
            "durationTicks": 240,
            "midi": 52,
            "name": "E3",
            "ticks": 326160,
            "time": 234.975,
            "velocity": 0.7401574803149606
          },
          {
            "duration": 0.19062500000001137,
            "durationTicks": 244,
            "midi": 54,
            "name": "F#3",
            "ticks": 326400,
            "time": 235.1625,
            "velocity": 0.7952755905511811
          },
          {
            "duration": 0.19062500000001137,
            "durationTicks": 244,
            "midi": 52,
            "name": "E3",
            "ticks": 326640,
            "time": 235.35,
            "velocity": 0.7480314960629921
          },
          {
            "duration": 0.17578125,
            "durationTicks": 225,
            "midi": 54,
            "name": "F#3",
            "ticks": 326880,
            "time": 235.5375,
            "velocity": 0.8110236220472441
          },
          {
            "duration": 0.1875,
            "durationTicks": 240,
            "midi": 50,
            "name": "D3",
            "ticks": 327120,
            "time": 235.725,
            "velocity": 0.7322834645669292
          },
          {
            "duration": 0.19062500000001137,
            "durationTicks": 244,
            "midi": 54,
            "name": "F#3",
            "ticks": 327360,
            "time": 235.9125,
            "velocity": 0.7952755905511811
          },
          {
            "duration": 0.19062500000001137,
            "durationTicks": 244,
            "midi": 52,
            "name": "E3",
            "ticks": 327600,
            "time": 236.1,
            "velocity": 0.7952755905511811
          },
          {
            "duration": 0.17578125,
            "durationTicks": 225,
            "midi": 54,
            "name": "F#3",
            "ticks": 327840,
            "time": 236.2875,
            "velocity": 0.7795275590551181
          },
          {
            "duration": 0.1875,
            "durationTicks": 240,
            "midi": 50,
            "name": "D3",
            "ticks": 328080,
            "time": 236.475,
            "velocity": 0.7401574803149606
          },
          {
            "duration": 0.1875,
            "durationTicks": 240,
            "midi": 43,
            "name": "G2",
            "ticks": 328320,
            "time": 236.6625,
            "velocity": 0.7086614173228346
          },
          {
            "duration": 0.1875,
            "durationTicks": 240,
            "midi": 54,
            "name": "F#3",
            "ticks": 328560,
            "time": 236.85,
            "velocity": 0.8110236220472441
          },
          {
            "duration": 0.1875,
            "durationTicks": 240,
            "midi": 52,
            "name": "E3",
            "ticks": 328800,
            "time": 237.0375,
            "velocity": 0.7401574803149606
          },
          {
            "duration": 0.1875,
            "durationTicks": 240,
            "midi": 50,
            "name": "D3",
            "ticks": 329040,
            "time": 237.225,
            "velocity": 0.7480314960629921
          },
          {
            "duration": 0.19062500000001137,
            "durationTicks": 244,
            "midi": 62,
            "name": "D4",
            "ticks": 329280,
            "time": 237.4125,
            "velocity": 0.9763779527559056
          },
          {
            "duration": 0.19062500000001137,
            "durationTicks": 244,
            "midi": 61,
            "name": "C#4",
            "ticks": 329520,
            "time": 237.6,
            "velocity": 0.7952755905511811
          },
          {
            "duration": 0.17578125,
            "durationTicks": 225,
            "midi": 59,
            "name": "B3",
            "ticks": 329760,
            "time": 237.7875,
            "velocity": 0.7716535433070866
          },
          {
            "duration": 0.1875,
            "durationTicks": 240,
            "midi": 57,
            "name": "A3",
            "ticks": 330000,
            "time": 237.975,
            "velocity": 0.7637795275590551
          },
          {
            "duration": 0.375,
            "durationTicks": 480,
            "midi": 62,
            "name": "D4",
            "ticks": 330240,
            "time": 238.1625,
            "velocity": 0.8818897637795275
          },
          {
            "duration": 0.19062500000001137,
            "durationTicks": 244,
            "midi": 61,
            "name": "C#4",
            "ticks": 330720,
            "time": 238.5375,
            "velocity": 0.7480314960629921
          },
          {
            "duration": 0.19062500000001137,
            "durationTicks": 244,
            "midi": 59,
            "name": "B3",
            "ticks": 330960,
            "time": 238.725,
            "velocity": 0.7322834645669292
          },
          {
            "duration": 0.19062500000001137,
            "durationTicks": 244,
            "midi": 57,
            "name": "A3",
            "ticks": 331200,
            "time": 238.9125,
            "velocity": 0.7716535433070866
          },
          {
            "duration": 0.19062500000001137,
            "durationTicks": 244,
            "midi": 55,
            "name": "G3",
            "ticks": 331440,
            "time": 239.1,
            "velocity": 0.7244094488188977
          },
          {
            "duration": 0.19062500000001137,
            "durationTicks": 244,
            "midi": 54,
            "name": "F#3",
            "ticks": 331680,
            "time": 239.2875,
            "velocity": 0.7401574803149606
          },
          {
            "duration": 0.17578125,
            "durationTicks": 225,
            "midi": 52,
            "name": "E3",
            "ticks": 331920,
            "time": 239.475,
            "velocity": 0.7401574803149606
          },
          {
            "duration": 0.19062500000001137,
            "durationTicks": 244,
            "midi": 50,
            "name": "D3",
            "ticks": 332160,
            "time": 239.6625,
            "velocity": 0.7322834645669292
          },
          {
            "duration": 0.19062500000001137,
            "durationTicks": 244,
            "midi": 52,
            "name": "E3",
            "ticks": 332400,
            "time": 239.85,
            "velocity": 0.8110236220472441
          },
          {
            "duration": 0.17578125,
            "durationTicks": 225,
            "midi": 50,
            "name": "D3",
            "ticks": 332640,
            "time": 240.0375,
            "velocity": 0.7480314960629921
          },
          {
            "duration": 0.1875,
            "durationTicks": 240,
            "midi": 54,
            "name": "F#3",
            "ticks": 332880,
            "time": 240.225,
            "velocity": 0.84251968503937
          },
          {
            "duration": 0.19062500000001137,
            "durationTicks": 244,
            "midi": 50,
            "name": "D3",
            "ticks": 333120,
            "time": 240.4125,
            "velocity": 0.7322834645669292
          },
          {
            "duration": 0.19062500000001137,
            "durationTicks": 244,
            "midi": 52,
            "name": "E3",
            "ticks": 333360,
            "time": 240.6,
            "velocity": 0.7637795275590551
          },
          {
            "duration": 0.17578125,
            "durationTicks": 225,
            "midi": 50,
            "name": "D3",
            "ticks": 333600,
            "time": 240.7875,
            "velocity": 0.7874015748031497
          },
          {
            "duration": 0.1875,
            "durationTicks": 240,
            "midi": 55,
            "name": "G3",
            "ticks": 333840,
            "time": 240.975,
            "velocity": 0.8267716535433071
          },
          {
            "duration": 0.19062500000001137,
            "durationTicks": 244,
            "midi": 50,
            "name": "D3",
            "ticks": 334080,
            "time": 241.1625,
            "velocity": 0.7244094488188977
          },
          {
            "duration": 0.19062500000001137,
            "durationTicks": 244,
            "midi": 52,
            "name": "E3",
            "ticks": 334320,
            "time": 241.35,
            "velocity": 0.7952755905511811
          },
          {
            "duration": 0.17578125,
            "durationTicks": 225,
            "midi": 50,
            "name": "D3",
            "ticks": 334560,
            "time": 241.5375,
            "velocity": 0.7559055118110236
          },
          {
            "duration": 0.1875,
            "durationTicks": 240,
            "midi": 57,
            "name": "A3",
            "ticks": 334800,
            "time": 241.725,
            "velocity": 0.8503937007874016
          },
          {
            "duration": 0.19062500000001137,
            "durationTicks": 244,
            "midi": 50,
            "name": "D3",
            "ticks": 335040,
            "time": 241.9125,
            "velocity": 0.6614173228346457
          },
          {
            "duration": 0.19062500000001137,
            "durationTicks": 244,
            "midi": 52,
            "name": "E3",
            "ticks": 335280,
            "time": 242.1,
            "velocity": 0.7637795275590551
          },
          {
            "duration": 0.17578125,
            "durationTicks": 225,
            "midi": 50,
            "name": "D3",
            "ticks": 335520,
            "time": 242.2875,
            "velocity": 0.7559055118110236
          },
          {
            "duration": 0.1875,
            "durationTicks": 240,
            "midi": 59,
            "name": "B3",
            "ticks": 335760,
            "time": 242.475,
            "velocity": 0.8582677165354331
          },
          {
            "duration": 0.19062500000001137,
            "durationTicks": 244,
            "midi": 50,
            "name": "D3",
            "ticks": 336000,
            "time": 242.6625,
            "velocity": 0.6929133858267716
          },
          {
            "duration": 0.19062500000001137,
            "durationTicks": 244,
            "midi": 52,
            "name": "E3",
            "ticks": 336240,
            "time": 242.85,
            "velocity": 0.7559055118110236
          },
          {
            "duration": 0.17578125,
            "durationTicks": 225,
            "midi": 50,
            "name": "D3",
            "ticks": 336480,
            "time": 243.0375,
            "velocity": 0.7795275590551181
          },
          {
            "duration": 0.1875,
            "durationTicks": 240,
            "midi": 61,
            "name": "C#4",
            "ticks": 336720,
            "time": 243.225,
            "velocity": 0.968503937007874
          },
          {
            "duration": 0.19062500000001137,
            "durationTicks": 244,
            "midi": 50,
            "name": "D3",
            "ticks": 336960,
            "time": 243.4125,
            "velocity": 0.6850393700787402
          },
          {
            "duration": 0.19062500000001137,
            "durationTicks": 244,
            "midi": 52,
            "name": "E3",
            "ticks": 337200,
            "time": 243.6,
            "velocity": 0.8188976377952756
          },
          {
            "duration": 0.17578125,
            "durationTicks": 225,
            "midi": 50,
            "name": "D3",
            "ticks": 337440,
            "time": 243.7875,
            "velocity": 0.7165354330708661
          },
          {
            "duration": 0.1875,
            "durationTicks": 240,
            "midi": 62,
            "name": "D4",
            "ticks": 337680,
            "time": 243.975,
            "velocity": 0.9921259842519685
          },
          {
            "duration": 0.19062500000001137,
            "durationTicks": 244,
            "midi": 55,
            "name": "G3",
            "ticks": 337920,
            "time": 244.1625,
            "velocity": 0.7637795275590551
          },
          {
            "duration": 0.19062500000001137,
            "durationTicks": 244,
            "midi": 54,
            "name": "F#3",
            "ticks": 338160,
            "time": 244.35,
            "velocity": 0.7716535433070866
          },
          {
            "duration": 0.17578125,
            "durationTicks": 225,
            "midi": 52,
            "name": "E3",
            "ticks": 338400,
            "time": 244.5375,
            "velocity": 0.7952755905511811
          },
          {
            "duration": 0.1875,
            "durationTicks": 240,
            "midi": 50,
            "name": "D3",
            "ticks": 338640,
            "time": 244.725,
            "velocity": 0.7716535433070866
          },
          {
            "duration": 0.1875,
            "durationTicks": 240,
            "midi": 49,
            "name": "C#3",
            "ticks": 338880,
            "time": 244.9125,
            "velocity": 0.7244094488188977
          },
          {
            "duration": 0.1875,
            "durationTicks": 240,
            "midi": 47,
            "name": "B2",
            "ticks": 339120,
            "time": 245.1,
            "velocity": 0.7480314960629921
          },
          {
            "duration": 0.1875,
            "durationTicks": 240,
            "midi": 45,
            "name": "A2",
            "ticks": 339360,
            "time": 245.2875,
            "velocity": 0.7480314960629921
          },
          {
            "duration": 0.1875,
            "durationTicks": 240,
            "midi": 55,
            "name": "G3",
            "ticks": 339600,
            "time": 245.475,
            "velocity": 0.8661417322834646
          },
          {
            "duration": 0.0703125,
            "durationTicks": 90,
            "midi": 54,
            "name": "F#3",
            "ticks": 339840,
            "time": 245.6625,
            "velocity": 0.7401574803149606
          },
          {
            "duration": 0.06718749999998863,
            "durationTicks": 86,
            "midi": 55,
            "name": "G3",
            "ticks": 339949,
            "time": 245.74765625,
            "velocity": 0.7401574803149606
          },
          {
            "duration": 0.06171875000001137,
            "durationTicks": 79,
            "midi": 54,
            "name": "F#3",
            "ticks": 340050,
            "time": 245.8265625,
            "velocity": 0.7401574803149606
          },
          {
            "duration": 0.05859375,
            "durationTicks": 75,
            "midi": 55,
            "name": "G3",
            "ticks": 340148,
            "time": 245.903125,
            "velocity": 0.7401574803149606
          },
          {
            "duration": 0.05859375,
            "durationTicks": 75,
            "midi": 54,
            "name": "F#3",
            "ticks": 340241,
            "time": 245.97578124999998,
            "velocity": 0.7401574803149606
          },
          {
            "duration": 0.05859375,
            "durationTicks": 75,
            "midi": 55,
            "name": "G3",
            "ticks": 340339,
            "time": 246.05234375,
            "velocity": 0.7401574803149606
          },
          {
            "duration": 0.06406249999997726,
            "durationTicks": 82,
            "midi": 54,
            "name": "F#3",
            "ticks": 340444,
            "time": 246.134375,
            "velocity": 0.7401574803149606
          },
          {
            "duration": 0.0023437499999943157,
            "durationTicks": 3,
            "midi": 55,
            "name": "G3",
            "ticks": 340553,
            "time": 246.21953125,
            "velocity": 0.7401574803149606
          },
          {
            "duration": 0.1875,
            "durationTicks": 240,
            "midi": 52,
            "name": "E3",
            "ticks": 340560,
            "time": 246.225,
            "velocity": 0.7401574803149606
          },
          {
            "duration": 0.1875,
            "durationTicks": 240,
            "midi": 57,
            "name": "A3",
            "ticks": 340800,
            "time": 246.4125,
            "velocity": 0.8346456692913385
          },
          {
            "duration": 0.1875,
            "durationTicks": 240,
            "midi": 55,
            "name": "G3",
            "ticks": 341040,
            "time": 246.6,
            "velocity": 0.7637795275590551
          },
          {
            "duration": 0.19062500000001137,
            "durationTicks": 244,
            "midi": 59,
            "name": "B3",
            "ticks": 341280,
            "time": 246.7875,
            "velocity": 0.8188976377952756
          },
          {
            "duration": 0.19062500000001137,
            "durationTicks": 244,
            "midi": 57,
            "name": "A3",
            "ticks": 341520,
            "time": 246.975,
            "velocity": 0.7559055118110236
          },
          {
            "duration": 0.19062500000001137,
            "durationTicks": 244,
            "midi": 55,
            "name": "G3",
            "ticks": 341760,
            "time": 247.1625,
            "velocity": 0.7480314960629921
          },
          {
            "duration": 0.19062500000001137,
            "durationTicks": 244,
            "midi": 54,
            "name": "F#3",
            "ticks": 342000,
            "time": 247.35,
            "velocity": 0.7559055118110236
          },
          {
            "duration": 0.19062500000001137,
            "durationTicks": 244,
            "midi": 52,
            "name": "E3",
            "ticks": 342240,
            "time": 247.5375,
            "velocity": 0.7401574803149606
          },
          {
            "duration": 0.17578125,
            "durationTicks": 225,
            "midi": 50,
            "name": "D3",
            "ticks": 342480,
            "time": 247.725,
            "velocity": 0.7401574803149606
          },
          {
            "duration": 0.33671874999998863,
            "durationTicks": 431,
            "midi": 45,
            "name": "A2",
            "ticks": 342720,
            "time": 247.9125,
            "velocity": 0.6850393700787402
          },
          {
            "duration": 0.33671874999998863,
            "durationTicks": 431,
            "midi": 49,
            "name": "C#3",
            "ticks": 343200,
            "time": 248.2875,
            "velocity": 0.7874015748031497
          },
          {
            "duration": 1.5,
            "durationTicks": 1920,
            "midi": 38,
            "name": "D2",
            "ticks": 343680,
            "time": 248.6625,
            "velocity": 0.6614173228346457
          },
          {
            "duration": 0.375,
            "durationTicks": 480,
            "midi": 55,
            "name": "G3",
            "ticks": 346080,
            "time": 250.5375,
            "velocity": 0.7716535433070866
          },
          {
            "duration": 0.375,
            "durationTicks": 480,
            "midi": 55,
            "name": "G3",
            "ticks": 346560,
            "time": 250.9125,
            "velocity": 0.7637795275590551
          },
          {
            "duration": 0.375,
            "durationTicks": 480,
            "midi": 50,
            "name": "D3",
            "ticks": 347040,
            "time": 251.2875,
            "velocity": 0.7244094488188977
          },
          {
            "duration": 0.375,
            "durationTicks": 480,
            "midi": 43,
            "name": "G2",
            "ticks": 347520,
            "time": 251.6625,
            "velocity": 0.6771653543307087
          },
          {
            "duration": 0.19062500000001137,
            "durationTicks": 244,
            "midi": 59,
            "name": "B3",
            "ticks": 348000,
            "time": 252.0375,
            "velocity": 0.8740157480314961
          },
          {
            "duration": 0.19062500000001137,
            "durationTicks": 244,
            "midi": 60,
            "name": "C4",
            "ticks": 348240,
            "time": 252.225,
            "velocity": 0.8582677165354331
          },
          {
            "duration": 0.19062500000001137,
            "durationTicks": 244,
            "midi": 62,
            "name": "D4",
            "ticks": 348480,
            "time": 252.4125,
            "velocity": 0.8346456692913385
          },
          {
            "duration": 0.19062500000001137,
            "durationTicks": 244,
            "midi": 60,
            "name": "C4",
            "ticks": 348720,
            "time": 252.6,
            "velocity": 0.7086614173228346
          },
          {
            "duration": 0.19062500000001137,
            "durationTicks": 244,
            "midi": 59,
            "name": "B3",
            "ticks": 348960,
            "time": 252.7875,
            "velocity": 0.7401574803149606
          },
          {
            "duration": 0.17578125,
            "durationTicks": 225,
            "midi": 57,
            "name": "A3",
            "ticks": 349200,
            "time": 252.975,
            "velocity": 0.7244094488188977
          },
          {
            "duration": 0.375,
            "durationTicks": 480,
            "midi": 59,
            "name": "B3",
            "ticks": 349440,
            "time": 253.1625,
            "velocity": 0.7874015748031497
          },
          {
            "duration": 0.375,
            "durationTicks": 480,
            "midi": 50,
            "name": "D3",
            "ticks": 349920,
            "time": 253.5375,
            "velocity": 0.7086614173228346
          },
          {
            "duration": 0.375,
            "durationTicks": 480,
            "midi": 43,
            "name": "G2",
            "ticks": 350400,
            "time": 253.9125,
            "velocity": 0.7086614173228346
          },
          {
            "duration": 0.19062500000001137,
            "durationTicks": 244,
            "midi": 55,
            "name": "G3",
            "ticks": 350880,
            "time": 254.2875,
            "velocity": 0.8818897637795275
          },
          {
            "duration": 0.17578125,
            "durationTicks": 225,
            "midi": 57,
            "name": "A3",
            "ticks": 351120,
            "time": 254.475,
            "velocity": 0.8188976377952756
          },
          {
            "duration": 0.375,
            "durationTicks": 480,
            "midi": 59,
            "name": "B3",
            "ticks": 351360,
            "time": 254.6625,
            "velocity": 0.8110236220472441
          },
          {
            "duration": 0.375,
            "durationTicks": 480,
            "midi": 55,
            "name": "G3",
            "ticks": 351840,
            "time": 255.0375,
            "velocity": 0.7007874015748031
          },
          {
            "duration": 0.375,
            "durationTicks": 480,
            "midi": 52,
            "name": "E3",
            "ticks": 352320,
            "time": 255.4125,
            "velocity": 0.7637795275590551
          },
          {
            "duration": 0.3750000000000284,
            "durationTicks": 480,
            "midi": 48,
            "name": "C3",
            "ticks": 352800,
            "time": 255.7875,
            "velocity": 0.7086614173228346
          },
          {
            "duration": 0.375,
            "durationTicks": 480,
            "midi": 36,
            "name": "C2",
            "ticks": 353280,
            "time": 256.1625,
            "velocity": 0.6771653543307087
          },
          {
            "duration": 0.19062499999995453,
            "durationTicks": 244,
            "midi": 57,
            "name": "A3",
            "ticks": 353760,
            "time": 256.5375,
            "velocity": 0.84251968503937
          },
          {
            "duration": 0.19062499999995453,
            "durationTicks": 244,
            "midi": 59,
            "name": "B3",
            "ticks": 354000,
            "time": 256.725,
            "velocity": 0.8188976377952756
          },
          {
            "duration": 0.19062499999995453,
            "durationTicks": 244,
            "midi": 60,
            "name": "C4",
            "ticks": 354240,
            "time": 256.9125,
            "velocity": 0.8110236220472441
          },
          {
            "duration": 0.19062499999995453,
            "durationTicks": 244,
            "midi": 59,
            "name": "B3",
            "ticks": 354480,
            "time": 257.1,
            "velocity": 0.8031496062992126
          },
          {
            "duration": 0.19062499999995453,
            "durationTicks": 244,
            "midi": 57,
            "name": "A3",
            "ticks": 354720,
            "time": 257.2875,
            "velocity": 0.7795275590551181
          },
          {
            "duration": 0.17578125,
            "durationTicks": 225,
            "midi": 55,
            "name": "G3",
            "ticks": 354960,
            "time": 257.475,
            "velocity": 0.7401574803149606
          },
          {
            "duration": 0.375,
            "durationTicks": 480,
            "midi": 54,
            "name": "F#3",
            "ticks": 355200,
            "time": 257.6625,
            "velocity": 0.7716535433070866
          },
          {
            "duration": 0.375,
            "durationTicks": 480,
            "midi": 50,
            "name": "D3",
            "ticks": 355680,
            "time": 258.0375,
            "velocity": 0.7401574803149606
          },
          {
            "duration": 0.375,
            "durationTicks": 480,
            "midi": 38,
            "name": "D2",
            "ticks": 356160,
            "time": 258.4125,
            "velocity": 0.6771653543307087
          },
          {
            "duration": 0.19062499999995453,
            "durationTicks": 244,
            "midi": 50,
            "name": "D3",
            "ticks": 356640,
            "time": 258.7875,
            "velocity": 0.889763779527559
          },
          {
            "duration": 0.19062499999995453,
            "durationTicks": 244,
            "midi": 52,
            "name": "E3",
            "ticks": 356880,
            "time": 258.975,
            "velocity": 0.7952755905511811
          },
          {
            "duration": 0.19062499999995453,
            "durationTicks": 244,
            "midi": 54,
            "name": "F#3",
            "ticks": 357120,
            "time": 259.1625,
            "velocity": 0.7716535433070866
          },
          {
            "duration": 0.19062499999995453,
            "durationTicks": 244,
            "midi": 55,
            "name": "G3",
            "ticks": 357360,
            "time": 259.35,
            "velocity": 0.7795275590551181
          },
          {
            "duration": 0.19062499999995453,
            "durationTicks": 244,
            "midi": 57,
            "name": "A3",
            "ticks": 357600,
            "time": 259.5375,
            "velocity": 0.7559055118110236
          },
          {
            "duration": 0.17578125,
            "durationTicks": 225,
            "midi": 59,
            "name": "B3",
            "ticks": 357840,
            "time": 259.725,
            "velocity": 0.7637795275590551
          },
          {
            "duration": 0.19062499999995453,
            "durationTicks": 244,
            "midi": 60,
            "name": "C4",
            "ticks": 358080,
            "time": 259.9125,
            "velocity": 0.7795275590551181
          },
          {
            "duration": 0.19062499999995453,
            "durationTicks": 244,
            "midi": 59,
            "name": "B3",
            "ticks": 358320,
            "time": 260.1,
            "velocity": 0.7637795275590551
          },
          {
            "duration": 0.17578125,
            "durationTicks": 225,
            "midi": 60,
            "name": "C4",
            "ticks": 358560,
            "time": 260.2875,
            "velocity": 0.8188976377952756
          },
          {
            "duration": 0.1875,
            "durationTicks": 240,
            "midi": 57,
            "name": "A3",
            "ticks": 358800,
            "time": 260.475,
            "velocity": 0.6929133858267716
          },
          {
            "duration": 0.19062499999995453,
            "durationTicks": 244,
            "midi": 60,
            "name": "C4",
            "ticks": 359040,
            "time": 260.6625,
            "velocity": 0.8582677165354331
          },
          {
            "duration": 0.19062499999995453,
            "durationTicks": 244,
            "midi": 59,
            "name": "B3",
            "ticks": 359280,
            "time": 260.85,
            "velocity": 0.7795275590551181
          },
          {
            "duration": 0.17578125,
            "durationTicks": 225,
            "midi": 60,
            "name": "C4",
            "ticks": 359520,
            "time": 261.0375,
            "velocity": 0.8346456692913385
          },
          {
            "duration": 0.1875,
            "durationTicks": 240,
            "midi": 57,
            "name": "A3",
            "ticks": 359760,
            "time": 261.225,
            "velocity": 0.7322834645669292
          },
          {
            "duration": 0.1875,
            "durationTicks": 240,
            "midi": 50,
            "name": "D3",
            "ticks": 360000,
            "time": 261.4125,
            "velocity": 0.7086614173228346
          },
          {
            "duration": 0.1875,
            "durationTicks": 240,
            "midi": 60,
            "name": "C4",
            "ticks": 360240,
            "time": 261.6,
            "velocity": 0.9606299212598425
          },
          {
            "duration": 0.1875,
            "durationTicks": 240,
            "midi": 59,
            "name": "B3",
            "ticks": 360480,
            "time": 261.7875,
            "velocity": 0.7716535433070866
          },
          {
            "duration": 0.1875,
            "durationTicks": 240,
            "midi": 57,
            "name": "A3",
            "ticks": 360720,
            "time": 261.975,
            "velocity": 0.7480314960629921
          },
          {
            "duration": 0.19062499999995453,
            "durationTicks": 244,
            "midi": 59,
            "name": "B3",
            "ticks": 360960,
            "time": 262.1625,
            "velocity": 0.7716535433070866
          },
          {
            "duration": 0.19062499999995453,
            "durationTicks": 244,
            "midi": 57,
            "name": "A3",
            "ticks": 361200,
            "time": 262.35,
            "velocity": 0.7480314960629921
          },
          {
            "duration": 0.17578125,
            "durationTicks": 225,
            "midi": 59,
            "name": "B3",
            "ticks": 361440,
            "time": 262.5375,
            "velocity": 0.8031496062992126
          },
          {
            "duration": 0.1875,
            "durationTicks": 240,
            "midi": 55,
            "name": "G3",
            "ticks": 361680,
            "time": 262.725,
            "velocity": 0.7559055118110236
          },
          {
            "duration": 0.19062499999995453,
            "durationTicks": 244,
            "midi": 59,
            "name": "B3",
            "ticks": 361920,
            "time": 262.9125,
            "velocity": 0.8110236220472441
          },
          {
            "duration": 0.19062499999995453,
            "durationTicks": 244,
            "midi": 57,
            "name": "A3",
            "ticks": 362160,
            "time": 263.1,
            "velocity": 0.7716535433070866
          },
          {
            "duration": 0.17578125,
            "durationTicks": 225,
            "midi": 59,
            "name": "B3",
            "ticks": 362400,
            "time": 263.2875,
            "velocity": 0.8110236220472441
          },
          {
            "duration": 0.1875,
            "durationTicks": 240,
            "midi": 55,
            "name": "G3",
            "ticks": 362640,
            "time": 263.475,
            "velocity": 0.7244094488188977
          },
          {
            "duration": 0.1875,
            "durationTicks": 240,
            "midi": 48,
            "name": "C3",
            "ticks": 362880,
            "time": 263.6625,
            "velocity": 0.7086614173228346
          },
          {
            "duration": 0.1875,
            "durationTicks": 240,
            "midi": 59,
            "name": "B3",
            "ticks": 363120,
            "time": 263.85,
            "velocity": 0.84251968503937
          },
          {
            "duration": 0.1875,
            "durationTicks": 240,
            "midi": 57,
            "name": "A3",
            "ticks": 363360,
            "time": 264.0375,
            "velocity": 0.7637795275590551
          },
          {
            "duration": 0.1875,
            "durationTicks": 240,
            "midi": 55,
            "name": "G3",
            "ticks": 363600,
            "time": 264.225,
            "velocity": 0.7952755905511811
          },
          {
            "duration": 0.1875,
            "durationTicks": 240,
            "midi": 54,
            "name": "F#3",
            "ticks": 363840,
            "time": 264.4125,
            "velocity": 0.7401574803149606
          },
          {
            "duration": 0.1875,
            "durationTicks": 240,
            "midi": 57,
            "name": "A3",
            "ticks": 364080,
            "time": 264.6,
            "velocity": 0.7716535433070866
          },
          {
            "duration": 0.1875,
            "durationTicks": 240,
            "midi": 62,
            "name": "D4",
            "ticks": 364320,
            "time": 264.7875,
            "velocity": 0.8740157480314961
          },
          {
            "duration": 0.1875,
            "durationTicks": 240,
            "midi": 50,
            "name": "D3",
            "ticks": 364560,
            "time": 264.975,
            "velocity": 0.6771653543307087
          },
          {
            "duration": 0.375,
            "durationTicks": 480,
            "midi": 55,
            "name": "G3",
            "ticks": 364800,
            "time": 265.1625,
            "velocity": 0.8267716535433071
          },
          {
            "duration": 0.375,
            "durationTicks": 480,
            "midi": 47,
            "name": "B2",
            "ticks": 365280,
            "time": 265.5375,
            "velocity": 0.7165354330708661
          },
          {
            "duration": 0.375,
            "durationTicks": 480,
            "midi": 38,
            "name": "D2",
            "ticks": 365760,
            "time": 265.9125,
            "velocity": 0.6535433070866141
          },
          {
            "duration": 0.375,
            "durationTicks": 480,
            "midi": 54,
            "name": "F#3",
            "ticks": 366240,
            "time": 266.2875,
            "velocity": 0.8740157480314961
          },
          {
            "duration": 1.125,
            "durationTicks": 1440,
            "midi": 43,
            "name": "G2",
            "ticks": 366720,
            "time": 266.6625,
            "velocity": 0.7874015748031497
          },
          {
            "duration": 1.125,
            "durationTicks": 1440,
            "midi": 55,
            "name": "G3",
            "ticks": 366720,
            "time": 266.6625,
            "velocity": 0.7874015748031497
          },
          {
            "duration": 0.19062499999995453,
            "durationTicks": 244,
            "midi": 59,
            "name": "B3",
            "ticks": 368160,
            "time": 267.7875,
            "velocity": 0.8031496062992126
          },
          {
            "duration": 0.19062499999995453,
            "durationTicks": 244,
            "midi": 57,
            "name": "A3",
            "ticks": 368400,
            "time": 267.975,
            "velocity": 0.7401574803149606
          },
          {
            "duration": 0.19062499999995453,
            "durationTicks": 244,
            "midi": 55,
            "name": "G3",
            "ticks": 368640,
            "time": 268.1625,
            "velocity": 0.7559055118110236
          },
          {
            "duration": 0.19062499999995453,
            "durationTicks": 244,
            "midi": 54,
            "name": "F#3",
            "ticks": 368880,
            "time": 268.35,
            "velocity": 0.7480314960629921
          },
          {
            "duration": 0.19062499999995453,
            "durationTicks": 244,
            "midi": 52,
            "name": "E3",
            "ticks": 369120,
            "time": 268.5375,
            "velocity": 0.7480314960629921
          },
          {
            "duration": 0.17578125,
            "durationTicks": 225,
            "midi": 50,
            "name": "D3",
            "ticks": 369360,
            "time": 268.725,
            "velocity": 0.7322834645669292
          },
          {
            "duration": 0.375,
            "durationTicks": 480,
            "midi": 64,
            "name": "E4",
            "ticks": 369600,
            "time": 268.9125,
            "velocity": 0.984251968503937
          },
          {
            "duration": 0.375,
            "durationTicks": 480,
            "midi": 61,
            "name": "C#4",
            "ticks": 370080,
            "time": 269.2875,
            "velocity": 0.7401574803149606
          },
          {
            "duration": 0.375,
            "durationTicks": 480,
            "midi": 57,
            "name": "A3",
            "ticks": 370560,
            "time": 269.6625,
            "velocity": 0.7559055118110236
          },
          {
            "duration": 0.19062499999995453,
            "durationTicks": 244,
            "midi": 59,
            "name": "B3",
            "ticks": 371040,
            "time": 270.0375,
            "velocity": 0.7952755905511811
          },
          {
            "duration": 0.17578125,
            "durationTicks": 225,
            "midi": 61,
            "name": "C#4",
            "ticks": 371280,
            "time": 270.225,
            "velocity": 0.7952755905511811
          },
          {
            "duration": 0.1875,
            "durationTicks": 240,
            "midi": 62,
            "name": "D4",
            "ticks": 371520,
            "time": 270.4125,
            "velocity": 0.8582677165354331
          },
          {
            "duration": 0.19062499999995453,
            "durationTicks": 244,
            "midi": 54,
            "name": "F#3",
            "ticks": 371760,
            "time": 270.6,
            "velocity": 0.6850393700787402
          },
          {
            "duration": 0.19062499999995453,
            "durationTicks": 244,
            "midi": 52,
            "name": "E3",
            "ticks": 372000,
            "time": 270.7875,
            "velocity": 0.7559055118110236
          },
          {
            "duration": 0.17578125,
            "durationTicks": 225,
            "midi": 50,
            "name": "D3",
            "ticks": 372240,
            "time": 270.975,
            "velocity": 0.7401574803149606
          },
          {
            "duration": 0.375,
            "durationTicks": 480,
            "midi": 45,
            "name": "A2",
            "ticks": 372480,
            "time": 271.1625,
            "velocity": 0.6929133858267716
          },
          {
            "duration": 0.375,
            "durationTicks": 480,
            "midi": 62,
            "name": "D4",
            "ticks": 372960,
            "time": 271.5375,
            "velocity": 0.952755905511811
          },
          {
            "duration": 0.0703125,
            "durationTicks": 90,
            "midi": 61,
            "name": "C#4",
            "ticks": 373440,
            "time": 271.9125,
            "velocity": 0.7637795275590551
          },
          {
            "duration": 0.0648437499999659,
            "durationTicks": 83,
            "midi": 62,
            "name": "D4",
            "ticks": 373545,
            "time": 271.99453125,
            "velocity": 0.7637795275590551
          },
          {
            "duration": 0.05859375,
            "durationTicks": 75,
            "midi": 61,
            "name": "C#4",
            "ticks": 373643,
            "time": 272.07109375,
            "velocity": 0.7637795275590551
          },
          {
            "duration": 0.05859375,
            "durationTicks": 75,
            "midi": 62,
            "name": "D4",
            "ticks": 373740,
            "time": 272.146875,
            "velocity": 0.7637795275590551
          },
          {
            "duration": 0.05546874999998863,
            "durationTicks": 71,
            "midi": 61,
            "name": "C#4",
            "ticks": 373845,
            "time": 272.22890625,
            "velocity": 0.7637795275590551
          },
          {
            "duration": 0.19062499999995453,
            "durationTicks": 244,
            "midi": 59,
            "name": "B3",
            "ticks": 373920,
            "time": 272.2875,
            "velocity": 0.6929133858267716
          },
          {
            "duration": 0.17578125,
            "durationTicks": 225,
            "midi": 57,
            "name": "A3",
            "ticks": 374160,
            "time": 272.475,
            "velocity": 0.7322834645669292
          },
          {
            "duration": 0.1875,
            "durationTicks": 240,
            "midi": 62,
            "name": "D4",
            "ticks": 374400,
            "time": 272.6625,
            "velocity": 0.9763779527559056
          },
          {
            "duration": 0.1875,
            "durationTicks": 240,
            "midi": 57,
            "name": "A3",
            "ticks": 374640,
            "time": 272.85,
            "velocity": 0.7244094488188977
          },
          {
            "duration": 0.1875,
            "durationTicks": 240,
            "midi": 59,
            "name": "B3",
            "ticks": 374880,
            "time": 273.0375,
            "velocity": 0.8188976377952756
          },
          {
            "duration": 0.1875,
            "durationTicks": 240,
            "midi": 54,
            "name": "F#3",
            "ticks": 375120,
            "time": 273.225,
            "velocity": 0.7165354330708661
          },
          {
            "duration": 0.19062499999995453,
            "durationTicks": 244,
            "midi": 55,
            "name": "G3",
            "ticks": 375360,
            "time": 273.4125,
            "velocity": 0.7874015748031497
          },
          {
            "duration": 0.19062499999995453,
            "durationTicks": 244,
            "midi": 54,
            "name": "F#3",
            "ticks": 375600,
            "time": 273.6,
            "velocity": 0.7716535433070866
          },
          {
            "duration": 0.17578125,
            "durationTicks": 225,
            "midi": 55,
            "name": "G3",
            "ticks": 375840,
            "time": 273.7875,
            "velocity": 0.7637795275590551
          },
          {
            "duration": 0.1875,
            "durationTicks": 240,
            "midi": 52,
            "name": "E3",
            "ticks": 376080,
            "time": 273.975,
            "velocity": 0.7637795275590551
          },
          {
            "duration": 0.19062499999995453,
            "durationTicks": 244,
            "midi": 55,
            "name": "G3",
            "ticks": 376320,
            "time": 274.1625,
            "velocity": 0.7952755905511811
          },
          {
            "duration": 0.19062499999995453,
            "durationTicks": 244,
            "midi": 54,
            "name": "F#3",
            "ticks": 376560,
            "time": 274.35,
            "velocity": 0.7637795275590551
          },
          {
            "duration": 0.17578125,
            "durationTicks": 225,
            "midi": 55,
            "name": "G3",
            "ticks": 376800,
            "time": 274.5375,
            "velocity": 0.8346456692913385
          },
          {
            "duration": 0.1875,
            "durationTicks": 240,
            "midi": 52,
            "name": "E3",
            "ticks": 377040,
            "time": 274.725,
            "velocity": 0.7322834645669292
          },
          {
            "duration": 0.1875,
            "durationTicks": 240,
            "midi": 45,
            "name": "A2",
            "ticks": 377280,
            "time": 274.9125,
            "velocity": 0.7244094488188977
          },
          {
            "duration": 0.1875,
            "durationTicks": 240,
            "midi": 55,
            "name": "G3",
            "ticks": 377520,
            "time": 275.1,
            "velocity": 0.8346456692913385
          },
          {
            "duration": 0.1875,
            "durationTicks": 240,
            "midi": 54,
            "name": "F#3",
            "ticks": 377760,
            "time": 275.2875,
            "velocity": 0.7795275590551181
          },
          {
            "duration": 0.1875,
            "durationTicks": 240,
            "midi": 52,
            "name": "E3",
            "ticks": 378000,
            "time": 275.475,
            "velocity": 0.7716535433070866
          },
          {
            "duration": 0.19062499999995453,
            "durationTicks": 244,
            "midi": 54,
            "name": "F#3",
            "ticks": 378240,
            "time": 275.6625,
            "velocity": 0.7874015748031497
          },
          {
            "duration": 0.19062499999995453,
            "durationTicks": 244,
            "midi": 52,
            "name": "E3",
            "ticks": 378480,
            "time": 275.85,
            "velocity": 0.7322834645669292
          },
          {
            "duration": 0.17578125,
            "durationTicks": 225,
            "midi": 54,
            "name": "F#3",
            "ticks": 378720,
            "time": 276.0375,
            "velocity": 0.7874015748031497
          },
          {
            "duration": 0.1875,
            "durationTicks": 240,
            "midi": 50,
            "name": "D3",
            "ticks": 378960,
            "time": 276.225,
            "velocity": 0.7086614173228346
          },
          {
            "duration": 0.19062499999995453,
            "durationTicks": 244,
            "midi": 54,
            "name": "F#3",
            "ticks": 379200,
            "time": 276.4125,
            "velocity": 0.7716535433070866
          },
          {
            "duration": 0.19062499999995453,
            "durationTicks": 244,
            "midi": 52,
            "name": "E3",
            "ticks": 379440,
            "time": 276.6,
            "velocity": 0.7637795275590551
          },
          {
            "duration": 0.17578125,
            "durationTicks": 225,
            "midi": 54,
            "name": "F#3",
            "ticks": 379680,
            "time": 276.7875,
            "velocity": 0.8031496062992126
          },
          {
            "duration": 0.1875,
            "durationTicks": 240,
            "midi": 50,
            "name": "D3",
            "ticks": 379920,
            "time": 276.975,
            "velocity": 0.7322834645669292
          },
          {
            "duration": 0.1875,
            "durationTicks": 240,
            "midi": 43,
            "name": "G2",
            "ticks": 380160,
            "time": 277.1625,
            "velocity": 0.7007874015748031
          },
          {
            "duration": 0.1875,
            "durationTicks": 240,
            "midi": 54,
            "name": "F#3",
            "ticks": 380400,
            "time": 277.35,
            "velocity": 0.8582677165354331
          },
          {
            "duration": 0.1875,
            "durationTicks": 240,
            "midi": 52,
            "name": "E3",
            "ticks": 380640,
            "time": 277.5375,
            "velocity": 0.7716535433070866
          },
          {
            "duration": 0.1875,
            "durationTicks": 240,
            "midi": 50,
            "name": "D3",
            "ticks": 380880,
            "time": 277.725,
            "velocity": 0.6929133858267716
          },
          {
            "duration": 0.19062499999995453,
            "durationTicks": 244,
            "midi": 62,
            "name": "D4",
            "ticks": 381120,
            "time": 277.9125,
            "velocity": 0.9921259842519685
          },
          {
            "duration": 0.19062499999995453,
            "durationTicks": 244,
            "midi": 61,
            "name": "C#4",
            "ticks": 381360,
            "time": 278.1,
            "velocity": 0.7480314960629921
          },
          {
            "duration": 0.17578125,
            "durationTicks": 225,
            "midi": 59,
            "name": "B3",
            "ticks": 381600,
            "time": 278.2875,
            "velocity": 0.7322834645669292
          },
          {
            "duration": 0.1875,
            "durationTicks": 240,
            "midi": 57,
            "name": "A3",
            "ticks": 381840,
            "time": 278.475,
            "velocity": 0.7244094488188977
          },
          {
            "duration": 0.375,
            "durationTicks": 480,
            "midi": 62,
            "name": "D4",
            "ticks": 382080,
            "time": 278.6625,
            "velocity": 0.8503937007874016
          },
          {
            "duration": 0.19062499999995453,
            "durationTicks": 244,
            "midi": 61,
            "name": "C#4",
            "ticks": 382560,
            "time": 279.0375,
            "velocity": 0.7559055118110236
          },
          {
            "duration": 0.19062499999995453,
            "durationTicks": 244,
            "midi": 59,
            "name": "B3",
            "ticks": 382800,
            "time": 279.225,
            "velocity": 0.7716535433070866
          },
          {
            "duration": 0.19062499999995453,
            "durationTicks": 244,
            "midi": 57,
            "name": "A3",
            "ticks": 383040,
            "time": 279.4125,
            "velocity": 0.7401574803149606
          },
          {
            "duration": 0.19062499999995453,
            "durationTicks": 244,
            "midi": 55,
            "name": "G3",
            "ticks": 383280,
            "time": 279.6,
            "velocity": 0.7322834645669292
          },
          {
            "duration": 0.19062499999995453,
            "durationTicks": 244,
            "midi": 54,
            "name": "F#3",
            "ticks": 383520,
            "time": 279.7875,
            "velocity": 0.7559055118110236
          },
          {
            "duration": 0.17578125,
            "durationTicks": 225,
            "midi": 52,
            "name": "E3",
            "ticks": 383760,
            "time": 279.975,
            "velocity": 0.7322834645669292
          },
          {
            "duration": 0.19062499999995453,
            "durationTicks": 244,
            "midi": 50,
            "name": "D3",
            "ticks": 384000,
            "time": 280.1625,
            "velocity": 0.7637795275590551
          },
          {
            "duration": 0.19062499999995453,
            "durationTicks": 244,
            "midi": 52,
            "name": "E3",
            "ticks": 384240,
            "time": 280.35,
            "velocity": 0.7401574803149606
          },
          {
            "duration": 0.17578125,
            "durationTicks": 225,
            "midi": 50,
            "name": "D3",
            "ticks": 384480,
            "time": 280.5375,
            "velocity": 0.7244094488188977
          },
          {
            "duration": 0.1875,
            "durationTicks": 240,
            "midi": 54,
            "name": "F#3",
            "ticks": 384720,
            "time": 280.725,
            "velocity": 0.8188976377952756
          },
          {
            "duration": 0.19062499999995453,
            "durationTicks": 244,
            "midi": 50,
            "name": "D3",
            "ticks": 384960,
            "time": 280.9125,
            "velocity": 0.7007874015748031
          },
          {
            "duration": 0.19062499999995453,
            "durationTicks": 244,
            "midi": 52,
            "name": "E3",
            "ticks": 385200,
            "time": 281.1,
            "velocity": 0.7795275590551181
          },
          {
            "duration": 0.17578125,
            "durationTicks": 225,
            "midi": 50,
            "name": "D3",
            "ticks": 385440,
            "time": 281.2875,
            "velocity": 0.7401574803149606
          },
          {
            "duration": 0.1875,
            "durationTicks": 240,
            "midi": 55,
            "name": "G3",
            "ticks": 385680,
            "time": 281.475,
            "velocity": 0.8110236220472441
          },
          {
            "duration": 0.19062499999995453,
            "durationTicks": 244,
            "midi": 50,
            "name": "D3",
            "ticks": 385920,
            "time": 281.6625,
            "velocity": 0.6771653543307087
          },
          {
            "duration": 0.19062499999995453,
            "durationTicks": 244,
            "midi": 52,
            "name": "E3",
            "ticks": 386160,
            "time": 281.85,
            "velocity": 0.7795275590551181
          },
          {
            "duration": 0.17578125,
            "durationTicks": 225,
            "midi": 50,
            "name": "D3",
            "ticks": 386400,
            "time": 282.0375,
            "velocity": 0.7637795275590551
          },
          {
            "duration": 0.1875,
            "durationTicks": 240,
            "midi": 57,
            "name": "A3",
            "ticks": 386640,
            "time": 282.225,
            "velocity": 0.8188976377952756
          },
          {
            "duration": 0.19062499999995453,
            "durationTicks": 244,
            "midi": 50,
            "name": "D3",
            "ticks": 386880,
            "time": 282.4125,
            "velocity": 0.7165354330708661
          },
          {
            "duration": 0.19062499999995453,
            "durationTicks": 244,
            "midi": 52,
            "name": "E3",
            "ticks": 387120,
            "time": 282.6,
            "velocity": 0.7874015748031497
          },
          {
            "duration": 0.17578125,
            "durationTicks": 225,
            "midi": 50,
            "name": "D3",
            "ticks": 387360,
            "time": 282.7875,
            "velocity": 0.7559055118110236
          },
          {
            "duration": 0.1875,
            "durationTicks": 240,
            "midi": 59,
            "name": "B3",
            "ticks": 387600,
            "time": 282.975,
            "velocity": 0.8503937007874016
          },
          {
            "duration": 0.19062499999995453,
            "durationTicks": 244,
            "midi": 50,
            "name": "D3",
            "ticks": 387840,
            "time": 283.1625,
            "velocity": 0.7086614173228346
          },
          {
            "duration": 0.19062499999995453,
            "durationTicks": 244,
            "midi": 52,
            "name": "E3",
            "ticks": 388080,
            "time": 283.35,
            "velocity": 0.8110236220472441
          },
          {
            "duration": 0.17578125,
            "durationTicks": 225,
            "midi": 50,
            "name": "D3",
            "ticks": 388320,
            "time": 283.5375,
            "velocity": 0.7637795275590551
          },
          {
            "duration": 0.1875,
            "durationTicks": 240,
            "midi": 61,
            "name": "C#4",
            "ticks": 388560,
            "time": 283.725,
            "velocity": 0.952755905511811
          },
          {
            "duration": 0.19062499999995453,
            "durationTicks": 244,
            "midi": 50,
            "name": "D3",
            "ticks": 388800,
            "time": 283.9125,
            "velocity": 0.6771653543307087
          },
          {
            "duration": 0.19062499999995453,
            "durationTicks": 244,
            "midi": 52,
            "name": "E3",
            "ticks": 389040,
            "time": 284.1,
            "velocity": 0.7952755905511811
          },
          {
            "duration": 0.17578125,
            "durationTicks": 225,
            "midi": 50,
            "name": "D3",
            "ticks": 389280,
            "time": 284.2875,
            "velocity": 0.7401574803149606
          },
          {
            "duration": 0.1875,
            "durationTicks": 240,
            "midi": 62,
            "name": "D4",
            "ticks": 389520,
            "time": 284.475,
            "velocity": 0.984251968503937
          },
          {
            "duration": 0.19062499999995453,
            "durationTicks": 244,
            "midi": 55,
            "name": "G3",
            "ticks": 389760,
            "time": 284.6625,
            "velocity": 0.7716535433070866
          },
          {
            "duration": 0.19062499999995453,
            "durationTicks": 244,
            "midi": 54,
            "name": "F#3",
            "ticks": 390000,
            "time": 284.85,
            "velocity": 0.7165354330708661
          },
          {
            "duration": 0.17578125,
            "durationTicks": 225,
            "midi": 52,
            "name": "E3",
            "ticks": 390240,
            "time": 285.0375,
            "velocity": 0.7637795275590551
          },
          {
            "duration": 0.1875,
            "durationTicks": 240,
            "midi": 50,
            "name": "D3",
            "ticks": 390480,
            "time": 285.225,
            "velocity": 0.7244094488188977
          },
          {
            "duration": 0.1875,
            "durationTicks": 240,
            "midi": 49,
            "name": "C#3",
            "ticks": 390720,
            "time": 285.4125,
            "velocity": 0.7716535433070866
          },
          {
            "duration": 0.1875,
            "durationTicks": 240,
            "midi": 47,
            "name": "B2",
            "ticks": 390960,
            "time": 285.6,
            "velocity": 0.7559055118110236
          },
          {
            "duration": 0.1875,
            "durationTicks": 240,
            "midi": 45,
            "name": "A2",
            "ticks": 391200,
            "time": 285.7875,
            "velocity": 0.7244094488188977
          },
          {
            "duration": 0.1875,
            "durationTicks": 240,
            "midi": 55,
            "name": "G3",
            "ticks": 391440,
            "time": 285.975,
            "velocity": 0.8346456692913385
          },
          {
            "duration": 0.0703125,
            "durationTicks": 90,
            "midi": 54,
            "name": "F#3",
            "ticks": 391680,
            "time": 286.1625,
            "velocity": 0.7480314960629921
          },
          {
            "duration": 0.06718750000004547,
            "durationTicks": 86,
            "midi": 55,
            "name": "G3",
            "ticks": 391789,
            "time": 286.24765625,
            "velocity": 0.7480314960629921
          },
          {
            "duration": 0.061718749999954525,
            "durationTicks": 79,
            "midi": 54,
            "name": "F#3",
            "ticks": 391890,
            "time": 286.3265625,
            "velocity": 0.7480314960629921
          },
          {
            "duration": 0.05859375,
            "durationTicks": 75,
            "midi": 55,
            "name": "G3",
            "ticks": 391988,
            "time": 286.403125,
            "velocity": 0.7480314960629921
          },
          {
            "duration": 0.05859375,
            "durationTicks": 75,
            "midi": 54,
            "name": "F#3",
            "ticks": 392081,
            "time": 286.47578125,
            "velocity": 0.7480314960629921
          },
          {
            "duration": 0.05859375,
            "durationTicks": 75,
            "midi": 55,
            "name": "G3",
            "ticks": 392179,
            "time": 286.55234375,
            "velocity": 0.7480314960629921
          },
          {
            "duration": 0.0640625000000341,
            "durationTicks": 82,
            "midi": 54,
            "name": "F#3",
            "ticks": 392284,
            "time": 286.634375,
            "velocity": 0.7480314960629921
          },
          {
            "duration": 0.0023437500000227374,
            "durationTicks": 3,
            "midi": 55,
            "name": "G3",
            "ticks": 392393,
            "time": 286.71953125,
            "velocity": 0.7480314960629921
          },
          {
            "duration": 0.1875,
            "durationTicks": 240,
            "midi": 52,
            "name": "E3",
            "ticks": 392400,
            "time": 286.725,
            "velocity": 0.7401574803149606
          },
          {
            "duration": 0.1875,
            "durationTicks": 240,
            "midi": 57,
            "name": "A3",
            "ticks": 392640,
            "time": 286.9125,
            "velocity": 0.8110236220472441
          },
          {
            "duration": 0.1875,
            "durationTicks": 240,
            "midi": 55,
            "name": "G3",
            "ticks": 392880,
            "time": 287.1,
            "velocity": 0.7637795275590551
          },
          {
            "duration": 0.19062499999995453,
            "durationTicks": 244,
            "midi": 59,
            "name": "B3",
            "ticks": 393120,
            "time": 287.2875,
            "velocity": 0.84251968503937
          },
          {
            "duration": 0.19062499999995453,
            "durationTicks": 244,
            "midi": 57,
            "name": "A3",
            "ticks": 393360,
            "time": 287.475,
            "velocity": 0.7480314960629921
          },
          {
            "duration": 0.19062499999995453,
            "durationTicks": 244,
            "midi": 55,
            "name": "G3",
            "ticks": 393600,
            "time": 287.6625,
            "velocity": 0.7637795275590551
          },
          {
            "duration": 0.19062499999995453,
            "durationTicks": 244,
            "midi": 54,
            "name": "F#3",
            "ticks": 393840,
            "time": 287.85,
            "velocity": 0.7559055118110236
          },
          {
            "duration": 0.19062499999995453,
            "durationTicks": 244,
            "midi": 52,
            "name": "E3",
            "ticks": 394080,
            "time": 288.0375,
            "velocity": 0.7716535433070866
          },
          {
            "duration": 0.17578125,
            "durationTicks": 225,
            "midi": 50,
            "name": "D3",
            "ticks": 394320,
            "time": 288.225,
            "velocity": 0.7244094488188977
          },
          {
            "duration": 0.33671874999998863,
            "durationTicks": 431,
            "midi": 45,
            "name": "A2",
            "ticks": 394560,
            "time": 288.4125,
            "velocity": 0.6771653543307087
          },
          {
            "duration": 0.33671874999998863,
            "durationTicks": 431,
            "midi": 49,
            "name": "C#3",
            "ticks": 395040,
            "time": 288.7875,
            "velocity": 0.7874015748031497
          },
          {
            "duration": 1.5,
            "durationTicks": 1920,
            "midi": 38,
            "name": "D2",
            "ticks": 395520,
            "time": 289.1625,
            "velocity": 0.6456692913385826
          },
          {
            "duration": 0.375,
            "durationTicks": 480,
            "midi": 57,
            "name": "A3",
            "ticks": 397920,
            "time": 291.0375,
            "velocity": 0.7401574803149606
          },
          {
            "duration": 0.375,
            "durationTicks": 480,
            "midi": 57,
            "name": "A3",
            "ticks": 398400,
            "time": 291.4125,
            "velocity": 0.7322834645669292
          },
          {
            "duration": 0.375,
            "durationTicks": 480,
            "midi": 54,
            "name": "F#3",
            "ticks": 398880,
            "time": 291.7875,
            "velocity": 0.7086614173228346
          },
          {
            "duration": 0.375,
            "durationTicks": 480,
            "midi": 50,
            "name": "D3",
            "ticks": 399360,
            "time": 292.1625,
            "velocity": 0.7401574803149606
          },
          {
            "duration": 0.19062499999995453,
            "durationTicks": 244,
            "midi": 52,
            "name": "E3",
            "ticks": 399840,
            "time": 292.5375,
            "velocity": 0.8188976377952756
          },
          {
            "duration": 0.19062499999995453,
            "durationTicks": 244,
            "midi": 54,
            "name": "F#3",
            "ticks": 400080,
            "time": 292.725,
            "velocity": 0.7716535433070866
          },
          {
            "duration": 0.19062499999995453,
            "durationTicks": 244,
            "midi": 55,
            "name": "G3",
            "ticks": 400320,
            "time": 292.9125,
            "velocity": 0.7795275590551181
          },
          {
            "duration": 0.19062499999995453,
            "durationTicks": 244,
            "midi": 54,
            "name": "F#3",
            "ticks": 400560,
            "time": 293.1,
            "velocity": 0.7716535433070866
          },
          {
            "duration": 0.19062499999995453,
            "durationTicks": 244,
            "midi": 52,
            "name": "E3",
            "ticks": 400800,
            "time": 293.2875,
            "velocity": 0.7401574803149606
          },
          {
            "duration": 0.17578125,
            "durationTicks": 225,
            "midi": 50,
            "name": "D3",
            "ticks": 401040,
            "time": 293.475,
            "velocity": 0.7559055118110236
          },
          {
            "duration": 0.375,
            "durationTicks": 480,
            "midi": 62,
            "name": "D4",
            "ticks": 401280,
            "time": 293.6625,
            "velocity": 0.9763779527559056
          },
          {
            "duration": 0.375,
            "durationTicks": 480,
            "midi": 54,
            "name": "F#3",
            "ticks": 401760,
            "time": 294.0375,
            "velocity": 0.7244094488188977
          },
          {
            "duration": 0.375,
            "durationTicks": 480,
            "midi": 48,
            "name": "C3",
            "ticks": 402240,
            "time": 294.4125,
            "velocity": 0.7086614173228346
          },
          {
            "duration": 0.19062499999995453,
            "durationTicks": 244,
            "midi": 47,
            "name": "B2",
            "ticks": 402720,
            "time": 294.7875,
            "velocity": 0.7244094488188977
          },
          {
            "duration": 0.19062499999995453,
            "durationTicks": 244,
            "midi": 48,
            "name": "C3",
            "ticks": 402960,
            "time": 294.975,
            "velocity": 0.8031496062992126
          },
          {
            "duration": 0.19062499999995453,
            "durationTicks": 244,
            "midi": 50,
            "name": "D3",
            "ticks": 403200,
            "time": 295.1625,
            "velocity": 0.7952755905511811
          },
          {
            "duration": 0.19062499999995453,
            "durationTicks": 244,
            "midi": 48,
            "name": "C3",
            "ticks": 403440,
            "time": 295.35,
            "velocity": 0.7559055118110236
          },
          {
            "duration": 0.19062499999995453,
            "durationTicks": 244,
            "midi": 47,
            "name": "B2",
            "ticks": 403680,
            "time": 295.5375,
            "velocity": 0.7795275590551181
          },
          {
            "duration": 0.17578125,
            "durationTicks": 225,
            "midi": 45,
            "name": "A2",
            "ticks": 403920,
            "time": 295.725,
            "velocity": 0.7559055118110236
          },
          {
            "duration": 0.1875,
            "durationTicks": 240,
            "midi": 47,
            "name": "B2",
            "ticks": 404160,
            "time": 295.9125,
            "velocity": 0.8740157480314961
          },
          {
            "duration": 0.1875,
            "durationTicks": 240,
            "midi": 55,
            "name": "G3",
            "ticks": 404400,
            "time": 296.1,
            "velocity": 0.8582677165354331
          },
          {
            "duration": 0.1875,
            "durationTicks": 240,
            "midi": 57,
            "name": "A3",
            "ticks": 404640,
            "time": 296.2875,
            "velocity": 0.7716535433070866
          },
          {
            "duration": 0.1875,
            "durationTicks": 240,
            "midi": 59,
            "name": "B3",
            "ticks": 404880,
            "time": 296.475,
            "velocity": 0.8188976377952756
          },
          {
            "duration": 0.1875,
            "durationTicks": 240,
            "midi": 60,
            "name": "C4",
            "ticks": 405120,
            "time": 296.6625,
            "velocity": 0.8267716535433071
          },
          {
            "duration": 0.1875,
            "durationTicks": 240,
            "midi": 59,
            "name": "B3",
            "ticks": 405360,
            "time": 296.85,
            "velocity": 0.7559055118110236
          },
          {
            "duration": 0.1875,
            "durationTicks": 240,
            "midi": 57,
            "name": "A3",
            "ticks": 405600,
            "time": 297.0375,
            "velocity": 0.7559055118110236
          },
          {
            "duration": 0.1875,
            "durationTicks": 240,
            "midi": 55,
            "name": "G3",
            "ticks": 405840,
            "time": 297.225,
            "velocity": 0.7401574803149606
          },
          {
            "duration": 0.375,
            "durationTicks": 480,
            "midi": 54,
            "name": "F#3",
            "ticks": 406080,
            "time": 297.4125,
            "velocity": 0.7716535433070866
          },
          {
            "duration": 0.375,
            "durationTicks": 480,
            "midi": 62,
            "name": "D4",
            "ticks": 406560,
            "time": 297.7875,
            "velocity": 0.9291338582677166
          },
          {
            "duration": 0.375,
            "durationTicks": 480,
            "midi": 59,
            "name": "B3",
            "ticks": 407040,
            "time": 298.1625,
            "velocity": 0.7322834645669292
          },
          {
            "duration": 0.375,
            "durationTicks": 480,
            "midi": 55,
            "name": "G3",
            "ticks": 407520,
            "time": 298.5375,
            "velocity": 0.7637795275590551
          },
          {
            "duration": 0.375,
            "durationTicks": 480,
            "midi": 43,
            "name": "G2",
            "ticks": 408000,
            "time": 298.9125,
            "velocity": 0.6614173228346457
          },
          {
            "duration": 0.1875,
            "durationTicks": 240,
            "midi": 59,
            "name": "B3",
            "ticks": 408480,
            "time": 299.2875,
            "velocity": 0.8503937007874016
          },
          {
            "duration": 0.1875,
            "durationTicks": 240,
            "midi": 57,
            "name": "A3",
            "ticks": 408720,
            "time": 299.475,
            "velocity": 0.7322834645669292
          },
          {
            "duration": 0.1703124999999659,
            "durationTicks": 218,
            "midi": 60,
            "name": "C4",
            "ticks": 408960,
            "time": 299.6625,
            "velocity": 0.7952755905511811
          },
          {
            "duration": 0.19062499999995453,
            "durationTicks": 244,
            "midi": 59,
            "name": "B3",
            "ticks": 409200,
            "time": 299.85,
            "velocity": 0.7795275590551181
          },
          {
            "duration": 0.19062499999995453,
            "durationTicks": 244,
            "midi": 57,
            "name": "A3",
            "ticks": 409440,
            "time": 300.0375,
            "velocity": 0.7795275590551181
          },
          {
            "duration": 0.17578125,
            "durationTicks": 225,
            "midi": 55,
            "name": "G3",
            "ticks": 409680,
            "time": 300.225,
            "velocity": 0.7244094488188977
          },
          {
            "duration": 0.375,
            "durationTicks": 480,
            "midi": 57,
            "name": "A3",
            "ticks": 409920,
            "time": 300.4125,
            "velocity": 0.7952755905511811
          },
          {
            "duration": 0.375,
            "durationTicks": 480,
            "midi": 54,
            "name": "F#3",
            "ticks": 410400,
            "time": 300.7875,
            "velocity": 0.7244094488188977
          },
          {
            "duration": 0.19062499999995453,
            "durationTicks": 244,
            "midi": 51,
            "name": "D#3",
            "ticks": 410880,
            "time": 301.1625,
            "velocity": 0.7637795275590551
          },
          {
            "duration": 0.19062499999995453,
            "durationTicks": 244,
            "midi": 57,
            "name": "A3",
            "ticks": 411120,
            "time": 301.35,
            "velocity": 0.84251968503937
          },
          {
            "duration": 0.19062499999995453,
            "durationTicks": 244,
            "midi": 59,
            "name": "B3",
            "ticks": 411360,
            "time": 301.5375,
            "velocity": 0.7952755905511811
          },
          {
            "duration": 0.17578125,
            "durationTicks": 225,
            "midi": 60,
            "name": "C4",
            "ticks": 411600,
            "time": 301.725,
            "velocity": 0.8110236220472441
          },
          {
            "duration": 0.19062499999995453,
            "durationTicks": 244,
            "midi": 59,
            "name": "B3",
            "ticks": 411840,
            "time": 301.9125,
            "velocity": 0.7401574803149606
          },
          {
            "duration": 0.19062499999995453,
            "durationTicks": 244,
            "midi": 57,
            "name": "A3",
            "ticks": 412080,
            "time": 302.1,
            "velocity": 0.7086614173228346
          },
          {
            "duration": 0.19062499999995453,
            "durationTicks": 244,
            "midi": 55,
            "name": "G3",
            "ticks": 412320,
            "time": 302.2875,
            "velocity": 0.7559055118110236
          },
          {
            "duration": 0.17578125,
            "durationTicks": 225,
            "midi": 54,
            "name": "F#3",
            "ticks": 412560,
            "time": 302.475,
            "velocity": 0.7559055118110236
          },
          {
            "duration": 0.375,
            "durationTicks": 480,
            "midi": 55,
            "name": "G3",
            "ticks": 412800,
            "time": 302.6625,
            "velocity": 0.7874015748031497
          },
          {
            "duration": 0.375,
            "durationTicks": 480,
            "midi": 52,
            "name": "E3",
            "ticks": 413280,
            "time": 303.0375,
            "velocity": 0.7559055118110236
          },
          {
            "duration": 0.375,
            "durationTicks": 480,
            "midi": 40,
            "name": "E2",
            "ticks": 413760,
            "time": 303.4125,
            "velocity": 0.7007874015748031
          },
          {
            "duration": 0.19062499999995453,
            "durationTicks": 244,
            "midi": 55,
            "name": "G3",
            "ticks": 414240,
            "time": 303.7875,
            "velocity": 0.8661417322834646
          },
          {
            "duration": 0.19062499999995453,
            "durationTicks": 244,
            "midi": 54,
            "name": "F#3",
            "ticks": 414480,
            "time": 303.975,
            "velocity": 0.7559055118110236
          },
          {
            "duration": 0.19062499999995453,
            "durationTicks": 244,
            "midi": 57,
            "name": "A3",
            "ticks": 414720,
            "time": 304.1625,
            "velocity": 0.7874015748031497
          },
          {
            "duration": 0.19062499999995453,
            "durationTicks": 244,
            "midi": 55,
            "name": "G3",
            "ticks": 414960,
            "time": 304.35,
            "velocity": 0.7952755905511811
          },
          {
            "duration": 0.19062499999995453,
            "durationTicks": 244,
            "midi": 54,
            "name": "F#3",
            "ticks": 415200,
            "time": 304.5375,
            "velocity": 0.7086614173228346
          },
          {
            "duration": 0.17578125,
            "durationTicks": 225,
            "midi": 52,
            "name": "E3",
            "ticks": 415440,
            "time": 304.725,
            "velocity": 0.7322834645669292
          },
          {
            "duration": 0.19062499999995453,
            "durationTicks": 244,
            "midi": 53,
            "name": "F3",
            "ticks": 415680,
            "time": 304.9125,
            "velocity": 0.7874015748031497
          },
          {
            "duration": 0.19062499999995453,
            "durationTicks": 244,
            "midi": 52,
            "name": "E3",
            "ticks": 415920,
            "time": 305.1,
            "velocity": 0.7795275590551181
          },
          {
            "duration": 0.17578125,
            "durationTicks": 225,
            "midi": 53,
            "name": "F3",
            "ticks": 416160,
            "time": 305.2875,
            "velocity": 0.8110236220472441
          },
          {
            "duration": 0.1875,
            "durationTicks": 240,
            "midi": 57,
            "name": "A3",
            "ticks": 416400,
            "time": 305.475,
            "velocity": 0.7952755905511811
          },
          {
            "duration": 0.19062499999995453,
            "durationTicks": 244,
            "midi": 53,
            "name": "F3",
            "ticks": 416640,
            "time": 305.6625,
            "velocity": 0.7244094488188977
          },
          {
            "duration": 0.19062499999995453,
            "durationTicks": 244,
            "midi": 52,
            "name": "E3",
            "ticks": 416880,
            "time": 305.85,
            "velocity": 0.7874015748031497
          },
          {
            "duration": 0.17578125,
            "durationTicks": 225,
            "midi": 53,
            "name": "F3",
            "ticks": 417120,
            "time": 306.0375,
            "velocity": 0.7874015748031497
          },
          {
            "duration": 0.1875,
            "durationTicks": 240,
            "midi": 57,
            "name": "A3",
            "ticks": 417360,
            "time": 306.225,
            "velocity": 0.8267716535433071
          },
          {
            "duration": 0.19062499999995453,
            "durationTicks": 244,
            "midi": 60,
            "name": "C4",
            "ticks": 417600,
            "time": 306.4125,
            "velocity": 0.8346456692913385
          },
          {
            "duration": 0.19062499999995453,
            "durationTicks": 244,
            "midi": 59,
            "name": "B3",
            "ticks": 417840,
            "time": 306.6,
            "velocity": 0.7480314960629921
          },
          {
            "duration": 0.17578125,
            "durationTicks": 225,
            "midi": 60,
            "name": "C4",
            "ticks": 418080,
            "time": 306.7875,
            "velocity": 0.8110236220472441
          },
          {
            "duration": 0.1875,
            "durationTicks": 240,
            "midi": 57,
            "name": "A3",
            "ticks": 418320,
            "time": 306.975,
            "velocity": 0.7322834645669292
          },
          {
            "duration": 0.0703125,
            "durationTicks": 90,
            "midi": 63,
            "name": "D#4",
            "ticks": 418560,
            "time": 307.1625,
            "velocity": 0.8661417322834646
          },
          {
            "duration": 0.0703125,
            "durationTicks": 90,
            "midi": 64,
            "name": "E4",
            "ticks": 418673,
            "time": 307.25078125,
            "velocity": 0.8661417322834646
          },
          {
            "duration": 0.06796874999997726,
            "durationTicks": 87,
            "midi": 63,
            "name": "D#4",
            "ticks": 418781,
            "time": 307.33515625,
            "velocity": 0.8661417322834646
          },
          {
            "duration": 0.0648437499999659,
            "durationTicks": 83,
            "midi": 64,
            "name": "E4",
            "ticks": 418886,
            "time": 307.4171875,
            "velocity": 0.8661417322834646
          },
          {
            "duration": 0.06093750000002274,
            "durationTicks": 78,
            "midi": 63,
            "name": "D#4",
            "ticks": 418988,
            "time": 307.496875,
            "velocity": 0.8661417322834646
          },
          {
            "duration": 0.05859375,
            "durationTicks": 75,
            "midi": 64,
            "name": "E4",
            "ticks": 419085,
            "time": 307.57265625,
            "velocity": 0.8661417322834646
          },
          {
            "duration": 0.05859375,
            "durationTicks": 75,
            "midi": 63,
            "name": "D#4",
            "ticks": 419179,
            "time": 307.64609375,
            "velocity": 0.8661417322834646
          },
          {
            "duration": 0.05859375,
            "durationTicks": 75,
            "midi": 64,
            "name": "E4",
            "ticks": 419273,
            "time": 307.71953125,
            "velocity": 0.8661417322834646
          },
          {
            "duration": 0.05859375,
            "durationTicks": 75,
            "midi": 63,
            "name": "D#4",
            "ticks": 419370,
            "time": 307.7953125,
            "velocity": 0.8661417322834646
          },
          {
            "duration": 0.06171875000001137,
            "durationTicks": 79,
            "midi": 64,
            "name": "E4",
            "ticks": 419471,
            "time": 307.87421875,
            "velocity": 0.8661417322834646
          },
          {
            "duration": 0.0648437499999659,
            "durationTicks": 83,
            "midi": 63,
            "name": "D#4",
            "ticks": 419576,
            "time": 307.95625,
            "velocity": 0.8661417322834646
          },
          {
            "duration": 0.05546874999998863,
            "durationTicks": 71,
            "midi": 64,
            "name": "E4",
            "ticks": 419685,
            "time": 308.04140625,
            "velocity": 0.8661417322834646
          },
          {
            "duration": 0.1875,
            "durationTicks": 240,
            "midi": 60,
            "name": "C4",
            "ticks": 419760,
            "time": 308.1,
            "velocity": 0.7244094488188977
          },
          {
            "duration": 0.1875,
            "durationTicks": 240,
            "midi": 59,
            "name": "B3",
            "ticks": 420000,
            "time": 308.2875,
            "velocity": 0.7637795275590551
          },
          {
            "duration": 0.1875,
            "durationTicks": 240,
            "midi": 57,
            "name": "A3",
            "ticks": 420240,
            "time": 308.475,
            "velocity": 0.7480314960629921
          },
          {
            "duration": 0.19062499999995453,
            "durationTicks": 244,
            "midi": 55,
            "name": "G3",
            "ticks": 420480,
            "time": 308.6625,
            "velocity": 0.7165354330708661
          },
          {
            "duration": 0.17578125,
            "durationTicks": 225,
            "midi": 54,
            "name": "F#3",
            "ticks": 420720,
            "time": 308.85,
            "velocity": 0.7401574803149606
          },
          {
            "duration": 0.19062499999995453,
            "durationTicks": 244,
            "midi": 57,
            "name": "A3",
            "ticks": 420960,
            "time": 309.0375,
            "velocity": 0.7952755905511811
          },
          {
            "duration": 0.17578125,
            "durationTicks": 225,
            "midi": 51,
            "name": "D#3",
            "ticks": 421200,
            "time": 309.225,
            "velocity": 0.7086614173228346
          },
          {
            "duration": 0.375,
            "durationTicks": 480,
            "midi": 43,
            "name": "G2",
            "ticks": 421440,
            "time": 309.4125,
            "velocity": 0.6456692913385826
          },
          {
            "duration": 0.375,
            "durationTicks": 480,
            "midi": 59,
            "name": "B3",
            "ticks": 421920,
            "time": 309.7875,
            "velocity": 0.8346456692913385
          },
          {
            "duration": 0.19062499999995453,
            "durationTicks": 244,
            "midi": 57,
            "name": "A3",
            "ticks": 422400,
            "time": 310.1625,
            "velocity": 0.7322834645669292
          },
          {
            "duration": 0.17578125,
            "durationTicks": 225,
            "midi": 55,
            "name": "G3",
            "ticks": 422640,
            "time": 310.35,
            "velocity": 0.7637795275590551
          },
          {
            "duration": 0.19062499999995453,
            "durationTicks": 244,
            "midi": 54,
            "name": "F#3",
            "ticks": 422880,
            "time": 310.5375,
            "velocity": 0.7007874015748031
          },
          {
            "duration": 0.17578125,
            "durationTicks": 225,
            "midi": 52,
            "name": "E3",
            "ticks": 423120,
            "time": 310.725,
            "velocity": 0.7322834645669292
          },
          {
            "duration": 0.375,
            "durationTicks": 480,
            "midi": 47,
            "name": "B2",
            "ticks": 423360,
            "time": 310.9125,
            "velocity": 0.7559055118110236
          },
          {
            "duration": 0.375,
            "durationTicks": 480,
            "midi": 51,
            "name": "D#3",
            "ticks": 423840,
            "time": 311.2875,
            "velocity": 0.8267716535433071
          },
          {
            "duration": 1.125,
            "durationTicks": 1440,
            "midi": 40,
            "name": "E2",
            "ticks": 424320,
            "time": 311.6625,
            "velocity": 0.6535433070866141
          },
          {
            "duration": 0.19062499999995453,
            "durationTicks": 244,
            "midi": 52,
            "name": "E3",
            "ticks": 425760,
            "time": 312.7875,
            "velocity": 0.8267716535433071
          },
          {
            "duration": 0.19062499999995453,
            "durationTicks": 244,
            "midi": 54,
            "name": "F#3",
            "ticks": 426000,
            "time": 312.975,
            "velocity": 0.8267716535433071
          },
          {
            "duration": 0.19062499999995453,
            "durationTicks": 244,
            "midi": 55,
            "name": "G3",
            "ticks": 426240,
            "time": 313.1625,
            "velocity": 0.8188976377952756
          },
          {
            "duration": 0.19062499999995453,
            "durationTicks": 244,
            "midi": 57,
            "name": "A3",
            "ticks": 426480,
            "time": 313.35,
            "velocity": 0.8031496062992126
          },
          {
            "duration": 0.19062499999995453,
            "durationTicks": 244,
            "midi": 59,
            "name": "B3",
            "ticks": 426720,
            "time": 313.5375,
            "velocity": 0.8031496062992126
          },
          {
            "duration": 0.17578125,
            "durationTicks": 225,
            "midi": 60,
            "name": "C4",
            "ticks": 426960,
            "time": 313.725,
            "velocity": 0.8188976377952756
          },
          {
            "duration": 0.375,
            "durationTicks": 480,
            "midi": 62,
            "name": "D4",
            "ticks": 427200,
            "time": 313.9125,
            "velocity": 0.7874015748031497
          },
          {
            "duration": 0.375,
            "durationTicks": 480,
            "midi": 53,
            "name": "F3",
            "ticks": 427680,
            "time": 314.2875,
            "velocity": 0.6850393700787402
          },
          {
            "duration": 0.375,
            "durationTicks": 480,
            "midi": 47,
            "name": "B2",
            "ticks": 428160,
            "time": 314.6625,
            "velocity": 0.7086614173228346
          },
          {
            "duration": 0.19062499999995453,
            "durationTicks": 244,
            "midi": 52,
            "name": "E3",
            "ticks": 428640,
            "time": 315.0375,
            "velocity": 0.84251968503937
          },
          {
            "duration": 0.19062499999995453,
            "durationTicks": 244,
            "midi": 53,
            "name": "F3",
            "ticks": 428880,
            "time": 315.225,
            "velocity": 0.7952755905511811
          },
          {
            "duration": 0.19062499999995453,
            "durationTicks": 244,
            "midi": 55,
            "name": "G3",
            "ticks": 429120,
            "time": 315.4125,
            "velocity": 0.8031496062992126
          },
          {
            "duration": 0.19062499999995453,
            "durationTicks": 244,
            "midi": 53,
            "name": "F3",
            "ticks": 429360,
            "time": 315.6,
            "velocity": 0.7165354330708661
          },
          {
            "duration": 0.19062499999995453,
            "durationTicks": 244,
            "midi": 52,
            "name": "E3",
            "ticks": 429600,
            "time": 315.7875,
            "velocity": 0.7401574803149606
          },
          {
            "duration": 0.17578125,
            "durationTicks": 225,
            "midi": 50,
            "name": "D3",
            "ticks": 429840,
            "time": 315.975,
            "velocity": 0.7716535433070866
          },
          {
            "duration": 0.375,
            "durationTicks": 480,
            "midi": 52,
            "name": "E3",
            "ticks": 430080,
            "time": 316.1625,
            "velocity": 0.8110236220472441
          },
          {
            "duration": 0.375,
            "durationTicks": 480,
            "midi": 48,
            "name": "C3",
            "ticks": 430560,
            "time": 316.5375,
            "velocity": 0.7637795275590551
          },
          {
            "duration": 0.375,
            "durationTicks": 480,
            "midi": 36,
            "name": "C2",
            "ticks": 431040,
            "time": 316.9125,
            "velocity": 0.6299212598425197
          },
          {
            "duration": 0.19062499999995453,
            "durationTicks": 244,
            "midi": 48,
            "name": "C3",
            "ticks": 431520,
            "time": 317.2875,
            "velocity": 0.8503937007874016
          },
          {
            "duration": 0.19062499999995453,
            "durationTicks": 244,
            "midi": 50,
            "name": "D3",
            "ticks": 431760,
            "time": 317.475,
            "velocity": 0.8031496062992126
          },
          {
            "duration": 0.19062499999995453,
            "durationTicks": 244,
            "midi": 52,
            "name": "E3",
            "ticks": 432000,
            "time": 317.6625,
            "velocity": 0.8110236220472441
          },
          {
            "duration": 0.19062499999995453,
            "durationTicks": 244,
            "midi": 54,
            "name": "F#3",
            "ticks": 432240,
            "time": 317.85,
            "velocity": 0.8031496062992126
          },
          {
            "duration": 0.19062499999995453,
            "durationTicks": 244,
            "midi": 55,
            "name": "G3",
            "ticks": 432480,
            "time": 318.0375,
            "velocity": 0.7795275590551181
          },
          {
            "duration": 0.17578125,
            "durationTicks": 225,
            "midi": 52,
            "name": "E3",
            "ticks": 432720,
            "time": 318.225,
            "velocity": 0.7244094488188977
          },
          {
            "duration": 0.19062499999995453,
            "durationTicks": 244,
            "midi": 49,
            "name": "C#3",
            "ticks": 432960,
            "time": 318.4125,
            "velocity": 0.7716535433070866
          },
          {
            "duration": 0.19062499999995453,
            "durationTicks": 244,
            "midi": 55,
            "name": "G3",
            "ticks": 433200,
            "time": 318.6,
            "velocity": 0.7716535433070866
          },
          {
            "duration": 0.17578125,
            "durationTicks": 225,
            "midi": 57,
            "name": "A3",
            "ticks": 433440,
            "time": 318.7875,
            "velocity": 0.7637795275590551
          },
          {
            "duration": 0.1875,
            "durationTicks": 240,
            "midi": 55,
            "name": "G3",
            "ticks": 433680,
            "time": 318.975,
            "velocity": 0.7322834645669292
          },
          {
            "duration": 0.1875,
            "durationTicks": 240,
            "midi": 57,
            "name": "A3",
            "ticks": 433920,
            "time": 319.1625,
            "velocity": 0.7952755905511811
          },
          {
            "duration": 0.1875,
            "durationTicks": 240,
            "midi": 55,
            "name": "G3",
            "ticks": 434160,
            "time": 319.35,
            "velocity": 0.7559055118110236
          },
          {
            "duration": 0.1875,
            "durationTicks": 240,
            "midi": 49,
            "name": "C#3",
            "ticks": 434400,
            "time": 319.5375,
            "velocity": 0.7007874015748031
          },
          {
            "duration": 0.1875,
            "durationTicks": 240,
            "midi": 55,
            "name": "G3",
            "ticks": 434640,
            "time": 319.725,
            "velocity": 0.8188976377952756
          },
          {
            "duration": 0.19062499999995453,
            "durationTicks": 244,
            "midi": 49,
            "name": "C#3",
            "ticks": 434880,
            "time": 319.9125,
            "velocity": 0.7244094488188977
          },
          {
            "duration": 0.19062499999995453,
            "durationTicks": 244,
            "midi": 55,
            "name": "G3",
            "ticks": 435120,
            "time": 320.1,
            "velocity": 0.8503937007874016
          },
          {
            "duration": 0.17578125,
            "durationTicks": 225,
            "midi": 57,
            "name": "A3",
            "ticks": 435360,
            "time": 320.2875,
            "velocity": 0.7952755905511811
          },
          {
            "duration": 0.1875,
            "durationTicks": 240,
            "midi": 55,
            "name": "G3",
            "ticks": 435600,
            "time": 320.475,
            "velocity": 0.7322834645669292
          },
          {
            "duration": 0.19062499999995453,
            "durationTicks": 244,
            "midi": 48,
            "name": "C3",
            "ticks": 435840,
            "time": 320.6625,
            "velocity": 0.7401574803149606
          },
          {
            "duration": 0.19062499999995453,
            "durationTicks": 244,
            "midi": 54,
            "name": "F#3",
            "ticks": 436080,
            "time": 320.85,
            "velocity": 0.8346456692913385
          },
          {
            "duration": 0.17578125,
            "durationTicks": 225,
            "midi": 57,
            "name": "A3",
            "ticks": 436320,
            "time": 321.0375,
            "velocity": 0.84251968503937
          },
          {
            "duration": 0.1875,
            "durationTicks": 240,
            "midi": 54,
            "name": "F#3",
            "ticks": 436560,
            "time": 321.225,
            "velocity": 0.7480314960629921
          },
          {
            "duration": 0.1875,
            "durationTicks": 240,
            "midi": 57,
            "name": "A3",
            "ticks": 436800,
            "time": 321.4125,
            "velocity": 0.8267716535433071
          },
          {
            "duration": 0.1875,
            "durationTicks": 240,
            "midi": 54,
            "name": "F#3",
            "ticks": 437040,
            "time": 321.6,
            "velocity": 0.7637795275590551
          },
          {
            "duration": 0.1875,
            "durationTicks": 240,
            "midi": 48,
            "name": "C3",
            "ticks": 437280,
            "time": 321.7875,
            "velocity": 0.7007874015748031
          },
          {
            "duration": 0.1875,
            "durationTicks": 240,
            "midi": 54,
            "name": "F#3",
            "ticks": 437520,
            "time": 321.975,
            "velocity": 0.8031496062992126
          },
          {
            "duration": 0.19062499999995453,
            "durationTicks": 244,
            "midi": 48,
            "name": "C3",
            "ticks": 437760,
            "time": 322.1625,
            "velocity": 0.7165354330708661
          },
          {
            "duration": 0.19062499999995453,
            "durationTicks": 244,
            "midi": 54,
            "name": "F#3",
            "ticks": 438000,
            "time": 322.35,
            "velocity": 0.8346456692913385
          },
          {
            "duration": 0.17578125,
            "durationTicks": 225,
            "midi": 57,
            "name": "A3",
            "ticks": 438240,
            "time": 322.5375,
            "velocity": 0.7795275590551181
          },
          {
            "duration": 0.1875,
            "durationTicks": 240,
            "midi": 54,
            "name": "F#3",
            "ticks": 438480,
            "time": 322.725,
            "velocity": 0.7086614173228346
          },
          {
            "duration": 0.1875,
            "durationTicks": 240,
            "midi": 47,
            "name": "B2",
            "ticks": 438720,
            "time": 322.9125,
            "velocity": 0.7559055118110236
          },
          {
            "duration": 0.1703124999999659,
            "durationTicks": 218,
            "midi": 50,
            "name": "D3",
            "ticks": 438960,
            "time": 323.1,
            "velocity": 0.7480314960629921
          },
          {
            "duration": 0.19062499999995453,
            "durationTicks": 244,
            "midi": 52,
            "name": "E3",
            "ticks": 439200,
            "time": 323.2875,
            "velocity": 0.8267716535433071
          },
          {
            "duration": 0.17578125,
            "durationTicks": 225,
            "midi": 53,
            "name": "F3",
            "ticks": 439440,
            "time": 323.475,
            "velocity": 0.8110236220472441
          },
          {
            "duration": 0.1875,
            "durationTicks": 240,
            "midi": 43,
            "name": "G2",
            "ticks": 439680,
            "time": 323.6625,
            "velocity": 0.6692913385826772
          },
          {
            "duration": 0.19062499999995453,
            "durationTicks": 244,
            "midi": 53,
            "name": "F3",
            "ticks": 439920,
            "time": 323.85,
            "velocity": 0.84251968503937
          },
          {
            "duration": 0.19062499999995453,
            "durationTicks": 244,
            "midi": 52,
            "name": "E3",
            "ticks": 440160,
            "time": 324.0375,
            "velocity": 0.7480314960629921
          },
          {
            "duration": 0.17578125,
            "durationTicks": 225,
            "midi": 50,
            "name": "D3",
            "ticks": 440400,
            "time": 324.225,
            "velocity": 0.7165354330708661
          },
          {
            "duration": 0.1875,
            "durationTicks": 240,
            "midi": 52,
            "name": "E3",
            "ticks": 440640,
            "time": 324.4125,
            "velocity": 0.7401574803149606
          },
          {
            "duration": 0.19062499999995453,
            "durationTicks": 244,
            "midi": 62,
            "name": "D4",
            "ticks": 440880,
            "time": 324.6,
            "velocity": 0.9291338582677166
          },
          {
            "duration": 0.19062499999995453,
            "durationTicks": 244,
            "midi": 60,
            "name": "C4",
            "ticks": 441120,
            "time": 324.7875,
            "velocity": 0.7637795275590551
          },
          {
            "duration": 0.17578125,
            "durationTicks": 225,
            "midi": 59,
            "name": "B3",
            "ticks": 441360,
            "time": 324.975,
            "velocity": 0.7401574803149606
          },
          {
            "duration": 0.1875,
            "durationTicks": 240,
            "midi": 54,
            "name": "F#3",
            "ticks": 441600,
            "time": 325.1625,
            "velocity": 0.7086614173228346
          },
          {
            "duration": 0.19062499999995453,
            "durationTicks": 244,
            "midi": 57,
            "name": "A3",
            "ticks": 441840,
            "time": 325.35,
            "velocity": 0.7480314960629921
          },
          {
            "duration": 0.19062499999995453,
            "durationTicks": 244,
            "midi": 59,
            "name": "B3",
            "ticks": 442080,
            "time": 325.5375,
            "velocity": 0.8346456692913385
          },
          {
            "duration": 0.17578125,
            "durationTicks": 225,
            "midi": 60,
            "name": "C4",
            "ticks": 442320,
            "time": 325.725,
            "velocity": 0.7952755905511811
          },
          {
            "duration": 0.1875,
            "durationTicks": 240,
            "midi": 50,
            "name": "D3",
            "ticks": 442560,
            "time": 325.9125,
            "velocity": 0.6850393700787402
          },
          {
            "duration": 0.19062499999995453,
            "durationTicks": 244,
            "midi": 60,
            "name": "C4",
            "ticks": 442800,
            "time": 326.1,
            "velocity": 0.952755905511811
          },
          {
            "duration": 0.19062499999995453,
            "durationTicks": 244,
            "midi": 59,
            "name": "B3",
            "ticks": 443040,
            "time": 326.2875,
            "velocity": 0.7559055118110236
          },
          {
            "duration": 0.17578125,
            "durationTicks": 225,
            "midi": 57,
            "name": "A3",
            "ticks": 443280,
            "time": 326.475,
            "velocity": 0.7401574803149606
          },
          {
            "duration": 0.375,
            "durationTicks": 480,
            "midi": 59,
            "name": "B3",
            "ticks": 443520,
            "time": 326.6625,
            "velocity": 0.8110236220472441
          },
          {
            "duration": 0.375,
            "durationTicks": 480,
            "midi": 43,
            "name": "G2",
            "ticks": 444000,
            "time": 327.0375,
            "velocity": 0.6614173228346457
          },
          {
            "duration": 0.375,
            "durationTicks": 480,
            "midi": 36,
            "name": "C2",
            "ticks": 444480,
            "time": 327.4125,
            "velocity": 0.6929133858267716
          },
          {
            "duration": 0.1875,
            "durationTicks": 240,
            "midi": 59,
            "name": "B3",
            "ticks": 444960,
            "time": 327.7875,
            "velocity": 0.8503937007874016
          },
          {
            "duration": 0.1875,
            "durationTicks": 240,
            "midi": 57,
            "name": "A3",
            "ticks": 445200,
            "time": 327.975,
            "velocity": 0.7322834645669292
          },
          {
            "duration": 0.19062499999995453,
            "durationTicks": 244,
            "midi": 60,
            "name": "C4",
            "ticks": 445440,
            "time": 328.1625,
            "velocity": 0.8188976377952756
          },
          {
            "duration": 0.19062499999995453,
            "durationTicks": 244,
            "midi": 59,
            "name": "B3",
            "ticks": 445680,
            "time": 328.35,
            "velocity": 0.7795275590551181
          },
          {
            "duration": 0.19062499999995453,
            "durationTicks": 244,
            "midi": 57,
            "name": "A3",
            "ticks": 445920,
            "time": 328.5375,
            "velocity": 0.7480314960629921
          },
          {
            "duration": 0.17578125,
            "durationTicks": 225,
            "midi": 55,
            "name": "G3",
            "ticks": 446160,
            "time": 328.725,
            "velocity": 0.7874015748031497
          },
          {
            "duration": 0.375,
            "durationTicks": 480,
            "midi": 50,
            "name": "D3",
            "ticks": 446400,
            "time": 328.9125,
            "velocity": 0.7322834645669292
          },
          {
            "duration": 0.375,
            "durationTicks": 480,
            "midi": 54,
            "name": "F#3",
            "ticks": 446880,
            "time": 329.2875,
            "velocity": 0.8031496062992126
          },
          {
            "duration": 0.19062499999995453,
            "durationTicks": 244,
            "midi": 43,
            "name": "G2",
            "ticks": 447360,
            "time": 329.6625,
            "velocity": 0.6692913385826772
          },
          {
            "duration": 0.19062499999995453,
            "durationTicks": 244,
            "midi": 45,
            "name": "A2",
            "ticks": 447600,
            "time": 329.85,
            "velocity": 0.7716535433070866
          },
          {
            "duration": 0.17578125,
            "durationTicks": 225,
            "midi": 43,
            "name": "G2",
            "ticks": 447840,
            "time": 330.0375,
            "velocity": 0.7637795275590551
          },
          {
            "duration": 0.1875,
            "durationTicks": 240,
            "midi": 47,
            "name": "B2",
            "ticks": 448080,
            "time": 330.225,
            "velocity": 0.8267716535433071
          },
          {
            "duration": 0.19062499999995453,
            "durationTicks": 244,
            "midi": 43,
            "name": "G2",
            "ticks": 448320,
            "time": 330.4125,
            "velocity": 0.7480314960629921
          },
          {
            "duration": 0.19062499999995453,
            "durationTicks": 244,
            "midi": 45,
            "name": "A2",
            "ticks": 448560,
            "time": 330.6,
            "velocity": 0.8188976377952756
          },
          {
            "duration": 0.17578125,
            "durationTicks": 225,
            "midi": 43,
            "name": "G2",
            "ticks": 448800,
            "time": 330.7875,
            "velocity": 0.7401574803149606
          },
          {
            "duration": 0.1875,
            "durationTicks": 240,
            "midi": 48,
            "name": "C3",
            "ticks": 449040,
            "time": 330.975,
            "velocity": 0.8267716535433071
          },
          {
            "duration": 0.19062499999995453,
            "durationTicks": 244,
            "midi": 43,
            "name": "G2",
            "ticks": 449280,
            "time": 331.1625,
            "velocity": 0.7480314960629921
          },
          {
            "duration": 0.19062499999995453,
            "durationTicks": 244,
            "midi": 45,
            "name": "A2",
            "ticks": 449520,
            "time": 331.35,
            "velocity": 0.7874015748031497
          },
          {
            "duration": 0.17578125,
            "durationTicks": 225,
            "midi": 43,
            "name": "G2",
            "ticks": 449760,
            "time": 331.5375,
            "velocity": 0.7322834645669292
          },
          {
            "duration": 0.1875,
            "durationTicks": 240,
            "midi": 50,
            "name": "D3",
            "ticks": 450000,
            "time": 331.725,
            "velocity": 0.8346456692913385
          },
          {
            "duration": 0.19062499999995453,
            "durationTicks": 244,
            "midi": 43,
            "name": "G2",
            "ticks": 450240,
            "time": 331.9125,
            "velocity": 0.7007874015748031
          },
          {
            "duration": 0.19062499999995453,
            "durationTicks": 244,
            "midi": 45,
            "name": "A2",
            "ticks": 450480,
            "time": 332.1,
            "velocity": 0.7716535433070866
          },
          {
            "duration": 0.17578125,
            "durationTicks": 225,
            "midi": 43,
            "name": "G2",
            "ticks": 450720,
            "time": 332.2875,
            "velocity": 0.7401574803149606
          },
          {
            "duration": 0.1875,
            "durationTicks": 240,
            "midi": 52,
            "name": "E3",
            "ticks": 450960,
            "time": 332.475,
            "velocity": 0.84251968503937
          },
          {
            "duration": 0.19062499999995453,
            "durationTicks": 244,
            "midi": 43,
            "name": "G2",
            "ticks": 451200,
            "time": 332.6625,
            "velocity": 0.7322834645669292
          },
          {
            "duration": 0.19062499999995453,
            "durationTicks": 244,
            "midi": 45,
            "name": "A2",
            "ticks": 451440,
            "time": 332.85,
            "velocity": 0.7952755905511811
          },
          {
            "duration": 0.17578125,
            "durationTicks": 225,
            "midi": 43,
            "name": "G2",
            "ticks": 451680,
            "time": 333.0375,
            "velocity": 0.7480314960629921
          },
          {
            "duration": 0.1875,
            "durationTicks": 240,
            "midi": 54,
            "name": "F#3",
            "ticks": 451920,
            "time": 333.225,
            "velocity": 0.8503937007874016
          },
          {
            "duration": 0.19062499999995453,
            "durationTicks": 244,
            "midi": 43,
            "name": "G2",
            "ticks": 452160,
            "time": 333.4125,
            "velocity": 0.6614173228346457
          },
          {
            "duration": 0.19062499999995453,
            "durationTicks": 244,
            "midi": 45,
            "name": "A2",
            "ticks": 452400,
            "time": 333.6,
            "velocity": 0.7952755905511811
          },
          {
            "duration": 0.17578125,
            "durationTicks": 225,
            "midi": 43,
            "name": "G2",
            "ticks": 452640,
            "time": 333.7875,
            "velocity": 0.7401574803149606
          },
          {
            "duration": 0.1875,
            "durationTicks": 240,
            "midi": 55,
            "name": "G3",
            "ticks": 452880,
            "time": 333.975,
            "velocity": 0.889763779527559
          },
          {
            "duration": 0.19062499999995453,
            "durationTicks": 244,
            "midi": 60,
            "name": "C4",
            "ticks": 453120,
            "time": 334.1625,
            "velocity": 0.889763779527559
          },
          {
            "duration": 0.19062499999995453,
            "durationTicks": 244,
            "midi": 59,
            "name": "B3",
            "ticks": 453360,
            "time": 334.35,
            "velocity": 0.7637795275590551
          },
          {
            "duration": 0.19062499999995453,
            "durationTicks": 244,
            "midi": 57,
            "name": "A3",
            "ticks": 453600,
            "time": 334.5375,
            "velocity": 0.7165354330708661
          },
          {
            "duration": 0.19062499999995453,
            "durationTicks": 244,
            "midi": 55,
            "name": "G3",
            "ticks": 453840,
            "time": 334.725,
            "velocity": 0.7480314960629921
          },
          {
            "duration": 0.19062499999995453,
            "durationTicks": 244,
            "midi": 54,
            "name": "F#3",
            "ticks": 454080,
            "time": 334.9125,
            "velocity": 0.7401574803149606
          },
          {
            "duration": 0.19062499999995453,
            "durationTicks": 244,
            "midi": 52,
            "name": "E3",
            "ticks": 454320,
            "time": 335.1,
            "velocity": 0.7322834645669292
          },
          {
            "duration": 0.17578125,
            "durationTicks": 225,
            "midi": 50,
            "name": "D3",
            "ticks": 454560,
            "time": 335.2875,
            "velocity": 0.7401574803149606
          },
          {
            "duration": 0.19062499999995453,
            "durationTicks": 244,
            "midi": 60,
            "name": "C4",
            "ticks": 454800,
            "time": 335.475,
            "velocity": 0.9448818897637795
          },
          {
            "duration": 0.0703125,
            "durationTicks": 90,
            "midi": 59,
            "name": "B3",
            "ticks": 455040,
            "time": 335.6625,
            "velocity": 0.7952755905511811
          },
          {
            "duration": 0.06718750000004547,
            "durationTicks": 86,
            "midi": 60,
            "name": "C4",
            "ticks": 455149,
            "time": 335.74765625,
            "velocity": 0.7952755905511811
          },
          {
            "duration": 0.0640625000000341,
            "durationTicks": 82,
            "midi": 59,
            "name": "B3",
            "ticks": 455254,
            "time": 335.8296875,
            "velocity": 0.7952755905511811
          },
          {
            "duration": 0.05859375,
            "durationTicks": 75,
            "midi": 60,
            "name": "C4",
            "ticks": 455351,
            "time": 335.90546875,
            "velocity": 0.7952755905511811
          },
          {
            "duration": 0.05859375,
            "durationTicks": 75,
            "midi": 59,
            "name": "B3",
            "ticks": 455445,
            "time": 335.97890625,
            "velocity": 0.7952755905511811
          },
          {
            "duration": 0.05859375,
            "durationTicks": 75,
            "midi": 60,
            "name": "C4",
            "ticks": 455543,
            "time": 336.05546875,
            "velocity": 0.7952755905511811
          },
          {
            "duration": 0.0640625000000341,
            "durationTicks": 82,
            "midi": 59,
            "name": "B3",
            "ticks": 455648,
            "time": 336.1375,
            "velocity": 0.7952755905511811
          },
          {
            "duration": 0.009374999999977263,
            "durationTicks": 12,
            "midi": 60,
            "name": "C4",
            "ticks": 455756,
            "time": 336.221875,
            "velocity": 0.7952755905511811
          },
          {
            "duration": 0.17578125,
            "durationTicks": 225,
            "midi": 57,
            "name": "A3",
            "ticks": 455760,
            "time": 336.225,
            "velocity": 0.7559055118110236
          },
          {
            "duration": 0.19062499999995453,
            "durationTicks": 244,
            "midi": 62,
            "name": "D4",
            "ticks": 456000,
            "time": 336.4125,
            "velocity": 0.8740157480314961
          },
          {
            "duration": 0.19062499999995453,
            "durationTicks": 244,
            "midi": 60,
            "name": "C4",
            "ticks": 456240,
            "time": 336.6,
            "velocity": 0.7637795275590551
          },
          {
            "duration": 0.17578125,
            "durationTicks": 225,
            "midi": 62,
            "name": "D4",
            "ticks": 456480,
            "time": 336.7875,
            "velocity": 0.8267716535433071
          },
          {
            "duration": 0.1875,
            "durationTicks": 240,
            "midi": 59,
            "name": "B3",
            "ticks": 456720,
            "time": 336.975,
            "velocity": 0.7716535433070866
          },
          {
            "duration": 0.19062499999995453,
            "durationTicks": 244,
            "midi": 62,
            "name": "D4",
            "ticks": 456960,
            "time": 337.1625,
            "velocity": 0.8110236220472441
          },
          {
            "duration": 0.19062499999995453,
            "durationTicks": 244,
            "midi": 60,
            "name": "C4",
            "ticks": 457200,
            "time": 337.35,
            "velocity": 0.7401574803149606
          },
          {
            "duration": 0.17578125,
            "durationTicks": 225,
            "midi": 62,
            "name": "D4",
            "ticks": 457440,
            "time": 337.5375,
            "velocity": 0.8110236220472441
          },
          {
            "duration": 0.1875,
            "durationTicks": 240,
            "midi": 59,
            "name": "B3",
            "ticks": 457680,
            "time": 337.725,
            "velocity": 0.7322834645669292
          },
          {
            "duration": 0.1875,
            "durationTicks": 240,
            "midi": 52,
            "name": "E3",
            "ticks": 457920,
            "time": 337.9125,
            "velocity": 0.7007874015748031
          },
          {
            "duration": 0.1875,
            "durationTicks": 240,
            "midi": 62,
            "name": "D4",
            "ticks": 458160,
            "time": 338.1,
            "velocity": 0.9133858267716536
          },
          {
            "duration": 0.1875,
            "durationTicks": 240,
            "midi": 60,
            "name": "C4",
            "ticks": 458400,
            "time": 338.2875,
            "velocity": 0.7322834645669292
          },
          {
            "duration": 0.1875,
            "durationTicks": 240,
            "midi": 59,
            "name": "B3",
            "ticks": 458640,
            "time": 338.475,
            "velocity": 0.7480314960629921
          },
          {
            "duration": 0.19062499999995453,
            "durationTicks": 244,
            "midi": 60,
            "name": "C4",
            "ticks": 458880,
            "time": 338.6625,
            "velocity": 0.8031496062992126
          },
          {
            "duration": 0.19062499999995453,
            "durationTicks": 244,
            "midi": 59,
            "name": "B3",
            "ticks": 459120,
            "time": 338.85,
            "velocity": 0.7401574803149606
          },
          {
            "duration": 0.17578125,
            "durationTicks": 225,
            "midi": 60,
            "name": "C4",
            "ticks": 459360,
            "time": 339.0375,
            "velocity": 0.7874015748031497
          },
          {
            "duration": 0.1875,
            "durationTicks": 240,
            "midi": 57,
            "name": "A3",
            "ticks": 459600,
            "time": 339.225,
            "velocity": 0.7401574803149606
          },
          {
            "duration": 0.19062499999995453,
            "durationTicks": 244,
            "midi": 60,
            "name": "C4",
            "ticks": 459840,
            "time": 339.4125,
            "velocity": 0.8740157480314961
          },
          {
            "duration": 0.19062499999995453,
            "durationTicks": 244,
            "midi": 59,
            "name": "B3",
            "ticks": 460080,
            "time": 339.6,
            "velocity": 0.7559055118110236
          },
          {
            "duration": 0.17578125,
            "durationTicks": 225,
            "midi": 60,
            "name": "C4",
            "ticks": 460320,
            "time": 339.7875,
            "velocity": 0.7795275590551181
          },
          {
            "duration": 0.1875,
            "durationTicks": 240,
            "midi": 57,
            "name": "A3",
            "ticks": 460560,
            "time": 339.975,
            "velocity": 0.7480314960629921
          },
          {
            "duration": 0.1875,
            "durationTicks": 240,
            "midi": 50,
            "name": "D3",
            "ticks": 460800,
            "time": 340.1625,
            "velocity": 0.7086614173228346
          },
          {
            "duration": 0.1875,
            "durationTicks": 240,
            "midi": 60,
            "name": "C4",
            "ticks": 461040,
            "time": 340.35,
            "velocity": 0.952755905511811
          },
          {
            "duration": 0.1875,
            "durationTicks": 240,
            "midi": 59,
            "name": "B3",
            "ticks": 461280,
            "time": 340.5375,
            "velocity": 0.7795275590551181
          },
          {
            "duration": 0.1875,
            "durationTicks": 240,
            "midi": 57,
            "name": "A3",
            "ticks": 461520,
            "time": 340.725,
            "velocity": 0.7637795275590551
          },
          {
            "duration": 0.19062499999995453,
            "durationTicks": 244,
            "midi": 59,
            "name": "B3",
            "ticks": 461760,
            "time": 340.9125,
            "velocity": 0.8267716535433071
          },
          {
            "duration": 0.19062499999995453,
            "durationTicks": 244,
            "midi": 57,
            "name": "A3",
            "ticks": 462000,
            "time": 341.1,
            "velocity": 0.7480314960629921
          },
          {
            "duration": 0.17578125,
            "durationTicks": 225,
            "midi": 59,
            "name": "B3",
            "ticks": 462240,
            "time": 341.2875,
            "velocity": 0.7716535433070866
          },
          {
            "duration": 0.1875,
            "durationTicks": 240,
            "midi": 55,
            "name": "G3",
            "ticks": 462480,
            "time": 341.475,
            "velocity": 0.7086614173228346
          },
          {
            "duration": 0.1875,
            "durationTicks": 240,
            "midi": 48,
            "name": "C3",
            "ticks": 462720,
            "time": 341.6625,
            "velocity": 0.7086614173228346
          },
          {
            "duration": 0.1875,
            "durationTicks": 240,
            "midi": 59,
            "name": "B3",
            "ticks": 462960,
            "time": 341.85,
            "velocity": 0.8582677165354331
          },
          {
            "duration": 0.1875,
            "durationTicks": 240,
            "midi": 57,
            "name": "A3",
            "ticks": 463200,
            "time": 342.0375,
            "velocity": 0.7480314960629921
          },
          {
            "duration": 0.1875,
            "durationTicks": 240,
            "midi": 55,
            "name": "G3",
            "ticks": 463440,
            "time": 342.225,
            "velocity": 0.7480314960629921
          },
          {
            "duration": 0.375,
            "durationTicks": 480,
            "midi": 50,
            "name": "D3",
            "ticks": 463680,
            "time": 342.4125,
            "velocity": 0.7007874015748031
          },
          {
            "duration": 0.375,
            "durationTicks": 480,
            "midi": 54,
            "name": "F#3",
            "ticks": 464160,
            "time": 342.7875,
            "velocity": 0.8267716535433071
          },
          {
            "duration": 1.5,
            "durationTicks": 1920,
            "midi": 43,
            "name": "G2",
            "ticks": 464640,
            "time": 343.1625,
            "velocity": 0.7716535433070866
          },
          {
            "duration": 1.5,
            "durationTicks": 1920,
            "midi": 55,
            "name": "G3",
            "ticks": 464640,
            "time": 343.1625,
            "velocity": 0.7716535433070866
          },
          {
            "duration": 1.1999999999999886,
            "durationTicks": 960,
            "midi": 43,
            "name": "G2",
            "ticks": 470880,
            "time": 348.0375,
            "velocity": 0.7559055118110236
          },
          {
            "duration": 1.1999999999999886,
            "durationTicks": 960,
            "midi": 50,
            "name": "D3",
            "ticks": 470880,
            "time": 348.0375,
            "velocity": 0.7559055118110236
          },
          {
            "duration": 1.1999999999999886,
            "durationTicks": 960,
            "midi": 59,
            "name": "B3",
            "ticks": 470880,
            "time": 348.0375,
            "velocity": 0.7559055118110236
          },
          {
            "duration": 1.8000000000000114,
            "durationTicks": 1440,
            "midi": 60,
            "name": "C4",
            "ticks": 471840,
            "time": 349.2375,
            "velocity": 0.8818897637795275
          },
          {
            "duration": 1.1999999999999886,
            "durationTicks": 960,
            "midi": 43,
            "name": "G2",
            "ticks": 471840,
            "time": 349.2375,
            "velocity": 0.5826771653543307
          },
          {
            "duration": 1.1999999999999886,
            "durationTicks": 960,
            "midi": 52,
            "name": "E3",
            "ticks": 471840,
            "time": 349.2375,
            "velocity": 0.5826771653543307
          },
          {
            "duration": 0.6000000000000227,
            "durationTicks": 480,
            "midi": 59,
            "name": "B3",
            "ticks": 473280,
            "time": 351.0375,
            "velocity": 0.7401574803149606
          },
          {
            "duration": 0.2999999999999545,
            "durationTicks": 240,
            "midi": 54,
            "name": "F#3",
            "ticks": 473760,
            "time": 351.63750000000005,
            "velocity": 0.7401574803149606
          },
          {
            "duration": 0.3050000000000068,
            "durationTicks": 244,
            "midi": 57,
            "name": "A3",
            "ticks": 474000,
            "time": 351.9375,
            "velocity": 0.7874015748031497
          },
          {
            "duration": 0.3050000000000068,
            "durationTicks": 244,
            "midi": 59,
            "name": "B3",
            "ticks": 474240,
            "time": 352.2375,
            "velocity": 0.8031496062992126
          },
          {
            "duration": 0.28125,
            "durationTicks": 225,
            "midi": 60,
            "name": "C4",
            "ticks": 474480,
            "time": 352.5375,
            "velocity": 0.8346456692913385
          },
          {
            "duration": 0.06624999999996817,
            "durationTicks": 53,
            "midi": 43,
            "name": "G2",
            "ticks": 474720,
            "time": 352.83750000000003,
            "velocity": 0.7322834645669292
          },
          {
            "duration": 0.06624999999996817,
            "durationTicks": 53,
            "midi": 50,
            "name": "D3",
            "ticks": 474720,
            "time": 352.83750000000003,
            "velocity": 0.7322834645669292
          },
          {
            "duration": 0.06624999999996817,
            "durationTicks": 53,
            "midi": 59,
            "name": "B3",
            "ticks": 474720,
            "time": 352.83750000000003,
            "velocity": 0.7322834645669292
          },
          {
            "duration": 0.06499999999999773,
            "durationTicks": 52,
            "midi": 45,
            "name": "A2",
            "ticks": 474788,
            "time": 352.9225,
            "velocity": 0.7322834645669292
          },
          {
            "duration": 0.06499999999999773,
            "durationTicks": 52,
            "midi": 52,
            "name": "E3",
            "ticks": 474788,
            "time": 352.9225,
            "velocity": 0.7322834645669292
          },
          {
            "duration": 0.06499999999999773,
            "durationTicks": 52,
            "midi": 60,
            "name": "C4",
            "ticks": 474788,
            "time": 352.9225,
            "velocity": 0.7322834645669292
          },
          {
            "duration": 0.06625000000002501,
            "durationTicks": 53,
            "midi": 43,
            "name": "G2",
            "ticks": 474855,
            "time": 353.00625,
            "velocity": 0.7322834645669292
          },
          {
            "duration": 0.06625000000002501,
            "durationTicks": 53,
            "midi": 50,
            "name": "D3",
            "ticks": 474855,
            "time": 353.00625,
            "velocity": 0.7322834645669292
          },
          {
            "duration": 0.06625000000002501,
            "durationTicks": 53,
            "midi": 59,
            "name": "B3",
            "ticks": 474855,
            "time": 353.00625,
            "velocity": 0.7322834645669292
          },
          {
            "duration": 0.06125000000002956,
            "durationTicks": 49,
            "midi": 45,
            "name": "A2",
            "ticks": 474919,
            "time": 353.08625,
            "velocity": 0.7322834645669292
          },
          {
            "duration": 0.06125000000002956,
            "durationTicks": 49,
            "midi": 52,
            "name": "E3",
            "ticks": 474919,
            "time": 353.08625,
            "velocity": 0.7322834645669292
          },
          {
            "duration": 0.06125000000002956,
            "durationTicks": 49,
            "midi": 60,
            "name": "C4",
            "ticks": 474919,
            "time": 353.08625,
            "velocity": 0.7322834645669292
          },
          {
            "duration": 0.060000000000002274,
            "durationTicks": 48,
            "midi": 43,
            "name": "G2",
            "ticks": 474983,
            "time": 353.16625000000005,
            "velocity": 0.7322834645669292
          },
          {
            "duration": 0.060000000000002274,
            "durationTicks": 48,
            "midi": 50,
            "name": "D3",
            "ticks": 474983,
            "time": 353.16625000000005,
            "velocity": 0.7322834645669292
          },
          {
            "duration": 0.060000000000002274,
            "durationTicks": 48,
            "midi": 59,
            "name": "B3",
            "ticks": 474983,
            "time": 353.16625000000005,
            "velocity": 0.7322834645669292
          },
          {
            "duration": 0.05624999999997726,
            "durationTicks": 45,
            "midi": 45,
            "name": "A2",
            "ticks": 475043,
            "time": 353.24125000000004,
            "velocity": 0.7322834645669292
          },
          {
            "duration": 0.05624999999997726,
            "durationTicks": 45,
            "midi": 52,
            "name": "E3",
            "ticks": 475043,
            "time": 353.24125000000004,
            "velocity": 0.7322834645669292
          },
          {
            "duration": 0.05624999999997726,
            "durationTicks": 45,
            "midi": 60,
            "name": "C4",
            "ticks": 475043,
            "time": 353.24125000000004,
            "velocity": 0.7322834645669292
          },
          {
            "duration": 0.05624999999997726,
            "durationTicks": 45,
            "midi": 43,
            "name": "G2",
            "ticks": 475103,
            "time": 353.31625,
            "velocity": 0.7322834645669292
          },
          {
            "duration": 0.05624999999997726,
            "durationTicks": 45,
            "midi": 50,
            "name": "D3",
            "ticks": 475103,
            "time": 353.31625,
            "velocity": 0.7322834645669292
          },
          {
            "duration": 0.05624999999997726,
            "durationTicks": 45,
            "midi": 59,
            "name": "B3",
            "ticks": 475103,
            "time": 353.31625,
            "velocity": 0.7322834645669292
          },
          {
            "duration": 0.056250000000034106,
            "durationTicks": 45,
            "midi": 45,
            "name": "A2",
            "ticks": 475163,
            "time": 353.39125,
            "velocity": 0.7322834645669292
          },
          {
            "duration": 0.056250000000034106,
            "durationTicks": 45,
            "midi": 52,
            "name": "E3",
            "ticks": 475163,
            "time": 353.39125,
            "velocity": 0.7322834645669292
          },
          {
            "duration": 0.056250000000034106,
            "durationTicks": 45,
            "midi": 60,
            "name": "C4",
            "ticks": 475163,
            "time": 353.39125,
            "velocity": 0.7322834645669292
          },
          {
            "duration": 0.056250000000034106,
            "durationTicks": 45,
            "midi": 43,
            "name": "G2",
            "ticks": 475219,
            "time": 353.46125,
            "velocity": 0.7322834645669292
          },
          {
            "duration": 0.056250000000034106,
            "durationTicks": 45,
            "midi": 50,
            "name": "D3",
            "ticks": 475219,
            "time": 353.46125,
            "velocity": 0.7322834645669292
          },
          {
            "duration": 0.056250000000034106,
            "durationTicks": 45,
            "midi": 59,
            "name": "B3",
            "ticks": 475219,
            "time": 353.46125,
            "velocity": 0.7322834645669292
          },
          {
            "duration": 0.056250000000034106,
            "durationTicks": 45,
            "midi": 45,
            "name": "A2",
            "ticks": 475275,
            "time": 353.53125,
            "velocity": 0.7322834645669292
          },
          {
            "duration": 0.056250000000034106,
            "durationTicks": 45,
            "midi": 52,
            "name": "E3",
            "ticks": 475275,
            "time": 353.53125,
            "velocity": 0.7322834645669292
          },
          {
            "duration": 0.056250000000034106,
            "durationTicks": 45,
            "midi": 60,
            "name": "C4",
            "ticks": 475275,
            "time": 353.53125,
            "velocity": 0.7322834645669292
          },
          {
            "duration": 0.05624999999997726,
            "durationTicks": 45,
            "midi": 43,
            "name": "G2",
            "ticks": 475331,
            "time": 353.60125000000005,
            "velocity": 0.7322834645669292
          },
          {
            "duration": 0.05624999999997726,
            "durationTicks": 45,
            "midi": 50,
            "name": "D3",
            "ticks": 475331,
            "time": 353.60125000000005,
            "velocity": 0.7322834645669292
          },
          {
            "duration": 0.05624999999997726,
            "durationTicks": 45,
            "midi": 59,
            "name": "B3",
            "ticks": 475331,
            "time": 353.60125000000005,
            "velocity": 0.7322834645669292
          },
          {
            "duration": 0.05624999999997726,
            "durationTicks": 45,
            "midi": 45,
            "name": "A2",
            "ticks": 475391,
            "time": 353.67625000000004,
            "velocity": 0.7322834645669292
          },
          {
            "duration": 0.05624999999997726,
            "durationTicks": 45,
            "midi": 52,
            "name": "E3",
            "ticks": 475391,
            "time": 353.67625000000004,
            "velocity": 0.7322834645669292
          },
          {
            "duration": 0.05624999999997726,
            "durationTicks": 45,
            "midi": 60,
            "name": "C4",
            "ticks": 475391,
            "time": 353.67625000000004,
            "velocity": 0.7322834645669292
          },
          {
            "duration": 0.05624999999997726,
            "durationTicks": 45,
            "midi": 43,
            "name": "G2",
            "ticks": 475451,
            "time": 353.75125,
            "velocity": 0.7322834645669292
          },
          {
            "duration": 0.05624999999997726,
            "durationTicks": 45,
            "midi": 50,
            "name": "D3",
            "ticks": 475451,
            "time": 353.75125,
            "velocity": 0.7322834645669292
          },
          {
            "duration": 0.05624999999997726,
            "durationTicks": 45,
            "midi": 59,
            "name": "B3",
            "ticks": 475451,
            "time": 353.75125,
            "velocity": 0.7322834645669292
          },
          {
            "duration": 0.056250000000034106,
            "durationTicks": 45,
            "midi": 45,
            "name": "A2",
            "ticks": 475511,
            "time": 353.82625,
            "velocity": 0.7322834645669292
          },
          {
            "duration": 0.056250000000034106,
            "durationTicks": 45,
            "midi": 52,
            "name": "E3",
            "ticks": 475511,
            "time": 353.82625,
            "velocity": 0.7322834645669292
          },
          {
            "duration": 0.056250000000034106,
            "durationTicks": 45,
            "midi": 60,
            "name": "C4",
            "ticks": 475511,
            "time": 353.82625,
            "velocity": 0.7322834645669292
          },
          {
            "duration": 0.06125000000002956,
            "durationTicks": 49,
            "midi": 43,
            "name": "G2",
            "ticks": 475575,
            "time": 353.90625,
            "velocity": 0.7322834645669292
          },
          {
            "duration": 0.06125000000002956,
            "durationTicks": 49,
            "midi": 50,
            "name": "D3",
            "ticks": 475575,
            "time": 353.90625,
            "velocity": 0.7322834645669292
          },
          {
            "duration": 0.06125000000002956,
            "durationTicks": 49,
            "midi": 59,
            "name": "B3",
            "ticks": 475575,
            "time": 353.90625,
            "velocity": 0.7322834645669292
          },
          {
            "duration": 0.04624999999998636,
            "durationTicks": 37,
            "midi": 45,
            "name": "A2",
            "ticks": 475639,
            "time": 353.98625000000004,
            "velocity": 0.7322834645669292
          },
          {
            "duration": 0.04624999999998636,
            "durationTicks": 37,
            "midi": 52,
            "name": "E3",
            "ticks": 475639,
            "time": 353.98625000000004,
            "velocity": 0.7322834645669292
          },
          {
            "duration": 0.04624999999998636,
            "durationTicks": 37,
            "midi": 60,
            "name": "C4",
            "ticks": 475639,
            "time": 353.98625000000004,
            "velocity": 0.7322834645669292
          },
          {
            "duration": 0.6100000000000136,
            "durationTicks": 488,
            "midi": 57,
            "name": "A3",
            "ticks": 475680,
            "time": 354.0375,
            "velocity": 0.7322834645669292
          },
          {
            "duration": 0.5674999999999955,
            "durationTicks": 454,
            "midi": 55,
            "name": "G3",
            "ticks": 476160,
            "time": 354.63750000000005,
            "velocity": 0.7165354330708661
          },
          {
            "duration": 0.6000000000000227,
            "durationTicks": 480,
            "midi": 62,
            "name": "D4",
            "ticks": 476640,
            "time": 355.2375,
            "velocity": 0.905511811023622
          },
          {
            "duration": 0.5999999999999659,
            "durationTicks": 480,
            "midi": 53,
            "name": "F3",
            "ticks": 477120,
            "time": 355.83750000000003,
            "velocity": 0.7165354330708661
          },
          {
            "duration": 0.06625000000002501,
            "durationTicks": 53,
            "midi": 52,
            "name": "E3",
            "ticks": 477600,
            "time": 356.4375,
            "velocity": 0.7086614173228346
          },
          {
            "duration": 0.06499999999999773,
            "durationTicks": 52,
            "midi": 53,
            "name": "F3",
            "ticks": 477668,
            "time": 356.52250000000004,
            "velocity": 0.7086614173228346
          },
          {
            "duration": 0.061249999999972715,
            "durationTicks": 49,
            "midi": 52,
            "name": "E3",
            "ticks": 477731,
            "time": 356.60125000000005,
            "velocity": 0.7086614173228346
          },
          {
            "duration": 0.061249999999972715,
            "durationTicks": 49,
            "midi": 53,
            "name": "F3",
            "ticks": 477795,
            "time": 356.68125000000003,
            "velocity": 0.7086614173228346
          },
          {
            "duration": 0.05624999999997726,
            "durationTicks": 45,
            "midi": 52,
            "name": "E3",
            "ticks": 477855,
            "time": 356.75625,
            "velocity": 0.7086614173228346
          },
          {
            "duration": 0.056250000000034106,
            "durationTicks": 45,
            "midi": 53,
            "name": "F3",
            "ticks": 477915,
            "time": 356.83125,
            "velocity": 0.7086614173228346
          },
          {
            "duration": 0.056250000000034106,
            "durationTicks": 45,
            "midi": 52,
            "name": "E3",
            "ticks": 477971,
            "time": 356.90125,
            "velocity": 0.7086614173228346
          },
          {
            "duration": 0.05624999999997726,
            "durationTicks": 45,
            "midi": 53,
            "name": "F3",
            "ticks": 478028,
            "time": 356.9725,
            "velocity": 0.7086614173228346
          },
          {
            "duration": 0.05624999999997726,
            "durationTicks": 45,
            "midi": 52,
            "name": "E3",
            "ticks": 478084,
            "time": 357.0425,
            "velocity": 0.7086614173228346
          },
          {
            "duration": 0.056250000000034106,
            "durationTicks": 45,
            "midi": 53,
            "name": "F3",
            "ticks": 478144,
            "time": 357.1175,
            "velocity": 0.7086614173228346
          },
          {
            "duration": 0.056250000000034106,
            "durationTicks": 45,
            "midi": 52,
            "name": "E3",
            "ticks": 478204,
            "time": 357.1925,
            "velocity": 0.7086614173228346
          },
          {
            "duration": 0.060000000000002274,
            "durationTicks": 48,
            "midi": 53,
            "name": "F3",
            "ticks": 478268,
            "time": 357.27250000000004,
            "velocity": 0.7086614173228346
          },
          {
            "duration": 0.09874999999999545,
            "durationTicks": 79,
            "midi": 50,
            "name": "D3",
            "ticks": 478320,
            "time": 357.33750000000003,
            "velocity": 0.7716535433070866
          },
          {
            "duration": 0.09874999999999545,
            "durationTicks": 79,
            "midi": 48,
            "name": "C3",
            "ticks": 478399,
            "time": 357.43625000000003,
            "velocity": 0.7874015748031497
          },
          {
            "duration": 0.10250000000002046,
            "durationTicks": 82,
            "midi": 47,
            "name": "B2",
            "ticks": 478478,
            "time": 357.535,
            "velocity": 0.7716535433070866
          },
          {
            "duration": 0.5674999999999955,
            "durationTicks": 454,
            "midi": 48,
            "name": "C3",
            "ticks": 478560,
            "time": 357.63750000000005,
            "velocity": 0.8110236220472441
          },
          {
            "duration": 0.6000000000000227,
            "durationTicks": 480,
            "midi": 52,
            "name": "E3",
            "ticks": 479040,
            "time": 358.2375,
            "velocity": 0.8346456692913385
          },
          {
            "duration": 0.30000000000001137,
            "durationTicks": 240,
            "midi": 54,
            "name": "F#3",
            "ticks": 479520,
            "time": 358.83750000000003,
            "velocity": 0.7874015748031497
          },
          {
            "duration": 0.30499999999995,
            "durationTicks": 244,
            "midi": 60,
            "name": "C4",
            "ticks": 479760,
            "time": 359.13750000000005,
            "velocity": 0.8503937007874016
          },
          {
            "duration": 0.3050000000000068,
            "durationTicks": 244,
            "midi": 59,
            "name": "B3",
            "ticks": 480000,
            "time": 359.4375,
            "velocity": 0.7322834645669292
          },
          {
            "duration": 0.28125,
            "durationTicks": 225,
            "midi": 55,
            "name": "G3",
            "ticks": 480240,
            "time": 359.7375,
            "velocity": 0.7322834645669292
          },
          {
            "duration": 0.06625000000002501,
            "durationTicks": 53,
            "midi": 38,
            "name": "D2",
            "ticks": 480480,
            "time": 360.0375,
            "velocity": 0.7716535433070866
          },
          {
            "duration": 0.06625000000002501,
            "durationTicks": 53,
            "midi": 45,
            "name": "A2",
            "ticks": 480480,
            "time": 360.0375,
            "velocity": 0.7716535433070866
          },
          {
            "duration": 0.06625000000002501,
            "durationTicks": 53,
            "midi": 54,
            "name": "F#3",
            "ticks": 480480,
            "time": 360.0375,
            "velocity": 0.7716535433070866
          },
          {
            "duration": 0.06499999999999773,
            "durationTicks": 52,
            "midi": 40,
            "name": "E2",
            "ticks": 480548,
            "time": 360.1225,
            "velocity": 0.7716535433070866
          },
          {
            "duration": 0.06499999999999773,
            "durationTicks": 52,
            "midi": 47,
            "name": "B2",
            "ticks": 480548,
            "time": 360.1225,
            "velocity": 0.7716535433070866
          },
          {
            "duration": 0.06499999999999773,
            "durationTicks": 52,
            "midi": 55,
            "name": "G3",
            "ticks": 480548,
            "time": 360.1225,
            "velocity": 0.7716535433070866
          },
          {
            "duration": 0.06625000000002501,
            "durationTicks": 53,
            "midi": 38,
            "name": "D2",
            "ticks": 480615,
            "time": 360.20625,
            "velocity": 0.7716535433070866
          },
          {
            "duration": 0.06625000000002501,
            "durationTicks": 53,
            "midi": 45,
            "name": "A2",
            "ticks": 480615,
            "time": 360.20625,
            "velocity": 0.7716535433070866
          },
          {
            "duration": 0.06625000000002501,
            "durationTicks": 53,
            "midi": 54,
            "name": "F#3",
            "ticks": 480615,
            "time": 360.20625,
            "velocity": 0.7716535433070866
          },
          {
            "duration": 0.06125000000002956,
            "durationTicks": 49,
            "midi": 40,
            "name": "E2",
            "ticks": 480679,
            "time": 360.28625,
            "velocity": 0.7716535433070866
          },
          {
            "duration": 0.06125000000002956,
            "durationTicks": 49,
            "midi": 47,
            "name": "B2",
            "ticks": 480679,
            "time": 360.28625,
            "velocity": 0.7716535433070866
          },
          {
            "duration": 0.06125000000002956,
            "durationTicks": 49,
            "midi": 55,
            "name": "G3",
            "ticks": 480679,
            "time": 360.28625,
            "velocity": 0.7716535433070866
          },
          {
            "duration": 0.060000000000002274,
            "durationTicks": 48,
            "midi": 38,
            "name": "D2",
            "ticks": 480743,
            "time": 360.36625000000004,
            "velocity": 0.7716535433070866
          },
          {
            "duration": 0.060000000000002274,
            "durationTicks": 48,
            "midi": 45,
            "name": "A2",
            "ticks": 480743,
            "time": 360.36625000000004,
            "velocity": 0.7716535433070866
          },
          {
            "duration": 0.060000000000002274,
            "durationTicks": 48,
            "midi": 54,
            "name": "F#3",
            "ticks": 480743,
            "time": 360.36625000000004,
            "velocity": 0.7716535433070866
          },
          {
            "duration": 0.05624999999997726,
            "durationTicks": 45,
            "midi": 40,
            "name": "E2",
            "ticks": 480803,
            "time": 360.44125,
            "velocity": 0.7716535433070866
          },
          {
            "duration": 0.05624999999997726,
            "durationTicks": 45,
            "midi": 47,
            "name": "B2",
            "ticks": 480803,
            "time": 360.44125,
            "velocity": 0.7716535433070866
          },
          {
            "duration": 0.05624999999997726,
            "durationTicks": 45,
            "midi": 55,
            "name": "G3",
            "ticks": 480803,
            "time": 360.44125,
            "velocity": 0.7716535433070866
          },
          {
            "duration": 0.056250000000034106,
            "durationTicks": 45,
            "midi": 38,
            "name": "D2",
            "ticks": 480863,
            "time": 360.51625,
            "velocity": 0.7716535433070866
          },
          {
            "duration": 0.056250000000034106,
            "durationTicks": 45,
            "midi": 45,
            "name": "A2",
            "ticks": 480863,
            "time": 360.51625,
            "velocity": 0.7716535433070866
          },
          {
            "duration": 0.056250000000034106,
            "durationTicks": 45,
            "midi": 54,
            "name": "F#3",
            "ticks": 480863,
            "time": 360.51625,
            "velocity": 0.7716535433070866
          },
          {
            "duration": 0.056250000000034106,
            "durationTicks": 45,
            "midi": 40,
            "name": "E2",
            "ticks": 480923,
            "time": 360.59125,
            "velocity": 0.7716535433070866
          },
          {
            "duration": 0.056250000000034106,
            "durationTicks": 45,
            "midi": 47,
            "name": "B2",
            "ticks": 480923,
            "time": 360.59125,
            "velocity": 0.7716535433070866
          },
          {
            "duration": 0.056250000000034106,
            "durationTicks": 45,
            "midi": 55,
            "name": "G3",
            "ticks": 480923,
            "time": 360.59125,
            "velocity": 0.7716535433070866
          },
          {
            "duration": 0.056250000000034106,
            "durationTicks": 45,
            "midi": 38,
            "name": "D2",
            "ticks": 480979,
            "time": 360.66125,
            "velocity": 0.7716535433070866
          },
          {
            "duration": 0.056250000000034106,
            "durationTicks": 45,
            "midi": 45,
            "name": "A2",
            "ticks": 480979,
            "time": 360.66125,
            "velocity": 0.7716535433070866
          },
          {
            "duration": 0.056250000000034106,
            "durationTicks": 45,
            "midi": 54,
            "name": "F#3",
            "ticks": 480979,
            "time": 360.66125,
            "velocity": 0.7716535433070866
          },
          {
            "duration": 0.05624999999997726,
            "durationTicks": 45,
            "midi": 40,
            "name": "E2",
            "ticks": 481035,
            "time": 360.73125000000005,
            "velocity": 0.7716535433070866
          },
          {
            "duration": 0.05624999999997726,
            "durationTicks": 45,
            "midi": 47,
            "name": "B2",
            "ticks": 481035,
            "time": 360.73125000000005,
            "velocity": 0.7716535433070866
          },
          {
            "duration": 0.05624999999997726,
            "durationTicks": 45,
            "midi": 55,
            "name": "G3",
            "ticks": 481035,
            "time": 360.73125000000005,
            "velocity": 0.7716535433070866
          },
          {
            "duration": 0.05624999999997726,
            "durationTicks": 45,
            "midi": 38,
            "name": "D2",
            "ticks": 481091,
            "time": 360.80125000000004,
            "velocity": 0.7716535433070866
          },
          {
            "duration": 0.05624999999997726,
            "durationTicks": 45,
            "midi": 45,
            "name": "A2",
            "ticks": 481091,
            "time": 360.80125000000004,
            "velocity": 0.7716535433070866
          },
          {
            "duration": 0.05624999999997726,
            "durationTicks": 45,
            "midi": 54,
            "name": "F#3",
            "ticks": 481091,
            "time": 360.80125000000004,
            "velocity": 0.7716535433070866
          },
          {
            "duration": 0.05624999999997726,
            "durationTicks": 45,
            "midi": 40,
            "name": "E2",
            "ticks": 481151,
            "time": 360.87625,
            "velocity": 0.7716535433070866
          },
          {
            "duration": 0.05624999999997726,
            "durationTicks": 45,
            "midi": 47,
            "name": "B2",
            "ticks": 481151,
            "time": 360.87625,
            "velocity": 0.7716535433070866
          },
          {
            "duration": 0.05624999999997726,
            "durationTicks": 45,
            "midi": 55,
            "name": "G3",
            "ticks": 481151,
            "time": 360.87625,
            "velocity": 0.7716535433070866
          },
          {
            "duration": 0.056250000000034106,
            "durationTicks": 45,
            "midi": 38,
            "name": "D2",
            "ticks": 481211,
            "time": 360.95125,
            "velocity": 0.7716535433070866
          },
          {
            "duration": 0.056250000000034106,
            "durationTicks": 45,
            "midi": 45,
            "name": "A2",
            "ticks": 481211,
            "time": 360.95125,
            "velocity": 0.7716535433070866
          },
          {
            "duration": 0.056250000000034106,
            "durationTicks": 45,
            "midi": 54,
            "name": "F#3",
            "ticks": 481211,
            "time": 360.95125,
            "velocity": 0.7716535433070866
          },
          {
            "duration": 0.056250000000034106,
            "durationTicks": 45,
            "midi": 40,
            "name": "E2",
            "ticks": 481271,
            "time": 361.02625,
            "velocity": 0.7716535433070866
          },
          {
            "duration": 0.056250000000034106,
            "durationTicks": 45,
            "midi": 47,
            "name": "B2",
            "ticks": 481271,
            "time": 361.02625,
            "velocity": 0.7716535433070866
          },
          {
            "duration": 0.056250000000034106,
            "durationTicks": 45,
            "midi": 55,
            "name": "G3",
            "ticks": 481271,
            "time": 361.02625,
            "velocity": 0.7716535433070866
          },
          {
            "duration": 0.061249999999972715,
            "durationTicks": 49,
            "midi": 38,
            "name": "D2",
            "ticks": 481335,
            "time": 361.10625000000005,
            "velocity": 0.7716535433070866
          },
          {
            "duration": 0.061249999999972715,
            "durationTicks": 49,
            "midi": 45,
            "name": "A2",
            "ticks": 481335,
            "time": 361.10625000000005,
            "velocity": 0.7716535433070866
          },
          {
            "duration": 0.061249999999972715,
            "durationTicks": 49,
            "midi": 54,
            "name": "F#3",
            "ticks": 481335,
            "time": 361.10625000000005,
            "velocity": 0.7716535433070866
          },
          {
            "duration": 0.04624999999998636,
            "durationTicks": 37,
            "midi": 40,
            "name": "E2",
            "ticks": 481399,
            "time": 361.18625000000003,
            "velocity": 0.7716535433070866
          },
          {
            "duration": 0.04624999999998636,
            "durationTicks": 37,
            "midi": 47,
            "name": "B2",
            "ticks": 481399,
            "time": 361.18625000000003,
            "velocity": 0.7716535433070866
          },
          {
            "duration": 0.04624999999998636,
            "durationTicks": 37,
            "midi": 55,
            "name": "G3",
            "ticks": 481399,
            "time": 361.18625000000003,
            "velocity": 0.7716535433070866
          },
          {
            "duration": 0.6100000000000136,
            "durationTicks": 488,
            "midi": 52,
            "name": "E3",
            "ticks": 481440,
            "time": 361.2375,
            "velocity": 0.7244094488188977
          },
          {
            "duration": 0.5674999999999955,
            "durationTicks": 454,
            "midi": 50,
            "name": "D3",
            "ticks": 481920,
            "time": 361.83750000000003,
            "velocity": 0.7401574803149606
          },
          {
            "duration": 0.30000000000001137,
            "durationTicks": 240,
            "midi": 57,
            "name": "A3",
            "ticks": 482400,
            "time": 362.4375,
            "velocity": 0.8110236220472441
          },
          {
            "duration": 0.3050000000000068,
            "durationTicks": 244,
            "midi": 54,
            "name": "F#3",
            "ticks": 482640,
            "time": 362.7375,
            "velocity": 0.7637795275590551
          },
          {
            "duration": 0.3050000000000068,
            "durationTicks": 244,
            "midi": 50,
            "name": "D3",
            "ticks": 482880,
            "time": 363.0375,
            "velocity": 0.7086614173228346
          },
          {
            "duration": 0.28125,
            "durationTicks": 225,
            "midi": 48,
            "name": "C3",
            "ticks": 483120,
            "time": 363.33750000000003,
            "velocity": 0.7480314960629921
          },
          {
            "duration": 0.8999999999999773,
            "durationTicks": 720,
            "midi": 47,
            "name": "B2",
            "ticks": 483360,
            "time": 363.63750000000005,
            "velocity": 0.7322834645669292
          },
          {
            "duration": 0.3050000000000068,
            "durationTicks": 244,
            "midi": 43,
            "name": "G2",
            "ticks": 484080,
            "time": 364.5375,
            "velocity": 0.7244094488188977
          },
          {
            "duration": 0.3050000000000068,
            "durationTicks": 244,
            "midi": 47,
            "name": "B2",
            "ticks": 484320,
            "time": 364.83750000000003,
            "velocity": 0.7795275590551181
          },
          {
            "duration": 0.30499999999995,
            "durationTicks": 244,
            "midi": 50,
            "name": "D3",
            "ticks": 484560,
            "time": 365.13750000000005,
            "velocity": 0.7480314960629921
          },
          {
            "duration": 0.3050000000000068,
            "durationTicks": 244,
            "midi": 55,
            "name": "G3",
            "ticks": 484800,
            "time": 365.4375,
            "velocity": 0.8031496062992126
          },
          {
            "duration": 0.28125,
            "durationTicks": 225,
            "midi": 57,
            "name": "A3",
            "ticks": 485040,
            "time": 365.7375,
            "velocity": 0.8188976377952756
          },
          {
            "duration": 0.30000000000001137,
            "durationTicks": 240,
            "midi": 59,
            "name": "B3",
            "ticks": 485280,
            "time": 366.0375,
            "velocity": 0.7795275590551181
          },
          {
            "duration": 0.3050000000000068,
            "durationTicks": 244,
            "midi": 55,
            "name": "G3",
            "ticks": 485520,
            "time": 366.33750000000003,
            "velocity": 0.7559055118110236
          },
          {
            "duration": 0.30499999999995,
            "durationTicks": 244,
            "midi": 52,
            "name": "E3",
            "ticks": 485760,
            "time": 366.63750000000005,
            "velocity": 0.7165354330708661
          },
          {
            "duration": 0.28125,
            "durationTicks": 225,
            "midi": 50,
            "name": "D3",
            "ticks": 486000,
            "time": 366.9375,
            "velocity": 0.7480314960629921
          },
          {
            "duration": 0.06625000000002501,
            "durationTicks": 53,
            "midi": 49,
            "name": "C#3",
            "ticks": 486240,
            "time": 367.2375,
            "velocity": 0.7716535433070866
          },
          {
            "duration": 0.06499999999999773,
            "durationTicks": 52,
            "midi": 50,
            "name": "D3",
            "ticks": 486308,
            "time": 367.32250000000005,
            "velocity": 0.7716535433070866
          },
          {
            "duration": 0.06125000000002956,
            "durationTicks": 49,
            "midi": 49,
            "name": "C#3",
            "ticks": 486371,
            "time": 367.40125,
            "velocity": 0.7716535433070866
          },
          {
            "duration": 0.061249999999972715,
            "durationTicks": 49,
            "midi": 50,
            "name": "D3",
            "ticks": 486435,
            "time": 367.48125000000005,
            "velocity": 0.7716535433070866
          },
          {
            "duration": 0.05624999999997726,
            "durationTicks": 45,
            "midi": 49,
            "name": "C#3",
            "ticks": 486495,
            "time": 367.55625000000003,
            "velocity": 0.7716535433070866
          },
          {
            "duration": 0.05624999999997726,
            "durationTicks": 45,
            "midi": 50,
            "name": "D3",
            "ticks": 486555,
            "time": 367.63125,
            "velocity": 0.7716535433070866
          },
          {
            "duration": 0.056250000000034106,
            "durationTicks": 45,
            "midi": 49,
            "name": "C#3",
            "ticks": 486611,
            "time": 367.70125,
            "velocity": 0.7716535433070866
          },
          {
            "duration": 0.05624999999997726,
            "durationTicks": 45,
            "midi": 50,
            "name": "D3",
            "ticks": 486668,
            "time": 367.77250000000004,
            "velocity": 0.7716535433070866
          },
          {
            "duration": 0.05624999999997726,
            "durationTicks": 45,
            "midi": 49,
            "name": "C#3",
            "ticks": 486728,
            "time": 367.8475,
            "velocity": 0.7716535433070866
          },
          {
            "duration": 0.056250000000034106,
            "durationTicks": 45,
            "midi": 50,
            "name": "D3",
            "ticks": 486788,
            "time": 367.9225,
            "velocity": 0.7716535433070866
          },
          {
            "duration": 0.061249999999972715,
            "durationTicks": 49,
            "midi": 49,
            "name": "C#3",
            "ticks": 486851,
            "time": 368.00125,
            "velocity": 0.7716535433070866
          },
          {
            "duration": 0.051250000000038654,
            "durationTicks": 41,
            "midi": 50,
            "name": "D3",
            "ticks": 486915,
            "time": 368.08125,
            "velocity": 0.7716535433070866
          },
          {
            "duration": 0.14999999999997726,
            "durationTicks": 120,
            "midi": 45,
            "name": "A2",
            "ticks": 486960,
            "time": 368.13750000000005,
            "velocity": 0.7322834645669292
          },
          {
            "duration": 0.14999999999997726,
            "durationTicks": 120,
            "midi": 47,
            "name": "B2",
            "ticks": 487080,
            "time": 368.2875,
            "velocity": 0.7637795275590551
          },
          {
            "duration": 0.3050000000000068,
            "durationTicks": 244,
            "midi": 49,
            "name": "C#3",
            "ticks": 487200,
            "time": 368.4375,
            "velocity": 0.8031496062992126
          },
          {
            "duration": 0.3050000000000068,
            "durationTicks": 244,
            "midi": 50,
            "name": "D3",
            "ticks": 487440,
            "time": 368.7375,
            "velocity": 0.7795275590551181
          },
          {
            "duration": 0.3050000000000068,
            "durationTicks": 244,
            "midi": 52,
            "name": "E3",
            "ticks": 487680,
            "time": 369.0375,
            "velocity": 0.7480314960629921
          },
          {
            "duration": 0.28125,
            "durationTicks": 225,
            "midi": 54,
            "name": "F#3",
            "ticks": 487920,
            "time": 369.33750000000003,
            "velocity": 0.7874015748031497
          },
          {
            "duration": 0.2999999999999545,
            "durationTicks": 240,
            "midi": 55,
            "name": "G3",
            "ticks": 488160,
            "time": 369.63750000000005,
            "velocity": 0.7874015748031497
          },
          {
            "duration": 0.3050000000000068,
            "durationTicks": 244,
            "midi": 61,
            "name": "C#4",
            "ticks": 488400,
            "time": 369.9375,
            "velocity": 0.889763779527559
          },
          {
            "duration": 0.3050000000000068,
            "durationTicks": 244,
            "midi": 62,
            "name": "D4",
            "ticks": 488640,
            "time": 370.2375,
            "velocity": 0.8267716535433071
          },
          {
            "duration": 0.28125,
            "durationTicks": 225,
            "midi": 61,
            "name": "C#4",
            "ticks": 488880,
            "time": 370.5375,
            "velocity": 0.7637795275590551
          },
          {
            "duration": 0.3050000000000068,
            "durationTicks": 244,
            "midi": 62,
            "name": "D4",
            "ticks": 489120,
            "time": 370.83750000000003,
            "velocity": 0.8031496062992126
          },
          {
            "duration": 0.28125,
            "durationTicks": 225,
            "midi": 57,
            "name": "A3",
            "ticks": 489360,
            "time": 371.13750000000005,
            "velocity": 0.6929133858267716
          },
          {
            "duration": 0.3050000000000068,
            "durationTicks": 244,
            "midi": 55,
            "name": "G3",
            "ticks": 489600,
            "time": 371.4375,
            "velocity": 0.7086614173228346
          },
          {
            "duration": 0.28125,
            "durationTicks": 225,
            "midi": 54,
            "name": "F#3",
            "ticks": 489840,
            "time": 371.7375,
            "velocity": 0.7559055118110236
          },
          {
            "duration": 0.3050000000000068,
            "durationTicks": 244,
            "midi": 52,
            "name": "E3",
            "ticks": 490080,
            "time": 372.0375,
            "velocity": 0.7559055118110236
          },
          {
            "duration": 0.28125,
            "durationTicks": 225,
            "midi": 55,
            "name": "G3",
            "ticks": 490320,
            "time": 372.33750000000003,
            "velocity": 0.8031496062992126
          },
          {
            "duration": 0.30499999999995,
            "durationTicks": 244,
            "midi": 54,
            "name": "F#3",
            "ticks": 490560,
            "time": 372.63750000000005,
            "velocity": 0.7401574803149606
          },
          {
            "duration": 0.28125,
            "durationTicks": 225,
            "midi": 50,
            "name": "D3",
            "ticks": 490800,
            "time": 372.9375,
            "velocity": 0.7165354330708661
          },
          {
            "duration": 0.30000000000001137,
            "durationTicks": 240,
            "midi": 45,
            "name": "A2",
            "ticks": 491040,
            "time": 373.2375,
            "velocity": 0.7244094488188977
          },
          {
            "duration": 0.3050000000000068,
            "durationTicks": 244,
            "midi": 50,
            "name": "D3",
            "ticks": 491280,
            "time": 373.5375,
            "velocity": 0.8031496062992126
          },
          {
            "duration": 0.3050000000000068,
            "durationTicks": 244,
            "midi": 52,
            "name": "E3",
            "ticks": 491520,
            "time": 373.83750000000003,
            "velocity": 0.7952755905511811
          },
          {
            "duration": 0.28125,
            "durationTicks": 225,
            "midi": 49,
            "name": "C#3",
            "ticks": 491760,
            "time": 374.13750000000005,
            "velocity": 0.7401574803149606
          },
          {
            "duration": 1.2000000000000455,
            "durationTicks": 960,
            "midi": 50,
            "name": "D3",
            "ticks": 492000,
            "time": 374.4375,
            "velocity": 0.7716535433070866
          },
          {
            "duration": 1.1999999999999886,
            "durationTicks": 960,
            "midi": 38,
            "name": "D2",
            "ticks": 492960,
            "time": 375.63750000000005,
            "velocity": 0.6692913385826772
          },
          {
            "duration": 1.1999999999999886,
            "durationTicks": 960,
            "midi": 43,
            "name": "G2",
            "ticks": 493920,
            "time": 376.83750000000003,
            "velocity": 0.9291338582677166
          },
          {
            "duration": 1.1999999999999886,
            "durationTicks": 960,
            "midi": 50,
            "name": "D3",
            "ticks": 493920,
            "time": 376.83750000000003,
            "velocity": 0.9291338582677166
          },
          {
            "duration": 1.1999999999999886,
            "durationTicks": 960,
            "midi": 59,
            "name": "B3",
            "ticks": 493920,
            "time": 376.83750000000003,
            "velocity": 0.9291338582677166
          },
          {
            "duration": 1.8000000000000114,
            "durationTicks": 1440,
            "midi": 60,
            "name": "C4",
            "ticks": 494880,
            "time": 378.0375,
            "velocity": 0.9291338582677166
          },
          {
            "duration": 1.1999999999999886,
            "durationTicks": 960,
            "midi": 43,
            "name": "G2",
            "ticks": 494880,
            "time": 378.0375,
            "velocity": 0.5669291338582677
          },
          {
            "duration": 1.1999999999999886,
            "durationTicks": 960,
            "midi": 52,
            "name": "E3",
            "ticks": 494880,
            "time": 378.0375,
            "velocity": 0.5669291338582677
          },
          {
            "duration": 0.6000000000000227,
            "durationTicks": 480,
            "midi": 59,
            "name": "B3",
            "ticks": 496320,
            "time": 379.83750000000003,
            "velocity": 0.7165354330708661
          },
          {
            "duration": 0.2999999999999545,
            "durationTicks": 240,
            "midi": 54,
            "name": "F#3",
            "ticks": 496800,
            "time": 380.43750000000006,
            "velocity": 0.7401574803149606
          },
          {
            "duration": 0.3050000000000068,
            "durationTicks": 244,
            "midi": 57,
            "name": "A3",
            "ticks": 497040,
            "time": 380.7375,
            "velocity": 0.7952755905511811
          },
          {
            "duration": 0.3050000000000068,
            "durationTicks": 244,
            "midi": 59,
            "name": "B3",
            "ticks": 497280,
            "time": 381.0375,
            "velocity": 0.7795275590551181
          },
          {
            "duration": 0.28125,
            "durationTicks": 225,
            "midi": 60,
            "name": "C4",
            "ticks": 497520,
            "time": 381.33750000000003,
            "velocity": 0.8346456692913385
          },
          {
            "duration": 0.06624999999996817,
            "durationTicks": 53,
            "midi": 43,
            "name": "G2",
            "ticks": 497760,
            "time": 381.63750000000005,
            "velocity": 0.7637795275590551
          },
          {
            "duration": 0.06624999999996817,
            "durationTicks": 53,
            "midi": 50,
            "name": "D3",
            "ticks": 497760,
            "time": 381.63750000000005,
            "velocity": 0.7637795275590551
          },
          {
            "duration": 0.06624999999996817,
            "durationTicks": 53,
            "midi": 59,
            "name": "B3",
            "ticks": 497760,
            "time": 381.63750000000005,
            "velocity": 0.7637795275590551
          },
          {
            "duration": 0.06499999999999773,
            "durationTicks": 52,
            "midi": 45,
            "name": "A2",
            "ticks": 497828,
            "time": 381.7225,
            "velocity": 0.7637795275590551
          },
          {
            "duration": 0.06499999999999773,
            "durationTicks": 52,
            "midi": 52,
            "name": "E3",
            "ticks": 497828,
            "time": 381.7225,
            "velocity": 0.7637795275590551
          },
          {
            "duration": 0.06499999999999773,
            "durationTicks": 52,
            "midi": 60,
            "name": "C4",
            "ticks": 497828,
            "time": 381.7225,
            "velocity": 0.7637795275590551
          },
          {
            "duration": 0.06625000000002501,
            "durationTicks": 53,
            "midi": 43,
            "name": "G2",
            "ticks": 497895,
            "time": 381.80625000000003,
            "velocity": 0.7637795275590551
          },
          {
            "duration": 0.06625000000002501,
            "durationTicks": 53,
            "midi": 50,
            "name": "D3",
            "ticks": 497895,
            "time": 381.80625000000003,
            "velocity": 0.7637795275590551
          },
          {
            "duration": 0.06625000000002501,
            "durationTicks": 53,
            "midi": 59,
            "name": "B3",
            "ticks": 497895,
            "time": 381.80625000000003,
            "velocity": 0.7637795275590551
          },
          {
            "duration": 0.06125000000002956,
            "durationTicks": 49,
            "midi": 45,
            "name": "A2",
            "ticks": 497959,
            "time": 381.88625,
            "velocity": 0.7637795275590551
          },
          {
            "duration": 0.06125000000002956,
            "durationTicks": 49,
            "midi": 52,
            "name": "E3",
            "ticks": 497959,
            "time": 381.88625,
            "velocity": 0.7637795275590551
          },
          {
            "duration": 0.06125000000002956,
            "durationTicks": 49,
            "midi": 60,
            "name": "C4",
            "ticks": 497959,
            "time": 381.88625,
            "velocity": 0.7637795275590551
          },
          {
            "duration": 0.060000000000002274,
            "durationTicks": 48,
            "midi": 43,
            "name": "G2",
            "ticks": 498023,
            "time": 381.96625000000006,
            "velocity": 0.7637795275590551
          },
          {
            "duration": 0.060000000000002274,
            "durationTicks": 48,
            "midi": 50,
            "name": "D3",
            "ticks": 498023,
            "time": 381.96625000000006,
            "velocity": 0.7637795275590551
          },
          {
            "duration": 0.060000000000002274,
            "durationTicks": 48,
            "midi": 59,
            "name": "B3",
            "ticks": 498023,
            "time": 381.96625000000006,
            "velocity": 0.7637795275590551
          },
          {
            "duration": 0.05624999999997726,
            "durationTicks": 45,
            "midi": 45,
            "name": "A2",
            "ticks": 498083,
            "time": 382.04125000000005,
            "velocity": 0.7637795275590551
          },
          {
            "duration": 0.05624999999997726,
            "durationTicks": 45,
            "midi": 52,
            "name": "E3",
            "ticks": 498083,
            "time": 382.04125000000005,
            "velocity": 0.7637795275590551
          },
          {
            "duration": 0.05624999999997726,
            "durationTicks": 45,
            "midi": 60,
            "name": "C4",
            "ticks": 498083,
            "time": 382.04125000000005,
            "velocity": 0.7637795275590551
          },
          {
            "duration": 0.05624999999997726,
            "durationTicks": 45,
            "midi": 43,
            "name": "G2",
            "ticks": 498143,
            "time": 382.11625000000004,
            "velocity": 0.7637795275590551
          },
          {
            "duration": 0.05624999999997726,
            "durationTicks": 45,
            "midi": 50,
            "name": "D3",
            "ticks": 498143,
            "time": 382.11625000000004,
            "velocity": 0.7637795275590551
          },
          {
            "duration": 0.05624999999997726,
            "durationTicks": 45,
            "midi": 59,
            "name": "B3",
            "ticks": 498143,
            "time": 382.11625000000004,
            "velocity": 0.7637795275590551
          },
          {
            "duration": 0.056250000000034106,
            "durationTicks": 45,
            "midi": 45,
            "name": "A2",
            "ticks": 498203,
            "time": 382.19125,
            "velocity": 0.7637795275590551
          },
          {
            "duration": 0.056250000000034106,
            "durationTicks": 45,
            "midi": 52,
            "name": "E3",
            "ticks": 498203,
            "time": 382.19125,
            "velocity": 0.7637795275590551
          },
          {
            "duration": 0.056250000000034106,
            "durationTicks": 45,
            "midi": 60,
            "name": "C4",
            "ticks": 498203,
            "time": 382.19125,
            "velocity": 0.7637795275590551
          },
          {
            "duration": 0.056250000000034106,
            "durationTicks": 45,
            "midi": 43,
            "name": "G2",
            "ticks": 498259,
            "time": 382.26125,
            "velocity": 0.7637795275590551
          },
          {
            "duration": 0.056250000000034106,
            "durationTicks": 45,
            "midi": 50,
            "name": "D3",
            "ticks": 498259,
            "time": 382.26125,
            "velocity": 0.7637795275590551
          },
          {
            "duration": 0.056250000000034106,
            "durationTicks": 45,
            "midi": 59,
            "name": "B3",
            "ticks": 498259,
            "time": 382.26125,
            "velocity": 0.7637795275590551
          },
          {
            "duration": 0.056250000000034106,
            "durationTicks": 45,
            "midi": 45,
            "name": "A2",
            "ticks": 498315,
            "time": 382.33125,
            "velocity": 0.7637795275590551
          },
          {
            "duration": 0.056250000000034106,
            "durationTicks": 45,
            "midi": 52,
            "name": "E3",
            "ticks": 498315,
            "time": 382.33125,
            "velocity": 0.7637795275590551
          },
          {
            "duration": 0.056250000000034106,
            "durationTicks": 45,
            "midi": 60,
            "name": "C4",
            "ticks": 498315,
            "time": 382.33125,
            "velocity": 0.7637795275590551
          },
          {
            "duration": 0.05624999999997726,
            "durationTicks": 45,
            "midi": 43,
            "name": "G2",
            "ticks": 498371,
            "time": 382.40125000000006,
            "velocity": 0.7637795275590551
          },
          {
            "duration": 0.05624999999997726,
            "durationTicks": 45,
            "midi": 50,
            "name": "D3",
            "ticks": 498371,
            "time": 382.40125000000006,
            "velocity": 0.7637795275590551
          },
          {
            "duration": 0.05624999999997726,
            "durationTicks": 45,
            "midi": 59,
            "name": "B3",
            "ticks": 498371,
            "time": 382.40125000000006,
            "velocity": 0.7637795275590551
          },
          {
            "duration": 0.05624999999997726,
            "durationTicks": 45,
            "midi": 45,
            "name": "A2",
            "ticks": 498431,
            "time": 382.47625000000005,
            "velocity": 0.7637795275590551
          },
          {
            "duration": 0.05624999999997726,
            "durationTicks": 45,
            "midi": 52,
            "name": "E3",
            "ticks": 498431,
            "time": 382.47625000000005,
            "velocity": 0.7637795275590551
          },
          {
            "duration": 0.05624999999997726,
            "durationTicks": 45,
            "midi": 60,
            "name": "C4",
            "ticks": 498431,
            "time": 382.47625000000005,
            "velocity": 0.7637795275590551
          },
          {
            "duration": 0.05624999999997726,
            "durationTicks": 45,
            "midi": 43,
            "name": "G2",
            "ticks": 498491,
            "time": 382.55125000000004,
            "velocity": 0.7637795275590551
          },
          {
            "duration": 0.05624999999997726,
            "durationTicks": 45,
            "midi": 50,
            "name": "D3",
            "ticks": 498491,
            "time": 382.55125000000004,
            "velocity": 0.7637795275590551
          },
          {
            "duration": 0.05624999999997726,
            "durationTicks": 45,
            "midi": 59,
            "name": "B3",
            "ticks": 498491,
            "time": 382.55125000000004,
            "velocity": 0.7637795275590551
          },
          {
            "duration": 0.056250000000034106,
            "durationTicks": 45,
            "midi": 45,
            "name": "A2",
            "ticks": 498551,
            "time": 382.62625,
            "velocity": 0.7637795275590551
          },
          {
            "duration": 0.056250000000034106,
            "durationTicks": 45,
            "midi": 52,
            "name": "E3",
            "ticks": 498551,
            "time": 382.62625,
            "velocity": 0.7637795275590551
          },
          {
            "duration": 0.056250000000034106,
            "durationTicks": 45,
            "midi": 60,
            "name": "C4",
            "ticks": 498551,
            "time": 382.62625,
            "velocity": 0.7637795275590551
          },
          {
            "duration": 0.06125000000002956,
            "durationTicks": 49,
            "midi": 43,
            "name": "G2",
            "ticks": 498615,
            "time": 382.70625,
            "velocity": 0.7637795275590551
          },
          {
            "duration": 0.06125000000002956,
            "durationTicks": 49,
            "midi": 50,
            "name": "D3",
            "ticks": 498615,
            "time": 382.70625,
            "velocity": 0.7637795275590551
          },
          {
            "duration": 0.06125000000002956,
            "durationTicks": 49,
            "midi": 59,
            "name": "B3",
            "ticks": 498615,
            "time": 382.70625,
            "velocity": 0.7637795275590551
          },
          {
            "duration": 0.04624999999998636,
            "durationTicks": 37,
            "midi": 45,
            "name": "A2",
            "ticks": 498679,
            "time": 382.78625000000005,
            "velocity": 0.7637795275590551
          },
          {
            "duration": 0.04624999999998636,
            "durationTicks": 37,
            "midi": 52,
            "name": "E3",
            "ticks": 498679,
            "time": 382.78625000000005,
            "velocity": 0.7637795275590551
          },
          {
            "duration": 0.04624999999998636,
            "durationTicks": 37,
            "midi": 60,
            "name": "C4",
            "ticks": 498679,
            "time": 382.78625000000005,
            "velocity": 0.7637795275590551
          },
          {
            "duration": 0.6100000000000136,
            "durationTicks": 488,
            "midi": 57,
            "name": "A3",
            "ticks": 498720,
            "time": 382.83750000000003,
            "velocity": 0.7165354330708661
          },
          {
            "duration": 0.5674999999999955,
            "durationTicks": 454,
            "midi": 55,
            "name": "G3",
            "ticks": 499200,
            "time": 383.43750000000006,
            "velocity": 0.7322834645669292
          },
          {
            "duration": 0.6000000000000227,
            "durationTicks": 480,
            "midi": 62,
            "name": "D4",
            "ticks": 499680,
            "time": 384.0375,
            "velocity": 0.8818897637795275
          },
          {
            "duration": 0.5999999999999659,
            "durationTicks": 480,
            "midi": 53,
            "name": "F3",
            "ticks": 500160,
            "time": 384.63750000000005,
            "velocity": 0.7322834645669292
          },
          {
            "duration": 0.06625000000002501,
            "durationTicks": 53,
            "midi": 52,
            "name": "E3",
            "ticks": 500640,
            "time": 385.2375,
            "velocity": 0.7559055118110236
          },
          {
            "duration": 0.06499999999999773,
            "durationTicks": 52,
            "midi": 53,
            "name": "F3",
            "ticks": 500708,
            "time": 385.32250000000005,
            "velocity": 0.7559055118110236
          },
          {
            "duration": 0.061249999999972715,
            "durationTicks": 49,
            "midi": 52,
            "name": "E3",
            "ticks": 500771,
            "time": 385.40125000000006,
            "velocity": 0.7559055118110236
          },
          {
            "duration": 0.061249999999972715,
            "durationTicks": 49,
            "midi": 53,
            "name": "F3",
            "ticks": 500835,
            "time": 385.48125000000005,
            "velocity": 0.7559055118110236
          },
          {
            "duration": 0.05624999999997726,
            "durationTicks": 45,
            "midi": 52,
            "name": "E3",
            "ticks": 500895,
            "time": 385.55625000000003,
            "velocity": 0.7559055118110236
          },
          {
            "duration": 0.056250000000034106,
            "durationTicks": 45,
            "midi": 53,
            "name": "F3",
            "ticks": 500955,
            "time": 385.63125,
            "velocity": 0.7559055118110236
          },
          {
            "duration": 0.056250000000034106,
            "durationTicks": 45,
            "midi": 52,
            "name": "E3",
            "ticks": 501011,
            "time": 385.70125,
            "velocity": 0.7559055118110236
          },
          {
            "duration": 0.05624999999997726,
            "durationTicks": 45,
            "midi": 53,
            "name": "F3",
            "ticks": 501068,
            "time": 385.77250000000004,
            "velocity": 0.7559055118110236
          },
          {
            "duration": 0.05624999999997726,
            "durationTicks": 45,
            "midi": 52,
            "name": "E3",
            "ticks": 501124,
            "time": 385.84250000000003,
            "velocity": 0.7559055118110236
          },
          {
            "duration": 0.056250000000034106,
            "durationTicks": 45,
            "midi": 53,
            "name": "F3",
            "ticks": 501184,
            "time": 385.9175,
            "velocity": 0.7559055118110236
          },
          {
            "duration": 0.056250000000034106,
            "durationTicks": 45,
            "midi": 52,
            "name": "E3",
            "ticks": 501244,
            "time": 385.9925,
            "velocity": 0.7559055118110236
          },
          {
            "duration": 0.060000000000002274,
            "durationTicks": 48,
            "midi": 53,
            "name": "F3",
            "ticks": 501308,
            "time": 386.07250000000005,
            "velocity": 0.7559055118110236
          },
          {
            "duration": 0.09874999999999545,
            "durationTicks": 79,
            "midi": 50,
            "name": "D3",
            "ticks": 501360,
            "time": 386.13750000000005,
            "velocity": 0.7322834645669292
          },
          {
            "duration": 0.09874999999999545,
            "durationTicks": 79,
            "midi": 48,
            "name": "C3",
            "ticks": 501439,
            "time": 386.23625000000004,
            "velocity": 0.7401574803149606
          },
          {
            "duration": 0.10250000000002046,
            "durationTicks": 82,
            "midi": 47,
            "name": "B2",
            "ticks": 501518,
            "time": 386.33500000000004,
            "velocity": 0.7637795275590551
          },
          {
            "duration": 0.5674999999999955,
            "durationTicks": 454,
            "midi": 48,
            "name": "C3",
            "ticks": 501600,
            "time": 386.43750000000006,
            "velocity": 0.7795275590551181
          },
          {
            "duration": 0.6000000000000227,
            "durationTicks": 480,
            "midi": 52,
            "name": "E3",
            "ticks": 502080,
            "time": 387.0375,
            "velocity": 0.8110236220472441
          },
          {
            "duration": 0.30000000000001137,
            "durationTicks": 240,
            "midi": 54,
            "name": "F#3",
            "ticks": 502560,
            "time": 387.63750000000005,
            "velocity": 0.7952755905511811
          },
          {
            "duration": 0.30499999999995,
            "durationTicks": 244,
            "midi": 60,
            "name": "C4",
            "ticks": 502800,
            "time": 387.93750000000006,
            "velocity": 0.8661417322834646
          },
          {
            "duration": 0.3050000000000068,
            "durationTicks": 244,
            "midi": 59,
            "name": "B3",
            "ticks": 503040,
            "time": 388.2375,
            "velocity": 0.7637795275590551
          },
          {
            "duration": 0.28125,
            "durationTicks": 225,
            "midi": 55,
            "name": "G3",
            "ticks": 503280,
            "time": 388.5375,
            "velocity": 0.7244094488188977
          },
          {
            "duration": 0.06625000000002501,
            "durationTicks": 53,
            "midi": 38,
            "name": "D2",
            "ticks": 503520,
            "time": 388.83750000000003,
            "velocity": 0.7401574803149606
          },
          {
            "duration": 0.06625000000002501,
            "durationTicks": 53,
            "midi": 45,
            "name": "A2",
            "ticks": 503520,
            "time": 388.83750000000003,
            "velocity": 0.7401574803149606
          },
          {
            "duration": 0.06625000000002501,
            "durationTicks": 53,
            "midi": 54,
            "name": "F#3",
            "ticks": 503520,
            "time": 388.83750000000003,
            "velocity": 0.7401574803149606
          },
          {
            "duration": 0.06499999999999773,
            "durationTicks": 52,
            "midi": 40,
            "name": "E2",
            "ticks": 503588,
            "time": 388.9225,
            "velocity": 0.7401574803149606
          },
          {
            "duration": 0.06499999999999773,
            "durationTicks": 52,
            "midi": 47,
            "name": "B2",
            "ticks": 503588,
            "time": 388.9225,
            "velocity": 0.7401574803149606
          },
          {
            "duration": 0.06499999999999773,
            "durationTicks": 52,
            "midi": 55,
            "name": "G3",
            "ticks": 503588,
            "time": 388.9225,
            "velocity": 0.7401574803149606
          },
          {
            "duration": 0.06625000000002501,
            "durationTicks": 53,
            "midi": 38,
            "name": "D2",
            "ticks": 503655,
            "time": 389.00625,
            "velocity": 0.7401574803149606
          },
          {
            "duration": 0.06625000000002501,
            "durationTicks": 53,
            "midi": 45,
            "name": "A2",
            "ticks": 503655,
            "time": 389.00625,
            "velocity": 0.7401574803149606
          },
          {
            "duration": 0.06625000000002501,
            "durationTicks": 53,
            "midi": 54,
            "name": "F#3",
            "ticks": 503655,
            "time": 389.00625,
            "velocity": 0.7401574803149606
          },
          {
            "duration": 0.06125000000002956,
            "durationTicks": 49,
            "midi": 40,
            "name": "E2",
            "ticks": 503719,
            "time": 389.08625,
            "velocity": 0.7401574803149606
          },
          {
            "duration": 0.06125000000002956,
            "durationTicks": 49,
            "midi": 47,
            "name": "B2",
            "ticks": 503719,
            "time": 389.08625,
            "velocity": 0.7401574803149606
          },
          {
            "duration": 0.06125000000002956,
            "durationTicks": 49,
            "midi": 55,
            "name": "G3",
            "ticks": 503719,
            "time": 389.08625,
            "velocity": 0.7401574803149606
          },
          {
            "duration": 0.060000000000002274,
            "durationTicks": 48,
            "midi": 38,
            "name": "D2",
            "ticks": 503783,
            "time": 389.16625000000005,
            "velocity": 0.7401574803149606
          },
          {
            "duration": 0.060000000000002274,
            "durationTicks": 48,
            "midi": 45,
            "name": "A2",
            "ticks": 503783,
            "time": 389.16625000000005,
            "velocity": 0.7401574803149606
          },
          {
            "duration": 0.060000000000002274,
            "durationTicks": 48,
            "midi": 54,
            "name": "F#3",
            "ticks": 503783,
            "time": 389.16625000000005,
            "velocity": 0.7401574803149606
          },
          {
            "duration": 0.05624999999997726,
            "durationTicks": 45,
            "midi": 40,
            "name": "E2",
            "ticks": 503843,
            "time": 389.24125000000004,
            "velocity": 0.7401574803149606
          },
          {
            "duration": 0.05624999999997726,
            "durationTicks": 45,
            "midi": 47,
            "name": "B2",
            "ticks": 503843,
            "time": 389.24125000000004,
            "velocity": 0.7401574803149606
          },
          {
            "duration": 0.05624999999997726,
            "durationTicks": 45,
            "midi": 55,
            "name": "G3",
            "ticks": 503843,
            "time": 389.24125000000004,
            "velocity": 0.7401574803149606
          },
          {
            "duration": 0.056250000000034106,
            "durationTicks": 45,
            "midi": 38,
            "name": "D2",
            "ticks": 503903,
            "time": 389.31625,
            "velocity": 0.7401574803149606
          },
          {
            "duration": 0.056250000000034106,
            "durationTicks": 45,
            "midi": 45,
            "name": "A2",
            "ticks": 503903,
            "time": 389.31625,
            "velocity": 0.7401574803149606
          },
          {
            "duration": 0.056250000000034106,
            "durationTicks": 45,
            "midi": 54,
            "name": "F#3",
            "ticks": 503903,
            "time": 389.31625,
            "velocity": 0.7401574803149606
          },
          {
            "duration": 0.056250000000034106,
            "durationTicks": 45,
            "midi": 40,
            "name": "E2",
            "ticks": 503963,
            "time": 389.39125,
            "velocity": 0.7401574803149606
          },
          {
            "duration": 0.056250000000034106,
            "durationTicks": 45,
            "midi": 47,
            "name": "B2",
            "ticks": 503963,
            "time": 389.39125,
            "velocity": 0.7401574803149606
          },
          {
            "duration": 0.056250000000034106,
            "durationTicks": 45,
            "midi": 55,
            "name": "G3",
            "ticks": 503963,
            "time": 389.39125,
            "velocity": 0.7401574803149606
          },
          {
            "duration": 0.056250000000034106,
            "durationTicks": 45,
            "midi": 38,
            "name": "D2",
            "ticks": 504019,
            "time": 389.46125,
            "velocity": 0.7401574803149606
          },
          {
            "duration": 0.056250000000034106,
            "durationTicks": 45,
            "midi": 45,
            "name": "A2",
            "ticks": 504019,
            "time": 389.46125,
            "velocity": 0.7401574803149606
          },
          {
            "duration": 0.056250000000034106,
            "durationTicks": 45,
            "midi": 54,
            "name": "F#3",
            "ticks": 504019,
            "time": 389.46125,
            "velocity": 0.7401574803149606
          },
          {
            "duration": 0.05624999999997726,
            "durationTicks": 45,
            "midi": 40,
            "name": "E2",
            "ticks": 504075,
            "time": 389.53125000000006,
            "velocity": 0.7401574803149606
          },
          {
            "duration": 0.05624999999997726,
            "durationTicks": 45,
            "midi": 47,
            "name": "B2",
            "ticks": 504075,
            "time": 389.53125000000006,
            "velocity": 0.7401574803149606
          },
          {
            "duration": 0.05624999999997726,
            "durationTicks": 45,
            "midi": 55,
            "name": "G3",
            "ticks": 504075,
            "time": 389.53125000000006,
            "velocity": 0.7401574803149606
          },
          {
            "duration": 0.05624999999997726,
            "durationTicks": 45,
            "midi": 38,
            "name": "D2",
            "ticks": 504131,
            "time": 389.60125000000005,
            "velocity": 0.7401574803149606
          },
          {
            "duration": 0.05624999999997726,
            "durationTicks": 45,
            "midi": 45,
            "name": "A2",
            "ticks": 504131,
            "time": 389.60125000000005,
            "velocity": 0.7401574803149606
          },
          {
            "duration": 0.05624999999997726,
            "durationTicks": 45,
            "midi": 54,
            "name": "F#3",
            "ticks": 504131,
            "time": 389.60125000000005,
            "velocity": 0.7401574803149606
          },
          {
            "duration": 0.05624999999997726,
            "durationTicks": 45,
            "midi": 40,
            "name": "E2",
            "ticks": 504191,
            "time": 389.67625000000004,
            "velocity": 0.7401574803149606
          },
          {
            "duration": 0.05624999999997726,
            "durationTicks": 45,
            "midi": 47,
            "name": "B2",
            "ticks": 504191,
            "time": 389.67625000000004,
            "velocity": 0.7401574803149606
          },
          {
            "duration": 0.05624999999997726,
            "durationTicks": 45,
            "midi": 55,
            "name": "G3",
            "ticks": 504191,
            "time": 389.67625000000004,
            "velocity": 0.7401574803149606
          },
          {
            "duration": 0.056250000000034106,
            "durationTicks": 45,
            "midi": 38,
            "name": "D2",
            "ticks": 504251,
            "time": 389.75125,
            "velocity": 0.7401574803149606
          },
          {
            "duration": 0.056250000000034106,
            "durationTicks": 45,
            "midi": 45,
            "name": "A2",
            "ticks": 504251,
            "time": 389.75125,
            "velocity": 0.7401574803149606
          },
          {
            "duration": 0.056250000000034106,
            "durationTicks": 45,
            "midi": 54,
            "name": "F#3",
            "ticks": 504251,
            "time": 389.75125,
            "velocity": 0.7401574803149606
          },
          {
            "duration": 0.056250000000034106,
            "durationTicks": 45,
            "midi": 40,
            "name": "E2",
            "ticks": 504311,
            "time": 389.82625,
            "velocity": 0.7401574803149606
          },
          {
            "duration": 0.056250000000034106,
            "durationTicks": 45,
            "midi": 47,
            "name": "B2",
            "ticks": 504311,
            "time": 389.82625,
            "velocity": 0.7401574803149606
          },
          {
            "duration": 0.056250000000034106,
            "durationTicks": 45,
            "midi": 55,
            "name": "G3",
            "ticks": 504311,
            "time": 389.82625,
            "velocity": 0.7401574803149606
          },
          {
            "duration": 0.061249999999972715,
            "durationTicks": 49,
            "midi": 38,
            "name": "D2",
            "ticks": 504375,
            "time": 389.90625000000006,
            "velocity": 0.7401574803149606
          },
          {
            "duration": 0.061249999999972715,
            "durationTicks": 49,
            "midi": 45,
            "name": "A2",
            "ticks": 504375,
            "time": 389.90625000000006,
            "velocity": 0.7401574803149606
          },
          {
            "duration": 0.061249999999972715,
            "durationTicks": 49,
            "midi": 54,
            "name": "F#3",
            "ticks": 504375,
            "time": 389.90625000000006,
            "velocity": 0.7401574803149606
          },
          {
            "duration": 0.04624999999998636,
            "durationTicks": 37,
            "midi": 40,
            "name": "E2",
            "ticks": 504439,
            "time": 389.98625000000004,
            "velocity": 0.7401574803149606
          },
          {
            "duration": 0.04624999999998636,
            "durationTicks": 37,
            "midi": 47,
            "name": "B2",
            "ticks": 504439,
            "time": 389.98625000000004,
            "velocity": 0.7401574803149606
          },
          {
            "duration": 0.04624999999998636,
            "durationTicks": 37,
            "midi": 55,
            "name": "G3",
            "ticks": 504439,
            "time": 389.98625000000004,
            "velocity": 0.7401574803149606
          },
          {
            "duration": 0.6100000000000136,
            "durationTicks": 488,
            "midi": 52,
            "name": "E3",
            "ticks": 504480,
            "time": 390.0375,
            "velocity": 0.7795275590551181
          },
          {
            "duration": 0.5674999999999955,
            "durationTicks": 454,
            "midi": 50,
            "name": "D3",
            "ticks": 504960,
            "time": 390.63750000000005,
            "velocity": 0.7716535433070866
          },
          {
            "duration": 0.30000000000001137,
            "durationTicks": 240,
            "midi": 57,
            "name": "A3",
            "ticks": 505440,
            "time": 391.2375,
            "velocity": 0.8188976377952756
          },
          {
            "duration": 0.3050000000000068,
            "durationTicks": 244,
            "midi": 54,
            "name": "F#3",
            "ticks": 505680,
            "time": 391.5375,
            "velocity": 0.7874015748031497
          },
          {
            "duration": 0.3050000000000068,
            "durationTicks": 244,
            "midi": 50,
            "name": "D3",
            "ticks": 505920,
            "time": 391.83750000000003,
            "velocity": 0.7322834645669292
          },
          {
            "duration": 0.28125,
            "durationTicks": 225,
            "midi": 48,
            "name": "C3",
            "ticks": 506160,
            "time": 392.13750000000005,
            "velocity": 0.7874015748031497
          },
          {
            "duration": 0.8999999999999773,
            "durationTicks": 720,
            "midi": 47,
            "name": "B2",
            "ticks": 506400,
            "time": 392.43750000000006,
            "velocity": 0.7559055118110236
          },
          {
            "duration": 0.3050000000000068,
            "durationTicks": 244,
            "midi": 43,
            "name": "G2",
            "ticks": 507120,
            "time": 393.33750000000003,
            "velocity": 0.7401574803149606
          },
          {
            "duration": 0.3050000000000068,
            "durationTicks": 244,
            "midi": 47,
            "name": "B2",
            "ticks": 507360,
            "time": 393.63750000000005,
            "velocity": 0.7952755905511811
          },
          {
            "duration": 0.30499999999995,
            "durationTicks": 244,
            "midi": 50,
            "name": "D3",
            "ticks": 507600,
            "time": 393.93750000000006,
            "velocity": 0.7952755905511811
          },
          {
            "duration": 0.3050000000000068,
            "durationTicks": 244,
            "midi": 55,
            "name": "G3",
            "ticks": 507840,
            "time": 394.2375,
            "velocity": 0.8031496062992126
          },
          {
            "duration": 0.28125,
            "durationTicks": 225,
            "midi": 57,
            "name": "A3",
            "ticks": 508080,
            "time": 394.5375,
            "velocity": 0.7874015748031497
          },
          {
            "duration": 0.30000000000001137,
            "durationTicks": 240,
            "midi": 59,
            "name": "B3",
            "ticks": 508320,
            "time": 394.83750000000003,
            "velocity": 0.7480314960629921
          },
          {
            "duration": 0.3050000000000068,
            "durationTicks": 244,
            "midi": 55,
            "name": "G3",
            "ticks": 508560,
            "time": 395.13750000000005,
            "velocity": 0.7401574803149606
          },
          {
            "duration": 0.30499999999995,
            "durationTicks": 244,
            "midi": 52,
            "name": "E3",
            "ticks": 508800,
            "time": 395.43750000000006,
            "velocity": 0.7480314960629921
          },
          {
            "duration": 0.28125,
            "durationTicks": 225,
            "midi": 50,
            "name": "D3",
            "ticks": 509040,
            "time": 395.7375,
            "velocity": 0.7244094488188977
          },
          {
            "duration": 0.06625000000002501,
            "durationTicks": 53,
            "midi": 49,
            "name": "C#3",
            "ticks": 509280,
            "time": 396.0375,
            "velocity": 0.7874015748031497
          },
          {
            "duration": 0.06499999999999773,
            "durationTicks": 52,
            "midi": 50,
            "name": "D3",
            "ticks": 509348,
            "time": 396.12250000000006,
            "velocity": 0.7874015748031497
          },
          {
            "duration": 0.06125000000002956,
            "durationTicks": 49,
            "midi": 49,
            "name": "C#3",
            "ticks": 509411,
            "time": 396.20125,
            "velocity": 0.7874015748031497
          },
          {
            "duration": 0.061249999999972715,
            "durationTicks": 49,
            "midi": 50,
            "name": "D3",
            "ticks": 509475,
            "time": 396.28125000000006,
            "velocity": 0.7874015748031497
          },
          {
            "duration": 0.05624999999997726,
            "durationTicks": 45,
            "midi": 49,
            "name": "C#3",
            "ticks": 509535,
            "time": 396.35625000000005,
            "velocity": 0.7874015748031497
          },
          {
            "duration": 0.05624999999997726,
            "durationTicks": 45,
            "midi": 50,
            "name": "D3",
            "ticks": 509595,
            "time": 396.43125000000003,
            "velocity": 0.7874015748031497
          },
          {
            "duration": 0.05624999999997726,
            "durationTicks": 45,
            "midi": 49,
            "name": "C#3",
            "ticks": 509651,
            "time": 396.50125,
            "velocity": 0.7874015748031497
          },
          {
            "duration": 0.05624999999997726,
            "durationTicks": 45,
            "midi": 50,
            "name": "D3",
            "ticks": 509708,
            "time": 396.57250000000005,
            "velocity": 0.7874015748031497
          },
          {
            "duration": 0.05624999999997726,
            "durationTicks": 45,
            "midi": 49,
            "name": "C#3",
            "ticks": 509768,
            "time": 396.64750000000004,
            "velocity": 0.7874015748031497
          },
          {
            "duration": 0.056250000000034106,
            "durationTicks": 45,
            "midi": 50,
            "name": "D3",
            "ticks": 509828,
            "time": 396.7225,
            "velocity": 0.7874015748031497
          },
          {
            "duration": 0.061249999999972715,
            "durationTicks": 49,
            "midi": 49,
            "name": "C#3",
            "ticks": 509891,
            "time": 396.80125000000004,
            "velocity": 0.7874015748031497
          },
          {
            "duration": 0.05124999999998181,
            "durationTicks": 41,
            "midi": 50,
            "name": "D3",
            "ticks": 509955,
            "time": 396.88125,
            "velocity": 0.7874015748031497
          },
          {
            "duration": 0.14999999999997726,
            "durationTicks": 120,
            "midi": 45,
            "name": "A2",
            "ticks": 510000,
            "time": 396.93750000000006,
            "velocity": 0.7401574803149606
          },
          {
            "duration": 0.14999999999997726,
            "durationTicks": 120,
            "midi": 47,
            "name": "B2",
            "ticks": 510120,
            "time": 397.08750000000003,
            "velocity": 0.7795275590551181
          },
          {
            "duration": 0.3050000000000068,
            "durationTicks": 244,
            "midi": 49,
            "name": "C#3",
            "ticks": 510240,
            "time": 397.2375,
            "velocity": 0.8031496062992126
          },
          {
            "duration": 0.3050000000000068,
            "durationTicks": 244,
            "midi": 50,
            "name": "D3",
            "ticks": 510480,
            "time": 397.5375,
            "velocity": 0.8031496062992126
          },
          {
            "duration": 0.3050000000000068,
            "durationTicks": 244,
            "midi": 52,
            "name": "E3",
            "ticks": 510720,
            "time": 397.83750000000003,
            "velocity": 0.7952755905511811
          },
          {
            "duration": 0.28125,
            "durationTicks": 225,
            "midi": 54,
            "name": "F#3",
            "ticks": 510960,
            "time": 398.13750000000005,
            "velocity": 0.7637795275590551
          },
          {
            "duration": 0.2999999999999545,
            "durationTicks": 240,
            "midi": 55,
            "name": "G3",
            "ticks": 511200,
            "time": 398.43750000000006,
            "velocity": 0.7952755905511811
          },
          {
            "duration": 0.3050000000000068,
            "durationTicks": 244,
            "midi": 61,
            "name": "C#4",
            "ticks": 511440,
            "time": 398.7375,
            "velocity": 0.9133858267716536
          },
          {
            "duration": 0.3050000000000068,
            "durationTicks": 244,
            "midi": 62,
            "name": "D4",
            "ticks": 511680,
            "time": 399.0375,
            "velocity": 0.8267716535433071
          },
          {
            "duration": 0.28125,
            "durationTicks": 225,
            "midi": 61,
            "name": "C#4",
            "ticks": 511920,
            "time": 399.33750000000003,
            "velocity": 0.7480314960629921
          },
          {
            "duration": 0.3050000000000068,
            "durationTicks": 244,
            "midi": 62,
            "name": "D4",
            "ticks": 512160,
            "time": 399.63750000000005,
            "velocity": 0.8110236220472441
          },
          {
            "duration": 0.28125,
            "durationTicks": 225,
            "midi": 57,
            "name": "A3",
            "ticks": 512400,
            "time": 399.93750000000006,
            "velocity": 0.7637795275590551
          },
          {
            "duration": 0.3050000000000068,
            "durationTicks": 244,
            "midi": 55,
            "name": "G3",
            "ticks": 512640,
            "time": 400.2375,
            "velocity": 0.7716535433070866
          },
          {
            "duration": 0.28125,
            "durationTicks": 225,
            "midi": 54,
            "name": "F#3",
            "ticks": 512880,
            "time": 400.5375,
            "velocity": 0.7559055118110236
          },
          {
            "duration": 0.3050000000000068,
            "durationTicks": 244,
            "midi": 52,
            "name": "E3",
            "ticks": 513120,
            "time": 400.83750000000003,
            "velocity": 0.7637795275590551
          },
          {
            "duration": 0.28125,
            "durationTicks": 225,
            "midi": 55,
            "name": "G3",
            "ticks": 513360,
            "time": 401.13750000000005,
            "velocity": 0.7874015748031497
          },
          {
            "duration": 0.30499999999995,
            "durationTicks": 244,
            "midi": 54,
            "name": "F#3",
            "ticks": 513600,
            "time": 401.43750000000006,
            "velocity": 0.7716535433070866
          },
          {
            "duration": 0.28125,
            "durationTicks": 225,
            "midi": 50,
            "name": "D3",
            "ticks": 513840,
            "time": 401.7375,
            "velocity": 0.7559055118110236
          },
          {
            "duration": 0.30000000000001137,
            "durationTicks": 240,
            "midi": 45,
            "name": "A2",
            "ticks": 514080,
            "time": 402.0375,
            "velocity": 0.6850393700787402
          },
          {
            "duration": 0.3050000000000068,
            "durationTicks": 244,
            "midi": 50,
            "name": "D3",
            "ticks": 514320,
            "time": 402.33750000000003,
            "velocity": 0.7874015748031497
          },
          {
            "duration": 0.3050000000000068,
            "durationTicks": 244,
            "midi": 52,
            "name": "E3",
            "ticks": 514560,
            "time": 402.63750000000005,
            "velocity": 0.8188976377952756
          },
          {
            "duration": 0.28125,
            "durationTicks": 225,
            "midi": 49,
            "name": "C#3",
            "ticks": 514800,
            "time": 402.93750000000006,
            "velocity": 0.7322834645669292
          },
          {
            "duration": 1.2000000000000455,
            "durationTicks": 960,
            "midi": 50,
            "name": "D3",
            "ticks": 515040,
            "time": 403.2375,
            "velocity": 0.84251968503937
          },
          {
            "duration": 1.1999999999999886,
            "durationTicks": 960,
            "midi": 38,
            "name": "D2",
            "ticks": 516000,
            "time": 404.43750000000006,
            "velocity": 0.6456692913385826
          },
          {
            "duration": 0.5999999999999659,
            "durationTicks": 480,
            "midi": 38,
            "name": "D2",
            "ticks": 516960,
            "time": 405.63750000000005,
            "velocity": 0.8818897637795275
          },
          {
            "duration": 0.5999999999999659,
            "durationTicks": 480,
            "midi": 45,
            "name": "A2",
            "ticks": 516960,
            "time": 405.63750000000005,
            "velocity": 0.8818897637795275
          },
          {
            "duration": 0.5999999999999659,
            "durationTicks": 480,
            "midi": 54,
            "name": "F#3",
            "ticks": 516960,
            "time": 405.63750000000005,
            "velocity": 0.8818897637795275
          },
          {
            "duration": 0.3050000000000068,
            "durationTicks": 244,
            "midi": 52,
            "name": "E3",
            "ticks": 517440,
            "time": 406.2375,
            "velocity": 0.7559055118110236
          },
          {
            "duration": 0.28125,
            "durationTicks": 225,
            "midi": 50,
            "name": "D3",
            "ticks": 517680,
            "time": 406.5375,
            "velocity": 0.7559055118110236
          },
          {
            "duration": 1.8000000000000114,
            "durationTicks": 1440,
            "midi": 38,
            "name": "D2",
            "ticks": 517920,
            "time": 406.83750000000003,
            "velocity": 0.984251968503937
          },
          {
            "duration": 1.8000000000000114,
            "durationTicks": 1440,
            "midi": 45,
            "name": "A2",
            "ticks": 517920,
            "time": 406.83750000000003,
            "velocity": 0.984251968503937
          },
          {
            "duration": 1.8000000000000114,
            "durationTicks": 1440,
            "midi": 54,
            "name": "F#3",
            "ticks": 517920,
            "time": 406.83750000000003,
            "velocity": 0.984251968503937
          },
          {
            "duration": 1.8000000000000114,
            "durationTicks": 1440,
            "midi": 60,
            "name": "C4",
            "ticks": 517920,
            "time": 406.83750000000003,
            "velocity": 0.984251968503937
          },
          {
            "duration": 0.3050000000000068,
            "durationTicks": 244,
            "midi": 59,
            "name": "B3",
            "ticks": 519360,
            "time": 408.63750000000005,
            "velocity": 0.7637795275590551
          },
          {
            "duration": 0.28125,
            "durationTicks": 225,
            "midi": 57,
            "name": "A3",
            "ticks": 519600,
            "time": 408.93750000000006,
            "velocity": 0.7637795275590551
          },
          {
            "duration": 0.30000000000001137,
            "durationTicks": 240,
            "midi": 43,
            "name": "G2",
            "ticks": 519840,
            "time": 409.2375,
            "velocity": 0.8031496062992126
          },
          {
            "duration": 0.30000000000001137,
            "durationTicks": 240,
            "midi": 50,
            "name": "D3",
            "ticks": 519840,
            "time": 409.2375,
            "velocity": 0.8031496062992126
          },
          {
            "duration": 0.30000000000001137,
            "durationTicks": 240,
            "midi": 59,
            "name": "B3",
            "ticks": 519840,
            "time": 409.2375,
            "velocity": 0.8031496062992126
          },
          {
            "duration": 0.3050000000000068,
            "durationTicks": 244,
            "midi": 54,
            "name": "F#3",
            "ticks": 520080,
            "time": 409.5375,
            "velocity": 0.6929133858267716
          },
          {
            "duration": 0.3050000000000068,
            "durationTicks": 244,
            "midi": 55,
            "name": "G3",
            "ticks": 520320,
            "time": 409.83750000000003,
            "velocity": 0.7716535433070866
          },
          {
            "duration": 0.28125,
            "durationTicks": 225,
            "midi": 52,
            "name": "E3",
            "ticks": 520560,
            "time": 410.13750000000005,
            "velocity": 0.7165354330708661
          },
          {
            "duration": 0.06624999999996817,
            "durationTicks": 53,
            "midi": 45,
            "name": "A2",
            "ticks": 520800,
            "time": 410.43750000000006,
            "velocity": 0.7244094488188977
          },
          {
            "duration": 0.06624999999996817,
            "durationTicks": 53,
            "midi": 51,
            "name": "D#3",
            "ticks": 520800,
            "time": 410.43750000000006,
            "velocity": 0.7244094488188977
          },
          {
            "duration": 0.06499999999999773,
            "durationTicks": 52,
            "midi": 47,
            "name": "B2",
            "ticks": 520868,
            "time": 410.52250000000004,
            "velocity": 0.7244094488188977
          },
          {
            "duration": 0.06499999999999773,
            "durationTicks": 52,
            "midi": 52,
            "name": "E3",
            "ticks": 520868,
            "time": 410.52250000000004,
            "velocity": 0.7244094488188977
          },
          {
            "duration": 0.061249999999972715,
            "durationTicks": 49,
            "midi": 45,
            "name": "A2",
            "ticks": 520931,
            "time": 410.60125000000005,
            "velocity": 0.7244094488188977
          },
          {
            "duration": 0.061249999999972715,
            "durationTicks": 49,
            "midi": 51,
            "name": "D#3",
            "ticks": 520931,
            "time": 410.60125000000005,
            "velocity": 0.7244094488188977
          },
          {
            "duration": 0.06125000000002956,
            "durationTicks": 49,
            "midi": 47,
            "name": "B2",
            "ticks": 520995,
            "time": 410.68125000000003,
            "velocity": 0.7244094488188977
          },
          {
            "duration": 0.06125000000002956,
            "durationTicks": 49,
            "midi": 52,
            "name": "E3",
            "ticks": 520995,
            "time": 410.68125000000003,
            "velocity": 0.7244094488188977
          },
          {
            "duration": 0.056250000000034106,
            "durationTicks": 45,
            "midi": 45,
            "name": "A2",
            "ticks": 521055,
            "time": 410.75625,
            "velocity": 0.7244094488188977
          },
          {
            "duration": 0.056250000000034106,
            "durationTicks": 45,
            "midi": 51,
            "name": "D#3",
            "ticks": 521055,
            "time": 410.75625,
            "velocity": 0.7244094488188977
          },
          {
            "duration": 0.056250000000034106,
            "durationTicks": 45,
            "midi": 47,
            "name": "B2",
            "ticks": 521115,
            "time": 410.83125,
            "velocity": 0.7244094488188977
          },
          {
            "duration": 0.056250000000034106,
            "durationTicks": 45,
            "midi": 52,
            "name": "E3",
            "ticks": 521115,
            "time": 410.83125,
            "velocity": 0.7244094488188977
          },
          {
            "duration": 0.056250000000034106,
            "durationTicks": 45,
            "midi": 45,
            "name": "A2",
            "ticks": 521171,
            "time": 410.90125,
            "velocity": 0.7244094488188977
          },
          {
            "duration": 0.056250000000034106,
            "durationTicks": 45,
            "midi": 51,
            "name": "D#3",
            "ticks": 521171,
            "time": 410.90125,
            "velocity": 0.7244094488188977
          },
          {
            "duration": 0.056250000000034106,
            "durationTicks": 45,
            "midi": 47,
            "name": "B2",
            "ticks": 521228,
            "time": 410.9725,
            "velocity": 0.7244094488188977
          },
          {
            "duration": 0.056250000000034106,
            "durationTicks": 45,
            "midi": 52,
            "name": "E3",
            "ticks": 521228,
            "time": 410.9725,
            "velocity": 0.7244094488188977
          },
          {
            "duration": 0.056250000000034106,
            "durationTicks": 45,
            "midi": 45,
            "name": "A2",
            "ticks": 521288,
            "time": 411.0475,
            "velocity": 0.7244094488188977
          },
          {
            "duration": 0.056250000000034106,
            "durationTicks": 45,
            "midi": 51,
            "name": "D#3",
            "ticks": 521288,
            "time": 411.0475,
            "velocity": 0.7244094488188977
          },
          {
            "duration": 0.05624999999997726,
            "durationTicks": 45,
            "midi": 47,
            "name": "B2",
            "ticks": 521348,
            "time": 411.12250000000006,
            "velocity": 0.7244094488188977
          },
          {
            "duration": 0.05624999999997726,
            "durationTicks": 45,
            "midi": 52,
            "name": "E3",
            "ticks": 521348,
            "time": 411.12250000000006,
            "velocity": 0.7244094488188977
          },
          {
            "duration": 0.06125000000002956,
            "durationTicks": 49,
            "midi": 45,
            "name": "A2",
            "ticks": 521411,
            "time": 411.20125,
            "velocity": 0.7244094488188977
          },
          {
            "duration": 0.06125000000002956,
            "durationTicks": 49,
            "midi": 51,
            "name": "D#3",
            "ticks": 521411,
            "time": 411.20125,
            "velocity": 0.7244094488188977
          },
          {
            "duration": 0.05124999999998181,
            "durationTicks": 41,
            "midi": 47,
            "name": "B2",
            "ticks": 521475,
            "time": 411.28125000000006,
            "velocity": 0.7244094488188977
          },
          {
            "duration": 0.05124999999998181,
            "durationTicks": 41,
            "midi": 52,
            "name": "E3",
            "ticks": 521475,
            "time": 411.28125000000006,
            "velocity": 0.7244094488188977
          },
          {
            "duration": 0.30000000000001137,
            "durationTicks": 240,
            "midi": 52,
            "name": "E3",
            "ticks": 521520,
            "time": 411.33750000000003,
            "velocity": 0.7952755905511811
          },
          {
            "duration": 0.30000000000001137,
            "durationTicks": 240,
            "midi": 54,
            "name": "F#3",
            "ticks": 521760,
            "time": 411.63750000000005,
            "velocity": 0.8031496062992126
          },
          {
            "duration": 0.3050000000000068,
            "durationTicks": 244,
            "midi": 55,
            "name": "G3",
            "ticks": 522000,
            "time": 411.93750000000006,
            "velocity": 0.7716535433070866
          },
          {
            "duration": 0.3050000000000068,
            "durationTicks": 244,
            "midi": 57,
            "name": "A3",
            "ticks": 522240,
            "time": 412.2375,
            "velocity": 0.8188976377952756
          },
          {
            "duration": 0.28125,
            "durationTicks": 225,
            "midi": 59,
            "name": "B3",
            "ticks": 522480,
            "time": 412.5375,
            "velocity": 0.7874015748031497
          },
          {
            "duration": 0.30000000000001137,
            "durationTicks": 240,
            "midi": 51,
            "name": "D#3",
            "ticks": 522720,
            "time": 412.83750000000003,
            "velocity": 0.7007874015748031
          },
          {
            "duration": 0.3050000000000068,
            "durationTicks": 244,
            "midi": 57,
            "name": "A3",
            "ticks": 522960,
            "time": 413.13750000000005,
            "velocity": 0.8267716535433071
          },
          {
            "duration": 0.3050000000000068,
            "durationTicks": 244,
            "midi": 59,
            "name": "B3",
            "ticks": 523200,
            "time": 413.43750000000006,
            "velocity": 0.8110236220472441
          },
          {
            "duration": 0.28125,
            "durationTicks": 225,
            "midi": 60,
            "name": "C4",
            "ticks": 523440,
            "time": 413.7375,
            "velocity": 0.8031496062992126
          },
          {
            "duration": 0.06625000000002501,
            "durationTicks": 53,
            "midi": 59,
            "name": "B3",
            "ticks": 523680,
            "time": 414.0375,
            "velocity": 0.7637795275590551
          },
          {
            "duration": 0.06499999999999773,
            "durationTicks": 52,
            "midi": 60,
            "name": "C4",
            "ticks": 523748,
            "time": 414.12250000000006,
            "velocity": 0.7637795275590551
          },
          {
            "duration": 0.06125000000002956,
            "durationTicks": 49,
            "midi": 59,
            "name": "B3",
            "ticks": 523811,
            "time": 414.20125,
            "velocity": 0.7637795275590551
          },
          {
            "duration": 0.056250000000034106,
            "durationTicks": 45,
            "midi": 60,
            "name": "C4",
            "ticks": 523871,
            "time": 414.27625,
            "velocity": 0.7637795275590551
          },
          {
            "duration": 0.056250000000034106,
            "durationTicks": 45,
            "midi": 59,
            "name": "B3",
            "ticks": 523928,
            "time": 414.3475,
            "velocity": 0.7637795275590551
          },
          {
            "duration": 0.056250000000034106,
            "durationTicks": 45,
            "midi": 60,
            "name": "C4",
            "ticks": 523984,
            "time": 414.4175,
            "velocity": 0.7637795275590551
          },
          {
            "duration": 0.05624999999997726,
            "durationTicks": 45,
            "midi": 59,
            "name": "B3",
            "ticks": 524044,
            "time": 414.49250000000006,
            "velocity": 0.7637795275590551
          },
          {
            "duration": 0.060000000000002274,
            "durationTicks": 48,
            "midi": 60,
            "name": "C4",
            "ticks": 524108,
            "time": 414.57250000000005,
            "velocity": 0.7637795275590551
          },
          {
            "duration": 0.3050000000000068,
            "durationTicks": 244,
            "midi": 57,
            "name": "A3",
            "ticks": 524160,
            "time": 414.63750000000005,
            "velocity": 0.7401574803149606
          },
          {
            "duration": 0.28125,
            "durationTicks": 225,
            "midi": 55,
            "name": "G3",
            "ticks": 524400,
            "time": 414.93750000000006,
            "velocity": 0.7401574803149606
          },
          {
            "duration": 0.3050000000000068,
            "durationTicks": 244,
            "midi": 54,
            "name": "F#3",
            "ticks": 524640,
            "time": 415.2375,
            "velocity": 0.7559055118110236
          },
          {
            "duration": 0.28125,
            "durationTicks": 225,
            "midi": 52,
            "name": "E3",
            "ticks": 524880,
            "time": 415.5375,
            "velocity": 0.7165354330708661
          },
          {
            "duration": 0.3050000000000068,
            "durationTicks": 244,
            "midi": 57,
            "name": "A3",
            "ticks": 525120,
            "time": 415.83750000000003,
            "velocity": 0.7952755905511811
          },
          {
            "duration": 0.28125,
            "durationTicks": 225,
            "midi": 54,
            "name": "F#3",
            "ticks": 525360,
            "time": 416.13750000000005,
            "velocity": 0.7322834645669292
          },
          {
            "duration": 0.3050000000000068,
            "durationTicks": 244,
            "midi": 55,
            "name": "G3",
            "ticks": 525600,
            "time": 416.43750000000006,
            "velocity": 0.8188976377952756
          },
          {
            "duration": 0.28125,
            "durationTicks": 225,
            "midi": 52,
            "name": "E3",
            "ticks": 525840,
            "time": 416.7375,
            "velocity": 0.7401574803149606
          },
          {
            "duration": 0.3050000000000068,
            "durationTicks": 244,
            "midi": 54,
            "name": "F#3",
            "ticks": 526080,
            "time": 417.0375,
            "velocity": 0.8110236220472441
          },
          {
            "duration": 0.28125,
            "durationTicks": 225,
            "midi": 51,
            "name": "D#3",
            "ticks": 526320,
            "time": 417.33750000000003,
            "velocity": 0.7401574803149606
          },
          {
            "duration": 1.1999999999999886,
            "durationTicks": 960,
            "midi": 52,
            "name": "E3",
            "ticks": 526560,
            "time": 417.63750000000005,
            "velocity": 0.8110236220472441
          },
          {
            "duration": 1.1999999999999886,
            "durationTicks": 960,
            "midi": 40,
            "name": "E2",
            "ticks": 527520,
            "time": 418.83750000000003,
            "velocity": 0.6614173228346457
          },
          {
            "duration": 0.9000000000000341,
            "durationTicks": 720,
            "midi": 47,
            "name": "B2",
            "ticks": 528480,
            "time": 420.0375,
            "velocity": 0.8267716535433071
          },
          {
            "duration": 0.9000000000000341,
            "durationTicks": 720,
            "midi": 50,
            "name": "D3",
            "ticks": 528480,
            "time": 420.0375,
            "velocity": 0.8267716535433071
          },
          {
            "duration": 0.14999999999997726,
            "durationTicks": 120,
            "midi": 52,
            "name": "E3",
            "ticks": 529200,
            "time": 420.93750000000006,
            "velocity": 0.8582677165354331
          },
          {
            "duration": 0.14125000000001364,
            "durationTicks": 113,
            "midi": 53,
            "name": "F3",
            "ticks": 529320,
            "time": 421.08750000000003,
            "velocity": 0.7952755905511811
          },
          {
            "duration": 0.9000000000000341,
            "durationTicks": 720,
            "midi": 36,
            "name": "C2",
            "ticks": 529440,
            "time": 421.2375,
            "velocity": 0.7795275590551181
          },
          {
            "duration": 0.9000000000000341,
            "durationTicks": 720,
            "midi": 43,
            "name": "G2",
            "ticks": 529440,
            "time": 421.2375,
            "velocity": 0.7795275590551181
          },
          {
            "duration": 0.9000000000000341,
            "durationTicks": 720,
            "midi": 52,
            "name": "E3",
            "ticks": 529440,
            "time": 421.2375,
            "velocity": 0.7795275590551181
          },
          {
            "duration": 0.30000000000001137,
            "durationTicks": 240,
            "midi": 54,
            "name": "F#3",
            "ticks": 530160,
            "time": 422.13750000000005,
            "velocity": 0.8031496062992126
          },
          {
            "duration": 0.2999999999999545,
            "durationTicks": 240,
            "midi": 55,
            "name": "G3",
            "ticks": 530400,
            "time": 422.43750000000006,
            "velocity": 0.7795275590551181
          },
          {
            "duration": 0.3050000000000068,
            "durationTicks": 244,
            "midi": 57,
            "name": "A3",
            "ticks": 530640,
            "time": 422.7375,
            "velocity": 0.7795275590551181
          },
          {
            "duration": 0.3050000000000068,
            "durationTicks": 244,
            "midi": 59,
            "name": "B3",
            "ticks": 530880,
            "time": 423.0375,
            "velocity": 0.7952755905511811
          },
          {
            "duration": 0.28125,
            "durationTicks": 225,
            "midi": 60,
            "name": "C4",
            "ticks": 531120,
            "time": 423.33750000000003,
            "velocity": 0.8267716535433071
          },
          {
            "duration": 0.30000000000001137,
            "durationTicks": 240,
            "midi": 44,
            "name": "G#2",
            "ticks": 531360,
            "time": 423.63750000000005,
            "velocity": 0.6850393700787402
          },
          {
            "duration": 0.3050000000000068,
            "durationTicks": 244,
            "midi": 62,
            "name": "D4",
            "ticks": 531600,
            "time": 423.93750000000006,
            "velocity": 0.9606299212598425
          },
          {
            "duration": 0.3050000000000068,
            "durationTicks": 244,
            "midi": 60,
            "name": "C4",
            "ticks": 531840,
            "time": 424.2375,
            "velocity": 0.7559055118110236
          },
          {
            "duration": 0.28125,
            "durationTicks": 225,
            "midi": 59,
            "name": "B3",
            "ticks": 532080,
            "time": 424.5375,
            "velocity": 0.7716535433070866
          },
          {
            "duration": 0.8999999999999773,
            "durationTicks": 720,
            "midi": 45,
            "name": "A2",
            "ticks": 532320,
            "time": 424.83750000000003,
            "velocity": 0.8110236220472441
          },
          {
            "duration": 0.8999999999999773,
            "durationTicks": 720,
            "midi": 52,
            "name": "E3",
            "ticks": 532320,
            "time": 424.83750000000003,
            "velocity": 0.8110236220472441
          },
          {
            "duration": 0.8999999999999773,
            "durationTicks": 720,
            "midi": 60,
            "name": "C4",
            "ticks": 532320,
            "time": 424.83750000000003,
            "velocity": 0.8110236220472441
          },
          {
            "duration": 0.30000000000001137,
            "durationTicks": 240,
            "midi": 59,
            "name": "B3",
            "ticks": 533040,
            "time": 425.7375,
            "velocity": 0.7874015748031497
          },
          {
            "duration": 0.30000000000001137,
            "durationTicks": 240,
            "midi": 57,
            "name": "A3",
            "ticks": 533280,
            "time": 426.0375,
            "velocity": 0.7401574803149606
          },
          {
            "duration": 0.30000000000001137,
            "durationTicks": 240,
            "midi": 55,
            "name": "G3",
            "ticks": 533520,
            "time": 426.33750000000003,
            "velocity": 0.7559055118110236
          },
          {
            "duration": 0.30000000000001137,
            "durationTicks": 240,
            "midi": 54,
            "name": "F#3",
            "ticks": 533760,
            "time": 426.63750000000005,
            "velocity": 0.7480314960629921
          },
          {
            "duration": 0.2999999999999545,
            "durationTicks": 240,
            "midi": 52,
            "name": "E3",
            "ticks": 534000,
            "time": 426.93750000000006,
            "velocity": 0.7244094488188977
          },
          {
            "duration": 1.5,
            "durationTicks": 1200,
            "midi": 50,
            "name": "D3",
            "ticks": 534240,
            "time": 427.2375,
            "velocity": 0.7637795275590551
          },
          {
            "duration": 0.30000000000001137,
            "durationTicks": 240,
            "midi": 47,
            "name": "B2",
            "ticks": 534480,
            "time": 427.5375,
            "velocity": 0.5118110236220472
          },
          {
            "duration": 0.30000000000001137,
            "durationTicks": 240,
            "midi": 48,
            "name": "C3",
            "ticks": 534720,
            "time": 427.83750000000003,
            "velocity": 0.5905511811023622
          },
          {
            "duration": 0.30000000000001137,
            "durationTicks": 240,
            "midi": 45,
            "name": "A2",
            "ticks": 534960,
            "time": 428.13750000000005,
            "velocity": 0.5748031496062992
          },
          {
            "duration": 0.2999999999999545,
            "durationTicks": 240,
            "midi": 47,
            "name": "B2",
            "ticks": 535200,
            "time": 428.43750000000006,
            "velocity": 0.7795275590551181
          },
          {
            "duration": 0.3050000000000068,
            "durationTicks": 244,
            "midi": 52,
            "name": "E3",
            "ticks": 535440,
            "time": 428.7375,
            "velocity": 0.7874015748031497
          },
          {
            "duration": 0.3050000000000068,
            "durationTicks": 244,
            "midi": 54,
            "name": "F#3",
            "ticks": 535680,
            "time": 429.0375,
            "velocity": 0.7874015748031497
          },
          {
            "duration": 0.28125,
            "durationTicks": 225,
            "midi": 55,
            "name": "G3",
            "ticks": 535920,
            "time": 429.33750000000003,
            "velocity": 0.7952755905511811
          },
          {
            "duration": 0.3050000000000068,
            "durationTicks": 244,
            "midi": 57,
            "name": "A3",
            "ticks": 536160,
            "time": 429.63750000000005,
            "velocity": 0.7952755905511811
          },
          {
            "duration": 0.28125,
            "durationTicks": 225,
            "midi": 60,
            "name": "C4",
            "ticks": 536400,
            "time": 429.93750000000006,
            "velocity": 0.8346456692913385
          },
          {
            "duration": 0.3050000000000068,
            "durationTicks": 244,
            "midi": 59,
            "name": "B3",
            "ticks": 536640,
            "time": 430.2375,
            "velocity": 0.7637795275590551
          },
          {
            "duration": 0.28125,
            "durationTicks": 225,
            "midi": 55,
            "name": "G3",
            "ticks": 536880,
            "time": 430.5375,
            "velocity": 0.6771653543307087
          },
          {
            "duration": 0.30000000000001137,
            "durationTicks": 240,
            "midi": 50,
            "name": "D3",
            "ticks": 537120,
            "time": 430.83750000000003,
            "velocity": 0.7559055118110236
          },
          {
            "duration": 0.3050000000000068,
            "durationTicks": 244,
            "midi": 55,
            "name": "G3",
            "ticks": 537360,
            "time": 431.13750000000005,
            "velocity": 0.7874015748031497
          },
          {
            "duration": 0.3050000000000068,
            "durationTicks": 244,
            "midi": 57,
            "name": "A3",
            "ticks": 537600,
            "time": 431.43750000000006,
            "velocity": 0.7637795275590551
          },
          {
            "duration": 0.28125,
            "durationTicks": 225,
            "midi": 54,
            "name": "F#3",
            "ticks": 537840,
            "time": 431.7375,
            "velocity": 0.7401574803149606
          },
          {
            "duration": 1.1999999999999886,
            "durationTicks": 960,
            "midi": 55,
            "name": "G3",
            "ticks": 538080,
            "time": 432.0375,
            "velocity": 0.8110236220472441
          },
          {
            "duration": 1.1999999999999886,
            "durationTicks": 960,
            "midi": 43,
            "name": "G2",
            "ticks": 539040,
            "time": 433.2375,
            "velocity": 0.6771653543307087
          },
          {
            "duration": 0.30000000000001137,
            "durationTicks": 480,
            "midi": 43,
            "name": "G2",
            "ticks": 543840,
            "time": 439.2375,
            "velocity": 0.8661417322834646
          },
          {
            "duration": 0.30000000000001137,
            "durationTicks": 480,
            "midi": 50,
            "name": "D3",
            "ticks": 544320,
            "time": 439.5375,
            "velocity": 0.84251968503937
          },
          {
            "duration": 0.5999999999999659,
            "durationTicks": 960,
            "midi": 59,
            "name": "B3",
            "ticks": 544800,
            "time": 439.83750000000003,
            "velocity": 0.8818897637795275
          },
          {
            "duration": 0.3050000000000068,
            "durationTicks": 488,
            "midi": 57,
            "name": "A3",
            "ticks": 545760,
            "time": 440.4375,
            "velocity": 0.7637795275590551
          },
          {
            "duration": 0.152499999999975,
            "durationTicks": 244,
            "midi": 59,
            "name": "B3",
            "ticks": 546240,
            "time": 440.7375,
            "velocity": 0.8188976377952756
          },
          {
            "duration": 0.140625,
            "durationTicks": 225,
            "midi": 60,
            "name": "C4",
            "ticks": 546480,
            "time": 440.8875,
            "velocity": 0.8110236220472441
          },
          {
            "duration": 0.3050000000000068,
            "durationTicks": 488,
            "midi": 59,
            "name": "B3",
            "ticks": 546720,
            "time": 441.0375,
            "velocity": 0.7559055118110236
          },
          {
            "duration": 0.2837499999999977,
            "durationTicks": 454,
            "midi": 57,
            "name": "A3",
            "ticks": 547200,
            "time": 441.33750000000003,
            "velocity": 0.7559055118110236
          },
          {
            "duration": 0.3050000000000068,
            "durationTicks": 488,
            "midi": 55,
            "name": "G3",
            "ticks": 547680,
            "time": 441.6375,
            "velocity": 0.7401574803149606
          },
          {
            "duration": 0.2837499999999977,
            "durationTicks": 454,
            "midi": 54,
            "name": "F#3",
            "ticks": 548160,
            "time": 441.9375,
            "velocity": 0.7244094488188977
          },
          {
            "duration": 0.3050000000000068,
            "durationTicks": 488,
            "midi": 55,
            "name": "G3",
            "ticks": 548640,
            "time": 442.2375,
            "velocity": 0.7874015748031497
          },
          {
            "duration": 0.2837499999999977,
            "durationTicks": 454,
            "midi": 50,
            "name": "D3",
            "ticks": 549120,
            "time": 442.5375,
            "velocity": 0.7165354330708661
          },
          {
            "duration": 0.30499999999995,
            "durationTicks": 488,
            "midi": 52,
            "name": "E3",
            "ticks": 549600,
            "time": 442.83750000000003,
            "velocity": 0.984251968503937
          },
          {
            "duration": 0.2837499999999977,
            "durationTicks": 454,
            "midi": 55,
            "name": "G3",
            "ticks": 550080,
            "time": 443.1375,
            "velocity": 0.8188976377952756
          },
          {
            "duration": 0.3050000000000068,
            "durationTicks": 488,
            "midi": 60,
            "name": "C4",
            "ticks": 550560,
            "time": 443.4375,
            "velocity": 0.8818897637795275
          },
          {
            "duration": 0.2837499999999977,
            "durationTicks": 454,
            "midi": 57,
            "name": "A3",
            "ticks": 551040,
            "time": 443.7375,
            "velocity": 0.7716535433070866
          },
          {
            "duration": 0.3050000000000068,
            "durationTicks": 488,
            "midi": 54,
            "name": "F#3",
            "ticks": 551520,
            "time": 444.0375,
            "velocity": 0.7244094488188977
          },
          {
            "duration": 0.2837499999999977,
            "durationTicks": 454,
            "midi": 62,
            "name": "D4",
            "ticks": 552000,
            "time": 444.33750000000003,
            "velocity": 0.9212598425196851
          },
          {
            "duration": 0.07062500000000682,
            "durationTicks": 113,
            "midi": 43,
            "name": "G2",
            "ticks": 552480,
            "time": 444.6375,
            "velocity": 0.7322834645669292
          },
          {
            "duration": 0.07062500000000682,
            "durationTicks": 113,
            "midi": 50,
            "name": "D3",
            "ticks": 552480,
            "time": 444.6375,
            "velocity": 0.7322834645669292
          },
          {
            "duration": 0.07062500000000682,
            "durationTicks": 113,
            "midi": 59,
            "name": "B3",
            "ticks": 552480,
            "time": 444.6375,
            "velocity": 0.7322834645669292
          },
          {
            "duration": 0.0681250000000091,
            "durationTicks": 109,
            "midi": 45,
            "name": "A2",
            "ticks": 552619,
            "time": 444.724375,
            "velocity": 0.7322834645669292
          },
          {
            "duration": 0.0681250000000091,
            "durationTicks": 109,
            "midi": 52,
            "name": "E3",
            "ticks": 552619,
            "time": 444.724375,
            "velocity": 0.7322834645669292
          },
          {
            "duration": 0.0681250000000091,
            "durationTicks": 109,
            "midi": 60,
            "name": "C4",
            "ticks": 552619,
            "time": 444.724375,
            "velocity": 0.7322834645669292
          },
          {
            "duration": 0.06562499999995453,
            "durationTicks": 105,
            "midi": 43,
            "name": "G2",
            "ticks": 552754,
            "time": 444.80875000000003,
            "velocity": 0.7322834645669292
          },
          {
            "duration": 0.06562499999995453,
            "durationTicks": 105,
            "midi": 50,
            "name": "D3",
            "ticks": 552754,
            "time": 444.80875000000003,
            "velocity": 0.7322834645669292
          },
          {
            "duration": 0.06562499999995453,
            "durationTicks": 105,
            "midi": 59,
            "name": "B3",
            "ticks": 552754,
            "time": 444.80875000000003,
            "velocity": 0.7322834645669292
          },
          {
            "duration": 0.06562500000001137,
            "durationTicks": 105,
            "midi": 45,
            "name": "A2",
            "ticks": 552885,
            "time": 444.890625,
            "velocity": 0.7322834645669292
          },
          {
            "duration": 0.06562500000001137,
            "durationTicks": 105,
            "midi": 52,
            "name": "E3",
            "ticks": 552885,
            "time": 444.890625,
            "velocity": 0.7322834645669292
          },
          {
            "duration": 0.06562500000001137,
            "durationTicks": 105,
            "midi": 60,
            "name": "C4",
            "ticks": 552885,
            "time": 444.890625,
            "velocity": 0.7322834645669292
          },
          {
            "duration": 0.06312500000001364,
            "durationTicks": 101,
            "midi": 43,
            "name": "G2",
            "ticks": 553013,
            "time": 444.970625,
            "velocity": 0.7322834645669292
          },
          {
            "duration": 0.06312500000001364,
            "durationTicks": 101,
            "midi": 50,
            "name": "D3",
            "ticks": 553013,
            "time": 444.970625,
            "velocity": 0.7322834645669292
          },
          {
            "duration": 0.06312500000001364,
            "durationTicks": 101,
            "midi": 59,
            "name": "B3",
            "ticks": 553013,
            "time": 444.970625,
            "velocity": 0.7322834645669292
          },
          {
            "duration": 0.061249999999972715,
            "durationTicks": 98,
            "midi": 45,
            "name": "A2",
            "ticks": 553136,
            "time": 445.0475,
            "velocity": 0.7322834645669292
          },
          {
            "duration": 0.061249999999972715,
            "durationTicks": 98,
            "midi": 52,
            "name": "E3",
            "ticks": 553136,
            "time": 445.0475,
            "velocity": 0.7322834645669292
          },
          {
            "duration": 0.061249999999972715,
            "durationTicks": 98,
            "midi": 60,
            "name": "C4",
            "ticks": 553136,
            "time": 445.0475,
            "velocity": 0.7322834645669292
          },
          {
            "duration": 0.05875000000003183,
            "durationTicks": 94,
            "midi": 43,
            "name": "G2",
            "ticks": 553256,
            "time": 445.1225,
            "velocity": 0.7322834645669292
          },
          {
            "duration": 0.05875000000003183,
            "durationTicks": 94,
            "midi": 50,
            "name": "D3",
            "ticks": 553256,
            "time": 445.1225,
            "velocity": 0.7322834645669292
          },
          {
            "duration": 0.05875000000003183,
            "durationTicks": 94,
            "midi": 59,
            "name": "B3",
            "ticks": 553256,
            "time": 445.1225,
            "velocity": 0.7322834645669292
          },
          {
            "duration": 0.05624999999997726,
            "durationTicks": 90,
            "midi": 45,
            "name": "A2",
            "ticks": 553373,
            "time": 445.195625,
            "velocity": 0.7322834645669292
          },
          {
            "duration": 0.05624999999997726,
            "durationTicks": 90,
            "midi": 52,
            "name": "E3",
            "ticks": 553373,
            "time": 445.195625,
            "velocity": 0.7322834645669292
          },
          {
            "duration": 0.05624999999997726,
            "durationTicks": 90,
            "midi": 60,
            "name": "C4",
            "ticks": 553373,
            "time": 445.195625,
            "velocity": 0.7322834645669292
          },
          {
            "duration": 0.056250000000034106,
            "durationTicks": 90,
            "midi": 43,
            "name": "G2",
            "ticks": 553489,
            "time": 445.268125,
            "velocity": 0.7322834645669292
          },
          {
            "duration": 0.056250000000034106,
            "durationTicks": 90,
            "midi": 50,
            "name": "D3",
            "ticks": 553489,
            "time": 445.268125,
            "velocity": 0.7322834645669292
          },
          {
            "duration": 0.056250000000034106,
            "durationTicks": 90,
            "midi": 59,
            "name": "B3",
            "ticks": 553489,
            "time": 445.268125,
            "velocity": 0.7322834645669292
          },
          {
            "duration": 0.05875000000003183,
            "durationTicks": 94,
            "midi": 45,
            "name": "A2",
            "ticks": 553609,
            "time": 445.343125,
            "velocity": 0.7322834645669292
          },
          {
            "duration": 0.05875000000003183,
            "durationTicks": 94,
            "midi": 52,
            "name": "E3",
            "ticks": 553609,
            "time": 445.343125,
            "velocity": 0.7322834645669292
          },
          {
            "duration": 0.05875000000003183,
            "durationTicks": 94,
            "midi": 60,
            "name": "C4",
            "ticks": 553609,
            "time": 445.343125,
            "velocity": 0.7322834645669292
          },
          {
            "duration": 0.06062499999995907,
            "durationTicks": 97,
            "midi": 43,
            "name": "G2",
            "ticks": 553733,
            "time": 445.42062500000003,
            "velocity": 0.7322834645669292
          },
          {
            "duration": 0.06062499999995907,
            "durationTicks": 97,
            "midi": 50,
            "name": "D3",
            "ticks": 553733,
            "time": 445.42062500000003,
            "velocity": 0.7322834645669292
          },
          {
            "duration": 0.06062499999995907,
            "durationTicks": 97,
            "midi": 59,
            "name": "B3",
            "ticks": 553733,
            "time": 445.42062500000003,
            "velocity": 0.7322834645669292
          },
          {
            "duration": 0.06312500000001364,
            "durationTicks": 101,
            "midi": 45,
            "name": "A2",
            "ticks": 553860,
            "time": 445.5,
            "velocity": 0.7322834645669292
          },
          {
            "duration": 0.06312500000001364,
            "durationTicks": 101,
            "midi": 52,
            "name": "E3",
            "ticks": 553860,
            "time": 445.5,
            "velocity": 0.7322834645669292
          },
          {
            "duration": 0.06312500000001364,
            "durationTicks": 101,
            "midi": 60,
            "name": "C4",
            "ticks": 553860,
            "time": 445.5,
            "velocity": 0.7322834645669292
          },
          {
            "duration": 0.06562500000001137,
            "durationTicks": 105,
            "midi": 43,
            "name": "G2",
            "ticks": 553991,
            "time": 445.581875,
            "velocity": 0.7322834645669292
          },
          {
            "duration": 0.06562500000001137,
            "durationTicks": 105,
            "midi": 50,
            "name": "D3",
            "ticks": 553991,
            "time": 445.581875,
            "velocity": 0.7322834645669292
          },
          {
            "duration": 0.06562500000001137,
            "durationTicks": 105,
            "midi": 59,
            "name": "B3",
            "ticks": 553991,
            "time": 445.581875,
            "velocity": 0.7322834645669292
          },
          {
            "duration": 0.06562500000001137,
            "durationTicks": 105,
            "midi": 45,
            "name": "A2",
            "ticks": 554126,
            "time": 445.66625,
            "velocity": 0.7322834645669292
          },
          {
            "duration": 0.06562500000001137,
            "durationTicks": 105,
            "midi": 52,
            "name": "E3",
            "ticks": 554126,
            "time": 445.66625,
            "velocity": 0.7322834645669292
          },
          {
            "duration": 0.06562500000001137,
            "durationTicks": 105,
            "midi": 60,
            "name": "C4",
            "ticks": 554126,
            "time": 445.66625,
            "velocity": 0.7322834645669292
          },
          {
            "duration": 0.09375,
            "durationTicks": 150,
            "midi": 57,
            "name": "A3",
            "ticks": 554250,
            "time": 445.74375000000003,
            "velocity": 0.7559055118110236
          },
          {
            "duration": 0.049374999999997726,
            "durationTicks": 79,
            "midi": 59,
            "name": "B3",
            "ticks": 554321,
            "time": 445.78812500000004,
            "velocity": 0.7559055118110236
          },
          {
            "duration": 0.5999999999999659,
            "durationTicks": 960,
            "midi": 50,
            "name": "D3",
            "ticks": 554400,
            "time": 445.83750000000003,
            "velocity": 0.7165354330708661
          },
          {
            "duration": 0.5999999999999659,
            "durationTicks": 960,
            "midi": 57,
            "name": "A3",
            "ticks": 554400,
            "time": 445.83750000000003,
            "velocity": 0.7165354330708661
          },
          {
            "duration": 0.3050000000000068,
            "durationTicks": 488,
            "midi": 45,
            "name": "A2",
            "ticks": 555360,
            "time": 446.4375,
            "velocity": 0.44881889763779526
          },
          {
            "duration": 0.2837499999999977,
            "durationTicks": 454,
            "midi": 54,
            "name": "F#3",
            "ticks": 555840,
            "time": 446.7375,
            "velocity": 0.5354330708661418
          },
          {
            "duration": 0.5999999999999659,
            "durationTicks": 960,
            "midi": 60,
            "name": "C4",
            "ticks": 556320,
            "time": 447.0375,
            "velocity": 0.5748031496062992
          },
          {
            "duration": 0.3050000000000068,
            "durationTicks": 488,
            "midi": 59,
            "name": "B3",
            "ticks": 557280,
            "time": 447.6375,
            "velocity": 0.5039370078740157
          },
          {
            "duration": 0.15250000000003183,
            "durationTicks": 244,
            "midi": 60,
            "name": "C4",
            "ticks": 557760,
            "time": 447.9375,
            "velocity": 0.5275590551181102
          },
          {
            "duration": 0.140625,
            "durationTicks": 225,
            "midi": 62,
            "name": "D4",
            "ticks": 558000,
            "time": 448.08750000000003,
            "velocity": 0.5039370078740157
          },
          {
            "duration": 0.3050000000000068,
            "durationTicks": 488,
            "midi": 60,
            "name": "C4",
            "ticks": 558240,
            "time": 448.2375,
            "velocity": 0.4645669291338583
          },
          {
            "duration": 0.2837499999999977,
            "durationTicks": 454,
            "midi": 59,
            "name": "B3",
            "ticks": 558720,
            "time": 448.5375,
            "velocity": 0.4566929133858268
          },
          {
            "duration": 0.30499999999995,
            "durationTicks": 488,
            "midi": 57,
            "name": "A3",
            "ticks": 559200,
            "time": 448.83750000000003,
            "velocity": 0.44881889763779526
          },
          {
            "duration": 0.2837499999999977,
            "durationTicks": 454,
            "midi": 55,
            "name": "G3",
            "ticks": 559680,
            "time": 449.1375,
            "velocity": 0.4330708661417323
          },
          {
            "duration": 0.3050000000000068,
            "durationTicks": 488,
            "midi": 54,
            "name": "F#3",
            "ticks": 560160,
            "time": 449.4375,
            "velocity": 0.48031496062992124
          },
          {
            "duration": 0.2837499999999977,
            "durationTicks": 454,
            "midi": 52,
            "name": "E3",
            "ticks": 560640,
            "time": 449.7375,
            "velocity": 0.44881889763779526
          },
          {
            "duration": 0.3050000000000068,
            "durationTicks": 488,
            "midi": 54,
            "name": "F#3",
            "ticks": 561120,
            "time": 450.0375,
            "velocity": 0.6220472440944882
          },
          {
            "duration": 0.152499999999975,
            "durationTicks": 244,
            "midi": 55,
            "name": "G3",
            "ticks": 561600,
            "time": 450.33750000000003,
            "velocity": 0.5196850393700787
          },
          {
            "duration": 0.140625,
            "durationTicks": 225,
            "midi": 57,
            "name": "A3",
            "ticks": 561840,
            "time": 450.4875,
            "velocity": 0.5118110236220472
          },
          {
            "duration": 0.3050000000000068,
            "durationTicks": 488,
            "midi": 55,
            "name": "G3",
            "ticks": 562080,
            "time": 450.6375,
            "velocity": 0.47244094488188976
          },
          {
            "duration": 0.2837499999999977,
            "durationTicks": 454,
            "midi": 54,
            "name": "F#3",
            "ticks": 562560,
            "time": 450.9375,
            "velocity": 0.4566929133858268
          },
          {
            "duration": 0.14999999999997726,
            "durationTicks": 240,
            "midi": 52,
            "name": "E3",
            "ticks": 563040,
            "time": 451.2375,
            "velocity": 0.4251968503937008
          },
          {
            "duration": 0.14999999999997726,
            "durationTicks": 240,
            "midi": 54,
            "name": "F#3",
            "ticks": 563520,
            "time": 451.5375,
            "velocity": 0.5354330708661418
          },
          {
            "duration": 0.5999999999999659,
            "durationTicks": 960,
            "midi": 50,
            "name": "D3",
            "ticks": 564000,
            "time": 451.83750000000003,
            "velocity": 0.4645669291338583
          },
          {
            "duration": 0.5393750000000068,
            "durationTicks": 863,
            "midi": 45,
            "name": "A2",
            "ticks": 564960,
            "time": 452.4375,
            "velocity": 0.3779527559055118
          },
          {
            "duration": 0.5393750000000068,
            "durationTicks": 863,
            "midi": 38,
            "name": "D2",
            "ticks": 565920,
            "time": 453.0375,
            "velocity": 0.4409448818897638
          },
          {
            "duration": 0.30000000000001137,
            "durationTicks": 480,
            "midi": 43,
            "name": "G2",
            "ticks": 566880,
            "time": 453.6375,
            "velocity": 1
          },
          {
            "duration": 0.30000000000001137,
            "durationTicks": 480,
            "midi": 50,
            "name": "D3",
            "ticks": 567360,
            "time": 453.9375,
            "velocity": 0.8346456692913385
          },
          {
            "duration": 0.5999999999999659,
            "durationTicks": 960,
            "midi": 59,
            "name": "B3",
            "ticks": 567840,
            "time": 454.2375,
            "velocity": 0.8346456692913385
          },
          {
            "duration": 0.3050000000000068,
            "durationTicks": 488,
            "midi": 57,
            "name": "A3",
            "ticks": 568800,
            "time": 454.8375,
            "velocity": 0.7559055118110236
          },
          {
            "duration": 0.152499999999975,
            "durationTicks": 244,
            "midi": 59,
            "name": "B3",
            "ticks": 569280,
            "time": 455.1375,
            "velocity": 0.7952755905511811
          },
          {
            "duration": 0.140625,
            "durationTicks": 225,
            "midi": 60,
            "name": "C4",
            "ticks": 569520,
            "time": 455.28749999999997,
            "velocity": 0.7795275590551181
          },
          {
            "duration": 0.3050000000000068,
            "durationTicks": 488,
            "midi": 59,
            "name": "B3",
            "ticks": 569760,
            "time": 455.4375,
            "velocity": 0.8031496062992126
          },
          {
            "duration": 0.2837499999999977,
            "durationTicks": 454,
            "midi": 57,
            "name": "A3",
            "ticks": 570240,
            "time": 455.7375,
            "velocity": 0.7244094488188977
          },
          {
            "duration": 0.3050000000000068,
            "durationTicks": 488,
            "midi": 55,
            "name": "G3",
            "ticks": 570720,
            "time": 456.03749999999997,
            "velocity": 0.7322834645669292
          },
          {
            "duration": 0.2837499999999977,
            "durationTicks": 454,
            "midi": 54,
            "name": "F#3",
            "ticks": 571200,
            "time": 456.3375,
            "velocity": 0.7401574803149606
          },
          {
            "duration": 0.3050000000000068,
            "durationTicks": 488,
            "midi": 55,
            "name": "G3",
            "ticks": 571680,
            "time": 456.6375,
            "velocity": 0.8110236220472441
          },
          {
            "duration": 0.2837499999999977,
            "durationTicks": 454,
            "midi": 50,
            "name": "D3",
            "ticks": 572160,
            "time": 456.9375,
            "velocity": 0.7559055118110236
          },
          {
            "duration": 0.30499999999995,
            "durationTicks": 488,
            "midi": 52,
            "name": "E3",
            "ticks": 572640,
            "time": 457.2375,
            "velocity": 0.9291338582677166
          },
          {
            "duration": 0.2837499999999977,
            "durationTicks": 454,
            "midi": 55,
            "name": "G3",
            "ticks": 573120,
            "time": 457.53749999999997,
            "velocity": 0.8188976377952756
          },
          {
            "duration": 0.3050000000000068,
            "durationTicks": 488,
            "midi": 60,
            "name": "C4",
            "ticks": 573600,
            "time": 457.8375,
            "velocity": 0.8818897637795275
          },
          {
            "duration": 0.2837499999999977,
            "durationTicks": 454,
            "midi": 57,
            "name": "A3",
            "ticks": 574080,
            "time": 458.1375,
            "velocity": 0.7637795275590551
          },
          {
            "duration": 0.3050000000000068,
            "durationTicks": 488,
            "midi": 54,
            "name": "F#3",
            "ticks": 574560,
            "time": 458.4375,
            "velocity": 0.7637795275590551
          },
          {
            "duration": 0.2837499999999977,
            "durationTicks": 454,
            "midi": 62,
            "name": "D4",
            "ticks": 575040,
            "time": 458.7375,
            "velocity": 0.9212598425196851
          },
          {
            "duration": 0.07062500000000682,
            "durationTicks": 113,
            "midi": 43,
            "name": "G2",
            "ticks": 575520,
            "time": 459.03749999999997,
            "velocity": 0.7874015748031497
          },
          {
            "duration": 0.07062500000000682,
            "durationTicks": 113,
            "midi": 50,
            "name": "D3",
            "ticks": 575520,
            "time": 459.03749999999997,
            "velocity": 0.7874015748031497
          },
          {
            "duration": 0.07062500000000682,
            "durationTicks": 113,
            "midi": 59,
            "name": "B3",
            "ticks": 575520,
            "time": 459.03749999999997,
            "velocity": 0.7874015748031497
          },
          {
            "duration": 0.0681250000000091,
            "durationTicks": 109,
            "midi": 45,
            "name": "A2",
            "ticks": 575659,
            "time": 459.124375,
            "velocity": 0.7874015748031497
          },
          {
            "duration": 0.0681250000000091,
            "durationTicks": 109,
            "midi": 52,
            "name": "E3",
            "ticks": 575659,
            "time": 459.124375,
            "velocity": 0.7874015748031497
          },
          {
            "duration": 0.0681250000000091,
            "durationTicks": 109,
            "midi": 60,
            "name": "C4",
            "ticks": 575659,
            "time": 459.124375,
            "velocity": 0.7874015748031497
          },
          {
            "duration": 0.06562499999995453,
            "durationTicks": 105,
            "midi": 43,
            "name": "G2",
            "ticks": 575794,
            "time": 459.20875,
            "velocity": 0.7874015748031497
          },
          {
            "duration": 0.06562499999995453,
            "durationTicks": 105,
            "midi": 50,
            "name": "D3",
            "ticks": 575794,
            "time": 459.20875,
            "velocity": 0.7874015748031497
          },
          {
            "duration": 0.06562499999995453,
            "durationTicks": 105,
            "midi": 59,
            "name": "B3",
            "ticks": 575794,
            "time": 459.20875,
            "velocity": 0.7874015748031497
          },
          {
            "duration": 0.06562500000001137,
            "durationTicks": 105,
            "midi": 45,
            "name": "A2",
            "ticks": 575925,
            "time": 459.290625,
            "velocity": 0.7874015748031497
          },
          {
            "duration": 0.06562500000001137,
            "durationTicks": 105,
            "midi": 52,
            "name": "E3",
            "ticks": 575925,
            "time": 459.290625,
            "velocity": 0.7874015748031497
          },
          {
            "duration": 0.06562500000001137,
            "durationTicks": 105,
            "midi": 60,
            "name": "C4",
            "ticks": 575925,
            "time": 459.290625,
            "velocity": 0.7874015748031497
          },
          {
            "duration": 0.06312500000001364,
            "durationTicks": 101,
            "midi": 43,
            "name": "G2",
            "ticks": 576053,
            "time": 459.37062499999996,
            "velocity": 0.7874015748031497
          },
          {
            "duration": 0.06312500000001364,
            "durationTicks": 101,
            "midi": 50,
            "name": "D3",
            "ticks": 576053,
            "time": 459.37062499999996,
            "velocity": 0.7874015748031497
          },
          {
            "duration": 0.06312500000001364,
            "durationTicks": 101,
            "midi": 59,
            "name": "B3",
            "ticks": 576053,
            "time": 459.37062499999996,
            "velocity": 0.7874015748031497
          },
          {
            "duration": 0.061249999999972715,
            "durationTicks": 98,
            "midi": 45,
            "name": "A2",
            "ticks": 576176,
            "time": 459.4475,
            "velocity": 0.7874015748031497
          },
          {
            "duration": 0.061249999999972715,
            "durationTicks": 98,
            "midi": 52,
            "name": "E3",
            "ticks": 576176,
            "time": 459.4475,
            "velocity": 0.7874015748031497
          },
          {
            "duration": 0.061249999999972715,
            "durationTicks": 98,
            "midi": 60,
            "name": "C4",
            "ticks": 576176,
            "time": 459.4475,
            "velocity": 0.7874015748031497
          },
          {
            "duration": 0.05875000000003183,
            "durationTicks": 94,
            "midi": 43,
            "name": "G2",
            "ticks": 576296,
            "time": 459.5225,
            "velocity": 0.7874015748031497
          },
          {
            "duration": 0.05875000000003183,
            "durationTicks": 94,
            "midi": 50,
            "name": "D3",
            "ticks": 576296,
            "time": 459.5225,
            "velocity": 0.7874015748031497
          },
          {
            "duration": 0.05875000000003183,
            "durationTicks": 94,
            "midi": 59,
            "name": "B3",
            "ticks": 576296,
            "time": 459.5225,
            "velocity": 0.7874015748031497
          },
          {
            "duration": 0.05624999999997726,
            "durationTicks": 90,
            "midi": 45,
            "name": "A2",
            "ticks": 576413,
            "time": 459.595625,
            "velocity": 0.7874015748031497
          },
          {
            "duration": 0.05624999999997726,
            "durationTicks": 90,
            "midi": 52,
            "name": "E3",
            "ticks": 576413,
            "time": 459.595625,
            "velocity": 0.7874015748031497
          },
          {
            "duration": 0.05624999999997726,
            "durationTicks": 90,
            "midi": 60,
            "name": "C4",
            "ticks": 576413,
            "time": 459.595625,
            "velocity": 0.7874015748031497
          },
          {
            "duration": 0.056250000000034106,
            "durationTicks": 90,
            "midi": 43,
            "name": "G2",
            "ticks": 576529,
            "time": 459.668125,
            "velocity": 0.7874015748031497
          },
          {
            "duration": 0.056250000000034106,
            "durationTicks": 90,
            "midi": 50,
            "name": "D3",
            "ticks": 576529,
            "time": 459.668125,
            "velocity": 0.7874015748031497
          },
          {
            "duration": 0.056250000000034106,
            "durationTicks": 90,
            "midi": 59,
            "name": "B3",
            "ticks": 576529,
            "time": 459.668125,
            "velocity": 0.7874015748031497
          },
          {
            "duration": 0.05875000000003183,
            "durationTicks": 94,
            "midi": 45,
            "name": "A2",
            "ticks": 576649,
            "time": 459.74312499999996,
            "velocity": 0.7874015748031497
          },
          {
            "duration": 0.05875000000003183,
            "durationTicks": 94,
            "midi": 52,
            "name": "E3",
            "ticks": 576649,
            "time": 459.74312499999996,
            "velocity": 0.7874015748031497
          },
          {
            "duration": 0.05875000000003183,
            "durationTicks": 94,
            "midi": 60,
            "name": "C4",
            "ticks": 576649,
            "time": 459.74312499999996,
            "velocity": 0.7874015748031497
          },
          {
            "duration": 0.06062499999995907,
            "durationTicks": 97,
            "midi": 43,
            "name": "G2",
            "ticks": 576773,
            "time": 459.820625,
            "velocity": 0.7874015748031497
          },
          {
            "duration": 0.06062499999995907,
            "durationTicks": 97,
            "midi": 50,
            "name": "D3",
            "ticks": 576773,
            "time": 459.820625,
            "velocity": 0.7874015748031497
          },
          {
            "duration": 0.06062499999995907,
            "durationTicks": 97,
            "midi": 59,
            "name": "B3",
            "ticks": 576773,
            "time": 459.820625,
            "velocity": 0.7874015748031497
          },
          {
            "duration": 0.06312500000001364,
            "durationTicks": 101,
            "midi": 45,
            "name": "A2",
            "ticks": 576900,
            "time": 459.9,
            "velocity": 0.7874015748031497
          },
          {
            "duration": 0.06312500000001364,
            "durationTicks": 101,
            "midi": 52,
            "name": "E3",
            "ticks": 576900,
            "time": 459.9,
            "velocity": 0.7874015748031497
          },
          {
            "duration": 0.06312500000001364,
            "durationTicks": 101,
            "midi": 60,
            "name": "C4",
            "ticks": 576900,
            "time": 459.9,
            "velocity": 0.7874015748031497
          },
          {
            "duration": 0.06562500000001137,
            "durationTicks": 105,
            "midi": 43,
            "name": "G2",
            "ticks": 577031,
            "time": 459.981875,
            "velocity": 0.7874015748031497
          },
          {
            "duration": 0.06562500000001137,
            "durationTicks": 105,
            "midi": 50,
            "name": "D3",
            "ticks": 577031,
            "time": 459.981875,
            "velocity": 0.7874015748031497
          },
          {
            "duration": 0.06562500000001137,
            "durationTicks": 105,
            "midi": 59,
            "name": "B3",
            "ticks": 577031,
            "time": 459.981875,
            "velocity": 0.7874015748031497
          },
          {
            "duration": 0.06562500000001137,
            "durationTicks": 105,
            "midi": 45,
            "name": "A2",
            "ticks": 577166,
            "time": 460.06624999999997,
            "velocity": 0.7874015748031497
          },
          {
            "duration": 0.06562500000001137,
            "durationTicks": 105,
            "midi": 52,
            "name": "E3",
            "ticks": 577166,
            "time": 460.06624999999997,
            "velocity": 0.7874015748031497
          },
          {
            "duration": 0.06562500000001137,
            "durationTicks": 105,
            "midi": 60,
            "name": "C4",
            "ticks": 577166,
            "time": 460.06624999999997,
            "velocity": 0.7874015748031497
          },
          {
            "duration": 0.09375,
            "durationTicks": 150,
            "midi": 57,
            "name": "A3",
            "ticks": 577290,
            "time": 460.14375,
            "velocity": 0.7322834645669292
          },
          {
            "duration": 0.049374999999997726,
            "durationTicks": 79,
            "midi": 59,
            "name": "B3",
            "ticks": 577361,
            "time": 460.188125,
            "velocity": 0.7322834645669292
          },
          {
            "duration": 0.5999999999999659,
            "durationTicks": 960,
            "midi": 50,
            "name": "D3",
            "ticks": 577440,
            "time": 460.2375,
            "velocity": 0.7795275590551181
          },
          {
            "duration": 0.5999999999999659,
            "durationTicks": 960,
            "midi": 57,
            "name": "A3",
            "ticks": 577440,
            "time": 460.2375,
            "velocity": 0.7795275590551181
          },
          {
            "duration": 0.3050000000000068,
            "durationTicks": 488,
            "midi": 45,
            "name": "A2",
            "ticks": 578400,
            "time": 460.8375,
            "velocity": 0.5196850393700787
          },
          {
            "duration": 0.2837499999999977,
            "durationTicks": 454,
            "midi": 54,
            "name": "F#3",
            "ticks": 578880,
            "time": 461.1375,
            "velocity": 0.5354330708661418
          },
          {
            "duration": 0.5999999999999659,
            "durationTicks": 960,
            "midi": 60,
            "name": "C4",
            "ticks": 579360,
            "time": 461.4375,
            "velocity": 0.5590551181102362
          },
          {
            "duration": 0.3050000000000068,
            "durationTicks": 488,
            "midi": 59,
            "name": "B3",
            "ticks": 580320,
            "time": 462.03749999999997,
            "velocity": 0.5118110236220472
          },
          {
            "duration": 0.15250000000003183,
            "durationTicks": 244,
            "midi": 60,
            "name": "C4",
            "ticks": 580800,
            "time": 462.3375,
            "velocity": 0.5196850393700787
          },
          {
            "duration": 0.140625,
            "durationTicks": 225,
            "midi": 62,
            "name": "D4",
            "ticks": 581040,
            "time": 462.4875,
            "velocity": 0.5433070866141733
          },
          {
            "duration": 0.3050000000000068,
            "durationTicks": 488,
            "midi": 60,
            "name": "C4",
            "ticks": 581280,
            "time": 462.6375,
            "velocity": 0.4251968503937008
          },
          {
            "duration": 0.2837499999999977,
            "durationTicks": 454,
            "midi": 59,
            "name": "B3",
            "ticks": 581760,
            "time": 462.9375,
            "velocity": 0.44881889763779526
          },
          {
            "duration": 0.30499999999995,
            "durationTicks": 488,
            "midi": 57,
            "name": "A3",
            "ticks": 582240,
            "time": 463.2375,
            "velocity": 0.4566929133858268
          },
          {
            "duration": 0.2837499999999977,
            "durationTicks": 454,
            "midi": 55,
            "name": "G3",
            "ticks": 582720,
            "time": 463.53749999999997,
            "velocity": 0.47244094488188976
          },
          {
            "duration": 0.3050000000000068,
            "durationTicks": 488,
            "midi": 54,
            "name": "F#3",
            "ticks": 583200,
            "time": 463.8375,
            "velocity": 0.4566929133858268
          },
          {
            "duration": 0.2837499999999977,
            "durationTicks": 454,
            "midi": 52,
            "name": "E3",
            "ticks": 583680,
            "time": 464.1375,
            "velocity": 0.4645669291338583
          },
          {
            "duration": 0.3050000000000068,
            "durationTicks": 488,
            "midi": 54,
            "name": "F#3",
            "ticks": 584160,
            "time": 464.4375,
            "velocity": 0.5826771653543307
          },
          {
            "duration": 0.152499999999975,
            "durationTicks": 244,
            "midi": 55,
            "name": "G3",
            "ticks": 584640,
            "time": 464.7375,
            "velocity": 0.5118110236220472
          },
          {
            "duration": 0.140625,
            "durationTicks": 225,
            "midi": 57,
            "name": "A3",
            "ticks": 584880,
            "time": 464.8875,
            "velocity": 0.4881889763779528
          },
          {
            "duration": 0.3050000000000068,
            "durationTicks": 488,
            "midi": 55,
            "name": "G3",
            "ticks": 585120,
            "time": 465.03749999999997,
            "velocity": 0.47244094488188976
          },
          {
            "duration": 0.2837499999999977,
            "durationTicks": 454,
            "midi": 54,
            "name": "F#3",
            "ticks": 585600,
            "time": 465.3375,
            "velocity": 0.4645669291338583
          },
          {
            "duration": 0.14999999999997726,
            "durationTicks": 240,
            "midi": 52,
            "name": "E3",
            "ticks": 586080,
            "time": 465.6375,
            "velocity": 0.48031496062992124
          },
          {
            "duration": 0.14999999999997726,
            "durationTicks": 240,
            "midi": 54,
            "name": "F#3",
            "ticks": 586560,
            "time": 465.9375,
            "velocity": 0.4881889763779528
          },
          {
            "duration": 0.5999999999999659,
            "durationTicks": 960,
            "midi": 50,
            "name": "D3",
            "ticks": 587040,
            "time": 466.2375,
            "velocity": 0.4645669291338583
          },
          {
            "duration": 0.5393750000000068,
            "durationTicks": 863,
            "midi": 45,
            "name": "A2",
            "ticks": 588000,
            "time": 466.8375,
            "velocity": 0.4330708661417323
          },
          {
            "duration": 0.5393750000000068,
            "durationTicks": 863,
            "midi": 38,
            "name": "D2",
            "ticks": 588960,
            "time": 467.4375,
            "velocity": 0.4251968503937008
          },
          {
            "duration": 0.3050000000000068,
            "durationTicks": 488,
            "midi": 50,
            "name": "D3",
            "ticks": 589920,
            "time": 468.03749999999997,
            "velocity": 0.8818897637795275
          },
          {
            "duration": 0.2837499999999977,
            "durationTicks": 454,
            "midi": 54,
            "name": "F#3",
            "ticks": 590400,
            "time": 468.3375,
            "velocity": 0.84251968503937
          },
          {
            "duration": 0.6000000000000227,
            "durationTicks": 960,
            "midi": 57,
            "name": "A3",
            "ticks": 590880,
            "time": 468.6375,
            "velocity": 0.8267716535433071
          },
          {
            "duration": 0.30499999999995,
            "durationTicks": 488,
            "midi": 55,
            "name": "G3",
            "ticks": 591840,
            "time": 469.2375,
            "velocity": 0.7244094488188977
          },
          {
            "duration": 0.140625,
            "durationTicks": 225,
            "midi": 57,
            "name": "A3",
            "ticks": 592320,
            "time": 469.53749999999997,
            "velocity": 0.8110236220472441
          },
          {
            "duration": 0.14999999999997726,
            "durationTicks": 240,
            "midi": 59,
            "name": "B3",
            "ticks": 592560,
            "time": 469.6875,
            "velocity": 0.7716535433070866
          },
          {
            "duration": 0.3050000000000068,
            "durationTicks": 488,
            "midi": 57,
            "name": "A3",
            "ticks": 592800,
            "time": 469.8375,
            "velocity": 0.7637795275590551
          },
          {
            "duration": 0.2837499999999977,
            "durationTicks": 454,
            "midi": 55,
            "name": "G3",
            "ticks": 593280,
            "time": 470.1375,
            "velocity": 0.7637795275590551
          },
          {
            "duration": 0.3050000000000068,
            "durationTicks": 488,
            "midi": 54,
            "name": "F#3",
            "ticks": 593760,
            "time": 470.4375,
            "velocity": 0.7559055118110236
          },
          {
            "duration": 0.2837499999999977,
            "durationTicks": 454,
            "midi": 52,
            "name": "E3",
            "ticks": 594240,
            "time": 470.7375,
            "velocity": 0.7322834645669292
          },
          {
            "duration": 0.3050000000000068,
            "durationTicks": 488,
            "midi": 50,
            "name": "D3",
            "ticks": 594720,
            "time": 471.03749999999997,
            "velocity": 0.7480314960629921
          },
          {
            "duration": 0.2837499999999977,
            "durationTicks": 454,
            "midi": 54,
            "name": "F#3",
            "ticks": 595200,
            "time": 471.3375,
            "velocity": 0.8267716535433071
          },
          {
            "duration": 0.30000000000001137,
            "durationTicks": 480,
            "midi": 47,
            "name": "B2",
            "ticks": 595680,
            "time": 471.6375,
            "velocity": 0.8661417322834646
          },
          {
            "duration": 0.30000000000001137,
            "durationTicks": 480,
            "midi": 50,
            "name": "D3",
            "ticks": 596160,
            "time": 471.9375,
            "velocity": 0.7716535433070866
          },
          {
            "duration": 0.2999999999999545,
            "durationTicks": 480,
            "midi": 56,
            "name": "G#3",
            "ticks": 596640,
            "time": 472.2375,
            "velocity": 0.8503937007874016
          },
          {
            "duration": 0.30000000000001137,
            "durationTicks": 480,
            "midi": 57,
            "name": "A3",
            "ticks": 597120,
            "time": 472.53749999999997,
            "velocity": 0.7952755905511811
          },
          {
            "duration": 0.30000000000001137,
            "durationTicks": 480,
            "midi": 59,
            "name": "B3",
            "ticks": 597600,
            "time": 472.8375,
            "velocity": 0.7952755905511811
          },
          {
            "duration": 0.30000000000001137,
            "durationTicks": 480,
            "midi": 62,
            "name": "D4",
            "ticks": 598080,
            "time": 473.1375,
            "velocity": 0.8188976377952756
          },
          {
            "duration": 0.30000000000001137,
            "durationTicks": 480,
            "midi": 45,
            "name": "A2",
            "ticks": 598560,
            "time": 473.4375,
            "velocity": 0.7244094488188977
          },
          {
            "duration": 0.30499999999995,
            "durationTicks": 488,
            "midi": 62,
            "name": "D4",
            "ticks": 599040,
            "time": 473.7375,
            "velocity": 0.984251968503937
          },
          {
            "duration": 0.3050000000000068,
            "durationTicks": 488,
            "midi": 60,
            "name": "C4",
            "ticks": 599520,
            "time": 474.03749999999997,
            "velocity": 0.7874015748031497
          },
          {
            "duration": 0.22500000000002274,
            "durationTicks": 360,
            "midi": 59,
            "name": "B3",
            "ticks": 600000,
            "time": 474.3375,
            "velocity": 0.7007874015748031
          },
          {
            "duration": 0.6000000000000227,
            "durationTicks": 960,
            "midi": 60,
            "name": "C4",
            "ticks": 600480,
            "time": 474.6375,
            "velocity": 0.8110236220472441
          },
          {
            "duration": 0.30499999999995,
            "durationTicks": 488,
            "midi": 51,
            "name": "D#3",
            "ticks": 601440,
            "time": 475.2375,
            "velocity": 0.4645669291338583
          },
          {
            "duration": 0.3050000000000068,
            "durationTicks": 488,
            "midi": 54,
            "name": "F#3",
            "ticks": 601920,
            "time": 475.53749999999997,
            "velocity": 0.4566929133858268
          },
          {
            "duration": 0.2837499999999977,
            "durationTicks": 454,
            "midi": 57,
            "name": "A3",
            "ticks": 602400,
            "time": 475.8375,
            "velocity": 0.48031496062992124
          },
          {
            "duration": 0.30000000000001137,
            "durationTicks": 480,
            "midi": 60,
            "name": "C4",
            "ticks": 602880,
            "time": 476.1375,
            "velocity": 0.5433070866141733
          },
          {
            "duration": 0.30000000000001137,
            "durationTicks": 480,
            "midi": 59,
            "name": "B3",
            "ticks": 603360,
            "time": 476.4375,
            "velocity": 0.5118110236220472
          },
          {
            "duration": 0.2999999999999545,
            "durationTicks": 480,
            "midi": 57,
            "name": "A3",
            "ticks": 603840,
            "time": 476.7375,
            "velocity": 0.4566929133858268
          },
          {
            "duration": 0.3050000000000068,
            "durationTicks": 488,
            "midi": 59,
            "name": "B3",
            "ticks": 604320,
            "time": 477.03749999999997,
            "velocity": 0.4881889763779528
          },
          {
            "duration": 0.3050000000000068,
            "durationTicks": 488,
            "midi": 52,
            "name": "E3",
            "ticks": 604800,
            "time": 477.3375,
            "velocity": 0.4409448818897638
          },
          {
            "duration": 0.2837499999999977,
            "durationTicks": 454,
            "midi": 43,
            "name": "G2",
            "ticks": 605280,
            "time": 477.6375,
            "velocity": 0.4251968503937008
          },
          {
            "duration": 0.30000000000001137,
            "durationTicks": 480,
            "midi": 57,
            "name": "A3",
            "ticks": 605760,
            "time": 477.9375,
            "velocity": 0.5511811023622047
          },
          {
            "duration": 0.2999999999999545,
            "durationTicks": 480,
            "midi": 60,
            "name": "C4",
            "ticks": 606240,
            "time": 478.2375,
            "velocity": 0.5433070866141733
          },
          {
            "duration": 0.30000000000001137,
            "durationTicks": 480,
            "midi": 59,
            "name": "B3",
            "ticks": 606720,
            "time": 478.53749999999997,
            "velocity": 0.49606299212598426
          },
          {
            "duration": 0.3050000000000068,
            "durationTicks": 488,
            "midi": 57,
            "name": "A3",
            "ticks": 607200,
            "time": 478.8375,
            "velocity": 0.4566929133858268
          },
          {
            "duration": 0.3050000000000068,
            "durationTicks": 488,
            "midi": 55,
            "name": "G3",
            "ticks": 607680,
            "time": 479.1375,
            "velocity": 0.48031496062992124
          },
          {
            "duration": 0.2837499999999977,
            "durationTicks": 454,
            "midi": 54,
            "name": "F#3",
            "ticks": 608160,
            "time": 479.4375,
            "velocity": 0.47244094488188976
          },
          {
            "duration": 0.2999999999999545,
            "durationTicks": 480,
            "midi": 52,
            "name": "E3",
            "ticks": 608640,
            "time": 479.7375,
            "velocity": 0.48031496062992124
          },
          {
            "duration": 0.30000000000001137,
            "durationTicks": 480,
            "midi": 47,
            "name": "B2",
            "ticks": 609120,
            "time": 480.03749999999997,
            "velocity": 0.4409448818897638
          },
          {
            "duration": 0.22500000000002274,
            "durationTicks": 360,
            "midi": 51,
            "name": "D#3",
            "ticks": 609600,
            "time": 480.3375,
            "velocity": 0.5196850393700787
          },
          {
            "duration": 0.8999999999999773,
            "durationTicks": 1440,
            "midi": 40,
            "name": "E2",
            "ticks": 610080,
            "time": 480.6375,
            "velocity": 0.41732283464566927
          },
          {
            "duration": 0.30000000000001137,
            "durationTicks": 480,
            "midi": 52,
            "name": "E3",
            "ticks": 611520,
            "time": 481.53749999999997,
            "velocity": 0.3937007874015748
          },
          {
            "duration": 0.30000000000001137,
            "durationTicks": 480,
            "midi": 50,
            "name": "D3",
            "ticks": 612000,
            "time": 481.8375,
            "velocity": 0.3464566929133858
          },
          {
            "duration": 0.30000000000001137,
            "durationTicks": 480,
            "midi": 48,
            "name": "C3",
            "ticks": 612480,
            "time": 482.1375,
            "velocity": 0.3228346456692913
          },
          {
            "duration": 0.3050000000000068,
            "durationTicks": 488,
            "midi": 47,
            "name": "B2",
            "ticks": 612960,
            "time": 482.4375,
            "velocity": 0.3543307086614173
          },
          {
            "duration": 0.2837499999999977,
            "durationTicks": 454,
            "midi": 50,
            "name": "D3",
            "ticks": 613440,
            "time": 482.7375,
            "velocity": 0.3464566929133858
          },
          {
            "duration": 0.5393750000000068,
            "durationTicks": 863,
            "midi": 55,
            "name": "G3",
            "ticks": 613920,
            "time": 483.03749999999997,
            "velocity": 0.30708661417322836
          },
          {
            "duration": 0.27437500000002046,
            "durationTicks": 439,
            "midi": 50,
            "name": "D3",
            "ticks": 614880,
            "time": 483.6375,
            "velocity": 0.29133858267716534
          },
          {
            "duration": 0.152499999999975,
            "durationTicks": 244,
            "midi": 52,
            "name": "E3",
            "ticks": 615360,
            "time": 483.9375,
            "velocity": 0.3464566929133858
          },
          {
            "duration": 0.140625,
            "durationTicks": 225,
            "midi": 53,
            "name": "F3",
            "ticks": 615600,
            "time": 484.0875,
            "velocity": 0.3543307086614173
          },
          {
            "duration": 0.30499999999995,
            "durationTicks": 488,
            "midi": 53,
            "name": "F3",
            "ticks": 615840,
            "time": 484.2375,
            "velocity": 0.36220472440944884
          },
          {
            "duration": 0.3050000000000068,
            "durationTicks": 488,
            "midi": 50,
            "name": "D3",
            "ticks": 616320,
            "time": 484.53749999999997,
            "velocity": 0.31496062992125984
          },
          {
            "duration": 0.2837499999999977,
            "durationTicks": 454,
            "midi": 52,
            "name": "E3",
            "ticks": 616800,
            "time": 484.8375,
            "velocity": 0.3543307086614173
          },
          {
            "duration": 0.30000000000001137,
            "durationTicks": 480,
            "midi": 48,
            "name": "C3",
            "ticks": 617280,
            "time": 485.1375,
            "velocity": 0.28346456692913385
          },
          {
            "duration": 0.30000000000001137,
            "durationTicks": 480,
            "midi": 36,
            "name": "C2",
            "ticks": 617760,
            "time": 485.4375,
            "velocity": 0.28346456692913385
          },
          {
            "duration": 0.2999999999999545,
            "durationTicks": 480,
            "midi": 47,
            "name": "B2",
            "ticks": 618240,
            "time": 485.7375,
            "velocity": 0.3858267716535433
          },
          {
            "duration": 0.3050000000000068,
            "durationTicks": 488,
            "midi": 49,
            "name": "C#3",
            "ticks": 618720,
            "time": 486.03749999999997,
            "velocity": 0.5826771653543307
          },
          {
            "duration": 0.2837499999999977,
            "durationTicks": 454,
            "midi": 52,
            "name": "E3",
            "ticks": 619200,
            "time": 486.3375,
            "velocity": 0.5748031496062992
          },
          {
            "duration": 0.5393750000000068,
            "durationTicks": 863,
            "midi": 57,
            "name": "A3",
            "ticks": 619680,
            "time": 486.6375,
            "velocity": 0.5748031496062992
          },
          {
            "duration": 0.2743749999999636,
            "durationTicks": 439,
            "midi": 52,
            "name": "E3",
            "ticks": 620640,
            "time": 487.2375,
            "velocity": 0.48031496062992124
          },
          {
            "duration": 0.15250000000003183,
            "durationTicks": 244,
            "midi": 54,
            "name": "F#3",
            "ticks": 621120,
            "time": 487.53749999999997,
            "velocity": 0.5826771653543307
          },
          {
            "duration": 0.140625,
            "durationTicks": 225,
            "midi": 55,
            "name": "G3",
            "ticks": 621360,
            "time": 487.6875,
            "velocity": 0.5826771653543307
          },
          {
            "duration": 0.3050000000000068,
            "durationTicks": 488,
            "midi": 55,
            "name": "G3",
            "ticks": 621600,
            "time": 487.8375,
            "velocity": 0.5511811023622047
          },
          {
            "duration": 0.3050000000000068,
            "durationTicks": 488,
            "midi": 52,
            "name": "E3",
            "ticks": 622080,
            "time": 488.1375,
            "velocity": 0.5354330708661418
          },
          {
            "duration": 0.2837499999999977,
            "durationTicks": 454,
            "midi": 54,
            "name": "F#3",
            "ticks": 622560,
            "time": 488.4375,
            "velocity": 0.5511811023622047
          },
          {
            "duration": 0.2999999999999545,
            "durationTicks": 480,
            "midi": 50,
            "name": "D3",
            "ticks": 623040,
            "time": 488.7375,
            "velocity": 0.5118110236220472
          },
          {
            "duration": 0.30000000000001137,
            "durationTicks": 480,
            "midi": 38,
            "name": "D2",
            "ticks": 623520,
            "time": 489.03749999999997,
            "velocity": 0.47244094488188976
          },
          {
            "duration": 0.30000000000001137,
            "durationTicks": 480,
            "midi": 45,
            "name": "A2",
            "ticks": 624000,
            "time": 489.3375,
            "velocity": 0.5905511811023622
          },
          {
            "duration": 0.3050000000000068,
            "durationTicks": 488,
            "midi": 50,
            "name": "D3",
            "ticks": 624480,
            "time": 489.6375,
            "velocity": 0.7086614173228346
          },
          {
            "duration": 0.3050000000000068,
            "durationTicks": 488,
            "midi": 54,
            "name": "F#3",
            "ticks": 624960,
            "time": 489.9375,
            "velocity": 0.7086614173228346
          },
          {
            "duration": 0.2837499999999977,
            "durationTicks": 454,
            "midi": 57,
            "name": "A3",
            "ticks": 625440,
            "time": 490.2375,
            "velocity": 0.6692913385826772
          },
          {
            "duration": 0.30000000000001137,
            "durationTicks": 480,
            "midi": 60,
            "name": "C4",
            "ticks": 625920,
            "time": 490.53749999999997,
            "velocity": 0.7480314960629921
          },
          {
            "duration": 0.30000000000001137,
            "durationTicks": 480,
            "midi": 59,
            "name": "B3",
            "ticks": 626400,
            "time": 490.8375,
            "velocity": 0.6692913385826772
          },
          {
            "duration": 0.30000000000001137,
            "durationTicks": 480,
            "midi": 62,
            "name": "D4",
            "ticks": 626880,
            "time": 491.1375,
            "velocity": 0.7165354330708661
          },
          {
            "duration": 0.3050000000000068,
            "durationTicks": 488,
            "midi": 52,
            "name": "E3",
            "ticks": 627360,
            "time": 491.4375,
            "velocity": 0.7086614173228346
          },
          {
            "duration": 0.3050000000000068,
            "durationTicks": 488,
            "midi": 55,
            "name": "G3",
            "ticks": 627840,
            "time": 491.7375,
            "velocity": 0.7874015748031497
          },
          {
            "duration": 0.2837499999999977,
            "durationTicks": 454,
            "midi": 59,
            "name": "B3",
            "ticks": 628320,
            "time": 492.03749999999997,
            "velocity": 0.8346456692913385
          },
          {
            "duration": 0.30000000000001137,
            "durationTicks": 480,
            "midi": 62,
            "name": "D4",
            "ticks": 628800,
            "time": 492.3375,
            "velocity": 0.8503937007874016
          },
          {
            "duration": 0.30000000000001137,
            "durationTicks": 480,
            "midi": 60,
            "name": "C4",
            "ticks": 629280,
            "time": 492.6375,
            "velocity": 0.7244094488188977
          },
          {
            "duration": 0.30000000000001137,
            "durationTicks": 480,
            "midi": 64,
            "name": "E4",
            "ticks": 629760,
            "time": 492.9375,
            "velocity": 0.84251968503937
          },
          {
            "duration": 0.2999999999999545,
            "durationTicks": 480,
            "midi": 62,
            "name": "D4",
            "ticks": 630240,
            "time": 493.2375,
            "velocity": 0.7401574803149606
          },
          {
            "duration": 0.30000000000001137,
            "durationTicks": 480,
            "midi": 54,
            "name": "F#3",
            "ticks": 630720,
            "time": 493.53749999999997,
            "velocity": 0.6850393700787402
          },
          {
            "duration": 0.30000000000001137,
            "durationTicks": 480,
            "midi": 55,
            "name": "G3",
            "ticks": 631200,
            "time": 493.8375,
            "velocity": 0.7637795275590551
          },
          {
            "duration": 0.30000000000001137,
            "durationTicks": 480,
            "midi": 47,
            "name": "B2",
            "ticks": 631680,
            "time": 494.1375,
            "velocity": 0.6614173228346457
          },
          {
            "duration": 0.30000000000001137,
            "durationTicks": 480,
            "midi": 38,
            "name": "D2",
            "ticks": 632160,
            "time": 494.4375,
            "velocity": 0.6299212598425197
          },
          {
            "duration": 0.2999999999999545,
            "durationTicks": 480,
            "midi": 54,
            "name": "F#3",
            "ticks": 632640,
            "time": 494.7375,
            "velocity": 0.7716535433070866
          },
          {
            "duration": 1.8000000000000114,
            "durationTicks": 2880,
            "midi": 43,
            "name": "G2",
            "ticks": 633120,
            "time": 495.03749999999997,
            "velocity": 0.6850393700787402
          },
          {
            "duration": 1.8000000000000114,
            "durationTicks": 2880,
            "midi": 55,
            "name": "G3",
            "ticks": 633120,
            "time": 495.03749999999997,
            "velocity": 0.6850393700787402
          },
          {
            "duration": 0.3050000000000068,
            "durationTicks": 488,
            "midi": 58,
            "name": "A#3",
            "ticks": 636000,
            "time": 496.8375,
            "velocity": 0.7401574803149606
          },
          {
            "duration": 0.3050000000000068,
            "durationTicks": 488,
            "midi": 57,
            "name": "A3",
            "ticks": 636480,
            "time": 497.1375,
            "velocity": 0.6535433070866141
          },
          {
            "duration": 0.2837499999999977,
            "durationTicks": 454,
            "midi": 58,
            "name": "A#3",
            "ticks": 636960,
            "time": 497.4375,
            "velocity": 0.6614173228346457
          },
          {
            "duration": 0.14999999999997726,
            "durationTicks": 240,
            "midi": 50,
            "name": "D3",
            "ticks": 637440,
            "time": 497.7375,
            "velocity": 0.7007874015748031
          },
          {
            "duration": 0.1500000000000341,
            "durationTicks": 240,
            "midi": 51,
            "name": "D#3",
            "ticks": 637920,
            "time": 498.03749999999997,
            "velocity": 0.7401574803149606
          },
          {
            "duration": 0.1500000000000341,
            "durationTicks": 240,
            "midi": 43,
            "name": "G2",
            "ticks": 638400,
            "time": 498.3375,
            "velocity": 0.6535433070866141
          },
          {
            "duration": 0.6000000000000227,
            "durationTicks": 960,
            "midi": 41,
            "name": "F2",
            "ticks": 638880,
            "time": 498.6375,
            "velocity": 0.6535433070866141
          },
          {
            "duration": 0.5393750000000068,
            "durationTicks": 863,
            "midi": 57,
            "name": "A3",
            "ticks": 639840,
            "time": 499.2375,
            "velocity": 0.7086614173228346
          },
          {
            "duration": 0.5393750000000068,
            "durationTicks": 863,
            "midi": 50,
            "name": "D3",
            "ticks": 640800,
            "time": 499.8375,
            "velocity": 0.5826771653543307
          },
          {
            "duration": 0.3050000000000068,
            "durationTicks": 488,
            "midi": 55,
            "name": "G3",
            "ticks": 641760,
            "time": 500.4375,
            "velocity": 0.7559055118110236
          },
          {
            "duration": 0.3050000000000068,
            "durationTicks": 488,
            "midi": 54,
            "name": "F#3",
            "ticks": 642240,
            "time": 500.7375,
            "velocity": 0.6220472440944882
          },
          {
            "duration": 0.2837499999999977,
            "durationTicks": 454,
            "midi": 55,
            "name": "G3",
            "ticks": 642720,
            "time": 501.03749999999997,
            "velocity": 0.6614173228346457
          },
          {
            "duration": 0.30000000000001137,
            "durationTicks": 480,
            "midi": 46,
            "name": "A#2",
            "ticks": 643200,
            "time": 501.3375,
            "velocity": 0.6141732283464567
          },
          {
            "duration": 0.30000000000001137,
            "durationTicks": 480,
            "midi": 48,
            "name": "C3",
            "ticks": 643680,
            "time": 501.6375,
            "velocity": 0.6692913385826772
          },
          {
            "duration": 0.30000000000001137,
            "durationTicks": 480,
            "midi": 39,
            "name": "D#2",
            "ticks": 644160,
            "time": 501.9375,
            "velocity": 0.5354330708661418
          },
          {
            "duration": 0.3050000000000068,
            "durationTicks": 488,
            "midi": 38,
            "name": "D2",
            "ticks": 644640,
            "time": 502.2375,
            "velocity": 0.6535433070866141
          },
          {
            "duration": 0.3050000000000068,
            "durationTicks": 488,
            "midi": 45,
            "name": "A2",
            "ticks": 645120,
            "time": 502.53749999999997,
            "velocity": 0.7165354330708661
          },
          {
            "duration": 0.2837499999999977,
            "durationTicks": 454,
            "midi": 50,
            "name": "D3",
            "ticks": 645600,
            "time": 502.8375,
            "velocity": 0.7322834645669292
          },
          {
            "duration": 0.30000000000001137,
            "durationTicks": 480,
            "midi": 55,
            "name": "G3",
            "ticks": 646080,
            "time": 503.1375,
            "velocity": 0.7165354330708661
          },
          {
            "duration": 0.30000000000001137,
            "durationTicks": 480,
            "midi": 54,
            "name": "F#3",
            "ticks": 646560,
            "time": 503.4375,
            "velocity": 0.6456692913385826
          },
          {
            "duration": 0.2999999999999545,
            "durationTicks": 480,
            "midi": 57,
            "name": "A3",
            "ticks": 647040,
            "time": 503.7375,
            "velocity": 0.6771653543307087
          },
          {
            "duration": 0.3050000000000068,
            "durationTicks": 488,
            "midi": 58,
            "name": "A#3",
            "ticks": 647520,
            "time": 504.03749999999997,
            "velocity": 0.7559055118110236
          },
          {
            "duration": 0.3050000000000068,
            "durationTicks": 488,
            "midi": 57,
            "name": "A3",
            "ticks": 648000,
            "time": 504.3375,
            "velocity": 0.6377952755905512
          },
          {
            "duration": 0.2837499999999977,
            "durationTicks": 454,
            "midi": 58,
            "name": "A#3",
            "ticks": 648480,
            "time": 504.6375,
            "velocity": 0.6456692913385826
          },
          {
            "duration": 0.14999999999997726,
            "durationTicks": 240,
            "midi": 50,
            "name": "D3",
            "ticks": 648960,
            "time": 504.9375,
            "velocity": 0.6614173228346457
          },
          {
            "duration": 0.14999999999997726,
            "durationTicks": 240,
            "midi": 51,
            "name": "D#3",
            "ticks": 649440,
            "time": 505.2375,
            "velocity": 0.7480314960629921
          },
          {
            "duration": 0.1500000000000341,
            "durationTicks": 240,
            "midi": 43,
            "name": "G2",
            "ticks": 649920,
            "time": 505.53749999999997,
            "velocity": 0.6377952755905512
          },
          {
            "duration": 0.6000000000000227,
            "durationTicks": 960,
            "midi": 41,
            "name": "F2",
            "ticks": 650400,
            "time": 505.8375,
            "velocity": 0.5984251968503937
          },
          {
            "duration": 0.5393750000000068,
            "durationTicks": 863,
            "midi": 57,
            "name": "A3",
            "ticks": 651360,
            "time": 506.4375,
            "velocity": 0.6771653543307087
          },
          {
            "duration": 0.5393750000000068,
            "durationTicks": 863,
            "midi": 50,
            "name": "D3",
            "ticks": 652320,
            "time": 507.03749999999997,
            "velocity": 0.5826771653543307
          },
          {
            "duration": 0.3050000000000068,
            "durationTicks": 488,
            "midi": 55,
            "name": "G3",
            "ticks": 653280,
            "time": 507.6375,
            "velocity": 0.7165354330708661
          },
          {
            "duration": 0.3050000000000068,
            "durationTicks": 488,
            "midi": 54,
            "name": "F#3",
            "ticks": 653760,
            "time": 507.9375,
            "velocity": 0.6535433070866141
          },
          {
            "duration": 0.2837499999999977,
            "durationTicks": 454,
            "midi": 55,
            "name": "G3",
            "ticks": 654240,
            "time": 508.2375,
            "velocity": 0.6929133858267716
          },
          {
            "duration": 0.30000000000001137,
            "durationTicks": 480,
            "midi": 46,
            "name": "A#2",
            "ticks": 654720,
            "time": 508.53749999999997,
            "velocity": 0.5826771653543307
          },
          {
            "duration": 0.30000000000001137,
            "durationTicks": 480,
            "midi": 48,
            "name": "C3",
            "ticks": 655200,
            "time": 508.8375,
            "velocity": 0.6456692913385826
          },
          {
            "duration": 0.30000000000001137,
            "durationTicks": 480,
            "midi": 40,
            "name": "E2",
            "ticks": 655680,
            "time": 509.1375,
            "velocity": 0.5748031496062992
          },
          {
            "duration": 0.3050000000000068,
            "durationTicks": 488,
            "midi": 38,
            "name": "D2",
            "ticks": 656160,
            "time": 509.4375,
            "velocity": 0.6220472440944882
          },
          {
            "duration": 0.2837499999999977,
            "durationTicks": 454,
            "midi": 55,
            "name": "G3",
            "ticks": 656640,
            "time": 509.7375,
            "velocity": 0.7795275590551181
          },
          {
            "duration": 1.1999999999999886,
            "durationTicks": 1920,
            "midi": 54,
            "name": "F#3",
            "ticks": 657120,
            "time": 510.03749999999997,
            "velocity": 0.6377952755905512
          },
          {
            "duration": 0.30500000000006366,
            "durationTicks": 488,
            "midi": 50,
            "name": "D3",
            "ticks": 659040,
            "time": 511.23749999999995,
            "velocity": 0.7559055118110236
          },
          {
            "duration": 0.2837499999999977,
            "durationTicks": 454,
            "midi": 54,
            "name": "F#3",
            "ticks": 659520,
            "time": 511.53749999999997,
            "velocity": 0.7795275590551181
          },
          {
            "duration": 0.6000000000000227,
            "durationTicks": 960,
            "midi": 57,
            "name": "A3",
            "ticks": 660000,
            "time": 511.8375,
            "velocity": 0.7952755905511811
          },
          {
            "duration": 0.30499999999995,
            "durationTicks": 488,
            "midi": 55,
            "name": "G3",
            "ticks": 660960,
            "time": 512.4375,
            "velocity": 0.7480314960629921
          },
          {
            "duration": 0.140625,
            "durationTicks": 225,
            "midi": 57,
            "name": "A3",
            "ticks": 661440,
            "time": 512.7375,
            "velocity": 0.7874015748031497
          },
          {
            "duration": 0.14999999999997726,
            "durationTicks": 240,
            "midi": 59,
            "name": "B3",
            "ticks": 661680,
            "time": 512.8875,
            "velocity": 0.7874015748031497
          },
          {
            "duration": 0.30499999999995,
            "durationTicks": 488,
            "midi": 57,
            "name": "A3",
            "ticks": 661920,
            "time": 513.0375,
            "velocity": 0.7874015748031497
          },
          {
            "duration": 0.28375000000005457,
            "durationTicks": 454,
            "midi": 55,
            "name": "G3",
            "ticks": 662400,
            "time": 513.3375,
            "velocity": 0.7401574803149606
          },
          {
            "duration": 0.30499999999995,
            "durationTicks": 488,
            "midi": 54,
            "name": "F#3",
            "ticks": 662880,
            "time": 513.6375,
            "velocity": 0.7322834645669292
          },
          {
            "duration": 0.2837499999999409,
            "durationTicks": 454,
            "midi": 52,
            "name": "E3",
            "ticks": 663360,
            "time": 513.9375,
            "velocity": 0.7322834645669292
          },
          {
            "duration": 0.30500000000006366,
            "durationTicks": 488,
            "midi": 50,
            "name": "D3",
            "ticks": 663840,
            "time": 514.2375,
            "velocity": 0.7401574803149606
          },
          {
            "duration": 0.2837499999999409,
            "durationTicks": 454,
            "midi": 54,
            "name": "F#3",
            "ticks": 664320,
            "time": 514.5375,
            "velocity": 0.7952755905511811
          },
          {
            "duration": 0.3000000000000682,
            "durationTicks": 480,
            "midi": 47,
            "name": "B2",
            "ticks": 664800,
            "time": 514.8375,
            "velocity": 0.8503937007874016
          },
          {
            "duration": 0.2999999999999545,
            "durationTicks": 480,
            "midi": 50,
            "name": "D3",
            "ticks": 665280,
            "time": 515.1375,
            "velocity": 0.8031496062992126
          },
          {
            "duration": 0.2999999999999545,
            "durationTicks": 480,
            "midi": 56,
            "name": "G#3",
            "ticks": 665760,
            "time": 515.4375,
            "velocity": 0.84251968503937
          },
          {
            "duration": 0.3000000000000682,
            "durationTicks": 480,
            "midi": 57,
            "name": "A3",
            "ticks": 666240,
            "time": 515.7375,
            "velocity": 0.7795275590551181
          },
          {
            "duration": 0.2999999999999545,
            "durationTicks": 480,
            "midi": 59,
            "name": "B3",
            "ticks": 666720,
            "time": 516.0375,
            "velocity": 0.7716535433070866
          },
          {
            "duration": 0.3000000000000682,
            "durationTicks": 480,
            "midi": 62,
            "name": "D4",
            "ticks": 667200,
            "time": 516.3375,
            "velocity": 0.84251968503937
          },
          {
            "duration": 0.2999999999999545,
            "durationTicks": 480,
            "midi": 45,
            "name": "A2",
            "ticks": 667680,
            "time": 516.6375,
            "velocity": 0.6850393700787402
          },
          {
            "duration": 0.30499999999995,
            "durationTicks": 488,
            "midi": 62,
            "name": "D4",
            "ticks": 668160,
            "time": 516.9375,
            "velocity": 0.984251968503937
          },
          {
            "duration": 0.30500000000006366,
            "durationTicks": 488,
            "midi": 60,
            "name": "C4",
            "ticks": 668640,
            "time": 517.2375,
            "velocity": 0.7165354330708661
          },
          {
            "duration": 0.22500000000002274,
            "durationTicks": 360,
            "midi": 59,
            "name": "B3",
            "ticks": 669120,
            "time": 517.5375,
            "velocity": 0.7637795275590551
          },
          {
            "duration": 0.6000000000000227,
            "durationTicks": 960,
            "midi": 60,
            "name": "C4",
            "ticks": 669600,
            "time": 517.8375,
            "velocity": 0.7952755905511811
          },
          {
            "duration": 0.30499999999995,
            "durationTicks": 488,
            "midi": 51,
            "name": "D#3",
            "ticks": 670560,
            "time": 518.4375,
            "velocity": 0.48031496062992124
          },
          {
            "duration": 0.30500000000006366,
            "durationTicks": 488,
            "midi": 54,
            "name": "F#3",
            "ticks": 671040,
            "time": 518.7375,
            "velocity": 0.47244094488188976
          },
          {
            "duration": 0.2837499999999409,
            "durationTicks": 454,
            "midi": 57,
            "name": "A3",
            "ticks": 671520,
            "time": 519.0375,
            "velocity": 0.47244094488188976
          },
          {
            "duration": 0.3000000000000682,
            "durationTicks": 480,
            "midi": 60,
            "name": "C4",
            "ticks": 672000,
            "time": 519.3375,
            "velocity": 0.5590551181102362
          },
          {
            "duration": 0.2999999999999545,
            "durationTicks": 480,
            "midi": 59,
            "name": "B3",
            "ticks": 672480,
            "time": 519.6375,
            "velocity": 0.48031496062992124
          },
          {
            "duration": 0.2999999999999545,
            "durationTicks": 480,
            "midi": 57,
            "name": "A3",
            "ticks": 672960,
            "time": 519.9375,
            "velocity": 0.47244094488188976
          },
          {
            "duration": 0.30500000000006366,
            "durationTicks": 488,
            "midi": 59,
            "name": "B3",
            "ticks": 673440,
            "time": 520.2375,
            "velocity": 0.48031496062992124
          },
          {
            "duration": 0.30499999999995,
            "durationTicks": 488,
            "midi": 52,
            "name": "E3",
            "ticks": 673920,
            "time": 520.5375,
            "velocity": 0.44881889763779526
          },
          {
            "duration": 0.28375000000005457,
            "durationTicks": 454,
            "midi": 43,
            "name": "G2",
            "ticks": 674400,
            "time": 520.8375,
            "velocity": 0.4330708661417323
          },
          {
            "duration": 0.2999999999999545,
            "durationTicks": 480,
            "midi": 57,
            "name": "A3",
            "ticks": 674880,
            "time": 521.1375,
            "velocity": 0.5275590551181102
          },
          {
            "duration": 0.2999999999999545,
            "durationTicks": 480,
            "midi": 60,
            "name": "C4",
            "ticks": 675360,
            "time": 521.4375,
            "velocity": 0.5354330708661418
          },
          {
            "duration": 0.3000000000000682,
            "durationTicks": 480,
            "midi": 59,
            "name": "B3",
            "ticks": 675840,
            "time": 521.7375,
            "velocity": 0.4566929133858268
          },
          {
            "duration": 0.30499999999995,
            "durationTicks": 488,
            "midi": 57,
            "name": "A3",
            "ticks": 676320,
            "time": 522.0375,
            "velocity": 0.4645669291338583
          },
          {
            "duration": 0.30499999999995,
            "durationTicks": 488,
            "midi": 55,
            "name": "G3",
            "ticks": 676800,
            "time": 522.3375,
            "velocity": 0.47244094488188976
          },
          {
            "duration": 0.2837499999999409,
            "durationTicks": 454,
            "midi": 54,
            "name": "F#3",
            "ticks": 677280,
            "time": 522.6375,
            "velocity": 0.47244094488188976
          },
          {
            "duration": 0.2999999999999545,
            "durationTicks": 480,
            "midi": 52,
            "name": "E3",
            "ticks": 677760,
            "time": 522.9375,
            "velocity": 0.48031496062992124
          },
          {
            "duration": 0.3000000000000682,
            "durationTicks": 480,
            "midi": 47,
            "name": "B2",
            "ticks": 678240,
            "time": 523.2375,
            "velocity": 0.4409448818897638
          },
          {
            "duration": 0.14999999999997726,
            "durationTicks": 240,
            "midi": 51,
            "name": "D#3",
            "ticks": 678720,
            "time": 523.5375,
            "velocity": 0.5118110236220472
          },
          {
            "duration": 0.8999999999999773,
            "durationTicks": 1440,
            "midi": 40,
            "name": "E2",
            "ticks": 679200,
            "time": 523.8375,
            "velocity": 0.3700787401574803
          },
          {
            "duration": 0.3000000000000682,
            "durationTicks": 480,
            "midi": 52,
            "name": "E3",
            "ticks": 680640,
            "time": 524.7375,
            "velocity": 0.3937007874015748
          },
          {
            "duration": 0.2999999999999545,
            "durationTicks": 480,
            "midi": 50,
            "name": "D3",
            "ticks": 681120,
            "time": 525.0375,
            "velocity": 0.33858267716535434
          },
          {
            "duration": 0.3000000000000682,
            "durationTicks": 480,
            "midi": 48,
            "name": "C3",
            "ticks": 681600,
            "time": 525.3375,
            "velocity": 0.3228346456692913
          },
          {
            "duration": 0.30499999999995,
            "durationTicks": 488,
            "midi": 47,
            "name": "B2",
            "ticks": 682080,
            "time": 525.6375,
            "velocity": 0.31496062992125984
          },
          {
            "duration": 0.2837499999999409,
            "durationTicks": 454,
            "midi": 50,
            "name": "D3",
            "ticks": 682560,
            "time": 525.9375,
            "velocity": 0.3779527559055118
          },
          {
            "duration": 0.5393750000000637,
            "durationTicks": 863,
            "midi": 55,
            "name": "G3",
            "ticks": 683040,
            "time": 526.2375,
            "velocity": 0.3779527559055118
          },
          {
            "duration": 0.2743749999999636,
            "durationTicks": 439,
            "midi": 50,
            "name": "D3",
            "ticks": 684000,
            "time": 526.8375,
            "velocity": 0.33070866141732286
          },
          {
            "duration": 0.15249999999991815,
            "durationTicks": 244,
            "midi": 52,
            "name": "E3",
            "ticks": 684480,
            "time": 527.1375,
            "velocity": 0.30708661417322836
          },
          {
            "duration": 0.140625,
            "durationTicks": 225,
            "midi": 53,
            "name": "F3",
            "ticks": 684720,
            "time": 527.2875,
            "velocity": 0.3464566929133858
          },
          {
            "duration": 0.30499999999995,
            "durationTicks": 488,
            "midi": 53,
            "name": "F3",
            "ticks": 684960,
            "time": 527.4375,
            "velocity": 0.3543307086614173
          },
          {
            "duration": 0.30500000000006366,
            "durationTicks": 488,
            "midi": 50,
            "name": "D3",
            "ticks": 685440,
            "time": 527.7375,
            "velocity": 0.33070866141732286
          },
          {
            "duration": 0.2837499999999409,
            "durationTicks": 454,
            "midi": 52,
            "name": "E3",
            "ticks": 685920,
            "time": 528.0375,
            "velocity": 0.3700787401574803
          },
          {
            "duration": 0.3000000000000682,
            "durationTicks": 480,
            "midi": 48,
            "name": "C3",
            "ticks": 686400,
            "time": 528.3375,
            "velocity": 0.2992125984251969
          },
          {
            "duration": 0.2999999999999545,
            "durationTicks": 480,
            "midi": 36,
            "name": "C2",
            "ticks": 686880,
            "time": 528.6375,
            "velocity": 0.31496062992125984
          },
          {
            "duration": 0.2999999999999545,
            "durationTicks": 480,
            "midi": 47,
            "name": "B2",
            "ticks": 687360,
            "time": 528.9375,
            "velocity": 0.3700787401574803
          },
          {
            "duration": 0.30500000000006366,
            "durationTicks": 488,
            "midi": 49,
            "name": "C#3",
            "ticks": 687840,
            "time": 529.2375,
            "velocity": 0.5826771653543307
          },
          {
            "duration": 0.2837499999999409,
            "durationTicks": 454,
            "midi": 52,
            "name": "E3",
            "ticks": 688320,
            "time": 529.5375,
            "velocity": 0.5669291338582677
          },
          {
            "duration": 0.53937499999995,
            "durationTicks": 863,
            "midi": 57,
            "name": "A3",
            "ticks": 688800,
            "time": 529.8375,
            "velocity": 0.5984251968503937
          },
          {
            "duration": 0.2743749999999636,
            "durationTicks": 439,
            "midi": 52,
            "name": "E3",
            "ticks": 689760,
            "time": 530.4375,
            "velocity": 0.4566929133858268
          },
          {
            "duration": 0.15250000000003183,
            "durationTicks": 244,
            "midi": 54,
            "name": "F#3",
            "ticks": 690240,
            "time": 530.7375,
            "velocity": 0.5826771653543307
          },
          {
            "duration": 0.140625,
            "durationTicks": 225,
            "midi": 55,
            "name": "G3",
            "ticks": 690480,
            "time": 530.8875,
            "velocity": 0.6141732283464567
          },
          {
            "duration": 0.30499999999995,
            "durationTicks": 488,
            "midi": 55,
            "name": "G3",
            "ticks": 690720,
            "time": 531.0375,
            "velocity": 0.5511811023622047
          },
          {
            "duration": 0.30499999999995,
            "durationTicks": 488,
            "midi": 52,
            "name": "E3",
            "ticks": 691200,
            "time": 531.3375,
            "velocity": 0.5196850393700787
          },
          {
            "duration": 0.2837499999999409,
            "durationTicks": 454,
            "midi": 54,
            "name": "F#3",
            "ticks": 691680,
            "time": 531.6375,
            "velocity": 0.5826771653543307
          },
          {
            "duration": 0.2999999999999545,
            "durationTicks": 480,
            "midi": 50,
            "name": "D3",
            "ticks": 692160,
            "time": 531.9375,
            "velocity": 0.5354330708661418
          },
          {
            "duration": 0.3000000000000682,
            "durationTicks": 480,
            "midi": 38,
            "name": "D2",
            "ticks": 692640,
            "time": 532.2375,
            "velocity": 0.47244094488188976
          },
          {
            "duration": 0.2999999999999545,
            "durationTicks": 480,
            "midi": 45,
            "name": "A2",
            "ticks": 693120,
            "time": 532.5375,
            "velocity": 0.6141732283464567
          },
          {
            "duration": 0.30499999999995,
            "durationTicks": 488,
            "midi": 50,
            "name": "D3",
            "ticks": 693600,
            "time": 532.8375,
            "velocity": 0.7007874015748031
          },
          {
            "duration": 0.30499999999995,
            "durationTicks": 488,
            "midi": 54,
            "name": "F#3",
            "ticks": 694080,
            "time": 533.1375,
            "velocity": 0.7086614173228346
          },
          {
            "duration": 0.2837499999999409,
            "durationTicks": 454,
            "midi": 57,
            "name": "A3",
            "ticks": 694560,
            "time": 533.4375,
            "velocity": 0.6850393700787402
          },
          {
            "duration": 0.3000000000000682,
            "durationTicks": 480,
            "midi": 60,
            "name": "C4",
            "ticks": 695040,
            "time": 533.7375,
            "velocity": 0.7086614173228346
          },
          {
            "duration": 0.2999999999999545,
            "durationTicks": 480,
            "midi": 59,
            "name": "B3",
            "ticks": 695520,
            "time": 534.0375,
            "velocity": 0.6535433070866141
          },
          {
            "duration": 0.3000000000000682,
            "durationTicks": 480,
            "midi": 62,
            "name": "D4",
            "ticks": 696000,
            "time": 534.3375,
            "velocity": 0.7244094488188977
          },
          {
            "duration": 0.30499999999995,
            "durationTicks": 488,
            "midi": 52,
            "name": "E3",
            "ticks": 696480,
            "time": 534.6375,
            "velocity": 0.6850393700787402
          },
          {
            "duration": 0.30499999999995,
            "durationTicks": 488,
            "midi": 55,
            "name": "G3",
            "ticks": 696960,
            "time": 534.9375,
            "velocity": 0.7874015748031497
          },
          {
            "duration": 0.28375000000005457,
            "durationTicks": 454,
            "midi": 59,
            "name": "B3",
            "ticks": 697440,
            "time": 535.2375,
            "velocity": 0.7952755905511811
          },
          {
            "duration": 0.2999999999999545,
            "durationTicks": 480,
            "midi": 62,
            "name": "D4",
            "ticks": 697920,
            "time": 535.5375,
            "velocity": 0.8503937007874016
          },
          {
            "duration": 0.3000000000000682,
            "durationTicks": 480,
            "midi": 60,
            "name": "C4",
            "ticks": 698400,
            "time": 535.8375,
            "velocity": 0.7244094488188977
          },
          {
            "duration": 0.2999999999999545,
            "durationTicks": 480,
            "midi": 64,
            "name": "E4",
            "ticks": 698880,
            "time": 536.1375,
            "velocity": 0.8582677165354331
          },
          {
            "duration": 0.2999999999999545,
            "durationTicks": 480,
            "midi": 62,
            "name": "D4",
            "ticks": 699360,
            "time": 536.4375,
            "velocity": 0.7637795275590551
          },
          {
            "duration": 0.3000000000000682,
            "durationTicks": 480,
            "midi": 54,
            "name": "F#3",
            "ticks": 699840,
            "time": 536.7375,
            "velocity": 0.6850393700787402
          },
          {
            "duration": 0.2999999999999545,
            "durationTicks": 480,
            "midi": 55,
            "name": "G3",
            "ticks": 700320,
            "time": 537.0375,
            "velocity": 0.7401574803149606
          },
          {
            "duration": 0.3000000000000682,
            "durationTicks": 480,
            "midi": 47,
            "name": "B2",
            "ticks": 700800,
            "time": 537.3375,
            "velocity": 0.6692913385826772
          },
          {
            "duration": 0.2999999999999545,
            "durationTicks": 480,
            "midi": 38,
            "name": "D2",
            "ticks": 701280,
            "time": 537.6375,
            "velocity": 0.5905511811023622
          },
          {
            "duration": 0.2999999999999545,
            "durationTicks": 480,
            "midi": 54,
            "name": "F#3",
            "ticks": 701760,
            "time": 537.9375,
            "velocity": 0.8188976377952756
          },
          {
            "duration": 1.8000000000000682,
            "durationTicks": 2880,
            "midi": 43,
            "name": "G2",
            "ticks": 702240,
            "time": 538.2375,
            "velocity": 0.7007874015748031
          },
          {
            "duration": 1.8000000000000682,
            "durationTicks": 2880,
            "midi": 55,
            "name": "G3",
            "ticks": 702240,
            "time": 538.2375,
            "velocity": 0.7007874015748031
          },
          {
            "duration": 0.30499999999995,
            "durationTicks": 488,
            "midi": 58,
            "name": "A#3",
            "ticks": 705120,
            "time": 540.0375,
            "velocity": 0.7559055118110236
          },
          {
            "duration": 0.30499999999995,
            "durationTicks": 488,
            "midi": 57,
            "name": "A3",
            "ticks": 705600,
            "time": 540.3375,
            "velocity": 0.6377952755905512
          },
          {
            "duration": 0.2837499999999409,
            "durationTicks": 454,
            "midi": 58,
            "name": "A#3",
            "ticks": 706080,
            "time": 540.6375,
            "velocity": 0.6850393700787402
          },
          {
            "duration": 0.14999999999997726,
            "durationTicks": 240,
            "midi": 50,
            "name": "D3",
            "ticks": 706560,
            "time": 540.9375,
            "velocity": 0.6535433070866141
          },
          {
            "duration": 0.15000000000009095,
            "durationTicks": 240,
            "midi": 51,
            "name": "D#3",
            "ticks": 707040,
            "time": 541.2375,
            "velocity": 0.7322834645669292
          },
          {
            "duration": 0.14999999999997726,
            "durationTicks": 240,
            "midi": 43,
            "name": "G2",
            "ticks": 707520,
            "time": 541.5375,
            "velocity": 0.6614173228346457
          },
          {
            "duration": 0.6000000000000227,
            "durationTicks": 960,
            "midi": 41,
            "name": "F2",
            "ticks": 708000,
            "time": 541.8375,
            "velocity": 0.6535433070866141
          },
          {
            "duration": 0.53937499999995,
            "durationTicks": 863,
            "midi": 57,
            "name": "A3",
            "ticks": 708960,
            "time": 542.4375,
            "velocity": 0.7007874015748031
          },
          {
            "duration": 0.53937499999995,
            "durationTicks": 863,
            "midi": 50,
            "name": "D3",
            "ticks": 709920,
            "time": 543.0375,
            "velocity": 0.5826771653543307
          },
          {
            "duration": 0.30499999999995,
            "durationTicks": 488,
            "midi": 55,
            "name": "G3",
            "ticks": 710880,
            "time": 543.6375,
            "velocity": 0.7480314960629921
          },
          {
            "duration": 0.30499999999995,
            "durationTicks": 488,
            "midi": 54,
            "name": "F#3",
            "ticks": 711360,
            "time": 543.9375,
            "velocity": 0.6377952755905512
          },
          {
            "duration": 0.28375000000005457,
            "durationTicks": 454,
            "midi": 55,
            "name": "G3",
            "ticks": 711840,
            "time": 544.2375,
            "velocity": 0.6535433070866141
          },
          {
            "duration": 0.2999999999999545,
            "durationTicks": 480,
            "midi": 46,
            "name": "A#2",
            "ticks": 712320,
            "time": 544.5375,
            "velocity": 0.5905511811023622
          },
          {
            "duration": 0.3000000000000682,
            "durationTicks": 480,
            "midi": 48,
            "name": "C3",
            "ticks": 712800,
            "time": 544.8375,
            "velocity": 0.6771653543307087
          },
          {
            "duration": 0.2999999999999545,
            "durationTicks": 480,
            "midi": 39,
            "name": "D#2",
            "ticks": 713280,
            "time": 545.1375,
            "velocity": 0.5905511811023622
          },
          {
            "duration": 0.30499999999995,
            "durationTicks": 488,
            "midi": 38,
            "name": "D2",
            "ticks": 713760,
            "time": 545.4375,
            "velocity": 0.6692913385826772
          },
          {
            "duration": 0.30500000000006366,
            "durationTicks": 488,
            "midi": 45,
            "name": "A2",
            "ticks": 714240,
            "time": 545.7375,
            "velocity": 0.7007874015748031
          },
          {
            "duration": 0.2837499999999409,
            "durationTicks": 454,
            "midi": 50,
            "name": "D3",
            "ticks": 714720,
            "time": 546.0375,
            "velocity": 0.7244094488188977
          },
          {
            "duration": 0.3000000000000682,
            "durationTicks": 480,
            "midi": 55,
            "name": "G3",
            "ticks": 715200,
            "time": 546.3375,
            "velocity": 0.7086614173228346
          },
          {
            "duration": 0.2999999999999545,
            "durationTicks": 480,
            "midi": 54,
            "name": "F#3",
            "ticks": 715680,
            "time": 546.6375,
            "velocity": 0.6614173228346457
          },
          {
            "duration": 0.2999999999999545,
            "durationTicks": 480,
            "midi": 57,
            "name": "A3",
            "ticks": 716160,
            "time": 546.9375,
            "velocity": 0.6929133858267716
          },
          {
            "duration": 0.30500000000006366,
            "durationTicks": 488,
            "midi": 58,
            "name": "A#3",
            "ticks": 716640,
            "time": 547.2375,
            "velocity": 0.7165354330708661
          },
          {
            "duration": 0.30499999999995,
            "durationTicks": 488,
            "midi": 57,
            "name": "A3",
            "ticks": 717120,
            "time": 547.5375,
            "velocity": 0.6614173228346457
          },
          {
            "duration": 0.28375000000005457,
            "durationTicks": 454,
            "midi": 58,
            "name": "A#3",
            "ticks": 717600,
            "time": 547.8375,
            "velocity": 0.6535433070866141
          },
          {
            "duration": 0.14999999999997726,
            "durationTicks": 240,
            "midi": 50,
            "name": "D3",
            "ticks": 718080,
            "time": 548.1375,
            "velocity": 0.6771653543307087
          },
          {
            "duration": 0.14999999999997726,
            "durationTicks": 240,
            "midi": 51,
            "name": "D#3",
            "ticks": 718560,
            "time": 548.4375,
            "velocity": 0.7559055118110236
          },
          {
            "duration": 0.15000000000009095,
            "durationTicks": 240,
            "midi": 43,
            "name": "G2",
            "ticks": 719040,
            "time": 548.7375,
            "velocity": 0.6771653543307087
          },
          {
            "duration": 0.6000000000000227,
            "durationTicks": 960,
            "midi": 41,
            "name": "F2",
            "ticks": 719520,
            "time": 549.0375,
            "velocity": 0.6220472440944882
          },
          {
            "duration": 0.53937499999995,
            "durationTicks": 863,
            "midi": 57,
            "name": "A3",
            "ticks": 720480,
            "time": 549.6375,
            "velocity": 0.7165354330708661
          },
          {
            "duration": 0.5393750000000637,
            "durationTicks": 863,
            "midi": 50,
            "name": "D3",
            "ticks": 721440,
            "time": 550.2375,
            "velocity": 0.5748031496062992
          },
          {
            "duration": 0.30499999999995,
            "durationTicks": 488,
            "midi": 55,
            "name": "G3",
            "ticks": 722400,
            "time": 550.8375,
            "velocity": 0.6771653543307087
          },
          {
            "duration": 0.30499999999995,
            "durationTicks": 488,
            "midi": 54,
            "name": "F#3",
            "ticks": 722880,
            "time": 551.1375,
            "velocity": 0.6614173228346457
          },
          {
            "duration": 0.2837499999999409,
            "durationTicks": 454,
            "midi": 55,
            "name": "G3",
            "ticks": 723360,
            "time": 551.4375,
            "velocity": 0.6614173228346457
          },
          {
            "duration": 0.3000000000000682,
            "durationTicks": 480,
            "midi": 46,
            "name": "A#2",
            "ticks": 723840,
            "time": 551.7375,
            "velocity": 0.5984251968503937
          },
          {
            "duration": 0.2999999999999545,
            "durationTicks": 480,
            "midi": 48,
            "name": "C3",
            "ticks": 724320,
            "time": 552.0375,
            "velocity": 0.6614173228346457
          },
          {
            "duration": 0.3000000000000682,
            "durationTicks": 480,
            "midi": 40,
            "name": "E2",
            "ticks": 724800,
            "time": 552.3375,
            "velocity": 0.5669291338582677
          },
          {
            "duration": 0.30499999999995,
            "durationTicks": 488,
            "midi": 38,
            "name": "D2",
            "ticks": 725280,
            "time": 552.6375,
            "velocity": 0.6220472440944882
          },
          {
            "duration": 0.2837499999999409,
            "durationTicks": 454,
            "midi": 55,
            "name": "G3",
            "ticks": 725760,
            "time": 552.9375,
            "velocity": 0.7795275590551181
          },
          {
            "duration": 1.2000000000000455,
            "durationTicks": 1920,
            "midi": 54,
            "name": "F#3",
            "ticks": 726240,
            "time": 553.2375,
            "velocity": 0.7007874015748031
          },
          {
            "duration": 0.30499999999995,
            "durationTicks": 488,
            "midi": 50,
            "name": "D3",
            "ticks": 728160,
            "time": 554.4375,
            "velocity": 0.6377952755905512
          },
          {
            "duration": 0.30500000000006366,
            "durationTicks": 488,
            "midi": 54,
            "name": "F#3",
            "ticks": 728640,
            "time": 554.7375,
            "velocity": 0.7322834645669292
          },
          {
            "duration": 0.2837499999999409,
            "durationTicks": 454,
            "midi": 57,
            "name": "A3",
            "ticks": 729120,
            "time": 555.0375,
            "velocity": 0.6771653543307087
          },
          {
            "duration": 0.3000000000000682,
            "durationTicks": 480,
            "midi": 60,
            "name": "C4",
            "ticks": 729600,
            "time": 555.3375,
            "velocity": 0.7480314960629921
          },
          {
            "duration": 0.2999999999999545,
            "durationTicks": 480,
            "midi": 63,
            "name": "D#4",
            "ticks": 730080,
            "time": 555.6375,
            "velocity": 0.7322834645669292
          },
          {
            "duration": 0.2999999999999545,
            "durationTicks": 480,
            "midi": 62,
            "name": "D4",
            "ticks": 730560,
            "time": 555.9375,
            "velocity": 0.6141732283464567
          },
          {
            "duration": 0.30500000000006366,
            "durationTicks": 488,
            "midi": 60,
            "name": "C4",
            "ticks": 731040,
            "time": 556.2375,
            "velocity": 0.5905511811023622
          },
          {
            "duration": 0.30499999999995,
            "durationTicks": 488,
            "midi": 58,
            "name": "A#3",
            "ticks": 731520,
            "time": 556.5375,
            "velocity": 0.6377952755905512
          },
          {
            "duration": 0.30499999999995,
            "durationTicks": 488,
            "midi": 57,
            "name": "A3",
            "ticks": 732000,
            "time": 556.8375,
            "velocity": 0.6377952755905512
          },
          {
            "duration": 0.2837499999999409,
            "durationTicks": 454,
            "midi": 58,
            "name": "A#3",
            "ticks": 732480,
            "time": 557.1375,
            "velocity": 0.5826771653543307
          },
          {
            "duration": 0.6000000000000227,
            "durationTicks": 960,
            "midi": 55,
            "name": "G3",
            "ticks": 732960,
            "time": 557.4375,
            "velocity": 0.5511811023622047
          },
          {
            "duration": 0.30499999999995,
            "durationTicks": 488,
            "midi": 48,
            "name": "C3",
            "ticks": 733920,
            "time": 558.0375,
            "velocity": 0.5354330708661418
          },
          {
            "duration": 0.30499999999995,
            "durationTicks": 488,
            "midi": 52,
            "name": "E3",
            "ticks": 734400,
            "time": 558.3375,
            "velocity": 0.5511811023622047
          },
          {
            "duration": 0.2837499999999409,
            "durationTicks": 454,
            "midi": 55,
            "name": "G3",
            "ticks": 734880,
            "time": 558.6375,
            "velocity": 0.5590551181102362
          },
          {
            "duration": 0.2999999999999545,
            "durationTicks": 480,
            "midi": 58,
            "name": "A#3",
            "ticks": 735360,
            "time": 558.9375,
            "velocity": 0.5748031496062992
          },
          {
            "duration": 0.3000000000000682,
            "durationTicks": 480,
            "midi": 62,
            "name": "D4",
            "ticks": 735840,
            "time": 559.2375,
            "velocity": 0.6456692913385826
          },
          {
            "duration": 0.2999999999999545,
            "durationTicks": 480,
            "midi": 60,
            "name": "C4",
            "ticks": 736320,
            "time": 559.5375,
            "velocity": 0.5275590551181102
          },
          {
            "duration": 0.30499999999995,
            "durationTicks": 488,
            "midi": 58,
            "name": "A#3",
            "ticks": 736800,
            "time": 559.8375,
            "velocity": 0.5275590551181102
          },
          {
            "duration": 0.30499999999995,
            "durationTicks": 488,
            "midi": 57,
            "name": "A3",
            "ticks": 737280,
            "time": 560.1375,
            "velocity": 0.5354330708661418
          },
          {
            "duration": 0.2837499999999409,
            "durationTicks": 454,
            "midi": 55,
            "name": "G3",
            "ticks": 737760,
            "time": 560.4375,
            "velocity": 0.5275590551181102
          },
          {
            "duration": 0.3000000000000682,
            "durationTicks": 480,
            "midi": 57,
            "name": "A3",
            "ticks": 738240,
            "time": 560.7375,
            "velocity": 0.5826771653543307
          },
          {
            "duration": 0.2999999999999545,
            "durationTicks": 480,
            "midi": 53,
            "name": "F3",
            "ticks": 738720,
            "time": 561.0375,
            "velocity": 0.5275590551181102
          },
          {
            "duration": 0.3000000000000682,
            "durationTicks": 480,
            "midi": 51,
            "name": "D#3",
            "ticks": 739200,
            "time": 561.3375,
            "velocity": 0.5039370078740157
          },
          {
            "duration": 0.2999999999999545,
            "durationTicks": 480,
            "midi": 50,
            "name": "D3",
            "ticks": 739680,
            "time": 561.6375,
            "velocity": 0.5590551181102362
          },
          {
            "duration": 0.2999999999999545,
            "durationTicks": 480,
            "midi": 53,
            "name": "F3",
            "ticks": 740160,
            "time": 561.9375,
            "velocity": 0.5748031496062992
          },
          {
            "duration": 0.30500000000006366,
            "durationTicks": 488,
            "midi": 58,
            "name": "A#3",
            "ticks": 740640,
            "time": 562.2375,
            "velocity": 0.6141732283464567
          },
          {
            "duration": 0.30499999999995,
            "durationTicks": 488,
            "midi": 57,
            "name": "A3",
            "ticks": 741120,
            "time": 562.5375,
            "velocity": 0.5748031496062992
          },
          {
            "duration": 0.28375000000005457,
            "durationTicks": 454,
            "midi": 58,
            "name": "A#3",
            "ticks": 741600,
            "time": 562.8375,
            "velocity": 0.5748031496062992
          },
          {
            "duration": 0.2999999999999545,
            "durationTicks": 480,
            "midi": 50,
            "name": "D3",
            "ticks": 742080,
            "time": 563.1375,
            "velocity": 0.4881889763779528
          },
          {
            "duration": 0.2999999999999545,
            "durationTicks": 480,
            "midi": 51,
            "name": "D#3",
            "ticks": 742560,
            "time": 563.4375,
            "velocity": 0.5196850393700787
          },
          {
            "duration": 0.3000000000000682,
            "durationTicks": 480,
            "midi": 55,
            "name": "G3",
            "ticks": 743040,
            "time": 563.7375,
            "velocity": 0.5669291338582677
          },
          {
            "duration": 0.30499999999995,
            "durationTicks": 488,
            "midi": 58,
            "name": "A#3",
            "ticks": 743520,
            "time": 564.0375,
            "velocity": 0.5669291338582677
          },
          {
            "duration": 0.30499999999995,
            "durationTicks": 488,
            "midi": 57,
            "name": "A3",
            "ticks": 744000,
            "time": 564.3375,
            "velocity": 0.5196850393700787
          },
          {
            "duration": 0.2837499999999409,
            "durationTicks": 454,
            "midi": 58,
            "name": "A#3",
            "ticks": 744480,
            "time": 564.6375,
            "velocity": 0.6141732283464567
          },
          {
            "duration": 0.2999999999999545,
            "durationTicks": 480,
            "midi": 62,
            "name": "D4",
            "ticks": 744960,
            "time": 564.9375,
            "velocity": 0.6220472440944882
          },
          {
            "duration": 0.3000000000000682,
            "durationTicks": 480,
            "midi": 60,
            "name": "C4",
            "ticks": 745440,
            "time": 565.2375,
            "velocity": 0.5039370078740157
          },
          {
            "duration": 0.2999999999999545,
            "durationTicks": 480,
            "midi": 63,
            "name": "D#4",
            "ticks": 745920,
            "time": 565.5375,
            "velocity": 0.6220472440944882
          },
          {
            "duration": 0.3000000000000682,
            "durationTicks": 480,
            "midi": 62,
            "name": "D4",
            "ticks": 746400,
            "time": 565.8375,
            "velocity": 0.5275590551181102
          },
          {
            "duration": 0.2999999999999545,
            "durationTicks": 480,
            "midi": 58,
            "name": "A#3",
            "ticks": 746880,
            "time": 566.1375,
            "velocity": 0.5039370078740157
          },
          {
            "duration": 0.2999999999999545,
            "durationTicks": 480,
            "midi": 53,
            "name": "F3",
            "ticks": 747360,
            "time": 566.4375,
            "velocity": 0.5039370078740157
          },
          {
            "duration": 0.3000000000000682,
            "durationTicks": 480,
            "midi": 57,
            "name": "A3",
            "ticks": 747840,
            "time": 566.7375,
            "velocity": 0.5826771653543307
          },
          {
            "duration": 0.2999999999999545,
            "durationTicks": 480,
            "midi": 58,
            "name": "A#3",
            "ticks": 748320,
            "time": 567.0375,
            "velocity": 0.5826771653543307
          },
          {
            "duration": 0.3000000000000682,
            "durationTicks": 480,
            "midi": 53,
            "name": "F3",
            "ticks": 748800,
            "time": 567.3375,
            "velocity": 0.49606299212598426
          },
          {
            "duration": 0.2999999999999545,
            "durationTicks": 480,
            "midi": 50,
            "name": "D3",
            "ticks": 749280,
            "time": 567.6375,
            "velocity": 0.5590551181102362
          },
          {
            "duration": 0.2999999999999545,
            "durationTicks": 480,
            "midi": 53,
            "name": "F3",
            "ticks": 749760,
            "time": 567.9375,
            "velocity": 0.5905511811023622
          },
          {
            "duration": 0.6000000000000227,
            "durationTicks": 960,
            "midi": 46,
            "name": "A#2",
            "ticks": 750240,
            "time": 568.2375,
            "velocity": 0.48031496062992124
          },
          {
            "duration": 0.30499999999995,
            "durationTicks": 488,
            "midi": 47,
            "name": "B2",
            "ticks": 751200,
            "time": 568.8375,
            "velocity": 0.5905511811023622
          },
          {
            "duration": 0.30499999999995,
            "durationTicks": 488,
            "midi": 50,
            "name": "D3",
            "ticks": 751680,
            "time": 569.1375,
            "velocity": 0.5590551181102362
          },
          {
            "duration": 0.2837499999999409,
            "durationTicks": 454,
            "midi": 53,
            "name": "F3",
            "ticks": 752160,
            "time": 569.4375,
            "velocity": 0.5669291338582677
          },
          {
            "duration": 0.3000000000000682,
            "durationTicks": 480,
            "midi": 56,
            "name": "G#3",
            "ticks": 752640,
            "time": 569.7375,
            "velocity": 0.5826771653543307
          },
          {
            "duration": 0.2999999999999545,
            "durationTicks": 480,
            "midi": 55,
            "name": "G3",
            "ticks": 753120,
            "time": 570.0375,
            "velocity": 0.5511811023622047
          },
          {
            "duration": 0.3000000000000682,
            "durationTicks": 480,
            "midi": 53,
            "name": "F3",
            "ticks": 753600,
            "time": 570.3375,
            "velocity": 0.5511811023622047
          },
          {
            "duration": 0.3093749999999318,
            "durationTicks": 495,
            "midi": 51,
            "name": "D#3",
            "ticks": 754080,
            "time": 570.6375,
            "velocity": 0.5905511811023622
          },
          {
            "duration": 0.2881250000000364,
            "durationTicks": 461,
            "midi": 55,
            "name": "G3",
            "ticks": 754560,
            "time": 570.9375,
            "velocity": 0.5669291338582677
          },
          {
            "duration": 0.3093750000000455,
            "durationTicks": 495,
            "midi": 60,
            "name": "C4",
            "ticks": 755040,
            "time": 571.2375,
            "velocity": 0.6929133858267716
          },
          {
            "duration": 0.26749999999992724,
            "durationTicks": 428,
            "midi": 62,
            "name": "D4",
            "ticks": 755520,
            "time": 571.5375,
            "velocity": 0.6141732283464567
          },
          {
            "duration": 0.53937499999995,
            "durationTicks": 863,
            "midi": 63,
            "name": "D#4",
            "ticks": 756000,
            "time": 571.8375,
            "velocity": 0.5669291338582677
          },
          {
            "duration": 0.30499999999995,
            "durationTicks": 488,
            "midi": 45,
            "name": "A2",
            "ticks": 756960,
            "time": 572.4375,
            "velocity": 0.5039370078740157
          },
          {
            "duration": 0.30500000000006366,
            "durationTicks": 488,
            "midi": 48,
            "name": "C3",
            "ticks": 757440,
            "time": 572.7375,
            "velocity": 0.5826771653543307
          },
          {
            "duration": 0.2837499999999409,
            "durationTicks": 454,
            "midi": 51,
            "name": "D#3",
            "ticks": 757920,
            "time": 573.0375,
            "velocity": 0.6220472440944882
          },
          {
            "duration": 0.3000000000000682,
            "durationTicks": 480,
            "midi": 55,
            "name": "G3",
            "ticks": 758400,
            "time": 573.3375,
            "velocity": 0.5826771653543307
          },
          {
            "duration": 0.2999999999999545,
            "durationTicks": 480,
            "midi": 53,
            "name": "F3",
            "ticks": 758880,
            "time": 573.6375,
            "velocity": 0.5669291338582677
          },
          {
            "duration": 0.2999999999999545,
            "durationTicks": 480,
            "midi": 51,
            "name": "D#3",
            "ticks": 759360,
            "time": 573.9375,
            "velocity": 0.5354330708661418
          },
          {
            "duration": 0.3093750000000455,
            "durationTicks": 495,
            "midi": 50,
            "name": "D3",
            "ticks": 759840,
            "time": 574.2375,
            "velocity": 0.6062992125984252
          },
          {
            "duration": 0.2881249999999227,
            "durationTicks": 461,
            "midi": 53,
            "name": "F3",
            "ticks": 760320,
            "time": 574.5375,
            "velocity": 0.6456692913385826
          },
          {
            "duration": 0.3093750000000455,
            "durationTicks": 495,
            "midi": 58,
            "name": "A#3",
            "ticks": 760800,
            "time": 574.8375,
            "velocity": 0.6141732283464567
          },
          {
            "duration": 0.26749999999992724,
            "durationTicks": 428,
            "midi": 60,
            "name": "C4",
            "ticks": 761280,
            "time": 575.1375,
            "velocity": 0.6062992125984252
          },
          {
            "duration": 0.53937499999995,
            "durationTicks": 863,
            "midi": 62,
            "name": "D4",
            "ticks": 761760,
            "time": 575.4375,
            "velocity": 0.5669291338582677
          },
          {
            "duration": 0.30499999999995,
            "durationTicks": 488,
            "midi": 42,
            "name": "F#2",
            "ticks": 762720,
            "time": 576.0375,
            "velocity": 0.5118110236220472
          },
          {
            "duration": 0.30499999999995,
            "durationTicks": 488,
            "midi": 45,
            "name": "A2",
            "ticks": 763200,
            "time": 576.3375,
            "velocity": 0.6062992125984252
          },
          {
            "duration": 0.2837499999999409,
            "durationTicks": 454,
            "midi": 48,
            "name": "C3",
            "ticks": 763680,
            "time": 576.6375,
            "velocity": 0.5826771653543307
          },
          {
            "duration": 0.2999999999999545,
            "durationTicks": 480,
            "midi": 51,
            "name": "D#3",
            "ticks": 764160,
            "time": 576.9375,
            "velocity": 0.5905511811023622
          },
          {
            "duration": 0.3000000000000682,
            "durationTicks": 480,
            "midi": 50,
            "name": "D3",
            "ticks": 764640,
            "time": 577.2375,
            "velocity": 0.5511811023622047
          },
          {
            "duration": 0.2999999999999545,
            "durationTicks": 480,
            "midi": 48,
            "name": "C3",
            "ticks": 765120,
            "time": 577.5375,
            "velocity": 0.5275590551181102
          },
          {
            "duration": 0.30499999999995,
            "durationTicks": 488,
            "midi": 46,
            "name": "A#2",
            "ticks": 765600,
            "time": 577.8375,
            "velocity": 0.5433070866141733
          },
          {
            "duration": 0.30499999999995,
            "durationTicks": 488,
            "midi": 50,
            "name": "D3",
            "ticks": 766080,
            "time": 578.1375,
            "velocity": 0.6220472440944882
          },
          {
            "duration": 0.2837499999999409,
            "durationTicks": 454,
            "midi": 55,
            "name": "G3",
            "ticks": 766560,
            "time": 578.4375,
            "velocity": 0.5984251968503937
          },
          {
            "duration": 0.3000000000000682,
            "durationTicks": 480,
            "midi": 57,
            "name": "A3",
            "ticks": 767040,
            "time": 578.7375,
            "velocity": 0.6141732283464567
          },
          {
            "duration": 0.2999999999999545,
            "durationTicks": 480,
            "midi": 58,
            "name": "A#3",
            "ticks": 767520,
            "time": 579.0375,
            "velocity": 0.5826771653543307
          },
          {
            "duration": 0.3000000000000682,
            "durationTicks": 480,
            "midi": 55,
            "name": "G3",
            "ticks": 768000,
            "time": 579.3375,
            "velocity": 0.5196850393700787
          },
          {
            "duration": 0.2999999999999545,
            "durationTicks": 480,
            "midi": 48,
            "name": "C3",
            "ticks": 768480,
            "time": 579.6375,
            "velocity": 0.5511811023622047
          },
          {
            "duration": 0.30499999999995,
            "durationTicks": 488,
            "midi": 58,
            "name": "A#3",
            "ticks": 768960,
            "time": 579.9375,
            "velocity": 0.6456692913385826
          },
          {
            "duration": 0.30500000000006366,
            "durationTicks": 488,
            "midi": 57,
            "name": "A3",
            "ticks": 769440,
            "time": 580.2375,
            "velocity": 0.5826771653543307
          },
          {
            "duration": 0.2837499999999409,
            "durationTicks": 454,
            "midi": 55,
            "name": "G3",
            "ticks": 769920,
            "time": 580.5375,
            "velocity": 0.5196850393700787
          },
          {
            "duration": 0.3000000000000682,
            "durationTicks": 480,
            "midi": 50,
            "name": "D3",
            "ticks": 770400,
            "time": 580.8375,
            "velocity": 0.5118110236220472
          },
          {
            "duration": 0.2999999999999545,
            "durationTicks": 480,
            "midi": 54,
            "name": "F#3",
            "ticks": 770880,
            "time": 581.1375,
            "velocity": 0.5905511811023622
          },
          {
            "duration": 1.7999999999999545,
            "durationTicks": 2880,
            "midi": 43,
            "name": "G2",
            "ticks": 771360,
            "time": 581.4375,
            "velocity": 0.5039370078740157
          },
          {
            "duration": 0.25,
            "durationTicks": 480,
            "midi": 50,
            "name": "D3",
            "ticks": 778080,
            "time": 585.6375,
            "velocity": 0.6220472440944882
          },
          {
            "duration": 0.2541666666667197,
            "durationTicks": 488,
            "midi": 55,
            "name": "G3",
            "ticks": 778560,
            "time": 585.8875,
            "velocity": 0.5905511811023622
          },
          {
            "duration": 0.2541666666667197,
            "durationTicks": 488,
            "midi": 50,
            "name": "D3",
            "ticks": 779040,
            "time": 586.1375,
            "velocity": 0.5118110236220472
          },
          {
            "duration": 0.23645833333330302,
            "durationTicks": 454,
            "midi": 52,
            "name": "E3",
            "ticks": 779520,
            "time": 586.3875,
            "velocity": 0.5590551181102362
          },
          {
            "duration": 0.2541666666667197,
            "durationTicks": 488,
            "midi": 52,
            "name": "E3",
            "ticks": 780000,
            "time": 586.6375,
            "velocity": 0.5826771653543307
          },
          {
            "duration": 0.2541666666667197,
            "durationTicks": 488,
            "midi": 48,
            "name": "C3",
            "ticks": 780480,
            "time": 586.8875,
            "velocity": 0.5433070866141733
          },
          {
            "duration": 0.23645833333330302,
            "durationTicks": 454,
            "midi": 50,
            "name": "D3",
            "ticks": 780960,
            "time": 587.1375,
            "velocity": 0.5826771653543307
          },
          {
            "duration": 0.125,
            "durationTicks": 240,
            "midi": 50,
            "name": "D3",
            "ticks": 781440,
            "time": 587.3875,
            "velocity": 0.5196850393700787
          },
          {
            "duration": 0.125,
            "durationTicks": 240,
            "midi": 55,
            "name": "G3",
            "ticks": 781920,
            "time": 587.6375,
            "velocity": 0.5275590551181102
          },
          {
            "duration": 0.125,
            "durationTicks": 240,
            "midi": 50,
            "name": "D3",
            "ticks": 782400,
            "time": 587.8875,
            "velocity": 0.47244094488188976
          },
          {
            "duration": 0.25,
            "durationTicks": 480,
            "midi": 47,
            "name": "B2",
            "ticks": 782880,
            "time": 588.1375,
            "velocity": 0.4645669291338583
          },
          {
            "duration": 0.25,
            "durationTicks": 480,
            "midi": 43,
            "name": "G2",
            "ticks": 783360,
            "time": 588.3875,
            "velocity": 0.4409448818897638
          },
          {
            "duration": 0.25,
            "durationTicks": 480,
            "midi": 50,
            "name": "D3",
            "ticks": 783840,
            "time": 588.6375,
            "velocity": 0.5196850393700787
          },
          {
            "duration": 0.12708333333330302,
            "durationTicks": 244,
            "midi": 55,
            "name": "G3",
            "ticks": 784320,
            "time": 588.8875,
            "velocity": 0.5196850393700787
          },
          {
            "duration": 0.12708333333330302,
            "durationTicks": 244,
            "midi": 57,
            "name": "A3",
            "ticks": 784560,
            "time": 589.0125,
            "velocity": 0.4881889763779528
          },
          {
            "duration": 0.23645833333330302,
            "durationTicks": 454,
            "midi": 59,
            "name": "B3",
            "ticks": 784800,
            "time": 589.1375,
            "velocity": 0.48031496062992124
          },
          {
            "duration": 0.25,
            "durationTicks": 480,
            "midi": 57,
            "name": "A3",
            "ticks": 785280,
            "time": 589.3875,
            "velocity": 0.49606299212598426
          },
          {
            "duration": 0.12708333333330302,
            "durationTicks": 244,
            "midi": 57,
            "name": "A3",
            "ticks": 785760,
            "time": 589.6375,
            "velocity": 0.5275590551181102
          },
          {
            "duration": 0.12708333333330302,
            "durationTicks": 244,
            "midi": 59,
            "name": "B3",
            "ticks": 786000,
            "time": 589.7625,
            "velocity": 0.5433070866141733
          },
          {
            "duration": 0.23645833333330302,
            "durationTicks": 454,
            "midi": 60,
            "name": "C4",
            "ticks": 786240,
            "time": 589.8875,
            "velocity": 0.5826771653543307
          },
          {
            "duration": 0.25,
            "durationTicks": 480,
            "midi": 59,
            "name": "B3",
            "ticks": 786720,
            "time": 590.1375,
            "velocity": 0.5669291338582677
          },
          {
            "duration": 0.0703125,
            "durationTicks": 135,
            "midi": 43,
            "name": "G2",
            "ticks": 787200,
            "time": 590.3875,
            "velocity": 0.5669291338582677
          },
          {
            "duration": 0.0703125,
            "durationTicks": 135,
            "midi": 50,
            "name": "D3",
            "ticks": 787200,
            "time": 590.3875,
            "velocity": 0.5669291338582677
          },
          {
            "duration": 0.0703125,
            "durationTicks": 135,
            "midi": 59,
            "name": "B3",
            "ticks": 787200,
            "time": 590.3875,
            "velocity": 0.5669291338582677
          },
          {
            "duration": 0.06822916666669698,
            "durationTicks": 131,
            "midi": 45,
            "name": "A2",
            "ticks": 787365,
            "time": 590.4734375,
            "velocity": 0.5669291338582677
          },
          {
            "duration": 0.06822916666669698,
            "durationTicks": 131,
            "midi": 52,
            "name": "E3",
            "ticks": 787365,
            "time": 590.4734375,
            "velocity": 0.5669291338582677
          },
          {
            "duration": 0.06822916666669698,
            "durationTicks": 131,
            "midi": 60,
            "name": "C4",
            "ticks": 787365,
            "time": 590.4734375,
            "velocity": 0.5669291338582677
          },
          {
            "duration": 0.06406249999997726,
            "durationTicks": 123,
            "midi": 43,
            "name": "G2",
            "ticks": 787523,
            "time": 590.5557291666668,
            "velocity": 0.5669291338582677
          },
          {
            "duration": 0.06406249999997726,
            "durationTicks": 123,
            "midi": 50,
            "name": "D3",
            "ticks": 787523,
            "time": 590.5557291666668,
            "velocity": 0.5669291338582677
          },
          {
            "duration": 0.06406249999997726,
            "durationTicks": 123,
            "midi": 59,
            "name": "B3",
            "ticks": 787523,
            "time": 590.5557291666668,
            "velocity": 0.5669291338582677
          },
          {
            "duration": 0.0625,
            "durationTicks": 120,
            "midi": 45,
            "name": "A2",
            "ticks": 787673,
            "time": 590.6338541666668,
            "velocity": 0.5669291338582677
          },
          {
            "duration": 0.0625,
            "durationTicks": 120,
            "midi": 52,
            "name": "E3",
            "ticks": 787673,
            "time": 590.6338541666668,
            "velocity": 0.5669291338582677
          },
          {
            "duration": 0.0625,
            "durationTicks": 120,
            "midi": 60,
            "name": "C4",
            "ticks": 787673,
            "time": 590.6338541666668,
            "velocity": 0.5669291338582677
          },
          {
            "duration": 0.06041666666669698,
            "durationTicks": 116,
            "midi": 43,
            "name": "G2",
            "ticks": 787819,
            "time": 590.7098958333333,
            "velocity": 0.5669291338582677
          },
          {
            "duration": 0.06041666666669698,
            "durationTicks": 116,
            "midi": 50,
            "name": "D3",
            "ticks": 787819,
            "time": 590.7098958333333,
            "velocity": 0.5669291338582677
          },
          {
            "duration": 0.06041666666669698,
            "durationTicks": 116,
            "midi": 59,
            "name": "B3",
            "ticks": 787819,
            "time": 590.7098958333333,
            "velocity": 0.5669291338582677
          },
          {
            "duration": 0.05624999999997726,
            "durationTicks": 108,
            "midi": 45,
            "name": "A2",
            "ticks": 787958,
            "time": 590.7822916666668,
            "velocity": 0.5669291338582677
          },
          {
            "duration": 0.05624999999997726,
            "durationTicks": 108,
            "midi": 52,
            "name": "E3",
            "ticks": 787958,
            "time": 590.7822916666668,
            "velocity": 0.5669291338582677
          },
          {
            "duration": 0.05624999999997726,
            "durationTicks": 108,
            "midi": 60,
            "name": "C4",
            "ticks": 787958,
            "time": 590.7822916666668,
            "velocity": 0.5669291338582677
          },
          {
            "duration": 0.06041666666669698,
            "durationTicks": 116,
            "midi": 43,
            "name": "G2",
            "ticks": 788104,
            "time": 590.8583333333333,
            "velocity": 0.5669291338582677
          },
          {
            "duration": 0.06041666666669698,
            "durationTicks": 116,
            "midi": 50,
            "name": "D3",
            "ticks": 788104,
            "time": 590.8583333333333,
            "velocity": 0.5669291338582677
          },
          {
            "duration": 0.06041666666669698,
            "durationTicks": 116,
            "midi": 59,
            "name": "B3",
            "ticks": 788104,
            "time": 590.8583333333333,
            "velocity": 0.5669291338582677
          },
          {
            "duration": 0.0625,
            "durationTicks": 120,
            "midi": 45,
            "name": "A2",
            "ticks": 788258,
            "time": 590.9385416666668,
            "velocity": 0.5669291338582677
          },
          {
            "duration": 0.0625,
            "durationTicks": 120,
            "midi": 52,
            "name": "E3",
            "ticks": 788258,
            "time": 590.9385416666668,
            "velocity": 0.5669291338582677
          },
          {
            "duration": 0.0625,
            "durationTicks": 120,
            "midi": 60,
            "name": "C4",
            "ticks": 788258,
            "time": 590.9385416666668,
            "velocity": 0.5669291338582677
          },
          {
            "duration": 0.06614583333339397,
            "durationTicks": 127,
            "midi": 43,
            "name": "G2",
            "ticks": 788419,
            "time": 591.0223958333333,
            "velocity": 0.5669291338582677
          },
          {
            "duration": 0.06614583333339397,
            "durationTicks": 127,
            "midi": 50,
            "name": "D3",
            "ticks": 788419,
            "time": 591.0223958333333,
            "velocity": 0.5669291338582677
          },
          {
            "duration": 0.06614583333339397,
            "durationTicks": 127,
            "midi": 59,
            "name": "B3",
            "ticks": 788419,
            "time": 591.0223958333333,
            "velocity": 0.5669291338582677
          },
          {
            "duration": 0.024999999999977263,
            "durationTicks": 48,
            "midi": 45,
            "name": "A2",
            "ticks": 788588,
            "time": 591.1104166666668,
            "velocity": 0.5669291338582677
          },
          {
            "duration": 0.024999999999977263,
            "durationTicks": 48,
            "midi": 52,
            "name": "E3",
            "ticks": 788588,
            "time": 591.1104166666668,
            "velocity": 0.5669291338582677
          },
          {
            "duration": 0.024999999999977263,
            "durationTicks": 48,
            "midi": 60,
            "name": "C4",
            "ticks": 788588,
            "time": 591.1104166666668,
            "velocity": 0.5669291338582677
          },
          {
            "duration": 0.5,
            "durationTicks": 960,
            "midi": 50,
            "name": "D3",
            "ticks": 788640,
            "time": 591.1375,
            "velocity": 0.5511811023622047
          },
          {
            "duration": 0.5,
            "durationTicks": 960,
            "midi": 57,
            "name": "A3",
            "ticks": 788640,
            "time": 591.1375,
            "velocity": 0.5511811023622047
          },
          {
            "duration": 0.25,
            "durationTicks": 480,
            "midi": 57,
            "name": "A3",
            "ticks": 789600,
            "time": 591.6375,
            "velocity": 0.5669291338582677
          },
          {
            "duration": 0.2541666666667197,
            "durationTicks": 488,
            "midi": 59,
            "name": "B3",
            "ticks": 790080,
            "time": 591.8875,
            "velocity": 0.5590551181102362
          },
          {
            "duration": 0.2541666666667197,
            "durationTicks": 488,
            "midi": 54,
            "name": "F#3",
            "ticks": 790560,
            "time": 592.1375,
            "velocity": 0.5275590551181102
          },
          {
            "duration": 0.23645833333330302,
            "durationTicks": 454,
            "midi": 55,
            "name": "G3",
            "ticks": 791040,
            "time": 592.3875,
            "velocity": 0.5590551181102362
          },
          {
            "duration": 0.2541666666667197,
            "durationTicks": 488,
            "midi": 55,
            "name": "G3",
            "ticks": 791520,
            "time": 592.6375,
            "velocity": 0.5748031496062992
          },
          {
            "duration": 0.2541666666667197,
            "durationTicks": 488,
            "midi": 52,
            "name": "E3",
            "ticks": 792000,
            "time": 592.8875,
            "velocity": 0.5748031496062992
          },
          {
            "duration": 0.23645833333330302,
            "durationTicks": 454,
            "midi": 55,
            "name": "G3",
            "ticks": 792480,
            "time": 593.1375,
            "velocity": 0.5511811023622047
          },
          {
            "duration": 0.2541666666667197,
            "durationTicks": 488,
            "midi": 57,
            "name": "A3",
            "ticks": 792960,
            "time": 593.3875,
            "velocity": 0.5748031496062992
          },
          {
            "duration": 0.2541666666667197,
            "durationTicks": 488,
            "midi": 52,
            "name": "E3",
            "ticks": 793440,
            "time": 593.6375,
            "velocity": 0.5039370078740157
          },
          {
            "duration": 0.23645833333330302,
            "durationTicks": 454,
            "midi": 54,
            "name": "F#3",
            "ticks": 793920,
            "time": 593.8875,
            "velocity": 0.5196850393700787
          },
          {
            "duration": 0.2541666666667197,
            "durationTicks": 488,
            "midi": 54,
            "name": "F#3",
            "ticks": 794400,
            "time": 594.1375,
            "velocity": 0.5590551181102362
          },
          {
            "duration": 0.2541666666667197,
            "durationTicks": 488,
            "midi": 50,
            "name": "D3",
            "ticks": 794880,
            "time": 594.3875,
            "velocity": 0.5433070866141733
          },
          {
            "duration": 0.23645833333330302,
            "durationTicks": 454,
            "midi": 54,
            "name": "F#3",
            "ticks": 795360,
            "time": 594.6375,
            "velocity": 0.6141732283464567
          },
          {
            "duration": 0.125,
            "durationTicks": 240,
            "midi": 55,
            "name": "G3",
            "ticks": 795840,
            "time": 594.8875,
            "velocity": 0.5354330708661418
          },
          {
            "duration": 0.125,
            "durationTicks": 240,
            "midi": 59,
            "name": "B3",
            "ticks": 796320,
            "time": 595.1375,
            "velocity": 0.5905511811023622
          },
          {
            "duration": 0.125,
            "durationTicks": 240,
            "midi": 55,
            "name": "G3",
            "ticks": 796800,
            "time": 595.3875,
            "velocity": 0.5748031496062992
          },
          {
            "duration": 0.25,
            "durationTicks": 480,
            "midi": 52,
            "name": "E3",
            "ticks": 797280,
            "time": 595.6375,
            "velocity": 0.5118110236220472
          },
          {
            "duration": 0.25,
            "durationTicks": 480,
            "midi": 47,
            "name": "B2",
            "ticks": 797760,
            "time": 595.8875,
            "velocity": 0.5511811023622047
          },
          {
            "duration": 0.25,
            "durationTicks": 480,
            "midi": 50,
            "name": "D3",
            "ticks": 798240,
            "time": 596.1375,
            "velocity": 0.5590551181102362
          },
          {
            "duration": 0.2541666666667197,
            "durationTicks": 488,
            "midi": 49,
            "name": "C#3",
            "ticks": 798720,
            "time": 596.3875,
            "velocity": 0.5354330708661418
          },
          {
            "duration": 0.2541666666667197,
            "durationTicks": 488,
            "midi": 52,
            "name": "E3",
            "ticks": 799200,
            "time": 596.6375,
            "velocity": 0.6141732283464567
          },
          {
            "duration": 0.23645833333330302,
            "durationTicks": 454,
            "midi": 57,
            "name": "A3",
            "ticks": 799680,
            "time": 596.8875,
            "velocity": 0.6299212598425197
          },
          {
            "duration": 0.5,
            "durationTicks": 960,
            "midi": 45,
            "name": "A2",
            "ticks": 800160,
            "time": 597.1375,
            "velocity": 0.5196850393700787
          },
          {
            "duration": 0.25,
            "durationTicks": 480,
            "midi": 52,
            "name": "E3",
            "ticks": 801120,
            "time": 597.6375,
            "velocity": 0.5433070866141733
          },
          {
            "duration": 0.2541666666667197,
            "durationTicks": 488,
            "midi": 53,
            "name": "F3",
            "ticks": 801600,
            "time": 597.8875,
            "velocity": 0.5118110236220472
          },
          {
            "duration": 0.2541666666667197,
            "durationTicks": 488,
            "midi": 52,
            "name": "E3",
            "ticks": 802080,
            "time": 598.1375,
            "velocity": 0.49606299212598426
          },
          {
            "duration": 0.23645833333330302,
            "durationTicks": 454,
            "midi": 55,
            "name": "G3",
            "ticks": 802560,
            "time": 598.3875,
            "velocity": 0.47244094488188976
          },
          {
            "duration": 0.2541666666667197,
            "durationTicks": 488,
            "midi": 55,
            "name": "G3",
            "ticks": 803040,
            "time": 598.6375,
            "velocity": 0.5118110236220472
          },
          {
            "duration": 0.2541666666667197,
            "durationTicks": 488,
            "midi": 53,
            "name": "F3",
            "ticks": 803520,
            "time": 598.8875,
            "velocity": 0.49606299212598426
          },
          {
            "duration": 0.23645833333330302,
            "durationTicks": 454,
            "midi": 57,
            "name": "A3",
            "ticks": 804000,
            "time": 599.1375,
            "velocity": 0.47244094488188976
          },
          {
            "duration": 0.2541666666667197,
            "durationTicks": 488,
            "midi": 57,
            "name": "A3",
            "ticks": 804480,
            "time": 599.3875,
            "velocity": 0.47244094488188976
          },
          {
            "duration": 0.2541666666667197,
            "durationTicks": 488,
            "midi": 55,
            "name": "G3",
            "ticks": 804960,
            "time": 599.6375,
            "velocity": 0.4881889763779528
          },
          {
            "duration": 0.23645833333330302,
            "durationTicks": 454,
            "midi": 58,
            "name": "A#3",
            "ticks": 805440,
            "time": 599.8875,
            "velocity": 0.44881889763779526
          },
          {
            "duration": 0.2541666666667197,
            "durationTicks": 488,
            "midi": 58,
            "name": "A#3",
            "ticks": 805920,
            "time": 600.1375,
            "velocity": 0.4645669291338583
          },
          {
            "duration": 0.2541666666667197,
            "durationTicks": 488,
            "midi": 57,
            "name": "A3",
            "ticks": 806400,
            "time": 600.3875,
            "velocity": 0.4409448818897638
          },
          {
            "duration": 0.23645833333330302,
            "durationTicks": 454,
            "midi": 55,
            "name": "G3",
            "ticks": 806880,
            "time": 600.6375,
            "velocity": 0.4330708661417323
          },
          {
            "duration": 0.2541666666667197,
            "durationTicks": 488,
            "midi": 53,
            "name": "F3",
            "ticks": 807360,
            "time": 600.8875,
            "velocity": 0.4330708661417323
          },
          {
            "duration": 0.2541666666667197,
            "durationTicks": 488,
            "midi": 52,
            "name": "E3",
            "ticks": 807840,
            "time": 601.1375,
            "velocity": 0.4645669291338583
          },
          {
            "duration": 0.23645833333330302,
            "durationTicks": 454,
            "midi": 50,
            "name": "D3",
            "ticks": 808320,
            "time": 601.3875,
            "velocity": 0.41732283464566927
          },
          {
            "duration": 0.2541666666667197,
            "durationTicks": 488,
            "midi": 45,
            "name": "A2",
            "ticks": 808800,
            "time": 601.6375,
            "velocity": 0.4330708661417323
          },
          {
            "duration": 0.2541666666667197,
            "durationTicks": 488,
            "midi": 50,
            "name": "D3",
            "ticks": 809280,
            "time": 601.8875,
            "velocity": 0.5039370078740157
          },
          {
            "duration": 0.23645833333330302,
            "durationTicks": 454,
            "midi": 49,
            "name": "C#3",
            "ticks": 809760,
            "time": 602.1375,
            "velocity": 0.4566929133858268
          },
          {
            "duration": 0.25,
            "durationTicks": 480,
            "midi": 50,
            "name": "D3",
            "ticks": 810240,
            "time": 602.3875,
            "velocity": 0.5118110236220472
          },
          {
            "duration": 0.25,
            "durationTicks": 480,
            "midi": 45,
            "name": "A2",
            "ticks": 810720,
            "time": 602.6375,
            "velocity": 0.4251968503937008
          },
          {
            "duration": 0.25,
            "durationTicks": 480,
            "midi": 42,
            "name": "F#2",
            "ticks": 811200,
            "time": 602.8875,
            "velocity": 0.48031496062992124
          },
          {
            "duration": 0.5,
            "durationTicks": 960,
            "midi": 38,
            "name": "D2",
            "ticks": 811680,
            "time": 603.1375,
            "velocity": 0.4330708661417323
          },
          {
            "duration": 0.25,
            "durationTicks": 480,
            "midi": 50,
            "name": "D3",
            "ticks": 812640,
            "time": 603.6375,
            "velocity": 0.5748031496062992
          },
          {
            "duration": 0.2541666666667197,
            "durationTicks": 488,
            "midi": 55,
            "name": "G3",
            "ticks": 813120,
            "time": 603.8875,
            "velocity": 0.5196850393700787
          },
          {
            "duration": 0.2541666666667197,
            "durationTicks": 488,
            "midi": 50,
            "name": "D3",
            "ticks": 813600,
            "time": 604.1375,
            "velocity": 0.4881889763779528
          },
          {
            "duration": 0.23645833333330302,
            "durationTicks": 454,
            "midi": 52,
            "name": "E3",
            "ticks": 814080,
            "time": 604.3875,
            "velocity": 0.4881889763779528
          },
          {
            "duration": 0.2541666666667197,
            "durationTicks": 488,
            "midi": 52,
            "name": "E3",
            "ticks": 814560,
            "time": 604.6375,
            "velocity": 0.49606299212598426
          },
          {
            "duration": 0.2541666666667197,
            "durationTicks": 488,
            "midi": 48,
            "name": "C3",
            "ticks": 815040,
            "time": 604.8875,
            "velocity": 0.4251968503937008
          },
          {
            "duration": 0.23645833333330302,
            "durationTicks": 454,
            "midi": 50,
            "name": "D3",
            "ticks": 815520,
            "time": 605.1375,
            "velocity": 0.49606299212598426
          },
          {
            "duration": 0.125,
            "durationTicks": 240,
            "midi": 50,
            "name": "D3",
            "ticks": 816000,
            "time": 605.3875,
            "velocity": 0.5118110236220472
          },
          {
            "duration": 0.125,
            "durationTicks": 240,
            "midi": 55,
            "name": "G3",
            "ticks": 816480,
            "time": 605.6375,
            "velocity": 0.5039370078740157
          },
          {
            "duration": 0.125,
            "durationTicks": 240,
            "midi": 50,
            "name": "D3",
            "ticks": 816960,
            "time": 605.8875,
            "velocity": 0.4330708661417323
          },
          {
            "duration": 0.25,
            "durationTicks": 480,
            "midi": 47,
            "name": "B2",
            "ticks": 817440,
            "time": 606.1375,
            "velocity": 0.44881889763779526
          },
          {
            "duration": 0.25,
            "durationTicks": 480,
            "midi": 43,
            "name": "G2",
            "ticks": 817920,
            "time": 606.3875,
            "velocity": 0.4094488188976378
          },
          {
            "duration": 0.25,
            "durationTicks": 480,
            "midi": 50,
            "name": "D3",
            "ticks": 818400,
            "time": 606.6375,
            "velocity": 0.5118110236220472
          },
          {
            "duration": 0.12708333333330302,
            "durationTicks": 244,
            "midi": 55,
            "name": "G3",
            "ticks": 818880,
            "time": 606.8875,
            "velocity": 0.5118110236220472
          },
          {
            "duration": 0.12708333333330302,
            "durationTicks": 244,
            "midi": 57,
            "name": "A3",
            "ticks": 819120,
            "time": 607.0125,
            "velocity": 0.5354330708661418
          },
          {
            "duration": 0.23645833333330302,
            "durationTicks": 454,
            "midi": 59,
            "name": "B3",
            "ticks": 819360,
            "time": 607.1375,
            "velocity": 0.5511811023622047
          },
          {
            "duration": 0.25,
            "durationTicks": 480,
            "midi": 57,
            "name": "A3",
            "ticks": 819840,
            "time": 607.3875,
            "velocity": 0.5196850393700787
          },
          {
            "duration": 0.12708333333330302,
            "durationTicks": 244,
            "midi": 57,
            "name": "A3",
            "ticks": 820320,
            "time": 607.6375,
            "velocity": 0.5354330708661418
          },
          {
            "duration": 0.12708333333330302,
            "durationTicks": 244,
            "midi": 59,
            "name": "B3",
            "ticks": 820560,
            "time": 607.7625,
            "velocity": 0.5748031496062992
          },
          {
            "duration": 0.23645833333330302,
            "durationTicks": 454,
            "midi": 60,
            "name": "C4",
            "ticks": 820800,
            "time": 607.8875,
            "velocity": 0.5275590551181102
          },
          {
            "duration": 0.25,
            "durationTicks": 480,
            "midi": 59,
            "name": "B3",
            "ticks": 821280,
            "time": 608.1375,
            "velocity": 0.5511811023622047
          },
          {
            "duration": 0.0703125,
            "durationTicks": 135,
            "midi": 43,
            "name": "G2",
            "ticks": 821760,
            "time": 608.3875,
            "velocity": 0.5511811023622047
          },
          {
            "duration": 0.0703125,
            "durationTicks": 135,
            "midi": 50,
            "name": "D3",
            "ticks": 821760,
            "time": 608.3875,
            "velocity": 0.5511811023622047
          },
          {
            "duration": 0.0703125,
            "durationTicks": 135,
            "midi": 59,
            "name": "B3",
            "ticks": 821760,
            "time": 608.3875,
            "velocity": 0.5511811023622047
          },
          {
            "duration": 0.06822916666669698,
            "durationTicks": 131,
            "midi": 45,
            "name": "A2",
            "ticks": 821925,
            "time": 608.4734375,
            "velocity": 0.5511811023622047
          },
          {
            "duration": 0.06822916666669698,
            "durationTicks": 131,
            "midi": 52,
            "name": "E3",
            "ticks": 821925,
            "time": 608.4734375,
            "velocity": 0.5511811023622047
          },
          {
            "duration": 0.06822916666669698,
            "durationTicks": 131,
            "midi": 60,
            "name": "C4",
            "ticks": 821925,
            "time": 608.4734375,
            "velocity": 0.5511811023622047
          },
          {
            "duration": 0.06406249999997726,
            "durationTicks": 123,
            "midi": 43,
            "name": "G2",
            "ticks": 822083,
            "time": 608.5557291666668,
            "velocity": 0.5511811023622047
          },
          {
            "duration": 0.06406249999997726,
            "durationTicks": 123,
            "midi": 50,
            "name": "D3",
            "ticks": 822083,
            "time": 608.5557291666668,
            "velocity": 0.5511811023622047
          },
          {
            "duration": 0.06406249999997726,
            "durationTicks": 123,
            "midi": 59,
            "name": "B3",
            "ticks": 822083,
            "time": 608.5557291666668,
            "velocity": 0.5511811023622047
          },
          {
            "duration": 0.0625,
            "durationTicks": 120,
            "midi": 45,
            "name": "A2",
            "ticks": 822233,
            "time": 608.6338541666668,
            "velocity": 0.5511811023622047
          },
          {
            "duration": 0.0625,
            "durationTicks": 120,
            "midi": 52,
            "name": "E3",
            "ticks": 822233,
            "time": 608.6338541666668,
            "velocity": 0.5511811023622047
          },
          {
            "duration": 0.0625,
            "durationTicks": 120,
            "midi": 60,
            "name": "C4",
            "ticks": 822233,
            "time": 608.6338541666668,
            "velocity": 0.5511811023622047
          },
          {
            "duration": 0.06041666666669698,
            "durationTicks": 116,
            "midi": 43,
            "name": "G2",
            "ticks": 822379,
            "time": 608.7098958333333,
            "velocity": 0.5511811023622047
          },
          {
            "duration": 0.06041666666669698,
            "durationTicks": 116,
            "midi": 50,
            "name": "D3",
            "ticks": 822379,
            "time": 608.7098958333333,
            "velocity": 0.5511811023622047
          },
          {
            "duration": 0.06041666666669698,
            "durationTicks": 116,
            "midi": 59,
            "name": "B3",
            "ticks": 822379,
            "time": 608.7098958333333,
            "velocity": 0.5511811023622047
          },
          {
            "duration": 0.05624999999997726,
            "durationTicks": 108,
            "midi": 45,
            "name": "A2",
            "ticks": 822518,
            "time": 608.7822916666668,
            "velocity": 0.5511811023622047
          },
          {
            "duration": 0.05624999999997726,
            "durationTicks": 108,
            "midi": 52,
            "name": "E3",
            "ticks": 822518,
            "time": 608.7822916666668,
            "velocity": 0.5511811023622047
          },
          {
            "duration": 0.05624999999997726,
            "durationTicks": 108,
            "midi": 60,
            "name": "C4",
            "ticks": 822518,
            "time": 608.7822916666668,
            "velocity": 0.5511811023622047
          },
          {
            "duration": 0.06041666666669698,
            "durationTicks": 116,
            "midi": 43,
            "name": "G2",
            "ticks": 822664,
            "time": 608.8583333333333,
            "velocity": 0.5511811023622047
          },
          {
            "duration": 0.06041666666669698,
            "durationTicks": 116,
            "midi": 50,
            "name": "D3",
            "ticks": 822664,
            "time": 608.8583333333333,
            "velocity": 0.5511811023622047
          },
          {
            "duration": 0.06041666666669698,
            "durationTicks": 116,
            "midi": 59,
            "name": "B3",
            "ticks": 822664,
            "time": 608.8583333333333,
            "velocity": 0.5511811023622047
          },
          {
            "duration": 0.0625,
            "durationTicks": 120,
            "midi": 45,
            "name": "A2",
            "ticks": 822818,
            "time": 608.9385416666668,
            "velocity": 0.5511811023622047
          },
          {
            "duration": 0.0625,
            "durationTicks": 120,
            "midi": 52,
            "name": "E3",
            "ticks": 822818,
            "time": 608.9385416666668,
            "velocity": 0.5511811023622047
          },
          {
            "duration": 0.0625,
            "durationTicks": 120,
            "midi": 60,
            "name": "C4",
            "ticks": 822818,
            "time": 608.9385416666668,
            "velocity": 0.5511811023622047
          },
          {
            "duration": 0.06614583333339397,
            "durationTicks": 127,
            "midi": 43,
            "name": "G2",
            "ticks": 822979,
            "time": 609.0223958333333,
            "velocity": 0.5511811023622047
          },
          {
            "duration": 0.06614583333339397,
            "durationTicks": 127,
            "midi": 50,
            "name": "D3",
            "ticks": 822979,
            "time": 609.0223958333333,
            "velocity": 0.5511811023622047
          },
          {
            "duration": 0.06614583333339397,
            "durationTicks": 127,
            "midi": 59,
            "name": "B3",
            "ticks": 822979,
            "time": 609.0223958333333,
            "velocity": 0.5511811023622047
          },
          {
            "duration": 0.024999999999977263,
            "durationTicks": 48,
            "midi": 45,
            "name": "A2",
            "ticks": 823148,
            "time": 609.1104166666668,
            "velocity": 0.5511811023622047
          },
          {
            "duration": 0.024999999999977263,
            "durationTicks": 48,
            "midi": 52,
            "name": "E3",
            "ticks": 823148,
            "time": 609.1104166666668,
            "velocity": 0.5511811023622047
          },
          {
            "duration": 0.024999999999977263,
            "durationTicks": 48,
            "midi": 60,
            "name": "C4",
            "ticks": 823148,
            "time": 609.1104166666668,
            "velocity": 0.5511811023622047
          },
          {
            "duration": 0.5,
            "durationTicks": 960,
            "midi": 50,
            "name": "D3",
            "ticks": 823200,
            "time": 609.1375,
            "velocity": 0.5118110236220472
          },
          {
            "duration": 0.5,
            "durationTicks": 960,
            "midi": 57,
            "name": "A3",
            "ticks": 823200,
            "time": 609.1375,
            "velocity": 0.5118110236220472
          },
          {
            "duration": 0.25,
            "durationTicks": 480,
            "midi": 57,
            "name": "A3",
            "ticks": 824160,
            "time": 609.6375,
            "velocity": 0.5275590551181102
          },
          {
            "duration": 0.2541666666667197,
            "durationTicks": 488,
            "midi": 59,
            "name": "B3",
            "ticks": 824640,
            "time": 609.8875,
            "velocity": 0.5905511811023622
          },
          {
            "duration": 0.2541666666667197,
            "durationTicks": 488,
            "midi": 54,
            "name": "F#3",
            "ticks": 825120,
            "time": 610.1375,
            "velocity": 0.5511811023622047
          },
          {
            "duration": 0.23645833333330302,
            "durationTicks": 454,
            "midi": 55,
            "name": "G3",
            "ticks": 825600,
            "time": 610.3875,
            "velocity": 0.5669291338582677
          },
          {
            "duration": 0.2541666666667197,
            "durationTicks": 488,
            "midi": 55,
            "name": "G3",
            "ticks": 826080,
            "time": 610.6375,
            "velocity": 0.5433070866141733
          },
          {
            "duration": 0.2541666666667197,
            "durationTicks": 488,
            "midi": 52,
            "name": "E3",
            "ticks": 826560,
            "time": 610.8875,
            "velocity": 0.5511811023622047
          },
          {
            "duration": 0.23645833333330302,
            "durationTicks": 454,
            "midi": 55,
            "name": "G3",
            "ticks": 827040,
            "time": 611.1375,
            "velocity": 0.5826771653543307
          },
          {
            "duration": 0.2541666666667197,
            "durationTicks": 488,
            "midi": 57,
            "name": "A3",
            "ticks": 827520,
            "time": 611.3875,
            "velocity": 0.5826771653543307
          },
          {
            "duration": 0.2541666666667197,
            "durationTicks": 488,
            "midi": 52,
            "name": "E3",
            "ticks": 828000,
            "time": 611.6375,
            "velocity": 0.4881889763779528
          },
          {
            "duration": 0.23645833333330302,
            "durationTicks": 454,
            "midi": 54,
            "name": "F#3",
            "ticks": 828480,
            "time": 611.8875,
            "velocity": 0.5433070866141733
          },
          {
            "duration": 0.2541666666667197,
            "durationTicks": 488,
            "midi": 54,
            "name": "F#3",
            "ticks": 828960,
            "time": 612.1375,
            "velocity": 0.5984251968503937
          },
          {
            "duration": 0.2541666666667197,
            "durationTicks": 488,
            "midi": 50,
            "name": "D3",
            "ticks": 829440,
            "time": 612.3875,
            "velocity": 0.5118110236220472
          },
          {
            "duration": 0.23645833333330302,
            "durationTicks": 454,
            "midi": 54,
            "name": "F#3",
            "ticks": 829920,
            "time": 612.6375,
            "velocity": 0.5905511811023622
          },
          {
            "duration": 0.125,
            "durationTicks": 240,
            "midi": 55,
            "name": "G3",
            "ticks": 830400,
            "time": 612.8875,
            "velocity": 0.5669291338582677
          },
          {
            "duration": 0.125,
            "durationTicks": 240,
            "midi": 59,
            "name": "B3",
            "ticks": 830880,
            "time": 613.1375,
            "velocity": 0.5669291338582677
          },
          {
            "duration": 0.125,
            "durationTicks": 240,
            "midi": 55,
            "name": "G3",
            "ticks": 831360,
            "time": 613.3875,
            "velocity": 0.5196850393700787
          },
          {
            "duration": 0.25,
            "durationTicks": 480,
            "midi": 52,
            "name": "E3",
            "ticks": 831840,
            "time": 613.6375,
            "velocity": 0.5354330708661418
          },
          {
            "duration": 0.25,
            "durationTicks": 480,
            "midi": 47,
            "name": "B2",
            "ticks": 832320,
            "time": 613.8875,
            "velocity": 0.5354330708661418
          },
          {
            "duration": 0.25,
            "durationTicks": 480,
            "midi": 50,
            "name": "D3",
            "ticks": 832800,
            "time": 614.1375,
            "velocity": 0.5984251968503937
          },
          {
            "duration": 0.2541666666667197,
            "durationTicks": 488,
            "midi": 49,
            "name": "C#3",
            "ticks": 833280,
            "time": 614.3875,
            "velocity": 0.5433070866141733
          },
          {
            "duration": 0.2541666666667197,
            "durationTicks": 488,
            "midi": 52,
            "name": "E3",
            "ticks": 833760,
            "time": 614.6375,
            "velocity": 0.5826771653543307
          },
          {
            "duration": 0.23645833333330302,
            "durationTicks": 454,
            "midi": 57,
            "name": "A3",
            "ticks": 834240,
            "time": 614.8875,
            "velocity": 0.5826771653543307
          },
          {
            "duration": 0.5,
            "durationTicks": 960,
            "midi": 45,
            "name": "A2",
            "ticks": 834720,
            "time": 615.1375,
            "velocity": 0.47244094488188976
          },
          {
            "duration": 0.25,
            "durationTicks": 480,
            "midi": 52,
            "name": "E3",
            "ticks": 835680,
            "time": 615.6375,
            "velocity": 0.5354330708661418
          },
          {
            "duration": 0.2541666666667197,
            "durationTicks": 488,
            "midi": 53,
            "name": "F3",
            "ticks": 836160,
            "time": 615.8875,
            "velocity": 0.5196850393700787
          },
          {
            "duration": 0.2541666666667197,
            "durationTicks": 488,
            "midi": 52,
            "name": "E3",
            "ticks": 836640,
            "time": 616.1375,
            "velocity": 0.4645669291338583
          },
          {
            "duration": 0.23645833333330302,
            "durationTicks": 454,
            "midi": 55,
            "name": "G3",
            "ticks": 837120,
            "time": 616.3875,
            "velocity": 0.5118110236220472
          },
          {
            "duration": 0.2541666666667197,
            "durationTicks": 488,
            "midi": 55,
            "name": "G3",
            "ticks": 837600,
            "time": 616.6375,
            "velocity": 0.48031496062992124
          },
          {
            "duration": 0.2541666666667197,
            "durationTicks": 488,
            "midi": 53,
            "name": "F3",
            "ticks": 838080,
            "time": 616.8875,
            "velocity": 0.4881889763779528
          },
          {
            "duration": 0.23645833333330302,
            "durationTicks": 454,
            "midi": 57,
            "name": "A3",
            "ticks": 838560,
            "time": 617.1375,
            "velocity": 0.5275590551181102
          },
          {
            "duration": 0.2541666666667197,
            "durationTicks": 488,
            "midi": 57,
            "name": "A3",
            "ticks": 839040,
            "time": 617.3875,
            "velocity": 0.47244094488188976
          },
          {
            "duration": 0.2541666666667197,
            "durationTicks": 488,
            "midi": 55,
            "name": "G3",
            "ticks": 839520,
            "time": 617.6375,
            "velocity": 0.4566929133858268
          },
          {
            "duration": 0.23645833333330302,
            "durationTicks": 454,
            "midi": 58,
            "name": "A#3",
            "ticks": 840000,
            "time": 617.8875,
            "velocity": 0.5039370078740157
          },
          {
            "duration": 0.2541666666667197,
            "durationTicks": 488,
            "midi": 58,
            "name": "A#3",
            "ticks": 840480,
            "time": 618.1375,
            "velocity": 0.4566929133858268
          },
          {
            "duration": 0.2541666666667197,
            "durationTicks": 488,
            "midi": 57,
            "name": "A3",
            "ticks": 840960,
            "time": 618.3875,
            "velocity": 0.47244094488188976
          },
          {
            "duration": 0.23645833333330302,
            "durationTicks": 454,
            "midi": 55,
            "name": "G3",
            "ticks": 841440,
            "time": 618.6375,
            "velocity": 0.48031496062992124
          },
          {
            "duration": 0.2541666666667197,
            "durationTicks": 488,
            "midi": 53,
            "name": "F3",
            "ticks": 841920,
            "time": 618.8875,
            "velocity": 0.4645669291338583
          },
          {
            "duration": 0.2541666666667197,
            "durationTicks": 488,
            "midi": 52,
            "name": "E3",
            "ticks": 842400,
            "time": 619.1375,
            "velocity": 0.49606299212598426
          },
          {
            "duration": 0.23645833333330302,
            "durationTicks": 454,
            "midi": 50,
            "name": "D3",
            "ticks": 842880,
            "time": 619.3875,
            "velocity": 0.48031496062992124
          },
          {
            "duration": 0.2541666666667197,
            "durationTicks": 488,
            "midi": 45,
            "name": "A2",
            "ticks": 843360,
            "time": 619.6375,
            "velocity": 0.44881889763779526
          },
          {
            "duration": 0.2541666666667197,
            "durationTicks": 488,
            "midi": 50,
            "name": "D3",
            "ticks": 843840,
            "time": 619.8875,
            "velocity": 0.48031496062992124
          },
          {
            "duration": 0.23645833333330302,
            "durationTicks": 454,
            "midi": 49,
            "name": "C#3",
            "ticks": 844320,
            "time": 620.1375,
            "velocity": 0.4645669291338583
          },
          {
            "duration": 0.25,
            "durationTicks": 480,
            "midi": 50,
            "name": "D3",
            "ticks": 844800,
            "time": 620.3875,
            "velocity": 0.5118110236220472
          },
          {
            "duration": 0.25,
            "durationTicks": 480,
            "midi": 45,
            "name": "A2",
            "ticks": 845280,
            "time": 620.6375,
            "velocity": 0.4645669291338583
          },
          {
            "duration": 0.25,
            "durationTicks": 480,
            "midi": 42,
            "name": "F#2",
            "ticks": 845760,
            "time": 620.8875,
            "velocity": 0.44881889763779526
          },
          {
            "duration": 0.5,
            "durationTicks": 960,
            "midi": 38,
            "name": "D2",
            "ticks": 846240,
            "time": 621.1375,
            "velocity": 0.4645669291338583
          },
          {
            "duration": 0.25,
            "durationTicks": 480,
            "midi": 57,
            "name": "A3",
            "ticks": 847200,
            "time": 621.6375,
            "velocity": 0.5905511811023622
          },
          {
            "duration": 0.2541666666667197,
            "durationTicks": 488,
            "midi": 57,
            "name": "A3",
            "ticks": 847680,
            "time": 621.8875,
            "velocity": 0.49606299212598426
          },
          {
            "duration": 0.2541666666667197,
            "durationTicks": 488,
            "midi": 54,
            "name": "F#3",
            "ticks": 848160,
            "time": 622.1375,
            "velocity": 0.44881889763779526
          },
          {
            "duration": 0.23645833333330302,
            "durationTicks": 454,
            "midi": 55,
            "name": "G3",
            "ticks": 848640,
            "time": 622.3875,
            "velocity": 0.5118110236220472
          },
          {
            "duration": 0.2541666666667197,
            "durationTicks": 488,
            "midi": 55,
            "name": "G3",
            "ticks": 849120,
            "time": 622.6375,
            "velocity": 0.5118110236220472
          },
          {
            "duration": 0.2541666666667197,
            "durationTicks": 488,
            "midi": 52,
            "name": "E3",
            "ticks": 849600,
            "time": 622.8875,
            "velocity": 0.44881889763779526
          },
          {
            "duration": 0.23645833333330302,
            "durationTicks": 454,
            "midi": 54,
            "name": "F#3",
            "ticks": 850080,
            "time": 623.1375,
            "velocity": 0.4881889763779528
          },
          {
            "duration": 0.12708333333330302,
            "durationTicks": 244,
            "midi": 54,
            "name": "F#3",
            "ticks": 850560,
            "time": 623.3875,
            "velocity": 0.47244094488188976
          },
          {
            "duration": 0.12708333333330302,
            "durationTicks": 244,
            "midi": 55,
            "name": "G3",
            "ticks": 850800,
            "time": 623.5125,
            "velocity": 0.49606299212598426
          },
          {
            "duration": 0.23645833333330302,
            "durationTicks": 454,
            "midi": 57,
            "name": "A3",
            "ticks": 851040,
            "time": 623.6375,
            "velocity": 0.5039370078740157
          },
          {
            "duration": 0.25,
            "durationTicks": 480,
            "midi": 54,
            "name": "F#3",
            "ticks": 851520,
            "time": 623.8875,
            "velocity": 0.4645669291338583
          },
          {
            "duration": 0.25,
            "durationTicks": 480,
            "midi": 50,
            "name": "D3",
            "ticks": 852000,
            "time": 624.1375,
            "velocity": 0.47244094488188976
          },
          {
            "duration": 0.2541666666667197,
            "durationTicks": 488,
            "midi": 60,
            "name": "C4",
            "ticks": 852480,
            "time": 624.3875,
            "velocity": 0.5905511811023622
          },
          {
            "duration": 0.23645833333330302,
            "durationTicks": 454,
            "midi": 59,
            "name": "B3",
            "ticks": 852960,
            "time": 624.6375,
            "velocity": 0.4881889763779528
          },
          {
            "duration": 0.2541666666667197,
            "durationTicks": 488,
            "midi": 59,
            "name": "B3",
            "ticks": 853440,
            "time": 624.8875,
            "velocity": 0.4881889763779528
          },
          {
            "duration": 0.2541666666667197,
            "durationTicks": 488,
            "midi": 55,
            "name": "G3",
            "ticks": 853920,
            "time": 625.1375,
            "velocity": 0.44881889763779526
          },
          {
            "duration": 0.23645833333330302,
            "durationTicks": 454,
            "midi": 57,
            "name": "A3",
            "ticks": 854400,
            "time": 625.3875,
            "velocity": 0.48031496062992124
          },
          {
            "duration": 0.2541666666667197,
            "durationTicks": 488,
            "midi": 57,
            "name": "A3",
            "ticks": 854880,
            "time": 625.6375,
            "velocity": 0.4566929133858268
          },
          {
            "duration": 0.2541666666667197,
            "durationTicks": 488,
            "midi": 54,
            "name": "F#3",
            "ticks": 855360,
            "time": 625.8875,
            "velocity": 0.4409448818897638
          },
          {
            "duration": 0.23645833333330302,
            "durationTicks": 454,
            "midi": 55,
            "name": "G3",
            "ticks": 855840,
            "time": 626.1375,
            "velocity": 0.48031496062992124
          },
          {
            "duration": 0.12708333333330302,
            "durationTicks": 244,
            "midi": 55,
            "name": "G3",
            "ticks": 856320,
            "time": 626.3875,
            "velocity": 0.44881889763779526
          },
          {
            "duration": 0.12708333333330302,
            "durationTicks": 244,
            "midi": 57,
            "name": "A3",
            "ticks": 856560,
            "time": 626.5125,
            "velocity": 0.49606299212598426
          },
          {
            "duration": 0.23645833333330302,
            "durationTicks": 454,
            "midi": 59,
            "name": "B3",
            "ticks": 856800,
            "time": 626.6375,
            "velocity": 0.4645669291338583
          },
          {
            "duration": 0.25,
            "durationTicks": 480,
            "midi": 55,
            "name": "G3",
            "ticks": 857280,
            "time": 626.8875,
            "velocity": 0.4251968503937008
          },
          {
            "duration": 0.25,
            "durationTicks": 480,
            "midi": 52,
            "name": "E3",
            "ticks": 857760,
            "time": 627.1375,
            "velocity": 0.4645669291338583
          },
          {
            "duration": 0.2541666666667197,
            "durationTicks": 488,
            "midi": 62,
            "name": "D4",
            "ticks": 858240,
            "time": 627.3875,
            "velocity": 0.5984251968503937
          },
          {
            "duration": 0.23645833333330302,
            "durationTicks": 454,
            "midi": 60,
            "name": "C4",
            "ticks": 858720,
            "time": 627.6375,
            "velocity": 0.47244094488188976
          },
          {
            "duration": 0.25,
            "durationTicks": 480,
            "midi": 57,
            "name": "A3",
            "ticks": 859200,
            "time": 627.8875,
            "velocity": 0.4645669291338583
          },
          {
            "duration": 0.2541666666667197,
            "durationTicks": 488,
            "midi": 62,
            "name": "D4",
            "ticks": 859680,
            "time": 628.1375,
            "velocity": 0.5433070866141733
          },
          {
            "duration": 0.23645833333330302,
            "durationTicks": 454,
            "midi": 60,
            "name": "C4",
            "ticks": 860160,
            "time": 628.3875,
            "velocity": 0.44881889763779526
          },
          {
            "duration": 0.25,
            "durationTicks": 480,
            "midi": 50,
            "name": "D3",
            "ticks": 860640,
            "time": 628.6375,
            "velocity": 0.4409448818897638
          },
          {
            "duration": 0.2541666666667197,
            "durationTicks": 488,
            "midi": 60,
            "name": "C4",
            "ticks": 861120,
            "time": 628.8875,
            "velocity": 0.5669291338582677
          },
          {
            "duration": 0.23645833333330302,
            "durationTicks": 454,
            "midi": 59,
            "name": "B3",
            "ticks": 861600,
            "time": 629.1375,
            "velocity": 0.47244094488188976
          },
          {
            "duration": 0.25,
            "durationTicks": 480,
            "midi": 55,
            "name": "G3",
            "ticks": 862080,
            "time": 629.3875,
            "velocity": 0.47244094488188976
          },
          {
            "duration": 0.2541666666667197,
            "durationTicks": 488,
            "midi": 60,
            "name": "C4",
            "ticks": 862560,
            "time": 629.6375,
            "velocity": 0.5196850393700787
          },
          {
            "duration": 0.23645833333330302,
            "durationTicks": 454,
            "midi": 59,
            "name": "B3",
            "ticks": 863040,
            "time": 629.8875,
            "velocity": 0.4566929133858268
          },
          {
            "duration": 0.25,
            "durationTicks": 480,
            "midi": 48,
            "name": "C3",
            "ticks": 863520,
            "time": 630.1375,
            "velocity": 0.4330708661417323
          },
          {
            "duration": 0.2541666666667197,
            "durationTicks": 488,
            "midi": 59,
            "name": "B3",
            "ticks": 864000,
            "time": 630.3875,
            "velocity": 0.5354330708661418
          },
          {
            "duration": 0.23645833333330302,
            "durationTicks": 454,
            "midi": 57,
            "name": "A3",
            "ticks": 864480,
            "time": 630.6375,
            "velocity": 0.47244094488188976
          },
          {
            "duration": 0.2541666666667197,
            "durationTicks": 488,
            "midi": 55,
            "name": "G3",
            "ticks": 864960,
            "time": 630.8875,
            "velocity": 0.4330708661417323
          },
          {
            "duration": 0.2541666666667197,
            "durationTicks": 488,
            "midi": 54,
            "name": "F#3",
            "ticks": 865440,
            "time": 631.1375,
            "velocity": 0.5039370078740157
          },
          {
            "duration": 0.23645833333330302,
            "durationTicks": 454,
            "midi": 52,
            "name": "E3",
            "ticks": 865920,
            "time": 631.3875,
            "velocity": 0.4409448818897638
          },
          {
            "duration": 0.2541666666667197,
            "durationTicks": 488,
            "midi": 47,
            "name": "B2",
            "ticks": 866400,
            "time": 631.6375,
            "velocity": 0.44881889763779526
          },
          {
            "duration": 0.2541666666667197,
            "durationTicks": 488,
            "midi": 52,
            "name": "E3",
            "ticks": 866880,
            "time": 631.8875,
            "velocity": 0.47244094488188976
          },
          {
            "duration": 0.23645833333330302,
            "durationTicks": 454,
            "midi": 51,
            "name": "D#3",
            "ticks": 867360,
            "time": 632.1375,
            "velocity": 0.4881889763779528
          },
          {
            "duration": 0.25,
            "durationTicks": 480,
            "midi": 52,
            "name": "E3",
            "ticks": 867840,
            "time": 632.3875,
            "velocity": 0.5275590551181102
          },
          {
            "duration": 0.22447916666669698,
            "durationTicks": 431,
            "midi": 47,
            "name": "B2",
            "ticks": 868320,
            "time": 632.6375,
            "velocity": 0.4251968503937008
          },
          {
            "duration": 0.22447916666669698,
            "durationTicks": 431,
            "midi": 43,
            "name": "G2",
            "ticks": 868800,
            "time": 632.8875,
            "velocity": 0.4015748031496063
          },
          {
            "duration": 0.5,
            "durationTicks": 960,
            "midi": 40,
            "name": "E2",
            "ticks": 869280,
            "time": 633.1375,
            "velocity": 0.5039370078740157
          },
          {
            "duration": 0.25,
            "durationTicks": 480,
            "midi": 55,
            "name": "G3",
            "ticks": 870240,
            "time": 633.6375,
            "velocity": 0.5590551181102362
          },
          {
            "duration": 0.2541666666667197,
            "durationTicks": 488,
            "midi": 57,
            "name": "A3",
            "ticks": 870720,
            "time": 633.8875,
            "velocity": 0.48031496062992124
          },
          {
            "duration": 0.2541666666667197,
            "durationTicks": 488,
            "midi": 54,
            "name": "F#3",
            "ticks": 871200,
            "time": 634.1375,
            "velocity": 0.4566929133858268
          },
          {
            "duration": 0.23645833333330302,
            "durationTicks": 454,
            "midi": 55,
            "name": "G3",
            "ticks": 871680,
            "time": 634.3875,
            "velocity": 0.4881889763779528
          },
          {
            "duration": 0.11354166666671972,
            "durationTicks": 218,
            "midi": 61,
            "name": "C#4",
            "ticks": 872160,
            "time": 634.6375,
            "velocity": 0.5118110236220472
          },
          {
            "duration": 0.12708333333330302,
            "durationTicks": 244,
            "midi": 62,
            "name": "D4",
            "ticks": 872400,
            "time": 634.7625,
            "velocity": 0.4881889763779528
          },
          {
            "duration": 0.23645833333330302,
            "durationTicks": 454,
            "midi": 64,
            "name": "E4",
            "ticks": 872640,
            "time": 634.8875,
            "velocity": 0.5433070866141733
          },
          {
            "duration": 0.22447916666669698,
            "durationTicks": 431,
            "midi": 54,
            "name": "F#3",
            "ticks": 873120,
            "time": 635.1375,
            "velocity": 0.4094488188976378
          },
          {
            "duration": 0.2541666666667197,
            "durationTicks": 488,
            "midi": 55,
            "name": "G3",
            "ticks": 873600,
            "time": 635.3875,
            "velocity": 0.49606299212598426
          },
          {
            "duration": 0.2541666666667197,
            "durationTicks": 488,
            "midi": 52,
            "name": "E3",
            "ticks": 874080,
            "time": 635.6375,
            "velocity": 0.44881889763779526
          },
          {
            "duration": 0.23645833333330302,
            "durationTicks": 454,
            "midi": 53,
            "name": "F3",
            "ticks": 874560,
            "time": 635.8875,
            "velocity": 0.49606299212598426
          },
          {
            "duration": 0.11354166666671972,
            "durationTicks": 218,
            "midi": 59,
            "name": "B3",
            "ticks": 875040,
            "time": 636.1375,
            "velocity": 0.4645669291338583
          },
          {
            "duration": 0.12708333333330302,
            "durationTicks": 244,
            "midi": 60,
            "name": "C4",
            "ticks": 875280,
            "time": 636.2625,
            "velocity": 0.5118110236220472
          },
          {
            "duration": 0.23645833333330302,
            "durationTicks": 454,
            "midi": 62,
            "name": "D4",
            "ticks": 875520,
            "time": 636.3875,
            "velocity": 0.5196850393700787
          },
          {
            "duration": 0.22447916666669698,
            "durationTicks": 431,
            "midi": 52,
            "name": "E3",
            "ticks": 876000,
            "time": 636.6375,
            "velocity": 0.4251968503937008
          },
          {
            "duration": 0.2541666666667197,
            "durationTicks": 488,
            "midi": 53,
            "name": "F3",
            "ticks": 876480,
            "time": 636.8875,
            "velocity": 0.4645669291338583
          },
          {
            "duration": 0.2541666666667197,
            "durationTicks": 488,
            "midi": 50,
            "name": "D3",
            "ticks": 876960,
            "time": 637.1375,
            "velocity": 0.48031496062992124
          },
          {
            "duration": 0.23645833333330302,
            "durationTicks": 454,
            "midi": 52,
            "name": "E3",
            "ticks": 877440,
            "time": 637.3875,
            "velocity": 0.5118110236220472
          },
          {
            "duration": 0.12708333333330302,
            "durationTicks": 244,
            "midi": 57,
            "name": "A3",
            "ticks": 877920,
            "time": 637.6375,
            "velocity": 0.5196850393700787
          },
          {
            "duration": 0.12708333333330302,
            "durationTicks": 244,
            "midi": 59,
            "name": "B3",
            "ticks": 878160,
            "time": 637.7625,
            "velocity": 0.5039370078740157
          },
          {
            "duration": 0.23645833333330302,
            "durationTicks": 454,
            "midi": 60,
            "name": "C4",
            "ticks": 878400,
            "time": 637.8875,
            "velocity": 0.5275590551181102
          },
          {
            "duration": 0.22447916666669698,
            "durationTicks": 431,
            "midi": 57,
            "name": "A3",
            "ticks": 878880,
            "time": 638.1375,
            "velocity": 0.4409448818897638
          },
          {
            "duration": 0.12708333333330302,
            "durationTicks": 244,
            "midi": 54,
            "name": "F#3",
            "ticks": 879360,
            "time": 638.3875,
            "velocity": 0.44881889763779526
          },
          {
            "duration": 0.12708333333330302,
            "durationTicks": 244,
            "midi": 55,
            "name": "G3",
            "ticks": 879600,
            "time": 638.5125,
            "velocity": 0.5275590551181102
          },
          {
            "duration": 0.23645833333330302,
            "durationTicks": 454,
            "midi": 57,
            "name": "A3",
            "ticks": 879840,
            "time": 638.6375,
            "velocity": 0.49606299212598426
          },
          {
            "duration": 0.25,
            "durationTicks": 480,
            "midi": 54,
            "name": "F#3",
            "ticks": 880320,
            "time": 638.8875,
            "velocity": 0.44881889763779526
          },
          {
            "duration": 0.5,
            "durationTicks": 960,
            "midi": 50,
            "name": "D3",
            "ticks": 880800,
            "time": 639.1375,
            "velocity": 0.47244094488188976
          },
          {
            "duration": 0.25,
            "durationTicks": 480,
            "midi": 57,
            "name": "A3",
            "ticks": 881760,
            "time": 639.6375,
            "velocity": 0.5354330708661418
          },
          {
            "duration": 0.2541666666667197,
            "durationTicks": 488,
            "midi": 58,
            "name": "A#3",
            "ticks": 882240,
            "time": 639.8875,
            "velocity": 0.5196850393700787
          },
          {
            "duration": 0.2541666666667197,
            "durationTicks": 488,
            "midi": 57,
            "name": "A3",
            "ticks": 882720,
            "time": 640.1375,
            "velocity": 0.4881889763779528
          },
          {
            "duration": 0.23645833333330302,
            "durationTicks": 454,
            "midi": 60,
            "name": "C4",
            "ticks": 883200,
            "time": 640.3875,
            "velocity": 0.5433070866141733
          },
          {
            "duration": 0.2541666666667197,
            "durationTicks": 488,
            "midi": 60,
            "name": "C4",
            "ticks": 883680,
            "time": 640.6375,
            "velocity": 0.5039370078740157
          },
          {
            "duration": 0.2541666666667197,
            "durationTicks": 488,
            "midi": 58,
            "name": "A#3",
            "ticks": 884160,
            "time": 640.8875,
            "velocity": 0.5354330708661418
          },
          {
            "duration": 0.23645833333330302,
            "durationTicks": 454,
            "midi": 62,
            "name": "D4",
            "ticks": 884640,
            "time": 641.1375,
            "velocity": 0.5905511811023622
          },
          {
            "duration": 0.2541666666667197,
            "durationTicks": 488,
            "midi": 62,
            "name": "D4",
            "ticks": 885120,
            "time": 641.3875,
            "velocity": 0.5748031496062992
          },
          {
            "duration": 0.2541666666667197,
            "durationTicks": 488,
            "midi": 60,
            "name": "C4",
            "ticks": 885600,
            "time": 641.6375,
            "velocity": 0.5118110236220472
          },
          {
            "duration": 0.23645833333330302,
            "durationTicks": 454,
            "midi": 63,
            "name": "D#4",
            "ticks": 886080,
            "time": 641.8875,
            "velocity": 0.6220472440944882
          },
          {
            "duration": 0.2541666666667197,
            "durationTicks": 488,
            "midi": 63,
            "name": "D#4",
            "ticks": 886560,
            "time": 642.1375,
            "velocity": 0.5748031496062992
          },
          {
            "duration": 0.2541666666667197,
            "durationTicks": 488,
            "midi": 62,
            "name": "D4",
            "ticks": 887040,
            "time": 642.3875,
            "velocity": 0.5275590551181102
          },
          {
            "duration": 0.23645833333330302,
            "durationTicks": 454,
            "midi": 60,
            "name": "C4",
            "ticks": 887520,
            "time": 642.6375,
            "velocity": 0.5118110236220472
          },
          {
            "duration": 0.2541666666667197,
            "durationTicks": 488,
            "midi": 58,
            "name": "A#3",
            "ticks": 888000,
            "time": 642.8875,
            "velocity": 0.5275590551181102
          },
          {
            "duration": 0.2541666666667197,
            "durationTicks": 488,
            "midi": 57,
            "name": "A3",
            "ticks": 888480,
            "time": 643.1375,
            "velocity": 0.5433070866141733
          },
          {
            "duration": 0.23645833333330302,
            "durationTicks": 454,
            "midi": 55,
            "name": "G3",
            "ticks": 888960,
            "time": 643.3875,
            "velocity": 0.5511811023622047
          },
          {
            "duration": 0.2541666666667197,
            "durationTicks": 488,
            "midi": 50,
            "name": "D3",
            "ticks": 889440,
            "time": 643.6375,
            "velocity": 0.49606299212598426
          },
          {
            "duration": 0.2541666666667197,
            "durationTicks": 488,
            "midi": 55,
            "name": "G3",
            "ticks": 889920,
            "time": 643.8875,
            "velocity": 0.5905511811023622
          },
          {
            "duration": 0.23645833333330302,
            "durationTicks": 454,
            "midi": 54,
            "name": "F#3",
            "ticks": 890400,
            "time": 644.1375,
            "velocity": 0.5433070866141733
          },
          {
            "duration": 0.25,
            "durationTicks": 480,
            "midi": 55,
            "name": "G3",
            "ticks": 890880,
            "time": 644.3875,
            "velocity": 0.5275590551181102
          },
          {
            "duration": 0.12708333333330302,
            "durationTicks": 244,
            "midi": 47,
            "name": "B2",
            "ticks": 891360,
            "time": 644.6375,
            "velocity": 0.4881889763779528
          },
          {
            "duration": 0.12708333333330302,
            "durationTicks": 244,
            "midi": 48,
            "name": "C3",
            "ticks": 891600,
            "time": 644.7625,
            "velocity": 0.5354330708661418
          },
          {
            "duration": 0.23645833333330302,
            "durationTicks": 454,
            "midi": 50,
            "name": "D3",
            "ticks": 891840,
            "time": 644.8875,
            "velocity": 0.6220472440944882
          },
          {
            "duration": 0.2541666666667197,
            "durationTicks": 488,
            "midi": 43,
            "name": "G2",
            "ticks": 892320,
            "time": 645.1375,
            "velocity": 0.5196850393700787
          },
          {
            "duration": 0.23645833333330302,
            "durationTicks": 454,
            "midi": 47,
            "name": "B2",
            "ticks": 892800,
            "time": 645.3875,
            "velocity": 0.5511811023622047
          },
          {
            "duration": 0.25,
            "durationTicks": 480,
            "midi": 50,
            "name": "D3",
            "ticks": 893280,
            "time": 645.6375,
            "velocity": 0.5826771653543307
          },
          {
            "duration": 0.25,
            "durationTicks": 480,
            "midi": 55,
            "name": "G3",
            "ticks": 893760,
            "time": 645.8875,
            "velocity": 0.6141732283464567
          },
          {
            "duration": 0.12708333333330302,
            "durationTicks": 244,
            "midi": 52,
            "name": "E3",
            "ticks": 894240,
            "time": 646.1375,
            "velocity": 0.5275590551181102
          },
          {
            "duration": 0.12708333333330302,
            "durationTicks": 244,
            "midi": 53,
            "name": "F3",
            "ticks": 894480,
            "time": 646.2625,
            "velocity": 0.5511811023622047
          },
          {
            "duration": 0.23645833333330302,
            "durationTicks": 454,
            "midi": 55,
            "name": "G3",
            "ticks": 894720,
            "time": 646.3875,
            "velocity": 0.6141732283464567
          },
          {
            "duration": 0.2541666666667197,
            "durationTicks": 488,
            "midi": 47,
            "name": "B2",
            "ticks": 895200,
            "time": 646.6375,
            "velocity": 0.5196850393700787
          },
          {
            "duration": 0.23645833333330302,
            "durationTicks": 454,
            "midi": 48,
            "name": "C3",
            "ticks": 895680,
            "time": 646.8875,
            "velocity": 0.5511811023622047
          },
          {
            "duration": 0.25,
            "durationTicks": 480,
            "midi": 52,
            "name": "E3",
            "ticks": 896160,
            "time": 647.1375,
            "velocity": 0.5748031496062992
          },
          {
            "duration": 0.25,
            "durationTicks": 480,
            "midi": 57,
            "name": "A3",
            "ticks": 896640,
            "time": 647.3875,
            "velocity": 0.6299212598425197
          },
          {
            "duration": 0.12708333333330302,
            "durationTicks": 244,
            "midi": 54,
            "name": "F#3",
            "ticks": 897120,
            "time": 647.6375,
            "velocity": 0.5433070866141733
          },
          {
            "duration": 0.12708333333330302,
            "durationTicks": 244,
            "midi": 55,
            "name": "G3",
            "ticks": 897360,
            "time": 647.7625,
            "velocity": 0.5669291338582677
          },
          {
            "duration": 0.23645833333330302,
            "durationTicks": 454,
            "midi": 57,
            "name": "A3",
            "ticks": 897600,
            "time": 647.8875,
            "velocity": 0.5748031496062992
          },
          {
            "duration": 0.2541666666667197,
            "durationTicks": 488,
            "midi": 49,
            "name": "C#3",
            "ticks": 898080,
            "time": 648.1375,
            "velocity": 0.5196850393700787
          },
          {
            "duration": 0.23645833333330302,
            "durationTicks": 454,
            "midi": 50,
            "name": "D3",
            "ticks": 898560,
            "time": 648.3875,
            "velocity": 0.5826771653543307
          },
          {
            "duration": 0.25,
            "durationTicks": 480,
            "midi": 54,
            "name": "F#3",
            "ticks": 899040,
            "time": 648.6375,
            "velocity": 0.6141732283464567
          },
          {
            "duration": 0.25,
            "durationTicks": 480,
            "midi": 59,
            "name": "B3",
            "ticks": 899520,
            "time": 648.8875,
            "velocity": 0.5905511811023622
          },
          {
            "duration": 0.12708333333330302,
            "durationTicks": 244,
            "midi": 55,
            "name": "G3",
            "ticks": 900000,
            "time": 649.1375,
            "velocity": 0.5196850393700787
          },
          {
            "duration": 0.12708333333330302,
            "durationTicks": 244,
            "midi": 57,
            "name": "A3",
            "ticks": 900240,
            "time": 649.2625,
            "velocity": 0.5905511811023622
          },
          {
            "duration": 0.23645833333330302,
            "durationTicks": 454,
            "midi": 59,
            "name": "B3",
            "ticks": 900480,
            "time": 649.3875,
            "velocity": 0.5826771653543307
          },
          {
            "duration": 0.2541666666667197,
            "durationTicks": 488,
            "midi": 51,
            "name": "D#3",
            "ticks": 900960,
            "time": 649.6375,
            "velocity": 0.4645669291338583
          },
          {
            "duration": 0.23645833333330302,
            "durationTicks": 454,
            "midi": 52,
            "name": "E3",
            "ticks": 901440,
            "time": 649.8875,
            "velocity": 0.5354330708661418
          },
          {
            "duration": 0.25,
            "durationTicks": 480,
            "midi": 60,
            "name": "C4",
            "ticks": 901920,
            "time": 650.1375,
            "velocity": 0.6377952755905512
          },
          {
            "duration": 0.2541666666667197,
            "durationTicks": 488,
            "midi": 52,
            "name": "E3",
            "ticks": 902400,
            "time": 650.3875,
            "velocity": 0.5354330708661418
          },
          {
            "duration": 0.23645833333330302,
            "durationTicks": 454,
            "midi": 54,
            "name": "F#3",
            "ticks": 902880,
            "time": 650.6375,
            "velocity": 0.5669291338582677
          },
          {
            "duration": 0.25,
            "durationTicks": 480,
            "midi": 62,
            "name": "D4",
            "ticks": 903360,
            "time": 650.8875,
            "velocity": 0.6692913385826772
          },
          {
            "duration": 0.2541666666667197,
            "durationTicks": 488,
            "midi": 54,
            "name": "F#3",
            "ticks": 903840,
            "time": 651.1375,
            "velocity": 0.5433070866141733
          },
          {
            "duration": 0.23645833333330302,
            "durationTicks": 454,
            "midi": 55,
            "name": "G3",
            "ticks": 904320,
            "time": 651.3875,
            "velocity": 0.5354330708661418
          },
          {
            "duration": 0.25,
            "durationTicks": 480,
            "midi": 64,
            "name": "E4",
            "ticks": 904800,
            "time": 651.6375,
            "velocity": 0.6220472440944882
          },
          {
            "duration": 0.2541666666667197,
            "durationTicks": 488,
            "midi": 50,
            "name": "D3",
            "ticks": 905280,
            "time": 651.8875,
            "velocity": 0.48031496062992124
          },
          {
            "duration": 0.12708333333330302,
            "durationTicks": 244,
            "midi": 52,
            "name": "E3",
            "ticks": 905760,
            "time": 652.1375,
            "velocity": 0.5590551181102362
          },
          {
            "duration": 0.12708333333330302,
            "durationTicks": 244,
            "midi": 54,
            "name": "F#3",
            "ticks": 906000,
            "time": 652.2625,
            "velocity": 0.5905511811023622
          },
          {
            "duration": 0.12708333333330302,
            "durationTicks": 244,
            "midi": 55,
            "name": "G3",
            "ticks": 906240,
            "time": 652.3875,
            "velocity": 0.5748031496062992
          },
          {
            "duration": 0.1171875,
            "durationTicks": 225,
            "midi": 57,
            "name": "A3",
            "ticks": 906480,
            "time": 652.5125,
            "velocity": 0.5511811023622047
          },
          {
            "duration": 0.22864583333330302,
            "durationTicks": 439,
            "midi": 59,
            "name": "B3",
            "ticks": 906720,
            "time": 652.6375,
            "velocity": 0.5354330708661418
          },
          {
            "duration": 0.2541666666667197,
            "durationTicks": 488,
            "midi": 55,
            "name": "G3",
            "ticks": 907200,
            "time": 652.8875,
            "velocity": 0.5354330708661418
          },
          {
            "duration": 0.23645833333330302,
            "durationTicks": 454,
            "midi": 54,
            "name": "F#3",
            "ticks": 907680,
            "time": 653.1375,
            "velocity": 0.5511811023622047
          },
          {
            "duration": 0.25,
            "durationTicks": 480,
            "midi": 55,
            "name": "G3",
            "ticks": 908160,
            "time": 653.3875,
            "velocity": 0.5669291338582677
          },
          {
            "duration": 0.22447916666669698,
            "durationTicks": 431,
            "midi": 50,
            "name": "D3",
            "ticks": 908640,
            "time": 653.6375,
            "velocity": 0.5196850393700787
          },
          {
            "duration": 0.22447916666669698,
            "durationTicks": 431,
            "midi": 47,
            "name": "B2",
            "ticks": 909120,
            "time": 653.8875,
            "velocity": 0.5433070866141733
          },
          {
            "duration": 0.75,
            "durationTicks": 1440,
            "midi": 43,
            "name": "G2",
            "ticks": 909600,
            "time": 654.1375,
            "velocity": 0.5433070866141733
          },
          {
            "duration": 0.25,
            "durationTicks": 480,
            "midi": 57,
            "name": "A3",
            "ticks": 911040,
            "time": 654.8875,
            "velocity": 0.6377952755905512
          },
          {
            "duration": 0.2541666666667197,
            "durationTicks": 488,
            "midi": 57,
            "name": "A3",
            "ticks": 911520,
            "time": 655.1375,
            "velocity": 0.5984251968503937
          },
          {
            "duration": 0.2541666666667197,
            "durationTicks": 488,
            "midi": 54,
            "name": "F#3",
            "ticks": 912000,
            "time": 655.3875,
            "velocity": 0.5275590551181102
          },
          {
            "duration": 0.23645833333330302,
            "durationTicks": 454,
            "midi": 55,
            "name": "G3",
            "ticks": 912480,
            "time": 655.6375,
            "velocity": 0.5433070866141733
          },
          {
            "duration": 0.2541666666667197,
            "durationTicks": 488,
            "midi": 55,
            "name": "G3",
            "ticks": 912960,
            "time": 655.8875,
            "velocity": 0.5354330708661418
          },
          {
            "duration": 0.2541666666667197,
            "durationTicks": 488,
            "midi": 52,
            "name": "E3",
            "ticks": 913440,
            "time": 656.1375,
            "velocity": 0.5275590551181102
          },
          {
            "duration": 0.23645833333330302,
            "durationTicks": 454,
            "midi": 54,
            "name": "F#3",
            "ticks": 913920,
            "time": 656.3875,
            "velocity": 0.5511811023622047
          },
          {
            "duration": 0.12708333333330302,
            "durationTicks": 244,
            "midi": 54,
            "name": "F#3",
            "ticks": 914400,
            "time": 656.6375,
            "velocity": 0.5433070866141733
          },
          {
            "duration": 0.12708333333330302,
            "durationTicks": 244,
            "midi": 55,
            "name": "G3",
            "ticks": 914640,
            "time": 656.7625,
            "velocity": 0.5748031496062992
          },
          {
            "duration": 0.23645833333330302,
            "durationTicks": 454,
            "midi": 57,
            "name": "A3",
            "ticks": 914880,
            "time": 656.8875,
            "velocity": 0.5905511811023622
          },
          {
            "duration": 0.25,
            "durationTicks": 480,
            "midi": 54,
            "name": "F#3",
            "ticks": 915360,
            "time": 657.1375,
            "velocity": 0.5511811023622047
          },
          {
            "duration": 0.25,
            "durationTicks": 480,
            "midi": 50,
            "name": "D3",
            "ticks": 915840,
            "time": 657.3875,
            "velocity": 0.5354330708661418
          },
          {
            "duration": 0.2541666666667197,
            "durationTicks": 488,
            "midi": 60,
            "name": "C4",
            "ticks": 916320,
            "time": 657.6375,
            "velocity": 0.7165354330708661
          },
          {
            "duration": 0.23645833333330302,
            "durationTicks": 454,
            "midi": 59,
            "name": "B3",
            "ticks": 916800,
            "time": 657.8875,
            "velocity": 0.5590551181102362
          },
          {
            "duration": 0.2541666666667197,
            "durationTicks": 488,
            "midi": 59,
            "name": "B3",
            "ticks": 917280,
            "time": 658.1375,
            "velocity": 0.5433070866141733
          },
          {
            "duration": 0.2541666666667197,
            "durationTicks": 488,
            "midi": 55,
            "name": "G3",
            "ticks": 917760,
            "time": 658.3875,
            "velocity": 0.5196850393700787
          },
          {
            "duration": 0.23645833333330302,
            "durationTicks": 454,
            "midi": 57,
            "name": "A3",
            "ticks": 918240,
            "time": 658.6375,
            "velocity": 0.5984251968503937
          },
          {
            "duration": 0.2541666666667197,
            "durationTicks": 488,
            "midi": 57,
            "name": "A3",
            "ticks": 918720,
            "time": 658.8875,
            "velocity": 0.5748031496062992
          },
          {
            "duration": 0.2541666666667197,
            "durationTicks": 488,
            "midi": 54,
            "name": "F#3",
            "ticks": 919200,
            "time": 659.1375,
            "velocity": 0.5354330708661418
          },
          {
            "duration": 0.23645833333330302,
            "durationTicks": 454,
            "midi": 55,
            "name": "G3",
            "ticks": 919680,
            "time": 659.3875,
            "velocity": 0.5590551181102362
          },
          {
            "duration": 0.12708333333330302,
            "durationTicks": 244,
            "midi": 55,
            "name": "G3",
            "ticks": 920160,
            "time": 659.6375,
            "velocity": 0.5433070866141733
          },
          {
            "duration": 0.12708333333330302,
            "durationTicks": 244,
            "midi": 57,
            "name": "A3",
            "ticks": 920400,
            "time": 659.7625,
            "velocity": 0.5905511811023622
          },
          {
            "duration": 0.23645833333330302,
            "durationTicks": 454,
            "midi": 59,
            "name": "B3",
            "ticks": 920640,
            "time": 659.8875,
            "velocity": 0.5826771653543307
          },
          {
            "duration": 0.25,
            "durationTicks": 480,
            "midi": 55,
            "name": "G3",
            "ticks": 921120,
            "time": 660.1375,
            "velocity": 0.5196850393700787
          },
          {
            "duration": 0.25,
            "durationTicks": 480,
            "midi": 52,
            "name": "E3",
            "ticks": 921600,
            "time": 660.3875,
            "velocity": 0.5275590551181102
          },
          {
            "duration": 0.2541666666667197,
            "durationTicks": 488,
            "midi": 62,
            "name": "D4",
            "ticks": 922080,
            "time": 660.6375,
            "velocity": 0.6929133858267716
          },
          {
            "duration": 0.23645833333330302,
            "durationTicks": 454,
            "midi": 60,
            "name": "C4",
            "ticks": 922560,
            "time": 660.8875,
            "velocity": 0.5748031496062992
          },
          {
            "duration": 0.25,
            "durationTicks": 480,
            "midi": 57,
            "name": "A3",
            "ticks": 923040,
            "time": 661.1375,
            "velocity": 0.5433070866141733
          },
          {
            "duration": 0.2541666666667197,
            "durationTicks": 488,
            "midi": 62,
            "name": "D4",
            "ticks": 923520,
            "time": 661.3875,
            "velocity": 0.6220472440944882
          },
          {
            "duration": 0.23645833333330302,
            "durationTicks": 454,
            "midi": 60,
            "name": "C4",
            "ticks": 924000,
            "time": 661.6375,
            "velocity": 0.5511811023622047
          },
          {
            "duration": 0.25,
            "durationTicks": 480,
            "midi": 50,
            "name": "D3",
            "ticks": 924480,
            "time": 661.8875,
            "velocity": 0.47244094488188976
          },
          {
            "duration": 0.2541666666667197,
            "durationTicks": 488,
            "midi": 60,
            "name": "C4",
            "ticks": 924960,
            "time": 662.1375,
            "velocity": 0.6692913385826772
          },
          {
            "duration": 0.23645833333330302,
            "durationTicks": 454,
            "midi": 59,
            "name": "B3",
            "ticks": 925440,
            "time": 662.3875,
            "velocity": 0.5826771653543307
          },
          {
            "duration": 0.25,
            "durationTicks": 480,
            "midi": 55,
            "name": "G3",
            "ticks": 925920,
            "time": 662.6375,
            "velocity": 0.5354330708661418
          },
          {
            "duration": 0.2541666666667197,
            "durationTicks": 488,
            "midi": 60,
            "name": "C4",
            "ticks": 926400,
            "time": 662.8875,
            "velocity": 0.6220472440944882
          },
          {
            "duration": 0.23645833333330302,
            "durationTicks": 454,
            "midi": 59,
            "name": "B3",
            "ticks": 926880,
            "time": 663.1375,
            "velocity": 0.5826771653543307
          },
          {
            "duration": 0.25,
            "durationTicks": 480,
            "midi": 48,
            "name": "C3",
            "ticks": 927360,
            "time": 663.3875,
            "velocity": 0.5039370078740157
          },
          {
            "duration": 0.2541666666667197,
            "durationTicks": 488,
            "midi": 59,
            "name": "B3",
            "ticks": 927840,
            "time": 663.6375,
            "velocity": 0.5748031496062992
          },
          {
            "duration": 0.23645833333330302,
            "durationTicks": 454,
            "midi": 57,
            "name": "A3",
            "ticks": 928320,
            "time": 663.8875,
            "velocity": 0.5984251968503937
          },
          {
            "duration": 0.2541666666667197,
            "durationTicks": 488,
            "midi": 55,
            "name": "G3",
            "ticks": 928800,
            "time": 664.1375,
            "velocity": 0.5511811023622047
          },
          {
            "duration": 0.2541666666667197,
            "durationTicks": 488,
            "midi": 54,
            "name": "F#3",
            "ticks": 929280,
            "time": 664.3875,
            "velocity": 0.5590551181102362
          },
          {
            "duration": 0.23645833333330302,
            "durationTicks": 454,
            "midi": 52,
            "name": "E3",
            "ticks": 929760,
            "time": 664.6375,
            "velocity": 0.5354330708661418
          },
          {
            "duration": 0.2541666666667197,
            "durationTicks": 488,
            "midi": 47,
            "name": "B2",
            "ticks": 930240,
            "time": 664.8875,
            "velocity": 0.5196850393700787
          },
          {
            "duration": 0.2541666666667197,
            "durationTicks": 488,
            "midi": 52,
            "name": "E3",
            "ticks": 930720,
            "time": 665.1375,
            "velocity": 0.5748031496062992
          },
          {
            "duration": 0.23645833333330302,
            "durationTicks": 454,
            "midi": 51,
            "name": "D#3",
            "ticks": 931200,
            "time": 665.3875,
            "velocity": 0.5511811023622047
          },
          {
            "duration": 0.25,
            "durationTicks": 480,
            "midi": 52,
            "name": "E3",
            "ticks": 931680,
            "time": 665.6375,
            "velocity": 0.5748031496062992
          },
          {
            "duration": 0.22447916666669698,
            "durationTicks": 431,
            "midi": 47,
            "name": "B2",
            "ticks": 932160,
            "time": 665.8875,
            "velocity": 0.44881889763779526
          },
          {
            "duration": 0.22447916666669698,
            "durationTicks": 431,
            "midi": 43,
            "name": "G2",
            "ticks": 932640,
            "time": 666.1375,
            "velocity": 0.49606299212598426
          },
          {
            "duration": 0.5,
            "durationTicks": 960,
            "midi": 40,
            "name": "E2",
            "ticks": 933120,
            "time": 666.3875,
            "velocity": 0.5275590551181102
          },
          {
            "duration": 0.25,
            "durationTicks": 480,
            "midi": 55,
            "name": "G3",
            "ticks": 934080,
            "time": 666.8875,
            "velocity": 0.6377952755905512
          },
          {
            "duration": 0.2541666666667197,
            "durationTicks": 488,
            "midi": 57,
            "name": "A3",
            "ticks": 934560,
            "time": 667.1375,
            "velocity": 0.5826771653543307
          },
          {
            "duration": 0.25416666666660603,
            "durationTicks": 488,
            "midi": 54,
            "name": "F#3",
            "ticks": 935040,
            "time": 667.3875,
            "velocity": 0.5511811023622047
          },
          {
            "duration": 0.23645833333330302,
            "durationTicks": 454,
            "midi": 55,
            "name": "G3",
            "ticks": 935520,
            "time": 667.6375,
            "velocity": 0.5433070866141733
          },
          {
            "duration": 0.11354166666660603,
            "durationTicks": 218,
            "midi": 61,
            "name": "C#4",
            "ticks": 936000,
            "time": 667.8875,
            "velocity": 0.5984251968503937
          },
          {
            "duration": 0.12708333333330302,
            "durationTicks": 244,
            "midi": 62,
            "name": "D4",
            "ticks": 936240,
            "time": 668.0125,
            "velocity": 0.5826771653543307
          },
          {
            "duration": 0.23645833333330302,
            "durationTicks": 454,
            "midi": 64,
            "name": "E4",
            "ticks": 936480,
            "time": 668.1375,
            "velocity": 0.5984251968503937
          },
          {
            "duration": 0.22447916666669698,
            "durationTicks": 431,
            "midi": 54,
            "name": "F#3",
            "ticks": 936960,
            "time": 668.3875,
            "velocity": 0.48031496062992124
          },
          {
            "duration": 0.25416666666660603,
            "durationTicks": 488,
            "midi": 55,
            "name": "G3",
            "ticks": 937440,
            "time": 668.6375,
            "velocity": 0.5748031496062992
          },
          {
            "duration": 0.25416666666660603,
            "durationTicks": 488,
            "midi": 52,
            "name": "E3",
            "ticks": 937920,
            "time": 668.8875,
            "velocity": 0.5118110236220472
          },
          {
            "duration": 0.23645833333330302,
            "durationTicks": 454,
            "midi": 53,
            "name": "F3",
            "ticks": 938400,
            "time": 669.1375,
            "velocity": 0.5826771653543307
          },
          {
            "duration": 0.11354166666660603,
            "durationTicks": 218,
            "midi": 59,
            "name": "B3",
            "ticks": 938880,
            "time": 669.3875,
            "velocity": 0.5669291338582677
          },
          {
            "duration": 0.12708333333330302,
            "durationTicks": 244,
            "midi": 60,
            "name": "C4",
            "ticks": 939120,
            "time": 669.5125,
            "velocity": 0.5590551181102362
          },
          {
            "duration": 0.23645833333330302,
            "durationTicks": 454,
            "midi": 62,
            "name": "D4",
            "ticks": 939360,
            "time": 669.6375,
            "velocity": 0.6062992125984252
          },
          {
            "duration": 0.22447916666669698,
            "durationTicks": 431,
            "midi": 52,
            "name": "E3",
            "ticks": 939840,
            "time": 669.8875,
            "velocity": 0.4645669291338583
          },
          {
            "duration": 0.25416666666660603,
            "durationTicks": 488,
            "midi": 53,
            "name": "F3",
            "ticks": 940320,
            "time": 670.1375,
            "velocity": 0.5669291338582677
          },
          {
            "duration": 0.25416666666660603,
            "durationTicks": 488,
            "midi": 50,
            "name": "D3",
            "ticks": 940800,
            "time": 670.3875,
            "velocity": 0.5433070866141733
          },
          {
            "duration": 0.23645833333330302,
            "durationTicks": 454,
            "midi": 52,
            "name": "E3",
            "ticks": 941280,
            "time": 670.6375,
            "velocity": 0.5748031496062992
          },
          {
            "duration": 0.12708333333330302,
            "durationTicks": 244,
            "midi": 57,
            "name": "A3",
            "ticks": 941760,
            "time": 670.8875,
            "velocity": 0.5826771653543307
          },
          {
            "duration": 0.12708333333330302,
            "durationTicks": 244,
            "midi": 59,
            "name": "B3",
            "ticks": 942000,
            "time": 671.0125,
            "velocity": 0.5669291338582677
          },
          {
            "duration": 0.23645833333330302,
            "durationTicks": 454,
            "midi": 60,
            "name": "C4",
            "ticks": 942240,
            "time": 671.1375,
            "velocity": 0.5275590551181102
          },
          {
            "duration": 0.22447916666669698,
            "durationTicks": 431,
            "midi": 57,
            "name": "A3",
            "ticks": 942720,
            "time": 671.3875,
            "velocity": 0.5196850393700787
          },
          {
            "duration": 0.12708333333330302,
            "durationTicks": 244,
            "midi": 54,
            "name": "F#3",
            "ticks": 943200,
            "time": 671.6375,
            "velocity": 0.5118110236220472
          },
          {
            "duration": 0.12708333333330302,
            "durationTicks": 244,
            "midi": 55,
            "name": "G3",
            "ticks": 943440,
            "time": 671.7625,
            "velocity": 0.5669291338582677
          },
          {
            "duration": 0.23645833333330302,
            "durationTicks": 454,
            "midi": 57,
            "name": "A3",
            "ticks": 943680,
            "time": 671.8875,
            "velocity": 0.5669291338582677
          },
          {
            "duration": 0.25,
            "durationTicks": 480,
            "midi": 54,
            "name": "F#3",
            "ticks": 944160,
            "time": 672.1375,
            "velocity": 0.5590551181102362
          },
          {
            "duration": 0.5,
            "durationTicks": 960,
            "midi": 50,
            "name": "D3",
            "ticks": 944640,
            "time": 672.3875,
            "velocity": 0.5196850393700787
          },
          {
            "duration": 0.25,
            "durationTicks": 480,
            "midi": 57,
            "name": "A3",
            "ticks": 945600,
            "time": 672.8875,
            "velocity": 0.5748031496062992
          },
          {
            "duration": 0.25416666666660603,
            "durationTicks": 488,
            "midi": 58,
            "name": "A#3",
            "ticks": 946080,
            "time": 673.1375,
            "velocity": 0.5748031496062992
          },
          {
            "duration": 0.25416666666660603,
            "durationTicks": 488,
            "midi": 57,
            "name": "A3",
            "ticks": 946560,
            "time": 673.3875,
            "velocity": 0.5433070866141733
          },
          {
            "duration": 0.23645833333330302,
            "durationTicks": 454,
            "midi": 60,
            "name": "C4",
            "ticks": 947040,
            "time": 673.6375,
            "velocity": 0.6456692913385826
          },
          {
            "duration": 0.25416666666660603,
            "durationTicks": 488,
            "midi": 60,
            "name": "C4",
            "ticks": 947520,
            "time": 673.8875,
            "velocity": 0.6062992125984252
          },
          {
            "duration": 0.25416666666660603,
            "durationTicks": 488,
            "midi": 58,
            "name": "A#3",
            "ticks": 948000,
            "time": 674.1375,
            "velocity": 0.5984251968503937
          },
          {
            "duration": 0.23645833333330302,
            "durationTicks": 454,
            "midi": 62,
            "name": "D4",
            "ticks": 948480,
            "time": 674.3875,
            "velocity": 0.6929133858267716
          },
          {
            "duration": 0.25416666666660603,
            "durationTicks": 488,
            "midi": 62,
            "name": "D4",
            "ticks": 948960,
            "time": 674.6375,
            "velocity": 0.6929133858267716
          },
          {
            "duration": 0.25416666666660603,
            "durationTicks": 488,
            "midi": 60,
            "name": "C4",
            "ticks": 949440,
            "time": 674.8875,
            "velocity": 0.6141732283464567
          },
          {
            "duration": 0.23645833333330302,
            "durationTicks": 454,
            "midi": 63,
            "name": "D#4",
            "ticks": 949920,
            "time": 675.1375,
            "velocity": 0.7165354330708661
          },
          {
            "duration": 0.25416666666660603,
            "durationTicks": 488,
            "midi": 63,
            "name": "D#4",
            "ticks": 950400,
            "time": 675.3875,
            "velocity": 0.6692913385826772
          },
          {
            "duration": 0.25416666666660603,
            "durationTicks": 488,
            "midi": 62,
            "name": "D4",
            "ticks": 950880,
            "time": 675.6375,
            "velocity": 0.6141732283464567
          },
          {
            "duration": 0.23645833333330302,
            "durationTicks": 454,
            "midi": 60,
            "name": "C4",
            "ticks": 951360,
            "time": 675.8875,
            "velocity": 0.6062992125984252
          },
          {
            "duration": 0.25416666666660603,
            "durationTicks": 488,
            "midi": 58,
            "name": "A#3",
            "ticks": 951840,
            "time": 676.1375,
            "velocity": 0.6062992125984252
          },
          {
            "duration": 0.25416666666660603,
            "durationTicks": 488,
            "midi": 57,
            "name": "A3",
            "ticks": 952320,
            "time": 676.3875,
            "velocity": 0.6456692913385826
          },
          {
            "duration": 0.23645833333330302,
            "durationTicks": 454,
            "midi": 55,
            "name": "G3",
            "ticks": 952800,
            "time": 676.6375,
            "velocity": 0.6220472440944882
          },
          {
            "duration": 0.25416666666660603,
            "durationTicks": 488,
            "midi": 50,
            "name": "D3",
            "ticks": 953280,
            "time": 676.8875,
            "velocity": 0.6220472440944882
          },
          {
            "duration": 0.25416666666660603,
            "durationTicks": 488,
            "midi": 55,
            "name": "G3",
            "ticks": 953760,
            "time": 677.1375,
            "velocity": 0.6929133858267716
          },
          {
            "duration": 0.23645833333330302,
            "durationTicks": 454,
            "midi": 54,
            "name": "F#3",
            "ticks": 954240,
            "time": 677.3875,
            "velocity": 0.6299212598425197
          },
          {
            "duration": 0.25,
            "durationTicks": 480,
            "midi": 55,
            "name": "G3",
            "ticks": 954720,
            "time": 677.6375,
            "velocity": 0.6929133858267716
          },
          {
            "duration": 0.12708333333330302,
            "durationTicks": 244,
            "midi": 47,
            "name": "B2",
            "ticks": 955200,
            "time": 677.8875,
            "velocity": 0.5905511811023622
          },
          {
            "duration": 0.12708333333330302,
            "durationTicks": 244,
            "midi": 48,
            "name": "C3",
            "ticks": 955440,
            "time": 678.0125,
            "velocity": 0.6535433070866141
          },
          {
            "duration": 0.23645833333330302,
            "durationTicks": 454,
            "midi": 50,
            "name": "D3",
            "ticks": 955680,
            "time": 678.1375,
            "velocity": 0.6850393700787402
          },
          {
            "duration": 0.25416666666660603,
            "durationTicks": 488,
            "midi": 43,
            "name": "G2",
            "ticks": 956160,
            "time": 678.3875,
            "velocity": 0.5984251968503937
          },
          {
            "duration": 0.23645833333330302,
            "durationTicks": 454,
            "midi": 47,
            "name": "B2",
            "ticks": 956640,
            "time": 678.6375,
            "velocity": 0.7007874015748031
          },
          {
            "duration": 0.25,
            "durationTicks": 480,
            "midi": 50,
            "name": "D3",
            "ticks": 957120,
            "time": 678.8875,
            "velocity": 0.6771653543307087
          },
          {
            "duration": 0.25,
            "durationTicks": 480,
            "midi": 55,
            "name": "G3",
            "ticks": 957600,
            "time": 679.1375,
            "velocity": 0.7007874015748031
          },
          {
            "duration": 0.12708333333330302,
            "durationTicks": 244,
            "midi": 52,
            "name": "E3",
            "ticks": 958080,
            "time": 679.3875,
            "velocity": 0.6614173228346457
          },
          {
            "duration": 0.12708333333330302,
            "durationTicks": 244,
            "midi": 53,
            "name": "F3",
            "ticks": 958320,
            "time": 679.5125,
            "velocity": 0.6929133858267716
          },
          {
            "duration": 0.23645833333330302,
            "durationTicks": 454,
            "midi": 55,
            "name": "G3",
            "ticks": 958560,
            "time": 679.6375,
            "velocity": 0.6771653543307087
          },
          {
            "duration": 0.25416666666660603,
            "durationTicks": 488,
            "midi": 47,
            "name": "B2",
            "ticks": 959040,
            "time": 679.8875,
            "velocity": 0.5826771653543307
          },
          {
            "duration": 0.23645833333330302,
            "durationTicks": 454,
            "midi": 48,
            "name": "C3",
            "ticks": 959520,
            "time": 680.1375,
            "velocity": 0.6614173228346457
          },
          {
            "duration": 0.25,
            "durationTicks": 480,
            "midi": 52,
            "name": "E3",
            "ticks": 960000,
            "time": 680.3875,
            "velocity": 0.6850393700787402
          },
          {
            "duration": 0.25,
            "durationTicks": 480,
            "midi": 57,
            "name": "A3",
            "ticks": 960480,
            "time": 680.6375,
            "velocity": 0.7244094488188977
          },
          {
            "duration": 0.12708333333330302,
            "durationTicks": 244,
            "midi": 54,
            "name": "F#3",
            "ticks": 960960,
            "time": 680.8875,
            "velocity": 0.6220472440944882
          },
          {
            "duration": 0.12708333333330302,
            "durationTicks": 244,
            "midi": 55,
            "name": "G3",
            "ticks": 961200,
            "time": 681.0125,
            "velocity": 0.6614173228346457
          },
          {
            "duration": 0.23645833333330302,
            "durationTicks": 454,
            "midi": 57,
            "name": "A3",
            "ticks": 961440,
            "time": 681.1375,
            "velocity": 0.7086614173228346
          },
          {
            "duration": 0.25416666666660603,
            "durationTicks": 488,
            "midi": 49,
            "name": "C#3",
            "ticks": 961920,
            "time": 681.3875,
            "velocity": 0.5669291338582677
          },
          {
            "duration": 0.23645833333330302,
            "durationTicks": 454,
            "midi": 50,
            "name": "D3",
            "ticks": 962400,
            "time": 681.6375,
            "velocity": 0.6929133858267716
          },
          {
            "duration": 0.25,
            "durationTicks": 480,
            "midi": 54,
            "name": "F#3",
            "ticks": 962880,
            "time": 681.8875,
            "velocity": 0.7086614173228346
          },
          {
            "duration": 0.25,
            "durationTicks": 480,
            "midi": 59,
            "name": "B3",
            "ticks": 963360,
            "time": 682.1375,
            "velocity": 0.7007874015748031
          },
          {
            "duration": 0.12708333333330302,
            "durationTicks": 244,
            "midi": 55,
            "name": "G3",
            "ticks": 963840,
            "time": 682.3875,
            "velocity": 0.6535433070866141
          },
          {
            "duration": 0.12708333333330302,
            "durationTicks": 244,
            "midi": 57,
            "name": "A3",
            "ticks": 964080,
            "time": 682.5125,
            "velocity": 0.6692913385826772
          },
          {
            "duration": 0.23645833333330302,
            "durationTicks": 454,
            "midi": 59,
            "name": "B3",
            "ticks": 964320,
            "time": 682.6375,
            "velocity": 0.6771653543307087
          },
          {
            "duration": 0.25416666666660603,
            "durationTicks": 488,
            "midi": 51,
            "name": "D#3",
            "ticks": 964800,
            "time": 682.8875,
            "velocity": 0.6062992125984252
          },
          {
            "duration": 0.23645833333330302,
            "durationTicks": 454,
            "midi": 52,
            "name": "E3",
            "ticks": 965280,
            "time": 683.1375,
            "velocity": 0.6456692913385826
          },
          {
            "duration": 0.25,
            "durationTicks": 480,
            "midi": 60,
            "name": "C4",
            "ticks": 965760,
            "time": 683.3875,
            "velocity": 0.7952755905511811
          },
          {
            "duration": 0.25416666666660603,
            "durationTicks": 488,
            "midi": 52,
            "name": "E3",
            "ticks": 966240,
            "time": 683.6375,
            "velocity": 0.6220472440944882
          },
          {
            "duration": 0.23645833333330302,
            "durationTicks": 454,
            "midi": 54,
            "name": "F#3",
            "ticks": 966720,
            "time": 683.8875,
            "velocity": 0.6929133858267716
          },
          {
            "duration": 0.25,
            "durationTicks": 480,
            "midi": 62,
            "name": "D4",
            "ticks": 967200,
            "time": 684.1375,
            "velocity": 0.8031496062992126
          },
          {
            "duration": 0.25416666666660603,
            "durationTicks": 488,
            "midi": 54,
            "name": "F#3",
            "ticks": 967680,
            "time": 684.3875,
            "velocity": 0.5984251968503937
          },
          {
            "duration": 0.23645833333330302,
            "durationTicks": 454,
            "midi": 55,
            "name": "G3",
            "ticks": 968160,
            "time": 684.6375,
            "velocity": 0.6850393700787402
          },
          {
            "duration": 0.25,
            "durationTicks": 480,
            "midi": 64,
            "name": "E4",
            "ticks": 968640,
            "time": 684.8875,
            "velocity": 0.84251968503937
          },
          {
            "duration": 0.25416666666660603,
            "durationTicks": 488,
            "midi": 50,
            "name": "D3",
            "ticks": 969120,
            "time": 685.1375,
            "velocity": 0.6062992125984252
          },
          {
            "duration": 0.12708333333330302,
            "durationTicks": 244,
            "midi": 52,
            "name": "E3",
            "ticks": 969600,
            "time": 685.3875,
            "velocity": 0.6850393700787402
          },
          {
            "duration": 0.12708333333330302,
            "durationTicks": 244,
            "midi": 54,
            "name": "F#3",
            "ticks": 969840,
            "time": 685.5125,
            "velocity": 0.7086614173228346
          },
          {
            "duration": 0.12708333333330302,
            "durationTicks": 244,
            "midi": 55,
            "name": "G3",
            "ticks": 970080,
            "time": 685.6375,
            "velocity": 0.6929133858267716
          },
          {
            "duration": 0.1171875,
            "durationTicks": 225,
            "midi": 57,
            "name": "A3",
            "ticks": 970320,
            "time": 685.7625,
            "velocity": 0.6771653543307087
          },
          {
            "duration": 0.22864583333330302,
            "durationTicks": 439,
            "midi": 59,
            "name": "B3",
            "ticks": 970560,
            "time": 685.8875,
            "velocity": 0.6614173228346457
          },
          {
            "duration": 0.25416666666660603,
            "durationTicks": 488,
            "midi": 55,
            "name": "G3",
            "ticks": 971040,
            "time": 686.1375,
            "velocity": 0.6377952755905512
          },
          {
            "duration": 0.23645833333330302,
            "durationTicks": 454,
            "midi": 54,
            "name": "F#3",
            "ticks": 971520,
            "time": 686.3875,
            "velocity": 0.6456692913385826
          },
          {
            "duration": 0.25,
            "durationTicks": 480,
            "midi": 55,
            "name": "G3",
            "ticks": 972000,
            "time": 686.6375,
            "velocity": 0.6614173228346457
          },
          {
            "duration": 0.22447916666669698,
            "durationTicks": 431,
            "midi": 50,
            "name": "D3",
            "ticks": 972480,
            "time": 686.8875,
            "velocity": 0.5826771653543307
          },
          {
            "duration": 0.22447916666669698,
            "durationTicks": 431,
            "midi": 47,
            "name": "B2",
            "ticks": 972960,
            "time": 687.1375,
            "velocity": 0.6299212598425197
          },
          {
            "duration": 0.75,
            "durationTicks": 1440,
            "midi": 43,
            "name": "G2",
            "ticks": 973440,
            "time": 687.3875,
            "velocity": 0.6220472440944882
          }
        ],
        "endOfTrackTicks": 974881
      }
    ]
  }